G04 DipTrace 4.0.0.2*
G04 2 - Bottom.gbr*
%MOIN*%
G04 #@! TF.FileFunction,Copper,L2,Bot*
G04 #@! TF.Part,Single*
G04 #@! TA.AperFunction,CopperBalancing*
%ADD15C,0.025*%
G04 #@! TA.AperFunction,Conductor*
%ADD16C,0.012*%
%ADD17C,0.016*%
G04 #@! TA.AperFunction,ComponentPad*
%ADD22R,0.059055X0.059055*%
%ADD23C,0.059055*%
%ADD24C,0.062992*%
%ADD25C,0.088583*%
G04 #@! TA.AperFunction,ViaPad*
%ADD26C,0.04*%
%FSLAX26Y26*%
G04*
G70*
G90*
G75*
G01*
G04 Bottom*
%LPD*%
X1262451Y1868701D2*
D16*
X999951D1*
X793307Y1662056D1*
X1199951Y1799950D2*
X1118699D1*
X1012450Y1693701D1*
Y1687450D1*
X949951Y1624951D1*
X1331201Y1743701D2*
X1208621Y1621121D1*
X1156201D1*
X1424950Y1731201D2*
X1356201Y1662451D1*
Y1618701D1*
X493701Y868701D2*
D17*
X630573D1*
X843701Y1787451D2*
D16*
X856201D1*
X974950Y1906201D1*
X1312451D1*
X1343701Y1874951D1*
X1487450Y1912451D2*
Y1668701D1*
X974950Y1699950D2*
Y1793701D1*
D26*
X793307Y1662056D3*
X949951Y1624951D3*
X1156201Y1621121D3*
X1356201Y1618701D3*
X493701Y868701D3*
X630573D3*
X843701Y1787451D3*
X1343701Y1874951D3*
X1487450Y1912451D3*
Y1668701D3*
X974950Y1699950D3*
Y1793701D3*
X706201Y1243701D3*
X1424950Y1731201D3*
X1199951Y1799950D3*
X1331201Y1743701D3*
X1262451Y1868701D3*
X449951Y1843701D3*
X581201Y1624951D3*
X887451Y1443701D3*
X1093701D3*
X1293701D3*
X1493701D3*
X1574951Y1699950D3*
X1331201Y1693701D3*
X631201Y1856201D3*
X433719Y1281332D2*
D15*
X485882D1*
X433719Y1256463D2*
X1599189D1*
X494148Y1231594D2*
X1599189D1*
X510332Y1206726D2*
X1599189D1*
X512844Y1181857D2*
X1599189D1*
X503908Y1156988D2*
X1599189D1*
X468491Y1132119D2*
X1599189D1*
X433719Y1107251D2*
X1599189D1*
X433719Y1082382D2*
X1599189D1*
X433719Y1057513D2*
X458180D1*
X536706D2*
X733770D1*
X812297D2*
X950295D1*
X1028822D2*
X1225886D1*
X1304412D2*
X1599189D1*
X561108Y1032644D2*
X709369D1*
X836698D2*
X925894D1*
X1053260D2*
X1201484D1*
X1328850D2*
X1599189D1*
X569899Y1007776D2*
X700577D1*
X845490D2*
X917102D1*
X1062051D2*
X1192693D1*
X1337642D2*
X1599189D1*
X569325Y982907D2*
X701151D1*
X844916D2*
X917713D1*
X1061441D2*
X1193303D1*
X1337031D2*
X1599189D1*
X559026Y958038D2*
X711450D1*
X834617D2*
X927975D1*
X1051142D2*
X1203566D1*
X1326732D2*
X1599189D1*
X433719Y933169D2*
X464387D1*
X530499D2*
X739978D1*
X806089D2*
X956504D1*
X1022650D2*
X1232094D1*
X1298240D2*
X1436814D1*
X433719Y908301D2*
X466828D1*
X520559D2*
X603690D1*
X657457D2*
X1410689D1*
X433719Y883432D2*
X447092D1*
X677193D2*
X1395115D1*
X678449Y858563D2*
X1386144D1*
X433719Y833694D2*
X460584D1*
X526802D2*
X597482D1*
X663664D2*
X1382413D1*
X433719Y808825D2*
X1383490D1*
X433719Y783957D2*
X1389446D1*
X433719Y759088D2*
X1401072D1*
X433719Y734219D2*
X1420522D1*
X433719Y709350D2*
X1455150D1*
X1576343D2*
X1599189D1*
X433719Y684482D2*
X1599189D1*
X433719Y659613D2*
X1599189D1*
X433719Y634744D2*
X1599189D1*
X433719Y609875D2*
X522879D1*
X609802D2*
X798470D1*
X885392D2*
X1014995D1*
X1101919D2*
X1290585D1*
X1377509D2*
X1599189D1*
X433719Y585007D2*
X501133D1*
X631549D2*
X776723D1*
X907139D2*
X993249D1*
X1123664D2*
X1268840D1*
X1399255D2*
X1599189D1*
X433719Y560138D2*
X493490D1*
X639192D2*
X769080D1*
X914782D2*
X985642D1*
X1131307D2*
X1261232D1*
X1406898D2*
X1599189D1*
X433719Y535269D2*
X495105D1*
X637577D2*
X770696D1*
X913168D2*
X987220D1*
X1129728D2*
X1262811D1*
X1405319D2*
X1599189D1*
X433719Y510400D2*
X506659D1*
X626022D2*
X782249D1*
X901613D2*
X998774D1*
X1118138D2*
X1274365D1*
X1393728D2*
X1599189D1*
X433719Y485531D2*
X539852D1*
X592829D2*
X815442D1*
X868420D2*
X1032004D1*
X1084945D2*
X1307594D1*
X1360535D2*
X1599189D1*
X433719Y460663D2*
X1599189D1*
X433719Y435794D2*
X1599189D1*
X1601693Y727967D2*
X1595986Y723215D1*
X1588533Y717848D1*
X1580723Y713016D1*
X1572592Y708743D1*
X1564184Y705050D1*
X1555535Y701955D1*
X1546693Y699475D1*
X1537697Y697619D1*
X1528594Y696399D1*
X1519428Y695819D1*
X1510244Y695883D1*
X1501087Y696591D1*
X1492001Y697938D1*
X1483033Y699919D1*
X1474226Y702522D1*
X1465622Y705736D1*
X1457265Y709546D1*
X1449196Y713932D1*
X1441453Y718873D1*
X1434075Y724343D1*
X1427100Y730318D1*
X1420559Y736765D1*
X1414487Y743656D1*
X1408912Y750955D1*
X1403862Y758627D1*
X1399364Y766634D1*
X1395436Y774936D1*
X1392100Y783493D1*
X1389371Y792264D1*
X1387264Y801202D1*
X1385787Y810268D1*
X1384951Y819413D1*
X1384757Y828596D1*
X1385206Y837770D1*
X1386298Y846890D1*
X1388026Y855909D1*
X1390381Y864787D1*
X1393353Y873478D1*
X1396927Y881938D1*
X1401083Y890129D1*
X1405804Y898007D1*
X1411066Y905534D1*
X1416841Y912676D1*
X1423104Y919395D1*
X1429820Y925657D1*
X1436961Y931436D1*
X1444487Y936698D1*
X1452365Y941421D1*
X1460552Y945580D1*
X1469013Y949156D1*
X1477703Y952130D1*
X1486580Y954487D1*
X1495600Y956217D1*
X1504719Y957311D1*
X1513892Y957762D1*
X1523075Y957571D1*
X1532220Y956736D1*
X1541286Y955262D1*
X1550227Y953157D1*
X1558997Y950430D1*
X1567555Y947097D1*
X1575858Y943171D1*
X1583866Y938673D1*
X1591539Y933626D1*
X1601667Y925563D1*
X1601673Y1276906D1*
X491745Y1281354D1*
X488917Y1282152D1*
X486353Y1283588D1*
X478612Y1291112D1*
X463529Y1306196D1*
X431194Y1306201D1*
X431201Y1242450D1*
X439217Y1244976D1*
X448206Y1246400D1*
X457306D1*
X466295Y1244976D1*
X474950Y1242164D1*
X483059Y1238033D1*
X490421Y1232684D1*
X496857Y1226248D1*
X502206Y1218886D1*
X506337Y1210777D1*
X509150Y1202122D1*
X510573Y1193133D1*
Y1184033D1*
X509150Y1175043D1*
X506337Y1166388D1*
X502206Y1158280D1*
X496857Y1150917D1*
X490421Y1144482D1*
X483059Y1139133D1*
X474950Y1135001D1*
X466295Y1132189D1*
X457306Y1130765D1*
X448206D1*
X439217Y1132189D1*
X431213Y1134761D1*
X431201Y1021978D1*
X434365Y1029160D1*
X440169Y1038631D1*
X447385Y1047077D1*
X455831Y1054293D1*
X465302Y1060097D1*
X475566Y1064348D1*
X486366Y1066941D1*
X497441Y1067812D1*
X508516Y1066941D1*
X519316Y1064348D1*
X529580Y1060097D1*
X539051Y1054293D1*
X547497Y1047077D1*
X554713Y1038631D1*
X560517Y1029160D1*
X564768Y1018896D1*
X567361Y1008096D1*
X568232Y997021D1*
X567361Y985946D1*
X564768Y975146D1*
X560517Y964882D1*
X554713Y955411D1*
X547497Y946965D1*
X539051Y939749D1*
X529580Y933945D1*
X519316Y929694D1*
X508516Y927101D1*
X497441Y926230D1*
X486366Y927101D1*
X475566Y929694D1*
X465302Y933945D1*
X455831Y939749D1*
X447385Y946965D1*
X440169Y955411D1*
X434365Y964882D1*
X431205Y972192D1*
X431201Y431252D1*
X1601648Y435681D1*
X1601673Y727877D1*
X843605Y991467D2*
X841867Y980495D1*
X838434Y969930D1*
X833391Y960033D1*
X826862Y951046D1*
X819007Y943190D1*
X810020Y936661D1*
X800122Y931618D1*
X789558Y928185D1*
X778585Y926448D1*
X767478D1*
X756505Y928185D1*
X745941Y931618D1*
X736043Y936661D1*
X727056Y943190D1*
X719201Y951046D1*
X712672Y960033D1*
X707629Y969930D1*
X704196Y980495D1*
X702458Y991467D1*
Y1002575D1*
X704196Y1013547D1*
X707629Y1024112D1*
X712672Y1034009D1*
X719201Y1042996D1*
X727056Y1050852D1*
X736043Y1057381D1*
X745941Y1062424D1*
X756505Y1065857D1*
X767478Y1067594D1*
X778585D1*
X789558Y1065857D1*
X800122Y1062424D1*
X810020Y1057381D1*
X819007Y1050852D1*
X826862Y1042996D1*
X833391Y1034009D1*
X838434Y1024112D1*
X841867Y1013547D1*
X843605Y1002575D1*
Y991467D1*
X636912Y546585D2*
X635175Y535613D1*
X631741Y525049D1*
X626698Y515151D1*
X620169Y506164D1*
X612314Y498308D1*
X603327Y491780D1*
X593429Y486736D1*
X582865Y483303D1*
X571892Y481566D1*
X560785D1*
X549812Y483303D1*
X539248Y486736D1*
X529350Y491780D1*
X520364Y498308D1*
X512508Y506164D1*
X505979Y515151D1*
X500936Y525049D1*
X497503Y535613D1*
X495765Y546585D1*
Y557693D1*
X497503Y568665D1*
X500936Y579230D1*
X505979Y589127D1*
X512508Y598114D1*
X520364Y605970D1*
X529350Y612499D1*
X539248Y617542D1*
X549812Y620975D1*
X560785Y622713D1*
X571892D1*
X582865Y620975D1*
X593429Y617542D1*
X603327Y612499D1*
X612314Y605970D1*
X620169Y598114D1*
X626698Y589127D1*
X631741Y579230D1*
X635175Y568665D1*
X636912Y557693D1*
Y546585D1*
X912503D2*
X910765Y535613D1*
X907332Y525049D1*
X902289Y515151D1*
X895760Y506164D1*
X887904Y498308D1*
X878917Y491780D1*
X869020Y486736D1*
X858455Y483303D1*
X847483Y481566D1*
X836375D1*
X825403Y483303D1*
X814839Y486736D1*
X804941Y491780D1*
X795954Y498308D1*
X788098Y506164D1*
X781570Y515151D1*
X776526Y525049D1*
X773093Y535613D1*
X771356Y546585D1*
Y557693D1*
X773093Y568665D1*
X776526Y579230D1*
X781570Y589127D1*
X788098Y598114D1*
X795954Y605970D1*
X804941Y612499D1*
X814839Y617542D1*
X825403Y620975D1*
X836375Y622713D1*
X847483D1*
X858455Y620975D1*
X869020Y617542D1*
X878917Y612499D1*
X887904Y605970D1*
X895760Y598114D1*
X902289Y589127D1*
X907332Y579230D1*
X910765Y568665D1*
X912503Y557693D1*
Y546585D1*
X1060140Y991467D2*
X1058403Y980495D1*
X1054970Y969930D1*
X1049927Y960033D1*
X1043398Y951046D1*
X1035542Y943190D1*
X1026555Y936661D1*
X1016657Y931618D1*
X1006093Y928185D1*
X995121Y926448D1*
X984013D1*
X973041Y928185D1*
X962476Y931618D1*
X952579Y936661D1*
X943592Y943190D1*
X935736Y951046D1*
X929207Y960033D1*
X924164Y969930D1*
X920731Y980495D1*
X918993Y991467D1*
Y1002575D1*
X920731Y1013547D1*
X924164Y1024112D1*
X929207Y1034009D1*
X935736Y1042996D1*
X943592Y1050852D1*
X952579Y1057381D1*
X962476Y1062424D1*
X973041Y1065857D1*
X984013Y1067594D1*
X995121D1*
X1006093Y1065857D1*
X1016657Y1062424D1*
X1026555Y1057381D1*
X1035542Y1050852D1*
X1043398Y1042996D1*
X1049927Y1034009D1*
X1054970Y1024112D1*
X1058403Y1013547D1*
X1060140Y1002575D1*
Y991467D1*
X1335731D2*
X1333993Y980495D1*
X1330560Y969930D1*
X1325517Y960033D1*
X1318988Y951046D1*
X1311133Y943190D1*
X1302146Y936661D1*
X1292248Y931618D1*
X1281684Y928185D1*
X1270711Y926448D1*
X1259604D1*
X1248631Y928185D1*
X1238067Y931618D1*
X1228169Y936661D1*
X1219182Y943190D1*
X1211327Y951046D1*
X1204798Y960033D1*
X1199755Y969930D1*
X1196322Y980495D1*
X1194584Y991467D1*
Y1002575D1*
X1196322Y1013547D1*
X1199755Y1024112D1*
X1204798Y1034009D1*
X1211327Y1042996D1*
X1219182Y1050852D1*
X1228169Y1057381D1*
X1238067Y1062424D1*
X1248631Y1065857D1*
X1259604Y1067594D1*
X1270711D1*
X1281684Y1065857D1*
X1292248Y1062424D1*
X1302146Y1057381D1*
X1311133Y1050852D1*
X1318988Y1042996D1*
X1325517Y1034009D1*
X1330560Y1024112D1*
X1333993Y1013547D1*
X1335731Y1002575D1*
Y991467D1*
X1129038Y546585D2*
X1127301Y535613D1*
X1123867Y525049D1*
X1118824Y515151D1*
X1112295Y506164D1*
X1104440Y498308D1*
X1095453Y491780D1*
X1085555Y486736D1*
X1074991Y483303D1*
X1064018Y481566D1*
X1052911D1*
X1041938Y483303D1*
X1031374Y486736D1*
X1021476Y491780D1*
X1012490Y498308D1*
X1004634Y506164D1*
X998105Y515151D1*
X993062Y525049D1*
X989629Y535613D1*
X987891Y546585D1*
Y557693D1*
X989629Y568665D1*
X993062Y579230D1*
X998105Y589127D1*
X1004634Y598114D1*
X1012490Y605970D1*
X1021476Y612499D1*
X1031374Y617542D1*
X1041938Y620975D1*
X1052911Y622713D1*
X1064018D1*
X1074991Y620975D1*
X1085555Y617542D1*
X1095453Y612499D1*
X1104440Y605970D1*
X1112295Y598114D1*
X1118824Y589127D1*
X1123867Y579230D1*
X1127301Y568665D1*
X1129038Y557693D1*
Y546585D1*
X1404629D2*
X1402891Y535613D1*
X1399458Y525049D1*
X1394415Y515151D1*
X1387886Y506164D1*
X1380030Y498308D1*
X1371043Y491780D1*
X1361146Y486736D1*
X1350581Y483303D1*
X1339609Y481566D1*
X1328501D1*
X1317529Y483303D1*
X1306965Y486736D1*
X1297067Y491780D1*
X1288080Y498308D1*
X1280224Y506164D1*
X1273696Y515151D1*
X1268652Y525049D1*
X1265219Y535613D1*
X1263482Y546585D1*
Y557693D1*
X1265219Y568665D1*
X1268652Y579230D1*
X1273696Y589127D1*
X1280224Y598114D1*
X1288080Y605970D1*
X1297067Y612499D1*
X1306965Y617542D1*
X1317529Y620975D1*
X1328501Y622713D1*
X1339609D1*
X1350581Y620975D1*
X1361146Y617542D1*
X1371043Y612499D1*
X1380030Y605970D1*
X1387886Y598114D1*
X1394415Y589127D1*
X1399458Y579230D1*
X1402891Y568665D1*
X1404629Y557693D1*
Y546585D1*
X524898Y903201D2*
X599394D1*
X603241Y906320D1*
X609463Y910133D1*
X616205Y912925D1*
X623299Y914629D1*
X630573Y915201D1*
X637848Y914629D1*
X644942Y912925D1*
X651684Y910133D1*
X657906Y906320D1*
X663454Y901581D1*
X668193Y896033D1*
X672005Y889811D1*
X674798Y883070D1*
X676501Y875975D1*
X677073Y868701D1*
X676501Y861427D1*
X674798Y854332D1*
X672005Y847591D1*
X668193Y841369D1*
X663454Y835820D1*
X657906Y831081D1*
X651684Y827269D1*
X644942Y824476D1*
X637848Y822773D1*
X630573Y822201D1*
X623299Y822773D1*
X616205Y824476D1*
X609463Y827269D1*
X603241Y831081D1*
X599442Y834203D1*
X524881Y834201D1*
X521033Y831081D1*
X514811Y827269D1*
X508070Y824476D1*
X500975Y822773D1*
X493701Y822201D1*
X486427Y822773D1*
X479332Y824476D1*
X472591Y827269D1*
X466369Y831081D1*
X460820Y835820D1*
X456081Y841369D1*
X452269Y847591D1*
X449476Y854332D1*
X447773Y861427D1*
X447201Y868701D1*
X447773Y875975D1*
X449476Y883070D1*
X452269Y889811D1*
X456081Y896033D1*
X460820Y901581D1*
X466369Y906320D1*
X472591Y910133D1*
X479332Y912925D1*
X486427Y914629D1*
X493701Y915201D1*
X500975Y914629D1*
X508070Y912925D1*
X514811Y910133D1*
X521033Y906320D1*
X524832Y903198D1*
X433719Y1981332D2*
X516563D1*
X1530663D2*
X1599189D1*
X433719Y1956463D2*
X516383D1*
X1530841D2*
X1599189D1*
X433719Y1931594D2*
X528979D1*
X1532314D2*
X1599189D1*
X433719Y1906726D2*
X927007D1*
X1380164D2*
X1438787D1*
X1536081D2*
X1599189D1*
X433719Y1881857D2*
X902139D1*
X1392185D2*
X1449946D1*
X1524957D2*
X1599189D1*
X433719Y1856988D2*
X877272D1*
X1389100D2*
X1452459D1*
X1522445D2*
X1599189D1*
X433719Y1832119D2*
X828289D1*
X1293647D2*
X1323096D1*
X1364303D2*
X1452459D1*
X1522445D2*
X1599189D1*
X433719Y1807251D2*
X799115D1*
X1248361D2*
X1452459D1*
X1522445D2*
X1599189D1*
X433719Y1782382D2*
X794988D1*
X1245491D2*
X1302894D1*
X1359495D2*
X1452459D1*
X1522445D2*
X1599189D1*
X433719Y1757513D2*
X805610D1*
X1124740D2*
X1178448D1*
X1221449D2*
X1284306D1*
X1522445D2*
X1599189D1*
X433719Y1732644D2*
X815442D1*
X912343D2*
X939387D1*
X1099873D2*
X1271675D1*
X1522445D2*
X1599189D1*
X433719Y1707776D2*
X782322D1*
X887474D2*
X926612D1*
X1074969D2*
X1246806D1*
X1522445D2*
X1599189D1*
X433719Y1682907D2*
X749236D1*
X862606D2*
X929196D1*
X1050101D2*
X1221938D1*
X1425127D2*
X1440689D1*
X1534215D2*
X1599189D1*
X433719Y1658038D2*
X744463D1*
X842117D2*
X914770D1*
X1031513D2*
X1125411D1*
X1294007D2*
X1321194D1*
X1400260D2*
X1439684D1*
X1535219D2*
X1599189D1*
X433719Y1633169D2*
X754367D1*
X832248D2*
X901672D1*
X1006646D2*
X1108795D1*
X1269139D2*
X1309496D1*
X1402879D2*
X1454971D1*
X1519933D2*
X1599189D1*
X433719Y1608301D2*
X904041D1*
X995881D2*
X1109010D1*
X1244270D2*
X1308383D1*
X1404028D2*
X1599189D1*
X433719Y1583432D2*
X926504D1*
X973381D2*
X1126451D1*
X1185923D2*
X1323383D1*
X1388992D2*
X1599189D1*
X433719Y1558563D2*
X1599189D1*
X433719Y1533694D2*
X1599189D1*
X433719Y1508825D2*
X1599189D1*
X433719Y1483957D2*
X1599189D1*
X433719Y1459088D2*
X1599189D1*
X491062Y1434219D2*
X1599189D1*
X509399Y1409350D2*
X1599189D1*
X623617Y1943240D2*
X618944Y1935572D1*
X613235Y1928886D1*
X606549Y1923177D1*
X599052Y1918583D1*
X590930Y1915219D1*
X582382Y1913167D1*
X573617Y1912476D1*
X564852Y1913167D1*
X556303Y1915219D1*
X548181Y1918583D1*
X540685Y1923177D1*
X533999Y1928886D1*
X528290Y1935572D1*
X523696Y1943068D1*
X520332Y1951190D1*
X518280Y1959739D1*
X517589Y1968504D1*
X518280Y1977269D1*
X520332Y1985818D1*
X523696Y1993940D1*
X528290Y2001436D1*
X532144Y2006115D1*
X431231Y2006190D1*
X431201Y1442451D1*
X439217Y1444976D1*
X448206Y1446400D1*
X457306D1*
X466295Y1444976D1*
X474950Y1442164D1*
X483059Y1438033D1*
X490421Y1432684D1*
X496857Y1426248D1*
X502206Y1418886D1*
X506337Y1410777D1*
X509150Y1402122D1*
X509583Y1399941D1*
X1601672Y1400291D1*
X1601673Y2005210D1*
X1515866Y2005298D1*
X1521379Y1997778D1*
X1525370Y1989945D1*
X1528087Y1981583D1*
X1529462Y1972900D1*
Y1964108D1*
X1528087Y1955425D1*
X1525370Y1947063D1*
X1523100Y1942303D1*
X1527098Y1936748D1*
X1530411Y1930247D1*
X1532665Y1923307D1*
X1533807Y1916100D1*
Y1908803D1*
X1532665Y1901596D1*
X1530411Y1894656D1*
X1527098Y1888155D1*
X1522808Y1882252D1*
X1519944Y1879213D1*
X1519950Y1701970D1*
X1525070Y1696033D1*
X1528882Y1689811D1*
X1531675Y1683070D1*
X1533378Y1675975D1*
X1533950Y1668701D1*
X1533378Y1661427D1*
X1531675Y1654332D1*
X1528882Y1647591D1*
X1525070Y1641369D1*
X1520331Y1635820D1*
X1514782Y1631081D1*
X1508560Y1627269D1*
X1501819Y1624476D1*
X1494724Y1622773D1*
X1487450Y1622201D1*
X1480176Y1622773D1*
X1473081Y1624476D1*
X1466340Y1627269D1*
X1460118Y1631081D1*
X1454570Y1635820D1*
X1449831Y1641369D1*
X1446018Y1647591D1*
X1443226Y1654332D1*
X1441522Y1661427D1*
X1440950Y1668701D1*
X1441522Y1675975D1*
X1443226Y1683070D1*
X1445976Y1689720D1*
X1439319Y1686976D1*
X1432224Y1685273D1*
X1424423Y1684722D1*
X1390160Y1650449D1*
X1393820Y1646033D1*
X1397633Y1639811D1*
X1400425Y1633070D1*
X1402129Y1625975D1*
X1402701Y1618701D1*
X1402129Y1611427D1*
X1400425Y1604332D1*
X1397633Y1597591D1*
X1393820Y1591369D1*
X1389081Y1585820D1*
X1383533Y1581081D1*
X1377311Y1577269D1*
X1370570Y1574476D1*
X1363475Y1572773D1*
X1356201Y1572201D1*
X1348927Y1572773D1*
X1341832Y1574476D1*
X1335091Y1577269D1*
X1328869Y1581081D1*
X1323320Y1585820D1*
X1318581Y1591369D1*
X1314769Y1597591D1*
X1311976Y1604332D1*
X1310273Y1611427D1*
X1309701Y1618701D1*
X1310273Y1625975D1*
X1311976Y1633070D1*
X1314769Y1639811D1*
X1318581Y1646033D1*
X1323707Y1651940D1*
X1323801Y1665001D1*
X1324598Y1670038D1*
X1326175Y1674888D1*
X1328490Y1679433D1*
X1331488Y1683559D1*
X1348210Y1700423D1*
X1342056Y1698486D1*
X1334849Y1697344D1*
X1330673Y1697222D1*
X1229728Y1596408D1*
X1225602Y1593409D1*
X1221058Y1591094D1*
X1216207Y1589518D1*
X1211171Y1588720D1*
X1189442Y1588621D1*
X1183533Y1583501D1*
X1177311Y1579689D1*
X1170570Y1576896D1*
X1163475Y1575193D1*
X1156201Y1574621D1*
X1148927Y1575193D1*
X1141832Y1576896D1*
X1135091Y1579689D1*
X1128869Y1583501D1*
X1123320Y1588240D1*
X1118581Y1593789D1*
X1114769Y1600010D1*
X1111976Y1606752D1*
X1110273Y1613846D1*
X1109701Y1621121D1*
X1110273Y1628395D1*
X1111976Y1635490D1*
X1114769Y1642231D1*
X1118581Y1648453D1*
X1123320Y1654001D1*
X1128869Y1658740D1*
X1135091Y1662552D1*
X1141832Y1665345D1*
X1148927Y1667049D1*
X1156201Y1667621D1*
X1163475Y1667049D1*
X1170570Y1665345D1*
X1177311Y1662552D1*
X1183533Y1658740D1*
X1189440Y1653614D1*
X1195188Y1653621D1*
X1284714Y1743176D1*
X1285273Y1750975D1*
X1286976Y1758070D1*
X1289769Y1764811D1*
X1293581Y1771033D1*
X1298320Y1776581D1*
X1303869Y1781320D1*
X1310091Y1785133D1*
X1316832Y1787925D1*
X1323927Y1789629D1*
X1331201Y1790201D1*
X1338475Y1789629D1*
X1345570Y1787925D1*
X1352311Y1785133D1*
X1358533Y1781320D1*
X1364081Y1776581D1*
X1368820Y1771033D1*
X1372633Y1764811D1*
X1375425Y1758070D1*
X1377129Y1750975D1*
X1377701Y1743701D1*
X1377129Y1736427D1*
X1375425Y1729332D1*
X1374433Y1726642D1*
X1378457Y1730669D1*
X1379022Y1738475D1*
X1380726Y1745570D1*
X1383518Y1752311D1*
X1387331Y1758533D1*
X1392070Y1764081D1*
X1397618Y1768820D1*
X1403840Y1772633D1*
X1410581Y1775425D1*
X1417676Y1777129D1*
X1424950Y1777701D1*
X1432224Y1777129D1*
X1439319Y1775425D1*
X1446060Y1772633D1*
X1452282Y1768820D1*
X1454959Y1766710D1*
X1454950Y1879182D1*
X1449831Y1885119D1*
X1446018Y1891341D1*
X1443226Y1898083D1*
X1441522Y1905177D1*
X1440950Y1912451D1*
X1441522Y1919726D1*
X1442021Y1922230D1*
X1437220Y1925900D1*
X1431004Y1932117D1*
X1425836Y1939230D1*
X1423529Y1943068D1*
X1418934Y1935572D1*
X1413226Y1928886D1*
X1406539Y1923177D1*
X1399043Y1918583D1*
X1390921Y1915219D1*
X1382373Y1913167D1*
X1373608Y1912476D1*
X1371014Y1912579D1*
X1376581Y1907832D1*
X1381320Y1902283D1*
X1385133Y1896062D1*
X1387925Y1889320D1*
X1389629Y1882226D1*
X1390201Y1874951D1*
X1389629Y1867677D1*
X1387925Y1860583D1*
X1385133Y1853841D1*
X1381320Y1847619D1*
X1376581Y1842071D1*
X1371033Y1837332D1*
X1364811Y1833520D1*
X1358070Y1830727D1*
X1350975Y1829024D1*
X1343701Y1828451D1*
X1336427Y1829024D1*
X1329332Y1830727D1*
X1322591Y1833520D1*
X1316369Y1837332D1*
X1310820Y1842071D1*
X1306081Y1847619D1*
X1304806Y1849529D1*
X1302100Y1844404D1*
X1297810Y1838501D1*
X1292651Y1833343D1*
X1286748Y1829052D1*
X1280247Y1825740D1*
X1273307Y1823486D1*
X1266100Y1822344D1*
X1258803D1*
X1251596Y1823486D1*
X1244656Y1825740D1*
X1238155Y1829052D1*
X1232832Y1832831D1*
X1237571Y1827282D1*
X1241383Y1821060D1*
X1244176Y1814319D1*
X1245879Y1807224D1*
X1246451Y1799950D1*
X1245879Y1792676D1*
X1244176Y1785581D1*
X1241383Y1778840D1*
X1237571Y1772618D1*
X1232832Y1767070D1*
X1227283Y1762331D1*
X1221062Y1758518D1*
X1214320Y1755726D1*
X1207226Y1754022D1*
X1199951Y1753450D1*
X1192677Y1754022D1*
X1185583Y1755726D1*
X1178841Y1758518D1*
X1172619Y1762331D1*
X1166713Y1767457D1*
X1132151Y1767450D1*
X1043871Y1679160D1*
X1042476Y1675013D1*
X1040161Y1670469D1*
X1037163Y1666343D1*
X996424Y1625462D1*
X995879Y1617677D1*
X994176Y1610583D1*
X991383Y1603841D1*
X987571Y1597619D1*
X982832Y1592071D1*
X977283Y1587332D1*
X971062Y1583520D1*
X964320Y1580727D1*
X957226Y1579024D1*
X949951Y1578451D1*
X942677Y1579024D1*
X935583Y1580727D1*
X928841Y1583520D1*
X922619Y1587332D1*
X917071Y1592071D1*
X912332Y1597619D1*
X908520Y1603841D1*
X905727Y1610583D1*
X904024Y1617677D1*
X903451Y1624951D1*
X904024Y1632226D1*
X905727Y1639320D1*
X908520Y1646062D1*
X912332Y1652283D1*
X917071Y1657832D1*
X922619Y1662571D1*
X928841Y1666383D1*
X935583Y1669176D1*
X939222Y1670192D1*
X935302Y1675654D1*
X931990Y1682155D1*
X929735Y1689094D1*
X928593Y1696302D1*
Y1703598D1*
X929735Y1710806D1*
X931990Y1717745D1*
X935302Y1724247D1*
X939592Y1730150D1*
X942457Y1733189D1*
X942450Y1760461D1*
X940123Y1762925D1*
X839797Y1662584D1*
X839235Y1654782D1*
X837531Y1647688D1*
X834739Y1640946D1*
X830927Y1634724D1*
X826188Y1629176D1*
X820639Y1624437D1*
X814417Y1620625D1*
X807676Y1617832D1*
X800581Y1616129D1*
X793307Y1615556D1*
X786033Y1616129D1*
X778938Y1617832D1*
X772197Y1620625D1*
X765975Y1624437D1*
X760427Y1629176D1*
X755688Y1634724D1*
X751875Y1640946D1*
X749083Y1647688D1*
X747379Y1654782D1*
X746807Y1662056D1*
X747379Y1669331D1*
X749083Y1676425D1*
X751875Y1683167D1*
X755688Y1689388D1*
X760427Y1694937D1*
X765975Y1699676D1*
X772197Y1703488D1*
X778938Y1706281D1*
X786033Y1707984D1*
X793835Y1708535D1*
X828724Y1743436D1*
X822591Y1746020D1*
X816369Y1749832D1*
X810820Y1754571D1*
X806081Y1760119D1*
X802269Y1766341D1*
X799476Y1773083D1*
X797773Y1780177D1*
X797201Y1787451D1*
X797773Y1794726D1*
X799476Y1801820D1*
X802269Y1808562D1*
X806081Y1814783D1*
X810820Y1820332D1*
X816369Y1825071D1*
X822591Y1828883D1*
X829332Y1831676D1*
X836427Y1833379D1*
X843701Y1833951D1*
X850975Y1833379D1*
X855256Y1832470D1*
X943824Y1921038D1*
X937230Y1925900D1*
X931013Y1932117D1*
X925845Y1939230D1*
X923538Y1943068D1*
X918944Y1935572D1*
X913235Y1928886D1*
X906549Y1923177D1*
X899052Y1918583D1*
X890930Y1915219D1*
X882382Y1913167D1*
X873617Y1912476D1*
X864852Y1913167D1*
X856303Y1915219D1*
X848181Y1918583D1*
X840685Y1923177D1*
X833999Y1928886D1*
X828290Y1935572D1*
X823617Y1943240D1*
X818944Y1935572D1*
X813235Y1928886D1*
X806549Y1923177D1*
X799052Y1918583D1*
X790930Y1915219D1*
X782382Y1913167D1*
X773617Y1912476D1*
X764852Y1913167D1*
X756303Y1915219D1*
X748181Y1918583D1*
X740685Y1923177D1*
X733999Y1928886D1*
X728290Y1935572D1*
X723617Y1943240D1*
X718944Y1935572D1*
X713235Y1928886D1*
X706549Y1923177D1*
X699052Y1918583D1*
X690930Y1915219D1*
X682382Y1913167D1*
X673617Y1912476D1*
X664852Y1913167D1*
X656303Y1915219D1*
X648181Y1918583D1*
X640685Y1923177D1*
X633999Y1928886D1*
X628290Y1935572D1*
X623617Y1943240D1*
X1229833Y1835579D2*
X1229213Y1836207D1*
D22*
X473617Y1968504D3*
D23*
X573617D3*
X673617D3*
X773617D3*
X873617D3*
X973617D3*
X1073617D3*
X1173617D3*
X1273608D3*
X1373608D3*
X1473608D3*
X1573608D3*
D24*
X452756Y1488583D3*
Y1388583D3*
Y1288583D3*
Y1188583D3*
D25*
X497441Y997021D3*
X635236D3*
X773031D3*
X566339Y552139D3*
X704134D3*
X841929D3*
X989567Y997021D3*
X1127362D3*
X1265157D3*
X1058465Y552139D3*
X1196260D3*
X1334055D3*
M02*
