G04 DipTrace 4.0.0.2*
G04 BottomSilk.gbr*
%MOIN*%
G04 #@! TF.FileFunction,Legend,Bot*
G04 #@! TF.Part,Single*
%ADD10C,0.009843*%
%FSLAX26Y26*%
G04*
G70*
G90*
G75*
G01*
G04 BotSilk*
%LPD*%
X699950Y749950D2*
D10*
Y687451D1*
X662451Y681201D2*
X731201D1*
X681201Y662451D2*
X718701D1*
X693701Y643701D2*
X706201D1*
X1193701Y756201D2*
Y693701D1*
X1156201Y687451D2*
X1224950D1*
X1174951Y668701D2*
X1212450D1*
X1187451Y649951D2*
X1199951D1*
X1124950Y1174950D2*
Y1112451D1*
X1087451Y1106201D2*
X1156201D1*
X1106201Y1087451D2*
X1143701D1*
X1118701Y1068701D2*
X1131201D1*
X637450Y1174950D2*
Y1112451D1*
X599951Y1106201D2*
X668701D1*
X618701Y1087451D2*
X656201D1*
X631201Y1068701D2*
X643701D1*
G36*
X1586678Y1547796D2*
X1589040Y1550159D1*
X1590615Y1553308D1*
X1591402Y1557245D1*
Y1559607D1*
X1590615Y1562757D1*
X1589827Y1565119D1*
X1585103Y1569844D1*
X1581953Y1571419D1*
X1579591Y1572206D1*
X1576442Y1572993D1*
X1566205D1*
X1563056Y1572206D1*
X1560694Y1571419D1*
X1557544Y1569844D1*
X1552820Y1565119D1*
X1551245Y1562757D1*
X1550457Y1560395D1*
Y1552521D1*
X1551245Y1550159D1*
X1551638Y1549371D1*
X1551893Y1548445D1*
X1551624Y1547787D1*
X1551245Y1547009D1*
Y1540710D1*
X1587465Y1539922D1*
Y1531261D1*
X1586678Y1530474D1*
X1585103Y1529686D1*
X1581953Y1528899D1*
X1576442Y1528111D1*
X1572242Y1527324D1*
X1568043D1*
X1563843Y1528111D1*
X1559119Y1528899D1*
X1555969Y1529686D1*
X1548095Y1533623D1*
X1542583Y1539135D1*
Y1539922D1*
X1541008Y1542285D1*
X1540221Y1544647D1*
X1539434Y1547796D1*
X1538646Y1548584D1*
Y1561182D1*
X1539434Y1561970D1*
X1540221Y1565119D1*
X1541796Y1568269D1*
X1543371Y1570631D1*
Y1571419D1*
X1548883Y1576930D1*
X1550457Y1577718D1*
X1552820Y1579293D1*
X1553607Y1580080D1*
X1555182Y1580867D1*
X1559906Y1582442D1*
X1563056Y1583230D1*
X1568043Y1584017D1*
X1573029D1*
X1578016Y1583230D1*
X1581166Y1582442D1*
X1585890Y1580867D1*
X1589040Y1579293D1*
X1589827Y1578505D1*
X1591402Y1577718D1*
X1597701Y1571419D1*
Y1570631D1*
X1599276Y1568269D1*
X1600851Y1563544D1*
X1601638Y1559607D1*
X1602426Y1558820D1*
Y1550159D1*
X1601638Y1549371D1*
X1600851Y1543072D1*
Y1541497D1*
X1605575D1*
X1606363Y1543859D1*
X1607150Y1552521D1*
Y1557245D1*
X1606363Y1562757D1*
X1605575Y1565907D1*
X1604788Y1568269D1*
X1602426Y1572993D1*
X1600851Y1575356D1*
X1592977Y1583230D1*
X1589040Y1585592D1*
X1587465Y1586379D1*
X1582741Y1587954D1*
X1579591Y1588741D1*
X1574867Y1589529D1*
X1565418D1*
X1561481Y1588741D1*
X1558331Y1587954D1*
X1555969Y1587167D1*
X1549670Y1584017D1*
X1547308Y1582442D1*
X1540221Y1575356D1*
X1537071Y1570631D1*
X1536284Y1569056D1*
X1534709Y1564332D1*
X1533922Y1561182D1*
Y1548584D1*
X1534709Y1544647D1*
X1535497Y1542285D1*
X1537859Y1537560D1*
X1539434Y1535198D1*
X1544945Y1529686D1*
X1549670Y1526537D1*
X1551245Y1525749D1*
X1555182Y1524174D1*
X1561481Y1522600D1*
X1577229D1*
X1580379Y1523387D1*
X1585103Y1524962D1*
X1589827Y1527324D1*
X1591402Y1528899D1*
Y1545434D1*
X1586678Y1547796D1*
X1581953D1*
X1573817Y1547009D1*
X1565680D1*
X1557544Y1547796D1*
Y1548584D1*
X1556757Y1550159D1*
X1555969Y1550946D1*
Y1558820D1*
X1556757Y1559607D1*
X1557544Y1561182D1*
X1557697Y1561740D1*
X1558331Y1562757D1*
X1559906Y1563544D1*
X1560694Y1564332D1*
X1563056Y1565119D1*
X1566205Y1565907D1*
X1569617Y1566694D1*
X1573029D1*
X1576442Y1565907D1*
X1579591Y1565119D1*
X1582741Y1563544D1*
X1585103Y1561182D1*
Y1559607D1*
X1585890Y1558820D1*
Y1555670D1*
X1585103Y1554883D1*
X1584316Y1551733D1*
X1582741Y1549371D1*
X1581953Y1547796D1*
X1586678D1*
G37*
G36*
X1555182Y1502915D2*
Y1502127D1*
X1552820Y1499765D1*
X1550457Y1495041D1*
X1549670Y1492678D1*
Y1484017D1*
X1552032Y1479293D1*
X1555182Y1476143D1*
X1561481Y1472993D1*
X1564631Y1472206D1*
X1569355Y1471419D1*
X1577229D1*
X1581953Y1472206D1*
X1586678Y1473781D1*
X1589827Y1475356D1*
X1592190Y1476930D1*
X1596127Y1480867D1*
X1598489Y1485592D1*
X1599276Y1489529D1*
Y1492678D1*
X1598489Y1496615D1*
X1597701Y1498978D1*
X1596520Y1501340D1*
X1595941Y1502345D1*
X1596914Y1502915D1*
X1597701Y1503702D1*
Y1510001D1*
X1596914Y1510789D1*
X1532347D1*
Y1503702D1*
X1555182Y1502915D1*
X1561481D1*
X1570930Y1503702D1*
X1580379D1*
X1589827Y1502915D1*
X1590462Y1501898D1*
X1590615Y1501340D1*
X1591402Y1498978D1*
X1592190Y1495828D1*
X1592977Y1495041D1*
Y1490316D1*
X1592190Y1489529D1*
X1591402Y1487167D1*
X1590615Y1485592D1*
Y1484804D1*
X1589040Y1483230D1*
X1587465Y1482442D1*
X1586678Y1481655D1*
X1581953Y1480080D1*
X1576704Y1479293D1*
X1571455D1*
X1566205Y1480080D1*
X1563056Y1480867D1*
X1559906Y1482442D1*
X1557544Y1484804D1*
Y1485592D1*
X1556757Y1486379D1*
Y1494253D1*
X1557544Y1495041D1*
X1558331Y1497403D1*
X1559906Y1500552D1*
X1561481Y1502915D1*
X1555182D1*
G37*
G36*
X1551245Y1462757D2*
Y1455670D1*
X1585103Y1454883D1*
X1587465Y1454096D1*
X1589040Y1453308D1*
X1591402Y1450946D1*
Y1449371D1*
X1592190Y1448584D1*
Y1444647D1*
X1591402Y1443859D1*
X1590615Y1440710D1*
X1589827Y1439135D1*
X1588253Y1436773D1*
Y1435985D1*
X1586678Y1434411D1*
X1551245Y1433623D1*
Y1426537D1*
X1597701D1*
Y1433623D1*
X1592977Y1434411D1*
Y1435198D1*
X1595339Y1437560D1*
X1596914Y1439922D1*
X1598489Y1443072D1*
X1599276Y1447009D1*
Y1449371D1*
X1598489Y1453308D1*
X1596914Y1456458D1*
X1592977Y1460395D1*
X1589827Y1461970D1*
X1586678Y1462757D1*
X1551245D1*
G37*
G36*
X1535497Y1414726D2*
Y1406852D1*
X1542583D1*
Y1414726D1*
X1535497D1*
G37*
G36*
X1551245D2*
Y1406852D1*
X1596914D1*
X1597701Y1407639D1*
Y1413938D1*
X1596914Y1414726D1*
X1551245D1*
G37*
G36*
X1532347Y1395041D2*
Y1387167D1*
X1596914D1*
X1597701Y1387954D1*
Y1394253D1*
X1596914Y1395041D1*
X1532347D1*
G37*
G36*
X1553607Y1369844D2*
X1552032Y1368269D1*
X1550457Y1365119D1*
X1549670Y1362757D1*
Y1354096D1*
X1550457Y1350946D1*
X1551245Y1349371D1*
X1551879Y1348355D1*
X1552032Y1347796D1*
X1531560Y1347009D1*
Y1339135D1*
X1596914D1*
X1597701Y1339922D1*
Y1346222D1*
X1596914Y1347009D1*
X1593764Y1347796D1*
Y1348584D1*
X1596127Y1350946D1*
X1598489Y1355670D1*
X1599276Y1359607D1*
Y1362757D1*
X1598489Y1365907D1*
X1597701Y1368269D1*
X1596127Y1370631D1*
X1592977Y1373781D1*
X1590615Y1375356D1*
X1589040Y1376143D1*
X1584316Y1377718D1*
X1579591Y1378505D1*
X1569355D1*
X1563056Y1376930D1*
X1558331Y1374568D1*
X1555182Y1372206D1*
X1553607Y1370631D1*
Y1369844D1*
X1566205D1*
X1571717Y1370631D1*
X1577229D1*
X1582741Y1369844D1*
X1585103Y1369056D1*
X1588253Y1367481D1*
X1590615Y1365119D1*
Y1364332D1*
X1591402Y1361970D1*
X1592190Y1361182D1*
Y1357245D1*
X1591402Y1356458D1*
X1590615Y1353308D1*
X1589040Y1350159D1*
Y1349371D1*
X1587465Y1347796D1*
X1577754Y1347009D1*
X1568043D1*
X1558331Y1347796D1*
X1557398Y1348682D1*
X1557544Y1349371D1*
X1556757Y1351733D1*
X1555969Y1352521D1*
Y1361182D1*
X1556757Y1361970D1*
Y1363544D1*
X1560694Y1367481D1*
X1563843Y1369056D1*
X1566205Y1369844D1*
X1553607D1*
G37*
G36*
X1532347Y1327324D2*
Y1319450D1*
X1596914D1*
X1597701Y1320237D1*
Y1326537D1*
X1596914Y1327324D1*
X1532347D1*
G37*
G36*
X1552820Y1302127D2*
X1552561Y1301172D1*
X1552032Y1300552D1*
X1550457Y1297403D1*
X1549670Y1295041D1*
Y1284804D1*
X1550457Y1282442D1*
X1552032Y1279293D1*
X1553607Y1276930D1*
X1555969Y1274568D1*
X1558331Y1272993D1*
X1563056Y1270631D1*
X1566205Y1269844D1*
X1570930Y1269056D1*
X1577229D1*
X1582741Y1269844D1*
X1587465Y1271419D1*
X1589040Y1272206D1*
X1591402Y1273781D1*
X1596127Y1278505D1*
X1597701Y1281655D1*
X1598489Y1284017D1*
X1599276Y1288741D1*
Y1291104D1*
X1598489Y1295828D1*
X1597701Y1298190D1*
X1596127Y1301340D1*
X1590615Y1306852D1*
X1585890Y1309214D1*
X1582741Y1310001D1*
X1578804Y1310789D1*
X1569355D1*
X1565418Y1310001D1*
X1560694Y1308426D1*
X1559119Y1307639D1*
X1556757Y1306064D1*
X1552820Y1302127D1*
X1566205D1*
X1571717Y1302915D1*
X1577229D1*
X1582741Y1302127D1*
X1585103Y1301340D1*
X1588253Y1299765D1*
X1590615Y1297403D1*
Y1296615D1*
X1592190Y1292678D1*
X1592977Y1291891D1*
Y1287954D1*
X1592190Y1287167D1*
X1591402Y1284804D1*
X1590615Y1283230D1*
Y1282442D1*
X1589040Y1280867D1*
X1587465Y1280080D1*
X1586678Y1279293D1*
X1581953Y1277718D1*
X1576966Y1276930D1*
X1571980D1*
X1566993Y1277718D1*
X1563843Y1278505D1*
X1560694Y1280080D1*
X1556757Y1284017D1*
Y1284804D1*
X1555969Y1285592D1*
Y1294253D1*
X1556757Y1295041D1*
X1557544Y1296615D1*
Y1297403D1*
X1559119Y1298978D1*
X1560694Y1299765D1*
X1561481Y1300552D1*
X1563056Y1301340D1*
X1566205Y1302127D1*
X1552820D1*
G37*
G36*
Y1254883D2*
X1552561Y1253928D1*
X1552032Y1253308D1*
X1550457Y1250159D1*
X1549670Y1247796D1*
Y1239135D1*
X1551245Y1234411D1*
X1551638Y1233623D1*
X1551893Y1232697D1*
X1551624Y1232039D1*
X1551245Y1231261D1*
Y1224174D1*
X1592190D1*
X1600064Y1224962D1*
X1603213Y1225749D1*
X1605575Y1226537D1*
X1607150Y1227324D1*
X1609512Y1228899D1*
X1611875Y1231261D1*
X1614237Y1235985D1*
X1615024Y1238348D1*
X1615812Y1243859D1*
Y1247796D1*
X1615024Y1254096D1*
X1614237Y1257245D1*
X1613449Y1258820D1*
X1606363D1*
Y1258033D1*
X1607150Y1255670D1*
X1607938Y1252521D1*
X1608725Y1248584D1*
X1609512Y1247796D1*
Y1242285D1*
X1608725Y1241497D1*
X1607938Y1238348D1*
X1607150Y1236773D1*
Y1235985D1*
X1605575Y1234411D1*
X1602426Y1232836D1*
X1598751Y1232048D1*
X1595077D1*
X1591402Y1232836D1*
X1593764Y1235198D1*
X1596127Y1239922D1*
X1596914Y1244647D1*
Y1247796D1*
X1596127Y1251733D1*
X1594552Y1254883D1*
X1589040Y1260395D1*
X1587465Y1261182D1*
X1582741Y1262757D1*
X1578804Y1263544D1*
X1569355D1*
X1565418Y1262757D1*
X1563056Y1261970D1*
X1556757Y1258820D1*
X1552820Y1254883D1*
X1566205D1*
X1571455Y1255670D1*
X1576704D1*
X1581953Y1254883D1*
X1584316Y1254096D1*
X1585890Y1253308D1*
X1589827Y1249371D1*
Y1247009D1*
X1590615Y1246222D1*
Y1242285D1*
X1589827Y1241497D1*
X1589040Y1238348D1*
X1587465Y1235198D1*
Y1234411D1*
X1585890Y1232836D1*
X1576704Y1232048D1*
X1567518D1*
X1558331Y1232836D1*
X1557398Y1233721D1*
X1557544Y1234411D1*
X1556757Y1236773D1*
X1555969Y1237560D1*
Y1247009D1*
X1556757Y1247796D1*
Y1248584D1*
X1561481Y1253308D1*
X1566205Y1254883D1*
X1552820D1*
G37*
G36*
X1091402Y1408426D2*
Y1402915D1*
X1099276Y1402127D1*
Y1352521D1*
X1091402Y1351733D1*
Y1346222D1*
X1115024D1*
Y1351733D1*
X1106363Y1352521D1*
Y1402127D1*
X1115024Y1402915D1*
Y1408426D1*
X1091402D1*
G37*
G36*
X1198489Y1398190D2*
Y1375356D1*
X1190615Y1374568D1*
Y1368269D1*
X1198489Y1367481D1*
Y1346222D1*
X1205575D1*
Y1367481D1*
X1233134Y1368269D1*
Y1377718D1*
X1227623Y1384017D1*
X1221323Y1391104D1*
X1215812Y1397403D1*
X1209512Y1404489D1*
X1205575Y1408426D1*
X1198489D1*
Y1398190D1*
X1205575D1*
X1206163Y1398696D1*
X1206572Y1398650D1*
X1207150Y1398190D1*
X1211087Y1393466D1*
X1222111Y1380867D1*
X1227623Y1375356D1*
X1220274Y1374568D1*
X1212925D1*
X1205575Y1375356D1*
Y1398190D1*
X1198489D1*
G37*
G36*
X929197Y1406064D2*
Y1393466D1*
X914237Y1392678D1*
Y1387167D1*
X929197Y1386379D1*
Y1359607D1*
X928410Y1358820D1*
Y1355670D1*
X926048Y1353308D1*
X924473Y1352521D1*
X921848Y1351733D1*
X919224D1*
X916599Y1352521D1*
X915024Y1353308D1*
X914237D1*
Y1347009D1*
X915024Y1346222D1*
X918961Y1345434D1*
X926048D1*
X928410Y1346222D1*
X931560Y1347796D1*
X933134Y1349371D1*
X934709Y1351733D1*
X935497Y1354096D1*
X936284Y1358820D1*
Y1386379D1*
X941008Y1387167D1*
Y1392678D1*
X936284Y1393466D1*
Y1406064D1*
X929197D1*
G37*
G36*
X996914Y1386379D2*
X996655Y1385424D1*
X996127Y1384804D1*
X995339Y1383230D1*
X994552Y1380867D1*
X993764Y1377718D1*
Y1364332D1*
X994552Y1361182D1*
X995339Y1358820D1*
X997701Y1354096D1*
X999276Y1351733D1*
X1001638Y1349371D1*
X1004001Y1347796D1*
X1007150Y1346222D1*
X1009512Y1345434D1*
X1017386D1*
X1022111Y1347009D1*
X1023686Y1347796D1*
X1024274Y1348302D1*
X1024682Y1348256D1*
X1025260Y1347796D1*
Y1328899D1*
X1032347D1*
Y1392678D1*
X1025260D1*
Y1389529D1*
X1024300Y1388707D1*
X1023686Y1388741D1*
X1021323Y1391104D1*
X1016599Y1393466D1*
X1013449Y1394253D1*
X1007150D1*
X1004788Y1393466D1*
X1001638Y1391891D1*
X997701Y1387954D1*
X996914Y1386379D1*
X1008725D1*
X1011350Y1387167D1*
X1013974D1*
X1016599Y1386379D1*
X1018961Y1385592D1*
X1022111Y1384017D1*
X1022898Y1383230D1*
X1024473Y1382442D1*
X1025260Y1381655D1*
Y1354883D1*
X1024473Y1354096D1*
X1019749Y1352521D1*
X1016599Y1351733D1*
X1013449D1*
X1010300Y1352521D1*
X1007150Y1354096D1*
X1003213Y1358033D1*
Y1358820D1*
X1002426Y1361182D1*
X1001638Y1364332D1*
X1000851Y1365119D1*
Y1374568D1*
X1001638Y1375356D1*
X1002426Y1379293D1*
X1003213Y1381655D1*
Y1382442D1*
X1005575Y1384804D1*
X1008725Y1386379D1*
X996914D1*
G37*
G36*
X1055969Y1394253D2*
X1052820Y1393466D1*
X1051245Y1392678D1*
X1047308Y1388741D1*
X1045733Y1385592D1*
X1044945Y1383230D1*
Y1346222D1*
X1051245D1*
X1052032Y1373781D1*
X1052820Y1381655D1*
Y1383230D1*
X1055182Y1385592D1*
X1056757Y1386379D1*
X1059381Y1387167D1*
X1062006D1*
X1064631Y1386379D1*
X1066993Y1385592D1*
X1068568Y1384804D1*
X1069355Y1384017D1*
X1070930Y1383230D1*
X1073292Y1380867D1*
Y1346222D1*
X1080379D1*
Y1392678D1*
X1073292D1*
Y1388741D1*
X1072457Y1387886D1*
X1072049Y1388014D1*
X1071717Y1388741D1*
X1070142Y1390316D1*
X1067780Y1391891D1*
X1064631Y1393466D1*
X1061481Y1394253D1*
X1055969D1*
G37*
G36*
X948883Y1392678D2*
Y1346222D1*
X955969D1*
Y1350159D1*
X956557Y1350664D1*
X956965Y1350618D1*
X957535Y1350135D1*
X958331Y1349371D1*
X961481Y1347009D1*
X964631Y1345434D1*
X967780Y1344647D1*
X974079D1*
X976442Y1345434D1*
X978016Y1346222D1*
X982741Y1350946D1*
X983528Y1352521D1*
X984316Y1354883D1*
X985103Y1358820D1*
Y1392678D1*
X978016D1*
X977229Y1359607D1*
X976442Y1356458D1*
Y1355670D1*
X974079Y1353308D1*
X972505Y1352521D1*
X969880Y1351733D1*
X967255D1*
X964631Y1352521D1*
X958331Y1355670D1*
X957544Y1356458D1*
X955969Y1357245D1*
Y1392678D1*
X948883D1*
G37*
G36*
X1147308D2*
Y1391891D1*
X1150457Y1387167D1*
X1152820Y1384017D1*
X1157544Y1376930D1*
X1159906Y1373781D1*
X1161481Y1371419D1*
X1163056Y1369844D1*
X1161481Y1368269D1*
X1147308Y1347009D1*
Y1346222D1*
X1155182D1*
X1156757Y1347796D1*
X1163056Y1357245D1*
X1163843Y1358820D1*
X1165418Y1361182D1*
Y1361970D1*
X1166993Y1363544D1*
X1167711Y1363243D1*
X1168398Y1362476D1*
X1168568Y1361970D1*
X1178016Y1347796D1*
X1178804Y1346222D1*
X1187465D1*
X1184316Y1350946D1*
X1181953Y1354096D1*
X1177229Y1361182D1*
X1174867Y1364332D1*
X1173292Y1366694D1*
X1171717Y1368269D1*
Y1369844D1*
X1172505Y1370631D1*
X1186678Y1391891D1*
Y1392678D1*
X1178016D1*
X1174867Y1387954D1*
X1174079Y1386379D1*
X1169355Y1379293D1*
X1168171Y1376928D1*
X1167713Y1376106D1*
X1166944Y1375286D1*
X1166539Y1375415D1*
X1166205Y1376143D1*
X1159906Y1385592D1*
X1157544Y1388741D1*
X1155969Y1391104D1*
X1154394Y1392678D1*
X1147308D1*
G37*
G36*
X1110300Y1327324D2*
Y1304489D1*
X1109465Y1303634D1*
X1109057Y1303762D1*
X1108725Y1304489D1*
X1107150Y1306064D1*
X1104788Y1307639D1*
X1101638Y1309214D1*
X1098489Y1310001D1*
X1092977D1*
X1089827Y1309214D1*
X1088253Y1308426D1*
X1084316Y1304489D1*
X1082741Y1301340D1*
X1081953Y1298978D1*
Y1261970D1*
X1088253D1*
X1089040Y1289529D1*
X1089827Y1297403D1*
Y1298978D1*
X1092190Y1301340D1*
X1093764Y1302127D1*
X1096389Y1302915D1*
X1099014D1*
X1101638Y1302127D1*
X1104001Y1301340D1*
X1105575Y1300552D1*
X1106363Y1299765D1*
X1107938Y1298978D1*
X1110300Y1296615D1*
Y1261970D1*
X1117386D1*
Y1327324D1*
X1110300D1*
G37*
G36*
X1181953Y1325749D2*
X1177229Y1324962D1*
X1174079Y1324174D1*
X1171717Y1323387D1*
X1170142Y1322600D1*
X1169355Y1321812D1*
Y1312363D1*
X1172505Y1314726D1*
X1173292Y1315513D1*
X1176442Y1317088D1*
X1178804Y1317875D1*
X1185103Y1319450D1*
X1188253D1*
X1191402Y1318663D1*
X1193764Y1317875D1*
X1195339Y1317088D1*
X1199276Y1313151D1*
Y1312363D1*
X1200064Y1311576D1*
Y1306064D1*
X1199276Y1305277D1*
Y1303702D1*
X1196127Y1300552D1*
X1194552Y1299765D1*
X1189827Y1298190D1*
X1180379Y1295828D1*
X1175654Y1294253D1*
X1174079Y1293466D1*
X1171717Y1291891D1*
X1169355Y1289529D1*
X1166993Y1284804D1*
X1166205Y1280080D1*
Y1278505D1*
X1166993Y1274568D1*
X1167780Y1272206D1*
X1169355Y1269056D1*
X1171717Y1265907D1*
X1174867Y1263544D1*
X1178016Y1261970D1*
X1180379Y1261182D1*
X1183528Y1260395D1*
X1193764D1*
X1198489Y1261182D1*
X1203213Y1262757D1*
X1207150Y1264332D1*
X1207938Y1265119D1*
Y1275356D1*
X1204788Y1272206D1*
X1198489Y1269056D1*
X1193764Y1267481D1*
X1190352Y1266694D1*
X1186940D1*
X1183528Y1267481D1*
X1181166Y1268269D1*
X1178016Y1269844D1*
X1175654Y1272206D1*
Y1272993D1*
X1174867Y1275356D1*
X1174079Y1276143D1*
Y1279293D1*
X1174867Y1280080D1*
X1176442Y1284017D1*
X1176595Y1284575D1*
X1177229Y1285592D1*
X1180379Y1287167D1*
X1185103Y1288741D1*
X1194552Y1291104D1*
X1196914Y1291891D1*
X1201638Y1294253D1*
X1205575Y1298190D1*
X1207150Y1301340D1*
X1207938Y1304489D1*
Y1310789D1*
X1207150Y1313938D1*
X1205575Y1317088D1*
X1200064Y1322600D1*
X1196914Y1324174D1*
X1194552Y1324962D1*
X1191402Y1325749D1*
X1181953D1*
G37*
G36*
X1374867Y1318663D2*
X1373292Y1317088D1*
X1371717Y1314726D1*
X1368568Y1308426D1*
X1367780Y1306064D1*
X1366993Y1302915D1*
X1366205Y1296615D1*
Y1289529D1*
X1366993Y1283230D1*
X1367780Y1280080D1*
X1368568Y1277718D1*
X1371717Y1271419D1*
X1374079Y1268269D1*
X1376442Y1265907D1*
X1378804Y1264332D1*
X1383528Y1261970D1*
X1385890Y1261182D1*
X1389040Y1260395D1*
X1398489D1*
X1402426Y1261182D1*
X1404788Y1261970D1*
X1407938Y1263544D1*
X1410300Y1265119D1*
X1415024Y1269844D1*
X1416599Y1272206D1*
X1418961Y1276930D1*
X1419749Y1279293D1*
X1420536Y1282442D1*
X1421323Y1286379D1*
Y1299765D1*
X1420536Y1303702D1*
X1419749Y1306852D1*
X1418961Y1309214D1*
X1416599Y1313938D1*
X1415024Y1316300D1*
X1410300Y1321025D1*
X1407938Y1322600D1*
X1404788Y1324174D1*
X1398489Y1325749D1*
X1389040D1*
X1385890Y1324962D1*
X1383528Y1324174D1*
X1378804Y1321812D1*
X1376442Y1320237D1*
X1374867Y1318663D1*
X1389040D1*
X1392190Y1319450D1*
X1395339D1*
X1401638Y1317875D1*
X1403213Y1317088D1*
X1404001Y1316300D1*
X1405575Y1315513D1*
X1408725Y1312363D1*
Y1311576D1*
X1410300Y1309214D1*
X1411875Y1304489D1*
X1412662Y1300552D1*
X1413449Y1299765D1*
Y1286379D1*
X1412662Y1285592D1*
X1411875Y1281655D1*
X1411087Y1279293D1*
X1409512Y1276143D1*
X1407938Y1273781D1*
Y1272993D1*
X1405575Y1270631D1*
X1400851Y1268269D1*
X1398489Y1267481D1*
X1395339Y1266694D1*
X1392190D1*
X1389040Y1267481D1*
X1386678Y1268269D1*
X1383528Y1269844D1*
X1378016Y1275356D1*
Y1276143D1*
X1377229Y1277718D1*
X1375654Y1282442D1*
X1374867Y1287954D1*
X1374079Y1288741D1*
Y1297403D1*
X1374867Y1298190D1*
X1375654Y1302915D1*
X1376442Y1306064D1*
X1377229Y1308426D1*
X1378016Y1310001D1*
X1380379Y1313151D1*
X1380532Y1313709D1*
X1381166Y1314726D1*
X1382741Y1315513D1*
X1383528Y1316300D1*
X1386678Y1317875D1*
X1389040Y1318663D1*
X1374867D1*
G37*
G36*
X743371Y1324174D2*
Y1268269D1*
X732347Y1267481D1*
Y1261970D1*
X761481D1*
Y1267481D1*
X750457Y1268269D1*
Y1310001D1*
X761481Y1310789D1*
Y1315513D1*
X756757Y1316300D1*
X753607Y1317088D1*
X752032Y1317875D1*
X749670Y1320237D1*
Y1321812D1*
X748883Y1324174D1*
X743371D1*
G37*
G36*
X816599D2*
Y1268269D1*
X805575Y1267481D1*
Y1261970D1*
X834709D1*
Y1267481D1*
X823686Y1268269D1*
Y1310001D1*
X834709Y1310789D1*
Y1315513D1*
X829985Y1316300D1*
X826835Y1317088D1*
X825260Y1317875D1*
X822898Y1320237D1*
Y1321812D1*
X822111Y1324174D1*
X816599D1*
G37*
G36*
X855969Y1317088D2*
X855710Y1316133D1*
X855182Y1315513D1*
X853607Y1312363D1*
Y1302915D1*
X855182Y1298190D1*
X856757Y1295828D1*
X859906Y1292678D1*
X862268Y1291104D1*
X865418Y1289529D1*
X866205Y1288741D1*
X863843Y1286379D1*
X854394Y1274568D1*
X850457Y1269844D1*
X844158Y1261970D1*
X854394D1*
X855969Y1263544D1*
X858331Y1266694D1*
X864631Y1274568D1*
X866993Y1277718D1*
X873292Y1285592D1*
Y1286379D1*
X876966Y1287167D1*
X880641D1*
X884316Y1286379D1*
Y1261970D1*
X892190D1*
Y1324174D1*
X869355D1*
X865418Y1323387D1*
X863056Y1322600D1*
X859906Y1321025D1*
X855969Y1317088D1*
X869355D1*
X874342Y1317875D1*
X879329D1*
X884316Y1317088D1*
Y1294253D1*
X879854Y1293466D1*
X875392D1*
X870930Y1294253D1*
X867780Y1295041D1*
X866205Y1295828D1*
X863056Y1298978D1*
Y1299765D1*
X862268Y1301340D1*
X861481Y1302127D1*
Y1310789D1*
X862268Y1311576D1*
Y1312363D1*
X865418Y1315513D1*
X866993Y1316300D1*
X869355Y1317088D1*
X855969D1*
G37*
G36*
X989040Y1324174D2*
Y1317088D1*
X997701D1*
Y1324174D1*
X989040D1*
G37*
G36*
X941008Y1321812D2*
Y1309214D1*
X926048Y1308426D1*
Y1302915D1*
X941008Y1302127D1*
Y1275356D1*
X940221Y1274568D1*
Y1271419D1*
X937859Y1269056D1*
X936284Y1268269D1*
X933659Y1267481D1*
X931035D1*
X928410Y1268269D1*
X926835Y1269056D1*
X926048D1*
Y1262757D1*
X926835Y1261970D1*
X930772Y1261182D1*
X937859D1*
X940221Y1261970D1*
X943371Y1263544D1*
X944945Y1265119D1*
X946520Y1267481D1*
X947308Y1269844D1*
X948095Y1274568D1*
Y1302127D1*
X952820Y1302915D1*
Y1308426D1*
X948095Y1309214D1*
Y1321812D1*
X941008D1*
G37*
G36*
X970142D2*
Y1309214D1*
X955182Y1308426D1*
Y1302915D1*
X970142Y1302127D1*
Y1275356D1*
X969355Y1274568D1*
Y1271419D1*
X966993Y1269056D1*
X965418Y1268269D1*
X962793Y1267481D1*
X960169D1*
X957544Y1268269D1*
X955969Y1269056D1*
X955182D1*
Y1262757D1*
X955969Y1261970D1*
X959906Y1261182D1*
X966993D1*
X969355Y1261970D1*
X972505Y1263544D1*
X974079Y1265119D1*
X975654Y1267481D1*
X976442Y1269844D1*
X977229Y1274568D1*
Y1302127D1*
X981953Y1302915D1*
Y1308426D1*
X977229Y1309214D1*
Y1321812D1*
X970142D1*
G37*
G36*
X1301638D2*
Y1309214D1*
X1286678Y1308426D1*
Y1302915D1*
X1301638Y1302127D1*
Y1275356D1*
X1300851Y1274568D1*
Y1271419D1*
X1298489Y1269056D1*
X1296914Y1268269D1*
X1294289Y1267481D1*
X1291665D1*
X1289040Y1268269D1*
X1287465Y1269056D1*
X1286678D1*
Y1262757D1*
X1287465Y1261970D1*
X1291402Y1261182D1*
X1298489D1*
X1300851Y1261970D1*
X1304001Y1263544D1*
X1305575Y1265119D1*
X1307150Y1267481D1*
X1307938Y1269844D1*
X1308725Y1274568D1*
Y1302127D1*
X1313449Y1302915D1*
Y1308426D1*
X1308725Y1309214D1*
Y1321812D1*
X1301638D1*
G37*
G36*
X1019749Y1310001D2*
X1016599Y1309214D1*
X1014237Y1307639D1*
X1011875Y1305277D1*
X1010300Y1302127D1*
X1009512Y1299765D1*
Y1261970D1*
X1015812D1*
X1016599Y1290316D1*
X1017386Y1298190D1*
X1018174Y1299765D1*
X1018327Y1300323D1*
X1018961Y1301340D1*
X1020536Y1302127D1*
X1022898Y1302915D1*
X1025260D1*
X1029985Y1301340D1*
X1031560Y1300552D1*
X1032347Y1299765D1*
X1033922Y1298978D1*
X1036284Y1296615D1*
X1036025Y1295660D1*
X1035497Y1295041D1*
Y1261970D1*
X1042583D1*
X1043371Y1292678D1*
X1044158Y1298978D1*
Y1299765D1*
X1045733Y1301340D1*
X1047308Y1302127D1*
X1049670Y1302915D1*
X1052032D1*
X1056757Y1301340D1*
X1057544Y1300552D1*
X1059906Y1298978D1*
X1061481Y1298190D1*
X1062268Y1297403D1*
Y1261970D1*
X1069355D1*
Y1308426D1*
X1062268D1*
Y1304489D1*
X1061433Y1303634D1*
X1061026Y1303762D1*
X1060694Y1304489D1*
X1058331Y1306852D1*
X1055969Y1308426D1*
X1054394Y1309214D1*
X1052032Y1310001D1*
X1046520D1*
X1043371Y1309214D1*
X1041796Y1308426D1*
X1038646Y1305277D1*
X1037859Y1303702D1*
X1037572Y1302734D1*
X1036758Y1302066D1*
X1036284Y1302127D1*
X1030772Y1307639D1*
X1027623Y1309214D1*
X1025260Y1310001D1*
X1019749D1*
G37*
G36*
X1135497D2*
X1132347Y1309214D1*
X1127623Y1307639D1*
X1126048Y1306852D1*
Y1298190D1*
X1128410Y1299765D1*
X1129197Y1300552D1*
X1130772Y1301340D1*
X1135497Y1302915D1*
X1138121Y1303702D1*
X1140746D1*
X1143371Y1302915D1*
X1145733Y1302127D1*
X1147308Y1301340D1*
X1151245Y1297403D1*
Y1296615D1*
X1152032Y1295041D1*
X1152820Y1291891D1*
X1153607Y1291104D1*
Y1280080D1*
X1152820Y1279293D1*
X1152032Y1276143D1*
X1151245Y1274568D1*
Y1273781D1*
X1147308Y1269844D1*
X1145733Y1269056D1*
X1143371Y1268269D1*
X1140484Y1267481D1*
X1137596D1*
X1134709Y1268269D1*
X1132347Y1269056D1*
X1127623Y1271419D1*
X1126048Y1272993D1*
Y1264332D1*
X1127623Y1263544D1*
X1132347Y1261970D1*
X1135497Y1261182D1*
X1143371D1*
X1146520Y1261970D1*
X1148883Y1262757D1*
X1152032Y1264332D1*
X1157544Y1269844D1*
X1159119Y1272993D1*
X1160694Y1277718D1*
Y1292678D1*
X1159906Y1295828D1*
X1157544Y1300552D1*
X1155969Y1302915D1*
X1152820Y1306064D1*
X1150457Y1307639D1*
X1148883Y1308426D1*
X1146520Y1309214D1*
X1143371Y1310001D1*
X1135497D1*
G37*
G36*
X1246520Y1302915D2*
Y1302127D1*
X1244945Y1300552D1*
X1243371Y1297403D1*
X1242583Y1295041D1*
X1241796Y1291891D1*
Y1278505D1*
X1242583Y1275356D1*
X1243371Y1272993D1*
X1245733Y1268269D1*
X1250457Y1263544D1*
X1255182Y1261182D1*
X1258331Y1260395D1*
X1266205D1*
X1269355Y1261182D1*
X1271717Y1261970D1*
X1274079Y1263544D1*
X1278804Y1268269D1*
X1280379Y1270631D1*
X1281166Y1272993D1*
X1281953Y1274568D1*
X1282741Y1277718D1*
Y1292678D1*
X1281953Y1295828D1*
X1281166Y1298190D1*
X1280379Y1299765D1*
X1278804Y1302127D1*
X1274079Y1306852D1*
X1269355Y1309214D1*
X1266205Y1310001D1*
X1258331D1*
X1255182Y1309214D1*
X1250457Y1306852D1*
X1246520Y1302915D1*
X1258331D1*
X1260956Y1303702D1*
X1263581D1*
X1266205Y1302915D1*
X1268568Y1302127D1*
X1270142Y1301340D1*
X1272505Y1298978D1*
Y1298190D1*
X1274079Y1295041D1*
X1274867Y1292678D1*
X1275654Y1291891D1*
Y1279293D1*
X1274867Y1278505D1*
X1274079Y1275356D1*
X1272505Y1272206D1*
Y1271419D1*
X1270142Y1269056D1*
X1268568Y1268269D1*
X1266205Y1267481D1*
X1263581Y1266694D1*
X1260956D1*
X1258331Y1267481D1*
X1255969Y1268269D1*
X1255182Y1269056D1*
X1253607Y1269844D1*
X1252673Y1270729D1*
X1252820Y1271419D1*
X1251245Y1273781D1*
X1250457Y1276143D1*
X1249670Y1279293D1*
X1248883Y1280080D1*
Y1290316D1*
X1249670Y1291104D1*
X1250457Y1294253D1*
X1251245Y1296615D1*
X1252820Y1298978D1*
X1252973Y1299536D1*
X1253607Y1300552D1*
X1258331Y1302915D1*
X1246520D1*
G37*
G36*
X1321323Y1302127D2*
X1321065Y1301172D1*
X1320536Y1300552D1*
X1319749Y1298978D1*
X1318961Y1296615D1*
X1318174Y1293466D1*
Y1280080D1*
X1318961Y1276930D1*
X1319749Y1274568D1*
X1322111Y1269844D1*
X1323686Y1267481D1*
X1326048Y1265119D1*
X1328410Y1263544D1*
X1331560Y1261970D1*
X1333922Y1261182D1*
X1341796D1*
X1346520Y1262757D1*
X1348095Y1263544D1*
X1348683Y1264050D1*
X1349091Y1264004D1*
X1349670Y1263544D1*
Y1244647D1*
X1356757D1*
Y1308426D1*
X1349670D1*
Y1305277D1*
X1348710Y1304455D1*
X1348095Y1304489D1*
X1345733Y1306852D1*
X1341008Y1309214D1*
X1337859Y1310001D1*
X1331560D1*
X1329197Y1309214D1*
X1326048Y1307639D1*
X1322111Y1303702D1*
X1321323Y1302127D1*
X1333134D1*
X1335759Y1302915D1*
X1338384D1*
X1341008Y1302127D1*
X1343371Y1301340D1*
X1346520Y1299765D1*
X1347308Y1298978D1*
X1348883Y1298190D1*
X1349670Y1297403D1*
Y1270631D1*
X1348883Y1269844D1*
X1344158Y1268269D1*
X1341008Y1267481D1*
X1337859D1*
X1334709Y1268269D1*
X1331560Y1269844D1*
X1327623Y1273781D1*
Y1274568D1*
X1326835Y1276930D1*
X1326048Y1280080D1*
X1325260Y1280867D1*
Y1290316D1*
X1326048Y1291104D1*
X1326835Y1295041D1*
X1327623Y1297403D1*
Y1298190D1*
X1329985Y1300552D1*
X1333134Y1302127D1*
X1321323D1*
G37*
G36*
X989827Y1308426D2*
Y1261970D1*
X996914D1*
Y1308426D1*
X989827D1*
G37*
G36*
X780379Y1272993D2*
Y1261970D1*
X789827D1*
Y1272993D1*
X780379D1*
G37*
G36*
X550457Y753177D2*
X541796Y751733D1*
X536022Y750290D1*
X531691Y748846D1*
X528804Y747403D1*
X527360Y745959D1*
Y728636D1*
X533134Y732967D1*
X534578Y734411D1*
X540352Y737298D1*
X544683Y738741D1*
X556232Y741628D1*
X562006D1*
X567780Y740185D1*
X572111Y738741D1*
X574998Y737298D1*
X582216Y730080D1*
Y728636D1*
X583659Y727193D1*
Y717088D1*
X582216Y715644D1*
Y712757D1*
X576442Y706983D1*
X573554Y705539D1*
X564893Y702652D1*
X547570Y698321D1*
X538909Y695434D1*
X536022Y693991D1*
X531691Y691104D1*
X527360Y686773D1*
X523029Y678111D1*
X521586Y669450D1*
Y666563D1*
X523029Y659345D1*
X524473Y655014D1*
X527360Y649240D1*
X531691Y643466D1*
X537465Y639135D1*
X543239Y636248D1*
X547570Y634804D1*
X553344Y633361D1*
X572111D1*
X580772Y634804D1*
X589434Y637691D1*
X596652Y640579D1*
X598095Y642022D1*
Y660789D1*
X592321Y655014D1*
X580772Y649240D1*
X572111Y646353D1*
X565855Y644909D1*
X559600D1*
X553344Y646353D1*
X549014Y647796D1*
X543239Y650684D1*
X538909Y655014D1*
Y656458D1*
X537465Y660789D1*
X536022Y662232D1*
Y668006D1*
X537465Y669450D1*
X540352Y676668D1*
X540633Y677691D1*
X541796Y679555D1*
X547570Y682442D1*
X556232Y685329D1*
X573554Y689660D1*
X577885Y691104D1*
X586547Y695434D1*
X593764Y702652D1*
X596652Y708426D1*
X598095Y714201D1*
Y725749D1*
X596652Y731523D1*
X593764Y737298D1*
X583659Y747403D1*
X577885Y750290D1*
X573554Y751733D1*
X567780Y753177D1*
X550457D1*
G37*
G36*
X803082Y756064D2*
Y744516D1*
X850720Y743072D1*
Y714201D1*
X830510Y712757D1*
X823292Y711314D1*
X814631Y706983D1*
X807413Y699765D1*
X804526Y693991D1*
X803082Y689660D1*
X801638Y679555D1*
Y676668D1*
X803082Y666563D1*
X804526Y662232D1*
X808856Y653571D1*
X817518Y644909D1*
X823292Y642022D1*
X827623Y640579D1*
X833397Y639135D1*
X849276D1*
X856494Y640579D1*
X862268Y642022D1*
X869486Y644909D1*
Y660789D1*
X857938Y655014D1*
X853607Y653571D1*
X847833Y652127D1*
X843021Y650684D1*
X838209D1*
X833397Y652127D1*
X829066Y653571D1*
X826179Y655014D1*
X820405Y660789D1*
Y662232D1*
X818961Y665119D1*
X817518Y670894D1*
X816074Y672337D1*
Y682442D1*
X817518Y683886D1*
X818961Y689660D1*
Y691104D1*
X824736Y696878D1*
X827623Y698321D1*
X833397Y699765D1*
X840615Y701209D1*
X847833D1*
X855050Y699765D1*
X863712Y698321D1*
X865155D1*
Y756064D1*
X803082D1*
G37*
G36*
X1044158Y758951D2*
X1035497Y757508D1*
X1029722Y756064D1*
X1025392Y754621D1*
X1022505Y753177D1*
X1021061Y751733D1*
Y734411D1*
X1026835Y738741D1*
X1028279Y740185D1*
X1034053Y743072D1*
X1038384Y744516D1*
X1049932Y747403D1*
X1055707D1*
X1061481Y745959D1*
X1065812Y744516D1*
X1068699Y743072D1*
X1075917Y735854D1*
Y734411D1*
X1077360Y732967D1*
Y722862D1*
X1075917Y721419D1*
Y718531D1*
X1070142Y712757D1*
X1067255Y711314D1*
X1058594Y708426D1*
X1041271Y704096D1*
X1032610Y701209D1*
X1029722Y699765D1*
X1025392Y696878D1*
X1021061Y692547D1*
X1016730Y683886D1*
X1015287Y675224D1*
Y672337D1*
X1016730Y665119D1*
X1018174Y660789D1*
X1021061Y655014D1*
X1025392Y649240D1*
X1031166Y644909D1*
X1036940Y642022D1*
X1041271Y640579D1*
X1047045Y639135D1*
X1065812D1*
X1074473Y640579D1*
X1083134Y643466D1*
X1090352Y646353D1*
X1091796Y647796D1*
Y666563D1*
X1086022Y660789D1*
X1074473Y655014D1*
X1065812Y652127D1*
X1059556Y650684D1*
X1053301D1*
X1047045Y652127D1*
X1042715Y653571D1*
X1036940Y656458D1*
X1032610Y660789D1*
Y662232D1*
X1031166Y666563D1*
X1029722Y668006D1*
Y673781D1*
X1031166Y675224D1*
X1034053Y682442D1*
X1034334Y683465D1*
X1035497Y685329D1*
X1041271Y688216D1*
X1049932Y691104D1*
X1067255Y695434D1*
X1071586Y696878D1*
X1080247Y701209D1*
X1087465Y708426D1*
X1090352Y714201D1*
X1091796Y719975D1*
Y731523D1*
X1090352Y737298D1*
X1087465Y743072D1*
X1077360Y753177D1*
X1071586Y756064D1*
X1067255Y757508D1*
X1061481Y758951D1*
X1044158D1*
G37*
G36*
X1296783Y763282D2*
Y751733D1*
X1344421Y750290D1*
Y721419D1*
X1324211Y719975D1*
X1316993Y718531D1*
X1308331Y714201D1*
X1301113Y706983D1*
X1298226Y701209D1*
X1296783Y696878D1*
X1295339Y686773D1*
Y683886D1*
X1296783Y673781D1*
X1298226Y669450D1*
X1302557Y660789D1*
X1311218Y652127D1*
X1316993Y649240D1*
X1321323Y647796D1*
X1327098Y646353D1*
X1342977D1*
X1350195Y647796D1*
X1355969Y649240D1*
X1363187Y652127D1*
Y668006D1*
X1351638Y662232D1*
X1347308Y660789D1*
X1341533Y659345D1*
X1336722Y657901D1*
X1331910D1*
X1327098Y659345D1*
X1322767Y660789D1*
X1319880Y662232D1*
X1314106Y668006D1*
Y669450D1*
X1312662Y672337D1*
X1311218Y678111D1*
X1309775Y679555D1*
Y689660D1*
X1311218Y691104D1*
X1312662Y696878D1*
Y698321D1*
X1318436Y704096D1*
X1321323Y705539D1*
X1327098Y706983D1*
X1334316Y708426D1*
X1341533D1*
X1348751Y706983D1*
X1357413Y705539D1*
X1358856D1*
Y763282D1*
X1296783D1*
G37*
G36*
X974867Y1177586D2*
X966205Y1176143D1*
X960431Y1174699D1*
X956100Y1173256D1*
X953213Y1171812D1*
X951770Y1170369D1*
Y1153046D1*
X957544Y1157377D1*
X958987Y1158820D1*
X964762Y1161707D1*
X969092Y1163151D1*
X980641Y1166038D1*
X986415D1*
X992190Y1164594D1*
X996520Y1163151D1*
X999407Y1161707D1*
X1006625Y1154489D1*
Y1153046D1*
X1008069Y1151602D1*
Y1141497D1*
X1006625Y1140054D1*
Y1137167D1*
X1000851Y1131392D1*
X997964Y1129949D1*
X989302Y1127062D1*
X971980Y1122731D1*
X963318Y1119844D1*
X960431Y1118400D1*
X956100Y1115513D1*
X951770Y1111182D1*
X947439Y1102521D1*
X945995Y1093859D1*
Y1090972D1*
X947439Y1083754D1*
X948883Y1079424D1*
X951770Y1073649D1*
X956100Y1067875D1*
X961875Y1063544D1*
X967649Y1060657D1*
X971980Y1059214D1*
X977754Y1057770D1*
X996520D1*
X1005182Y1059214D1*
X1013843Y1062101D1*
X1021061Y1064988D1*
X1022505Y1066432D1*
Y1085198D1*
X1016730Y1079424D1*
X1005182Y1073649D1*
X996520Y1070762D1*
X990265Y1069319D1*
X984009D1*
X977754Y1070762D1*
X973423Y1072206D1*
X967649Y1075093D1*
X963318Y1079424D1*
Y1080867D1*
X961875Y1085198D1*
X960431Y1086642D1*
Y1092416D1*
X961875Y1093859D1*
X964762Y1101077D1*
X965042Y1102101D1*
X966205Y1103964D1*
X971980Y1106852D1*
X980641Y1109739D1*
X997964Y1114069D1*
X1002295Y1115513D1*
X1010956Y1119844D1*
X1018174Y1127062D1*
X1021061Y1132836D1*
X1022505Y1138610D1*
Y1150159D1*
X1021061Y1155933D1*
X1018174Y1161707D1*
X1008069Y1171812D1*
X1002295Y1174699D1*
X997964Y1176143D1*
X992190Y1177586D1*
X974867D1*
G37*
G36*
X1227491Y1181917D2*
Y1170369D1*
X1275129Y1168925D1*
Y1140054D1*
X1254919Y1138610D1*
X1247701Y1137167D1*
X1239040Y1132836D1*
X1231822Y1125618D1*
X1228935Y1119844D1*
X1227491Y1115513D1*
X1226048Y1105408D1*
Y1102521D1*
X1227491Y1092416D1*
X1228935Y1088085D1*
X1233266Y1079424D1*
X1241927Y1070762D1*
X1247701Y1067875D1*
X1252032Y1066432D1*
X1257806Y1064988D1*
X1273686D1*
X1280904Y1066432D1*
X1286678Y1067875D1*
X1293896Y1070762D1*
Y1086642D1*
X1282347Y1080867D1*
X1278016Y1079424D1*
X1272242Y1077980D1*
X1267430Y1076537D1*
X1262618D1*
X1257806Y1077980D1*
X1253476Y1079424D1*
X1250589Y1080867D1*
X1244814Y1086642D1*
Y1088085D1*
X1243371Y1090972D1*
X1241927Y1096747D1*
X1240484Y1098190D1*
Y1108295D1*
X1241927Y1109739D1*
X1243371Y1115513D1*
Y1116957D1*
X1249145Y1122731D1*
X1252032Y1124174D1*
X1257806Y1125618D1*
X1265024Y1127062D1*
X1272242D1*
X1279460Y1125618D1*
X1288121Y1124174D1*
X1289565D1*
Y1181917D1*
X1227491D1*
G37*
G36*
X488384Y1177586D2*
X479722Y1176143D1*
X473948Y1174699D1*
X469617Y1173256D1*
X466730Y1171812D1*
X465287Y1170369D1*
Y1153046D1*
X471061Y1157377D1*
X472505Y1158820D1*
X478279Y1161707D1*
X482610Y1163151D1*
X494158Y1166038D1*
X499932D1*
X505707Y1164594D1*
X510037Y1163151D1*
X512925Y1161707D1*
X520142Y1154489D1*
Y1153046D1*
X521586Y1151602D1*
Y1141497D1*
X520142Y1140054D1*
Y1137167D1*
X514368Y1131392D1*
X511481Y1129949D1*
X502820Y1127062D1*
X485497Y1122731D1*
X476835Y1119844D1*
X473948Y1118400D1*
X469617Y1115513D1*
X465287Y1111182D1*
X460956Y1102521D1*
X459512Y1093859D1*
Y1090972D1*
X460956Y1083754D1*
X462400Y1079424D1*
X465287Y1073649D1*
X469617Y1067875D1*
X475392Y1063544D1*
X481166Y1060657D1*
X485497Y1059214D1*
X491271Y1057770D1*
X510037D1*
X518699Y1059214D1*
X527360Y1062101D1*
X534578Y1064988D1*
X536022Y1066432D1*
Y1085198D1*
X530247Y1079424D1*
X518699Y1073649D1*
X510037Y1070762D1*
X503782Y1069319D1*
X497526D1*
X491271Y1070762D1*
X486940Y1072206D1*
X481166Y1075093D1*
X476835Y1079424D1*
Y1080867D1*
X475392Y1085198D1*
X473948Y1086642D1*
Y1092416D1*
X475392Y1093859D1*
X478279Y1101077D1*
X478560Y1102101D1*
X479722Y1103964D1*
X485497Y1106852D1*
X494158Y1109739D1*
X511481Y1114069D1*
X515812Y1115513D1*
X524473Y1119844D1*
X531691Y1127062D1*
X534578Y1132836D1*
X536022Y1138610D1*
Y1150159D1*
X534578Y1155933D1*
X531691Y1161707D1*
X521586Y1171812D1*
X515812Y1174699D1*
X511481Y1176143D1*
X505707Y1177586D1*
X488384D1*
G37*
G36*
X739565Y1181917D2*
Y1170369D1*
X787203Y1168925D1*
Y1140054D1*
X766993Y1138610D1*
X759775Y1137167D1*
X751113Y1132836D1*
X743896Y1125618D1*
X741008Y1119844D1*
X739565Y1115513D1*
X738121Y1105408D1*
Y1102521D1*
X739565Y1092416D1*
X741008Y1088085D1*
X745339Y1079424D1*
X754001Y1070762D1*
X759775Y1067875D1*
X764106Y1066432D1*
X769880Y1064988D1*
X785759D1*
X792977Y1066432D1*
X798751Y1067875D1*
X805969Y1070762D1*
Y1086642D1*
X794421Y1080867D1*
X790090Y1079424D1*
X784316Y1077980D1*
X779504Y1076537D1*
X774692D1*
X769880Y1077980D1*
X765549Y1079424D1*
X762662Y1080867D1*
X756888Y1086642D1*
Y1088085D1*
X755444Y1090972D1*
X754001Y1096747D1*
X752557Y1098190D1*
Y1108295D1*
X754001Y1109739D1*
X755444Y1115513D1*
Y1116957D1*
X761218Y1122731D1*
X764106Y1124174D1*
X769880Y1125618D1*
X777098Y1127062D1*
X784316D1*
X791533Y1125618D1*
X800195Y1124174D1*
X801638D1*
Y1181917D1*
X739565D1*
G37*
G36*
X685890Y960395D2*
Y867219D1*
X667518Y865907D1*
Y856720D1*
X716074D1*
Y865907D1*
X697701Y867219D1*
Y936773D1*
X716074Y938085D1*
Y945959D1*
X708200Y947272D1*
X702951Y948584D1*
X700326Y949896D1*
X696389Y953833D1*
Y956458D1*
X695077Y960395D1*
X685890D1*
G37*
G36*
X765943Y526012D2*
X760694Y524699D1*
X756757Y523387D1*
X754132Y522075D1*
X746258Y514201D1*
X743633Y508951D1*
X742321Y505014D1*
Y489266D1*
X743633Y484017D1*
X748883Y473518D1*
X751507Y469581D1*
X756757Y463020D1*
X788253Y431523D1*
X738384Y430211D1*
Y419712D1*
X801376D1*
Y432836D1*
X775129Y460395D1*
X767255Y469581D1*
X763318Y474831D1*
X760694Y478768D1*
X758069Y484017D1*
X756757Y487954D1*
X755444Y489266D1*
Y503702D1*
X756757Y505014D1*
X758069Y507639D1*
X758324Y508569D1*
X759381Y510264D1*
X762006Y511576D1*
X763318Y512888D1*
X767255Y514201D1*
X771630Y515513D1*
X776004D1*
X780379Y514201D1*
X785628Y512888D1*
X789565Y511576D1*
X794814Y508951D1*
X796127Y507639D1*
X798751Y506327D1*
Y519450D1*
X797439Y520762D1*
X794814Y522075D1*
X790877Y523387D1*
X780379Y526012D1*
X765943D1*
G37*
G36*
X1188515Y969581D2*
X1183266Y968269D1*
X1179329Y966957D1*
X1176704Y965644D1*
X1172767Y963020D1*
X1170142Y960395D1*
X1167518Y956458D1*
X1166205Y952521D1*
Y938085D1*
X1167518Y934148D1*
X1170142Y930211D1*
X1174079Y926274D1*
X1178016Y923649D1*
X1180641Y922337D1*
X1184578Y921025D1*
X1183266Y919712D1*
X1179329Y918400D1*
X1174079Y915775D1*
X1170142Y913151D1*
X1166205Y907901D1*
X1164893Y905277D1*
X1163581Y900027D1*
Y886904D1*
X1164893Y881655D1*
X1167518Y876405D1*
X1170142Y872468D1*
X1175392Y867219D1*
X1179329Y864594D1*
X1181953Y863282D1*
X1185890Y861970D1*
X1191140Y860657D1*
X1206888D1*
X1213449Y861970D1*
X1225260Y865907D1*
Y880342D1*
X1223948Y879030D1*
X1218699Y876405D1*
X1206888Y872468D1*
X1202076Y871156D1*
X1197264D1*
X1192452Y872468D1*
X1185890Y875093D1*
X1183266Y876405D1*
X1180641Y879030D1*
Y880342D1*
X1178016Y885592D1*
X1176704Y886904D1*
Y901340D1*
X1178016Y902652D1*
Y905277D1*
X1183266Y910526D1*
X1185890Y911838D1*
X1189827Y913151D1*
X1204263Y914463D1*
Y924962D1*
X1192452Y926274D1*
X1188515Y927586D1*
X1185890Y928899D1*
X1180641Y934148D1*
Y935460D1*
X1179329Y939398D1*
X1178016Y940710D1*
Y945959D1*
X1179329Y947272D1*
X1180641Y951209D1*
X1180896Y952139D1*
X1181953Y953833D1*
X1184578Y955146D1*
X1185890Y956458D1*
X1189827Y957770D1*
X1194639Y959083D1*
X1199451D1*
X1204263Y957770D1*
X1209512Y956458D1*
X1213449Y955146D1*
X1218699Y952521D1*
X1220011Y951209D1*
X1222636Y949896D1*
Y963020D1*
X1221323Y964332D1*
X1218699Y965644D1*
X1210825Y968269D1*
X1204263Y969581D1*
X1188515D1*
G37*
G36*
X1247570Y518138D2*
Y480080D1*
X1234447Y478768D1*
Y468269D1*
X1247570Y466957D1*
Y431523D1*
X1259381D1*
Y466957D1*
X1305313Y468269D1*
Y484017D1*
X1296127Y494516D1*
X1285628Y506327D1*
X1276442Y516825D1*
X1265943Y528636D1*
X1259381Y535198D1*
X1247570D1*
Y518138D1*
X1259381D1*
X1260361Y518980D1*
X1261041Y518904D1*
X1262006Y518138D1*
X1268568Y510264D1*
X1286940Y489266D1*
X1296127Y480080D1*
X1283878Y478768D1*
X1271630D1*
X1259381Y480080D1*
Y518138D1*
X1247570D1*
G37*
M02*
