M48
INCH
T01C0.0191
T02C0.0354
T03C0.0394
T04C0.0512
T05C0.1378
%
T01
X+007062Y+012437
X+008875Y+014437
X+009500Y+016250
X+009750Y+017000
X+009750Y+017937
X+008437Y+017875
X+007933Y+016621
X+005812Y+016250
X+006312Y+018562
X+004500Y+018437
X+011562Y+016211
X+012000Y+018000
X+012625Y+018687
X+013437Y+018750
X+013312Y+017437
X+013312Y+016937
X+013562Y+016187
X+014250Y+017312
X+014875Y+016687
X+015750Y+017000
X+014875Y+019125
X+014937Y+014437
X+012937Y+014437
X+010937Y+014437
X+006306Y+008687
X+004937Y+008687
T02
X+004736Y+019685
X+005736Y+019685
X+006736Y+019685
X+007736Y+019685
X+008736Y+019685
X+009736Y+019685
X+010736Y+019685
X+011736Y+019685
X+012736Y+019685
X+013736Y+019685
X+014736Y+019685
X+015736Y+019685
T03
X+004528Y+014886
X+004528Y+013886
X+004528Y+012886
X+004528Y+011886
T04
X+004974Y+009970
X+006352Y+009970
X+007730Y+009970
X+009896Y+009970
X+011274Y+009970
X+012652Y+009970
X+011963Y+005521
X+010585Y+005521
X+008419Y+005521
X+007041Y+005521
X+005663Y+005521
X+013341Y+005521
T05
X+015157Y+008268
T00
M30
