G04 DipTrace 4.0.0.2*
G04 TopMask.gbr*
%MOIN*%
G04 #@! TF.FileFunction,Soldermask,Top*
G04 #@! TF.Part,Single*
%AMOUTLINE1*
4,1,28,
-0.019944,0.023621,
0.019942,0.023623,
0.02326,0.023186,
0.026591,0.021806,
0.029452,0.019611,
0.031647,0.01675,
0.033027,0.013419,
0.033464,0.010102,
0.033465,-0.0101,
0.033028,-0.013417,
0.031648,-0.016748,
0.029453,-0.019609,
0.026592,-0.021805,
0.023261,-0.023185,
0.019944,-0.023621,
-0.019942,-0.023623,
-0.02326,-0.023186,
-0.026591,-0.021806,
-0.029452,-0.019611,
-0.031647,-0.01675,
-0.033027,-0.013419,
-0.033464,-0.010102,
-0.033465,0.0101,
-0.033028,0.013417,
-0.031648,0.016748,
-0.029453,0.019609,
-0.026592,0.021805,
-0.023261,0.023185,
-0.019944,0.023621,
0*%
%AMOUTLINE4*
4,1,10,
-0.10433,-0.023625,
-0.035095,-0.023623,
-0.011472,-0.047244,
0.078404,-0.047242,
0.104331,-0.021313,
0.10433,0.021319,
0.078401,0.047246,
-0.011475,0.047244,
-0.035096,0.023621,
-0.104331,0.023619,
-0.10433,-0.023625,
0*%
%AMOUTLINE7*
4,1,28,
-0.03937,-0.004195,
-0.03937,0.004195,
-0.039135,0.005984,
-0.038345,0.007891,
-0.037088,0.009529,
-0.03545,0.010786,
-0.033543,0.011576,
-0.031754,0.011811,
0.031754,0.011811,
0.033543,0.011576,
0.03545,0.010786,
0.037088,0.009529,
0.038345,0.007891,
0.039135,0.005984,
0.03937,0.004195,
0.03937,-0.004195,
0.039135,-0.005984,
0.038345,-0.007891,
0.037088,-0.009529,
0.03545,-0.010786,
0.033543,-0.011576,
0.031754,-0.011811,
-0.031754,-0.011811,
-0.033543,-0.011576,
-0.03545,-0.010786,
-0.037088,-0.009529,
-0.038345,-0.007891,
-0.039135,-0.005984,
-0.03937,-0.004195,
0*%
%ADD28C,0.137795*%
%ADD35C,0.096457*%
%ADD37C,0.070866*%
%ADD39C,0.066929*%
%ADD41R,0.066929X0.066929*%
%ADD43R,0.051181X0.047244*%
%ADD45R,0.047244X0.051181*%
%ADD47R,0.066929X0.059055*%
%ADD52OUTLINE1*%
%ADD55OUTLINE4*%
%ADD58OUTLINE7*%
%FSLAX26Y26*%
G04*
G70*
G90*
G75*
G01*
G04 TopMask*
%LPD*%
D47*
X531202Y1812550D3*
X531199Y1887353D3*
X531200Y1699852D3*
X531202Y1625049D3*
X708661Y1124016D3*
Y1198819D3*
D45*
X1574951Y1808415D3*
Y1741486D3*
D43*
X1058416Y1556201D3*
X991487D3*
X1258416D3*
X1191487D3*
X1458415D3*
X1391486D3*
X858415D3*
X791486D3*
D41*
X473617Y1968504D3*
D39*
X573617D3*
X673617D3*
X773617D3*
X873617D3*
X973617D3*
X1073617D3*
X1173617D3*
X1273608D3*
X1373608D3*
X1473608D3*
X1573608D3*
D28*
X1515748Y826772D3*
D47*
X1491732Y1154420D3*
Y1489066D3*
X1391732Y1154420D3*
Y1489066D3*
X1291732Y1154420D3*
Y1489066D3*
X1191732Y1154420D3*
Y1489066D3*
X1091732Y1154420D3*
Y1489066D3*
X991732Y1154420D3*
Y1489066D3*
X891732Y1154420D3*
Y1489066D3*
X791732Y1154420D3*
Y1489066D3*
D37*
X452756Y1488583D3*
Y1388583D3*
Y1288583D3*
Y1188583D3*
D52*
X629083Y1821503D3*
D55*
X699950Y1762450D3*
D52*
X629086Y1703393D3*
D43*
X794241Y1083534D3*
X861171D3*
X1009843Y1083533D3*
X1076772Y1083535D3*
X1226378Y1082946D3*
X1293307D3*
X1422293D3*
X1489222D3*
X860236Y1621121D3*
X793307D3*
X1076772D3*
X1009843D3*
X1273622D3*
X1206693D3*
X1470472D3*
X1403543D3*
D47*
X708661Y1281496D3*
Y1356299D3*
D45*
X843701Y1895916D3*
Y1828987D3*
X906201Y1895916D3*
Y1828987D3*
X974950Y1895916D3*
Y1828987D3*
X1074950Y1895916D3*
Y1828987D3*
D35*
X497441Y997021D3*
X635236D3*
X773031D3*
X566339Y552139D3*
X704134D3*
X841929D3*
X989567Y997021D3*
X1127362D3*
X1265157D3*
X1058465Y552139D3*
X1196260D3*
X1334055D3*
D58*
X1257234Y1848425D3*
Y1822835D3*
Y1797244D3*
Y1771654D3*
Y1746063D3*
Y1720472D3*
X1257241Y1694882D3*
X1485580D3*
Y1720472D3*
Y1746063D3*
Y1771654D3*
Y1797244D3*
Y1822835D3*
Y1848425D3*
M02*
