G04 DipTrace 4.0.0.2*
G04 TopPaste.gbr*
%MOIN*%
G04 #@! TF.FileFunction,Paste,Top*
G04 #@! TF.Part,Single*
%AMOUTLINE2*
4,1,28,
-0.019427,0.015747,
0.019427,0.015749,
0.021204,0.015515,
0.02262,0.014928,
0.023836,0.013995,
0.02477,0.012779,
0.025356,0.011363,
0.02559,0.009585,
0.025591,-0.009584,
0.025357,-0.011361,
0.02477,-0.012778,
0.023837,-0.013994,
0.022621,-0.014927,
0.021205,-0.015513,
0.019427,-0.015747,
-0.019427,-0.015749,
-0.021204,-0.015515,
-0.02262,-0.014928,
-0.023836,-0.013995,
-0.02477,-0.012779,
-0.025356,-0.011363,
-0.02559,-0.009585,
-0.025591,0.009584,
-0.025357,0.011361,
-0.02477,0.012778,
-0.023837,0.013994,
-0.022621,0.014927,
-0.021205,0.015513,
-0.019427,0.015747,
0*%
%AMOUTLINE5*
4,1,10,
-0.096456,-0.015751,
-0.031833,-0.015749,
-0.008211,-0.03937,
0.075142,-0.039368,
0.096457,-0.018051,
0.096456,0.018057,
0.07514,0.039372,
-0.008213,0.03937,
-0.031834,0.015747,
-0.096457,0.015745,
-0.096456,-0.015751,
0*%
%AMOUTLINE8*
4,1,12,
-0.031496,-0.003679,
-0.031496,0.003679,
-0.031466,0.003907,
-0.031238,0.003937,
0.031238,0.003937,
0.031466,0.003907,
0.031496,0.003679,
0.031496,-0.003679,
0.031466,-0.003907,
0.031238,-0.003937,
-0.031238,-0.003937,
-0.031466,-0.003907,
-0.031496,-0.003679,
0*%
%ADD44R,0.035433X0.031496*%
%ADD46R,0.031496X0.035433*%
%ADD48R,0.051181X0.043307*%
%ADD53OUTLINE2*%
%ADD56OUTLINE5*%
%ADD59OUTLINE8*%
%FSLAX26Y26*%
G04*
G70*
G90*
G75*
G01*
G04 TopPaste*
%LPD*%
D48*
X531202Y1812550D3*
X531199Y1887353D3*
X531200Y1699852D3*
X531202Y1625049D3*
X708661Y1124016D3*
Y1198819D3*
D46*
X1574951Y1808415D3*
Y1741486D3*
D44*
X1058416Y1556201D3*
X991487D3*
X1258416D3*
X1191487D3*
X1458415D3*
X1391486D3*
X858415D3*
X791486D3*
D48*
X1491732Y1154420D3*
Y1489066D3*
X1391732Y1154420D3*
Y1489066D3*
X1291732Y1154420D3*
Y1489066D3*
X1191732Y1154420D3*
Y1489066D3*
X1091732Y1154420D3*
Y1489066D3*
X991732Y1154420D3*
Y1489066D3*
X891732Y1154420D3*
Y1489066D3*
X791732Y1154420D3*
Y1489066D3*
D53*
X629083Y1821503D3*
D56*
X699950Y1762450D3*
D53*
X629086Y1703393D3*
D44*
X794241Y1083534D3*
X861171D3*
X1009843Y1083533D3*
X1076772Y1083535D3*
X1226378Y1082946D3*
X1293307D3*
X1422293D3*
X1489222D3*
X860236Y1621121D3*
X793307D3*
X1076772D3*
X1009843D3*
X1273622D3*
X1206693D3*
X1470472D3*
X1403543D3*
D48*
X708661Y1281496D3*
Y1356299D3*
D46*
X843701Y1895916D3*
Y1828987D3*
X906201Y1895916D3*
Y1828987D3*
X974950Y1895916D3*
Y1828987D3*
X1074950Y1895916D3*
Y1828987D3*
D59*
X1257234Y1848425D3*
Y1822835D3*
Y1797244D3*
Y1771654D3*
Y1746063D3*
Y1720472D3*
X1257241Y1694882D3*
X1485580D3*
Y1720472D3*
Y1746063D3*
Y1771654D3*
Y1797244D3*
Y1822835D3*
Y1848425D3*
M02*
