G04 DipTrace 4.0.0.2*
G04 TopSilk.gbr*
%MOIN*%
G04 #@! TF.FileFunction,Legend,Top*
G04 #@! TF.Part,Single*
%ADD10C,0.009843*%
%ADD49C,0.006176*%
%ADD50C,0.009264*%
%FSLAX26Y26*%
G04*
G70*
G90*
G75*
G01*
G04 TopSilk*
%LPD*%
X556774Y1771191D2*
D10*
X505632Y1771189D1*
X505628Y1741211D2*
X556770Y1741212D1*
X734232Y1082656D2*
X683091D1*
X393701Y2047244D2*
Y393701D1*
X1653543D1*
Y2047244D1*
X393701D1*
X1491732Y1206585D2*
Y1431585D1*
X791732D1*
Y1206585D1*
X1491732D1*
X816732Y1256585D2*
Y1381585D1*
X791732D1*
Y1256585D1*
X816732D1*
G36*
X891732D2*
X891518Y1253322D1*
X890880Y1250114D1*
X889829Y1247018D1*
X888383Y1244085D1*
X886566Y1241366D1*
X884410Y1238907D1*
X881952Y1236751D1*
X879233Y1234935D1*
X876300Y1233488D1*
X873203Y1232437D1*
X869996Y1231799D1*
X866733Y1231585D1*
X863470Y1231799D1*
X860263Y1232437D1*
X857166Y1233488D1*
X854233Y1234935D1*
X851514Y1236751D1*
X849056Y1238907D1*
X846900Y1241366D1*
X845083Y1244085D1*
X843637Y1247018D1*
X842585Y1250114D1*
X841947Y1253322D1*
X841734Y1256585D1*
Y1256586D1*
X841947Y1259849D1*
X842585Y1263056D1*
X843637Y1266153D1*
X845083Y1269086D1*
X846900Y1271805D1*
X849056Y1274263D1*
X851514Y1276419D1*
X854233Y1278236D1*
X857166Y1279682D1*
X860263Y1280733D1*
X863470Y1281371D1*
X866733Y1281585D1*
X869996Y1281371D1*
X873203Y1280733D1*
X876300Y1279682D1*
X879233Y1278236D1*
X881952Y1276419D1*
X884410Y1274263D1*
X886566Y1271805D1*
X888383Y1269086D1*
X889829Y1266153D1*
X890880Y1263056D1*
X891518Y1259849D1*
X891732Y1256586D1*
Y1256585D1*
G37*
G36*
X754232Y1156585D2*
X754018Y1153322D1*
X753380Y1150114D1*
X752329Y1147018D1*
X750883Y1144085D1*
X749066Y1141366D1*
X746910Y1138907D1*
X744452Y1136751D1*
X741733Y1134935D1*
X738800Y1133488D1*
X735703Y1132437D1*
X732496Y1131799D1*
X729233Y1131585D1*
X725970Y1131799D1*
X722763Y1132437D1*
X719666Y1133488D1*
X716733Y1134935D1*
X714014Y1136751D1*
X711556Y1138907D1*
X709400Y1141366D1*
X707583Y1144085D1*
X706137Y1147018D1*
X705085Y1150114D1*
X704447Y1153322D1*
X704234Y1156585D1*
Y1156586D1*
X704447Y1159849D1*
X705085Y1163056D1*
X706137Y1166153D1*
X707583Y1169086D1*
X709400Y1171805D1*
X711556Y1174263D1*
X714014Y1176419D1*
X716733Y1178236D1*
X719666Y1179682D1*
X722763Y1180733D1*
X725970Y1181371D1*
X729233Y1181585D1*
X732496Y1181371D1*
X735703Y1180733D1*
X738800Y1179682D1*
X741733Y1178236D1*
X744452Y1176419D1*
X746910Y1174263D1*
X749066Y1171805D1*
X750883Y1169086D1*
X752329Y1166153D1*
X753380Y1163056D1*
X754018Y1159849D1*
X754232Y1156586D1*
Y1156585D1*
G37*
X652756Y1573583D2*
D10*
X417756D1*
Y1103583D1*
X652756D1*
Y1573583D1*
X427766Y1338583D2*
X652756D1*
X668465Y1851033D2*
X766870Y1851036D1*
X766871Y1821495D1*
X766875Y1703410D2*
X766876Y1673869D1*
X668470Y1673867D1*
G36*
X609824Y1852428D2*
X608819Y1852494D1*
X607831Y1852690D1*
X606877Y1853014D1*
X605974Y1853459D1*
X605136Y1854019D1*
X604379Y1854683D1*
X603715Y1855440D1*
X603155Y1856278D1*
X602710Y1857181D1*
X602386Y1858135D1*
X602189Y1859123D1*
X602123Y1860128D1*
X602189Y1861133D1*
X602386Y1862121D1*
X602709Y1863074D1*
X603155Y1863978D1*
X603714Y1864815D1*
X604379Y1865573D1*
X605136Y1866237D1*
X605973Y1866796D1*
X606877Y1867242D1*
X607830Y1867566D1*
X608818Y1867762D1*
X609823Y1867828D1*
X609844D1*
X610849Y1867762D1*
X611837Y1867566D1*
X612791Y1867242D1*
X613694Y1866797D1*
X614532Y1866237D1*
X615289Y1865573D1*
X615953Y1864816D1*
X616513Y1863978D1*
X616958Y1863075D1*
X617282Y1862121D1*
X617479Y1861133D1*
X617545Y1860128D1*
X617479Y1859123D1*
X617282Y1858135D1*
X616959Y1857181D1*
X616513Y1856278D1*
X615954Y1855441D1*
X615289Y1854683D1*
X614532Y1854019D1*
X613695Y1853460D1*
X612791Y1853014D1*
X611838Y1852690D1*
X610850Y1852494D1*
X609845Y1852428D1*
X609824D1*
G37*
X428543Y1044265D2*
D10*
Y666312D1*
X841929D1*
Y1044265D1*
X428543D1*
X586024Y898596D2*
G02X586024Y898596I49213J0D01*
G01*
X448228D2*
G02X448228Y898596I49213J0D01*
G01*
X723819D2*
G02X723819Y898596I49213J0D01*
G01*
X467913Y869068D2*
X526969Y937966D1*
X605709Y859226D2*
X664764Y937966D1*
X743504Y859226D2*
X802559Y937966D1*
X428543Y800171D2*
X841929D1*
X497441Y693871D2*
Y402533D1*
X910827D1*
Y693871D1*
X497441D1*
X517126Y453714D2*
Y404501D1*
X615551D1*
Y453714D1*
X517126D1*
X654921D2*
Y404501D1*
X753346D1*
Y453714D1*
X654921D1*
X792717D2*
Y404501D1*
X881299D1*
Y453714D1*
X792717D1*
X920669Y1044265D2*
Y666312D1*
X1334055D1*
Y1044265D1*
X920669D1*
X1078150Y898596D2*
G02X1078150Y898596I49213J0D01*
G01*
X940354D2*
G02X940354Y898596I49213J0D01*
G01*
X1215945D2*
G02X1215945Y898596I49213J0D01*
G01*
X960039Y869068D2*
X1019094Y937966D1*
X1097835Y859226D2*
X1156890Y937966D1*
X1235630Y859226D2*
X1294685Y937966D1*
X920669Y800171D2*
X1334055D1*
X989567Y693871D2*
Y402533D1*
X1402953D1*
Y693871D1*
X989567D1*
X1009252Y453714D2*
Y404501D1*
X1107677D1*
Y453714D1*
X1009252D1*
X1147047D2*
Y404501D1*
X1245472D1*
Y453714D1*
X1147047D1*
X1284843D2*
Y404501D1*
X1373425D1*
Y453714D1*
X1284843D1*
X1308423Y1870080D2*
Y1673227D1*
X1434391Y1870080D2*
Y1673227D1*
X1308423D2*
X1434391D1*
X1308423Y1870080D2*
X1351719D1*
X1391094D2*
X1434391D1*
X1351719D2*
G03X1391094Y1870080I19688J1D01*
G01*
X594451Y1851193D2*
D49*
X598254Y1853094D1*
X602101Y1856941D1*
X604002Y1860744D1*
X604001Y1868393D1*
X602100Y1872240D1*
X598253Y1876042D1*
X594451Y1877988D1*
X588702Y1879889D1*
X579108Y1879888D1*
X573404Y1877987D1*
X569557Y1876041D1*
X565755Y1872239D1*
X563809Y1868392D1*
X563810Y1860742D1*
X565755Y1856940D1*
X569558Y1853093D1*
X573405Y1851192D1*
X596309Y1838841D2*
X598255Y1834995D1*
X603959Y1829247D1*
X563811Y1829246D1*
X461701Y1658858D2*
X457898Y1656957D1*
X454052Y1653110D1*
X452150Y1649308D1*
X452151Y1641658D1*
X454052Y1637812D1*
X457899Y1634009D1*
X461701Y1632064D1*
X467450Y1630163D1*
X477044D1*
X482748Y1632064D1*
X486595Y1634010D1*
X490397Y1637813D1*
X492343Y1641659D1*
X492342Y1649309D1*
X490397Y1653111D1*
X486594Y1656958D1*
X482747Y1658859D1*
X461745Y1673155D2*
X459843D1*
X455997Y1675056D1*
X454095Y1676958D1*
X452194Y1680804D1*
Y1688454D1*
X454095Y1692256D1*
X455996Y1694158D1*
X459843Y1696103D1*
X463645D1*
X467492Y1694158D1*
X473196Y1690356D1*
X492342Y1671211D1*
X492341Y1698005D1*
X598909Y1177561D2*
X597008Y1181363D1*
X593161Y1185210D1*
X589358Y1187111D1*
X581709D1*
X577862Y1185210D1*
X574060Y1181363D1*
X572114Y1177561D1*
X570213Y1171813D1*
Y1162218D1*
X572114Y1156514D1*
X574060Y1152667D1*
X577862Y1148865D1*
X581709Y1146919D1*
X589358D1*
X593161Y1148865D1*
X597008Y1152667D1*
X598909Y1156514D1*
X615107Y1187067D2*
X636109D1*
X624658Y1171768D1*
X630406D1*
X634208Y1169867D1*
X636109Y1167966D1*
X638055Y1162218D1*
Y1158415D1*
X636109Y1152667D1*
X632307Y1148821D1*
X626559Y1146919D1*
X620811D1*
X615107Y1148821D1*
X613206Y1150766D1*
X611260Y1154569D1*
X1561701Y1868774D2*
X1557899Y1866873D1*
X1554052Y1863026D1*
X1552151Y1859224D1*
Y1851575D1*
X1554052Y1847728D1*
X1557899Y1843925D1*
X1561701Y1841980D1*
X1567449Y1840078D1*
X1577044D1*
X1582748Y1841980D1*
X1586595Y1843925D1*
X1590397Y1847728D1*
X1592343Y1851575D1*
Y1859224D1*
X1590397Y1863026D1*
X1586595Y1866873D1*
X1582748Y1868774D1*
X1592343Y1900271D2*
X1552195D1*
X1578945Y1881126D1*
Y1909822D1*
X919726Y1566793D2*
X917825Y1570596D1*
X913978Y1574442D1*
X910176Y1576344D1*
X902527D1*
X898680Y1574442D1*
X894877Y1570596D1*
X892932Y1566793D1*
X891030Y1561045D1*
Y1551450D1*
X892932Y1545746D1*
X894877Y1541900D1*
X898680Y1538097D1*
X902527Y1536152D1*
X910176D1*
X913978Y1538097D1*
X917825Y1541900D1*
X919726Y1545746D1*
X955026Y1576299D2*
X935925D1*
X934023Y1559099D1*
X935925Y1561001D1*
X941673Y1562946D1*
X947376D1*
X953124Y1561001D1*
X956971Y1557198D1*
X958872Y1551450D1*
Y1547648D1*
X956971Y1541900D1*
X953124Y1538053D1*
X947376Y1536152D1*
X941673D1*
X935925Y1538053D1*
X934023Y1539998D1*
X932078Y1543801D1*
X1126948Y1566793D2*
X1125047Y1570596D1*
X1121200Y1574442D1*
X1117398Y1576344D1*
X1109749D1*
X1105902Y1574442D1*
X1102099Y1570596D1*
X1100154Y1566793D1*
X1098253Y1561045D1*
Y1551450D1*
X1100154Y1545746D1*
X1102099Y1541900D1*
X1105902Y1538097D1*
X1109749Y1536152D1*
X1117398D1*
X1121200Y1538097D1*
X1125047Y1541900D1*
X1126948Y1545746D1*
X1162248Y1570596D2*
X1160347Y1574398D1*
X1154598Y1576299D1*
X1150796D1*
X1145048Y1574398D1*
X1141201Y1568650D1*
X1139300Y1559099D1*
Y1549549D1*
X1141201Y1541900D1*
X1145048Y1538053D1*
X1150796Y1536152D1*
X1152697D1*
X1158401Y1538053D1*
X1162248Y1541900D1*
X1164149Y1547648D1*
Y1549549D1*
X1162248Y1555297D1*
X1158401Y1559099D1*
X1152697Y1561001D1*
X1150796D1*
X1145048Y1559099D1*
X1141201Y1555297D1*
X1139300Y1549549D1*
X1325974Y1566793D2*
X1324073Y1570596D1*
X1320226Y1574442D1*
X1316424Y1576344D1*
X1308775D1*
X1304928Y1574442D1*
X1301125Y1570596D1*
X1299180Y1566793D1*
X1297278Y1561045D1*
Y1551450D1*
X1299180Y1545746D1*
X1301125Y1541900D1*
X1304928Y1538097D1*
X1308775Y1536152D1*
X1316424D1*
X1320226Y1538097D1*
X1324073Y1541900D1*
X1325974Y1545746D1*
X1345975Y1536152D2*
X1365120Y1576299D1*
X1338326D1*
X725998Y1566794D2*
X724097Y1570597D1*
X720250Y1574444D1*
X716447Y1576345D1*
X708798D1*
X704951Y1574444D1*
X701149Y1570597D1*
X699203Y1566794D1*
X697302Y1561046D1*
Y1551451D1*
X699203Y1545748D1*
X701149Y1541901D1*
X704951Y1538098D1*
X708798Y1536153D1*
X716447D1*
X720250Y1538098D1*
X724097Y1541901D1*
X725998Y1545748D1*
X747900Y1576301D2*
X742196Y1574399D1*
X740251Y1570597D1*
Y1566750D1*
X742196Y1562948D1*
X745999Y1561002D1*
X753648Y1559101D1*
X759396Y1557199D1*
X763198Y1553353D1*
X765100Y1549550D1*
Y1543802D1*
X763198Y1540000D1*
X761297Y1538054D1*
X755549Y1536153D1*
X747900D1*
X742196Y1538054D1*
X740251Y1540000D1*
X738349Y1543802D1*
Y1549550D1*
X740251Y1553353D1*
X744097Y1557199D1*
X749801Y1559101D1*
X757450Y1561002D1*
X761297Y1562948D1*
X763198Y1566750D1*
Y1570597D1*
X761297Y1574399D1*
X755549Y1576301D1*
X747900D1*
X1504168Y1268657D2*
X1506070Y1264810D1*
X1509916Y1261008D1*
X1513719Y1259062D1*
X1519467Y1257161D1*
X1529062D1*
X1534765Y1259062D1*
X1538612Y1261008D1*
X1542415Y1264810D1*
X1544360Y1268657D1*
Y1276306D1*
X1542415Y1280109D1*
X1538612Y1283956D1*
X1534765Y1285857D1*
X1529062Y1287758D1*
X1519467D1*
X1513719Y1285857D1*
X1509916Y1283956D1*
X1506070Y1280109D1*
X1504168Y1276306D1*
Y1268657D1*
X1525215Y1300110D2*
Y1317354D1*
X1523314Y1323057D1*
X1521368Y1325003D1*
X1517566Y1326904D1*
X1511818D1*
X1508015Y1325003D1*
X1506070Y1323057D1*
X1504168Y1317354D1*
Y1300110D1*
X1544360D1*
X1504168Y1352653D2*
X1544360D1*
X1504168Y1339256D2*
Y1366050D1*
X1511862Y1378402D2*
X1509916Y1382248D1*
X1504212Y1387997D1*
X1544360D1*
X533812Y1526114D2*
X551057D1*
X556760Y1528016D1*
X558706Y1529961D1*
X560607Y1533764D1*
Y1539512D1*
X558706Y1543314D1*
X556760Y1545260D1*
X551057Y1547161D1*
X533812D1*
Y1506969D1*
X599753Y1541413D2*
X595951Y1545260D1*
X590203Y1547161D1*
X582553D1*
X576805Y1545260D1*
X572959Y1541413D1*
Y1537611D1*
X574904Y1533764D1*
X576805Y1531863D1*
X580608Y1529961D1*
X592104Y1526114D1*
X595951Y1524213D1*
X597852Y1522268D1*
X599753Y1518465D1*
Y1512717D1*
X595951Y1508915D1*
X590203Y1506969D1*
X582553D1*
X576805Y1508915D1*
X572959Y1512717D1*
X612105Y1539468D2*
X615951Y1541413D1*
X621699Y1547117D1*
Y1506969D1*
X622403Y1642862D2*
X639647D1*
X645350Y1644764D1*
X647296Y1646709D1*
X649197Y1650512D1*
Y1656260D1*
X647296Y1660062D1*
X645350Y1662008D1*
X639646Y1663909D1*
X622402Y1663908D1*
X622403Y1623716D1*
X688343Y1658162D2*
X684540Y1662009D1*
X678792Y1663910D1*
X671143D1*
X665395Y1662008D1*
X661548Y1658161D1*
Y1654359D1*
X663494Y1650512D1*
X665395Y1648611D1*
X669198Y1646710D1*
X680694Y1642863D1*
X684541Y1640962D1*
X686442Y1639017D1*
X688344Y1635214D1*
Y1629466D1*
X684541Y1625664D1*
X678793Y1623718D1*
X671144D1*
X665396Y1625663D1*
X661549Y1629465D1*
X702640Y1654316D2*
Y1656217D1*
X704541Y1660064D1*
X706442Y1661965D1*
X710289Y1663867D1*
X717938D1*
X721741Y1661966D1*
X723642Y1660064D1*
X725588Y1656218D1*
Y1652415D1*
X723642Y1648568D1*
X719840Y1642864D1*
X700695Y1623718D1*
X727490Y1623719D1*
X915836Y1086403D2*
X933035D1*
X938784Y1088348D1*
X940729Y1090250D1*
X942630Y1094052D1*
Y1097899D1*
X940729Y1101702D1*
X938784Y1103647D1*
X933035Y1105548D1*
X915836D1*
Y1065356D1*
X929233Y1086403D2*
X942630Y1065356D1*
X954982Y1097855D2*
X958828Y1099800D1*
X964576Y1105504D1*
Y1065356D1*
X1110335Y1086401D2*
X1127535D1*
X1133283Y1088347D1*
X1135229Y1090248D1*
X1137130Y1094051D1*
Y1097898D1*
X1135228Y1101700D1*
X1133283Y1103646D1*
X1127535Y1105547D1*
X1110335Y1105546D1*
X1110336Y1065354D1*
X1123733Y1086401D2*
X1137131Y1065355D1*
X1151427Y1095953D2*
Y1097854D1*
X1153328Y1101701D1*
X1155229Y1103602D1*
X1159076Y1105504D1*
X1166725D1*
X1170528Y1103603D1*
X1172429Y1101701D1*
X1174374Y1097855D1*
X1174375Y1094052D1*
X1172429Y1090205D1*
X1168627Y1084501D1*
X1149482Y1065355D1*
X1176277Y1065356D1*
X1326872Y1085815D2*
X1344072D1*
X1349820Y1087760D1*
X1351766Y1089662D1*
X1353667Y1093464D1*
Y1097311D1*
X1351766Y1101114D1*
X1349820Y1103059D1*
X1344072Y1104960D1*
X1326872D1*
Y1064768D1*
X1340269Y1085815D2*
X1353667Y1064768D1*
X1369865Y1104916D2*
X1390867D1*
X1379416Y1089618D1*
X1385164D1*
X1388966Y1087716D1*
X1390867Y1085815D1*
X1392813Y1080067D1*
Y1076264D1*
X1390867Y1070516D1*
X1387065Y1066670D1*
X1381317Y1064768D1*
X1375569D1*
X1369865Y1066670D1*
X1367964Y1068615D1*
X1366018Y1072418D1*
X1421836Y1035815D2*
X1439036D1*
X1444784Y1037760D1*
X1446730Y1039662D1*
X1448631Y1043464D1*
Y1047311D1*
X1446730Y1051114D1*
X1444784Y1053059D1*
X1439036Y1054960D1*
X1421836D1*
Y1014768D1*
X1435234Y1035815D2*
X1448631Y1014768D1*
X1480128D2*
Y1054916D1*
X1460982Y1028166D1*
X1489678D1*
X837553Y1674776D2*
X854753D1*
X860501Y1676721D1*
X862447Y1678622D1*
X864348Y1682425D1*
Y1686272D1*
X862447Y1690074D1*
X860501Y1692020D1*
X854753Y1693921D1*
X837553D1*
Y1653729D1*
X850951Y1674776D2*
X864348Y1653729D1*
X899647Y1693877D2*
X880546D1*
X878645Y1676677D1*
X880546Y1678578D1*
X886294Y1680524D1*
X891998D1*
X897746Y1678578D1*
X901593Y1674776D1*
X903494Y1669028D1*
Y1665225D1*
X901593Y1659477D1*
X897746Y1655630D1*
X891998Y1653729D1*
X886294D1*
X880546Y1655630D1*
X878645Y1657576D1*
X876699Y1661378D1*
X980059Y1668525D2*
X997259D1*
X1003007Y1670470D1*
X1004952Y1672372D1*
X1006853Y1676174D1*
Y1680021D1*
X1004952Y1683824D1*
X1003007Y1685769D1*
X997259Y1687670D1*
X980059D1*
Y1647478D1*
X993456Y1668525D2*
X1006853Y1647478D1*
X1042153Y1681922D2*
X1040252Y1685725D1*
X1034503Y1687626D1*
X1030701D1*
X1024953Y1685725D1*
X1021106Y1679977D1*
X1019205Y1670426D1*
Y1660876D1*
X1021106Y1653226D1*
X1024953Y1649380D1*
X1030701Y1647478D1*
X1032602D1*
X1038306Y1649380D1*
X1042153Y1653226D1*
X1044054Y1658974D1*
Y1660876D1*
X1042153Y1666624D1*
X1038306Y1670426D1*
X1032602Y1672328D1*
X1030701D1*
X1024953Y1670426D1*
X1021106Y1666624D1*
X1019205Y1660876D1*
X1497809Y1624777D2*
X1515009D1*
X1520757Y1626722D1*
X1522702Y1628624D1*
X1524604Y1632426D1*
Y1636273D1*
X1522702Y1640076D1*
X1520757Y1642021D1*
X1515009Y1643922D1*
X1497809D1*
Y1603730D1*
X1511206Y1624777D2*
X1524604Y1603730D1*
X1546506Y1643878D2*
X1540802Y1641977D1*
X1538856Y1638174D1*
Y1634328D1*
X1540802Y1630525D1*
X1544604Y1628579D1*
X1552254Y1626678D1*
X1558002Y1624777D1*
X1561804Y1620930D1*
X1563705Y1617128D1*
Y1611380D1*
X1561804Y1607577D1*
X1559903Y1605632D1*
X1554155Y1603730D1*
X1546506D1*
X1540802Y1605632D1*
X1538856Y1607577D1*
X1536955Y1611380D1*
Y1617128D1*
X1538856Y1620930D1*
X1542703Y1624777D1*
X1548407Y1626678D1*
X1556056Y1628579D1*
X1559903Y1630525D1*
X1561804Y1634328D1*
Y1638174D1*
X1559903Y1641977D1*
X1554155Y1643878D1*
X1546506D1*
X678363Y1414580D2*
X695563D1*
X701311Y1416526D1*
X703257Y1418427D1*
X705158Y1422229D1*
Y1426076D1*
X703257Y1429879D1*
X701311Y1431824D1*
X695563Y1433725D1*
X678363D1*
Y1393533D1*
X691761Y1414580D2*
X705158Y1393533D1*
X742403Y1420328D2*
X740457Y1414580D1*
X736655Y1410733D1*
X730907Y1408832D1*
X729006D1*
X723258Y1410733D1*
X719455Y1414580D1*
X717510Y1420328D1*
Y1422229D1*
X719455Y1427977D1*
X723258Y1431780D1*
X729006Y1433681D1*
X730907D1*
X736655Y1431780D1*
X740457Y1427977D1*
X742403Y1420328D1*
Y1410733D1*
X740457Y1401183D1*
X736655Y1395435D1*
X730907Y1393533D1*
X727104D1*
X721356Y1395435D1*
X719455Y1399281D1*
X796568Y1925144D2*
Y1907944D1*
X798514Y1902196D1*
X800415Y1900251D1*
X804218Y1898350D1*
X808064D1*
X811867Y1900251D1*
X813812Y1902196D1*
X815714Y1907944D1*
Y1925144D1*
X775522D1*
X796568Y1911747D2*
X775522Y1898350D1*
X808020Y1885998D2*
X809966Y1882151D1*
X815669Y1876403D1*
X775522D1*
X815669Y1852556D2*
X813768Y1858304D1*
X808020Y1862151D1*
X798470Y1864052D1*
X792722D1*
X783171Y1862151D1*
X777423Y1858304D1*
X775522Y1852556D1*
Y1848753D1*
X777423Y1843005D1*
X783171Y1839203D1*
X792722Y1837257D1*
X798470D1*
X808020Y1839203D1*
X813768Y1843005D1*
X815669Y1848753D1*
Y1852556D1*
X808020Y1839203D2*
X783171Y1862151D1*
X902819Y1797795D2*
Y1780595D1*
X904764Y1774847D1*
X906666Y1772902D1*
X910468Y1771000D1*
X914315D1*
X918118Y1772902D1*
X920063Y1774847D1*
X921964Y1780595D1*
Y1797795D1*
X881772D1*
X902819Y1784398D2*
X881772Y1771000D1*
X914271Y1758649D2*
X916216Y1754802D1*
X921920Y1749054D1*
X881772D1*
X914271Y1736703D2*
X916216Y1732856D1*
X921920Y1727108D1*
X881772D1*
X1027818Y1906395D2*
Y1889195D1*
X1029763Y1883447D1*
X1031664Y1881502D1*
X1035467Y1879600D1*
X1039314D1*
X1043116Y1881502D1*
X1045062Y1883447D1*
X1046963Y1889195D1*
Y1906395D1*
X1006771D1*
X1027818Y1892998D2*
X1006771Y1879600D1*
X1039269Y1867249D2*
X1041215Y1863402D1*
X1046919Y1857654D1*
X1006771D1*
X1037368Y1843357D2*
X1039269D1*
X1043116Y1841456D1*
X1045017Y1839555D1*
X1046919Y1835708D1*
Y1828059D1*
X1045017Y1824256D1*
X1043116Y1822355D1*
X1039269Y1820409D1*
X1035467D1*
X1031620Y1822355D1*
X1025916Y1826157D1*
X1006771Y1845303D1*
Y1818508D1*
X1121568Y1912646D2*
Y1895446D1*
X1123514Y1889698D1*
X1125415Y1887752D1*
X1129218Y1885851D1*
X1133064D1*
X1136867Y1887752D1*
X1138812Y1889698D1*
X1140714Y1895446D1*
Y1912646D1*
X1100522D1*
X1121568Y1899248D2*
X1100522Y1885851D1*
X1133020Y1873499D2*
X1134966Y1869653D1*
X1140669Y1863905D1*
X1100522D1*
X1140669Y1847707D2*
Y1826704D1*
X1125371Y1838156D1*
Y1832408D1*
X1123470Y1828605D1*
X1121568Y1826704D1*
X1115820Y1824759D1*
X1112018D1*
X1106270Y1826704D1*
X1102423Y1830507D1*
X1100522Y1836255D1*
Y1842003D1*
X1102423Y1847707D1*
X1104368Y1849608D1*
X1108171Y1851553D1*
X482388Y760135D2*
D50*
Y699847D1*
X522580Y760135D2*
X482388Y719943D1*
X496714Y734335D2*
X522580Y699847D1*
X578447Y760135D2*
X541107D1*
Y699847D1*
Y731417D2*
X564055D1*
X596974Y748595D2*
X602744Y751513D1*
X611366Y760069D1*
Y699847D1*
X632811Y745743D2*
Y748595D1*
X635663Y754365D1*
X638515Y757217D1*
X644285Y760069D1*
X655759D1*
X661463Y757217D1*
X664315Y754365D1*
X667233Y748595D1*
Y742891D1*
X664315Y737121D1*
X658611Y728565D1*
X629893Y699847D1*
X670085D1*
X702938Y760069D2*
X694382Y757217D1*
X691464Y751513D1*
Y745743D1*
X694382Y740039D1*
X700086Y737121D1*
X711560Y734269D1*
X720182Y731417D1*
X725886Y725647D1*
X728738Y719943D1*
Y711321D1*
X725886Y705617D1*
X723034Y702699D1*
X714412Y699847D1*
X702938D1*
X694382Y702699D1*
X691464Y705617D1*
X688612Y711321D1*
Y719943D1*
X691464Y725647D1*
X697234Y731417D1*
X705790Y734269D1*
X717264Y737121D1*
X723034Y740039D1*
X725886Y745743D1*
Y751513D1*
X723034Y757217D1*
X714412Y760069D1*
X702938D1*
X747265Y760135D2*
Y699847D1*
X787457Y760135D2*
Y699847D1*
X747265Y731417D2*
X787457D1*
X851658Y963719D2*
D49*
X891850D1*
X851658Y950322D2*
Y977116D1*
Y989468D2*
X891850D1*
Y1006712D1*
X889904Y1012460D1*
X888003Y1014361D1*
X884200Y1016262D1*
X878452D1*
X874606Y1014361D1*
X872704Y1012460D1*
X870803Y1006712D1*
X868858Y1012460D1*
X866956Y1014361D1*
X863154Y1016262D1*
X859307D1*
X855505Y1014361D1*
X853559Y1012460D1*
X851658Y1006712D1*
Y989468D1*
X870803D2*
Y1006712D1*
X859351Y1028614D2*
X857406Y1032461D1*
X851702Y1038209D1*
X891850D1*
X920555Y554725D2*
X960747D1*
X920555Y541328D2*
Y568123D1*
Y580474D2*
X960747D1*
Y597718D1*
X958802Y603466D1*
X956901Y605367D1*
X953098Y607269D1*
X947350D1*
X943503Y605367D1*
X941602Y603466D1*
X939701Y597718D1*
X937755Y603466D1*
X935854Y605367D1*
X932051Y607269D1*
X928205D1*
X924402Y605367D1*
X922457Y603466D1*
X920555Y597718D1*
Y580474D1*
X939701D2*
Y597718D1*
X930150Y621566D2*
X928249D1*
X924402Y623467D1*
X922501Y625368D1*
X920600Y629215D1*
Y636864D1*
X922501Y640667D1*
X924402Y642568D1*
X928249Y644514D1*
X932051D1*
X935898Y642568D1*
X941602Y638765D1*
X960747Y619620D1*
Y646415D1*
X974514Y760135D2*
D50*
Y699847D1*
X1014706Y760135D2*
X974514Y719943D1*
X988840Y734335D2*
X1014706Y699847D1*
X1070573Y760135D2*
X1033233D1*
Y699847D1*
Y731417D2*
X1056181D1*
X1089100Y748595D2*
X1094870Y751513D1*
X1103492Y760069D1*
Y699847D1*
X1124937Y745743D2*
Y748595D1*
X1127789Y754365D1*
X1130641Y757217D1*
X1136411Y760069D1*
X1147885D1*
X1153589Y757217D1*
X1156441Y754365D1*
X1159359Y748595D1*
Y742891D1*
X1156441Y737121D1*
X1150737Y728565D1*
X1122019Y699847D1*
X1162211D1*
X1195064Y760069D2*
X1186508Y757217D1*
X1183590Y751513D1*
Y745743D1*
X1186508Y740039D1*
X1192212Y737121D1*
X1203686Y734269D1*
X1212308Y731417D1*
X1218012Y725647D1*
X1220864Y719943D1*
Y711321D1*
X1218012Y705617D1*
X1215160Y702699D1*
X1206538Y699847D1*
X1195064D1*
X1186508Y702699D1*
X1183590Y705617D1*
X1180738Y711321D1*
Y719943D1*
X1183590Y725647D1*
X1189360Y731417D1*
X1197916Y734269D1*
X1209390Y737121D1*
X1215160Y740039D1*
X1218012Y745743D1*
Y751513D1*
X1215160Y757217D1*
X1206538Y760069D1*
X1195064D1*
X1239391Y760135D2*
Y699847D1*
X1279583Y760135D2*
Y699847D1*
X1239391Y731417D2*
X1279583D1*
X1343784Y955119D2*
D49*
X1383976D1*
X1343784Y941722D2*
Y968516D1*
Y980868D2*
X1383976D1*
Y998112D1*
X1382030Y1003860D1*
X1380129Y1005761D1*
X1376326Y1007662D1*
X1370578D1*
X1366732Y1005761D1*
X1364830Y1003860D1*
X1362929Y998112D1*
X1360984Y1003860D1*
X1359082Y1005761D1*
X1355280Y1007662D1*
X1351433D1*
X1347631Y1005761D1*
X1345685Y1003860D1*
X1343784Y998112D1*
Y980868D1*
X1362929D2*
Y998112D1*
X1343828Y1023861D2*
Y1044863D1*
X1359127Y1033411D1*
Y1039159D1*
X1361028Y1042962D1*
X1362929Y1044863D1*
X1368677Y1046808D1*
X1372480D1*
X1378228Y1044863D1*
X1382074Y1041060D1*
X1383976Y1035312D1*
Y1029564D1*
X1382074Y1023861D1*
X1380129Y1021959D1*
X1376326Y1020014D1*
X1412681Y578775D2*
X1452873D1*
X1412681Y565377D2*
Y592172D1*
Y604523D2*
X1452873D1*
Y621768D1*
X1450928Y627516D1*
X1449027Y629417D1*
X1445224Y631318D1*
X1439476D1*
X1435629Y629417D1*
X1433728Y627516D1*
X1431827Y621768D1*
X1429881Y627516D1*
X1427980Y629417D1*
X1424177Y631318D1*
X1420331D1*
X1416528Y629417D1*
X1414583Y627516D1*
X1412681Y621768D1*
Y604523D1*
X1431827D2*
Y621768D1*
X1452873Y662815D2*
X1412726D1*
X1439476Y643669D1*
Y672365D1*
X1357186Y1841159D2*
Y1812463D1*
X1359087Y1806715D1*
X1362934Y1802912D1*
X1368682Y1800967D1*
X1372484D1*
X1378232Y1802912D1*
X1382079Y1806715D1*
X1383980Y1812463D1*
Y1841159D1*
X1398277Y1831564D2*
Y1833465D1*
X1400179Y1837312D1*
X1402080Y1839213D1*
X1405927Y1841114D1*
X1413576D1*
X1417379Y1839213D1*
X1419280Y1837312D1*
X1421225Y1833465D1*
Y1829662D1*
X1419280Y1825816D1*
X1415477Y1820112D1*
X1396332Y1800967D1*
X1423127D1*
M02*
