M48
INCH
T01C0.0191
T02C0.0354
T03C0.0472
T04C0.1378
%
T01
X+011315Y+016217
X+011102Y+017341
X+013690Y+016217
X+009003Y+014565
X+006940Y+015252
X+006499Y+016173
X+006065Y+013065
X+005440Y+011815
X+004940Y+010065
X+008065Y+011815
X+009565Y+012065
T02
X+004739Y+019688
X+005739Y+019688
X+006739Y+019688
X+007739Y+019688
X+008739Y+019688
X+009739Y+019688
X+010739Y+019688
X+011739Y+019688
X+012739Y+019688
X+013739Y+019688
X+014739Y+019688
X+015739Y+019688
T03
X+007498Y+007440
X+008876Y+007440
X+010254Y+007440
X+011632Y+007440
X+013010Y+007440
T04
X+015160Y+008271
T00
M30
