G04 DipTrace 4.0.0.2*
G04 TopSilk.gbr*
%MOIN*%
G04 #@! TF.FileFunction,Legend,Top*
G04 #@! TF.Part,Single*
%ADD10C,0.009843*%
%ADD19C,0.008*%
%ADD28C,0.005906*%
%ADD56C,0.006176*%
%ADD57C,0.00772*%
%FSLAX26Y26*%
G04*
G70*
G90*
G75*
G01*
G04 TopSilk*
%LPD*%
X982071Y1227640D2*
D10*
X930929D1*
X1090949Y1502941D2*
Y1290374D1*
X1272051Y1502941D2*
X1090949D1*
Y1290374D2*
X1272051D1*
Y1502941D2*
Y1420290D1*
Y1290374D2*
Y1373025D1*
Y1420290D2*
G03X1272051Y1373025I-1J-23633D01*
G01*
X680909Y799094D2*
Y684945D1*
X1369886D1*
Y799094D1*
X680909D1*
Y905417D2*
Y354236D1*
X1369886D1*
Y905417D1*
X680909D1*
X683073Y1299112D2*
X879927D1*
X683073Y1401487D2*
X879927D1*
Y1299112D2*
Y1401487D1*
X683073Y1330605D2*
Y1299112D1*
Y1369993D2*
Y1401487D1*
Y1330605D2*
G03X683073Y1369993I-9J19694D01*
G01*
X632071Y1340140D2*
X580929D1*
X512500Y794004D2*
G02X512500Y794004I31500J0D01*
G01*
X575500Y793995D2*
X512500D1*
X544000Y762507D2*
Y825501D1*
X563677Y882583D2*
X524323D1*
X465259Y823524D2*
Y705425D1*
X504629D2*
X465259D1*
X583371D2*
X622741D1*
Y823524D1*
X1328449Y1502941D2*
Y1290374D1*
X1509551Y1502941D2*
X1328449D1*
Y1290374D2*
X1509551D1*
Y1502941D2*
Y1420290D1*
Y1290374D2*
Y1373025D1*
Y1420290D2*
G03X1509551Y1373025I-1J-23633D01*
G01*
X394000Y2047543D2*
Y394000D1*
X1653843D1*
Y2047543D1*
X394000D1*
G36*
X769000Y1756500D2*
X787751Y1781500D1*
X750249D1*
D1*
X769000Y1756500D1*
G37*
X787751D2*
D28*
X750249D1*
X787751Y1700249D2*
X750249D1*
G36*
X875251Y1756500D2*
X894001Y1781500D1*
X856500D1*
D1*
X875251Y1756500D1*
G37*
X894001D2*
D28*
X856500D1*
X894001Y1700249D2*
X856500D1*
G36*
X981500Y1756500D2*
X1000251Y1781500D1*
X962749D1*
D1*
X981500Y1756500D1*
G37*
X1000251D2*
D28*
X962749D1*
X1000251Y1700249D2*
X962749D1*
X680909Y1151874D2*
D10*
X955024D1*
Y905417D1*
X680909D1*
Y1151874D1*
X955024D2*
X1369886D1*
Y905417D1*
X955024D1*
Y1151874D1*
X1094000Y1931500D2*
D19*
X1481500D1*
Y1775249D1*
X1094000D1*
Y1931500D1*
G36*
X1390661Y1899303D2*
Y1898778D1*
X1389611Y1897728D1*
X1388561Y1895629D1*
X1387511Y1892479D1*
Y1881980D1*
X1388036Y1879881D1*
X1388561Y1878306D1*
X1390136Y1875156D1*
X1392761Y1872532D1*
X1394860Y1871482D1*
X1396435Y1870957D1*
X1401160D1*
X1402734Y1871482D1*
X1405884Y1873057D1*
X1407459Y1874631D1*
X1407948Y1874457D1*
X1408509Y1874106D1*
Y1872007D1*
X1413233D1*
Y1916101D1*
X1408509D1*
Y1902453D1*
X1407952Y1901883D1*
X1407680Y1901968D1*
X1407459Y1902453D1*
X1406409Y1902978D1*
X1403259Y1904028D1*
X1398010D1*
X1396435Y1903503D1*
X1393286Y1901928D1*
X1390661Y1899303D1*
X1398535D1*
X1400460Y1899828D1*
X1402385D1*
X1404309Y1899303D1*
X1406409Y1898778D1*
X1408509Y1897728D1*
Y1879356D1*
X1407459Y1878306D1*
X1404309Y1876731D1*
X1402734Y1876206D1*
X1400985Y1875681D1*
X1399235D1*
X1397485Y1876206D1*
X1395910Y1876731D1*
X1393811Y1878831D1*
Y1879356D1*
X1393286Y1880406D1*
X1392761Y1882505D1*
X1392236Y1883030D1*
Y1891429D1*
X1392761Y1891954D1*
X1393286Y1894054D1*
X1393811Y1895104D1*
X1394860Y1896679D1*
X1394963Y1897051D1*
X1395385Y1897728D1*
X1398535Y1899303D1*
X1390661D1*
G37*
G36*
X1421632Y1915576D2*
Y1872007D1*
X1426357D1*
Y1915576D1*
X1421632D1*
G37*
G36*
X1114021Y1909802D2*
X1113848Y1909165D1*
X1113496Y1908752D1*
X1112971Y1907702D1*
X1111921Y1904553D1*
X1111396Y1902453D1*
X1110871Y1899303D1*
Y1886180D1*
X1111396Y1883030D1*
X1111921Y1880931D1*
X1112971Y1877781D1*
X1113496Y1876731D1*
X1114546Y1875156D1*
X1117170Y1872532D1*
X1119270Y1871482D1*
X1121370Y1870957D1*
X1126619D1*
X1129769Y1872007D1*
X1131343Y1873057D1*
X1132918Y1874631D1*
X1133968Y1876206D1*
X1135018Y1878306D1*
X1136068Y1881456D1*
X1136593Y1884080D1*
X1137118Y1888280D1*
Y1896679D1*
X1136593Y1901403D1*
X1136068Y1904028D1*
X1135018Y1907177D1*
X1133968Y1909277D1*
X1132918Y1910852D1*
X1131343Y1912427D1*
X1128194Y1914001D1*
X1126094Y1914526D1*
X1121370D1*
X1119270Y1914001D1*
X1117170Y1912952D1*
X1114021Y1909802D1*
X1121370D1*
X1123119Y1910327D1*
X1124869D1*
X1126619Y1909802D1*
X1127669Y1909277D1*
X1129769Y1907177D1*
Y1906652D1*
X1130294Y1905603D1*
X1130818Y1903503D1*
X1131343Y1899828D1*
X1131868Y1899303D1*
Y1886180D1*
X1131343Y1885655D1*
X1130818Y1881980D1*
X1130294Y1879881D1*
X1129769Y1878831D1*
Y1878306D1*
X1127669Y1876206D1*
X1124519Y1875156D1*
X1122944D1*
X1121370Y1875681D1*
X1119270Y1876731D1*
X1118647Y1877321D1*
X1118745Y1877781D1*
X1117695Y1879356D1*
X1117170Y1880931D1*
X1116645Y1883555D1*
X1116120Y1884080D1*
Y1901403D1*
X1116645Y1901928D1*
X1117170Y1904553D1*
X1117695Y1906127D1*
X1118745Y1907702D1*
X1118847Y1908074D1*
X1119270Y1908752D1*
X1121370Y1909802D1*
X1114021D1*
G37*
G36*
X1198010D2*
X1197838Y1909165D1*
X1197485Y1908752D1*
X1196960Y1907702D1*
X1195910Y1904553D1*
X1195385Y1902453D1*
X1194860Y1899303D1*
Y1886180D1*
X1195385Y1883030D1*
X1195910Y1880931D1*
X1196960Y1877781D1*
X1197485Y1876731D1*
X1198535Y1875156D1*
X1201160Y1872532D1*
X1203259Y1871482D1*
X1205359Y1870957D1*
X1210609D1*
X1213758Y1872007D1*
X1215333Y1873057D1*
X1216908Y1874631D1*
X1217958Y1876206D1*
X1219007Y1878306D1*
X1220057Y1881456D1*
X1220582Y1884080D1*
X1221107Y1888280D1*
Y1896679D1*
X1220582Y1901403D1*
X1220057Y1904028D1*
X1219007Y1907177D1*
X1217958Y1909277D1*
X1216908Y1910852D1*
X1215333Y1912427D1*
X1212183Y1914001D1*
X1210084Y1914526D1*
X1205359D1*
X1203259Y1914001D1*
X1201160Y1912952D1*
X1198010Y1909802D1*
X1205359D1*
X1207109Y1910327D1*
X1208859D1*
X1210609Y1909802D1*
X1211658Y1909277D1*
X1213758Y1907177D1*
Y1906652D1*
X1214283Y1905603D1*
X1214808Y1903503D1*
X1215333Y1899828D1*
X1215858Y1899303D1*
Y1886180D1*
X1215333Y1885655D1*
X1214808Y1881980D1*
X1214283Y1879881D1*
X1213758Y1878831D1*
Y1878306D1*
X1211658Y1876206D1*
X1208509Y1875156D1*
X1206934D1*
X1205359Y1875681D1*
X1203259Y1876731D1*
X1202637Y1877321D1*
X1202734Y1877781D1*
X1201685Y1879356D1*
X1201160Y1880931D1*
X1200635Y1883555D1*
X1200110Y1884080D1*
Y1901403D1*
X1200635Y1901928D1*
X1201160Y1904553D1*
X1201685Y1906127D1*
X1202734Y1907702D1*
X1202837Y1908074D1*
X1203259Y1908752D1*
X1205359Y1909802D1*
X1198010D1*
G37*
G36*
X1289874Y1914526D2*
X1287774Y1914001D1*
X1286199Y1913477D1*
X1284099Y1912427D1*
X1280425Y1908752D1*
X1279375Y1906652D1*
X1278850Y1904553D1*
Y1900353D1*
X1279375Y1898253D1*
X1280425Y1896154D1*
X1283049Y1893529D1*
X1286199Y1891954D1*
X1287774Y1891429D1*
X1294073Y1889854D1*
X1297223Y1888805D1*
X1299322Y1887755D1*
X1299745Y1887077D1*
X1299847Y1886705D1*
X1300897Y1884080D1*
X1301422Y1883555D1*
Y1881456D1*
X1300897Y1880931D1*
X1300372Y1879356D1*
Y1878831D1*
X1298797Y1877256D1*
X1296698Y1876206D1*
X1295123Y1875681D1*
X1292848Y1875156D1*
X1290574D1*
X1288299Y1875681D1*
X1285149Y1876731D1*
X1280950Y1878831D1*
X1278850Y1880931D1*
Y1874106D1*
X1279375Y1873582D1*
X1282000Y1872532D1*
X1285149Y1871482D1*
X1288299Y1870957D1*
X1295123D1*
X1297223Y1871482D1*
X1298797Y1872007D1*
X1300897Y1873057D1*
X1302997Y1874631D1*
X1304572Y1876731D1*
X1305622Y1878831D1*
X1306147Y1880406D1*
X1306672Y1883030D1*
Y1884080D1*
X1306147Y1887230D1*
X1304572Y1890379D1*
X1302997Y1891954D1*
X1301422Y1893004D1*
X1300372Y1893529D1*
X1297223Y1894579D1*
X1290923Y1896154D1*
X1287774Y1897204D1*
X1286724Y1897728D1*
X1284624Y1899828D1*
Y1900878D1*
X1284099Y1901403D1*
Y1905078D1*
X1284624Y1905603D1*
X1285674Y1907177D1*
X1287249Y1908752D1*
X1288299Y1909277D1*
X1289874Y1909802D1*
X1291973Y1910327D1*
X1294073D1*
X1298273Y1909277D1*
X1299847Y1908752D1*
X1301947Y1907702D1*
X1302472Y1907177D1*
X1304572Y1905603D1*
Y1911902D1*
X1304047Y1912427D1*
X1302997Y1912952D1*
X1301422Y1913477D1*
X1299322Y1914001D1*
X1296173Y1914526D1*
X1289874D1*
G37*
G36*
X1175963Y1913477D2*
Y1912427D1*
X1175438Y1911902D1*
Y1910852D1*
X1173863Y1909277D1*
X1172813Y1908752D1*
X1170713Y1908227D1*
X1167564Y1907702D1*
Y1904553D1*
X1174913Y1904028D1*
Y1876206D1*
X1167564Y1875681D1*
Y1872007D1*
X1186986D1*
Y1875681D1*
X1179637Y1876206D1*
Y1913477D1*
X1175963D1*
G37*
G36*
X1223732D2*
Y1912952D1*
X1224257Y1911902D1*
X1228456Y1899303D1*
X1228981Y1898253D1*
X1233181Y1885655D1*
X1233706Y1884605D1*
X1237905Y1872007D1*
X1243679D1*
X1244204Y1872532D1*
X1248404Y1885130D1*
X1248929Y1886180D1*
X1253128Y1898778D1*
X1253653Y1899828D1*
X1257853Y1912427D1*
Y1913477D1*
X1253128D1*
X1252603Y1912952D1*
X1241580Y1879881D1*
X1241446Y1879261D1*
X1241024Y1878782D1*
X1240753Y1878870D1*
X1240415Y1879448D1*
X1240530Y1879881D1*
X1229506Y1912952D1*
X1228981Y1913477D1*
X1223732D1*
G37*
G36*
X1343942D2*
Y1908752D1*
X1349716D1*
Y1913477D1*
X1343942D1*
G37*
G36*
X1312446Y1898778D2*
Y1860458D1*
X1317170D1*
Y1873057D1*
X1317562Y1873394D1*
X1317834Y1873363D1*
X1318220Y1873057D1*
X1319270Y1872532D1*
X1322420Y1871482D1*
X1327669D1*
X1329244Y1872007D1*
X1331343Y1873057D1*
X1332918Y1874106D1*
X1334493Y1875681D1*
X1335543Y1877256D1*
X1337118Y1880406D1*
X1337643Y1881980D1*
X1338168Y1884080D1*
Y1893004D1*
X1337643Y1895104D1*
X1337118Y1896679D1*
X1335543Y1899828D1*
X1332918Y1902453D1*
X1330818Y1903503D1*
X1329244Y1904028D1*
X1325044D1*
X1322944Y1903503D1*
X1319795Y1901928D1*
X1318220Y1900353D1*
X1317451Y1900406D1*
X1317170Y1900878D1*
Y1902978D1*
X1312446D1*
Y1898778D1*
X1322944D1*
X1324694Y1899303D1*
X1326444D1*
X1328194Y1898778D1*
X1330294Y1897728D1*
X1331868Y1896154D1*
Y1895629D1*
X1332393Y1894054D1*
X1332918Y1891429D1*
X1333443Y1890904D1*
Y1884605D1*
X1332918Y1884080D1*
X1332393Y1881980D1*
X1331868Y1880406D1*
Y1879881D1*
X1329244Y1877256D1*
X1327144Y1876206D1*
X1325044Y1875681D1*
X1322944D1*
X1320845Y1876206D1*
X1317695Y1877256D1*
X1317170Y1877781D1*
Y1895629D1*
X1317695Y1896154D1*
X1318745Y1896679D1*
X1319270Y1897204D1*
X1321370Y1898253D1*
X1322944Y1898778D1*
X1312446D1*
G37*
G36*
X1370189Y1904028D2*
X1368089Y1903503D1*
X1365989Y1902453D1*
X1364414Y1901403D1*
X1363364Y1900353D1*
X1362808Y1899783D1*
X1362536Y1899868D1*
X1362315Y1900353D1*
Y1902978D1*
X1357590D1*
Y1872007D1*
X1362315D1*
Y1895104D1*
X1363889Y1896679D1*
X1364939Y1897204D1*
X1365464Y1897728D1*
X1366514Y1898253D1*
X1368089Y1898778D1*
X1369839Y1899303D1*
X1371588D1*
X1373338Y1898778D1*
X1374388Y1898253D1*
X1375963Y1896679D1*
Y1895629D1*
X1376488Y1890379D1*
X1377013Y1872007D1*
X1381212D1*
Y1896679D1*
X1380687Y1898253D1*
X1379637Y1900353D1*
X1377013Y1902978D1*
X1375963Y1903503D1*
X1373863Y1904028D1*
X1370189D1*
G37*
G36*
X1436330Y1899828D2*
X1435805Y1899303D1*
X1434755Y1897728D1*
X1433706Y1895629D1*
X1432656Y1892479D1*
X1432131Y1887755D1*
Y1887230D1*
X1432656Y1882505D1*
X1433706Y1879356D1*
X1434231Y1878306D1*
X1435280Y1876731D1*
X1437905Y1874106D1*
X1441055Y1872532D1*
X1442630Y1872007D1*
X1444729Y1871482D1*
X1451028D1*
X1455228Y1872532D1*
X1457853Y1873582D1*
X1458378Y1874106D1*
Y1879356D1*
X1457853Y1878831D1*
X1454703Y1877256D1*
X1453128Y1876731D1*
X1448929Y1875681D1*
X1446829D1*
X1444729Y1876206D1*
X1443154Y1876731D1*
X1441055Y1877781D1*
X1438430Y1880406D1*
Y1880931D1*
X1437905Y1882505D1*
X1437380Y1883030D1*
Y1886705D1*
X1458902Y1887230D1*
Y1894054D1*
X1458378Y1896154D1*
X1457853Y1897728D1*
X1456803Y1899303D1*
X1453653Y1902453D1*
X1451553Y1903503D1*
X1449454Y1904028D1*
X1444204D1*
X1442105Y1903503D1*
X1440530Y1902978D1*
X1439480Y1902453D1*
X1437380Y1900878D1*
X1436330Y1899828D1*
X1443679D1*
X1445604Y1900353D1*
X1447529D1*
X1449454Y1899828D1*
X1451553Y1898778D1*
X1453128Y1897204D1*
Y1896679D1*
X1453653Y1895629D1*
X1454178Y1893004D1*
X1454703Y1892479D1*
Y1891429D1*
X1448929Y1890904D1*
X1443154D1*
X1437380Y1891429D1*
Y1893529D1*
X1437905Y1894054D1*
X1438430Y1895629D1*
Y1896154D1*
X1441055Y1898778D1*
X1442105Y1899303D1*
X1443679Y1899828D1*
X1436330D1*
G37*
G36*
X1344467Y1902978D2*
Y1872007D1*
X1349191D1*
Y1902978D1*
X1344467D1*
G37*
G36*
X1142367Y1892479D2*
Y1887755D1*
X1157590D1*
Y1892479D1*
X1142367D1*
G37*
G36*
X1256278Y1825812D2*
Y1825288D1*
X1255228Y1824238D1*
X1254178Y1822138D1*
X1253128Y1818988D1*
Y1808490D1*
X1253653Y1806390D1*
X1254178Y1804815D1*
X1255753Y1801666D1*
X1258378Y1799041D1*
X1260477Y1797991D1*
X1262052Y1797466D1*
X1266776D1*
X1268351Y1797991D1*
X1271501Y1799566D1*
X1273076Y1801141D1*
X1273565Y1800966D1*
X1274126Y1800616D1*
Y1798516D1*
X1278850D1*
Y1842610D1*
X1274126D1*
Y1828962D1*
X1273569Y1828392D1*
X1273297Y1828477D1*
X1273076Y1828962D1*
X1272026Y1829487D1*
X1268876Y1830537D1*
X1263627D1*
X1262052Y1830012D1*
X1258902Y1828437D1*
X1256278Y1825812D1*
X1264152D1*
X1266077Y1826337D1*
X1268001D1*
X1269926Y1825812D1*
X1272026Y1825288D1*
X1274126Y1824238D1*
Y1805865D1*
X1273076Y1804815D1*
X1269926Y1803240D1*
X1268351Y1802715D1*
X1266602Y1802190D1*
X1264852D1*
X1263102Y1802715D1*
X1261527Y1803240D1*
X1259427Y1805340D1*
Y1805865D1*
X1258902Y1806915D1*
X1258378Y1809015D1*
X1257853Y1809540D1*
Y1817938D1*
X1258378Y1818463D1*
X1258902Y1820563D1*
X1259427Y1821613D1*
X1260477Y1823188D1*
X1260579Y1823560D1*
X1261002Y1824238D1*
X1264152Y1825812D1*
X1256278D1*
G37*
G36*
X1164939Y1825288D2*
Y1798516D1*
X1169139D1*
Y1799041D1*
X1169839Y1799566D1*
X1170539D1*
X1171238Y1799041D1*
X1173338Y1797991D1*
X1175438Y1797466D1*
X1180162D1*
X1181737Y1797991D1*
X1183837Y1799041D1*
X1185412Y1800091D1*
X1186986Y1801666D1*
X1188036Y1803240D1*
X1189611Y1806390D1*
X1190136Y1807965D1*
X1190661Y1810064D1*
Y1818988D1*
X1190136Y1821613D1*
X1189611Y1823188D1*
X1188561Y1825288D1*
X1187511Y1826862D1*
X1185412Y1828962D1*
X1183312Y1830012D1*
X1181737Y1830537D1*
X1177013D1*
X1175438Y1830012D1*
X1172288Y1828437D1*
X1170713Y1826862D1*
X1169944Y1826916D1*
X1169664Y1827387D1*
Y1842085D1*
X1164939D1*
Y1825288D1*
X1175438D1*
X1177188Y1825812D1*
X1178937D1*
X1180687Y1825288D1*
X1182787Y1824238D1*
X1184362Y1822663D1*
Y1822138D1*
X1184887Y1820563D1*
X1185412Y1817938D1*
X1185937Y1817414D1*
Y1810589D1*
X1185412Y1810064D1*
X1184887Y1807965D1*
X1184362Y1806390D1*
X1183312Y1804815D1*
X1183139Y1804178D1*
X1182787Y1803765D1*
X1179637Y1802190D1*
X1177713Y1801666D1*
X1175788D1*
X1173863Y1802190D1*
X1171763Y1802715D1*
X1169664Y1803765D1*
Y1822138D1*
X1170713Y1823188D1*
X1173863Y1824763D1*
X1175438Y1825288D1*
X1164939D1*
G37*
G36*
X1242105Y1842085D2*
Y1798516D1*
X1246829D1*
Y1842085D1*
X1242105D1*
G37*
G36*
X1287249D2*
Y1798516D1*
X1291973D1*
Y1842085D1*
X1287249D1*
G37*
G36*
X1144467Y1806915D2*
Y1829487D1*
X1140792D1*
X1140601Y1828842D1*
X1140043Y1828394D1*
X1139568Y1828478D1*
X1139217Y1828962D1*
X1136068Y1830012D1*
X1131868D1*
X1130294Y1829487D1*
X1129244Y1828962D1*
X1127144Y1827387D1*
X1126094Y1826337D1*
X1125044Y1824763D1*
X1123994Y1822663D1*
X1123469Y1821088D1*
X1122944Y1817938D1*
Y1814264D1*
X1123469Y1811114D1*
X1123994Y1809015D1*
X1125044Y1806915D1*
X1128194Y1803765D1*
X1129244Y1803240D1*
X1130818Y1802715D1*
X1135018D1*
X1136593Y1803240D1*
X1137643Y1803765D1*
X1139217Y1804815D1*
X1139742Y1805340D1*
X1140134Y1805677D1*
X1140400Y1805633D1*
X1140699Y1805199D1*
X1141317Y1802715D1*
X1152866D1*
X1153391Y1803240D1*
X1154965Y1806390D1*
X1156015Y1809540D1*
X1156540Y1811639D1*
X1157065Y1815314D1*
Y1818988D1*
X1156540Y1823188D1*
X1156015Y1825288D1*
X1154965Y1828437D1*
X1153391Y1831587D1*
X1152341Y1833162D1*
X1148141Y1837361D1*
X1146567Y1838411D1*
X1144467Y1839461D1*
X1141317Y1840511D1*
X1138692Y1841036D1*
X1131868D1*
X1129244Y1840511D1*
X1126094Y1839461D1*
X1123994Y1838411D1*
X1122420Y1837361D1*
X1119795Y1835261D1*
X1118745Y1834211D1*
X1116645Y1831587D1*
X1115595Y1830012D1*
X1113496Y1825812D1*
X1112971Y1824238D1*
X1112446Y1821613D1*
Y1811114D1*
X1112971Y1809015D1*
X1114021Y1805865D1*
X1115595Y1802715D1*
X1116645Y1801141D1*
X1121895Y1795891D1*
X1124519Y1794316D1*
X1127144Y1793267D1*
X1128719Y1792742D1*
X1131343Y1792217D1*
X1139742D1*
X1143417Y1792742D1*
X1144467Y1793267D1*
Y1796416D1*
X1143942D1*
X1140267Y1795891D1*
X1137293Y1795366D1*
X1134318D1*
X1131343Y1795891D1*
X1128719Y1796416D1*
X1127144Y1796941D1*
X1125044Y1797991D1*
X1124519Y1798516D1*
X1123469Y1799041D1*
X1119270Y1803240D1*
Y1803765D1*
X1118220Y1805340D1*
X1117695Y1806390D1*
X1116645Y1809540D1*
X1116120Y1812689D1*
X1115595Y1813214D1*
Y1820038D1*
X1116120Y1820563D1*
X1116645Y1823188D1*
X1117695Y1826337D1*
X1118220Y1827387D1*
X1119270Y1828962D1*
X1121370Y1831587D1*
X1121472Y1831959D1*
X1121895Y1832637D1*
X1122944Y1833162D1*
X1124519Y1834736D1*
X1127669Y1836311D1*
X1129244Y1836836D1*
X1131343Y1837361D1*
X1133968Y1837886D1*
X1136593D1*
X1139217Y1837361D1*
X1141317Y1836836D1*
X1142892Y1836311D1*
X1146042Y1834736D1*
X1149716Y1831062D1*
Y1830537D1*
X1150766Y1828962D1*
X1151291Y1827912D1*
X1152341Y1824763D1*
X1152866Y1822663D1*
X1153391Y1822138D1*
Y1811114D1*
X1152866Y1810589D1*
X1152341Y1807965D1*
X1151816Y1806390D1*
Y1805865D1*
X1149366Y1805340D1*
X1146916D1*
X1144467Y1805865D1*
Y1806915D1*
X1136068D1*
X1134493Y1806390D1*
X1132918D1*
X1131343Y1806915D1*
X1130294Y1807440D1*
X1128719Y1809015D1*
Y1809540D1*
X1128194Y1811114D1*
X1127669Y1814264D1*
X1127144Y1814789D1*
Y1817414D1*
X1127669Y1817938D1*
X1128194Y1821088D1*
X1128719Y1822663D1*
Y1823188D1*
X1130294Y1824763D1*
X1132393Y1825812D1*
X1134143Y1826337D1*
X1135893D1*
X1137643Y1825812D1*
X1139217Y1825288D1*
X1140267Y1824763D1*
X1140792Y1824238D1*
Y1809540D1*
X1139742Y1809015D1*
X1138168Y1807965D1*
X1136068Y1806915D1*
X1144467D1*
G37*
G36*
X1228456Y1839986D2*
Y1835261D1*
X1234231D1*
Y1839986D1*
X1228456D1*
G37*
G36*
X1301422Y1825812D2*
X1300897Y1825288D1*
X1299847Y1823713D1*
X1299322Y1822663D1*
X1298797Y1821088D1*
X1298273Y1818988D1*
Y1809015D1*
X1298797Y1806915D1*
X1299322Y1805865D1*
X1299847Y1804290D1*
X1300897Y1802715D1*
X1304047Y1799566D1*
X1305622Y1798516D1*
X1307196Y1797991D1*
X1309296Y1797466D1*
X1314546D1*
X1316645Y1797991D1*
X1319795Y1799566D1*
X1322944Y1802715D1*
X1324519Y1805865D1*
X1325044Y1807440D1*
X1325569Y1809540D1*
Y1818463D1*
X1325044Y1820563D1*
X1324519Y1822138D1*
X1323469Y1824238D1*
X1322420Y1825812D1*
X1319795Y1828437D1*
X1316645Y1830012D1*
X1314546Y1830537D1*
X1309296D1*
X1307196Y1830012D1*
X1304047Y1828437D1*
X1301422Y1825812D1*
X1309296D1*
X1311046Y1826337D1*
X1312796D1*
X1314546Y1825812D1*
X1316120Y1825288D1*
X1316645Y1824763D1*
X1317695Y1824238D1*
X1318118Y1823560D1*
X1318220Y1823188D1*
X1319270Y1821613D1*
X1319795Y1820038D1*
X1320320Y1817938D1*
X1320845Y1817414D1*
Y1810589D1*
X1320320Y1810064D1*
X1319795Y1807965D1*
X1319270Y1806390D1*
X1318220Y1804815D1*
X1318048Y1804178D1*
X1317695Y1803765D1*
X1316645Y1803240D1*
X1316120Y1802715D1*
X1314546Y1802190D1*
X1312796Y1801666D1*
X1311046D1*
X1309296Y1802190D1*
X1307721Y1802715D1*
X1306672Y1803240D1*
X1305097Y1804815D1*
Y1805340D1*
X1304047Y1807440D1*
X1303522Y1809540D1*
X1302997Y1810064D1*
Y1818463D1*
X1303522Y1818988D1*
X1304047Y1820563D1*
X1305097Y1822663D1*
Y1823188D1*
X1306672Y1824763D1*
X1307721Y1825288D1*
X1309296Y1825812D1*
X1301422D1*
G37*
G36*
X1332918D2*
X1332393Y1825288D1*
X1330294Y1821088D1*
X1329769Y1818988D1*
Y1809015D1*
X1330294Y1806915D1*
X1331868Y1803765D1*
X1335018Y1800616D1*
X1337118Y1799566D1*
X1338692Y1799041D1*
X1343942D1*
X1345517Y1799566D1*
X1348666Y1801141D1*
X1349716Y1802190D1*
X1350108Y1802528D1*
X1350380Y1802497D1*
X1350766Y1802190D1*
Y1796941D1*
X1350241Y1796416D1*
X1349716Y1794841D1*
X1349191Y1793791D1*
X1349019Y1793155D1*
X1348666Y1792742D1*
X1346567Y1791692D1*
X1344992Y1791167D1*
X1342892Y1790642D1*
X1340792D1*
X1338692Y1791167D1*
X1332918Y1792742D1*
X1332393D1*
Y1788017D1*
X1332918Y1787492D1*
X1335018Y1786967D1*
X1337643Y1786442D1*
X1344467D1*
X1347091Y1786967D1*
X1348666Y1787492D1*
X1349716Y1788017D1*
X1351816Y1789592D1*
X1352341Y1790117D1*
X1353391Y1791692D1*
X1354441Y1793791D1*
X1354965Y1795366D1*
X1355490Y1798516D1*
Y1829487D1*
X1350766D1*
X1350575Y1828842D1*
X1350016Y1828394D1*
X1349541Y1828478D1*
X1349191Y1828962D1*
X1347091Y1830012D1*
X1344992Y1830537D1*
X1340267D1*
X1338692Y1830012D1*
X1335543Y1828437D1*
X1332918Y1825812D1*
X1340792D1*
X1342717Y1826337D1*
X1344642D1*
X1346567Y1825812D1*
X1349716Y1824763D1*
X1350766Y1824238D1*
Y1806915D1*
X1349716Y1805865D1*
X1346567Y1804290D1*
X1344992Y1803765D1*
X1343242Y1803240D1*
X1341492D1*
X1339742Y1803765D1*
X1338168Y1804290D1*
X1335543Y1806915D1*
Y1807965D1*
X1335018Y1809540D1*
X1334493Y1810064D1*
Y1818463D1*
X1335018Y1818988D1*
X1335543Y1820563D1*
X1336593Y1822663D1*
Y1823188D1*
X1337643Y1824238D1*
X1340792Y1825812D1*
X1332918D1*
G37*
G36*
X1196435Y1829487D2*
Y1806915D1*
X1196960Y1804290D1*
X1197485Y1802715D1*
X1198010Y1801666D1*
X1201160Y1798516D1*
X1202210Y1797991D1*
X1203784Y1797466D1*
X1207984D1*
X1210084Y1797991D1*
X1212183Y1799041D1*
X1214283Y1800616D1*
X1214808Y1801141D1*
X1215200Y1801478D1*
X1215472Y1801447D1*
X1215858Y1801141D1*
Y1798516D1*
X1220582D1*
Y1829487D1*
X1215858D1*
Y1805865D1*
X1214808Y1805340D1*
X1214283Y1804815D1*
X1210084Y1802715D1*
X1208334Y1802190D1*
X1206584D1*
X1204834Y1802715D1*
X1203784Y1803240D1*
X1202210Y1804815D1*
Y1805340D1*
X1201685Y1807440D1*
X1201160Y1829487D1*
X1196435D1*
G37*
G36*
X1228981D2*
Y1798516D1*
X1233706D1*
Y1829487D1*
X1228981D1*
G37*
X854569Y938311D2*
D57*
X856946Y931126D1*
X864131Y926318D1*
X876069Y923941D1*
X883254D1*
X895192Y926318D1*
X902377Y931126D1*
X904754Y938311D1*
Y943064D1*
X902377Y950249D1*
X895192Y955003D1*
X883254Y957435D1*
X876069D1*
X864131Y955003D1*
X856946Y950249D1*
X854569Y943064D1*
Y938311D1*
X864131Y955003D2*
X895192Y926318D1*
X879661Y972874D2*
Y1000509D1*
X864131Y1015948D2*
X861699Y1020756D1*
X854569Y1027941D1*
X904754D1*
X854569Y1057751D2*
X856946Y1050566D1*
X864131Y1045757D1*
X876069Y1043381D1*
X883254D1*
X895192Y1045757D1*
X902377Y1050566D1*
X904754Y1057751D1*
Y1062504D1*
X902377Y1069689D1*
X895192Y1074442D1*
X883254Y1076874D1*
X876069D1*
X864131Y1074442D1*
X856946Y1069689D1*
X854569Y1062504D1*
Y1057751D1*
X864131Y1074442D2*
X895192Y1045757D1*
X854514Y1092313D2*
X904754Y1111436D1*
X854514Y1130560D1*
X735201Y966062D2*
X730448Y963685D1*
X725640Y958877D1*
X723263Y954124D1*
Y944562D1*
X725640Y939753D1*
X730448Y935000D1*
X735201Y932568D1*
X742386Y930192D1*
X754380D1*
X761510Y932568D1*
X766318Y935000D1*
X771071Y939753D1*
X773503Y944562D1*
Y954124D1*
X771071Y958877D1*
X766318Y963685D1*
X761510Y966062D1*
X754380D1*
Y954124D1*
X740010Y981501D2*
X773503D1*
X749571D2*
X742386Y988686D1*
X740010Y993494D1*
Y1000624D1*
X742386Y1005433D1*
X749571Y1007809D1*
X773503D1*
X723263Y1051933D2*
X773503D1*
X747195D2*
X742386Y1047180D1*
X740010Y1042372D1*
Y1035187D1*
X742386Y1030434D1*
X747195Y1025625D1*
X754380Y1023249D1*
X759133D1*
X766318Y1025625D1*
X771071Y1030434D1*
X773503Y1035187D1*
Y1042372D1*
X771071Y1047180D1*
X766318Y1051933D1*
X1560673Y1848461D2*
D56*
X1556870Y1846560D1*
X1553023Y1842713D1*
X1551122Y1838910D1*
Y1831261D1*
X1553023Y1827414D1*
X1556870Y1823612D1*
X1560673Y1821666D1*
X1566421Y1819765D1*
X1576015D1*
X1581719Y1821666D1*
X1585566Y1823612D1*
X1589369Y1827414D1*
X1591314Y1831261D1*
Y1838910D1*
X1589369Y1842713D1*
X1585566Y1846560D1*
X1581719Y1848461D1*
X1576015D1*
Y1838910D1*
X1564519Y1860812D2*
X1591314D1*
X1572169D2*
X1566421Y1866560D1*
X1564519Y1870407D1*
Y1876111D1*
X1566421Y1879958D1*
X1572169Y1881859D1*
X1591314D1*
X1551122Y1917158D2*
X1591314D1*
X1570267D2*
X1566421Y1913356D1*
X1564519Y1909509D1*
Y1903761D1*
X1566421Y1899958D1*
X1570267Y1896112D1*
X1576015Y1894210D1*
X1579818D1*
X1585566Y1896112D1*
X1589369Y1899958D1*
X1591314Y1903761D1*
Y1909509D1*
X1589369Y1913356D1*
X1585566Y1917158D1*
X458163Y1848461D2*
X454361Y1846560D1*
X450514Y1842713D1*
X448613Y1838910D1*
Y1831261D1*
X450514Y1827414D1*
X454361Y1823612D1*
X458163Y1821666D1*
X463911Y1819765D1*
X473506D1*
X479210Y1821666D1*
X483057Y1823612D1*
X486859Y1827414D1*
X488805Y1831261D1*
Y1838910D1*
X486859Y1842713D1*
X483057Y1846560D1*
X479210Y1848461D1*
X473506D1*
Y1838910D1*
X462010Y1860812D2*
X488805D1*
X469660D2*
X463911Y1866560D1*
X462010Y1870407D1*
Y1876111D1*
X463911Y1879958D1*
X469660Y1881859D1*
X488805D1*
X448613Y1917158D2*
X488805D1*
X467758D2*
X463911Y1913356D1*
X462010Y1909509D1*
Y1903761D1*
X463911Y1899958D1*
X467758Y1896112D1*
X473506Y1894210D1*
X477309D1*
X483057Y1896112D1*
X486859Y1899958D1*
X488805Y1903761D1*
Y1909509D1*
X486859Y1913356D1*
X483057Y1917158D1*
X772169Y1884273D2*
Y1901517D1*
X770267Y1907221D1*
X768322Y1909166D1*
X764519Y1911068D1*
X758771D1*
X754969Y1909166D1*
X753023Y1907221D1*
X751122Y1901517D1*
Y1884273D1*
X791314D1*
X544873Y1840811D2*
X585065Y1856110D1*
X544873Y1871408D1*
Y1883760D2*
X585065D1*
X558270Y1896111D2*
X585065D1*
X565919D2*
X560171Y1901859D1*
X558270Y1905706D1*
Y1911410D1*
X560171Y1915256D1*
X565919Y1917158D1*
X585065D1*
X644917Y1870363D2*
Y1851261D1*
X662117Y1849360D1*
X660216Y1851261D1*
X658270Y1857009D1*
Y1862713D1*
X660216Y1868461D1*
X664018Y1872308D1*
X669766Y1874209D1*
X673569D1*
X679317Y1872308D1*
X683163Y1868461D1*
X685065Y1862713D1*
Y1857009D1*
X683163Y1851261D1*
X681218Y1849360D1*
X677415Y1847415D1*
X644873Y1886561D2*
X685065Y1901859D1*
X644873Y1917158D1*
X966968Y1888313D2*
X965066D1*
X961219Y1890214D1*
X959318Y1892115D1*
X957417Y1895962D1*
Y1903611D1*
X959318Y1907414D1*
X961219Y1909315D1*
X965066Y1911261D1*
X968869D1*
X972716Y1909315D1*
X978419Y1905513D1*
X997565Y1886367D1*
Y1913162D1*
X865066Y1891067D2*
X863121Y1894914D1*
X857417Y1900662D1*
X897565D1*
X1138622Y940916D2*
X1140523Y937069D1*
X1144370Y933267D1*
X1148173Y931321D1*
X1153921Y929420D1*
X1163515D1*
X1169219Y931321D1*
X1173066Y933267D1*
X1176869Y937069D1*
X1178814Y940916D1*
Y948565D1*
X1176869Y952368D1*
X1173066Y956215D1*
X1169219Y958116D1*
X1163515Y960017D1*
X1153921D1*
X1148173Y958116D1*
X1144370Y956215D1*
X1140523Y952368D1*
X1138622Y948565D1*
Y940916D1*
X1152019Y972368D2*
X1171165D1*
X1176869Y974270D1*
X1178814Y978117D1*
Y983865D1*
X1176869Y987667D1*
X1171165Y993415D1*
X1152019D2*
X1178814D1*
X1138622Y1011515D2*
X1171165D1*
X1176869Y1013416D1*
X1178814Y1017263D1*
Y1021065D1*
X1152019Y1005767D2*
Y1019164D1*
X1146316Y1033417D2*
X1144370Y1037263D1*
X1138666Y1043011D1*
X1178814D1*
X1276122Y940916D2*
X1278023Y937069D1*
X1281870Y933267D1*
X1285673Y931321D1*
X1291421Y929420D1*
X1301015D1*
X1306719Y931321D1*
X1310566Y933267D1*
X1314369Y937069D1*
X1316314Y940916D1*
Y948565D1*
X1314369Y952368D1*
X1310566Y956215D1*
X1306719Y958116D1*
X1301015Y960017D1*
X1291421D1*
X1285673Y958116D1*
X1281870Y956215D1*
X1278023Y952368D1*
X1276122Y948565D1*
Y940916D1*
X1289519Y972368D2*
X1308665D1*
X1314369Y974270D1*
X1316314Y978117D1*
Y983865D1*
X1314369Y987667D1*
X1308665Y993415D1*
X1289519D2*
X1316314D1*
X1276122Y1011515D2*
X1308665D1*
X1314369Y1013416D1*
X1316314Y1017263D1*
Y1021065D1*
X1289519Y1005767D2*
Y1019164D1*
X1285717Y1035362D2*
X1283816D1*
X1279969Y1037263D1*
X1278068Y1039165D1*
X1276166Y1043011D1*
Y1050661D1*
X1278068Y1054463D1*
X1279969Y1056364D1*
X1283816Y1058310D1*
X1287618D1*
X1291465Y1056364D1*
X1297169Y1052562D1*
X1316314Y1033417D1*
Y1060211D1*
X1023173Y958116D2*
X1019370Y956215D1*
X1015523Y952368D1*
X1013622Y948565D1*
Y940916D1*
X1015523Y937069D1*
X1019370Y933267D1*
X1023173Y931321D1*
X1028921Y929420D1*
X1038515D1*
X1044219Y931321D1*
X1048066Y933267D1*
X1051869Y937069D1*
X1053814Y940916D1*
Y948565D1*
X1051869Y952368D1*
X1048066Y956215D1*
X1044219Y958116D1*
X1027019Y980018D2*
X1028921Y976215D1*
X1032767Y972368D1*
X1038515Y970467D1*
X1042318D1*
X1048066Y972368D1*
X1051869Y976215D1*
X1053814Y980018D1*
Y985766D1*
X1051869Y989613D1*
X1048066Y993415D1*
X1042318Y995361D1*
X1038515D1*
X1032767Y993415D1*
X1028921Y989613D1*
X1027019Y985766D1*
Y980018D1*
Y1007712D2*
X1053814D1*
X1034669D2*
X1028921Y1013460D1*
X1027019Y1017307D1*
Y1023011D1*
X1028921Y1026857D1*
X1034669Y1028759D1*
X1053814D1*
X1034669D2*
X1028921Y1034507D1*
X1027019Y1038353D1*
Y1044057D1*
X1028921Y1047904D1*
X1034669Y1049849D1*
X1053814D1*
X946695Y1420641D2*
X942893Y1418740D1*
X939046Y1414893D1*
X937145Y1411091D1*
Y1403441D1*
X939046Y1399595D1*
X942893Y1395792D1*
X946695Y1393847D1*
X952443Y1391945D1*
X962038D1*
X967742Y1393847D1*
X971589Y1395792D1*
X975391Y1399595D1*
X977337Y1403441D1*
Y1411091D1*
X975391Y1414893D1*
X971589Y1418740D1*
X967742Y1420641D1*
X944838Y1432993D2*
X942893Y1436839D1*
X937189Y1442587D1*
X977337D1*
X1202677Y1460422D2*
X1200776Y1464268D1*
X1196929Y1468071D1*
X1193126Y1470016D1*
X1187378Y1471918D1*
X1177783D1*
X1172080Y1470016D1*
X1168233Y1468071D1*
X1164430Y1464268D1*
X1162485Y1460422D1*
Y1452772D1*
X1164430Y1448970D1*
X1168233Y1445123D1*
X1172080Y1443222D1*
X1177783Y1441321D1*
X1187378D1*
X1193126Y1443222D1*
X1196929Y1445123D1*
X1200776Y1448970D1*
X1202677Y1452772D1*
Y1460422D1*
X1181630Y1428969D2*
Y1411725D1*
X1183532Y1406021D1*
X1185477Y1404076D1*
X1189280Y1402174D1*
X1195028D1*
X1198830Y1404076D1*
X1200776Y1406021D1*
X1202677Y1411725D1*
Y1428969D1*
X1162485D1*
X1202677Y1376426D2*
X1162485D1*
X1202677Y1389823D2*
Y1363028D1*
X1194983Y1350677D2*
X1196929Y1346830D1*
X1202633Y1341082D1*
X1162485D1*
X1300461Y1720916D2*
Y1703716D1*
X1302406Y1697968D1*
X1304307Y1696023D1*
X1308110Y1694121D1*
X1311957D1*
X1315759Y1696023D1*
X1317705Y1697968D1*
X1319606Y1703716D1*
Y1720916D1*
X1279414D1*
X1300461Y1707519D2*
X1279414Y1694121D1*
X1311913Y1681770D2*
X1313858Y1677923D1*
X1319562Y1672175D1*
X1279414D1*
X1310011Y1657878D2*
X1311913D1*
X1315759Y1655977D1*
X1317661Y1654076D1*
X1319562Y1650229D1*
Y1642580D1*
X1317661Y1638777D1*
X1315759Y1636876D1*
X1311913Y1634930D1*
X1308110D1*
X1304263Y1636876D1*
X1298559Y1640678D1*
X1279414Y1659824D1*
Y1633029D1*
X649694Y1527204D2*
Y1544404D1*
X647749Y1550152D1*
X645847Y1552097D1*
X642045Y1553998D1*
X638198D1*
X634396Y1552097D1*
X632450Y1550152D1*
X630549Y1544404D1*
Y1527204D1*
X670741D1*
X649694Y1540601D2*
X670741Y1553998D1*
Y1585495D2*
X630593D1*
X657344Y1566350D1*
Y1595046D1*
X468790Y1048628D2*
Y1065828D1*
X466845Y1071576D1*
X464943Y1073521D1*
X461141Y1075423D1*
X457294D1*
X453491Y1073521D1*
X451546Y1071576D1*
X449645Y1065828D1*
Y1048628D1*
X489837D1*
X468790Y1062025D2*
X489837Y1075423D1*
X449689Y1110722D2*
Y1091621D1*
X466889Y1089720D1*
X464987Y1091621D1*
X463042Y1097369D1*
Y1103073D1*
X464987Y1108821D1*
X468790Y1112668D1*
X474538Y1114569D1*
X478341D1*
X484089Y1112668D1*
X487935Y1108821D1*
X489837Y1103073D1*
Y1097369D1*
X487935Y1091621D1*
X485990Y1089720D1*
X482187Y1087774D1*
X631289Y1123431D2*
Y1140631D1*
X629343Y1146379D1*
X627442Y1148325D1*
X623639Y1150226D1*
X619793D1*
X615990Y1148325D1*
X614045Y1146379D1*
X612143Y1140631D1*
Y1123431D1*
X652335D1*
X631289Y1136829D2*
X652335Y1150226D1*
X612188Y1166424D2*
Y1187426D1*
X627486Y1175975D1*
Y1181723D1*
X629387Y1185525D1*
X631289Y1187426D1*
X637037Y1189372D1*
X640839D1*
X646587Y1187426D1*
X650434Y1183624D1*
X652335Y1177876D1*
Y1172128D1*
X650434Y1166424D1*
X648489Y1164523D1*
X644686Y1162577D1*
X541772Y1583951D2*
Y1601151D1*
X539826Y1606899D1*
X537925Y1608844D1*
X534122Y1610746D1*
X530276D1*
X526473Y1608844D1*
X524528Y1606899D1*
X522626Y1601151D1*
Y1583951D1*
X562818D1*
X541772Y1597348D2*
X562818Y1610746D1*
X530320Y1623097D2*
X528374Y1626944D1*
X522670Y1632692D1*
X562818D1*
X757130Y1373298D2*
Y1344602D1*
X759031Y1338854D1*
X762878Y1335051D1*
X768626Y1333106D1*
X772428D1*
X778176Y1335051D1*
X782023Y1338854D1*
X783924Y1344602D1*
Y1373298D1*
X796276Y1365604D2*
X800122Y1367550D1*
X805870Y1373253D1*
Y1333106D1*
X527945Y1405792D2*
X524142Y1403891D1*
X520295Y1400044D1*
X518394Y1396241D1*
Y1388592D1*
X520295Y1384745D1*
X524142Y1380943D1*
X527945Y1378997D1*
X533693Y1377096D1*
X543287D1*
X548991Y1378997D1*
X552838Y1380943D1*
X556640Y1384745D1*
X558586Y1388592D1*
Y1396241D1*
X556640Y1400044D1*
X552838Y1403891D1*
X548991Y1405792D1*
X527989Y1420089D2*
X526087D1*
X522241Y1421990D1*
X520339Y1423891D1*
X518438Y1427738D1*
Y1435387D1*
X520339Y1439190D1*
X522241Y1441091D1*
X526087Y1443037D1*
X529890D1*
X533737Y1441091D1*
X539441Y1437289D1*
X558586Y1418143D1*
Y1444938D1*
X511030Y651445D2*
X528230D1*
X533978Y653390D1*
X535923Y655292D1*
X537824Y659094D1*
Y662941D1*
X535923Y666744D1*
X533978Y668689D1*
X528230Y670590D1*
X511030D1*
Y630398D1*
X524427Y651445D2*
X537824Y630398D1*
X552121Y660995D2*
Y662897D1*
X554022Y666744D1*
X555924Y668645D1*
X559770Y670546D1*
X567420D1*
X571222Y668645D1*
X573124Y666744D1*
X575069Y662897D1*
Y659094D1*
X573124Y655247D1*
X569321Y649544D1*
X550176Y630398D1*
X576970D1*
X1430334Y1469022D2*
X1428433Y1472868D1*
X1424586Y1476671D1*
X1420784Y1478616D1*
X1415036Y1480518D1*
X1405441D1*
X1399737Y1478616D1*
X1395890Y1476671D1*
X1392088Y1472868D1*
X1390142Y1469022D1*
Y1461372D1*
X1392088Y1457570D1*
X1395890Y1453723D1*
X1399737Y1451822D1*
X1405441Y1449920D1*
X1415036D1*
X1420784Y1451822D1*
X1424586Y1453723D1*
X1428433Y1457570D1*
X1430334Y1461372D1*
Y1469022D1*
X1409288Y1437569D2*
Y1420325D1*
X1411189Y1414621D1*
X1413134Y1412676D1*
X1416937Y1410774D1*
X1422685D1*
X1426488Y1412676D1*
X1428433Y1414621D1*
X1430334Y1420325D1*
Y1437569D1*
X1390142D1*
X1430334Y1385026D2*
X1390142D1*
X1430334Y1398423D2*
Y1371628D1*
X1420740Y1357331D2*
X1422641D1*
X1426488Y1355430D1*
X1428389Y1353529D1*
X1430290Y1349682D1*
Y1342033D1*
X1428389Y1338230D1*
X1426488Y1336329D1*
X1422641Y1334384D1*
X1418838D1*
X1414992Y1336329D1*
X1409288Y1340132D1*
X1390142Y1359277D1*
Y1332482D1*
X1537961Y1708970D2*
Y1691770D1*
X1539906Y1686022D1*
X1541807Y1684077D1*
X1545610Y1682175D1*
X1549457D1*
X1553259Y1684077D1*
X1555205Y1686022D1*
X1557106Y1691770D1*
Y1708970D1*
X1516914D1*
X1537961Y1695573D2*
X1516914Y1682175D1*
X1551358Y1646876D2*
X1555161Y1648777D1*
X1557062Y1654525D1*
Y1658328D1*
X1555161Y1664076D1*
X1549413Y1667923D1*
X1539862Y1669824D1*
X1530311D1*
X1522662Y1667923D1*
X1518815Y1664076D1*
X1516914Y1658328D1*
Y1656427D1*
X1518815Y1650723D1*
X1522662Y1646876D1*
X1528410Y1644975D1*
X1530311D1*
X1536059Y1646876D1*
X1539862Y1650723D1*
X1541763Y1656427D1*
Y1658328D1*
X1539862Y1664076D1*
X1536059Y1667923D1*
X1530311Y1669824D1*
X838701Y1827725D2*
X798509D1*
Y1804777D1*
X838701Y1767577D2*
Y1792426D1*
X798509D1*
Y1767577D1*
X819555Y1792426D2*
Y1777127D1*
X838701Y1755225D2*
X798509D1*
Y1741828D1*
X800454Y1736080D1*
X804257Y1732233D1*
X808103Y1730332D1*
X813807Y1728431D1*
X823402D1*
X829150Y1730332D1*
X832952Y1732233D1*
X836799Y1736080D1*
X838701Y1741828D1*
Y1755225D1*
X831007Y1716079D2*
X832952Y1712233D1*
X838656Y1706485D1*
X798509D1*
X825461Y1662943D2*
Y1645744D1*
X827406Y1639996D1*
X829307Y1638050D1*
X833110Y1636149D1*
X836957D1*
X840759Y1638050D1*
X842705Y1639996D1*
X844606Y1645744D1*
Y1662943D1*
X804414D1*
X825461Y1649546D2*
X804414Y1636149D1*
X836913Y1623797D2*
X838858Y1619951D1*
X844562Y1614203D1*
X804414D1*
X844562Y1590355D2*
X842661Y1596103D1*
X836913Y1599950D1*
X827362Y1601851D1*
X821614D1*
X812063Y1599950D1*
X806315Y1596103D1*
X804414Y1590355D1*
Y1586553D1*
X806315Y1580805D1*
X812063Y1577002D1*
X821614Y1575057D1*
X827362D1*
X836913Y1577002D1*
X842661Y1580805D1*
X844562Y1586553D1*
Y1590355D1*
X836913Y1577002D2*
X812063Y1599950D1*
X944951Y1830076D2*
X904759D1*
Y1807128D1*
X944951Y1769927D2*
Y1794777D1*
X904759D1*
Y1769927D1*
X925806Y1794777D2*
Y1779478D1*
X944951Y1757576D2*
X904759D1*
Y1744179D1*
X906705Y1738431D1*
X910507Y1734584D1*
X914354Y1732683D1*
X920058Y1730781D1*
X929653D1*
X935401Y1732683D1*
X939203Y1734584D1*
X943050Y1738431D1*
X944951Y1744179D1*
Y1757576D1*
X935356Y1716485D2*
X937258D1*
X941104Y1714583D1*
X943006Y1712682D1*
X944907Y1708835D1*
Y1701186D1*
X943006Y1697383D1*
X941104Y1695482D1*
X937258Y1693537D1*
X933455D1*
X929608Y1695482D1*
X923905Y1699285D1*
X904759Y1718430D1*
Y1691635D1*
X931711Y1651970D2*
Y1634770D1*
X933657Y1629022D1*
X935558Y1627077D1*
X939361Y1625176D1*
X943207D1*
X947010Y1627077D1*
X948955Y1629022D1*
X950857Y1634770D1*
Y1651970D1*
X910665D1*
X931711Y1638573D2*
X910665Y1625176D1*
Y1605175D2*
X950812Y1586030D1*
Y1612824D1*
X1057451Y1830075D2*
X1017259D1*
Y1807127D1*
X1057451Y1769926D2*
Y1794775D1*
X1017259D1*
Y1769926D1*
X1038306Y1794775D2*
Y1779477D1*
X1057451Y1757575D2*
X1017259D1*
Y1744177D1*
X1019205Y1738429D1*
X1023007Y1734583D1*
X1026854Y1732681D1*
X1032558Y1730780D1*
X1042153D1*
X1047901Y1732681D1*
X1051703Y1734583D1*
X1055550Y1738429D1*
X1057451Y1744177D1*
Y1757575D1*
X1057407Y1714582D2*
Y1693580D1*
X1042108Y1705031D1*
Y1699283D1*
X1040207Y1695481D1*
X1038306Y1693580D1*
X1032558Y1691634D1*
X1028755D1*
X1023007Y1693580D1*
X1019160Y1697382D1*
X1017259Y1703130D1*
Y1708878D1*
X1019160Y1714582D1*
X1021106Y1716483D1*
X1024908Y1718429D1*
X1037961Y1658199D2*
Y1640999D1*
X1039906Y1635251D1*
X1041807Y1633306D1*
X1045610Y1631404D1*
X1049457D1*
X1053259Y1633306D1*
X1055205Y1635251D1*
X1057106Y1640999D1*
Y1658199D1*
X1016914D1*
X1037961Y1644802D2*
X1016914Y1631404D1*
X1057062Y1609502D2*
X1055161Y1615206D1*
X1051358Y1617152D1*
X1047511D1*
X1043709Y1615206D1*
X1041763Y1611404D1*
X1039862Y1603754D1*
X1037961Y1598006D1*
X1034114Y1594204D1*
X1030311Y1592302D1*
X1024563D1*
X1020761Y1594204D1*
X1018815Y1596105D1*
X1016914Y1601853D1*
Y1609502D1*
X1018815Y1615206D1*
X1020761Y1617152D1*
X1024563Y1619053D1*
X1030311D1*
X1034114Y1617152D1*
X1037961Y1613305D1*
X1039862Y1607601D1*
X1041763Y1599952D1*
X1043709Y1596105D1*
X1047511Y1594204D1*
X1051358D1*
X1055161Y1596105D1*
X1057062Y1601853D1*
Y1609502D1*
M02*
