M48
INCH
T01C0.013
T02C0.0191
T03C0.0354
T04C0.0394
T05C0.0433
T06C0.0472
T07C0.063
T08C0.14
%
T01
X+051597Y+036244
X+051857Y+036244
X+052117Y+036244
X+052117Y+035854
X+051857Y+035854
X+051597Y+035854
X+051597Y+035464
X+051857Y+035464
X+052117Y+035464
X+054072Y+039367
X+054072Y+039757
T02
X+022437Y+034187
X+020437Y+034812
X+019437Y+034812
X+018437Y+034812
X+017437Y+034812
X+016437Y+034812
X+015437Y+034812
X+014437Y+034812
X+013812Y+033187
X+014437Y+033062
X+014812Y+032375
X+015437Y+033062
X+016437Y+033062
X+017437Y+033062
X+018437Y+033062
X+019437Y+033062
X+020437Y+033062
X+019937Y+031687
X+020437Y+029937
X+023812Y+031062
X+024374Y+031375
X+024312Y+031937
X+025687Y+032312
X+025937Y+030187
X+027187Y+029937
X+027812Y+032687
X+027812Y+033312
X+028312Y+035062
X+030187Y+034562
X+031134Y+029937
X+032134Y+029999
X+032624Y+030437
X+034187Y+027937
X+033062Y+025062
X+032312Y+024687
X+031312Y+024187
X+031187Y+023062
X+030062Y+022562
X+030062Y+022062
X+030562Y+021687
X+028187Y+022312
X+027687Y+022687
X+028312Y+023062
X+026437Y+023812
X+025937Y+023812
X+025437Y+023812
X+024562Y+025187
X+025812Y+025812
X+027187Y+026874
X+030562Y+025812
X+031062Y+025437
X+033437Y+023812
X+033937Y+023812
X+034437Y+023812
X+032687Y+023062
X+033062Y+021562
X+033437Y+019812
X+033437Y+019312
X+033437Y+018812
X+034437Y+018812
X+034437Y+019312
X+034437Y+019812
X+037062Y+022687
X+037437Y+022312
X+037937Y+021937
X+036687Y+023062
X+040437Y+023812
X+040937Y+023812
X+041437Y+023812
X+042687Y+022687
X+043312Y+023062
X+043312Y+022312
X+045062Y+022562
X+045187Y+022062
X+045562Y+021687
X+046187Y+023062
X+046187Y+024187
X+047312Y+024562
X+046687Y+025437
X+045375Y+026312
X+048062Y+027062
X+048812Y+026249
X+048937Y+023812
X+048437Y+023812
X+049437Y+023812
X+047437Y+023062
X+048437Y+019812
X+048437Y+019312
X+048437Y+018812
X+049437Y+018812
X+049437Y+019312
X+049437Y+019812
X+053543Y+016732
X+053543Y+016339
X+054134Y+016339
X+054134Y+016732
X+054724Y+016732
X+054724Y+016339
X+055315Y+016339
X+055315Y+016732
X+055906Y+016732
X+055906Y+016339
X+051749Y+011437
X+041437Y+018812
X+041437Y+019312
X+041437Y+019812
X+040437Y+019812
X+040437Y+019312
X+040437Y+018812
X+039437Y+026499
X+040437Y+031375
X+041312Y+032187
X+042370Y+032562
X+043370Y+031312
X+047437Y+033562
X+050817Y+033254
X+051210Y+029812
X+049522Y+040797
X+034187Y+040058
X+020812Y+041687
X+018937Y+040937
X+016937Y+041312
X+014312Y+040062
X+012812Y+039812
X+011812Y+039562
X+010937Y+039312
X+009937Y+039062
X+008937Y+038812
X+007937Y+038437
X+007120Y+039370
X+008437Y+040937
X+009812Y+041312
X+012312Y+035937
X+011312Y+034062
X+011812Y+033687
X+009794Y+033169
X+009437Y+032687
X+009821Y+032303
X+009437Y+031812
X+008312Y+033562
X+009660Y+034035
X+008062Y+035437
X+005437Y+035437
X+007437Y+031187
X+008062Y+029437
X+008437Y+028562
X+010437Y+029312
X+011312Y+029687
X+011437Y+028937
X+012437Y+030312
X+012812Y+030687
X+012312Y+031187
X+013437Y+031812
X+015437Y+029437
X+015437Y+026375
X+015937Y+025812
X+014937Y+025562
X+013874Y+025937
X+012375Y+024687
X+011437Y+023812
X+010937Y+023812
X+010437Y+023812
X+009812Y+025562
X+009187Y+025937
X+008875Y+026375
X+005937Y+023062
X+006312Y+022562
X+007062Y+022062
X+007937Y+021687
X+010437Y+019812
X+010437Y+019312
X+010437Y+018812
X+011437Y+018812
X+011437Y+019312
X+011437Y+019812
X+013187Y+022062
X+012687Y+022562
X+013312Y+023062
X+015437Y+022562
X+016062Y+023062
X+016062Y+024187
X+016937Y+025187
X+017499Y+024374
X+018562Y+023812
X+018937Y+023812
X+019312Y+023812
X+019937Y+024812
X+020562Y+024562
X+021437Y+024312
X+021687Y+023062
X+022062Y+022687
X+022437Y+022312
X+022937Y+021937
X+023437Y+024312
X+021937Y+026437
X+020937Y+026187
X+018937Y+025187
X+017562Y+023062
X+017937Y+021562
X+018437Y+019812
X+018437Y+019312
X+018437Y+018812
X+019437Y+018812
X+019437Y+019312
X+019437Y+019812
X+015437Y+021687
X+025437Y+019812
X+025437Y+019312
X+025437Y+018812
X+026437Y+018812
X+026437Y+019312
X+026437Y+019812
X+019937Y+036562
X+017937Y+036437
X+005312Y+029437
T03
X+004437Y+037937
X+005437Y+037937
X+005437Y+036937
X+004437Y+036937
X+006437Y+036937
X+006437Y+037937
X+007437Y+037937
X+008437Y+037937
X+008437Y+036937
X+007437Y+036937
X+009437Y+036937
X+009437Y+037937
X+010437Y+037937
X+011437Y+037937
X+011437Y+036937
X+010437Y+036937
X+012437Y+036937
X+012437Y+037937
X+013437Y+037937
X+014437Y+037937
X+014437Y+036937
X+013437Y+036937
X+015437Y+036937
X+015437Y+037937
X+016437Y+037937
X+017437Y+037937
X+017437Y+036937
X+016437Y+036937
X+018437Y+036937
X+018437Y+037937
X+019437Y+037937
X+020437Y+037937
X+020437Y+036937
X+019437Y+036937
X+021437Y+036937
X+021437Y+037937
X+022437Y+037937
X+022437Y+036937
X+020437Y+032216
X+020437Y+031216
X+019437Y+031216
X+018437Y+031216
X+017437Y+031216
X+016437Y+031216
X+016437Y+032216
X+017437Y+032216
X+018437Y+032216
X+019437Y+032216
X+015437Y+032216
X+015437Y+031216
X+015437Y+027937
X+016437Y+027937
X+017437Y+027937
X+017437Y+026937
X+016437Y+026937
X+015437Y+026937
X+014437Y+026937
X+013437Y+026937
X+012437Y+026937
X+011437Y+026937
X+010437Y+026937
X+009437Y+026937
X+009437Y+027937
X+010437Y+027937
X+011437Y+027937
X+012437Y+027937
X+013437Y+027937
X+014437Y+027937
X+018437Y+027937
X+019437Y+027937
X+020437Y+027937
X+020437Y+026937
X+019437Y+026937
X+018437Y+026937
X+021437Y+026937
X+022437Y+026937
X+022437Y+027937
X+021437Y+027937
X+029134Y+029078
X+030134Y+029078
X+031134Y+029078
X+032134Y+029078
X+033134Y+029078
X+034134Y+029078
X+035134Y+029078
X+036134Y+029078
X+039370Y+029079
X+040370Y+029079
X+041370Y+029079
X+042370Y+029079
X+043370Y+029079
X+044370Y+029079
X+045370Y+029079
X+046370Y+029079
X+046437Y+017437
X+047437Y+017437
X+045437Y+017437
X+045437Y+016437
X+045437Y+015437
X+045437Y+014437
X+045437Y+013437
X+045437Y+012437
X+045437Y+011437
X+045437Y+010437
X+042937Y+010437
X+042937Y+011437
X+042937Y+012437
X+042937Y+013437
X+042937Y+014437
X+042937Y+015437
X+042937Y+016437
X+042937Y+017437
X+039937Y+017437
X+038937Y+017437
X+037937Y+017437
X+037937Y+016437
X+037937Y+015437
X+037937Y+014437
X+037937Y+013437
X+037937Y+012437
X+037937Y+011437
X+037937Y+010437
X+035437Y+010437
X+035437Y+011437
X+035437Y+012437
X+035437Y+013437
X+035437Y+014437
X+035437Y+015437
X+035437Y+016437
X+035437Y+017437
X+032437Y+017437
X+031437Y+017437
X+030437Y+017437
X+030437Y+016437
X+030437Y+015437
X+030437Y+014437
X+030437Y+013437
X+030437Y+012437
X+030437Y+011437
X+030437Y+010437
X+027937Y+010437
X+027937Y+011437
X+027937Y+012437
X+027937Y+013437
X+027937Y+014437
X+027937Y+015437
X+027937Y+016437
X+027937Y+017437
X+024937Y+017437
X+023937Y+017437
X+022937Y+017437
X+022937Y+016437
X+022937Y+015437
X+022937Y+014437
X+022937Y+013437
X+022937Y+012437
X+022937Y+011437
X+022937Y+010437
X+020437Y+010437
X+020437Y+011437
X+020437Y+012437
X+020437Y+013437
X+020437Y+014437
X+020437Y+015437
X+020437Y+016437
X+020437Y+017437
X+017437Y+017437
X+016437Y+017437
X+015437Y+017437
X+015437Y+016437
X+015437Y+015437
X+015437Y+014437
X+015437Y+013437
X+015437Y+012437
X+015437Y+011437
X+015437Y+010437
X+012937Y+010437
X+012937Y+011437
X+012937Y+012437
X+012937Y+013437
X+012937Y+014437
X+012937Y+015437
X+012937Y+016437
X+012937Y+017437
X+009937Y+017437
X+008937Y+017437
X+007937Y+017437
X+007937Y+016437
X+007937Y+015437
X+007937Y+014437
X+007937Y+013437
X+007937Y+012437
X+007937Y+011437
X+007937Y+010437
X+007437Y+026937
X+006437Y+026937
X+006437Y+027937
X+007437Y+027937
X+008437Y+027937
X+008437Y+026937
X+005437Y+026937
X+004437Y+026937
X+004437Y+027937
X+005437Y+027937
X+006937Y+042118
X+007937Y+042118
X+007937Y+043118
X+006937Y+043118
X+008937Y+043118
X+008937Y+042118
X+009937Y+042118
X+009937Y+043118
X+010937Y+043118
X+010937Y+042118
X+011937Y+042118
X+012937Y+042118
X+012937Y+043118
X+011937Y+043118
X+015937Y+043118
X+015937Y+042118
X+016937Y+042118
X+017937Y+042118
X+018937Y+042118
X+018937Y+043118
X+017937Y+043118
X+016937Y+043118
X+019937Y+043118
X+019937Y+042118
X+022812Y+042118
X+022812Y+043118
X+023812Y+043118
X+023812Y+042118
X+024812Y+042118
X+025812Y+042118
X+025812Y+043118
X+024812Y+043118
X+026812Y+043118
X+026812Y+042118
X+050437Y+017437
X+050437Y+016437
X+050437Y+015437
X+050437Y+014437
X+050437Y+013437
X+050437Y+012437
X+050437Y+011437
X+050437Y+010437
T04
X+004626Y+034228
X+004626Y+031079
T05
X+053000Y+014937
X+053000Y+013937
X+053000Y+012937
X+026562Y+027562
X+025562Y+027562
X+024562Y+027562
X+005437Y+015437
X+005437Y+014437
X+005437Y+013437
X+005687Y+010437
X+006687Y+010437
X+004687Y+010437
T06
X+008437Y+006937
X+009815Y+006937
X+011193Y+006937
X+012571Y+006937
X+015937Y+006937
X+017315Y+006937
X+018693Y+006937
X+020071Y+006937
X+023437Y+006937
X+024815Y+006937
X+026193Y+006937
X+027571Y+006937
X+030937Y+006937
X+032315Y+006937
X+033693Y+006937
X+035071Y+006937
X+038437Y+006937
X+039815Y+006937
X+041193Y+006937
X+042571Y+006937
X+045937Y+006937
X+047315Y+006937
X+048693Y+006937
X+050071Y+006937
T07
X+053315Y+022312
X+053315Y+024281
T08
X+055315Y+005512
X+055315Y+043504
X+039524Y+043449
X+029287Y+043449
X+005315Y+043504
X+005315Y+005315
T00
M30
