G04 DipTrace 3.3.1.3*
G04 Top.gbr*
%MOIN*%
G04 #@! TF.FileFunction,Copper,L1,Top*
G04 #@! TF.Part,Single*
G04 #@! TA.AperFunction,CopperBalancing*
%ADD14C,0.012*%
G04 #@! TA.AperFunction,ViaPad*
%ADD15C,0.03*%
G04 #@! TA.AperFunction,CopperBalancing*
%ADD16C,0.025*%
G04 #@! TA.AperFunction,Conductor*
%ADD17C,0.014*%
%ADD18C,0.05*%
%ADD19C,0.059055*%
%ADD20C,0.06*%
%ADD21C,0.02*%
%ADD23C,0.015*%
%ADD24C,0.035*%
%ADD26R,0.070866X0.062992*%
%ADD27R,0.051181X0.059055*%
%ADD28R,0.059055X0.051181*%
%ADD30R,0.082677X0.177165*%
%ADD32R,0.098425X0.066929*%
G04 #@! TA.AperFunction,ComponentPad*
%ADD33R,0.059055X0.059055*%
%ADD34C,0.059055*%
%ADD35R,0.066929X0.066929*%
%ADD36C,0.066929*%
%ADD37R,0.137795X0.09252*%
G04 #@! TA.AperFunction,ComponentPad*
%ADD38C,0.2*%
%ADD39R,0.051181X0.027559*%
%ADD40R,0.07874X0.047244*%
%ADD41R,0.055118X0.047244*%
%ADD42R,0.055118X0.031496*%
G04 #@! TA.AperFunction,ComponentPad*
%ADD43R,0.12X0.12*%
%ADD44C,0.12*%
%ADD45R,0.086614X0.086614*%
%ADD46C,0.086614*%
%ADD48R,0.062992X0.024016*%
%ADD49R,0.10315X0.138189*%
%ADD50R,0.07874X0.023622*%
G04 #@! TA.AperFunction,ViaPad*
%ADD51C,0.04*%
%FSLAX26Y26*%
G04*
G70*
G90*
G75*
G01*
G04 Top*
%LPD*%
X2243700Y3693700D2*
D14*
Y3793700D1*
X1443700Y3518700D2*
Y3481200D1*
X1543700Y3518700D2*
Y3481200D1*
X1643700Y3518700D2*
Y3481200D1*
X1743700Y3518700D2*
Y3481200D1*
X1843700Y3518700D2*
Y3481200D1*
X1943700Y3518700D2*
Y3481200D1*
X2043700Y3518700D2*
Y3481200D1*
X2243700Y3693700D2*
Y3581200D1*
X893700Y3273621D2*
Y3268700D1*
X943700D1*
X1481200Y3237451D2*
Y3281200D1*
X1493700Y3293700D1*
Y3456200D1*
X1468700Y3481200D1*
X1443700D1*
X2456200Y2756200D2*
Y2956200D1*
X2181200Y3231200D1*
Y3556200D1*
X2206200Y3581200D1*
X2243700D1*
X1993700Y4311810D2*
Y4318700D1*
X2243700Y4068700D1*
Y3793700D1*
X5081695Y3325364D2*
D15*
Y3377364D1*
X629920Y3937007D2*
D16*
X712007D1*
X3418700Y4005844D2*
X4437007D1*
X4991249D1*
X4437007Y2907873D2*
Y4005844D1*
X3413385Y2907794D2*
Y4005844D1*
X3418700D1*
Y2793700D2*
D14*
Y2907794D1*
X3413385D1*
X5299951Y1293700D2*
D16*
Y1299212D1*
X5236220D1*
X5212449Y1322982D1*
Y1812451D1*
X5118700Y1906200D1*
Y2518700D1*
X4843700Y2793700D1*
Y3901180D1*
X4948364Y4005844D1*
X4991249D1*
X543700Y1343700D2*
X443700Y1443700D1*
Y2468700D1*
X543700Y2568700D1*
D17*
X593700Y2618700D1*
Y2918700D1*
D16*
Y2968700D1*
X693700Y3068700D1*
Y3593700D1*
D14*
Y3602729D1*
Y3868700D1*
X629920Y3932480D1*
Y3937007D1*
X543700Y2568700D2*
D17*
X493700Y2618700D1*
Y2818700D1*
X593700Y2918700D1*
X693700Y3602729D2*
D14*
X609671D1*
X593700Y3618700D1*
Y3900787D1*
X629920Y3937007D1*
X4925695Y3377364D2*
Y3390364D1*
X5003695Y3468364D1*
X5347461Y3961385D2*
X5392978D1*
X5407249Y3975655D1*
X5347461Y3961385D2*
X5382519D1*
X5407249Y3936655D1*
X1443700Y3343700D2*
Y3306200D1*
X1543700Y3343700D2*
Y3306200D1*
X1643700Y3343700D2*
Y3306200D1*
X1743700Y3343700D2*
Y3306200D1*
X1843700Y3343700D2*
Y3306200D1*
X1943700Y3343700D2*
Y3306200D1*
X1643700Y2693700D2*
Y2793700D1*
X2243700Y2693700D2*
Y2793700D1*
X943700Y3693700D2*
Y3793700D1*
X1293700Y1043700D2*
D18*
X1368700D1*
Y1643700D1*
X1293700D1*
X2043700Y1043700D2*
X2118700D1*
Y1643700D1*
X2043700D1*
X1393700Y1956200D2*
D14*
X1443700D1*
X1506200Y2018700D1*
Y2118700D1*
X1543700Y2156200D1*
X1606298D1*
X2793700Y1043700D2*
D18*
X2868700D1*
Y1643700D1*
X2793700D1*
X3543700Y1043700D2*
X3618700D1*
Y1643700D1*
X3543700D1*
X2906200Y1956200D2*
D14*
X2943700D1*
X3031200Y2043700D1*
Y2143700D1*
X3043700Y2156200D1*
X3118798D1*
X4293700Y1043700D2*
D18*
X4368700D1*
Y1643700D1*
X4293700D1*
X5043700Y1043700D2*
X5118700D1*
Y1643700D1*
X5043700D1*
X4406200Y1956200D2*
D14*
X4443700D1*
X4531200Y2043700D1*
Y2143700D1*
X4543700Y2156200D1*
X4618798D1*
X4893700Y2273031D2*
D16*
Y2331200D1*
X4943700Y2381200D1*
X4893700Y2273031D2*
Y2381200D1*
Y2331200D2*
X4843700Y2381200D1*
X4093700Y2273031D2*
Y2331200D1*
X4143700Y2381200D1*
X4093700Y2273031D2*
Y2381200D1*
Y2331200D2*
X4043700Y2381200D1*
X3393700Y2273031D2*
Y2331200D1*
X3443700Y2381200D1*
X3393700Y2273031D2*
Y2381200D1*
Y2331200D2*
X3343700Y2381200D1*
X2593700Y2273031D2*
Y2331200D1*
X2643700Y2381200D1*
X2593700Y2273031D2*
Y2381200D1*
Y2331200D2*
X2543700Y2381200D1*
X1893700Y2273031D2*
Y2343700D1*
X1931200Y2381200D1*
X1893700Y2273031D2*
Y2381200D1*
Y2343700D2*
X1856200Y2381200D1*
X1093700Y2273031D2*
Y2331200D1*
X1143700Y2381200D1*
X1093700Y2273031D2*
Y2381200D1*
Y2331200D2*
X1043700Y2381200D1*
X860235Y2955511D2*
D14*
X818011D1*
X806200Y2943700D1*
X860235Y3533464D2*
X816436D1*
X806200Y3543700D1*
X478346Y3533464D2*
X533464D1*
X543700Y3543700D1*
X1606003Y2368700D2*
Y2418503D1*
X1606200Y2418700D1*
X4618503Y2368700D2*
Y2418700D1*
X4618700D1*
X1543700Y2156200D2*
Y2168700D1*
X3118798Y2156200D2*
X3056200D1*
Y2168700D1*
X3131003Y2368700D2*
Y2418700D1*
X3131200D1*
X4556200Y2168700D2*
Y2156200D1*
X4618798D1*
X2706298Y3281200D2*
X2768700D1*
X2781200Y3268700D1*
X2243700Y3470964D2*
Y3418700D1*
X893700Y3360235D2*
X835235D1*
X831200Y3356200D1*
X2831200Y3506200D2*
X2781200D1*
X2493700Y3081200D2*
X2406200D1*
X2381200Y3106200D1*
X2043700Y3343700D2*
Y3306200D1*
X5590550Y1673228D2*
D16*
X5531495D1*
X5472440D1*
X5413385D1*
X5354330D1*
Y1633857D1*
X5413385D1*
X5472440D1*
X5531495D1*
X5590550D1*
Y1673228D1*
X1293700Y1643700D2*
D19*
X1212449D1*
D20*
Y2154281D1*
X1093700Y2273031D1*
X2043700Y1643700D2*
D19*
X1974949D1*
D20*
X1949949Y1668700D1*
Y1774949D1*
X2018700Y1843700D1*
Y2156200D1*
X2010531D1*
X1893700Y2273031D1*
X2793700Y1643700D2*
D19*
X2712451D1*
D20*
Y2154280D1*
X2593700Y2273031D1*
X4293700Y1643700D2*
D19*
X4237449D1*
D20*
X4212449Y1668700D1*
Y2154281D1*
X4093700Y2273031D1*
X5043700Y1643700D2*
D19*
X4984174D1*
D20*
X4962451Y1665423D1*
Y1787451D1*
X5018700Y1843700D1*
Y2156200D1*
X4901869Y2273031D1*
X4893700D1*
X3543700Y1643700D2*
D19*
X3499951D1*
D20*
X3468700Y1674951D1*
Y1799949D1*
X3531200Y1862449D1*
Y2124949D1*
X3393700Y2262449D1*
Y2273031D1*
X2006200Y2381200D2*
D14*
X1931200D1*
X2706200D2*
X2643700D1*
X3518700D2*
X3443700D1*
X4224950Y2387450D2*
X4149950D1*
X4143700Y2381200D1*
X1093700D2*
X1062450Y2412450D1*
Y2449950D1*
X2624950Y2662450D2*
X2693700D1*
X2718700Y2687450D1*
X793700Y1143700D2*
X631200Y1306200D1*
Y2256200D1*
X1268700D2*
X1393700D1*
X793700Y1043700D2*
X593700Y1243700D1*
Y2306200D1*
X1331200D2*
X1393700D1*
X2143700Y2693700D2*
Y2793700D1*
X893700Y3230314D2*
X982086D1*
X1993700Y3168700D2*
Y3093700D1*
X2031200Y3056200D1*
X2081200D1*
X2143700Y2993700D1*
Y2793700D1*
X2293700Y1643700D2*
X2343700Y1693700D1*
Y2431200D1*
X2143700D2*
Y2693700D1*
X2043700Y3221554D2*
X2093700Y3271554D1*
Y3418503D1*
Y3568700D1*
X2068700Y3593700D1*
X2068503Y3593503D1*
X2043700D1*
Y3693700D1*
Y3793700D1*
Y3418503D2*
X2093700D1*
X1293700Y4311810D2*
X1431200Y4174310D1*
Y4006200D1*
X1743700Y1743700D2*
Y1993700D1*
X1831200Y2081200D1*
Y2206200D1*
X1818700Y2218700D1*
Y2506200D1*
X1793700Y2531200D1*
Y2974950D1*
X1643700Y3124950D1*
Y3121554D1*
X1843700Y3221554D2*
X1893700Y3271554D1*
Y3418503D1*
Y3568700D1*
X1868700Y3593700D1*
X1843897D1*
X1843700Y3593503D1*
Y3693700D2*
Y3793700D1*
Y3693700D2*
Y3593503D1*
Y3418503D2*
X1893700D1*
X1093700Y4311810D2*
X1143700Y4261810D1*
Y4131200D1*
X1181200Y4093700D1*
Y3956200D1*
X1606298Y2206200D2*
X1643700D1*
X1668700Y2231200D1*
Y2418700D1*
X1656200Y2431200D1*
Y2531200D1*
X1743700Y2618700D1*
Y2693700D1*
X1343700D2*
Y2793700D1*
X893700Y3187007D2*
Y3181200D1*
X943700D1*
X1343700D2*
Y2793700D1*
X1943700Y3221554D2*
X1993700Y3271554D1*
Y3418503D1*
Y3568700D1*
X1968700Y3593700D1*
X1943897D1*
X1943700Y3593503D1*
Y3693700D1*
Y3793700D1*
Y3418503D2*
X1993700D1*
X1193700Y4311810D2*
X1243700Y4261810D1*
Y4143700D1*
X1281200Y4106200D1*
Y3981200D1*
X1443700Y2693700D2*
Y2793700D1*
X893700Y3316928D2*
X979428D1*
X1381200Y3318700D2*
Y3174950D1*
X1443700Y3112450D1*
Y2793700D1*
X793700Y1543700D2*
X781200D1*
X743700Y1581200D1*
Y2418700D1*
X918700Y2593700D1*
X1387450D2*
X1406200D1*
X1441896Y2629396D1*
X1443700D1*
Y2693700D1*
X1143700Y3793700D2*
Y3693700D1*
X1993700Y3656200D2*
Y4211810D1*
X843700Y693700D2*
D20*
Y893700D1*
X893700Y943700D1*
Y1406200D1*
X1031200Y1543700D1*
X1293700D1*
X981495Y693700D2*
Y843995D1*
X993700Y856200D1*
Y1331200D1*
X1106200Y1443700D1*
X1293700D1*
X1119291Y693700D2*
Y893109D1*
X1093700Y918700D1*
Y1268700D1*
X1168700Y1343700D1*
X1293700D1*
X1543700Y1143700D2*
D14*
X1493700D1*
Y1393700D1*
X1474949Y1412451D1*
Y1724951D1*
X1281200Y1918700D1*
Y2068700D1*
X1318700Y2106200D1*
X1393700D1*
X1543700Y1043700D2*
X1474949D1*
Y1362451D1*
X1449949Y1387451D1*
Y1712451D1*
X1262449Y1899951D1*
Y2112449D1*
X1306200Y2156200D1*
X1393700D1*
X1443700Y3593503D2*
Y3693700D1*
Y3793700D2*
Y3693700D1*
X693700Y4311810D2*
X743700Y4261810D1*
Y4181200D1*
X793700Y4131200D1*
Y3843700D1*
X1443700Y3593503D2*
X1406003D1*
X1381200Y3568700D1*
Y3481003D1*
X1443700Y3418503D1*
X3043700Y1043700D2*
X2968700D1*
X2918700Y1093700D1*
Y1743700D1*
X2768700Y1893700D1*
Y2118700D1*
X2806200Y2156200D1*
X2906200D1*
X2493700Y1743700D2*
X2456200Y1781200D1*
Y2518700D1*
X1893700D2*
Y2974950D1*
X1743700Y3124950D1*
Y3121554D1*
X1543700Y2693700D2*
Y2793700D1*
X893700Y3403543D2*
X966043D1*
X1131200Y3406200D2*
Y2968700D1*
X1543700Y2943700D2*
Y2793700D1*
X793700Y1343700D2*
X668700Y1468700D1*
Y2418700D1*
X887450Y2637450D1*
X1543700D2*
Y2693700D1*
X1293700Y1243700D2*
D20*
X1231200D1*
X1181200Y1193700D1*
Y968700D1*
X1257086Y892814D1*
Y693700D1*
X1743700Y3221554D2*
D14*
X1793700Y3271554D1*
Y3383434D1*
Y3568700D1*
X1768700Y3593700D1*
X1743897D1*
X1743700Y3593503D1*
Y3693700D1*
Y3793700D1*
Y3418503D2*
X1758630D1*
X1793700Y3383434D1*
X993700Y4311810D2*
X1043700Y4261810D1*
Y4118700D1*
X1093700Y4068700D1*
Y3931200D1*
X2293700Y1143700D2*
X2206200Y1231200D1*
Y2268700D1*
X2768700D2*
X2843700D1*
X2856200Y2256200D1*
X2906200D1*
X1543700Y1443700D2*
X1506200D1*
X1493700Y1456200D1*
Y1743700D1*
X1299949Y1937451D1*
Y2037449D1*
X1318700Y2056200D1*
X1393700D1*
X2043700Y1243700D2*
D20*
X1981200D1*
X1931200Y1193700D1*
Y968700D1*
X2007086Y892814D1*
Y693700D1*
X2343700D2*
Y893700D1*
X2393700Y943700D1*
Y1406200D1*
X2531200Y1543700D1*
X2793700D1*
X2481495Y693700D2*
Y843995D1*
X2493700Y856200D1*
Y1331200D1*
X2606200Y1443700D1*
X2793700D1*
X2619291Y693700D2*
Y893109D1*
X2593700Y918700D1*
Y1268700D1*
X2668700Y1343700D1*
X2793700D1*
X1643700Y3221554D2*
D14*
X1693700Y3271554D1*
Y3418503D1*
Y3568700D1*
X1668700Y3593700D1*
X1643897D1*
X1643700Y3593503D1*
Y3693700D1*
Y3793700D2*
Y3693700D1*
Y3418503D2*
X1693700D1*
X893700Y4311810D2*
X943700Y4261810D1*
Y4118700D1*
X993700Y4068700D1*
Y3906200D1*
X3243700Y1743700D2*
Y1943700D1*
X3343700Y2043700D1*
Y2168700D1*
X3306200Y2206200D1*
Y2506200D1*
X1993700Y2481200D2*
Y2987450D1*
X1843700Y3137450D1*
Y3121554D1*
X1243700Y3793700D2*
Y3693700D1*
X3013385Y2907794D2*
X3018700D1*
Y3456200D1*
X1181200Y3368700D2*
Y3624951D1*
X1243700Y3687451D1*
Y3693700D1*
X3793700Y1143700D2*
X3706200Y1231200D1*
Y2268700D1*
X4268700D2*
X4343700D1*
X4356200Y2256200D1*
X4406200D1*
X2793700Y1243700D2*
D20*
X2731200D1*
X2681200Y1193700D1*
Y968700D1*
X2757086Y892814D1*
Y693700D1*
X4593700D2*
Y893700D1*
X4643700Y943700D1*
Y1406200D1*
X4781200Y1543700D1*
X5043700D1*
X4731495Y693700D2*
Y843995D1*
X4743700Y856200D1*
Y1331200D1*
X4856200Y1443700D1*
X5043700D1*
X4869291Y693700D2*
Y893109D1*
X4843700Y918700D1*
Y1268700D1*
X4918700Y1343700D1*
X5043700D1*
X1943700Y2693700D2*
D14*
Y2793700D1*
X2581200Y4211810D2*
Y4056200D1*
X2431200Y3906200D1*
Y3393700D1*
X2443700Y3381200D1*
X2493700D1*
X3993700Y1743700D2*
X3943700Y1793700D1*
Y2649949D1*
X2093700Y2618700D2*
Y3006200D1*
X2068700Y3031200D1*
X2018700D1*
X1943700Y3106200D1*
Y3121554D1*
X4743700Y1743700D2*
Y1943700D1*
X4806200Y2006200D1*
Y2706200D1*
X2193700Y2643700D2*
Y3018700D1*
X2093700Y3118700D1*
X2043700D1*
Y3121554D1*
Y2693700D2*
Y2793700D1*
X1606298Y2056200D2*
X1693700D1*
X1718700Y2081200D1*
Y2368700D1*
X1749950Y2399950D1*
Y2437450D1*
X2056200Y2456200D2*
Y2693700D1*
X2043700D1*
X3118798Y2056200D2*
X3181200D1*
X3231200Y2106200D1*
Y2468700D1*
X4618798Y2056200D2*
X4681200D1*
X4706200Y2081200D1*
Y2431200D1*
X4731200Y2456200D1*
X2043700Y2793700D2*
Y2993700D1*
X2718700D2*
X2781200Y3056200D1*
Y3168700D1*
X2768700Y3181200D1*
X2706298D1*
X1843700Y2693700D2*
Y2793700D1*
X4543700Y1443700D2*
X4506200D1*
X4468700Y1481200D1*
Y1768700D1*
X4318700Y1918700D1*
Y2018700D1*
X4356200Y2056200D1*
X4406200D1*
X1606298Y2306200D2*
X1581200D1*
X1531200Y2356200D1*
Y2368700D1*
X3118798Y2306200D2*
X3118700D1*
X3056200Y2368700D1*
X4618798Y2306200D2*
X4606200D1*
X4543700Y2368700D1*
X3268700Y2306200D2*
Y2081200D1*
X3193700Y2006200D1*
X3118798D1*
X1606298Y2306200D2*
X1606190D1*
X1756200D2*
Y2081200D1*
X1681200Y2006200D1*
X1606298D1*
X4618798Y2306200D2*
X4618708D1*
X4743700D2*
Y2068700D1*
X4681200Y2006200D1*
X4618798D1*
X2556200Y2756200D2*
D21*
X2581200D1*
X2831200Y3006200D1*
Y3393700D1*
X2793700Y3431200D1*
X2706298D1*
Y3506200D1*
X2706397D1*
X2681200Y4311810D2*
X2756200Y4236810D1*
Y3706200D1*
X2706397Y3656397D1*
Y3506200D1*
X1531200Y2368700D2*
D23*
Y2443700D1*
X1593700Y2506200D1*
Y2581200D1*
X2581200D2*
Y2756200D1*
X3056200Y2581200D2*
Y2368700D1*
X4537451Y2631200D2*
Y2368700D1*
X4543700D1*
X4881200Y2624949D2*
Y2568700D1*
X4956200D1*
X5074949Y2449951D1*
Y1906201D1*
X5174949Y1806201D1*
Y1143700D1*
X2556200Y2756200D2*
D14*
Y2893700D1*
X2631200Y2968700D1*
Y3118700D1*
X2643700Y3131200D1*
X2706298D1*
X943700Y2693700D2*
Y2793700D1*
X5043700Y1243700D2*
D20*
X4981200D1*
X4931200Y1193700D1*
Y968700D1*
X5007086Y892814D1*
Y693700D1*
X3843700D2*
Y893700D1*
X3893700Y943700D1*
Y1406200D1*
X4031200Y1543700D1*
X4293700D1*
X2493700Y3231200D2*
D14*
X2418700D1*
X2356200Y3293700D1*
Y3956200D1*
X2431200Y4031200D1*
Y4261810D1*
X2381200Y4311810D1*
X2493700Y3231200D2*
X2568700D1*
X4237007Y3256200D2*
Y2907873D1*
X3981495Y693700D2*
D20*
Y843995D1*
X3993700Y856200D1*
Y1331200D1*
X4106200Y1443700D1*
X4293700D1*
X1143700Y2693700D2*
D14*
Y2793700D1*
Y2893700D1*
X3113385Y2993700D2*
Y2907794D1*
X3793700Y1043700D2*
X3668700Y1168700D1*
Y2306200D1*
X4331200D2*
X4406200D1*
X4119291Y693700D2*
D20*
Y893109D1*
X4093700Y918700D1*
Y1268700D1*
X4168700Y1343700D1*
X4293700D1*
X2681200Y4211810D2*
D14*
Y3656200D1*
X2643700Y3618700D1*
Y3393700D1*
X2656200Y3381200D1*
X2706298D1*
X2493700Y3431200D2*
X2543700D1*
X2593700Y3481200D1*
Y3631200D1*
X2631200Y3668700D1*
Y4231200D1*
X2581200Y4281200D1*
Y4311810D1*
X2481200D2*
X2531200Y4261810D1*
Y4043700D1*
X2406200Y3918700D1*
Y3381200D1*
X2456200Y3331200D1*
X2493700D1*
Y3131200D2*
X2437449D1*
Y3137451D1*
X4043700D2*
Y2907873D1*
X4037007D1*
X2281200Y4311810D2*
X2331200Y4261810D1*
Y4006200D1*
X2306200Y3981200D1*
Y3243700D1*
X2412449Y3137451D1*
X2437449D1*
X993700Y1743700D2*
Y1818700D1*
X981200Y1831200D1*
Y2556200D1*
X1493700D2*
Y3071554D1*
X1543700Y3121554D1*
X5291338Y3561417D2*
X5326642D1*
X5341695Y3546364D1*
X5377498D1*
X5380695Y3543167D1*
X843700Y3693700D2*
Y3793700D1*
Y4093700D1*
X1893700D2*
Y4211810D1*
X843700Y2693700D2*
Y2793700D1*
X4337007Y2907873D2*
Y3131200D1*
X843700Y2856200D2*
Y2793700D1*
X1043700Y2693700D2*
Y2793700D1*
X3213385Y2907794D2*
Y2999949D1*
X1043700Y2931200D2*
Y2793700D1*
X4543700Y1143700D2*
X4481200D1*
X4443700Y1181200D1*
Y1756200D1*
X4293700Y1906200D1*
Y2081200D1*
X4318700Y2106200D1*
X4406200D1*
X4543700Y1043700D2*
X4468700D1*
X4418700Y1093700D1*
Y1743700D1*
X4268700Y1893700D1*
Y2118700D1*
X4306200Y2156200D1*
X4406200D1*
X4293700Y1243700D2*
D20*
X4231200D1*
X4181200Y1193700D1*
Y968700D1*
X4257086Y892814D1*
Y693700D1*
X3093700D2*
Y893700D1*
X3143700Y943700D1*
Y1406200D1*
X3281200Y1543700D1*
X3543700D1*
X3043700Y1143700D2*
D14*
X2981200D1*
X2943700Y1181200D1*
Y1756200D1*
X2793700Y1906200D1*
Y2081200D1*
X2818700Y2106200D1*
X2906200D1*
X5003695Y3559364D2*
X5076687D1*
X5078739Y3561417D1*
X2293700Y1043700D2*
X2168700Y1168700D1*
Y2306200D1*
X2831200D2*
X2906200D1*
X4928892Y3468364D2*
Y3559364D1*
X2493700Y3281200D2*
X2443700D1*
X2381200Y3343700D1*
Y3943700D1*
X2481200Y4043700D1*
Y4211810D1*
X5078739Y3511417D2*
Y3455123D1*
X5081695Y3452167D1*
X5075301D1*
X5000498Y3377364D1*
X3231495Y693700D2*
D20*
Y843995D1*
X3243700Y856200D1*
Y1331200D1*
X3356200Y1443700D1*
X3543700D1*
X3369291Y693700D2*
Y893109D1*
X3343700Y918700D1*
Y1268700D1*
X3418700Y1343700D1*
X3543700D1*
X743700Y2693700D2*
D14*
Y2793700D1*
X1793700Y4211810D2*
Y3643700D1*
X1231200Y3593700D2*
Y3118700D1*
X743700D2*
Y2793700D1*
X793700Y1743700D2*
Y2168700D1*
X1543700Y2256200D2*
X1606298D1*
X3543700Y1243700D2*
D20*
X3481200D1*
X3431200Y1193700D1*
Y968700D1*
X3507086Y892814D1*
Y693700D1*
X1606298Y1956200D2*
D14*
X1668700D1*
X1793700Y2081200D1*
Y2156200D1*
X3006200Y2206200D2*
X3118798D1*
X1043700Y3693700D2*
Y3793700D1*
Y4068700D1*
X981200Y4131200D1*
X1693700D2*
Y4211810D1*
X1593700Y693700D2*
D20*
Y893700D1*
X1643700Y943700D1*
Y1406200D1*
X1781200Y1543700D1*
X2043700D1*
X1731495Y693700D2*
Y843995D1*
X1743700Y856200D1*
Y1331200D1*
X1856200Y1443700D1*
X2043700D1*
X1869291Y693700D2*
Y893109D1*
X1843700Y918700D1*
Y1268700D1*
X1918700Y1343700D1*
X2043700D1*
X2143700Y3693700D2*
D14*
Y3793700D1*
X2081200Y4168700D2*
Y4043700D1*
X2143700Y3981200D1*
Y3793700D1*
X2493700Y3181200D2*
Y3193700D1*
X2431200D1*
X4131200Y3218700D2*
Y2907873D1*
X4137007D1*
X2381200Y4211810D2*
Y4018700D1*
X2331200Y3968700D1*
Y3268700D1*
X2406200Y3193700D1*
X2431200D1*
X3118798Y1956200D2*
X3206200D1*
X3306200Y2056200D1*
Y2156200D1*
X4518700Y2206200D2*
X4618798D1*
X1343700Y3693700D2*
Y3793700D1*
X3313385Y2907794D2*
Y2992764D1*
X3262449Y3043700D1*
X1281200Y3068700D2*
Y3556200D1*
X1343700Y3618700D1*
Y3693700D1*
X1543700Y3221554D2*
X1593700Y3271554D1*
Y3418503D1*
Y3568700D1*
X1568897Y3593503D1*
X1543700D1*
Y3693700D1*
Y3793700D2*
Y3693700D1*
Y3418503D2*
X1593700D1*
X793700Y4311810D2*
X843700Y4261810D1*
Y4181200D1*
X893700Y4131200D1*
Y3881200D1*
X1243700Y2693700D2*
Y2793700D1*
X1606298Y2106200D2*
X1693700D1*
Y2518700D1*
X1237451Y2468700D2*
Y2693700D1*
X1243700D1*
X4618798Y2106200D2*
X4656200D1*
X4681200Y2131200D1*
Y2490909D1*
X4668700D1*
Y2543700D1*
X3118798Y2106200D2*
X3168699D1*
X3187449Y2124951D1*
Y2468701D1*
X3106200Y2549951D1*
Y2543700D1*
X1243700Y2793700D2*
Y3031200D1*
X2593700Y3018700D2*
Y3181200D1*
X2643700Y3231200D1*
X2706298D1*
Y3331200D2*
X2781200D1*
X4743700Y3356200D2*
Y2637451D1*
X4781200Y2599951D1*
Y2018700D1*
X4718700Y1956200D1*
X4618798D1*
X2293700Y1443700D2*
X2281200D1*
X2243700Y1481200D1*
Y2231200D1*
X2818700D2*
X2843700Y2206200D1*
X2906200D1*
X793700Y1443700D2*
X781200D1*
X706200Y1518700D1*
Y2206200D1*
X1318700D2*
X1393700D1*
X1543700Y1743700D2*
X1531200D1*
X1318700Y1956200D1*
Y1993700D1*
X1331200Y2006200D1*
X1393700D1*
X2293700Y1743700D2*
Y2193700D1*
X3006200Y2256200D2*
X3118798D1*
X3043700Y1443700D2*
X3006200D1*
X2968700Y1481200D1*
Y1768700D1*
X2818700Y1918700D1*
Y2018700D1*
X2856200Y2056200D1*
X2906200D1*
X3793700Y1743700D2*
Y2193700D1*
X4506200Y2256200D2*
X4618798D1*
X3043700Y1743700D2*
X3031200D1*
X2843700Y1931200D1*
Y2006200D1*
X2906200D1*
X3793700Y1443700D2*
X3781200D1*
X3743700Y1481200D1*
Y2231200D1*
X4331200D2*
X4356200Y2206200D1*
X4406200D1*
X4543700Y1743700D2*
X4531200D1*
X4343700Y1931200D1*
Y1993700D1*
X4356200Y2006200D1*
X4406200D1*
X478346Y2955511D2*
X519389D1*
X531200Y2943700D1*
X443700Y3693700D2*
D16*
Y3793700D1*
Y3908267D1*
X472440Y3937007D1*
X4893700Y1918700D2*
D14*
Y1931200D1*
X4843700Y1981200D1*
X4893700Y1918700D2*
X4943700Y1968700D1*
Y1981200D1*
X4893700Y1918700D2*
X4856200D1*
X4843700Y1931200D1*
X4893700Y1918700D2*
X4931200D1*
X4943700Y1931200D1*
X4893700Y1918700D2*
X4856200Y1881200D1*
X4843700D1*
X4893700Y1918700D2*
X4906200D1*
X4943700Y1881200D1*
X4093700Y1918700D2*
Y1931200D1*
X4143700Y1981200D1*
X4093700Y1918700D2*
X4131200D1*
X4143700Y1931200D1*
X4093700Y1918700D2*
X4106200D1*
X4143700Y1881200D1*
X4093700Y1918700D2*
X4081200D1*
X4043700Y1881200D1*
X4093700Y1918700D2*
X4056200D1*
X4043700Y1931200D1*
X4093700D2*
X4043700Y1981200D1*
X5291338Y3611417D2*
X5373983D1*
X5380695Y3618128D1*
X1893700Y1918700D2*
Y1931200D1*
X1843700Y1981200D1*
X1893700Y1918700D2*
X1943700Y1968700D1*
Y1981200D1*
X1893700Y1918700D2*
X1856200D1*
X1843700Y1931200D1*
X1893700Y1918700D2*
X1931200D1*
X1943700Y1931200D1*
X1893700Y1918700D2*
X1856200Y1881200D1*
X1843700D1*
X1893700Y1918700D2*
X1906200D1*
X1943700Y1881200D1*
X1093700Y1918700D2*
Y1931200D1*
X1143700Y1981200D1*
X1093700Y1918700D2*
X1131200D1*
X1143700Y1931200D1*
X1093700Y1918700D2*
X1106200D1*
X1143700Y1881200D1*
X1093700Y1918700D2*
X1081200D1*
X1043700Y1881200D1*
X1093700Y1918700D2*
X1056200D1*
X1043700Y1931200D1*
X1093700D2*
X1043700Y1981200D1*
X2593700Y1918700D2*
Y1931200D1*
X2643700Y1981200D1*
X2593700Y1918700D2*
X2631200D1*
X2643700Y1931200D1*
X2593700Y1918700D2*
X2606200D1*
X2643700Y1881200D1*
X2593700Y1918700D2*
X2556200D1*
X2543700Y1931200D1*
X2593700D2*
X2543700Y1981200D1*
X2593700Y1918700D2*
X2581200D1*
X2543700Y1881200D1*
X3393700Y1918700D2*
Y1931200D1*
X3343700Y1981200D1*
X3393700Y1918700D2*
X3356200D1*
X3343700Y1931200D1*
X3393700Y1918700D2*
X3381200D1*
X3343700Y1881200D1*
X3393700Y1918700D2*
X3406200D1*
X3443700Y1881200D1*
X3393700Y1918700D2*
X3431200D1*
X3443700Y1931200D1*
X3393700D2*
X3443700Y1981200D1*
X5331495Y2231200D2*
D24*
Y2207873D1*
X5189665Y2349704D1*
Y2738389D1*
X5432476Y2981200D1*
X5499949Y3048674D1*
Y3557431D1*
X5439252Y3618128D1*
X5380695D1*
X5120982Y2981200D2*
D16*
X5432476D1*
D51*
X943700Y3268700D3*
X1481200Y3237451D3*
X712007Y3937007D3*
X3418700Y4005844D3*
D3*
Y2793700D3*
X631200Y2256200D3*
X1268700D3*
X593700Y2306200D3*
X1331200D3*
X982086Y3230314D3*
X1993700Y3168700D3*
X2343700Y2431200D3*
X2143700D3*
X1431200Y4006200D3*
X1181200Y3956200D3*
X943700Y3181200D3*
X1343700D3*
X1281200Y3981200D3*
X979428Y3316928D3*
X1381200Y3318700D3*
X918700Y2593700D3*
X1387450D3*
X1993700Y3656200D3*
X793700Y3843700D3*
X2456200Y2518700D3*
X1893700D3*
X966043Y3403543D3*
X1131200Y3406200D3*
Y2968700D3*
X1543700Y2943700D3*
X887450Y2637450D3*
X1543700D3*
X1093700Y3931200D3*
X2206200Y2268700D3*
X2768700D3*
X993700Y3906200D3*
X3306200Y2506200D3*
X1993700Y2481200D3*
X3018700Y3456200D3*
X1181200Y3368700D3*
X3706200Y2268700D3*
X4268700D3*
X3943700Y2649949D3*
X2093700Y2618700D3*
X4806200Y2706200D3*
X2193700Y2643700D3*
X1749950Y2437450D3*
X2056200Y2456200D3*
X3231200Y2468700D3*
X4731200Y2456200D3*
X3231200Y2468700D3*
X2043700Y2993700D3*
X2718700D3*
X3118708Y2306200D3*
X3268700D3*
X1606190D3*
X1756200D3*
X4618708D3*
X4743700D3*
X1593700Y2581200D3*
X2581200D3*
X3056200D3*
X4537451Y2631200D3*
X4881200Y2624949D3*
X5174949Y1143700D3*
X2568700Y3231200D3*
X4237007Y3256200D3*
X1143700Y2893700D3*
X3113385Y2993700D3*
X3668700Y2306200D3*
X4331200D3*
X2437449Y3137451D3*
X4043700D3*
X981200Y2556200D3*
X1493700D3*
X843700Y4093700D3*
X1893700D3*
X4337007Y3131200D3*
X843700Y2856200D3*
X3213385Y2999949D3*
X1043700Y2931200D3*
X2168700Y2306200D3*
X2831200D3*
X1793700Y3643700D3*
X1231200Y3593700D3*
Y3118700D3*
X743700D3*
X793700Y2168700D3*
X1543700Y2256200D3*
X1793700Y2156200D3*
X3006200Y2206200D3*
X981200Y4131200D3*
X1693700D3*
X2081200Y4168700D3*
X2431200Y3193700D3*
X4131200Y3218700D3*
X3306200Y2156200D3*
X4518700Y2206200D3*
X3262449Y3043700D3*
X1281200Y3068700D3*
X893700Y3881200D3*
X1693700Y2518700D3*
X1237451Y2468700D3*
X4668700Y2543700D3*
X1693700Y2518700D3*
X3106200Y2543700D3*
X1243700Y3031200D3*
X2593700Y3018700D3*
X2781200Y3331200D3*
X4743700Y3356200D3*
X2243700Y2231200D3*
X2818700D3*
X706200Y2206200D3*
X1318700D3*
X2293700Y2193700D3*
X3006200Y2256200D3*
X3793700Y2193700D3*
X4506200Y2256200D3*
X3743700Y2231200D3*
X4331200D3*
X5120982Y2981200D3*
X2243700Y3418700D3*
X1093700Y2381200D3*
X1043700D3*
X1143700D3*
X1856200D3*
X1893700D3*
X1931200D3*
X2543700D3*
X2593700D3*
X2643700D3*
X3343700D3*
X3393700D3*
X3443700D3*
X4043700D3*
X4093700D3*
X4143700D3*
X4843700D3*
X4893700D3*
X4943700D3*
X3443700Y1981200D3*
Y1931200D3*
Y1881200D3*
X3343700Y1981200D3*
Y1931200D3*
Y1881200D3*
X2643700Y1981200D3*
Y1931200D3*
Y1881200D3*
X2543700Y1981200D3*
Y1931200D3*
Y1881200D3*
X4943700Y1981200D3*
Y1931200D3*
Y1881200D3*
X4843700Y1981200D3*
Y1931200D3*
Y1881200D3*
X4143700Y1981200D3*
Y1931200D3*
Y1881200D3*
X4043700Y1981200D3*
Y1931200D3*
Y1881200D3*
X1443700Y3481200D3*
X1543700D3*
X1643700D3*
X1743700D3*
X1843700D3*
X1943700D3*
X2043700D3*
X1943700Y1981200D3*
Y1931200D3*
Y1881200D3*
X1843700Y1981200D3*
Y1931200D3*
Y1881200D3*
X1143700Y1981200D3*
Y1931200D3*
Y1881200D3*
X1043700Y1981200D3*
Y1931200D3*
Y1881200D3*
D15*
X5159695Y3624364D3*
X5185695D3*
X5211695D3*
X5159695Y3585364D3*
X5185695D3*
X5211695D3*
X5159695Y3546364D3*
X5185695D3*
X5211695D3*
X5407249Y3975655D3*
Y3936655D3*
D51*
X5081695Y3325364D3*
X4952249Y4079655D3*
X1543700Y3306200D3*
X1643700D3*
X1743700D3*
X1843700D3*
X1943700D3*
X1443700D3*
X543700Y3543700D3*
X806200D3*
Y2943700D3*
X531200D3*
X1606200Y2418700D3*
X4556200Y2168700D3*
X4618700Y2418700D3*
X1543700Y2168700D3*
X3056200D3*
X3131200Y2418700D3*
X2781200Y3268700D3*
X831200Y3356200D3*
X2831200Y3506200D3*
X2381200Y3106200D3*
X2043700Y3306200D3*
X5354330Y1633857D3*
Y1673228D3*
X5413385D3*
X5472440D3*
X5531495D3*
X5590550D3*
X5413385Y1633857D3*
X5472440D3*
X5531495D3*
X5590550D3*
X2718700Y2687450D3*
X4928266Y4068287D2*
D16*
X5379247D1*
X4928266Y4043418D2*
X5379247D1*
X4928266Y4018549D2*
X5185580D1*
X4928266Y3993680D2*
X5164372D1*
X4928266Y3968812D2*
X5143201D1*
X4925749Y4093132D2*
Y3949164D1*
X5128748Y3948895D1*
X5204119Y4037151D1*
X5206561Y4038786D1*
X5209316Y4039807D1*
X5212238Y4040155D1*
X5381730D1*
X5381748Y4093144D1*
X4925781Y4093155D1*
X5143405Y3861523D2*
X5257469D1*
X5113585Y3836654D2*
X5257469D1*
X4912526Y3811785D2*
X5257469D1*
X4912526Y3786917D2*
X5234072D1*
X4912526Y3762048D2*
X5219970D1*
X4912526Y3737179D2*
X5219970D1*
X5048025Y3712310D2*
X5219970D1*
X5049999Y3687441D2*
X5094626D1*
X5049999Y3662573D2*
X5076864D1*
X5091202Y3823898D2*
X4909987D1*
X4910009Y3730145D1*
X5024451Y3730007D1*
X5027279Y3729209D1*
X5029843Y3727773D1*
X5036334Y3721500D1*
X5045107Y3712509D1*
X5046543Y3709946D1*
X5047340Y3707117D1*
X5047494Y3695976D1*
Y3661419D1*
X5078521Y3661418D1*
X5107325Y3701431D1*
X5109618Y3703268D1*
X5112277Y3704520D1*
X5115154Y3705117D1*
X5222489Y3705163D1*
X5222627Y3769611D1*
X5223424Y3772439D1*
X5224860Y3775003D1*
X5232630Y3782990D1*
X5259965Y3810325D1*
X5259969Y3886357D1*
X5170750Y3886392D1*
X5097640Y3825662D1*
X5094956Y3824464D1*
X5092064Y3823926D1*
X5318338Y3951287D2*
X5418264D1*
X5318410Y3926418D2*
X5418264D1*
X5318482Y3901549D2*
X5418264D1*
X5318554Y3876680D2*
X5418264D1*
X5318625Y3851812D2*
X5418264D1*
X5318661Y3826943D2*
X5418264D1*
X5330682Y3802074D2*
X5418264D1*
X5351998Y3777205D2*
X5418264D1*
X5356447Y3752336D2*
X5418264D1*
X5356842Y3727468D2*
X5418264D1*
X5337326Y3791392D2*
X5345588D1*
Y3781739D1*
X5351764Y3774356D1*
X5353037Y3771707D1*
X5353656Y3768835D1*
X5354551Y3715148D1*
X5420727Y3715155D1*
X5420749Y3976129D1*
X5315800Y3976155D1*
X5316204Y3816050D1*
X5337330Y3791391D1*
X5155531Y3611549D2*
X5213724D1*
X5155029Y3586680D2*
X5213724D1*
X5154563Y3561812D2*
X5213724D1*
X5154096Y3536943D2*
X5213724D1*
X5153594Y3512074D2*
X5213724D1*
X5153127Y3487205D2*
X5340466D1*
X5152661Y3462336D2*
X5391709D1*
X5152158Y3437468D2*
X5391709D1*
X5151692Y3412599D2*
X5391709D1*
X4914713Y3387730D2*
X4926239D1*
X5151225D2*
X5391709D1*
X4914713Y3362861D2*
X4926239D1*
X5150723D2*
X5391709D1*
X4914713Y3337993D2*
X4926239D1*
X5150256D2*
X5391709D1*
X4914713Y3313124D2*
X4932499D1*
X5143726D2*
X5391709D1*
X4914713Y3288255D2*
X5051168D1*
X5112219D2*
X5391709D1*
X5335206Y3491077D2*
X5324667D1*
Y3496352D1*
X5313277Y3498932D1*
X5226768Y3499086D1*
X5223940Y3499884D1*
X5221376Y3501319D1*
X5219218Y3503314D1*
X5217586Y3505757D1*
X5216569Y3508514D1*
X5216224Y3511432D1*
Y3636417D1*
X5153474Y3636418D1*
X5147330Y3321997D1*
X5146532Y3319168D1*
X5145096Y3316605D1*
X5143102Y3314447D1*
X5140658Y3312814D1*
X5137902Y3311797D1*
X5134983Y3311452D1*
X5126048D1*
X5123127Y3304253D1*
X5119314Y3298032D1*
X5114575Y3292484D1*
X5109027Y3287745D1*
X5102805Y3283932D1*
X5096064Y3281140D1*
X5088969Y3279437D1*
X5081695Y3278864D1*
X5074421Y3279437D1*
X5067325Y3281140D1*
X5060584Y3283932D1*
X5054363Y3287745D1*
X5048814Y3292484D1*
X5044075Y3298032D1*
X5040263Y3304253D1*
X5037343Y3311448D1*
X4939298Y3311606D1*
X4936470Y3312403D1*
X4933906Y3313839D1*
X4931749Y3315834D1*
X4930116Y3318277D1*
X4929099Y3321034D1*
X4928754Y3323952D1*
Y3392096D1*
X4912228Y3391403D1*
X4912195Y3272853D1*
X5394215Y3272864D1*
X5394195Y3482810D1*
X5344635Y3486757D1*
X5341871Y3487753D1*
X5335227Y3491075D1*
X5281232Y3730287D2*
X5301208D1*
X5281232Y3705418D2*
X5301208D1*
X5274988Y3680549D2*
X5307451D1*
X5272470Y3681211D2*
Y3661403D1*
X5309957Y3661418D1*
X5309875Y3681325D1*
X5306102Y3685316D1*
X5304666Y3687880D1*
X5303868Y3690708D1*
X5303714Y3700162D1*
Y3755149D1*
X5278715Y3755155D1*
X5278566Y3690708D1*
X5277768Y3687880D1*
X5276332Y3685316D1*
X5272466Y3681232D1*
X5290587Y2462630D2*
X5595232D1*
X5290587Y2437762D2*
X5595232D1*
X5290587Y2412893D2*
X5595232D1*
X5290587Y2388024D2*
X5595232D1*
X5290587Y2363155D2*
X5595232D1*
X5448083Y2338287D2*
X5595232D1*
X5448083Y2313418D2*
X5595232D1*
X5448083Y2288549D2*
X5595232D1*
X5448083Y2263680D2*
X5595232D1*
X5448083Y2238812D2*
X5595232D1*
X5448083Y2213943D2*
X5595232D1*
X5448083Y2189074D2*
X5595232D1*
X5448083Y2164205D2*
X5595232D1*
X5448083Y2139336D2*
X5595232D1*
X5440440Y2114468D2*
X5595232D1*
X5270923Y2089599D2*
X5595232D1*
X5270923Y2064730D2*
X5595232D1*
X5270923Y2039861D2*
X5595232D1*
X5270923Y2014993D2*
X5595232D1*
X5270923Y1990124D2*
X5595232D1*
X5270923Y1965255D2*
X5595232D1*
X5270923Y1940386D2*
X5595232D1*
X5270923Y1915518D2*
X5595232D1*
X5270923Y1890649D2*
X5595232D1*
X5270923Y1865780D2*
X5595232D1*
X5270923Y1840911D2*
X5595232D1*
X5270923Y1816043D2*
X5595232D1*
X5270923Y1791174D2*
X5595232D1*
X5270923Y1766305D2*
X5595232D1*
X5270923Y1741436D2*
X5595232D1*
X5270923Y1716567D2*
X5595232D1*
X5270923Y1691699D2*
X5595232D1*
X5270923Y1666830D2*
X5595232D1*
X5270923Y1641961D2*
X5595232D1*
X5270923Y1617092D2*
X5595232D1*
X5270923Y1592224D2*
X5595232D1*
X5270923Y1567355D2*
X5595232D1*
X5374413Y1542486D2*
X5595232D1*
X5374413Y1517617D2*
X5595232D1*
X5374413Y1492749D2*
X5595232D1*
X5374413Y1467880D2*
X5595232D1*
X5374413Y1443011D2*
X5595232D1*
X5270923Y1418142D2*
X5595232D1*
X5270923Y1393273D2*
X5595232D1*
X5270923Y1368405D2*
X5595232D1*
X5354353Y1343536D2*
X5595232D1*
X5369963Y1318667D2*
X5595232D1*
X5374413Y1293798D2*
X5595232D1*
X5370035Y1268930D2*
X5595232D1*
X5354569Y1244061D2*
X5595232D1*
X5270923Y1219192D2*
X5595232D1*
X5270923Y1194323D2*
X5595232D1*
X5270923Y1169455D2*
X5595232D1*
X5270923Y1144586D2*
X5595232D1*
X5270923Y1119717D2*
X5595232D1*
X5268428Y1565665D2*
X5371915D1*
Y1421735D1*
X5268389D1*
X5268405Y1358385D1*
X5277712Y1362142D1*
X5288693Y1364779D1*
X5299951Y1365665D1*
X5311208Y1364779D1*
X5322189Y1362142D1*
X5332622Y1357821D1*
X5342250Y1351921D1*
X5350837Y1344587D1*
X5358171Y1336000D1*
X5364072Y1326371D1*
X5368393Y1315938D1*
X5371029Y1304958D1*
X5371915Y1293700D1*
X5371029Y1282442D1*
X5368393Y1271462D1*
X5364072Y1261029D1*
X5358171Y1251400D1*
X5350837Y1242813D1*
X5342250Y1235479D1*
X5332622Y1229579D1*
X5322189Y1225258D1*
X5311208Y1222621D1*
X5299951Y1221735D1*
X5288693Y1222621D1*
X5277712Y1225258D1*
X5268422Y1229052D1*
X5268405Y1095210D1*
X5597702Y1095176D1*
X5597735Y2487506D1*
X5288103Y2487499D1*
X5288090Y2354991D1*
X5435026Y2354865D1*
X5437854Y2354067D1*
X5440417Y2352632D1*
X5442575Y2350637D1*
X5444208Y2348194D1*
X5445225Y2345437D1*
X5445570Y2342519D1*
X5445416Y2124028D1*
X5444619Y2121200D1*
X5443183Y2118636D1*
X5441188Y2116478D1*
X5438745Y2114846D1*
X5435988Y2113829D1*
X5433070Y2113483D1*
X5268398D1*
X5268405Y1565652D1*
X2674146Y3613331D2*
D14*
X3381199D1*
X3445568D2*
X4404832D1*
X4469177D2*
X4578738D1*
X2669388Y3601462D2*
X3381199D1*
X3445568D2*
X4404832D1*
X4469177D2*
X4586895D1*
X2669388Y3589594D2*
X3381199D1*
X3445568D2*
X4404832D1*
X4469177D2*
X4595027D1*
X2669388Y3577725D2*
X3381199D1*
X3445568D2*
X4404832D1*
X4469177D2*
X4603184D1*
X2669388Y3565856D2*
X3381199D1*
X3445568D2*
X4404832D1*
X4469177D2*
X4611340D1*
X2669388Y3553987D2*
X2735941D1*
X2826466D2*
X3381199D1*
X3445568D2*
X4404832D1*
X4469177D2*
X4619473D1*
X2669388Y3542119D2*
X2735941D1*
X2846201D2*
X3381199D1*
X3445568D2*
X4404832D1*
X4469177D2*
X4627629D1*
X2669388Y3530250D2*
X2735941D1*
X2862443D2*
X3381199D1*
X3445568D2*
X4404832D1*
X4469177D2*
X4635785D1*
X2669388Y3518381D2*
X2735941D1*
X2868912D2*
X3381199D1*
X3445568D2*
X4404832D1*
X4469177D2*
X4643941D1*
X2669388Y3506512D2*
X2735941D1*
X2870880D2*
X3381199D1*
X3445568D2*
X4404832D1*
X4469177D2*
X4652074D1*
X2669388Y3494644D2*
X2735941D1*
X2869099D2*
X3381199D1*
X3445568D2*
X4404832D1*
X4469177D2*
X4660230D1*
X2669388Y3482775D2*
X2735941D1*
X2862935D2*
X2989676D1*
X3047740D2*
X3381199D1*
X3445568D2*
X4404832D1*
X4469177D2*
X4668387D1*
X2669388Y3470906D2*
X2735941D1*
X2847724D2*
X2981941D1*
X3055451D2*
X3381199D1*
X3445568D2*
X4404832D1*
X4469177D2*
X4676520D1*
X2669388Y3459037D2*
X2735941D1*
X2826466D2*
X2979129D1*
X3058287D2*
X3381199D1*
X3445568D2*
X4404832D1*
X4469177D2*
X4684676D1*
X2669388Y3447169D2*
X2980090D1*
X3057302D2*
X3381199D1*
X3445568D2*
X4404832D1*
X4469177D2*
X4692832D1*
X2669388Y3435300D2*
X2985199D1*
X3052216D2*
X3381199D1*
X3445568D2*
X4404832D1*
X4469177D2*
X4700965D1*
X2669388Y3423431D2*
X2993027D1*
X3044388D2*
X3381199D1*
X3445568D2*
X4404832D1*
X4469177D2*
X4709121D1*
X2669388Y3411562D2*
X2993027D1*
X3044388D2*
X3381199D1*
X3445568D2*
X4404832D1*
X4469177D2*
X4717277D1*
X2765341Y3399693D2*
X2993027D1*
X3044388D2*
X3381199D1*
X3445568D2*
X4404832D1*
X4469177D2*
X4725410D1*
X2765341Y3387825D2*
X2993027D1*
X3044388D2*
X3381199D1*
X3445568D2*
X4404832D1*
X4469177D2*
X4720582D1*
X2765341Y3375956D2*
X2993027D1*
X3044388D2*
X3381199D1*
X3445568D2*
X4404832D1*
X4469177D2*
X4709473D1*
X2802373Y3364087D2*
X2993027D1*
X3044388D2*
X3381199D1*
X3445568D2*
X4404832D1*
X4469177D2*
X4704832D1*
X2814630Y3352218D2*
X2993027D1*
X3044388D2*
X3381199D1*
X3445568D2*
X4404832D1*
X4469177D2*
X4704223D1*
X2819787Y3340350D2*
X2993027D1*
X3044388D2*
X3381199D1*
X3445568D2*
X4404832D1*
X4469177D2*
X4707434D1*
X2820795Y3328481D2*
X2993027D1*
X3044388D2*
X3381199D1*
X3445568D2*
X4404832D1*
X4469177D2*
X4715801D1*
X2818005Y3316612D2*
X2993027D1*
X3044388D2*
X3381199D1*
X3445568D2*
X4404832D1*
X4469177D2*
X4718027D1*
X2810341Y3304743D2*
X2993027D1*
X3044388D2*
X3381199D1*
X3445568D2*
X4404832D1*
X4469177D2*
X4718027D1*
X2812334Y3292875D2*
X2993027D1*
X3044388D2*
X3381199D1*
X3445568D2*
X4224152D1*
X4249849D2*
X4404832D1*
X4469177D2*
X4718027D1*
X2818849Y3281006D2*
X2993027D1*
X3044388D2*
X3381199D1*
X3445568D2*
X4206387D1*
X4267615D2*
X4404832D1*
X4469177D2*
X4718027D1*
X2820888Y3269137D2*
X2993027D1*
X3044388D2*
X3381199D1*
X3445568D2*
X4199566D1*
X4274459D2*
X4404832D1*
X4469177D2*
X4718027D1*
X2819154Y3257268D2*
X2993027D1*
X3044388D2*
X3381199D1*
X3445568D2*
X4197340D1*
X4276662D2*
X4404832D1*
X4469177D2*
X4718027D1*
X2813013Y3245399D2*
X2993027D1*
X3044388D2*
X3381199D1*
X3445568D2*
X4102301D1*
X4160107D2*
X4198863D1*
X4275138D2*
X4404832D1*
X4469177D2*
X4718027D1*
X2798013Y3233531D2*
X2993027D1*
X3044388D2*
X3381199D1*
X3445568D2*
X4094496D1*
X4167912D2*
X4204723D1*
X4269302D2*
X4404832D1*
X4469177D2*
X4718027D1*
X2765341Y3221662D2*
X2993027D1*
X3044388D2*
X3381199D1*
X3445568D2*
X4091637D1*
X4170771D2*
X4211332D1*
X4262693D2*
X4404832D1*
X4469177D2*
X4718027D1*
X2765341Y3209793D2*
X2993027D1*
X3044388D2*
X3381199D1*
X3445568D2*
X4092574D1*
X4169834D2*
X4211332D1*
X4262693D2*
X4404832D1*
X4469177D2*
X4718027D1*
X2787795Y3197924D2*
X2993027D1*
X3044388D2*
X3381199D1*
X3445568D2*
X4097613D1*
X4164795D2*
X4211332D1*
X4262693D2*
X4404832D1*
X4469177D2*
X4718027D1*
X2552740Y3186056D2*
X2568504D1*
X2634373D2*
X2647254D1*
X2799654D2*
X2993027D1*
X3044388D2*
X3381199D1*
X3445568D2*
X4105512D1*
X4156873D2*
X4211332D1*
X4262693D2*
X4404832D1*
X4469177D2*
X4718027D1*
X2552740Y3174187D2*
X2568012D1*
X2622513D2*
X2647254D1*
X2806263D2*
X2993027D1*
X3044388D2*
X3381199D1*
X3445568D2*
X4031051D1*
X4056349D2*
X4105512D1*
X4156873D2*
X4211332D1*
X4262693D2*
X4404832D1*
X4469177D2*
X4718027D1*
X2552740Y3162318D2*
X2568012D1*
X2619373D2*
X2647254D1*
X2806873D2*
X2993027D1*
X3044388D2*
X3381199D1*
X3445568D2*
X4013145D1*
X4074255D2*
X4105512D1*
X4156873D2*
X4211332D1*
X4262693D2*
X4313168D1*
X4360849D2*
X4404832D1*
X4469177D2*
X4718027D1*
X2552740Y3150449D2*
X2568012D1*
X2619373D2*
X2755512D1*
X2806873D2*
X2993027D1*
X3044388D2*
X3381199D1*
X3445568D2*
X4006277D1*
X4081123D2*
X4105512D1*
X4156873D2*
X4211332D1*
X4262693D2*
X4302480D1*
X4371537D2*
X4404832D1*
X4469177D2*
X4718027D1*
X2552740Y3138581D2*
X2568012D1*
X2619373D2*
X2755512D1*
X2806873D2*
X2993027D1*
X3044388D2*
X3381199D1*
X3445568D2*
X4004027D1*
X4083373D2*
X4105512D1*
X4156873D2*
X4211332D1*
X4262693D2*
X4298051D1*
X4375966D2*
X4404832D1*
X4469177D2*
X4718027D1*
X2552740Y3126712D2*
X2568012D1*
X2619373D2*
X2755512D1*
X2806873D2*
X2993027D1*
X3044388D2*
X3381199D1*
X3445568D2*
X4005551D1*
X4081849D2*
X4105512D1*
X4156873D2*
X4211332D1*
X4262693D2*
X4297582D1*
X4376435D2*
X4404832D1*
X4469177D2*
X4718027D1*
X2552740Y3114843D2*
X2568012D1*
X2619373D2*
X2755512D1*
X2806873D2*
X2993027D1*
X3044388D2*
X3381199D1*
X3445568D2*
X4011363D1*
X4076037D2*
X4105512D1*
X4156873D2*
X4211332D1*
X4262693D2*
X4300980D1*
X4373037D2*
X4404832D1*
X4469177D2*
X4718027D1*
X2552740Y3102974D2*
X2568012D1*
X2619373D2*
X2647254D1*
X2806873D2*
X2993027D1*
X3044388D2*
X3381199D1*
X3445568D2*
X4018020D1*
X4069380D2*
X4105512D1*
X4156873D2*
X4211332D1*
X4262693D2*
X4309652D1*
X4364365D2*
X4404832D1*
X4469177D2*
X4718027D1*
X2552740Y3091106D2*
X2568012D1*
X2619373D2*
X2647254D1*
X2806873D2*
X2993027D1*
X3044388D2*
X3381199D1*
X3445568D2*
X4018020D1*
X4069380D2*
X4105512D1*
X4156873D2*
X4211332D1*
X4262693D2*
X4311316D1*
X4362677D2*
X4404832D1*
X4469177D2*
X4718027D1*
X2197193Y3079237D2*
X2297332D1*
X2552740D2*
X2568012D1*
X2619373D2*
X2647254D1*
X2806873D2*
X2993027D1*
X3044388D2*
X3246480D1*
X3278412D2*
X3381199D1*
X3445568D2*
X4018020D1*
X4069380D2*
X4105512D1*
X4156873D2*
X4211332D1*
X4262693D2*
X4311316D1*
X4362677D2*
X4404832D1*
X4469177D2*
X4718027D1*
X1639357Y3067368D2*
X1665457D1*
X2180857D2*
X2309215D1*
X2552740D2*
X2568012D1*
X2619373D2*
X2647254D1*
X2806873D2*
X2993027D1*
X3044388D2*
X3230918D1*
X3293998D2*
X3381199D1*
X3445568D2*
X4018020D1*
X4069380D2*
X4105512D1*
X4156873D2*
X4211332D1*
X4262693D2*
X4311316D1*
X4362677D2*
X4404832D1*
X4469177D2*
X4718027D1*
X1156873Y3055499D2*
X1212668D1*
X1369380D2*
X1418027D1*
X1519380D2*
X1677340D1*
X2192716D2*
X2321074D1*
X2392732D2*
X2434652D1*
X2552740D2*
X2568012D1*
X2619373D2*
X2647254D1*
X2806873D2*
X2993027D1*
X3044388D2*
X3224613D1*
X3300279D2*
X3381199D1*
X3445568D2*
X4018020D1*
X4069380D2*
X4105512D1*
X4156873D2*
X4211332D1*
X4262693D2*
X4311316D1*
X4362677D2*
X4404832D1*
X4469177D2*
X4718027D1*
X1156873Y3043630D2*
X1206082D1*
X1311584D2*
X1318020D1*
X1369380D2*
X1418027D1*
X1519380D2*
X1689199D1*
X2204599D2*
X2332957D1*
X2404591D2*
X2563184D1*
X2624201D2*
X2732801D1*
X2803404D2*
X2993027D1*
X3044388D2*
X3222762D1*
X3302130D2*
X3381199D1*
X3445568D2*
X4018020D1*
X4069380D2*
X4105512D1*
X4156873D2*
X4211332D1*
X4262693D2*
X4311316D1*
X4362677D2*
X4404832D1*
X4469177D2*
X4718027D1*
X1156873Y3031762D2*
X1204020D1*
X1293185D2*
X1318020D1*
X1369380D2*
X1418027D1*
X1519380D2*
X1701059D1*
X2215615D2*
X2344816D1*
X2416451D2*
X2556293D1*
X2631091D2*
X2711848D1*
X2792576D2*
X2993027D1*
X3044388D2*
X3106535D1*
X3120232D2*
X3190535D1*
X3310216D2*
X3381199D1*
X3445568D2*
X4018020D1*
X4069380D2*
X4105512D1*
X4156873D2*
X4211332D1*
X4262693D2*
X4311316D1*
X4362677D2*
X4404832D1*
X4469177D2*
X4718027D1*
X1156873Y3019893D2*
X1205730D1*
X1281677D2*
X1318020D1*
X1369380D2*
X1418027D1*
X1519380D2*
X1712941D1*
X2219341D2*
X2356676D1*
X2428334D2*
X2554043D1*
X2633365D2*
X2689301D1*
X2780716D2*
X2993027D1*
X3044388D2*
X3083988D1*
X3142779D2*
X3179285D1*
X3322076D2*
X3381199D1*
X3445568D2*
X4018020D1*
X4069380D2*
X4105512D1*
X4156873D2*
X4211332D1*
X4262693D2*
X4311316D1*
X4362677D2*
X4404832D1*
X4469177D2*
X4718027D1*
X1156873Y3008024D2*
X1211777D1*
X1275607D2*
X1318020D1*
X1369380D2*
X1418027D1*
X1519380D2*
X1724801D1*
X2219388D2*
X2368559D1*
X2440193D2*
X2555520D1*
X2631865D2*
X2681777D1*
X2768834D2*
X2993027D1*
X3044388D2*
X3076465D1*
X3150302D2*
X3174551D1*
X3333724D2*
X3381199D1*
X3445568D2*
X4018020D1*
X4069380D2*
X4105512D1*
X4156873D2*
X4211332D1*
X4262693D2*
X4311316D1*
X4362677D2*
X4404832D1*
X4469177D2*
X4718027D1*
X1159357Y2996155D2*
X1218012D1*
X1269373D2*
X1318020D1*
X1369380D2*
X1418027D1*
X1519380D2*
X1736684D1*
X2219388D2*
X2380418D1*
X2452076D2*
X2561309D1*
X2626076D2*
X2679105D1*
X2758310D2*
X2993027D1*
X3044388D2*
X3073793D1*
X3152998D2*
X3173895D1*
X3252888D2*
X3274184D1*
X3338834D2*
X3381199D1*
X3445568D2*
X4018020D1*
X4069380D2*
X4105512D1*
X4156873D2*
X4211332D1*
X4262693D2*
X4311316D1*
X4362677D2*
X4404832D1*
X4469177D2*
X4718027D1*
X1167584Y2984287D2*
X1218012D1*
X1269373D2*
X1318020D1*
X1369380D2*
X1418027D1*
X1519380D2*
X1748543D1*
X2219388D2*
X2392301D1*
X2463935D2*
X2575277D1*
X2612107D2*
X2680184D1*
X2757209D2*
X2993027D1*
X3044388D2*
X3074871D1*
X3151896D2*
X3177035D1*
X3249724D2*
X3286043D1*
X3339068D2*
X3381199D1*
X3445568D2*
X4018020D1*
X4069380D2*
X4105512D1*
X4156873D2*
X4211332D1*
X4262693D2*
X4311316D1*
X4362677D2*
X4404832D1*
X4469177D2*
X4718027D1*
X1170701Y2972418D2*
X1218012D1*
X1269373D2*
X1318020D1*
X1369380D2*
X1418027D1*
X1570521D2*
X1760402D1*
X2219388D2*
X2404160D1*
X2475748D2*
X2685434D1*
X2751959D2*
X2993027D1*
X3044388D2*
X3080121D1*
X3146646D2*
X3185309D1*
X3241474D2*
X3287707D1*
X3339068D2*
X3381199D1*
X3445568D2*
X4018020D1*
X4069380D2*
X4105512D1*
X4156873D2*
X4211332D1*
X4262693D2*
X4311316D1*
X4362677D2*
X4404832D1*
X4469177D2*
X4718027D1*
X1169998Y2960549D2*
X1218012D1*
X1269373D2*
X1318020D1*
X1369380D2*
X1418027D1*
X1579498D2*
X1768020D1*
X2219388D2*
X2416020D1*
X2481490D2*
X2697973D1*
X2739443D2*
X2993027D1*
X3044388D2*
X3087715D1*
X3139076D2*
X3187699D1*
X3239060D2*
X3287707D1*
X3339068D2*
X3381199D1*
X3445568D2*
X4018020D1*
X4069380D2*
X4105512D1*
X4156873D2*
X4211332D1*
X4262693D2*
X4311316D1*
X4362677D2*
X4404832D1*
X4469177D2*
X4718027D1*
X1165263Y2948680D2*
X1218012D1*
X1269373D2*
X1318020D1*
X1369380D2*
X1418027D1*
X1583060D2*
X1768020D1*
X2219388D2*
X2427902D1*
X2481888D2*
X2887020D1*
X2939740D2*
X2987027D1*
X3044388D2*
X3087035D1*
X3139755D2*
X3187020D1*
X3239740D2*
X3287027D1*
X3339748D2*
X3381199D1*
X3445568D2*
X3487020D1*
X3539740D2*
X3564176D1*
X3662599D2*
X3910512D1*
X3963490D2*
X4010520D1*
X4069380D2*
X4105512D1*
X4163505D2*
X4210512D1*
X4263490D2*
X4310520D1*
X4363498D2*
X4404832D1*
X4469177D2*
X4510512D1*
X4563490D2*
X4587809D1*
X4686209D2*
X4718027D1*
X1153943Y2936812D2*
X1218012D1*
X1269373D2*
X1318020D1*
X1369380D2*
X1418027D1*
X1582755D2*
X1768020D1*
X2219388D2*
X2430527D1*
X2481888D2*
X2873941D1*
X2952841D2*
X2973949D1*
X3052826D2*
X3073934D1*
X3152834D2*
X3173941D1*
X3252841D2*
X3273949D1*
X3352826D2*
X3373934D1*
X3452834D2*
X3473941D1*
X3552841D2*
X3564176D1*
X3662599D2*
X3897504D1*
X3976521D2*
X3997512D1*
X4076505D2*
X4097496D1*
X4176513D2*
X4197504D1*
X4276521D2*
X4297512D1*
X4376505D2*
X4397496D1*
X4476513D2*
X4497504D1*
X4576521D2*
X4587809D1*
X4686209D2*
X4718027D1*
X1167373Y2924943D2*
X1218012D1*
X1269373D2*
X1318020D1*
X1369380D2*
X1418027D1*
X1578490D2*
X1768020D1*
X2219388D2*
X2430527D1*
X2481888D2*
X2867355D1*
X2959427D2*
X2967340D1*
X3059435D2*
X3067357D1*
X3159420D2*
X3167355D1*
X3259427D2*
X3267340D1*
X3359435D2*
X3367357D1*
X3459420D2*
X3467355D1*
X3662599D2*
X3890941D1*
X3983084D2*
X3990930D1*
X4083068D2*
X4090934D1*
X4183076D2*
X4190941D1*
X4283084D2*
X4290930D1*
X4383068D2*
X4390934D1*
X4483076D2*
X4490941D1*
X4686209D2*
X4718027D1*
X1178154Y2913074D2*
X1218012D1*
X1269373D2*
X1318020D1*
X1369380D2*
X1418027D1*
X1569373D2*
X1768020D1*
X2219388D2*
X2430527D1*
X2481888D2*
X2864473D1*
X3662599D2*
X3888082D1*
X4686209D2*
X4718027D1*
X1182630Y2901205D2*
X1218012D1*
X1269373D2*
X1318020D1*
X1369380D2*
X1418027D1*
X1569373D2*
X1768020D1*
X2219388D2*
X2430527D1*
X2481888D2*
X2864637D1*
X3662599D2*
X3888270D1*
X4686209D2*
X4718027D1*
X1183123Y2889336D2*
X1218012D1*
X1269373D2*
X1318020D1*
X1369380D2*
X1418027D1*
X1569373D2*
X1768020D1*
X2219388D2*
X2430527D1*
X2481888D2*
X2867871D1*
X2958912D2*
X2967879D1*
X3058896D2*
X3067863D1*
X3158904D2*
X3167871D1*
X3258912D2*
X3267879D1*
X3358896D2*
X3367863D1*
X3458904D2*
X3467871D1*
X3662599D2*
X3891527D1*
X3982498D2*
X3991512D1*
X4082482D2*
X4091520D1*
X4182490D2*
X4191527D1*
X4282498D2*
X4291512D1*
X4382482D2*
X4391520D1*
X4482490D2*
X4491527D1*
X4686209D2*
X4718027D1*
X1179795Y2877468D2*
X1218012D1*
X1269373D2*
X1318020D1*
X1369380D2*
X1418027D1*
X1569373D2*
X1768020D1*
X2219388D2*
X2430527D1*
X2481888D2*
X2874973D1*
X2951810D2*
X2974980D1*
X3051795D2*
X3074965D1*
X3151802D2*
X3174973D1*
X3251810D2*
X3274980D1*
X3351795D2*
X3374965D1*
X3451802D2*
X3474973D1*
X3551810D2*
X3564176D1*
X3662599D2*
X3898652D1*
X3975349D2*
X3998660D1*
X4075357D2*
X4098645D1*
X4175365D2*
X4198652D1*
X4275349D2*
X4298660D1*
X4375357D2*
X4398645D1*
X4475365D2*
X4498652D1*
X4575349D2*
X4587809D1*
X4686209D2*
X4718027D1*
X1171193Y2865599D2*
X1218012D1*
X1269373D2*
X1318020D1*
X1369380D2*
X1418027D1*
X1569373D2*
X1768020D1*
X2219388D2*
X2430527D1*
X2481888D2*
X2889293D1*
X2937490D2*
X2989277D1*
X3037474D2*
X3089285D1*
X3137482D2*
X3189293D1*
X3237490D2*
X3289277D1*
X3337474D2*
X3389285D1*
X3444373D2*
X3489293D1*
X3537490D2*
X3564176D1*
X3662599D2*
X3913066D1*
X3960959D2*
X4013051D1*
X4060966D2*
X4113059D1*
X4160951D2*
X4213066D1*
X4260959D2*
X4313051D1*
X4360966D2*
X4413059D1*
X4460951D2*
X4513066D1*
X4560959D2*
X4587809D1*
X4686209D2*
X4718027D1*
X1169388Y2853730D2*
X1218012D1*
X1269373D2*
X1318020D1*
X1369380D2*
X1418027D1*
X1569373D2*
X1768020D1*
X2219388D2*
X2430527D1*
X2481888D2*
X3393012D1*
X3444373D2*
X4718027D1*
X1169388Y2841861D2*
X1218012D1*
X1269373D2*
X1318020D1*
X1369380D2*
X1418027D1*
X1569373D2*
X1768020D1*
X2219388D2*
X2430527D1*
X2481888D2*
X3393012D1*
X3444373D2*
X4718027D1*
X1176326Y2829993D2*
X1211074D1*
X1276334D2*
X1311082D1*
X1376318D2*
X1411066D1*
X1576334D2*
X1611082D1*
X1676318D2*
X1711066D1*
X2276318D2*
X2430527D1*
X2481888D2*
X3393012D1*
X3444373D2*
X4718027D1*
X1186240Y2818124D2*
X1201160D1*
X1286224D2*
X1301168D1*
X1386232D2*
X1401176D1*
X1586224D2*
X1601168D1*
X1686232D2*
X1701176D1*
X2286232D2*
X2430527D1*
X2481888D2*
X3387762D1*
X3449646D2*
X4718027D1*
X2291248Y2806255D2*
X2403059D1*
X2509334D2*
X2641113D1*
X2671287D2*
X3381129D1*
X3456279D2*
X4718027D1*
X2292912Y2794386D2*
X2403059D1*
X2509334D2*
X2619785D1*
X2692615D2*
X3379020D1*
X3458365D2*
X4718027D1*
X2291576Y2782518D2*
X2403059D1*
X2509334D2*
X2610223D1*
X2702177D2*
X3380684D1*
X3456724D2*
X4718027D1*
X1187013Y2770649D2*
X1200387D1*
X1287021D2*
X1300395D1*
X1387005D2*
X1400379D1*
X1587021D2*
X1600395D1*
X1687005D2*
X1700379D1*
X2287005D2*
X2403059D1*
X2509334D2*
X2605113D1*
X2707287D2*
X3386684D1*
X3450701D2*
X4718027D1*
X1177849Y2758780D2*
X1209551D1*
X1277834D2*
X1309559D1*
X1377841D2*
X1409566D1*
X1577834D2*
X1609559D1*
X1677841D2*
X1709566D1*
X2277841D2*
X2403059D1*
X2509334D2*
X2603121D1*
X2709279D2*
X3401332D1*
X3436076D2*
X4718027D1*
X1169388Y2746911D2*
X1218012D1*
X1269373D2*
X1318020D1*
X1369380D2*
X1418027D1*
X1569373D2*
X1618020D1*
X1669380D2*
X1731762D1*
X1755654D2*
X1768020D1*
X2269380D2*
X2403059D1*
X2509334D2*
X2603895D1*
X2708505D2*
X4718027D1*
X1169388Y2735043D2*
X1218012D1*
X1269373D2*
X1318020D1*
X1369380D2*
X1418027D1*
X1569373D2*
X1618020D1*
X1669380D2*
X1718098D1*
X2269380D2*
X2403059D1*
X2509334D2*
X2607551D1*
X2704849D2*
X4718027D1*
X1182795Y2723174D2*
X1204605D1*
X1282802D2*
X1304613D1*
X1382787D2*
X1404598D1*
X1582802D2*
X1604613D1*
X1682787D2*
X1704598D1*
X2282787D2*
X2403059D1*
X2509334D2*
X2614910D1*
X2734193D2*
X4718027D1*
X1189568Y2711305D2*
X1197832D1*
X1289552D2*
X1297840D1*
X1389560D2*
X1397848D1*
X1589552D2*
X1597840D1*
X1689560D2*
X1697848D1*
X2289560D2*
X2403059D1*
X2509334D2*
X2628879D1*
X2750084D2*
X4718027D1*
X2292560Y2699436D2*
X2579684D1*
X2670232D2*
X2680934D1*
X2756459D2*
X4718027D1*
X2292513Y2687567D2*
X2579684D1*
X2670232D2*
X2679012D1*
X2758380D2*
X3934395D1*
X3952990D2*
X4718027D1*
X1189404Y2675699D2*
X1197996D1*
X1289412D2*
X1298004D1*
X1389396D2*
X1397988D1*
X1589412D2*
X1598004D1*
X1689396D2*
X1697988D1*
X2289396D2*
X2579684D1*
X2756552D2*
X3913910D1*
X3973498D2*
X4718027D1*
X1182490Y2663830D2*
X1204910D1*
X1282474D2*
X1304918D1*
X1382482D2*
X1404926D1*
X1582474D2*
X1604918D1*
X1682482D2*
X1704926D1*
X2282482D2*
X2579684D1*
X2750271D2*
X3906621D1*
X3980787D2*
X4718027D1*
X1168615Y2651961D2*
X1211777D1*
X1268623D2*
X1318770D1*
X1368630D2*
X1418027D1*
X1580529D2*
X1618770D1*
X1668630D2*
X1718027D1*
X2268630D2*
X2579684D1*
X2734779D2*
X3904066D1*
X3983318D2*
X4718027D1*
X1128349Y2640092D2*
X1211777D1*
X1263138D2*
X1416762D1*
X1583295D2*
X1718027D1*
X2233216D2*
X2579684D1*
X2704873D2*
X3905309D1*
X3982099D2*
X4718027D1*
X1128232Y2628224D2*
X1211777D1*
X1263138D2*
X1369254D1*
X1582263D2*
X1717395D1*
X2230123D2*
X2579684D1*
X2670232D2*
X3910746D1*
X3976662D2*
X4719832D1*
X1128138Y2616355D2*
X1211777D1*
X1263138D2*
X1355145D1*
X1577084D2*
X1705535D1*
X2221966D2*
X2579684D1*
X2670232D2*
X3918012D1*
X3969373D2*
X4728973D1*
X1128021Y2604486D2*
X1211777D1*
X1263138D2*
X1349309D1*
X1452795D2*
X1468020D1*
X1564755D2*
X1693676D1*
X2169373D2*
X3918012D1*
X3969373D2*
X4740855D1*
X1127927Y2592617D2*
X1211777D1*
X1263138D2*
X1347785D1*
X1440935D2*
X1468020D1*
X1519380D2*
X1681793D1*
X2169373D2*
X3918012D1*
X3969373D2*
X4752715D1*
X1127810Y2580749D2*
X1211777D1*
X1263138D2*
X1350012D1*
X1429076D2*
X1462863D1*
X1524537D2*
X1669934D1*
X2101263D2*
X2118012D1*
X2169373D2*
X3094605D1*
X3117795D2*
X3918012D1*
X3969373D2*
X4657113D1*
X4680302D2*
X4755527D1*
X1127693Y2568880D2*
X1211777D1*
X1263138D2*
X1356855D1*
X1418060D2*
X1456160D1*
X1531240D2*
X1658051D1*
X2081880D2*
X2118012D1*
X2169373D2*
X3075902D1*
X3136498D2*
X3918012D1*
X3969373D2*
X4638410D1*
X4699005D2*
X4755527D1*
X1127599Y2557011D2*
X1211777D1*
X1263138D2*
X1374645D1*
X1400248D2*
X1454027D1*
X1533373D2*
X1646191D1*
X2081880D2*
X2118012D1*
X2169373D2*
X2451387D1*
X2460996D2*
X3068895D1*
X3143505D2*
X3918012D1*
X3969373D2*
X4631402D1*
X4706013D2*
X4755527D1*
X1127482Y2545142D2*
X1211777D1*
X1263138D2*
X1455645D1*
X1531755D2*
X1634871D1*
X2081880D2*
X2118012D1*
X2169373D2*
X2427035D1*
X2485357D2*
X3066551D1*
X3146834D2*
X3918012D1*
X3969373D2*
X4629059D1*
X4708357D2*
X4755527D1*
X1127388Y2533273D2*
X1211777D1*
X1263138D2*
X1461598D1*
X1525802D2*
X1630605D1*
X2081880D2*
X2118012D1*
X2169373D2*
X2419395D1*
X2493021D2*
X3067957D1*
X3158693D2*
X3277652D1*
X3334755D2*
X3918012D1*
X3969373D2*
X4630465D1*
X4706951D2*
X4755527D1*
X1127271Y2521405D2*
X1211777D1*
X1263138D2*
X1476059D1*
X1511341D2*
X1630512D1*
X2081880D2*
X2118012D1*
X2169373D2*
X2416605D1*
X2495787D2*
X3073629D1*
X3170576D2*
X3269660D1*
X3342748D2*
X3918012D1*
X3969373D2*
X4636137D1*
X4701255D2*
X4755527D1*
X1127177Y2509536D2*
X1211777D1*
X1263138D2*
X1630512D1*
X2081880D2*
X2118012D1*
X2169373D2*
X2417637D1*
X2494779D2*
X3087293D1*
X3182435D2*
X3266660D1*
X3345724D2*
X3918012D1*
X3969373D2*
X4643027D1*
X4698279D2*
X4755527D1*
X1127060Y2497667D2*
X1210910D1*
X1263982D2*
X1630512D1*
X2081880D2*
X2118012D1*
X2169373D2*
X2422770D1*
X2489623D2*
X3122660D1*
X3194295D2*
X3204668D1*
X3257740D2*
X3267480D1*
X3344927D2*
X3918012D1*
X3969373D2*
X4643027D1*
X4705920D2*
X4755527D1*
X1126966Y2485798D2*
X1201770D1*
X1273123D2*
X1630512D1*
X2081998D2*
X2118012D1*
X2169373D2*
X2430527D1*
X2481888D2*
X3134543D1*
X3340029D2*
X3918012D1*
X3969373D2*
X4643566D1*
X1126849Y2473930D2*
X1198137D1*
X1276779D2*
X1630512D1*
X2091560D2*
X2118012D1*
X2169373D2*
X2430527D1*
X2481888D2*
X3146402D1*
X3270513D2*
X3280512D1*
X3331873D2*
X3918012D1*
X3969373D2*
X4649871D1*
X1126732Y2462061D2*
X1198348D1*
X1276545D2*
X1630512D1*
X2095427D2*
X2118012D1*
X2169373D2*
X2319504D1*
X2367888D2*
X2430527D1*
X2481888D2*
X3158262D1*
X3270302D2*
X3280512D1*
X3331873D2*
X3918012D1*
X3969373D2*
X4655520D1*
X1126638Y2450192D2*
X1202520D1*
X1272396D2*
X1582887D1*
X2095404D2*
X2109035D1*
X2178373D2*
X2309027D1*
X2378365D2*
X2430527D1*
X2481888D2*
X3107895D1*
X3154521D2*
X3161789D1*
X3266130D2*
X3280512D1*
X3331873D2*
X3918012D1*
X3969373D2*
X4595379D1*
X4642005D2*
X4655520D1*
X1126521Y2438323D2*
X1212621D1*
X1262271D2*
X1571895D1*
X2091466D2*
X2104676D1*
X2182709D2*
X2304691D1*
X2382724D2*
X2430527D1*
X2481888D2*
X3096902D1*
X3256873D2*
X3280512D1*
X3331873D2*
X3918012D1*
X3969373D2*
X4584410D1*
X1126427Y2426455D2*
X1567301D1*
X2081810D2*
X2104324D1*
X2183084D2*
X2304316D1*
X2383076D2*
X2430527D1*
X2481888D2*
X2660918D1*
X2751466D2*
X3092309D1*
X3256873D2*
X3280512D1*
X3331873D2*
X3473426D1*
X3563974D2*
X3918012D1*
X3969373D2*
X4179668D1*
X4270216D2*
X4579816D1*
X1164045Y2414586D2*
X1560738D1*
X2051482D2*
X2107793D1*
X2179615D2*
X2307785D1*
X2379607D2*
X2430527D1*
X2481888D2*
X2523363D1*
X2564037D2*
X2573355D1*
X2614029D2*
X2623384D1*
X2751466D2*
X3085723D1*
X3256873D2*
X3280512D1*
X3364029D2*
X3373384D1*
X3414045D2*
X3423363D1*
X3464037D2*
X3473426D1*
X3563974D2*
X3918012D1*
X3969373D2*
X4023363D1*
X4064037D2*
X4073355D1*
X4114029D2*
X4123384D1*
X4164045D2*
X4179668D1*
X4270216D2*
X4573230D1*
X1176795Y2402717D2*
X1560738D1*
X2051482D2*
X2116629D1*
X2170779D2*
X2316621D1*
X2370771D2*
X2430527D1*
X2481888D2*
X2510590D1*
X2751466D2*
X3085723D1*
X3256873D2*
X3280512D1*
X3563974D2*
X3918012D1*
X3969373D2*
X4010590D1*
X4270216D2*
X4573230D1*
X1182162Y2390848D2*
X1560738D1*
X2051482D2*
X2318027D1*
X2369388D2*
X2430527D1*
X2481888D2*
X2505246D1*
X2751466D2*
X3085723D1*
X3256873D2*
X3280512D1*
X3563974D2*
X3918012D1*
X3969373D2*
X4005246D1*
X4270216D2*
X4573230D1*
X1183310Y2378980D2*
X1560738D1*
X2051482D2*
X2318027D1*
X2369388D2*
X2430527D1*
X2481888D2*
X2504074D1*
X2751466D2*
X3085723D1*
X3256873D2*
X3280512D1*
X3563974D2*
X3918012D1*
X3969373D2*
X4004074D1*
X4270216D2*
X4573230D1*
X2051482Y2367111D2*
X2318027D1*
X2369388D2*
X2430527D1*
X2481888D2*
X2506699D1*
X2751466D2*
X3085723D1*
X3256873D2*
X3280512D1*
X3563974D2*
X3918012D1*
X3969373D2*
X4006699D1*
X4270216D2*
X4573230D1*
X3030068Y2355242D2*
X3085723D1*
X3256873D2*
X3280512D1*
X3563974D2*
X3918012D1*
X3969373D2*
X4014105D1*
X4270216D2*
X4573230D1*
X4270216Y2343373D2*
X4320059D1*
X4342334D2*
X4573230D1*
X1561933Y2370169D2*
Y2416708D1*
X1567769D1*
X1567839Y2421719D1*
X1568783Y2427683D1*
X1570649Y2433426D1*
X1573390Y2438806D1*
X1576940Y2443691D1*
X1581209Y2447960D1*
X1586094Y2451510D1*
X1591474Y2454251D1*
X1597217Y2456117D1*
X1603181Y2457061D1*
X1609219D1*
X1615183Y2456117D1*
X1620926Y2454251D1*
X1626306Y2451510D1*
X1631191Y2447960D1*
X1631719Y2447472D1*
X1631795Y2533121D1*
X1632396Y2536915D1*
X1633583Y2540568D1*
X1635327Y2543991D1*
X1637585Y2547099D1*
X1660103Y2569723D1*
X1719218Y2628838D1*
X1719220Y2652380D1*
X1715482Y2654861D1*
X1709754Y2659754D1*
X1704861Y2665482D1*
X1700925Y2671905D1*
X1698042Y2678865D1*
X1696283Y2686190D1*
X1695692Y2693700D1*
X1696283Y2701210D1*
X1698042Y2708535D1*
X1700925Y2715495D1*
X1704861Y2721918D1*
X1709754Y2727646D1*
X1715482Y2732539D1*
X1721905Y2736475D1*
X1728865Y2739358D1*
X1736190Y2741117D1*
X1743700Y2741708D1*
X1751210Y2741117D1*
X1758535Y2739358D1*
X1765495Y2736475D1*
X1769212Y2734347D1*
X1769220Y2753036D1*
X1765495Y2750925D1*
X1758535Y2748042D1*
X1751210Y2746283D1*
X1743700Y2745692D1*
X1736190Y2746283D1*
X1728865Y2748042D1*
X1721905Y2750925D1*
X1715482Y2754861D1*
X1709754Y2759754D1*
X1704861Y2765482D1*
X1700925Y2771905D1*
X1698042Y2778865D1*
X1696283Y2786190D1*
X1695692Y2793700D1*
X1696283Y2801210D1*
X1698042Y2808535D1*
X1700925Y2815495D1*
X1704861Y2821918D1*
X1709754Y2827646D1*
X1715482Y2832539D1*
X1721905Y2836475D1*
X1728865Y2839358D1*
X1736190Y2841117D1*
X1743700Y2841708D1*
X1751210Y2841117D1*
X1758535Y2839358D1*
X1765495Y2836475D1*
X1769212Y2834347D1*
X1769220Y2964817D1*
X1666065Y3067965D1*
X1521637Y3064889D1*
X1518169Y3061404D1*
X1518180Y2972484D1*
X1521082Y2974831D1*
X1526230Y2977986D1*
X1531809Y2980297D1*
X1537680Y2981706D1*
X1543700Y2982180D1*
X1549720Y2981706D1*
X1555591Y2980297D1*
X1561170Y2977986D1*
X1566318Y2974831D1*
X1570909Y2970909D1*
X1574831Y2966318D1*
X1577986Y2961170D1*
X1580297Y2955591D1*
X1581706Y2949720D1*
X1582180Y2943700D1*
X1581706Y2937680D1*
X1580297Y2931809D1*
X1577986Y2926230D1*
X1574831Y2921082D1*
X1570909Y2916491D1*
X1568181Y2914038D1*
X1568180Y2835020D1*
X1571918Y2832539D1*
X1577646Y2827646D1*
X1582539Y2821918D1*
X1586475Y2815495D1*
X1589358Y2808535D1*
X1591117Y2801210D1*
X1591708Y2793700D1*
X1591117Y2786190D1*
X1589358Y2778865D1*
X1586475Y2771905D1*
X1582539Y2765482D1*
X1577646Y2759754D1*
X1571918Y2754861D1*
X1568180Y2752429D1*
Y2734989D1*
X1571918Y2732539D1*
X1577646Y2727646D1*
X1582539Y2721918D1*
X1586475Y2715495D1*
X1589358Y2708535D1*
X1591117Y2701210D1*
X1591708Y2693700D1*
X1591117Y2686190D1*
X1589358Y2678865D1*
X1586475Y2671905D1*
X1582539Y2665482D1*
X1577646Y2659754D1*
X1576057Y2658284D1*
X1577986Y2654920D1*
X1580297Y2649341D1*
X1581706Y2643470D1*
X1582180Y2637450D1*
X1581706Y2631430D1*
X1580297Y2625559D1*
X1577986Y2619980D1*
X1574831Y2614832D1*
X1570909Y2610241D1*
X1566318Y2606319D1*
X1561170Y2603164D1*
X1555591Y2600853D1*
X1549720Y2599444D1*
X1543700Y2598970D1*
X1537680Y2599444D1*
X1531809Y2600853D1*
X1526230Y2603164D1*
X1521082Y2606319D1*
X1518181Y2608678D1*
X1518180Y2585906D1*
X1520909Y2583409D1*
X1524831Y2578818D1*
X1527986Y2573670D1*
X1530297Y2568091D1*
X1531706Y2562220D1*
X1532180Y2556200D1*
X1531706Y2550180D1*
X1530297Y2544309D1*
X1527986Y2538730D1*
X1524831Y2533582D1*
X1520909Y2528991D1*
X1516318Y2525069D1*
X1511170Y2521914D1*
X1505591Y2519603D1*
X1499720Y2518194D1*
X1493700Y2517720D1*
X1487680Y2518194D1*
X1481809Y2519603D1*
X1476230Y2521914D1*
X1471082Y2525069D1*
X1466491Y2528991D1*
X1462569Y2533582D1*
X1459414Y2538730D1*
X1457103Y2544309D1*
X1455694Y2550180D1*
X1455220Y2556200D1*
X1455694Y2562220D1*
X1457103Y2568091D1*
X1459414Y2573670D1*
X1462569Y2578818D1*
X1466491Y2583409D1*
X1469219Y2585862D1*
X1469220Y2653020D1*
X1468180Y2652429D1*
X1468105Y2627476D1*
X1467504Y2623682D1*
X1466317Y2620028D1*
X1464573Y2616605D1*
X1462315Y2613498D1*
X1459599Y2610781D1*
X1456491Y2608524D1*
X1454807Y2607581D1*
X1423510Y2576390D1*
X1420260Y2573594D1*
X1416710Y2568709D1*
X1412441Y2564440D1*
X1407556Y2560890D1*
X1402176Y2558149D1*
X1396433Y2556283D1*
X1390469Y2555339D1*
X1384431D1*
X1378467Y2556283D1*
X1372724Y2558149D1*
X1367344Y2560890D1*
X1362459Y2564440D1*
X1358190Y2568709D1*
X1354640Y2573594D1*
X1351899Y2578974D1*
X1350033Y2584717D1*
X1349089Y2590681D1*
Y2596719D1*
X1350033Y2602683D1*
X1351899Y2608426D1*
X1354640Y2613806D1*
X1358190Y2618691D1*
X1362459Y2622960D1*
X1367344Y2626510D1*
X1372724Y2629251D1*
X1378467Y2631117D1*
X1384431Y2632061D1*
X1390469D1*
X1396433Y2631117D1*
X1402176Y2629251D1*
X1405527Y2627646D1*
X1419220Y2641396D1*
Y2652388D1*
X1415482Y2654861D1*
X1409754Y2659754D1*
X1404861Y2665482D1*
X1400925Y2671905D1*
X1398042Y2678865D1*
X1396283Y2686190D1*
X1395692Y2693700D1*
X1396283Y2701210D1*
X1398042Y2708535D1*
X1400925Y2715495D1*
X1404861Y2721918D1*
X1409754Y2727646D1*
X1415482Y2732539D1*
X1419220Y2734971D1*
Y2752411D1*
X1415482Y2754861D1*
X1409754Y2759754D1*
X1404861Y2765482D1*
X1400925Y2771905D1*
X1398042Y2778865D1*
X1396283Y2786190D1*
X1395692Y2793700D1*
X1396283Y2801210D1*
X1398042Y2808535D1*
X1400925Y2815495D1*
X1404861Y2821918D1*
X1409754Y2827646D1*
X1415482Y2832539D1*
X1419220Y2834971D1*
Y3062692D1*
X1368203Y3061624D1*
X1368180Y2835005D1*
X1371918Y2832539D1*
X1377646Y2827646D1*
X1382539Y2821918D1*
X1386475Y2815495D1*
X1389358Y2808535D1*
X1391117Y2801210D1*
X1391708Y2793700D1*
X1391117Y2786190D1*
X1389358Y2778865D1*
X1386475Y2771905D1*
X1382539Y2765482D1*
X1377646Y2759754D1*
X1371918Y2754861D1*
X1368180Y2752429D1*
Y2734989D1*
X1371918Y2732539D1*
X1377646Y2727646D1*
X1382539Y2721918D1*
X1386475Y2715495D1*
X1389358Y2708535D1*
X1391117Y2701210D1*
X1391708Y2693700D1*
X1391117Y2686190D1*
X1389358Y2678865D1*
X1386475Y2671905D1*
X1382539Y2665482D1*
X1377646Y2659754D1*
X1371918Y2654861D1*
X1365495Y2650925D1*
X1358535Y2648042D1*
X1351210Y2646283D1*
X1343700Y2645692D1*
X1336190Y2646283D1*
X1328865Y2648042D1*
X1321905Y2650925D1*
X1315482Y2654861D1*
X1309754Y2659754D1*
X1304861Y2665482D1*
X1300925Y2671905D1*
X1298042Y2678865D1*
X1296283Y2686190D1*
X1295692Y2693700D1*
X1296283Y2701210D1*
X1298042Y2708535D1*
X1300925Y2715495D1*
X1304861Y2721918D1*
X1309754Y2727646D1*
X1315482Y2732539D1*
X1319220Y2734971D1*
Y2752411D1*
X1315482Y2754861D1*
X1309754Y2759754D1*
X1304861Y2765482D1*
X1300925Y2771905D1*
X1298042Y2778865D1*
X1296283Y2786190D1*
X1295692Y2793700D1*
X1296283Y2801210D1*
X1298042Y2808535D1*
X1300925Y2815495D1*
X1304861Y2821918D1*
X1309754Y2827646D1*
X1315482Y2832539D1*
X1319220Y2834971D1*
Y3060583D1*
X1318617Y3059717D1*
X1316751Y3053974D1*
X1314010Y3048594D1*
X1310460Y3043709D1*
X1306191Y3039440D1*
X1301306Y3035890D1*
X1295926Y3033149D1*
X1290183Y3031283D1*
X1284219Y3030339D1*
X1282179Y3030258D1*
X1281706Y3025180D1*
X1280297Y3019309D1*
X1277986Y3013730D1*
X1274831Y3008582D1*
X1270909Y3003991D1*
X1268181Y3001538D1*
X1268180Y2835005D1*
X1271918Y2832539D1*
X1277646Y2827646D1*
X1282539Y2821918D1*
X1286475Y2815495D1*
X1289358Y2808535D1*
X1291117Y2801210D1*
X1291708Y2793700D1*
X1291117Y2786190D1*
X1289358Y2778865D1*
X1286475Y2771905D1*
X1282539Y2765482D1*
X1277646Y2759754D1*
X1271918Y2754861D1*
X1268180Y2752429D1*
Y2734989D1*
X1271918Y2732539D1*
X1277646Y2727646D1*
X1282539Y2721918D1*
X1286475Y2715495D1*
X1289358Y2708535D1*
X1291117Y2701210D1*
X1291708Y2693700D1*
X1291117Y2686190D1*
X1289358Y2678865D1*
X1286475Y2671905D1*
X1282539Y2665482D1*
X1277646Y2659754D1*
X1271918Y2654861D1*
X1265495Y2650925D1*
X1261920Y2649291D1*
X1261931Y2498395D1*
X1264660Y2495909D1*
X1268582Y2491318D1*
X1271737Y2486170D1*
X1274047Y2480591D1*
X1275457Y2474720D1*
X1275931Y2468700D1*
X1275457Y2462680D1*
X1274047Y2456809D1*
X1271737Y2451230D1*
X1268582Y2446082D1*
X1264660Y2441491D1*
X1260069Y2437569D1*
X1254920Y2434414D1*
X1249342Y2432103D1*
X1243470Y2430694D1*
X1237451Y2430220D1*
X1231431Y2430694D1*
X1225560Y2432103D1*
X1219981Y2434414D1*
X1214833Y2437569D1*
X1210241Y2441491D1*
X1206320Y2446082D1*
X1203165Y2451230D1*
X1200854Y2456809D1*
X1199444Y2462680D1*
X1198971Y2468700D1*
X1199444Y2474720D1*
X1200854Y2480591D1*
X1203165Y2486170D1*
X1206320Y2491318D1*
X1210241Y2495909D1*
X1212970Y2498362D1*
X1212971Y2656833D1*
X1209754Y2659754D1*
X1204861Y2665482D1*
X1200925Y2671905D1*
X1198042Y2678865D1*
X1196283Y2686190D1*
X1195692Y2693700D1*
X1196283Y2701210D1*
X1198042Y2708535D1*
X1200925Y2715495D1*
X1204861Y2721918D1*
X1209754Y2727646D1*
X1215482Y2732539D1*
X1219220Y2734971D1*
Y2752411D1*
X1215482Y2754861D1*
X1209754Y2759754D1*
X1204861Y2765482D1*
X1200925Y2771905D1*
X1198042Y2778865D1*
X1196283Y2786190D1*
X1195692Y2793700D1*
X1196283Y2801210D1*
X1198042Y2808535D1*
X1200925Y2815495D1*
X1204861Y2821918D1*
X1209754Y2827646D1*
X1215482Y2832539D1*
X1219220Y2834971D1*
Y3001520D1*
X1216491Y3003991D1*
X1212569Y3008582D1*
X1209414Y3013730D1*
X1207103Y3019309D1*
X1205694Y3025180D1*
X1205220Y3031200D1*
X1205694Y3037220D1*
X1207103Y3043091D1*
X1209414Y3048670D1*
X1212569Y3053818D1*
X1216483Y3058401D1*
X1155673Y3057102D1*
X1155680Y2998411D1*
X1158409Y2995909D1*
X1162331Y2991318D1*
X1165486Y2986170D1*
X1167797Y2980591D1*
X1169206Y2974720D1*
X1169680Y2968700D1*
X1169206Y2962680D1*
X1167797Y2956809D1*
X1165486Y2951230D1*
X1162331Y2946082D1*
X1158409Y2941491D1*
X1153818Y2937569D1*
X1148670Y2934414D1*
X1143301Y2932181D1*
X1149720Y2931706D1*
X1155591Y2930297D1*
X1161170Y2927986D1*
X1166318Y2924831D1*
X1170909Y2920909D1*
X1174831Y2916318D1*
X1177986Y2911170D1*
X1180297Y2905591D1*
X1181706Y2899720D1*
X1182180Y2893700D1*
X1181706Y2887680D1*
X1180297Y2881809D1*
X1177986Y2876230D1*
X1174831Y2871082D1*
X1170909Y2866491D1*
X1168181Y2864038D1*
X1168180Y2834989D1*
X1171918Y2832539D1*
X1177646Y2827646D1*
X1182539Y2821918D1*
X1186475Y2815495D1*
X1189358Y2808535D1*
X1191117Y2801210D1*
X1191708Y2793700D1*
X1191117Y2786190D1*
X1189358Y2778865D1*
X1186475Y2771905D1*
X1182539Y2765482D1*
X1177646Y2759754D1*
X1171918Y2754861D1*
X1168180Y2752429D1*
Y2734989D1*
X1171918Y2732539D1*
X1177646Y2727646D1*
X1182539Y2721918D1*
X1186475Y2715495D1*
X1189358Y2708535D1*
X1191117Y2701210D1*
X1191708Y2693700D1*
X1191117Y2686190D1*
X1189358Y2678865D1*
X1186475Y2671905D1*
X1182539Y2665482D1*
X1177646Y2659754D1*
X1171918Y2654861D1*
X1165495Y2650925D1*
X1158535Y2648042D1*
X1151210Y2646283D1*
X1143700Y2645692D1*
X1136190Y2646283D1*
X1128865Y2648042D1*
X1127221Y2648649D1*
X1125117Y2414914D1*
X1128974Y2416751D1*
X1134717Y2418617D1*
X1140681Y2419561D1*
X1146719D1*
X1152683Y2418617D1*
X1158426Y2416751D1*
X1163806Y2414010D1*
X1168691Y2410460D1*
X1172960Y2406191D1*
X1176510Y2401306D1*
X1179251Y2395926D1*
X1181117Y2390183D1*
X1182061Y2384219D1*
Y2378181D1*
X1181483Y2374058D1*
X1561918Y2370185D1*
X4574433Y2339513D2*
Y2416707D1*
X4580269D1*
X4580339Y2421719D1*
X4581283Y2427683D1*
X4583149Y2433426D1*
X4585890Y2438806D1*
X4589440Y2443691D1*
X4593709Y2447960D1*
X4598594Y2451510D1*
X4603974Y2454251D1*
X4609717Y2456117D1*
X4615681Y2457061D1*
X4621719D1*
X4627683Y2456117D1*
X4633426Y2454251D1*
X4638806Y2451510D1*
X4643691Y2447960D1*
X4647960Y2443691D1*
X4651510Y2438806D1*
X4654251Y2433426D1*
X4656117Y2427683D1*
X4656720Y2425200D1*
Y2469567D1*
X4654311Y2471104D1*
X4651390Y2473599D1*
X4648895Y2476520D1*
X4646888Y2479795D1*
X4645418Y2483344D1*
X4644521Y2487079D1*
X4644220Y2490909D1*
Y2513995D1*
X4641491Y2516491D1*
X4637569Y2521082D1*
X4634414Y2526230D1*
X4632103Y2531809D1*
X4630694Y2537680D1*
X4630220Y2543700D1*
X4630694Y2549720D1*
X4632103Y2555591D1*
X4634414Y2561170D1*
X4637569Y2566318D1*
X4641491Y2570909D1*
X4646082Y2574831D1*
X4651230Y2577986D1*
X4656809Y2580297D1*
X4662680Y2581706D1*
X4668700Y2582180D1*
X4674720Y2581706D1*
X4680591Y2580297D1*
X4686170Y2577986D1*
X4691318Y2574831D1*
X4695909Y2570909D1*
X4699831Y2566318D1*
X4702986Y2561170D1*
X4705297Y2555591D1*
X4706706Y2549720D1*
X4707180Y2543700D1*
X4706706Y2537680D1*
X4705297Y2531809D1*
X4702986Y2526230D1*
X4699831Y2521082D1*
X4695909Y2516491D1*
X4693181Y2514038D1*
X4693180Y2512270D1*
X4697099Y2509523D1*
X4699815Y2506807D1*
X4702073Y2503699D1*
X4703817Y2500277D1*
X4705004Y2496623D1*
X4705605Y2492829D1*
X4705680Y2490901D1*
X4708582Y2487331D1*
X4713730Y2490486D1*
X4719309Y2492797D1*
X4725180Y2494206D1*
X4731200Y2494680D1*
X4737220Y2494206D1*
X4743091Y2492797D1*
X4748670Y2490486D1*
X4753818Y2487331D1*
X4756719Y2484972D1*
X4756720Y2589802D1*
X4725085Y2621552D1*
X4722827Y2624660D1*
X4721083Y2628083D1*
X4719896Y2631736D1*
X4719295Y2635530D1*
X4719220Y2667451D1*
Y3326490D1*
X4716491Y3328991D1*
X4712569Y3333582D1*
X4709414Y3338730D1*
X4707103Y3344309D1*
X4705694Y3350180D1*
X4705220Y3356200D1*
X4705694Y3362220D1*
X4707103Y3368091D1*
X4709414Y3373670D1*
X4712569Y3378818D1*
X4716491Y3383409D1*
X4721082Y3387331D1*
X4726230Y3390486D1*
X4731444Y3392662D1*
X4571791Y3625200D1*
X4468005D1*
X4467987Y2944524D1*
X4470954Y2941820D1*
X4475846Y2936091D1*
X4479782Y2929668D1*
X4482665Y2922708D1*
X4484424Y2915383D1*
X4485015Y2907873D1*
X4484424Y2900363D1*
X4482665Y2893038D1*
X4479782Y2886078D1*
X4475846Y2879655D1*
X4470954Y2873927D1*
X4465225Y2869034D1*
X4458802Y2865098D1*
X4451842Y2862215D1*
X4444517Y2860457D1*
X4437007Y2859866D1*
X4429497Y2860457D1*
X4422172Y2862215D1*
X4415212Y2865098D1*
X4408789Y2869034D1*
X4403061Y2873927D1*
X4398168Y2879655D1*
X4394232Y2886078D1*
X4391349Y2893038D1*
X4389591Y2900363D1*
X4389000Y2907873D1*
X4389591Y2915383D1*
X4391349Y2922708D1*
X4394232Y2929668D1*
X4398168Y2936091D1*
X4403061Y2941820D1*
X4406025Y2944533D1*
X4406027Y3625178D1*
X3444348Y3625200D1*
X3444365Y2944477D1*
X3447332Y2941741D1*
X3452224Y2936013D1*
X3456160Y2929589D1*
X3459043Y2922630D1*
X3460802Y2915305D1*
X3461393Y2907794D1*
X3460802Y2900284D1*
X3459043Y2892959D1*
X3456160Y2886000D1*
X3452224Y2879576D1*
X3447332Y2873848D1*
X3443187Y2870204D1*
X3443180Y2823396D1*
X3445909Y2820909D1*
X3449831Y2816318D1*
X3452986Y2811170D1*
X3455297Y2805591D1*
X3456706Y2799720D1*
X3457180Y2793700D1*
X3456706Y2787680D1*
X3455297Y2781809D1*
X3452986Y2776230D1*
X3449831Y2771082D1*
X3445909Y2766491D1*
X3441318Y2762569D1*
X3436170Y2759414D1*
X3430591Y2757103D1*
X3424720Y2755694D1*
X3418700Y2755220D1*
X3412680Y2755694D1*
X3406809Y2757103D1*
X3401230Y2759414D1*
X3396082Y2762569D1*
X3391491Y2766491D1*
X3387569Y2771082D1*
X3384414Y2776230D1*
X3382103Y2781809D1*
X3380694Y2787680D1*
X3380220Y2793700D1*
X3380694Y2799720D1*
X3382103Y2805591D1*
X3384414Y2811170D1*
X3387569Y2816318D1*
X3391491Y2820909D1*
X3394219Y2823362D1*
X3394220Y2863802D1*
X3388301Y2866861D1*
X3382207Y2871289D1*
X3376880Y2876616D1*
X3372452Y2882711D1*
X3369032Y2889423D1*
X3366704Y2896587D1*
X3365525Y2904028D1*
Y2911561D1*
X3366704Y2919002D1*
X3369032Y2926166D1*
X3372452Y2932878D1*
X3376880Y2938973D1*
X3382207Y2944300D1*
X3382403Y2944455D1*
X3382405Y3625193D1*
X2684833Y3625200D1*
X2668165Y3608545D1*
X2668180Y3411489D1*
X2764149Y3411491D1*
Y3365717D1*
X2769309Y3367797D1*
X2775180Y3369206D1*
X2781200Y3369680D1*
X2787220Y3369206D1*
X2793091Y3367797D1*
X2798670Y3365486D1*
X2803818Y3362331D1*
X2808409Y3358409D1*
X2812331Y3353818D1*
X2815486Y3348670D1*
X2817797Y3343091D1*
X2819206Y3337220D1*
X2819680Y3331200D1*
X2819206Y3325180D1*
X2817797Y3319309D1*
X2815486Y3313730D1*
X2812331Y3308582D1*
X2808409Y3303991D1*
X2803651Y3299958D1*
X2808409Y3295909D1*
X2812331Y3291318D1*
X2815486Y3286170D1*
X2817797Y3280591D1*
X2819206Y3274720D1*
X2819680Y3268700D1*
X2819206Y3262680D1*
X2817797Y3256809D1*
X2815486Y3251230D1*
X2812331Y3246082D1*
X2808409Y3241491D1*
X2803818Y3237569D1*
X2798670Y3234414D1*
X2793091Y3232103D1*
X2787220Y3230694D1*
X2781200Y3230220D1*
X2775180Y3230694D1*
X2769309Y3232103D1*
X2764148Y3234221D1*
X2764149Y3205686D1*
X2770621Y3205605D1*
X2774415Y3205004D1*
X2778068Y3203817D1*
X2781491Y3202073D1*
X2784599Y3199815D1*
X2798510Y3186010D1*
X2801005Y3183089D1*
X2803012Y3179814D1*
X2804482Y3176265D1*
X2805379Y3172530D1*
X2805680Y3168692D1*
X2805605Y3054279D1*
X2805004Y3050485D1*
X2803817Y3046832D1*
X2802073Y3043409D1*
X2799815Y3040301D1*
X2777297Y3017677D1*
X2756995Y2997375D1*
X2757180Y2993700D1*
X2756706Y2987680D1*
X2755297Y2981809D1*
X2752986Y2976230D1*
X2749831Y2971082D1*
X2745909Y2966491D1*
X2741318Y2962569D1*
X2736170Y2959414D1*
X2730591Y2957103D1*
X2724720Y2955694D1*
X2718700Y2955220D1*
X2712680Y2955694D1*
X2706809Y2957103D1*
X2701230Y2959414D1*
X2696082Y2962569D1*
X2691491Y2966491D1*
X2687569Y2971082D1*
X2684414Y2976230D1*
X2682103Y2981809D1*
X2680694Y2987680D1*
X2680220Y2993700D1*
X2680694Y2999720D1*
X2682103Y3005591D1*
X2684414Y3011170D1*
X2687569Y3016318D1*
X2691491Y3020909D1*
X2696082Y3024831D1*
X2701230Y3027986D1*
X2706809Y3030297D1*
X2712680Y3031706D1*
X2718700Y3032180D1*
X2722364Y3031985D1*
X2741281Y3050901D1*
X2648449Y3050909D1*
Y3111491D1*
X2756706D1*
X2756720Y3150911D1*
X2648449Y3150909D1*
Y3201323D1*
X2618169Y3171049D1*
X2618180Y3048380D1*
X2620909Y3045909D1*
X2624831Y3041318D1*
X2627986Y3036170D1*
X2630297Y3030591D1*
X2631706Y3024720D1*
X2632180Y3018700D1*
X2631706Y3012680D1*
X2630297Y3006809D1*
X2627986Y3001230D1*
X2624831Y2996082D1*
X2620909Y2991491D1*
X2616318Y2987569D1*
X2611170Y2984414D1*
X2605591Y2982103D1*
X2599720Y2980694D1*
X2593700Y2980220D1*
X2587680Y2980694D1*
X2581809Y2982103D1*
X2576230Y2984414D1*
X2571082Y2987569D1*
X2566491Y2991491D1*
X2562569Y2996082D1*
X2559414Y3001230D1*
X2557103Y3006809D1*
X2555694Y3012680D1*
X2555220Y3018700D1*
X2555694Y3024720D1*
X2557103Y3030591D1*
X2559414Y3036170D1*
X2562569Y3041318D1*
X2566491Y3045909D1*
X2569219Y3048362D1*
X2569295Y3183121D1*
X2569896Y3186915D1*
X2571083Y3190568D1*
X2571892Y3192320D1*
X2571719Y3192839D1*
X2565681D1*
X2559717Y3193783D1*
X2553974Y3195649D1*
X2551541Y3196771D1*
X2551550Y3050909D1*
X2435850D1*
Y3056698D1*
X2404279Y3056795D1*
X2400485Y3057396D1*
X2396832Y3058583D1*
X2393409Y3060327D1*
X2390301Y3062585D1*
X2384896Y3067884D1*
X2379231Y3067797D1*
X2474815Y2972099D1*
X2477073Y2968991D1*
X2478817Y2965568D1*
X2480004Y2961915D1*
X2480605Y2958121D1*
X2480680Y2926200D1*
Y2808145D1*
X2508145Y2808144D1*
Y2704255D1*
X2404256D1*
Y2808144D1*
X2431701D1*
X2431720Y2946067D1*
X2296413Y3081366D1*
X2168365Y3078649D1*
X2212315Y3034599D1*
X2214573Y3031491D1*
X2216317Y3028068D1*
X2217504Y3024415D1*
X2218105Y3020621D1*
X2218180Y2988700D1*
Y2834364D1*
X2221905Y2836475D1*
X2228865Y2839358D1*
X2236190Y2841117D1*
X2243700Y2841708D1*
X2251210Y2841117D1*
X2258535Y2839358D1*
X2265495Y2836475D1*
X2271918Y2832539D1*
X2277646Y2827646D1*
X2282539Y2821918D1*
X2286475Y2815495D1*
X2289358Y2808535D1*
X2291117Y2801210D1*
X2291708Y2793700D1*
X2291117Y2786190D1*
X2289358Y2778865D1*
X2286475Y2771905D1*
X2282539Y2765482D1*
X2277646Y2759754D1*
X2271918Y2754861D1*
X2268180Y2752429D1*
Y2734989D1*
X2271918Y2732539D1*
X2277646Y2727646D1*
X2282539Y2721918D1*
X2286475Y2715495D1*
X2289358Y2708535D1*
X2291117Y2701210D1*
X2291708Y2693700D1*
X2291117Y2686190D1*
X2289358Y2678865D1*
X2286475Y2671905D1*
X2282539Y2665482D1*
X2277646Y2659754D1*
X2271918Y2654861D1*
X2265495Y2650925D1*
X2258535Y2648042D1*
X2251210Y2646283D1*
X2243700Y2645692D1*
X2236190Y2646283D1*
X2232025Y2647151D1*
X2232180Y2643700D1*
X2231706Y2637680D1*
X2230297Y2631809D1*
X2227986Y2626230D1*
X2224831Y2621082D1*
X2220909Y2616491D1*
X2216318Y2612569D1*
X2211170Y2609414D1*
X2205591Y2607103D1*
X2199720Y2605694D1*
X2193700Y2605220D1*
X2187680Y2605694D1*
X2181809Y2607103D1*
X2176230Y2609414D1*
X2171082Y2612569D1*
X2168181Y2614928D1*
X2168180Y2460895D1*
X2170909Y2458409D1*
X2174831Y2453818D1*
X2177986Y2448670D1*
X2180297Y2443091D1*
X2181706Y2437220D1*
X2182180Y2431200D1*
X2181706Y2425180D1*
X2180297Y2419309D1*
X2177986Y2413730D1*
X2174831Y2408582D1*
X2170909Y2403991D1*
X2166318Y2400069D1*
X2161170Y2396914D1*
X2155591Y2394603D1*
X2149720Y2393194D1*
X2143700Y2392720D1*
X2137680Y2393194D1*
X2131809Y2394603D1*
X2126230Y2396914D1*
X2121082Y2400069D1*
X2116491Y2403991D1*
X2112569Y2408582D1*
X2109414Y2413730D1*
X2107103Y2419309D1*
X2105694Y2425180D1*
X2105220Y2431200D1*
X2105694Y2437220D1*
X2107103Y2443091D1*
X2109414Y2448670D1*
X2112569Y2453818D1*
X2116491Y2458409D1*
X2119219Y2460862D1*
X2119220Y2589895D1*
X2116318Y2587569D1*
X2111170Y2584414D1*
X2105591Y2582103D1*
X2099720Y2580694D1*
X2093700Y2580220D1*
X2087680Y2580694D1*
X2081809Y2582103D1*
X2080691Y2582516D1*
X2080680Y2485880D1*
X2083409Y2483409D1*
X2087331Y2478818D1*
X2090486Y2473670D1*
X2092797Y2468091D1*
X2094206Y2462220D1*
X2094680Y2456200D1*
X2094206Y2450180D1*
X2092797Y2444309D1*
X2090486Y2438730D1*
X2087331Y2433582D1*
X2083409Y2428991D1*
X2078818Y2425069D1*
X2073670Y2421914D1*
X2068091Y2419603D1*
X2062220Y2418194D1*
X2056200Y2417720D1*
X2050262Y2418184D1*
X2050271Y2365199D1*
X2319238Y2362471D1*
X2319220Y2401489D1*
X2316491Y2403991D1*
X2312569Y2408582D1*
X2309414Y2413730D1*
X2307103Y2419309D1*
X2305694Y2425180D1*
X2305220Y2431200D1*
X2305694Y2437220D1*
X2307103Y2443091D1*
X2309414Y2448670D1*
X2312569Y2453818D1*
X2316491Y2458409D1*
X2321082Y2462331D1*
X2326230Y2465486D1*
X2331809Y2467797D1*
X2337680Y2469206D1*
X2343700Y2469680D1*
X2349720Y2469206D1*
X2355591Y2467797D1*
X2361170Y2465486D1*
X2366318Y2462331D1*
X2370909Y2458409D1*
X2374831Y2453818D1*
X2377986Y2448670D1*
X2380297Y2443091D1*
X2381706Y2437220D1*
X2382180Y2431200D1*
X2381706Y2425180D1*
X2380297Y2419309D1*
X2377986Y2413730D1*
X2374831Y2408582D1*
X2370909Y2403991D1*
X2368181Y2401538D1*
X2368180Y2361989D1*
X2431732Y2361325D1*
X2431720Y2488989D1*
X2428991Y2491491D1*
X2425069Y2496082D1*
X2421914Y2501230D1*
X2419603Y2506809D1*
X2418194Y2512680D1*
X2417720Y2518700D1*
X2418194Y2524720D1*
X2419603Y2530591D1*
X2421914Y2536170D1*
X2425069Y2541318D1*
X2428991Y2545909D1*
X2433582Y2549831D1*
X2438730Y2552986D1*
X2444309Y2555297D1*
X2450180Y2556706D1*
X2456200Y2557180D1*
X2462220Y2556706D1*
X2468091Y2555297D1*
X2473670Y2552986D1*
X2478818Y2549831D1*
X2483409Y2545909D1*
X2487331Y2541318D1*
X2490486Y2536170D1*
X2492797Y2530591D1*
X2494206Y2524720D1*
X2494680Y2518700D1*
X2494206Y2512680D1*
X2492797Y2506809D1*
X2490486Y2501230D1*
X2487331Y2496082D1*
X2483409Y2491491D1*
X2480681Y2489038D1*
X2480690Y2360826D1*
X2511275Y2360515D1*
X2509414Y2363730D1*
X2507103Y2369309D1*
X2505694Y2375180D1*
X2505220Y2381200D1*
X2505694Y2387220D1*
X2507103Y2393091D1*
X2509414Y2398670D1*
X2512569Y2403818D1*
X2516491Y2408409D1*
X2521082Y2412331D1*
X2526230Y2415486D1*
X2531809Y2417797D1*
X2537680Y2419206D1*
X2543700Y2419680D1*
X2549720Y2419206D1*
X2555591Y2417797D1*
X2561170Y2415486D1*
X2566318Y2412331D1*
X2568709Y2410460D1*
X2573594Y2414010D1*
X2578974Y2416751D1*
X2584717Y2418617D1*
X2590681Y2419561D1*
X2596719D1*
X2602683Y2418617D1*
X2608426Y2416751D1*
X2613806Y2414010D1*
X2618709Y2410460D1*
X2623594Y2414010D1*
X2628974Y2416751D1*
X2634717Y2418617D1*
X2640681Y2419561D1*
X2646719D1*
X2652683Y2418617D1*
X2658426Y2416751D1*
X2662127Y2414950D1*
X2662129Y2429208D1*
X2750271D1*
Y2358075D1*
X3086917Y2354651D1*
X3086933Y2416707D1*
X3092769D1*
X3092839Y2421719D1*
X3093783Y2427683D1*
X3095649Y2433426D1*
X3098390Y2438806D1*
X3101940Y2443691D1*
X3106209Y2447960D1*
X3111094Y2451510D1*
X3116474Y2454251D1*
X3122217Y2456117D1*
X3128181Y2457061D1*
X3134219D1*
X3140183Y2456117D1*
X3145926Y2454251D1*
X3151306Y2451510D1*
X3156191Y2447960D1*
X3160460Y2443691D1*
X3162967Y2440366D1*
X3162969Y2458583D1*
X3115183Y2506283D1*
X3109219Y2505339D1*
X3103181D1*
X3097217Y2506283D1*
X3091474Y2508149D1*
X3086094Y2510890D1*
X3081209Y2514440D1*
X3076940Y2518709D1*
X3073390Y2523594D1*
X3070649Y2528974D1*
X3068783Y2534717D1*
X3067839Y2540681D1*
Y2546719D1*
X3068783Y2552683D1*
X3070649Y2558426D1*
X3073390Y2563806D1*
X3076940Y2568691D1*
X3081209Y2572960D1*
X3086094Y2576510D1*
X3091474Y2579251D1*
X3097217Y2581117D1*
X3103181Y2582061D1*
X3109219D1*
X3115183Y2581117D1*
X3120926Y2579251D1*
X3126306Y2576510D1*
X3131191Y2572960D1*
X3135460Y2568691D1*
X3139010Y2563806D1*
X3141751Y2558426D1*
X3143617Y2552683D1*
X3144561Y2546719D1*
X3144723Y2546047D1*
X3199828Y2490943D1*
X3201940Y2493691D1*
X3206209Y2497960D1*
X3211094Y2501510D1*
X3216474Y2504251D1*
X3222217Y2506117D1*
X3228181Y2507061D1*
X3234219D1*
X3240183Y2506117D1*
X3245926Y2504251D1*
X3251306Y2501510D1*
X3256191Y2497960D1*
X3260460Y2493691D1*
X3264010Y2488806D1*
X3266751Y2483426D1*
X3268617Y2477683D1*
X3269561Y2471719D1*
Y2465681D1*
X3268617Y2459717D1*
X3266751Y2453974D1*
X3264010Y2448594D1*
X3260460Y2443709D1*
X3256191Y2439440D1*
X3255681Y2439038D1*
X3255680Y2352942D1*
X3281719Y2352666D1*
X3281720Y2476505D1*
X3278991Y2478991D1*
X3275069Y2483582D1*
X3271914Y2488730D1*
X3269603Y2494309D1*
X3268194Y2500180D1*
X3267720Y2506200D1*
X3268194Y2512220D1*
X3269603Y2518091D1*
X3271914Y2523670D1*
X3275069Y2528818D1*
X3278991Y2533409D1*
X3283582Y2537331D1*
X3288730Y2540486D1*
X3294309Y2542797D1*
X3300180Y2544206D1*
X3306200Y2544680D1*
X3312220Y2544206D1*
X3318091Y2542797D1*
X3323670Y2540486D1*
X3328818Y2537331D1*
X3333409Y2533409D1*
X3337331Y2528818D1*
X3340486Y2523670D1*
X3342797Y2518091D1*
X3344206Y2512220D1*
X3344680Y2506200D1*
X3344206Y2500180D1*
X3342797Y2494309D1*
X3340486Y2488730D1*
X3337331Y2483582D1*
X3333409Y2478991D1*
X3330681Y2476538D1*
X3330680Y2417395D1*
X3334717Y2418617D1*
X3340681Y2419561D1*
X3346719D1*
X3352683Y2418617D1*
X3358426Y2416751D1*
X3363806Y2414010D1*
X3368709Y2410460D1*
X3373594Y2414010D1*
X3378974Y2416751D1*
X3384717Y2418617D1*
X3390681Y2419561D1*
X3396719D1*
X3402683Y2418617D1*
X3408426Y2416751D1*
X3413806Y2414010D1*
X3418709Y2410460D1*
X3423594Y2414010D1*
X3428974Y2416751D1*
X3434717Y2418617D1*
X3440681Y2419561D1*
X3446719D1*
X3452683Y2418617D1*
X3458426Y2416751D1*
X3463806Y2414010D1*
X3468691Y2410460D1*
X3472960Y2406191D1*
X3473362Y2405681D1*
X3474614Y2405680D1*
X3474629Y2429208D1*
X3562771D1*
Y2349825D1*
X3919233Y2346172D1*
X3919220Y2620270D1*
X3916491Y2622740D1*
X3912569Y2627331D1*
X3909414Y2632480D1*
X3907103Y2638058D1*
X3905694Y2643930D1*
X3905220Y2649949D1*
X3905694Y2655969D1*
X3907103Y2661840D1*
X3909414Y2667419D1*
X3912569Y2672567D1*
X3916491Y2677159D1*
X3921082Y2681080D1*
X3926230Y2684235D1*
X3931809Y2686546D1*
X3937680Y2687956D1*
X3943700Y2688429D1*
X3949720Y2687956D1*
X3955591Y2686546D1*
X3961170Y2684235D1*
X3966318Y2681080D1*
X3970909Y2677159D1*
X3974831Y2672567D1*
X3977986Y2667419D1*
X3980297Y2661840D1*
X3981706Y2655969D1*
X3982180Y2649949D1*
X3981706Y2643930D1*
X3980297Y2638058D1*
X3977986Y2632480D1*
X3974831Y2627331D1*
X3970909Y2622740D1*
X3968181Y2620287D1*
X3968180Y2345660D1*
X4030555Y2345038D1*
X4026230Y2346914D1*
X4021082Y2350069D1*
X4016491Y2353991D1*
X4012569Y2358582D1*
X4009414Y2363730D1*
X4007103Y2369309D1*
X4005694Y2375180D1*
X4005220Y2381200D1*
X4005694Y2387220D1*
X4007103Y2393091D1*
X4009414Y2398670D1*
X4012569Y2403818D1*
X4016491Y2408409D1*
X4021082Y2412331D1*
X4026230Y2415486D1*
X4031809Y2417797D1*
X4037680Y2419206D1*
X4043700Y2419680D1*
X4049720Y2419206D1*
X4055591Y2417797D1*
X4061170Y2415486D1*
X4066318Y2412331D1*
X4068709Y2410460D1*
X4073594Y2414010D1*
X4078974Y2416751D1*
X4084717Y2418617D1*
X4090681Y2419561D1*
X4096719D1*
X4102683Y2418617D1*
X4108426Y2416751D1*
X4113806Y2414010D1*
X4118709Y2410460D1*
X4123594Y2414010D1*
X4128974Y2416751D1*
X4134717Y2418617D1*
X4140681Y2419561D1*
X4146719D1*
X4152683Y2418617D1*
X4158426Y2416751D1*
X4163806Y2414010D1*
X4166828Y2411929D1*
X4180864Y2411930D1*
X4180879Y2435458D1*
X4269021D1*
Y2342622D1*
X4317369Y2342116D1*
X4322217Y2343617D1*
X4328181Y2344561D1*
X4334219D1*
X4340183Y2343617D1*
X4345715Y2341829D1*
X4574418Y2339498D1*
X2743130Y3554207D2*
X2825271D1*
Y3544199D1*
X2831200Y3544680D1*
X2837220Y3544206D1*
X2843091Y3542797D1*
X2848670Y3540486D1*
X2853818Y3537331D1*
X2858409Y3533409D1*
X2862331Y3528818D1*
X2865486Y3523670D1*
X2867797Y3518091D1*
X2869206Y3512220D1*
X2869680Y3506200D1*
X2869206Y3500180D1*
X2867797Y3494309D1*
X2865486Y3488730D1*
X2862331Y3483582D1*
X2858409Y3478991D1*
X2853818Y3475069D1*
X2848670Y3471914D1*
X2843091Y3469603D1*
X2837220Y3468194D1*
X2831200Y3467720D1*
X2825262Y3468184D1*
X2825271Y3458192D1*
X2737130D1*
Y3554207D1*
X2743130D1*
X3571378Y2955802D2*
X3661393D1*
Y2859787D1*
X3565378D1*
Y2955802D1*
X3571378D1*
X3561245Y2904028D2*
X3560066Y2896587D1*
X3557738Y2889423D1*
X3554318Y2882711D1*
X3549890Y2876616D1*
X3544563Y2871289D1*
X3538469Y2866861D1*
X3531757Y2863441D1*
X3524592Y2861113D1*
X3517152Y2859935D1*
X3509618D1*
X3502178Y2861113D1*
X3495013Y2863441D1*
X3488301Y2866861D1*
X3482207Y2871289D1*
X3476880Y2876616D1*
X3472452Y2882711D1*
X3469032Y2889423D1*
X3466704Y2896587D1*
X3465525Y2904028D1*
Y2911561D1*
X3466704Y2919002D1*
X3469032Y2926166D1*
X3472452Y2932878D1*
X3476880Y2938973D1*
X3482207Y2944300D1*
X3488301Y2948728D1*
X3495013Y2952148D1*
X3502178Y2954476D1*
X3509618Y2955654D1*
X3517152D1*
X3524592Y2954476D1*
X3531757Y2952148D1*
X3538469Y2948728D1*
X3544563Y2944300D1*
X3549890Y2938973D1*
X3554318Y2932878D1*
X3557738Y2926166D1*
X3560066Y2919002D1*
X3561245Y2911561D1*
Y2904028D1*
X3361245D2*
X3360066Y2896587D1*
X3357738Y2889423D1*
X3354318Y2882711D1*
X3349890Y2876616D1*
X3344563Y2871289D1*
X3338469Y2866861D1*
X3331757Y2863441D1*
X3324592Y2861113D1*
X3317152Y2859935D1*
X3309618D1*
X3302178Y2861113D1*
X3295013Y2863441D1*
X3288301Y2866861D1*
X3282207Y2871289D1*
X3276880Y2876616D1*
X3272452Y2882711D1*
X3269032Y2889423D1*
X3266704Y2896587D1*
X3265525Y2904028D1*
Y2911561D1*
X3266704Y2919002D1*
X3269032Y2926166D1*
X3272452Y2932878D1*
X3276880Y2938973D1*
X3282207Y2944300D1*
X3288301Y2948728D1*
X3288905Y2949066D1*
Y2982630D1*
X3266128Y3005401D1*
X3262449Y3005220D1*
X3256430Y3005694D1*
X3251229Y3006914D1*
X3251746Y3002968D1*
Y2996930D1*
X3250802Y2990966D1*
X3248936Y2985224D1*
X3246195Y2979844D1*
X3242645Y2974959D1*
X3238376Y2970689D1*
X3237866Y2970287D1*
X3237865Y2949113D1*
X3241603Y2946633D1*
X3247332Y2941741D1*
X3252224Y2936013D1*
X3256160Y2929589D1*
X3259043Y2922630D1*
X3260802Y2915305D1*
X3261393Y2907794D1*
X3260802Y2900284D1*
X3259043Y2892959D1*
X3256160Y2886000D1*
X3252224Y2879576D1*
X3247332Y2873848D1*
X3241603Y2868956D1*
X3235180Y2865019D1*
X3228220Y2862137D1*
X3220895Y2860378D1*
X3213385Y2859787D1*
X3205875Y2860378D1*
X3198550Y2862137D1*
X3191590Y2865019D1*
X3185167Y2868956D1*
X3179439Y2873848D1*
X3174546Y2879576D1*
X3170610Y2886000D1*
X3167727Y2892959D1*
X3165969Y2900284D1*
X3165377Y2907794D1*
X3165969Y2915305D1*
X3167727Y2922630D1*
X3170610Y2929589D1*
X3174546Y2936013D1*
X3179439Y2941741D1*
X3185167Y2946633D1*
X3188905Y2949066D1*
Y2970255D1*
X3186176Y2972740D1*
X3182254Y2977331D1*
X3179099Y2982480D1*
X3176788Y2988058D1*
X3175379Y2993930D1*
X3174905Y2999949D1*
X3175379Y3005969D1*
X3176788Y3011840D1*
X3179099Y3017419D1*
X3182254Y3022567D1*
X3186176Y3027159D1*
X3190767Y3031080D1*
X3195915Y3034235D1*
X3201494Y3036546D1*
X3207365Y3037956D1*
X3213385Y3038429D1*
X3219405Y3037956D1*
X3224606Y3036735D1*
X3224088Y3040681D1*
Y3046719D1*
X3225033Y3052683D1*
X3226898Y3058426D1*
X3229640Y3063806D1*
X3233189Y3068691D1*
X3237459Y3072960D1*
X3242344Y3076510D1*
X3247724Y3079251D1*
X3253466Y3081117D1*
X3259430Y3082061D1*
X3265468D1*
X3271432Y3081117D1*
X3277175Y3079251D1*
X3282555Y3076510D1*
X3287440Y3072960D1*
X3291710Y3068691D1*
X3295259Y3063806D1*
X3298000Y3058426D1*
X3299866Y3052683D1*
X3300811Y3046719D1*
Y3040681D1*
X3300734Y3040036D1*
X3332000Y3008663D1*
X3334258Y3005555D1*
X3336002Y3002132D1*
X3337189Y2998479D1*
X3337790Y2994685D1*
X3337865Y2962764D1*
Y2949100D1*
X3341603Y2946633D1*
X3347332Y2941741D1*
X3352224Y2936013D1*
X3356160Y2929589D1*
X3359043Y2922630D1*
X3360802Y2915305D1*
X3361393Y2907794D1*
X3361245Y2904028D1*
X3161245D2*
X3160066Y2896587D1*
X3157738Y2889423D1*
X3154318Y2882711D1*
X3149890Y2876616D1*
X3144563Y2871289D1*
X3138469Y2866861D1*
X3131757Y2863441D1*
X3124592Y2861113D1*
X3117152Y2859935D1*
X3109618D1*
X3102178Y2861113D1*
X3095013Y2863441D1*
X3088301Y2866861D1*
X3082207Y2871289D1*
X3076880Y2876616D1*
X3072452Y2882711D1*
X3069032Y2889423D1*
X3066704Y2896587D1*
X3065525Y2904028D1*
Y2911561D1*
X3066704Y2919002D1*
X3069032Y2926166D1*
X3072452Y2932878D1*
X3076880Y2938973D1*
X3082207Y2944300D1*
X3088301Y2948728D1*
X3088905Y2949066D1*
Y2964021D1*
X3086176Y2966491D1*
X3082254Y2971082D1*
X3079099Y2976230D1*
X3076788Y2981809D1*
X3075379Y2987680D1*
X3074905Y2993700D1*
X3075379Y2999720D1*
X3076788Y3005591D1*
X3079099Y3011170D1*
X3082254Y3016318D1*
X3086176Y3020909D1*
X3090767Y3024831D1*
X3095915Y3027986D1*
X3101494Y3030297D1*
X3107365Y3031706D1*
X3113385Y3032180D1*
X3119405Y3031706D1*
X3125276Y3030297D1*
X3130855Y3027986D1*
X3136003Y3024831D1*
X3140595Y3020909D1*
X3144516Y3016318D1*
X3147671Y3011170D1*
X3149982Y3005591D1*
X3151391Y2999720D1*
X3151865Y2993700D1*
X3151391Y2987680D1*
X3149982Y2981809D1*
X3147671Y2976230D1*
X3144516Y2971082D1*
X3140595Y2966491D1*
X3137866Y2964038D1*
X3137865Y2949098D1*
X3141603Y2946633D1*
X3147332Y2941741D1*
X3152224Y2936013D1*
X3156160Y2929589D1*
X3159043Y2922630D1*
X3160802Y2915305D1*
X3161393Y2907794D1*
X3161245Y2904028D1*
X3061245D2*
X3060066Y2896587D1*
X3057738Y2889423D1*
X3054318Y2882711D1*
X3049890Y2876616D1*
X3044563Y2871289D1*
X3038469Y2866861D1*
X3031757Y2863441D1*
X3024592Y2861113D1*
X3017152Y2859935D1*
X3009618D1*
X3002178Y2861113D1*
X2995013Y2863441D1*
X2988301Y2866861D1*
X2982207Y2871289D1*
X2976880Y2876616D1*
X2972452Y2882711D1*
X2969032Y2889423D1*
X2966704Y2896587D1*
X2965525Y2904028D1*
Y2911561D1*
X2966704Y2919002D1*
X2969032Y2926166D1*
X2972452Y2932878D1*
X2976880Y2938973D1*
X2982207Y2944300D1*
X2988301Y2948728D1*
X2994224Y2951784D1*
X2994220Y3426490D1*
X2991491Y3428991D1*
X2987569Y3433582D1*
X2984414Y3438730D1*
X2982103Y3444309D1*
X2980694Y3450180D1*
X2980220Y3456200D1*
X2980694Y3462220D1*
X2982103Y3468091D1*
X2984414Y3473670D1*
X2987569Y3478818D1*
X2991491Y3483409D1*
X2996082Y3487331D1*
X3001230Y3490486D1*
X3006809Y3492797D1*
X3012680Y3494206D1*
X3018700Y3494680D1*
X3024720Y3494206D1*
X3030591Y3492797D1*
X3036170Y3490486D1*
X3041318Y3487331D1*
X3045909Y3483409D1*
X3049831Y3478818D1*
X3052986Y3473670D1*
X3055297Y3468091D1*
X3056706Y3462220D1*
X3057180Y3456200D1*
X3056706Y3450180D1*
X3055297Y3444309D1*
X3052986Y3438730D1*
X3049831Y3433582D1*
X3045909Y3428991D1*
X3043181Y3426538D1*
X3043180Y2945427D1*
X3047332Y2941741D1*
X3052224Y2936013D1*
X3056160Y2929589D1*
X3059043Y2922630D1*
X3060802Y2915305D1*
X3061393Y2907794D1*
X3061245Y2904028D1*
X2961245D2*
X2960066Y2896587D1*
X2957738Y2889423D1*
X2954318Y2882711D1*
X2949890Y2876616D1*
X2944563Y2871289D1*
X2938469Y2866861D1*
X2931757Y2863441D1*
X2924592Y2861113D1*
X2917152Y2859935D1*
X2909618D1*
X2902178Y2861113D1*
X2895013Y2863441D1*
X2888301Y2866861D1*
X2882207Y2871289D1*
X2876880Y2876616D1*
X2872452Y2882711D1*
X2869032Y2889423D1*
X2866704Y2896587D1*
X2865525Y2904028D1*
Y2911561D1*
X2866704Y2919002D1*
X2869032Y2926166D1*
X2872452Y2932878D1*
X2876880Y2938973D1*
X2882207Y2944300D1*
X2888301Y2948728D1*
X2895013Y2952148D1*
X2902178Y2954476D1*
X2909618Y2955654D1*
X2917152D1*
X2924592Y2954476D1*
X2931757Y2952148D1*
X2938469Y2948728D1*
X2944563Y2944300D1*
X2949890Y2938973D1*
X2954318Y2932878D1*
X2957738Y2926166D1*
X2960066Y2919002D1*
X2961245Y2911561D1*
Y2904028D1*
X1691560Y2689933D2*
X1690381Y2682493D1*
X1688053Y2675328D1*
X1684633Y2668616D1*
X1680205Y2662522D1*
X1674878Y2657195D1*
X1668784Y2652767D1*
X1662072Y2649347D1*
X1654907Y2647019D1*
X1647467Y2645840D1*
X1639933D1*
X1632493Y2647019D1*
X1625328Y2649347D1*
X1618616Y2652767D1*
X1612522Y2657195D1*
X1607195Y2662522D1*
X1602767Y2668616D1*
X1599347Y2675328D1*
X1597019Y2682493D1*
X1595840Y2689933D1*
Y2697467D1*
X1597019Y2704907D1*
X1599347Y2712072D1*
X1602767Y2718784D1*
X1607195Y2724878D1*
X1612522Y2730205D1*
X1618616Y2734633D1*
X1619220Y2734971D1*
Y2752411D1*
X1615482Y2754861D1*
X1609754Y2759754D1*
X1604861Y2765482D1*
X1600925Y2771905D1*
X1598042Y2778865D1*
X1596283Y2786190D1*
X1595692Y2793700D1*
X1596283Y2801210D1*
X1598042Y2808535D1*
X1600925Y2815495D1*
X1604861Y2821918D1*
X1609754Y2827646D1*
X1615482Y2832539D1*
X1621905Y2836475D1*
X1628865Y2839358D1*
X1636190Y2841117D1*
X1643700Y2841708D1*
X1651210Y2841117D1*
X1658535Y2839358D1*
X1665495Y2836475D1*
X1671918Y2832539D1*
X1677646Y2827646D1*
X1682539Y2821918D1*
X1686475Y2815495D1*
X1689358Y2808535D1*
X1691117Y2801210D1*
X1691708Y2793700D1*
X1691117Y2786190D1*
X1689358Y2778865D1*
X1686475Y2771905D1*
X1682539Y2765482D1*
X1677646Y2759754D1*
X1671918Y2754861D1*
X1668180Y2752429D1*
Y2734989D1*
X1671918Y2732539D1*
X1677646Y2727646D1*
X1682539Y2721918D1*
X1686475Y2715495D1*
X1689358Y2708535D1*
X1691117Y2701210D1*
X1691708Y2693700D1*
X1691560Y2689933D1*
X4595000Y2955881D2*
X4685015D1*
Y2859866D1*
X4589000D1*
Y2955881D1*
X4595000D1*
X4584867Y2904107D2*
X4583688Y2896666D1*
X4581360Y2889502D1*
X4577940Y2882789D1*
X4573512Y2876695D1*
X4568186Y2871368D1*
X4562091Y2866940D1*
X4555379Y2863520D1*
X4548214Y2861192D1*
X4540774Y2860014D1*
X4533240D1*
X4525800Y2861192D1*
X4518635Y2863520D1*
X4511923Y2866940D1*
X4505829Y2871368D1*
X4500502Y2876695D1*
X4496074Y2882789D1*
X4492654Y2889502D1*
X4490326Y2896666D1*
X4489148Y2904107D1*
Y2911640D1*
X4490326Y2919080D1*
X4492654Y2926245D1*
X4496074Y2932957D1*
X4500502Y2939052D1*
X4505829Y2944378D1*
X4511923Y2948806D1*
X4518635Y2952226D1*
X4525800Y2954554D1*
X4533240Y2955733D1*
X4540774D1*
X4548214Y2954554D1*
X4555379Y2952226D1*
X4562091Y2948806D1*
X4568186Y2944378D1*
X4573512Y2939052D1*
X4577940Y2932957D1*
X4581360Y2926245D1*
X4583688Y2919080D1*
X4584867Y2911640D1*
Y2904107D1*
X4384867D2*
X4383688Y2896666D1*
X4381360Y2889502D1*
X4377940Y2882789D1*
X4373512Y2876695D1*
X4368186Y2871368D1*
X4362091Y2866940D1*
X4355379Y2863520D1*
X4348214Y2861192D1*
X4340774Y2860014D1*
X4333240D1*
X4325800Y2861192D1*
X4318635Y2863520D1*
X4311923Y2866940D1*
X4305829Y2871368D1*
X4300502Y2876695D1*
X4296074Y2882789D1*
X4292654Y2889502D1*
X4290326Y2896666D1*
X4289148Y2904107D1*
Y2911640D1*
X4290326Y2919080D1*
X4292654Y2926245D1*
X4296074Y2932957D1*
X4300502Y2939052D1*
X4305829Y2944378D1*
X4311923Y2948806D1*
X4312527Y2949145D1*
Y3101490D1*
X4309798Y3103991D1*
X4305876Y3108582D1*
X4302721Y3113730D1*
X4300410Y3119309D1*
X4299001Y3125180D1*
X4298527Y3131200D1*
X4299001Y3137220D1*
X4300410Y3143091D1*
X4302721Y3148670D1*
X4305876Y3153818D1*
X4309798Y3158409D1*
X4314389Y3162331D1*
X4319538Y3165486D1*
X4325116Y3167797D1*
X4330987Y3169206D1*
X4337007Y3169680D1*
X4343027Y3169206D1*
X4348898Y3167797D1*
X4354477Y3165486D1*
X4359625Y3162331D1*
X4364217Y3158409D1*
X4368138Y3153818D1*
X4371293Y3148670D1*
X4373604Y3143091D1*
X4375013Y3137220D1*
X4375487Y3131200D1*
X4375013Y3125180D1*
X4373604Y3119309D1*
X4371293Y3113730D1*
X4368138Y3108582D1*
X4364217Y3103991D1*
X4361488Y3101538D1*
X4361487Y2949161D1*
X4365225Y2946712D1*
X4370954Y2941820D1*
X4375846Y2936091D1*
X4379782Y2929668D1*
X4382665Y2922708D1*
X4384424Y2915383D1*
X4385015Y2907873D1*
X4384867Y2904107D1*
X4284867D2*
X4283688Y2896666D1*
X4281360Y2889502D1*
X4277940Y2882789D1*
X4273512Y2876695D1*
X4268186Y2871368D1*
X4262091Y2866940D1*
X4255379Y2863520D1*
X4248214Y2861192D1*
X4240774Y2860014D1*
X4233240D1*
X4225800Y2861192D1*
X4218635Y2863520D1*
X4211923Y2866940D1*
X4205829Y2871368D1*
X4200502Y2876695D1*
X4196074Y2882789D1*
X4192654Y2889502D1*
X4190326Y2896666D1*
X4189148Y2904107D1*
Y2911640D1*
X4190326Y2919080D1*
X4192654Y2926245D1*
X4196074Y2932957D1*
X4200502Y2939052D1*
X4205829Y2944378D1*
X4211923Y2948806D1*
X4212527Y2949145D1*
Y3226506D1*
X4209798Y3228991D1*
X4205876Y3233582D1*
X4202721Y3238730D1*
X4200410Y3244309D1*
X4199001Y3250180D1*
X4198527Y3256200D1*
X4199001Y3262220D1*
X4200410Y3268091D1*
X4202721Y3273670D1*
X4205876Y3278818D1*
X4209798Y3283409D1*
X4214389Y3287331D1*
X4219538Y3290486D1*
X4225116Y3292797D1*
X4230987Y3294206D1*
X4237007Y3294680D1*
X4243027Y3294206D1*
X4248898Y3292797D1*
X4254477Y3290486D1*
X4259625Y3287331D1*
X4264217Y3283409D1*
X4268138Y3278818D1*
X4271293Y3273670D1*
X4273604Y3268091D1*
X4275013Y3262220D1*
X4275487Y3256200D1*
X4275013Y3250180D1*
X4273604Y3244309D1*
X4271293Y3238730D1*
X4268138Y3233582D1*
X4264217Y3228991D1*
X4261488Y3226538D1*
X4261487Y2949192D1*
X4265225Y2946712D1*
X4270954Y2941820D1*
X4275846Y2936091D1*
X4279782Y2929668D1*
X4282665Y2922708D1*
X4284424Y2915383D1*
X4285015Y2907873D1*
X4284867Y2904107D1*
X4184867D2*
X4183688Y2896666D1*
X4181360Y2889502D1*
X4177940Y2882789D1*
X4173512Y2876695D1*
X4168186Y2871368D1*
X4162091Y2866940D1*
X4155379Y2863520D1*
X4148214Y2861192D1*
X4140774Y2860014D1*
X4133240D1*
X4125800Y2861192D1*
X4118635Y2863520D1*
X4111923Y2866940D1*
X4105829Y2871368D1*
X4100502Y2876695D1*
X4096074Y2882789D1*
X4092654Y2889502D1*
X4090326Y2896666D1*
X4089148Y2904107D1*
Y2911640D1*
X4090326Y2919080D1*
X4092654Y2926245D1*
X4096074Y2932957D1*
X4100502Y2939052D1*
X4105829Y2944378D1*
X4106719Y2945080D1*
X4106720Y3189006D1*
X4103991Y3191491D1*
X4100069Y3196082D1*
X4096914Y3201230D1*
X4094603Y3206809D1*
X4093194Y3212680D1*
X4092720Y3218700D1*
X4093194Y3224720D1*
X4094603Y3230591D1*
X4096914Y3236170D1*
X4100069Y3241318D1*
X4103991Y3245909D1*
X4108582Y3249831D1*
X4113730Y3252986D1*
X4119309Y3255297D1*
X4125180Y3256706D1*
X4131200Y3257180D1*
X4137220Y3256706D1*
X4143091Y3255297D1*
X4148670Y3252986D1*
X4153818Y3249831D1*
X4158409Y3245909D1*
X4162331Y3241318D1*
X4165486Y3236170D1*
X4167797Y3230591D1*
X4169206Y3224720D1*
X4169680Y3218700D1*
X4169206Y3212680D1*
X4167797Y3206809D1*
X4165486Y3201230D1*
X4162331Y3196082D1*
X4158409Y3191491D1*
X4155681Y3189038D1*
X4155680Y2952098D1*
X4162091Y2948806D1*
X4168186Y2944378D1*
X4173512Y2939052D1*
X4177940Y2932957D1*
X4181360Y2926245D1*
X4183688Y2919080D1*
X4184867Y2911640D1*
Y2904107D1*
X4084867D2*
X4083688Y2896666D1*
X4081360Y2889502D1*
X4077940Y2882789D1*
X4073512Y2876695D1*
X4068186Y2871368D1*
X4062091Y2866940D1*
X4055379Y2863520D1*
X4048214Y2861192D1*
X4040774Y2860014D1*
X4033240D1*
X4025800Y2861192D1*
X4018635Y2863520D1*
X4011923Y2866940D1*
X4005829Y2871368D1*
X4000502Y2876695D1*
X3996074Y2882789D1*
X3992654Y2889502D1*
X3990326Y2896666D1*
X3989148Y2904107D1*
Y2911640D1*
X3990326Y2919080D1*
X3992654Y2926245D1*
X3996074Y2932957D1*
X4000502Y2939052D1*
X4005829Y2944378D1*
X4011923Y2948806D1*
X4018635Y2952226D1*
X4019229Y2952446D1*
X4019220Y3107772D1*
X4016491Y3110241D1*
X4012569Y3114833D1*
X4009414Y3119981D1*
X4007103Y3125560D1*
X4005694Y3131431D1*
X4005220Y3137451D1*
X4005694Y3143470D1*
X4007103Y3149342D1*
X4009414Y3154920D1*
X4012569Y3160069D1*
X4016491Y3164660D1*
X4021082Y3168582D1*
X4026230Y3171737D1*
X4031809Y3174047D1*
X4037680Y3175457D1*
X4043700Y3175931D1*
X4049720Y3175457D1*
X4055591Y3174047D1*
X4061170Y3171737D1*
X4066318Y3168582D1*
X4070909Y3164660D1*
X4074831Y3160069D1*
X4077986Y3154920D1*
X4080297Y3149342D1*
X4081706Y3143470D1*
X4082180Y3137451D1*
X4081706Y3131431D1*
X4080297Y3125560D1*
X4077986Y3119981D1*
X4074831Y3114833D1*
X4070909Y3110241D1*
X4068181Y3107788D1*
X4068186Y2944378D1*
X4073512Y2939052D1*
X4077940Y2932957D1*
X4081360Y2926245D1*
X4083688Y2919080D1*
X4084867Y2911640D1*
Y2904107D1*
X3984867D2*
X3983688Y2896666D1*
X3981360Y2889502D1*
X3977940Y2882789D1*
X3973512Y2876695D1*
X3968186Y2871368D1*
X3962091Y2866940D1*
X3955379Y2863520D1*
X3948214Y2861192D1*
X3940774Y2860014D1*
X3933240D1*
X3925800Y2861192D1*
X3918635Y2863520D1*
X3911923Y2866940D1*
X3905829Y2871368D1*
X3900502Y2876695D1*
X3896074Y2882789D1*
X3892654Y2889502D1*
X3890326Y2896666D1*
X3889148Y2904107D1*
Y2911640D1*
X3890326Y2919080D1*
X3892654Y2926245D1*
X3896074Y2932957D1*
X3900502Y2939052D1*
X3905829Y2944378D1*
X3911923Y2948806D1*
X3918635Y2952226D1*
X3925800Y2954554D1*
X3933240Y2955733D1*
X3940774D1*
X3948214Y2954554D1*
X3955379Y2952226D1*
X3962091Y2948806D1*
X3968186Y2944378D1*
X3973512Y2939052D1*
X3977940Y2932957D1*
X3981360Y2926245D1*
X3983688Y2919080D1*
X3984867Y2911640D1*
Y2904107D1*
X2707984Y2752124D2*
X2707505Y2748074D1*
X2706709Y2744074D1*
X2705602Y2740148D1*
X2704191Y2736322D1*
X2702483Y2732618D1*
X2700490Y2729059D1*
X2698224Y2725668D1*
X2695699Y2722465D1*
X2692930Y2719470D1*
X2689935Y2716701D1*
X2686732Y2714176D1*
X2683341Y2711910D1*
X2679782Y2709917D1*
X2676078Y2708209D1*
X2669016Y2705885D1*
X2669021Y2686950D1*
X2680239Y2686930D1*
X2680339Y2690469D1*
X2681283Y2696433D1*
X2683149Y2702176D1*
X2685890Y2707556D1*
X2689440Y2712441D1*
X2693709Y2716710D1*
X2698594Y2720260D1*
X2703974Y2723001D1*
X2709717Y2724867D1*
X2715681Y2725811D1*
X2721719D1*
X2727683Y2724867D1*
X2733426Y2723001D1*
X2738806Y2720260D1*
X2743691Y2716710D1*
X2747960Y2712441D1*
X2751510Y2707556D1*
X2754251Y2702176D1*
X2756117Y2696433D1*
X2757061Y2690469D1*
Y2684431D1*
X2756117Y2678467D1*
X2754251Y2672724D1*
X2751510Y2667344D1*
X2747960Y2662459D1*
X2743691Y2658190D1*
X2738806Y2654640D1*
X2733426Y2651899D1*
X2727683Y2650033D1*
X2721719Y2649089D1*
X2715681D1*
X2715036Y2649165D1*
X2709599Y2643835D1*
X2706491Y2641577D1*
X2703068Y2639833D1*
X2699415Y2638646D1*
X2695621Y2638045D1*
X2669020Y2637970D1*
X2669021Y2614442D1*
X2580879D1*
Y2710458D1*
X2631575D1*
X2625668Y2714176D1*
X2622465Y2716701D1*
X2619470Y2719470D1*
X2616701Y2722465D1*
X2614176Y2725668D1*
X2611910Y2729059D1*
X2609917Y2732618D1*
X2608209Y2736322D1*
X2606798Y2740148D1*
X2605691Y2744074D1*
X2604895Y2748074D1*
X2604416Y2752124D1*
X2604255Y2756200D1*
X2604416Y2760276D1*
X2604895Y2764326D1*
X2605691Y2768326D1*
X2606798Y2772252D1*
X2608209Y2776078D1*
X2609917Y2779782D1*
X2611910Y2783341D1*
X2614176Y2786732D1*
X2616701Y2789935D1*
X2619470Y2792930D1*
X2622465Y2795699D1*
X2625668Y2798224D1*
X2629059Y2800490D1*
X2632618Y2802483D1*
X2636322Y2804191D1*
X2640148Y2805602D1*
X2644074Y2806709D1*
X2648074Y2807505D1*
X2652124Y2807984D1*
X2656200Y2808145D1*
X2660276Y2807984D1*
X2664326Y2807505D1*
X2668326Y2806709D1*
X2672252Y2805602D1*
X2676078Y2804191D1*
X2679782Y2802483D1*
X2683341Y2800490D1*
X2686732Y2798224D1*
X2689935Y2795699D1*
X2692930Y2792930D1*
X2695699Y2789935D1*
X2698224Y2786732D1*
X2700490Y2783341D1*
X2702483Y2779782D1*
X2704191Y2776078D1*
X2705602Y2772252D1*
X2706709Y2768326D1*
X2707505Y2764326D1*
X2707984Y2760276D1*
X2708145Y2756200D1*
X2707984Y2752124D1*
X1131636Y2930237D2*
X1129749Y2930277D1*
X4705681Y2484972D2*
X4708582Y2487331D1*
X3199826Y2490955D2*
X3201940Y2493691D1*
X3206209Y2497960D1*
X3211094Y2501510D1*
X3216474Y2504251D1*
X3222217Y2506117D1*
X3228181Y2507061D1*
X3234219D1*
X3240183Y2506117D1*
X3245926Y2504251D1*
X3251306Y2501510D1*
X3256191Y2497960D1*
X3260460Y2493691D1*
X3264010Y2488806D1*
X3266751Y2483426D1*
X3268617Y2477683D1*
X3269561Y2471719D1*
Y2465681D1*
X3268617Y2459717D1*
X3266751Y2453974D1*
X3264010Y2448594D1*
X3260460Y2443709D1*
X3256191Y2439440D1*
X3255681Y2439038D1*
D26*
X2243700Y3470964D3*
Y3581200D3*
X5380695Y3728364D3*
Y3618128D3*
D27*
X5218695Y3735364D3*
X5293498D3*
X5003695Y3559364D3*
X4928892D3*
D26*
X5347461Y3961385D3*
Y4071621D3*
D27*
X1531200Y2368700D3*
X1606003D3*
X4543700D3*
X4618503D3*
D28*
X2043700Y3343700D3*
Y3418503D3*
X1943700Y3343700D3*
Y3418503D3*
X1843700Y3343700D3*
Y3418503D3*
X1743700Y3343700D3*
Y3418503D3*
X1643700Y3343700D3*
Y3418503D3*
D27*
X3056200Y2368700D3*
X3131003D3*
X2706397Y3506200D3*
X2781200D3*
D28*
X1543700Y3343700D3*
Y3418503D3*
X1443700Y3343700D3*
Y3418503D3*
D30*
X1093700Y1918700D3*
Y2273031D3*
X1893700Y1918700D3*
Y2273031D3*
X2593700Y1918700D3*
Y2273031D3*
X3393700Y1918700D3*
Y2273031D3*
X4093700Y1918700D3*
Y2273031D3*
X4893700Y1918700D3*
Y2273031D3*
D32*
X472440Y3937007D3*
X629920D3*
X5218695Y3852364D3*
X5376175D3*
D33*
X443700Y3793700D3*
D34*
X543700D3*
X643700D3*
X743700D3*
X843700D3*
X943700D3*
X1043700D3*
X1143700D3*
X1243700D3*
X1343700D3*
X1443700D3*
X1543700D3*
X1643700D3*
X1743700D3*
X1843700D3*
X1943700D3*
X2043700D3*
X2143700D3*
X2243700D3*
D33*
X3613385Y2907794D3*
D34*
X3513385D3*
X3413385D3*
X3313385D3*
X3213385D3*
X3113385D3*
X3013385D3*
X2913385D3*
D33*
X443700Y3693700D3*
D34*
X543700D3*
X643700D3*
X743700D3*
X843700D3*
X943700D3*
X1043700D3*
X1143700D3*
X1243700D3*
X1343700D3*
X1443700D3*
X1543700D3*
X1643700D3*
X1743700D3*
X1843700D3*
X1943700D3*
X2043700D3*
X2143700D3*
X2243700D3*
D35*
X5299951Y1493700D3*
D36*
Y1393700D3*
Y1293700D3*
D35*
X543700Y1543700D3*
D36*
Y1443700D3*
Y1343700D3*
D33*
X443700Y2693700D3*
D34*
X543700D3*
X643700D3*
X743700D3*
X843700D3*
X943700D3*
X1043700D3*
X1143700D3*
X1243700D3*
X1343700D3*
X1443700D3*
X1543700D3*
X1643700D3*
X1743700D3*
X1843700D3*
X1943700D3*
X2043700D3*
X2143700D3*
X2243700D3*
D33*
X4637007Y2907873D3*
D34*
X4537007D3*
X4437007D3*
X4337007D3*
X4237007D3*
X4137007D3*
X4037007D3*
X3937007D3*
D35*
X2456200Y2756200D3*
D36*
X2556200D3*
X2656200D3*
D33*
X443700Y2793700D3*
D34*
X543700D3*
X643700D3*
X743700D3*
X843700D3*
X943700D3*
X1043700D3*
X1143700D3*
X1243700D3*
X1343700D3*
X1443700D3*
X1543700D3*
X1643700D3*
X1743700D3*
X1843700D3*
X1943700D3*
X2043700D3*
X2143700D3*
X2243700D3*
D33*
X2681200Y4311810D3*
D34*
Y4211810D3*
X2581200Y4311810D3*
Y4211810D3*
X2481200Y4311810D3*
Y4211810D3*
X2381200Y4311810D3*
Y4211810D3*
X2281200Y4311810D3*
Y4211810D3*
D33*
X1293700Y4311810D3*
D34*
Y4211810D3*
X1193700Y4311810D3*
Y4211810D3*
X1093700Y4311810D3*
Y4211810D3*
X993700Y4311810D3*
Y4211810D3*
X893700Y4311810D3*
Y4211810D3*
X793700Y4311810D3*
Y4211810D3*
X693700Y4311810D3*
Y4211810D3*
D33*
X1543700Y3121554D3*
D34*
Y3221554D3*
X1643700Y3121554D3*
Y3221554D3*
X1743700Y3121554D3*
Y3221554D3*
X1843700Y3121554D3*
Y3221554D3*
X1943700Y3121554D3*
Y3221554D3*
X2043700Y3121554D3*
Y3221554D3*
D35*
X668700Y1043700D3*
D36*
X568700D3*
X468700D3*
D33*
X793700Y1743700D3*
D34*
Y1643700D3*
Y1543700D3*
Y1443700D3*
Y1343700D3*
Y1243700D3*
Y1143700D3*
Y1043700D3*
D33*
X1543700Y1743700D3*
D34*
Y1643700D3*
Y1543700D3*
Y1443700D3*
Y1343700D3*
Y1243700D3*
Y1143700D3*
Y1043700D3*
D33*
X2293700Y1743700D3*
D34*
Y1643700D3*
Y1543700D3*
Y1443700D3*
Y1343700D3*
Y1243700D3*
Y1143700D3*
Y1043700D3*
D33*
X3043700Y1743700D3*
D34*
Y1643700D3*
Y1543700D3*
Y1443700D3*
Y1343700D3*
Y1243700D3*
Y1143700D3*
Y1043700D3*
D33*
X3793700Y1743700D3*
D34*
Y1643700D3*
Y1543700D3*
Y1443700D3*
Y1343700D3*
Y1243700D3*
Y1143700D3*
Y1043700D3*
D33*
X4543700Y1743700D3*
D34*
Y1643700D3*
Y1543700D3*
Y1443700D3*
Y1343700D3*
Y1243700D3*
Y1143700D3*
Y1043700D3*
D33*
X993700Y1743700D3*
D34*
X893700D3*
D33*
X1743700D3*
D34*
X1643700D3*
D33*
X2493700D3*
D34*
X2393700D3*
D33*
X3243700D3*
D34*
X3143700D3*
D33*
X3993700D3*
D34*
X3893700D3*
D33*
X4743700D3*
D34*
X4643700D3*
D33*
X1293700D3*
D34*
Y1643700D3*
Y1543700D3*
Y1443700D3*
Y1343700D3*
Y1243700D3*
Y1143700D3*
Y1043700D3*
D33*
X2043700Y1743700D3*
D34*
Y1643700D3*
Y1543700D3*
Y1443700D3*
Y1343700D3*
Y1243700D3*
Y1143700D3*
Y1043700D3*
D33*
X2793700Y1743700D3*
D34*
Y1643700D3*
Y1543700D3*
Y1443700D3*
Y1343700D3*
Y1243700D3*
Y1143700D3*
Y1043700D3*
D33*
X3543700Y1743700D3*
D34*
Y1643700D3*
Y1543700D3*
Y1443700D3*
Y1343700D3*
Y1243700D3*
Y1143700D3*
Y1043700D3*
D33*
X4293700Y1743700D3*
D34*
Y1643700D3*
Y1543700D3*
Y1443700D3*
Y1343700D3*
Y1243700D3*
Y1143700D3*
Y1043700D3*
D33*
X5043700Y1743700D3*
D34*
Y1643700D3*
Y1543700D3*
Y1443700D3*
Y1343700D3*
Y1243700D3*
Y1143700D3*
Y1043700D3*
D33*
X1993700Y4311810D3*
D34*
Y4211810D3*
X1893700Y4311810D3*
Y4211810D3*
X1793700Y4311810D3*
Y4211810D3*
X1693700Y4311810D3*
Y4211810D3*
X1593700Y4311810D3*
Y4211810D3*
D37*
X4991249Y3767655D3*
Y4005844D3*
D38*
X5531495Y551180D3*
Y4350393D3*
X531495D3*
Y531495D3*
X2928739Y4344881D3*
X3952361D3*
D27*
X1062450Y2449950D3*
X1137253D3*
D28*
X5380695Y3468364D3*
Y3543167D3*
D27*
X5003695Y3468364D3*
X4928892D3*
X4925695Y3377364D3*
X5000498D3*
D28*
X5081695D3*
Y3452167D3*
X2043700Y3518700D3*
Y3593503D3*
X1943700Y3518700D3*
Y3593503D3*
X1843700Y3518700D3*
Y3593503D3*
X1743700Y3518700D3*
Y3593503D3*
X1643700Y3518700D3*
Y3593503D3*
X1543700Y3518700D3*
Y3593503D3*
X1443700Y3518700D3*
Y3593503D3*
D39*
X893700Y3143700D3*
Y3187007D3*
Y3230314D3*
Y3273621D3*
Y3316928D3*
Y3360235D3*
Y3403543D3*
Y3446850D3*
Y3490157D3*
D40*
X478346Y2955511D3*
D41*
X860235D3*
D42*
Y3533464D3*
D40*
X478346D3*
D43*
X5331495Y2231200D3*
D44*
Y2428050D3*
D45*
X843700Y693700D3*
D46*
X981495D3*
X1119291D3*
X1257086D3*
D45*
X1593700D3*
D46*
X1731495D3*
X1869291D3*
X2007086D3*
D45*
X2343700D3*
D46*
X2481495D3*
X2619291D3*
X2757086D3*
D45*
X3093700D3*
D46*
X3231495D3*
X3369291D3*
X3507086D3*
D45*
X3843700D3*
D46*
X3981495D3*
X4119291D3*
X4257086D3*
D45*
X4593700D3*
D46*
X4731495D3*
X4869291D3*
X5007086D3*
D48*
X5078739Y3661417D3*
Y3611417D3*
Y3561417D3*
Y3511417D3*
X5291338D3*
Y3561417D3*
Y3611417D3*
Y3661417D3*
D49*
X5185039Y3586417D3*
D50*
X1393700Y2306200D3*
Y2256200D3*
Y2206200D3*
Y2156200D3*
Y2106200D3*
Y2056200D3*
Y2006200D3*
Y1956200D3*
X1606298D3*
Y2006200D3*
Y2056200D3*
Y2106200D3*
Y2156200D3*
Y2206200D3*
Y2256200D3*
Y2306200D3*
X4406200D3*
Y2256200D3*
Y2206200D3*
Y2156200D3*
Y2106200D3*
Y2056200D3*
Y2006200D3*
Y1956200D3*
X4618798D3*
Y2006200D3*
Y2056200D3*
Y2106200D3*
Y2156200D3*
Y2206200D3*
Y2256200D3*
Y2306200D3*
X2906200D3*
Y2256200D3*
Y2206200D3*
Y2156200D3*
Y2106200D3*
Y2056200D3*
Y2006200D3*
Y1956200D3*
X3118798D3*
Y2006200D3*
Y2056200D3*
Y2106200D3*
Y2156200D3*
Y2206200D3*
Y2256200D3*
Y2306200D3*
X2493700Y3431200D3*
Y3381200D3*
Y3331200D3*
Y3281200D3*
Y3231200D3*
Y3181200D3*
Y3131200D3*
Y3081200D3*
X2706298D3*
Y3131200D3*
Y3181200D3*
Y3231200D3*
Y3281200D3*
Y3331200D3*
Y3381200D3*
Y3431200D3*
D27*
X2006200Y2381200D3*
X2081003D3*
X2706200D3*
X2781003D3*
X3518700D3*
X3593503D3*
X4224950Y2387450D3*
X4299753D3*
X2624950Y2662450D3*
X2550147D3*
M02*
