G04 DipTrace 4.0.0.2*
G04 TopSilk.gbr*
%MOIN*%
G04 #@! TF.FileFunction,Legend,Top*
G04 #@! TF.Part,Single*
%ADD10C,0.009843*%
%ADD16C,0.01*%
%ADD33C,0.004632*%
%FSLAX26Y26*%
G04*
G70*
G90*
G75*
G01*
G04 TopSilk*
%LPD*%
X868700Y393700D2*
D10*
X768700D1*
Y693700D1*
X868700D2*
X768700D1*
X868700Y393700D2*
Y693700D1*
D16*
X981200D1*
Y593700D1*
X868700D1*
Y693700D1*
X506934Y1158523D2*
D33*
X488297D1*
Y1128379D1*
X506934D1*
X488297Y1144164D2*
X499771D1*
X516197Y1148475D2*
Y1128379D1*
Y1142738D2*
X520508Y1147050D1*
X523393Y1148475D1*
X527671D1*
X530556Y1147050D1*
X531982Y1142738D1*
Y1128379D1*
X558457Y1148475D2*
Y1128379D1*
Y1144164D2*
X555605Y1147050D1*
X552720Y1148475D1*
X548442D1*
X545557Y1147050D1*
X542705Y1144164D1*
X541246Y1139853D1*
Y1137002D1*
X542705Y1132690D1*
X545557Y1129839D1*
X548442Y1128379D1*
X552720D1*
X555605Y1129839D1*
X558457Y1132690D1*
X567720Y1158523D2*
Y1128379D1*
Y1144164D2*
X570605Y1147050D1*
X573457Y1148475D1*
X577768D1*
X580620Y1147050D1*
X583505Y1144164D1*
X584931Y1139853D1*
Y1137002D1*
X583505Y1132690D1*
X580620Y1129839D1*
X577768Y1128379D1*
X573457D1*
X570605Y1129839D1*
X567720Y1132690D1*
X594195Y1158523D2*
Y1128379D1*
X603458Y1139853D2*
X620669D1*
Y1142738D1*
X619243Y1145624D1*
X617817Y1147050D1*
X614932Y1148475D1*
X610621D1*
X607769Y1147050D1*
X604884Y1144164D1*
X603458Y1139853D1*
Y1137002D1*
X604884Y1132690D1*
X607769Y1129839D1*
X610621Y1128379D1*
X614932D1*
X617817Y1129839D1*
X620669Y1132690D1*
X781934Y964773D2*
X763297D1*
Y934629D1*
X781934D1*
X763297Y950414D2*
X774771D1*
X791197Y954725D2*
Y934629D1*
Y948988D2*
X795508Y953299D1*
X798393Y954725D1*
X802671D1*
X805556Y953299D1*
X806982Y948988D1*
Y934629D1*
X833457Y954725D2*
Y934629D1*
Y950414D2*
X830605Y953299D1*
X827720Y954725D1*
X823442D1*
X820557Y953299D1*
X817705Y950414D1*
X816246Y946103D1*
Y943251D1*
X817705Y938940D1*
X820557Y936088D1*
X823442Y934629D1*
X827720D1*
X830605Y936088D1*
X833457Y938940D1*
X842720Y964773D2*
Y934629D1*
Y950414D2*
X845605Y953299D1*
X848457Y954725D1*
X852768D1*
X855620Y953299D1*
X858505Y950414D1*
X859931Y946103D1*
Y943251D1*
X858505Y938940D1*
X855620Y936088D1*
X852768Y934629D1*
X848457D1*
X845605Y936088D1*
X842720Y938940D1*
X869195Y964773D2*
Y934629D1*
X878458Y946103D2*
X895669D1*
Y948988D1*
X894243Y951873D1*
X892817Y953299D1*
X889932Y954725D1*
X885621D1*
X882769Y953299D1*
X879884Y950414D1*
X878458Y946103D1*
Y943251D1*
X879884Y938940D1*
X882769Y936088D1*
X885621Y934629D1*
X889932D1*
X892817Y936088D1*
X895669Y938940D1*
X508393Y554212D2*
X505541Y557098D1*
X501230Y558523D1*
X495493D1*
X491182Y557098D1*
X488297Y554212D1*
Y551361D1*
X489756Y548475D1*
X491182Y547050D1*
X494034Y545624D1*
X502656Y542738D1*
X505541Y541313D1*
X506967Y539853D1*
X508393Y537002D1*
Y532690D1*
X505541Y529839D1*
X501230Y528379D1*
X495493D1*
X491182Y529839D1*
X488297Y532690D1*
X521967Y558523D2*
Y534116D1*
X523393Y529839D1*
X526278Y528379D1*
X529130D1*
X517656Y548475D2*
X527704D1*
X538394Y539853D2*
X555605D1*
Y542738D1*
X554179Y545624D1*
X552753Y547050D1*
X549868Y548475D1*
X545557D1*
X542705Y547050D1*
X539820Y544164D1*
X538394Y539853D1*
Y537002D1*
X539820Y532690D1*
X542705Y529839D1*
X545557Y528379D1*
X549868D1*
X552753Y529839D1*
X555605Y532690D1*
X564868Y548475D2*
Y518331D1*
Y544164D2*
X567753Y547016D1*
X570605Y548475D1*
X574916D1*
X577801Y547016D1*
X580653Y544164D1*
X582112Y539853D1*
Y536968D1*
X580653Y532690D1*
X577801Y529805D1*
X574916Y528379D1*
X570605D1*
X567753Y529805D1*
X564868Y532690D1*
X488297Y458523D2*
Y428379D1*
X498345D1*
X502656Y429839D1*
X505541Y432690D1*
X506967Y435576D1*
X508393Y439853D1*
Y447050D1*
X506967Y451361D1*
X505541Y454212D1*
X502656Y457098D1*
X498345Y458523D1*
X488297D1*
X517656D2*
X519082Y457098D1*
X520541Y458523D1*
X519082Y459983D1*
X517656Y458523D1*
X519082Y448475D2*
Y428379D1*
X529805Y448475D2*
Y428379D1*
Y439853D2*
X531264Y444164D1*
X534116Y447050D1*
X537001Y448475D1*
X541312D1*
X715819Y467537D2*
X712967Y466111D1*
X710082Y463226D1*
X708656Y460374D1*
Y454637D1*
X710082Y451752D1*
X712967Y448900D1*
X715819Y447441D1*
X720130Y446015D1*
X727326D1*
X731604Y447441D1*
X734489Y448900D1*
X737341Y451752D1*
X738800Y454637D1*
Y460374D1*
X737341Y463226D1*
X734489Y466111D1*
X731604Y467537D1*
X727326D1*
Y460374D1*
X718704Y476800D2*
X738800D1*
X724441D2*
X720130Y481111D1*
X718704Y483996D1*
Y488274D1*
X720130Y491159D1*
X724441Y492585D1*
X738800D1*
X708656Y519060D2*
X738800D1*
X723015D2*
X720130Y516208D1*
X718704Y513323D1*
Y509012D1*
X720130Y506160D1*
X723015Y503275D1*
X727326Y501849D1*
X730178D1*
X734489Y503275D1*
X737341Y506160D1*
X738800Y509012D1*
Y513323D1*
X737341Y516208D1*
X734489Y519060D1*
X708656Y564765D2*
X738800Y576239D1*
X708656Y587713D1*
Y614188D2*
X738800D1*
X723015D2*
X720130Y611336D1*
X718704Y608451D1*
Y604140D1*
X720130Y601288D1*
X723015Y598403D1*
X727326Y596977D1*
X730178D1*
X734489Y598403D1*
X737341Y601288D1*
X738800Y604140D1*
Y608451D1*
X737341Y611336D1*
X734489Y614188D1*
X708656Y640662D2*
X738800D1*
X723015D2*
X720130Y637810D1*
X718704Y634925D1*
Y630614D1*
X720130Y627762D1*
X723015Y624877D1*
X727326Y623451D1*
X730178D1*
X734489Y624877D1*
X737341Y627762D1*
X738800Y630614D1*
Y634925D1*
X737341Y637810D1*
X734489Y640662D1*
X814642Y860463D2*
X811790Y863348D1*
X807479Y864774D1*
X801742D1*
X797431Y863348D1*
X794546Y860463D1*
Y857611D1*
X796005Y854726D1*
X797431Y853300D1*
X800283Y851874D1*
X808905Y848989D1*
X811790Y847563D1*
X813216Y846104D1*
X814642Y843252D1*
Y838941D1*
X811790Y836089D1*
X807479Y834630D1*
X801742D1*
X797431Y836089D1*
X794546Y838941D1*
X828217Y864774D2*
Y840367D1*
X829643Y836089D1*
X832528Y834630D1*
X835380D1*
X823906Y854726D2*
X833954D1*
X844643Y846104D2*
X861854D1*
Y848989D1*
X860428Y851874D1*
X859002Y853300D1*
X856117Y854726D1*
X851806D1*
X848954Y853300D1*
X846069Y850415D1*
X844643Y846104D1*
Y843252D1*
X846069Y838941D1*
X848954Y836089D1*
X851806Y834630D1*
X856117D1*
X859002Y836089D1*
X861854Y838941D1*
X871118Y854726D2*
Y824582D1*
Y850415D2*
X874003Y853267D1*
X876855Y854726D1*
X881166D1*
X884051Y853267D1*
X886903Y850415D1*
X888362Y846104D1*
Y843219D1*
X886903Y838941D1*
X884051Y836056D1*
X881166Y834630D1*
X876855D1*
X874003Y836056D1*
X871118Y838941D1*
X838297Y758523D2*
Y728379D1*
X848345D1*
X852656Y729839D1*
X855541Y732690D1*
X856967Y735576D1*
X858393Y739853D1*
Y747050D1*
X856967Y751361D1*
X855541Y754212D1*
X852656Y757098D1*
X848345Y758523D1*
X838297D1*
X867656D2*
X869082Y757098D1*
X870541Y758523D1*
X869082Y759983D1*
X867656Y758523D1*
X869082Y748475D2*
Y728379D1*
X879805Y748475D2*
Y728379D1*
Y739853D2*
X881264Y744164D1*
X884116Y747050D1*
X887001Y748475D1*
X891312D1*
X659570Y473786D2*
X656718Y472360D1*
X653833Y469475D1*
X652407Y466623D1*
Y460886D1*
X653833Y458001D1*
X656718Y455149D1*
X659570Y453690D1*
X663881Y452264D1*
X671077D1*
X675355Y453690D1*
X678240Y455149D1*
X681092Y458001D1*
X682551Y460886D1*
Y466623D1*
X681092Y469475D1*
X678240Y472360D1*
X675355Y473786D1*
X662455Y490212D2*
X663881Y487360D1*
X666766Y484475D1*
X671077Y483049D1*
X673929D1*
X678240Y484475D1*
X681092Y487360D1*
X682551Y490212D1*
Y494523D1*
X681092Y497408D1*
X678240Y500260D1*
X673929Y501719D1*
X671077D1*
X666766Y500260D1*
X663881Y497408D1*
X662455Y494523D1*
Y490212D1*
Y510983D2*
X682551D1*
X668192D2*
X663881Y515294D1*
X662455Y518179D1*
Y522457D1*
X663881Y525342D1*
X668192Y526768D1*
X682551D1*
X668192D2*
X663881Y531079D1*
X662455Y533964D1*
Y538242D1*
X663881Y541127D1*
X668192Y542586D1*
X682551D1*
X662455Y551850D2*
X682551D1*
X668192D2*
X663881Y556161D1*
X662455Y559046D1*
Y563324D1*
X663881Y566209D1*
X668192Y567635D1*
X682551D1*
X668192D2*
X663881Y571946D1*
X662455Y574831D1*
Y579109D1*
X663881Y581994D1*
X668192Y583453D1*
X682551D1*
X662455Y599879D2*
X663881Y597027D1*
X666766Y594142D1*
X671077Y592716D1*
X673929D1*
X678240Y594142D1*
X681092Y597027D1*
X682551Y599879D1*
Y604190D1*
X681092Y607075D1*
X678240Y609927D1*
X673929Y611386D1*
X671077D1*
X666766Y609927D1*
X663881Y607075D1*
X662455Y604190D1*
Y599879D1*
Y620650D2*
X682551D1*
X668192D2*
X663881Y624961D1*
X662455Y627846D1*
Y632124D1*
X663881Y635009D1*
X668192Y636435D1*
X682551D1*
X502407Y696804D2*
Y678167D1*
X532551D1*
Y696804D1*
X516766Y678167D2*
Y689641D1*
X512455Y706068D2*
X532551Y721853D1*
X512455D2*
X532551Y706068D1*
X502407Y735427D2*
X526814D1*
X531092Y736853D1*
X532551Y739738D1*
Y742590D1*
X512455Y731116D2*
Y741164D1*
X521077Y751854D2*
Y769065D1*
X518192D1*
X515307Y767639D1*
X513881Y766213D1*
X512455Y763328D1*
Y759017D1*
X513881Y756165D1*
X516766Y753280D1*
X521077Y751854D1*
X523929D1*
X528240Y753280D1*
X531092Y756165D1*
X532551Y759017D1*
Y763328D1*
X531092Y766213D1*
X528240Y769065D1*
X512455Y778328D2*
X532551D1*
X521077D2*
X516766Y779787D1*
X513881Y782639D1*
X512455Y785524D1*
Y789835D1*
Y799099D2*
X532551D1*
X518192D2*
X513881Y803410D1*
X512455Y806295D1*
Y810573D1*
X513881Y813458D1*
X518192Y814884D1*
X532551D1*
X512455Y841358D2*
X532551D1*
X516766D2*
X513881Y838507D1*
X512455Y835621D1*
Y831344D1*
X513881Y828459D1*
X516766Y825607D1*
X521077Y824148D1*
X523929D1*
X528240Y825607D1*
X531092Y828459D1*
X532551Y831344D1*
Y835621D1*
X531092Y838507D1*
X528240Y841358D1*
X502407Y850622D2*
X532551D1*
X502407Y889046D2*
X532551D1*
Y899094D1*
X531092Y903405D1*
X528240Y906290D1*
X525355Y907716D1*
X521077Y909142D1*
X513881D1*
X509570Y907716D1*
X506718Y906290D1*
X503833Y903405D1*
X502407Y899094D1*
Y889046D1*
X512455Y918406D2*
X532551D1*
X521077D2*
X516766Y919865D1*
X513881Y922717D1*
X512455Y925602D1*
Y929913D1*
X502407Y939176D2*
X503833Y940602D1*
X502407Y942061D1*
X500948Y940602D1*
X502407Y939176D1*
X512455Y940602D2*
X532551D1*
X512455Y951325D2*
X532551Y959947D1*
X512455Y968536D1*
X521077Y977799D2*
Y995010D1*
X518192D1*
X515307Y993584D1*
X513881Y992158D1*
X512455Y989273D1*
Y984962D1*
X513881Y982110D1*
X516766Y979225D1*
X521077Y977799D1*
X523929D1*
X528240Y979225D1*
X531092Y982110D1*
X532551Y984962D1*
Y989273D1*
X531092Y992158D1*
X528240Y995010D1*
X512455Y1004274D2*
X532551D1*
X521077D2*
X516766Y1005733D1*
X513881Y1008585D1*
X512455Y1011470D1*
Y1015781D1*
X559570Y691388D2*
X556718Y689962D1*
X553833Y687077D1*
X552407Y684225D1*
Y678488D1*
X553833Y675603D1*
X556718Y672751D1*
X559570Y671292D1*
X563881Y669866D1*
X571077D1*
X575355Y671292D1*
X578240Y672751D1*
X581092Y675603D1*
X582551Y678488D1*
Y684225D1*
X581092Y687077D1*
X578240Y689962D1*
X575355Y691388D1*
X562455Y707815D2*
X563881Y704963D1*
X566766Y702078D1*
X571077Y700652D1*
X573929D1*
X578240Y702078D1*
X581092Y704963D1*
X582551Y707815D1*
Y712126D1*
X581092Y715011D1*
X578240Y717863D1*
X573929Y719322D1*
X571077D1*
X566766Y717863D1*
X563881Y715011D1*
X562455Y712126D1*
Y707815D1*
Y728585D2*
X582551D1*
X568192D2*
X563881Y732896D1*
X562455Y735781D1*
Y740059D1*
X563881Y742944D1*
X568192Y744370D1*
X582551D1*
X562455Y753634D2*
X582551D1*
X568192D2*
X563881Y757945D1*
X562455Y760830D1*
Y765108D1*
X563881Y767993D1*
X568192Y769419D1*
X582551D1*
X571077Y778682D2*
Y795893D1*
X568192D1*
X565307Y794467D1*
X563881Y793041D1*
X562455Y790156D1*
Y785845D1*
X563881Y782993D1*
X566766Y780108D1*
X571077Y778682D1*
X573929D1*
X578240Y780108D1*
X581092Y782993D1*
X582551Y785845D1*
Y790156D1*
X581092Y793041D1*
X578240Y795893D1*
X566766Y822401D2*
X563881Y819516D1*
X562455Y816631D1*
Y812353D1*
X563881Y809468D1*
X566766Y806616D1*
X571077Y805157D1*
X573929D1*
X578240Y806616D1*
X581092Y809468D1*
X582551Y812353D1*
Y816631D1*
X581092Y819516D1*
X578240Y822401D1*
X552407Y835975D2*
X576814D1*
X581092Y837401D1*
X582551Y840286D1*
Y843138D1*
X562455Y831664D2*
Y841712D1*
Y859565D2*
X563881Y856713D1*
X566766Y853828D1*
X571077Y852402D1*
X573929D1*
X578240Y853828D1*
X581092Y856713D1*
X582551Y859565D1*
Y863876D1*
X581092Y866761D1*
X578240Y869613D1*
X573929Y871072D1*
X571077D1*
X566766Y869613D1*
X563881Y866761D1*
X562455Y863876D1*
Y859565D1*
Y880335D2*
X582551D1*
X571077D2*
X566766Y881795D1*
X563881Y884646D1*
X562455Y887532D1*
Y891843D1*
X552407Y930267D2*
X582551Y941741D1*
X552407Y953215D1*
X552440Y971100D2*
X553866Y966789D1*
X558177Y963904D1*
X565340Y962478D1*
X569651D1*
X576814Y963904D1*
X581125Y966789D1*
X582551Y971100D1*
Y973952D1*
X581125Y978263D1*
X576814Y981115D1*
X569651Y982574D1*
X565340D1*
X558177Y981115D1*
X553866Y978263D1*
X552440Y973952D1*
Y971100D1*
X558177Y981115D2*
X576814Y963904D1*
X579666Y993264D2*
X581125Y991838D1*
X582551Y993264D1*
X581125Y994723D1*
X579666Y993264D1*
X552440Y1021197D2*
Y1006871D1*
X565340Y1005445D1*
X563914Y1006871D1*
X562455Y1011182D1*
Y1015460D1*
X563914Y1019771D1*
X566766Y1022656D1*
X571077Y1024082D1*
X573929D1*
X578240Y1022656D1*
X581125Y1019771D1*
X582551Y1015460D1*
Y1011182D1*
X581125Y1006871D1*
X579666Y1005445D1*
X576814Y1003986D1*
X609603Y649300D2*
Y644989D1*
X611029Y642137D1*
X612455Y640678D1*
X615340Y639252D1*
X621077D1*
X622503Y640678D1*
Y643563D1*
X621077Y649300D1*
X623929Y650726D1*
Y652151D1*
X621077Y655037D1*
X613914Y656462D1*
X609603Y655037D1*
X606718Y653611D1*
X603866Y650726D1*
X602440Y647874D1*
Y642137D1*
X603866Y639252D1*
X606718Y636400D1*
X609603Y634941D1*
X613914Y633515D1*
X621077D1*
X625388Y634941D1*
X628240Y636400D1*
X631125Y639252D1*
X632551Y642137D1*
Y647874D1*
X631125Y650726D1*
X628240Y653611D1*
X608177Y649300D2*
X621077D1*
X602407Y665726D2*
X632551D1*
X616766D2*
X613881Y668611D1*
X612455Y671463D1*
Y675774D1*
X613881Y678626D1*
X616766Y681511D1*
X621077Y682937D1*
X623929D1*
X628240Y681511D1*
X631092Y678626D1*
X632551Y675774D1*
Y671463D1*
X631092Y668611D1*
X628240Y665726D1*
X612455Y692201D2*
X626814D1*
X631092Y693626D1*
X632551Y696512D1*
Y700823D1*
X631092Y703674D1*
X626814Y707985D1*
X612455D2*
X632551D1*
X602407Y717249D2*
X603833Y718675D1*
X602407Y720134D1*
X600948Y718675D1*
X602407Y717249D1*
X612455Y718675D2*
X632551D1*
X602407Y729398D2*
X632551D1*
X602407Y755872D2*
X632551D1*
X616766D2*
X613881Y753020D1*
X612455Y750135D1*
Y745824D1*
X613881Y742972D1*
X616766Y740087D1*
X621077Y738661D1*
X623929D1*
X628240Y740087D1*
X631092Y742972D1*
X632551Y745824D1*
Y750135D1*
X631092Y753020D1*
X628240Y755872D1*
X602407Y765136D2*
X632551D1*
X612455Y781562D2*
X613881Y778710D1*
X616766Y775825D1*
X621077Y774399D1*
X623929D1*
X628240Y775825D1*
X631092Y778710D1*
X632551Y781562D1*
Y785873D1*
X631092Y788758D1*
X628240Y791610D1*
X623929Y793069D1*
X621077D1*
X616766Y791610D1*
X613881Y788758D1*
X612455Y785873D1*
Y781562D1*
X613881Y819544D2*
X636862D1*
X641140Y818118D1*
X642599Y816692D1*
X644025Y813807D1*
Y809496D1*
X642599Y806644D1*
X618192Y819544D2*
X615340Y816692D1*
X613881Y813807D1*
Y809496D1*
X615340Y806644D1*
X618192Y803759D1*
X622503Y802333D1*
X625388D1*
X629666Y803759D1*
X632551Y806644D1*
X633977Y809496D1*
Y813807D1*
X632551Y816692D1*
X629666Y819544D1*
X594547Y868016D2*
X597399Y865131D1*
X601710Y862279D1*
X607447Y859394D1*
X614643Y857968D1*
X620380D1*
X627543Y859394D1*
X633280Y862279D1*
X637591Y865131D1*
X640443Y868016D1*
X616766Y894524D2*
X613881Y891638D1*
X612455Y888753D1*
Y884476D1*
X613881Y881590D1*
X616766Y878739D1*
X621077Y877279D1*
X623929D1*
X628240Y878739D1*
X631092Y881590D1*
X632551Y884476D1*
Y888753D1*
X631092Y891638D1*
X628240Y894524D1*
X594547Y903787D2*
X597399Y906672D1*
X601710Y909524D1*
X607447Y912409D1*
X614643Y913835D1*
X620380D1*
X627543Y912409D1*
X633280Y909524D1*
X637591Y906672D1*
X640443Y903787D1*
X609603Y953718D2*
X608177D1*
X605292Y955144D1*
X603866Y956570D1*
X602440Y959455D1*
Y965192D1*
X603866Y968044D1*
X605292Y969470D1*
X608177Y970929D1*
X611029D1*
X613914Y969470D1*
X618192Y966618D1*
X632551Y952259D1*
Y972355D1*
X602440Y990241D2*
X603866Y985930D1*
X608177Y983045D1*
X615340Y981619D1*
X619651D1*
X626814Y983045D1*
X631125Y985930D1*
X632551Y990241D1*
Y993093D1*
X631125Y997404D1*
X626814Y1000256D1*
X619651Y1001715D1*
X615340D1*
X608177Y1000256D1*
X603866Y997404D1*
X602440Y993093D1*
Y990241D1*
X608177Y1000256D2*
X626814Y983045D1*
X609603Y1012437D2*
X608177D1*
X605292Y1013863D1*
X603866Y1015289D1*
X602440Y1018174D1*
Y1023911D1*
X603866Y1026763D1*
X605292Y1028189D1*
X608177Y1029648D1*
X611029D1*
X613914Y1028189D1*
X618192Y1025337D1*
X632551Y1010978D1*
Y1031074D1*
X602440Y1048960D2*
X603866Y1044649D1*
X608177Y1041764D1*
X615340Y1040338D1*
X619651D1*
X626814Y1041764D1*
X631125Y1044649D1*
X632551Y1048960D1*
Y1051812D1*
X631125Y1056123D1*
X626814Y1058975D1*
X619651Y1060434D1*
X615340D1*
X608177Y1058975D1*
X603866Y1056123D1*
X602440Y1051812D1*
Y1048960D1*
X608177Y1058975D2*
X626814Y1041764D1*
M02*
