G04 DipTrace 4.0.0.2*
G04 1 - Top.gbr*
%MOIN*%
G04 #@! TF.FileFunction,Copper,L1,Top*
G04 #@! TF.Part,Single*
%AMOUTLINE0*
4,1,5,
-0.027559,-0.011811,
-0.027559,0.023622,
0.027559,0.023622,
0.027559,-0.023622,
-0.011811,-0.023622,
-0.027559,-0.011811,
0*%
%AMOUTLINE3*
4,1,5,
-0.027559,-0.023622,
-0.027559,0.023622,
0.027559,0.023622,
0.027559,-0.011811,
0.015748,-0.023622,
-0.027559,-0.023622,
0*%
G04 #@! TA.AperFunction,Conductor*
%ADD14C,0.012*%
%ADD15C,0.018*%
%ADD16C,0.015*%
%ADD17C,0.02*%
%ADD20R,0.059055X0.051181*%
%ADD22R,0.047244X0.047244*%
G04 #@! TA.AperFunction,ComponentPad*
%ADD23R,0.059055X0.059055*%
%ADD24C,0.059055*%
%ADD25R,0.066929X0.086614*%
%ADD26R,0.062992X0.059055*%
G04 #@! TA.AperFunction,ComponentPad*
%ADD27R,0.086614X0.086614*%
%ADD28C,0.086614*%
%ADD29R,0.023622X0.07874*%
G04 #@! TA.AperFunction,ViaPad*
%ADD30C,0.04*%
%ADD59OUTLINE0*%
%ADD62OUTLINE3*%
%FSLAX26Y26*%
G04*
G70*
G90*
G75*
G01*
G04 Top*
%LPD*%
X606500Y1381500D2*
D14*
Y1306500D1*
X956500Y1269000D2*
Y1206500D1*
X649906Y1667474D2*
Y1617278D1*
X544000Y1006697D2*
X494197D1*
X494000Y1006500D1*
X856500Y1456598D2*
Y1456500D1*
X900251D1*
X1131500Y1563980D2*
Y1621657D1*
X1369000Y1563980D2*
Y1621657D1*
X856500Y1244000D2*
D15*
X875249D1*
X900249Y1269000D1*
X956500D1*
X769000Y1581598D2*
D14*
X875251D1*
X981500D1*
X1031598D1*
X1071657Y1621657D1*
X1131500D1*
X541983Y1745723D2*
X649906D1*
Y1742277D1*
X629777D1*
X773916Y1886416D1*
Y1968803D1*
Y1815255D1*
X769000Y1810339D1*
X706500Y1456598D2*
X606795D1*
X606500Y1456303D1*
X694000Y1525249D2*
D16*
Y1531500D1*
X706500Y1519000D1*
Y1456598D1*
X631500Y1081303D2*
D14*
Y1256499D1*
X687751Y1312749D1*
X744001D1*
X756500Y1300251D1*
Y1244000D1*
X544000Y1081500D2*
X631303D1*
X631500Y1081303D1*
X887602Y744000D2*
D15*
Y962898D1*
X706500Y1144000D1*
Y1244000D1*
X544000Y729039D2*
Y706499D1*
X600249Y650249D1*
X793852D1*
X887602Y744000D1*
X756500Y1456598D2*
D14*
X806500D1*
Y1244000D2*
Y1181500D1*
X544000D2*
Y1670920D1*
X541983D1*
X806500Y1244000D2*
Y1331500D1*
X819000Y1344000D1*
X956303D1*
X956500Y1343803D1*
X599118Y856992D2*
D15*
Y886618D1*
X631500Y919000D1*
Y1006500D1*
X1231500Y1563980D2*
D14*
Y1659256D1*
X1110190Y1734059D2*
X1231500D1*
X873916Y1968803D2*
Y1811673D1*
X875251Y1810339D1*
X1469000Y1563980D2*
Y1659256D1*
X1300988Y744000D2*
D17*
Y888488D1*
X1469000Y1056500D1*
Y1229335D1*
X1025398Y744000D2*
Y919148D1*
X1131500Y1025251D1*
Y1229335D1*
Y1294000D1*
X1150251Y1312751D1*
X1344000D1*
X1369000Y1287751D1*
Y1229335D1*
X1163193Y744000D2*
Y950693D1*
X1231500Y1019000D1*
Y1229335D1*
X973916Y1968803D2*
D14*
Y1964084D1*
X1131500Y1806500D1*
X1396559D1*
X1469000Y1734059D1*
X973916Y1968803D2*
Y1817923D1*
X981500Y1810339D1*
X769000Y1727661D2*
Y1656402D1*
X875251Y1727661D2*
Y1656402D1*
X981500Y1727661D2*
Y1656402D1*
D30*
X694000Y1525249D3*
X806500Y1181500D3*
X544000D3*
X1110190Y1734059D3*
X1131500Y1621657D3*
X1369000D3*
X956500Y1206500D3*
X649906Y1617278D3*
X494000Y1006500D3*
X900251Y1456500D3*
X606500Y1306500D3*
D20*
X956500Y1269000D3*
Y1343803D3*
X606500Y1381500D3*
Y1456303D3*
D22*
X769000Y1810339D3*
Y1727661D3*
X875251Y1810339D3*
Y1727661D3*
X981500Y1810339D3*
Y1727661D3*
D23*
X473916Y1968803D3*
D24*
X573916D3*
X673916D3*
X773916D3*
X873916D3*
X973916D3*
X1073916D3*
X1173916D3*
X1273907D3*
X1373907D3*
X1473907D3*
X1573907D3*
D25*
X1231500Y1563980D3*
X1131500D3*
Y1229335D3*
X1231500D3*
X1469000Y1563980D3*
X1369000D3*
Y1229335D3*
X1469000D3*
D20*
X1231500Y1734059D3*
Y1659256D3*
X769000Y1656402D3*
Y1581598D3*
X875251Y1656402D3*
Y1581598D3*
X1469000Y1734059D3*
Y1659256D3*
X981500Y1656402D3*
Y1581598D3*
X541983Y1745723D3*
Y1670920D3*
D59*
X599118Y856992D3*
D62*
X488882D3*
D26*
X544000Y729039D3*
D20*
X631500Y1006500D3*
Y1081303D3*
X649906Y1742277D3*
Y1667474D3*
X544000Y1081500D3*
Y1006697D3*
D27*
X749807Y744000D3*
D28*
X887602D3*
X1025398D3*
X1163193D3*
X1300988D3*
D29*
X706500Y1244000D3*
X756500D3*
X806500D3*
X856500D3*
Y1456598D3*
X806500D3*
X756500D3*
X706500D3*
M02*
