G04 DipTrace 4.0.0.2*
G04 2 - Bottom.gbr*
%MOIN*%
G04 #@! TF.FileFunction,Copper,L2,Bot*
G04 #@! TF.Part,Single*
G04 #@! TA.AperFunction,Conductor*
%ADD14C,0.012*%
%ADD16C,0.015*%
G04 #@! TA.AperFunction,CopperBalancing*
%ADD18C,0.025*%
G04 #@! TA.AperFunction,ComponentPad*
%ADD23R,0.059055X0.059055*%
%ADD24C,0.059055*%
%ADD27R,0.086614X0.086614*%
%ADD28C,0.086614*%
G04 #@! TA.AperFunction,ViaPad*
%ADD30C,0.04*%
%FSLAX26Y26*%
G04*
G70*
G90*
G75*
G01*
G04 Bottom*
%LPD*%
X573916Y1968803D2*
D16*
Y1582832D1*
X631499Y1525249D1*
X694000D1*
X806500Y1181500D2*
D14*
X544000D1*
X873916Y1968803D2*
Y1970333D1*
X1110190Y1734059D1*
D30*
X694000Y1525249D3*
X806500Y1181500D3*
X544000D3*
X1110190Y1734059D3*
X1131500Y1621657D3*
X1369000D3*
X956500Y1206500D3*
X649906Y1617278D3*
X494000Y1006500D3*
X900251Y1456500D3*
X606500Y1306500D3*
X434018Y1981631D2*
D18*
X504626D1*
X1543198D2*
X1603113D1*
X434018Y1956762D2*
X504446D1*
X1543378D2*
X1602538D1*
X434018Y1931894D2*
X514278D1*
X1533546D2*
X1601965D1*
X434018Y1907025D2*
X525403D1*
X622409D2*
X642924D1*
X704908D2*
X742933D1*
X804881D2*
X842942D1*
X1004899D2*
X1042925D1*
X1104908D2*
X1142934D1*
X1204882D2*
X1242944D1*
X1304891D2*
X1342916D1*
X1404900D2*
X1442925D1*
X1504874D2*
X1601390D1*
X434018Y1882156D2*
X525403D1*
X622409D2*
X896660D1*
X1027542D2*
X1600816D1*
X434018Y1857287D2*
X525403D1*
X622409D2*
X921529D1*
X1052411D2*
X1600241D1*
X434018Y1832419D2*
X525403D1*
X622409D2*
X946396D1*
X1077278D2*
X1599668D1*
X434018Y1807550D2*
X525403D1*
X622409D2*
X971264D1*
X1102146D2*
X1599093D1*
X434018Y1782681D2*
X525403D1*
X622409D2*
X996131D1*
X1145206D2*
X1598483D1*
X434018Y1757812D2*
X525403D1*
X622409D2*
X1021000D1*
X1166163D2*
X1597909D1*
X434018Y1732944D2*
X525403D1*
X622409D2*
X1045867D1*
X1171186D2*
X1597335D1*
X434018Y1708075D2*
X525403D1*
X622409D2*
X1055269D1*
X1165087D2*
X1596761D1*
X434018Y1683206D2*
X525403D1*
X622409D2*
X1078773D1*
X1141618D2*
X1596186D1*
X434018Y1658337D2*
X525403D1*
X622409D2*
X1595613D1*
X434018Y1633469D2*
X525403D1*
X622409D2*
X1595038D1*
X434018Y1608600D2*
X525403D1*
X622409D2*
X1594465D1*
X434018Y1583731D2*
X525403D1*
X640567D2*
X1593890D1*
X434018Y1558862D2*
X532150D1*
X744381D2*
X1593281D1*
X434018Y1533993D2*
X555186D1*
X754356D2*
X1592706D1*
X434018Y1509125D2*
X580055D1*
X752741D2*
X1592133D1*
X434018Y1484256D2*
X608115D1*
X738244D2*
X1003991D1*
X434018Y1459387D2*
X1003991D1*
X434018Y1434518D2*
X1003991D1*
X434018Y1409650D2*
X1003991D1*
X434018Y1384781D2*
X1003991D1*
X434018Y1359912D2*
X1003991D1*
X434018Y1335043D2*
X1003991D1*
X434018Y1310175D2*
X1003991D1*
X434018Y1285306D2*
X1003991D1*
X434018Y1260437D2*
X1003991D1*
X434018Y1235568D2*
X519159D1*
X568835D2*
X781652D1*
X831328D2*
X1003991D1*
X434018Y1210699D2*
X490811D1*
X859676D2*
X1003991D1*
X434018Y1185831D2*
X483167D1*
X867356D2*
X1003991D1*
X434018Y1160962D2*
X486719D1*
X863766D2*
X1003991D1*
X434018Y1136093D2*
X504626D1*
X583367D2*
X767118D1*
X845896D2*
X1003991D1*
X434018Y1111224D2*
X1003991D1*
X434018Y1086356D2*
X1003991D1*
X434018Y1061487D2*
X916505D1*
X434018Y1036618D2*
X916505D1*
X434018Y1011749D2*
X916505D1*
X434018Y986881D2*
X916505D1*
X434018Y962012D2*
X916505D1*
X434018Y937143D2*
X916505D1*
X434018Y912274D2*
X916505D1*
X434018Y887406D2*
X916505D1*
X434018Y862537D2*
X916505D1*
X434018Y837668D2*
X916505D1*
X434018Y812799D2*
X840825D1*
X434018Y787930D2*
X816101D1*
X434018Y763062D2*
X805551D1*
X434018Y738193D2*
X803505D1*
X434018Y713324D2*
X809247D1*
X434018Y688455D2*
X825035D1*
X434018Y663587D2*
X870071D1*
X434018Y638718D2*
X916505D1*
X434018Y613849D2*
X916505D1*
X434018Y588980D2*
X916505D1*
X434018Y564112D2*
X916505D1*
X434018Y539243D2*
X916505D1*
X434018Y514374D2*
X916505D1*
X434018Y489505D2*
X916505D1*
X434018Y464636D2*
X916505D1*
X434018Y439768D2*
X916505D1*
X919022Y668472D2*
X912882Y666197D1*
X906699Y664453D1*
X900400Y663199D1*
X894021Y662445D1*
X887602Y662193D1*
X881184Y662445D1*
X874804Y663199D1*
X868505Y664453D1*
X862323Y666197D1*
X856297Y668420D1*
X850463Y671109D1*
X844858Y674248D1*
X839517Y677816D1*
X834472Y681794D1*
X829756Y686154D1*
X825396Y690870D1*
X821419Y695915D1*
X817850Y701256D1*
X814711Y706861D1*
X812022Y712694D1*
X809799Y718720D1*
X808055Y724903D1*
X806802Y731202D1*
X806047Y737581D1*
X805795Y744000D1*
X806047Y750419D1*
X806802Y756798D1*
X808055Y763097D1*
X809799Y769280D1*
X812022Y775306D1*
X814711Y781139D1*
X817850Y786744D1*
X821419Y792085D1*
X825396Y797130D1*
X829756Y801846D1*
X834472Y806206D1*
X839517Y810184D1*
X844858Y813752D1*
X850463Y816891D1*
X856297Y819580D1*
X862323Y821803D1*
X868505Y823547D1*
X874804Y824801D1*
X881184Y825555D1*
X887602Y825807D1*
X894021Y825555D1*
X900400Y824801D1*
X906699Y823547D1*
X912882Y821803D1*
X919022Y819528D1*
X919038Y1069980D1*
X919612Y1072862D1*
X920843Y1075531D1*
X922661Y1077839D1*
X924969Y1079657D1*
X927638Y1080888D1*
X930520Y1081462D1*
X1006528Y1081500D1*
X1006538Y1482480D1*
X1007112Y1485362D1*
X1008343Y1488031D1*
X1010161Y1490339D1*
X1012469Y1492157D1*
X1015138Y1493388D1*
X1018020Y1493962D1*
X1594253Y1494000D1*
X1606206Y2006517D1*
X1530570Y2006500D1*
X1534520Y1999688D1*
X1538605Y1989825D1*
X1541097Y1979445D1*
X1541934Y1968803D1*
X1541097Y1958161D1*
X1538605Y1947781D1*
X1534520Y1937919D1*
X1528942Y1928818D1*
X1522009Y1920701D1*
X1513892Y1913768D1*
X1504791Y1908190D1*
X1494929Y1904105D1*
X1484549Y1901613D1*
X1473907Y1900776D1*
X1463265Y1901613D1*
X1452885Y1904105D1*
X1443022Y1908190D1*
X1433921Y1913768D1*
X1425804Y1920701D1*
X1423949Y1922707D1*
X1418087Y1917075D1*
X1409451Y1910801D1*
X1399940Y1905954D1*
X1389787Y1902655D1*
X1379244Y1900986D1*
X1368570D1*
X1358026Y1902655D1*
X1347874Y1905954D1*
X1338362Y1910801D1*
X1329727Y1917075D1*
X1323949Y1922707D1*
X1318087Y1917075D1*
X1309451Y1910801D1*
X1299940Y1905954D1*
X1289787Y1902655D1*
X1279244Y1900986D1*
X1268570D1*
X1258026Y1902655D1*
X1247874Y1905954D1*
X1238362Y1910801D1*
X1229727Y1917075D1*
X1223949Y1922707D1*
X1218096Y1917075D1*
X1209461Y1910801D1*
X1199949Y1905954D1*
X1189797Y1902655D1*
X1179253Y1900986D1*
X1168579D1*
X1158035Y1902655D1*
X1147883Y1905954D1*
X1138371Y1910801D1*
X1129736Y1917075D1*
X1123958Y1922707D1*
X1118096Y1917075D1*
X1109461Y1910801D1*
X1099949Y1905954D1*
X1089797Y1902655D1*
X1079253Y1900986D1*
X1068579D1*
X1058035Y1902655D1*
X1047883Y1905954D1*
X1038371Y1910801D1*
X1029736Y1917075D1*
X1023958Y1922707D1*
X1018096Y1917075D1*
X1009461Y1910801D1*
X1000840Y1906365D1*
X1114810Y1792371D1*
X1123846Y1790942D1*
X1132577Y1788106D1*
X1140756Y1783938D1*
X1148182Y1778543D1*
X1154675Y1772051D1*
X1160070Y1764625D1*
X1164238Y1756446D1*
X1167073Y1747715D1*
X1168510Y1738648D1*
Y1729470D1*
X1167073Y1720403D1*
X1164238Y1711672D1*
X1160070Y1703493D1*
X1154675Y1696067D1*
X1148182Y1689575D1*
X1140756Y1684180D1*
X1132577Y1680012D1*
X1123846Y1677176D1*
X1114780Y1675739D1*
X1105601D1*
X1096534Y1677176D1*
X1087803Y1680012D1*
X1079625Y1684180D1*
X1072198Y1689575D1*
X1065706Y1696067D1*
X1060311Y1703493D1*
X1056143Y1711672D1*
X1053307Y1720403D1*
X1051873Y1729451D1*
X880257Y1901059D1*
X873916Y1900776D1*
X863274Y1901613D1*
X852894Y1904105D1*
X843031Y1908190D1*
X833930Y1913768D1*
X825814Y1920701D1*
X823958Y1922707D1*
X818096Y1917075D1*
X809461Y1910801D1*
X799949Y1905954D1*
X789797Y1902655D1*
X779253Y1900986D1*
X768579D1*
X758035Y1902655D1*
X747883Y1905954D1*
X738371Y1910801D1*
X729736Y1917075D1*
X723958Y1922707D1*
X718096Y1917075D1*
X709461Y1910801D1*
X699949Y1905954D1*
X689797Y1902655D1*
X679253Y1900986D1*
X668579D1*
X658035Y1902655D1*
X647883Y1905954D1*
X638371Y1910801D1*
X629736Y1917075D1*
X623958Y1922707D1*
X619920Y1918760D1*
X619916Y1601885D1*
X650541Y1571261D1*
X657864Y1571249D1*
X663434Y1575129D1*
X671613Y1579297D1*
X680344Y1582133D1*
X689411Y1583570D1*
X698589D1*
X707656Y1582133D1*
X716387Y1579297D1*
X724566Y1575129D1*
X731992Y1569734D1*
X738484Y1563241D1*
X743879Y1555815D1*
X748047Y1547636D1*
X750883Y1538906D1*
X752320Y1529839D1*
Y1520660D1*
X750883Y1511593D1*
X748047Y1502862D1*
X743879Y1494684D1*
X738484Y1487257D1*
X731992Y1480765D1*
X724566Y1475370D1*
X716387Y1471202D1*
X707656Y1468366D1*
X698589Y1466929D1*
X689411D1*
X680344Y1468366D1*
X671613Y1471202D1*
X663434Y1475370D1*
X657938Y1479244D1*
X627890Y1479391D1*
X620760Y1480520D1*
X613895Y1482751D1*
X607463Y1486028D1*
X601625Y1490270D1*
X580222Y1511472D1*
X538937Y1552959D1*
X534694Y1558799D1*
X531417Y1565231D1*
X529186Y1572096D1*
X528058Y1579224D1*
X527916Y1610396D1*
Y1918677D1*
X522188Y1924623D1*
X515913Y1933259D1*
X511067Y1942770D1*
X507768Y1952923D1*
X506098Y1963466D1*
Y1974140D1*
X507768Y1984684D1*
X511067Y1994836D1*
X515913Y2004348D1*
X517362Y2006516D1*
X431508Y2006500D1*
X431500Y431510D1*
X919012Y431500D1*
X919000Y668488D1*
X768504Y1137000D2*
X581979D1*
X574566Y1131621D1*
X566387Y1127453D1*
X557656Y1124617D1*
X548589Y1123180D1*
X539411D1*
X530344Y1124617D1*
X521613Y1127453D1*
X513434Y1131621D1*
X506008Y1137016D1*
X499516Y1143508D1*
X494121Y1150934D1*
X489953Y1159113D1*
X487117Y1167844D1*
X485680Y1176911D1*
Y1186089D1*
X487117Y1195156D1*
X489953Y1203887D1*
X494121Y1212066D1*
X499516Y1219492D1*
X506008Y1225984D1*
X513434Y1231379D1*
X521613Y1235547D1*
X530344Y1238383D1*
X539411Y1239820D1*
X548589D1*
X557656Y1238383D1*
X566387Y1235547D1*
X574566Y1231379D1*
X581979Y1225995D1*
X768521Y1226000D1*
X775934Y1231379D1*
X784113Y1235547D1*
X792844Y1238383D1*
X801911Y1239820D1*
X811089D1*
X820156Y1238383D1*
X828887Y1235547D1*
X837066Y1231379D1*
X844492Y1225984D1*
X850984Y1219492D1*
X856379Y1212066D1*
X860547Y1203887D1*
X863383Y1195156D1*
X864820Y1186089D1*
Y1176911D1*
X863383Y1167844D1*
X860547Y1159113D1*
X856379Y1150934D1*
X850984Y1143508D1*
X844492Y1137016D1*
X837066Y1131621D1*
X828887Y1127453D1*
X820156Y1124617D1*
X811089Y1123180D1*
X801911D1*
X792844Y1124617D1*
X784113Y1127453D1*
X775934Y1131621D1*
X768521Y1137005D1*
D23*
X473916Y1968803D3*
D24*
X573916D3*
X673916D3*
X773916D3*
X873916D3*
X973916D3*
X1073916D3*
X1173916D3*
X1273907D3*
X1373907D3*
X1473907D3*
X1573907D3*
D27*
X749807Y744000D3*
D28*
X887602D3*
X1025398D3*
X1163193D3*
X1300988D3*
M02*
