G04 DipTrace 4.0.0.2*
G04 BottomSilk.gbr*
%MOIN*%
G04 #@! TF.FileFunction,Legend,Bot*
G04 #@! TF.Part,Single*
%FSLAX26Y26*%
G04*
G70*
G90*
G75*
G01*
G04 BotSilk*
%LPD*%
G36*
X706631Y611452D2*
Y570507D1*
X713717D1*
Y573657D1*
X714559Y574183D1*
X715292Y574444D1*
X717654Y572082D1*
X722379Y569720D1*
X724741Y568933D1*
X731827D1*
X734190Y569720D1*
X737339Y571295D1*
X741276Y575232D1*
X743639Y579956D1*
X744426Y582318D1*
X745213Y585468D1*
Y601216D1*
X743639Y605941D1*
X742064Y609090D1*
X740489Y611452D1*
X736552Y615389D1*
X731827Y617752D1*
X729465Y618539D1*
X721591D1*
X716867Y616964D1*
X715292Y616177D1*
X714457Y615322D1*
X714049Y615449D1*
X713717Y616177D1*
Y636649D1*
X706631D1*
Y611452D1*
X720016D1*
X722904Y612240D1*
X725791D1*
X728678Y611452D1*
X731040Y610665D1*
X731827Y609878D1*
X733402Y609090D1*
X734037Y608074D1*
X734190Y607515D1*
X735764Y605153D1*
X736552Y603578D1*
X737339Y600429D1*
X738127Y599641D1*
Y587043D1*
X737339Y586256D1*
X736552Y583106D1*
X735764Y581531D1*
Y580744D1*
X732615Y577594D1*
X730253Y576807D1*
X727628Y576019D1*
X725003D1*
X722379Y576807D1*
X720016Y577594D1*
X715292Y579956D1*
X713717Y581531D1*
Y609090D1*
X716867Y610665D1*
X720016Y611452D1*
X706631D1*
G37*
G36*
X960961D2*
Y570507D1*
X968048D1*
Y573657D1*
X968889Y574183D1*
X969623Y574444D1*
X971985Y572082D1*
X976709Y569720D1*
X979072Y568933D1*
X986158D1*
X988520Y569720D1*
X991670Y571295D1*
X995607Y575232D1*
X997969Y579956D1*
X998757Y582318D1*
X999544Y585468D1*
Y601216D1*
X997969Y605941D1*
X996394Y609090D1*
X994820Y611452D1*
X990883Y615389D1*
X986158Y617752D1*
X983796Y618539D1*
X975922D1*
X971198Y616964D1*
X969623Y616177D1*
X968788Y615322D1*
X968380Y615449D1*
X968048Y616177D1*
Y636649D1*
X960961D1*
Y611452D1*
X974347D1*
X977234Y612240D1*
X980121D1*
X983009Y611452D1*
X985371Y610665D1*
X986158Y609878D1*
X987733Y609090D1*
X988367Y608074D1*
X988520Y607515D1*
X990095Y605153D1*
X990883Y603578D1*
X991670Y600429D1*
X992457Y599641D1*
Y587043D1*
X991670Y586256D1*
X990883Y583106D1*
X990095Y581531D1*
Y580744D1*
X986946Y577594D1*
X984583Y576807D1*
X981959Y576019D1*
X979334D1*
X976709Y576807D1*
X974347Y577594D1*
X969623Y579956D1*
X968048Y581531D1*
Y609090D1*
X971198Y610665D1*
X974347Y611452D1*
X960961D1*
G37*
G36*
X638914Y635862D2*
Y570507D1*
X646001D1*
Y635862D1*
X638914D1*
G37*
G36*
X941276D2*
Y570507D1*
X948363D1*
Y635862D1*
X941276D1*
G37*
G36*
X1136552Y634287D2*
X1131827Y633500D1*
X1128678Y632712D1*
X1126316Y631925D1*
X1124741Y631137D1*
X1123953Y630350D1*
Y620901D1*
X1127103Y623263D1*
X1127890Y624051D1*
X1131040Y625626D1*
X1133402Y626413D1*
X1139701Y627988D1*
X1142851D1*
X1146001Y627200D1*
X1148363Y626413D1*
X1149938Y625626D1*
X1153875Y621689D1*
Y620901D1*
X1154662Y620114D1*
Y614602D1*
X1153875Y613815D1*
Y612240D1*
X1150725Y609090D1*
X1149150Y608303D1*
X1144426Y606728D1*
X1134977Y604366D1*
X1130253Y602791D1*
X1128678Y602004D1*
X1126316Y600429D1*
X1123953Y598067D1*
X1121591Y593342D1*
X1120804Y588618D1*
Y587043D1*
X1121591Y583106D1*
X1122379Y580744D1*
X1123953Y577594D1*
X1126316Y574444D1*
X1129465Y572082D1*
X1132615Y570507D1*
X1134977Y569720D1*
X1138127Y568933D1*
X1148363D1*
X1153087Y569720D1*
X1157812Y571295D1*
X1161749Y572870D1*
X1162536Y573657D1*
Y583893D1*
X1159387Y580744D1*
X1153087Y577594D1*
X1148363Y576019D1*
X1144951Y575232D1*
X1141539D1*
X1138127Y576019D1*
X1135764Y576807D1*
X1132615Y578381D1*
X1130253Y580744D1*
Y581531D1*
X1129465Y583893D1*
X1128678Y584681D1*
Y587830D1*
X1129465Y588618D1*
X1131040Y592555D1*
X1131193Y593113D1*
X1131827Y594130D1*
X1134977Y595704D1*
X1139701Y597279D1*
X1149150Y599641D1*
X1151513Y600429D1*
X1156237Y602791D1*
X1160174Y606728D1*
X1161749Y609878D1*
X1162536Y613027D1*
Y619326D1*
X1161749Y622476D1*
X1160174Y625626D1*
X1154662Y631137D1*
X1151513Y632712D1*
X1149150Y633500D1*
X1146001Y634287D1*
X1136552D1*
G37*
G36*
X1254662Y627200D2*
X1253875Y626413D1*
X1252300Y623263D1*
X1250725Y618539D1*
X1249938Y614602D1*
X1249150Y607515D1*
Y594917D1*
X1249938Y588618D1*
X1250725Y584681D1*
X1252300Y579956D1*
X1253875Y576807D1*
X1255450Y574444D1*
X1257812Y572082D1*
X1260174Y570507D1*
X1264898Y568933D1*
X1272772D1*
X1275922Y569720D1*
X1279072Y571295D1*
X1283009Y575232D1*
X1284583Y577594D1*
X1285371Y579169D1*
X1286946Y583893D1*
X1287733Y587043D1*
X1288520Y591767D1*
Y611452D1*
X1287733Y616177D1*
X1286946Y619326D1*
X1285371Y624051D1*
X1283796Y627200D1*
X1279072Y631925D1*
X1275922Y633500D1*
X1272772Y634287D1*
X1265686D1*
X1262536Y633500D1*
X1257812Y631137D1*
X1255450Y628775D1*
X1254662Y627200D1*
X1264898D1*
X1267523Y627988D1*
X1270148D1*
X1272772Y627200D1*
X1275922Y625626D1*
X1276556Y624609D1*
X1276709Y624051D1*
X1278284Y621689D1*
X1279072Y619326D1*
X1279859Y615389D1*
X1280646Y614602D1*
Y588618D1*
X1279859Y587830D1*
X1279072Y583893D1*
X1278284Y581531D1*
X1276709Y579169D1*
X1276451Y578214D1*
X1275922Y577594D1*
X1272772Y576019D1*
X1270410Y575232D1*
X1268048D1*
X1263324Y576807D1*
X1260174Y579956D1*
Y580744D1*
X1259387Y582318D1*
X1258599Y585468D1*
X1257812Y590980D1*
X1257024Y591767D1*
Y611452D1*
X1257812Y612240D1*
X1258599Y617752D1*
X1259387Y620901D1*
X1260174Y622476D1*
Y623263D1*
X1263324Y626413D1*
X1264898Y627200D1*
X1254662D1*
G37*
G36*
X1380646D2*
X1379859Y626413D1*
X1378284Y623263D1*
X1376709Y618539D1*
X1375922Y614602D1*
X1375135Y607515D1*
Y594917D1*
X1375922Y588618D1*
X1376709Y584681D1*
X1378284Y579956D1*
X1379859Y576807D1*
X1381434Y574444D1*
X1383796Y572082D1*
X1386158Y570507D1*
X1390883Y568933D1*
X1398757D1*
X1401906Y569720D1*
X1405056Y571295D1*
X1408993Y575232D1*
X1410568Y577594D1*
X1411355Y579169D1*
X1412930Y583893D1*
X1413717Y587043D1*
X1414505Y591767D1*
Y611452D1*
X1413717Y616177D1*
X1412930Y619326D1*
X1411355Y624051D1*
X1409780Y627200D1*
X1405056Y631925D1*
X1401906Y633500D1*
X1398757Y634287D1*
X1391670D1*
X1388520Y633500D1*
X1383796Y631137D1*
X1381434Y628775D1*
X1380646Y627200D1*
X1390883D1*
X1393507Y627988D1*
X1396132D1*
X1398757Y627200D1*
X1401906Y625626D1*
X1402541Y624609D1*
X1402694Y624051D1*
X1404268Y621689D1*
X1405056Y619326D1*
X1405843Y615389D1*
X1406631Y614602D1*
Y588618D1*
X1405843Y587830D1*
X1405056Y583893D1*
X1404268Y581531D1*
X1402694Y579169D1*
X1402435Y578214D1*
X1401906Y577594D1*
X1398757Y576019D1*
X1396394Y575232D1*
X1394032D1*
X1389308Y576807D1*
X1386158Y579956D1*
Y580744D1*
X1385371Y582318D1*
X1384583Y585468D1*
X1383796Y590980D1*
X1383009Y591767D1*
Y611452D1*
X1383796Y612240D1*
X1384583Y617752D1*
X1385371Y620901D1*
X1386158Y622476D1*
Y623263D1*
X1389308Y626413D1*
X1390883Y627200D1*
X1380646D1*
G37*
G36*
X802694Y632712D2*
Y570507D1*
X809780D1*
Y623263D1*
X810368Y623769D1*
X810776Y623723D1*
X811318Y623185D1*
X811740Y622461D1*
X812142Y621689D1*
X812930Y619326D1*
X815292Y614602D1*
X816079Y612240D1*
X818442Y607515D1*
X819229Y605153D1*
X821591Y600429D1*
X822379Y598067D1*
X824741Y593342D1*
X825528Y590980D1*
X827103Y587830D1*
X831827D1*
X834977Y594130D1*
X835764Y596492D1*
X837339Y599641D1*
X838127Y602004D1*
X840489Y606728D1*
X841276Y609090D1*
X843639Y613815D1*
X844426Y616177D1*
X846788Y620901D1*
X847576Y623263D1*
X848164Y623769D1*
X848572Y623723D1*
X849150Y623263D1*
Y570507D1*
X855450D1*
Y632712D1*
X845213D1*
X844426Y631925D1*
X843639Y629563D1*
X840489Y623263D1*
X839701Y620901D1*
X837339Y616177D1*
X836552Y613815D1*
X833402Y607515D1*
X832615Y605153D1*
X830253Y600429D1*
Y598854D1*
X829293Y598032D1*
X828382Y598134D1*
X827890Y598854D1*
Y600429D1*
X826316Y603578D1*
X825528Y605941D1*
X823166Y610665D1*
X822379Y613027D1*
X820804Y616177D1*
X820016Y618539D1*
X818442Y621689D1*
X817654Y624051D1*
X815292Y628775D1*
X814505Y631137D1*
X813717Y632712D1*
X802694D1*
G37*
G36*
X1056237D2*
Y625626D1*
X1064898D1*
Y632712D1*
X1056237D1*
G37*
G36*
X1194032D2*
Y631137D1*
X1200331Y612240D1*
X1201119Y610665D1*
X1207418Y591767D1*
X1208205Y590193D1*
X1214505Y571295D1*
X1215292Y570507D1*
X1223953D1*
X1230253Y589405D1*
X1231040Y590980D1*
X1237339Y609878D1*
X1238127Y611452D1*
X1244426Y630350D1*
X1245213Y631925D1*
Y632712D1*
X1237339D1*
X1236552Y631925D1*
X1220016Y582318D1*
X1219817Y581390D1*
X1219183Y580671D1*
X1218777Y580802D1*
X1218270Y581669D1*
X1218442Y582318D1*
X1201906Y631925D1*
X1201119Y632712D1*
X1194032D1*
G37*
G36*
X1311355D2*
Y576807D1*
X1300331Y576019D1*
Y570507D1*
X1329465D1*
Y576019D1*
X1318442Y576807D1*
Y618539D1*
X1329465Y619326D1*
Y624051D1*
X1324741Y624838D1*
X1321591Y625626D1*
X1320016Y626413D1*
X1317654Y628775D1*
Y630350D1*
X1316867Y632712D1*
X1311355D1*
G37*
G36*
X594032Y612240D2*
X593245Y611452D1*
X591670Y609090D1*
X590883Y606728D1*
X590095Y603578D1*
Y593342D1*
X622379Y592555D1*
Y587043D1*
X621591Y586256D1*
X620804Y583893D1*
Y583106D1*
X616867Y579169D1*
X613717Y577594D1*
X611355Y576807D1*
X608205Y576019D1*
X605056D1*
X598757Y577594D1*
X596394Y578381D1*
X591670Y580744D1*
X590883Y581531D1*
Y573657D1*
X591670Y572870D1*
X595607Y571295D1*
X601906Y569720D1*
X611355D1*
X614505Y570507D1*
X616867Y571295D1*
X621591Y573657D1*
X625528Y577594D1*
X627103Y579956D1*
X627890Y581531D1*
X629465Y586256D1*
X630253Y593342D1*
Y594130D1*
X629465Y601216D1*
X627890Y605941D1*
X626316Y609090D1*
X624741Y611452D1*
X622379Y613815D1*
X619229Y616177D1*
X617654Y616964D1*
X615292Y617752D1*
X612142Y618539D1*
X604268D1*
X601119Y617752D1*
X597969Y616177D1*
X594032Y612240D1*
X604268D1*
X607156Y613027D1*
X610043D1*
X612930Y612240D1*
X615292Y611452D1*
X616867Y610665D1*
X620804Y606728D1*
Y605941D1*
X621591Y603578D1*
X622379Y602791D1*
Y599641D1*
X613717Y598854D1*
X605056D1*
X596394Y599641D1*
Y601216D1*
X597182Y602004D1*
X597969Y605941D1*
X598757Y607515D1*
Y608303D1*
X601119Y610665D1*
X604268Y612240D1*
X594032D1*
G37*
G36*
X756237Y611452D2*
Y610665D1*
X754662Y609090D1*
X753087Y605941D1*
X752300Y603578D1*
X751513Y600429D1*
Y587043D1*
X752300Y583893D1*
X753087Y581531D1*
X755450Y576807D1*
X760174Y572082D1*
X764898Y569720D1*
X768048Y568933D1*
X775922D1*
X779072Y569720D1*
X781434Y570507D1*
X783796Y572082D1*
X788520Y576807D1*
X790095Y579169D1*
X790883Y581531D1*
X791670Y583106D1*
X792457Y586256D1*
Y601216D1*
X791670Y604366D1*
X790883Y606728D1*
X790095Y608303D1*
X788520Y610665D1*
X783796Y615389D1*
X779072Y617752D1*
X775922Y618539D1*
X768048D1*
X764898Y617752D1*
X760174Y615389D1*
X756237Y611452D1*
X768048D1*
X770673Y612240D1*
X773297D1*
X775922Y611452D1*
X778284Y610665D1*
X779859Y609878D1*
X782221Y607515D1*
Y606728D1*
X783796Y603578D1*
X784583Y601216D1*
X785371Y600429D1*
Y587830D1*
X784583Y587043D1*
X783796Y583893D1*
X782221Y580744D1*
Y579956D1*
X779859Y577594D1*
X778284Y576807D1*
X775922Y576019D1*
X773297Y575232D1*
X770673D1*
X768048Y576019D1*
X765686Y576807D1*
X764898Y577594D1*
X763324Y578381D1*
X762390Y579267D1*
X762536Y579956D1*
X760961Y582318D1*
X760174Y584681D1*
X759387Y587830D1*
X758599Y588618D1*
Y598854D1*
X759387Y599641D1*
X760174Y602791D1*
X760961Y605153D1*
X762536Y607515D1*
X762689Y608074D1*
X763324Y609090D1*
X768048Y611452D1*
X756237D1*
G37*
G36*
X896394Y612240D2*
X895607Y611452D1*
X894032Y609090D1*
X893245Y606728D1*
X892457Y603578D1*
Y593342D1*
X924741Y592555D1*
Y587043D1*
X923953Y586256D1*
X923166Y583893D1*
Y583106D1*
X919229Y579169D1*
X916079Y577594D1*
X913717Y576807D1*
X910568Y576019D1*
X907418D1*
X901119Y577594D1*
X898757Y578381D1*
X894032Y580744D1*
X893245Y581531D1*
Y573657D1*
X894032Y572870D1*
X897969Y571295D1*
X904268Y569720D1*
X913717D1*
X916867Y570507D1*
X919229Y571295D1*
X923953Y573657D1*
X927890Y577594D1*
X929465Y579956D1*
X930253Y581531D1*
X931827Y586256D1*
X932615Y593342D1*
Y594130D1*
X931827Y601216D1*
X930253Y605941D1*
X928678Y609090D1*
X927103Y611452D1*
X924741Y613815D1*
X921591Y616177D1*
X920016Y616964D1*
X917654Y617752D1*
X914505Y618539D1*
X906631D1*
X903481Y617752D1*
X900331Y616177D1*
X896394Y612240D1*
X906631D1*
X909518Y613027D1*
X912405D1*
X915292Y612240D1*
X917654Y611452D1*
X919229Y610665D1*
X923166Y606728D1*
Y605941D1*
X923953Y603578D1*
X924741Y602791D1*
Y599641D1*
X916079Y598854D1*
X907418D1*
X898757Y599641D1*
Y601216D1*
X899544Y602004D1*
X900331Y605941D1*
X901119Y607515D1*
Y608303D1*
X903481Y610665D1*
X906631Y612240D1*
X896394D1*
G37*
G36*
X1020016Y618539D2*
X1016867Y617752D1*
X1015292Y616964D1*
X1011355Y613027D1*
X1009780Y609878D1*
X1008993Y607515D1*
Y570507D1*
X1015292D1*
X1016079Y598067D1*
X1016867Y605941D1*
Y607515D1*
X1019229Y609878D1*
X1020804Y610665D1*
X1023429Y611452D1*
X1026053D1*
X1028678Y610665D1*
X1031040Y609878D1*
X1032615Y609090D1*
X1033402Y608303D1*
X1034977Y607515D1*
X1037339Y605153D1*
Y570507D1*
X1044426D1*
Y616964D1*
X1037339D1*
Y613027D1*
X1036504Y612172D1*
X1036097Y612300D1*
X1035764Y613027D1*
X1034190Y614602D1*
X1031827Y616177D1*
X1028678Y617752D1*
X1025528Y618539D1*
X1020016D1*
G37*
G36*
X1076709Y610665D2*
X1076451Y609710D1*
X1075922Y609090D1*
X1075135Y607515D1*
X1074347Y605153D1*
X1073560Y602004D1*
Y588618D1*
X1074347Y585468D1*
X1075135Y583106D1*
X1077497Y578381D1*
X1079072Y576019D1*
X1081434Y573657D1*
X1083796Y572082D1*
X1086946Y570507D1*
X1089308Y569720D1*
X1097182D1*
X1101906Y571295D1*
X1103481Y572082D1*
X1104069Y572588D1*
X1104477Y572542D1*
X1105056Y572082D1*
Y553185D1*
X1112142D1*
Y616964D1*
X1105056D1*
Y613815D1*
X1104096Y612993D1*
X1103481Y613027D1*
X1101119Y615389D1*
X1096394Y617752D1*
X1093245Y618539D1*
X1086946D1*
X1084583Y617752D1*
X1081434Y616177D1*
X1077497Y612240D1*
X1076709Y610665D1*
X1088520D1*
X1091145Y611452D1*
X1093770D1*
X1096394Y610665D1*
X1098757Y609878D1*
X1101906Y608303D1*
X1102694Y607515D1*
X1104268Y606728D1*
X1105056Y605941D1*
Y579169D1*
X1104268Y578381D1*
X1099544Y576807D1*
X1096394Y576019D1*
X1093245D1*
X1090095Y576807D1*
X1086946Y578381D1*
X1083009Y582318D1*
Y583106D1*
X1082221Y585468D1*
X1081434Y588618D1*
X1080646Y589405D1*
Y598854D1*
X1081434Y599641D1*
X1082221Y603578D1*
X1083009Y605941D1*
Y606728D1*
X1085371Y609090D1*
X1088520Y610665D1*
X1076709D1*
G37*
G36*
X658599Y616964D2*
Y570507D1*
X665686D1*
Y574444D1*
X666274Y574950D1*
X666682Y574904D1*
X667252Y574421D1*
X668048Y573657D1*
X671198Y571295D1*
X674347Y569720D1*
X677497Y568933D1*
X683796D1*
X686158Y569720D1*
X687733Y570507D1*
X692457Y575232D1*
X693245Y576807D1*
X694032Y579169D1*
X694820Y583106D1*
Y616964D1*
X687733D1*
X686946Y583893D1*
X686158Y580744D1*
Y579956D1*
X683796Y577594D1*
X682221Y576807D1*
X679597Y576019D1*
X676972D1*
X674347Y576807D1*
X668048Y579956D1*
X667261Y580744D1*
X665686Y581531D1*
Y616964D1*
X658599D1*
G37*
G36*
X1057024D2*
Y570507D1*
X1064111D1*
Y616964D1*
X1057024D1*
G37*
G36*
X1344426Y601216D2*
Y594130D1*
X1367261D1*
Y601216D1*
X1344426D1*
G37*
G36*
X1029465Y502004D2*
Y461059D1*
X1036552D1*
Y464208D1*
X1037393Y464734D1*
X1038127Y464996D1*
X1040489Y462633D1*
X1045213Y460271D1*
X1047576Y459484D1*
X1054662D1*
X1057024Y460271D1*
X1060174Y461846D1*
X1064111Y465783D1*
X1066473Y470507D1*
X1067261Y472870D1*
X1068048Y476019D1*
Y491767D1*
X1066473Y496492D1*
X1064898Y499641D1*
X1063324Y502004D1*
X1059387Y505941D1*
X1054662Y508303D1*
X1052300Y509090D1*
X1044426D1*
X1039701Y507515D1*
X1038127Y506728D1*
X1037292Y505873D1*
X1036884Y506001D1*
X1036552Y506728D1*
Y527200D1*
X1029465D1*
Y502004D1*
X1042851D1*
X1045738Y502791D1*
X1048625D1*
X1051513Y502004D1*
X1053875Y501216D1*
X1054662Y500429D1*
X1056237Y499641D1*
X1056871Y498625D1*
X1057024Y498067D1*
X1058599Y495704D1*
X1059387Y494130D1*
X1060174Y490980D1*
X1060961Y490193D1*
Y477594D1*
X1060174Y476807D1*
X1059387Y473657D1*
X1058599Y472082D1*
Y471295D1*
X1055450Y468145D1*
X1053087Y467358D1*
X1050463Y466570D1*
X1047838D1*
X1045213Y467358D1*
X1042851Y468145D1*
X1038127Y470507D1*
X1036552Y472082D1*
Y499641D1*
X1039701Y501216D1*
X1042851Y502004D1*
X1029465D1*
G37*
G36*
X804268Y526413D2*
Y524838D1*
X806631Y517752D1*
X807418Y514602D1*
X810568Y505153D1*
X811355Y502004D1*
X813717Y494917D1*
X814505Y491767D1*
X817654Y482318D1*
X818442Y479169D1*
X820804Y472082D1*
X821591Y468933D1*
X824741Y459484D1*
X825528Y456334D1*
X827890Y449248D1*
X828678Y447673D1*
X834977D1*
X834190Y450822D1*
X831040Y460271D1*
X830253Y463421D1*
X827890Y470507D1*
X827103Y473657D1*
X824741Y480744D1*
X823953Y483893D1*
X821591Y490980D1*
X820804Y494130D1*
X818442Y501216D1*
X817654Y504366D1*
X814505Y513815D1*
X813717Y516964D1*
X810568Y526413D1*
X804268D1*
G37*
G36*
X1009780D2*
Y461059D1*
X1016867D1*
Y526413D1*
X1009780D1*
G37*
G36*
X1077497D2*
Y461059D1*
X1084583D1*
Y526413D1*
X1077497D1*
G37*
G36*
X1164898Y501216D2*
X1164640Y500261D1*
X1164111Y499641D1*
X1163324Y498067D1*
X1162536Y495704D1*
X1161749Y491767D1*
Y478381D1*
X1162536Y475232D1*
X1163324Y472870D1*
X1165686Y468145D1*
X1167261Y465783D1*
X1169623Y463421D1*
X1171985Y461846D1*
X1175135Y460271D1*
X1177497Y459484D1*
X1184583D1*
X1187733Y460271D1*
X1190883Y461846D1*
X1191932Y462633D1*
X1192982D1*
X1194032Y461846D1*
Y461059D1*
X1200331D1*
Y526413D1*
X1193245D1*
Y504366D1*
X1192285Y503544D1*
X1191670Y503578D1*
X1189308Y505941D1*
X1184583Y508303D1*
X1182221Y509090D1*
X1175135D1*
X1172772Y508303D1*
X1169623Y506728D1*
X1166473Y503578D1*
X1164898Y501216D1*
X1176709D1*
X1179334Y502004D1*
X1181959D1*
X1184583Y501216D1*
X1186946Y500429D1*
X1191670Y498067D1*
X1193245Y496492D1*
Y468933D1*
X1190095Y467358D1*
X1186946Y466570D1*
X1184058Y465783D1*
X1181171D1*
X1178284Y466570D1*
X1173560Y468933D1*
X1172626Y469818D1*
X1172772Y470507D1*
X1171198Y472870D1*
X1170410Y475232D1*
X1169623Y478381D1*
X1168835Y479169D1*
Y489405D1*
X1169623Y490193D1*
X1170410Y494130D1*
X1171198Y496492D1*
Y497279D1*
X1173560Y499641D1*
X1176709Y501216D1*
X1164898D1*
G37*
G36*
X1332615Y526413D2*
X1331827Y525626D1*
X1327103Y519326D1*
X1326316Y517752D1*
X1324741Y515389D1*
X1321591Y509090D1*
X1320804Y506728D1*
X1320016Y505153D1*
X1319229Y502791D1*
X1318442Y499641D1*
X1317654Y495704D1*
Y474444D1*
X1318442Y470507D1*
X1319229Y467358D1*
X1320016Y464996D1*
X1320804Y463421D1*
X1321591Y461059D1*
X1324741Y454759D1*
X1326316Y452397D1*
X1327103Y450822D1*
X1328678Y448460D1*
X1331040Y445311D1*
X1332615Y443736D1*
X1342064D1*
X1335764Y450822D1*
X1333402Y453972D1*
X1331827Y456334D1*
X1328678Y462633D1*
X1326316Y469720D1*
X1325528Y472870D1*
X1324741Y477594D1*
X1323953Y478381D1*
Y491767D1*
X1324741Y492555D1*
X1325528Y497279D1*
X1326316Y500429D1*
X1328678Y507515D1*
X1331827Y513815D1*
X1333402Y516177D1*
X1335764Y519326D1*
X1342064Y526413D1*
X1332615D1*
G37*
G36*
X1389308D2*
X1392457Y523263D1*
Y522476D1*
X1396394Y517752D1*
X1397969Y515389D1*
X1398757Y513815D1*
X1400331Y511452D1*
X1401119Y509878D1*
X1401906Y507515D1*
X1402694Y505941D1*
X1404268Y501216D1*
X1405056Y498067D1*
X1405843Y494130D1*
X1406631Y493342D1*
Y476019D1*
X1405843Y475232D1*
X1405056Y471295D1*
X1402694Y464208D1*
X1401906Y462633D1*
X1401119Y460271D1*
X1400331Y458696D1*
X1398757Y456334D1*
X1397969Y454759D1*
X1396394Y452397D1*
X1392457Y447673D1*
X1389308Y443736D1*
X1397969D1*
X1400331Y446098D1*
X1405056Y453185D1*
X1405843Y454759D1*
X1407418Y457122D1*
X1408993Y460271D1*
X1409780Y462633D1*
X1410568Y464208D1*
X1411355Y466570D1*
X1412930Y472870D1*
X1413717Y479169D1*
Y490980D1*
X1412930Y496492D1*
X1412142Y500429D1*
X1411355Y503578D1*
X1410568Y505941D1*
X1409780Y507515D1*
X1408993Y509878D1*
X1407418Y513027D1*
X1405843Y515389D1*
X1404268Y518539D1*
X1402694Y520901D1*
X1400331Y524051D1*
X1397969Y526413D1*
X1389308D1*
G37*
G36*
X621591Y517752D2*
X620804Y516964D1*
X619229Y513815D1*
X617654Y509090D1*
X616867Y505153D1*
X616079Y498067D1*
Y485468D1*
X616867Y479169D1*
X617654Y475232D1*
X619229Y470507D1*
X620804Y467358D1*
X622379Y464996D1*
X624741Y462633D1*
X627103Y461059D1*
X631827Y459484D1*
X639701D1*
X642851Y460271D1*
X646001Y461846D1*
X649938Y465783D1*
X651513Y468145D1*
X652300Y469720D1*
X653875Y474444D1*
X654662Y477594D1*
X655450Y482318D1*
Y502004D1*
X654662Y506728D1*
X653875Y509878D1*
X652300Y514602D1*
X650725Y517752D1*
X646001Y522476D1*
X642851Y524051D1*
X639701Y524838D1*
X632615D1*
X629465Y524051D1*
X624741Y521689D1*
X622379Y519326D1*
X621591Y517752D1*
X631827D1*
X634452Y518539D1*
X637077D1*
X639701Y517752D1*
X642851Y516177D1*
X643485Y515160D1*
X643639Y514602D1*
X645213Y512240D1*
X646001Y509878D1*
X646788Y505941D1*
X647576Y505153D1*
Y479169D1*
X646788Y478381D1*
X646001Y474444D1*
X645213Y472082D1*
X643639Y469720D1*
X643380Y468765D1*
X642851Y468145D1*
X639701Y466570D1*
X637339Y465783D1*
X634977D1*
X630253Y467358D1*
X627103Y470507D1*
Y471295D1*
X626316Y472870D1*
X625528Y476019D1*
X624741Y481531D1*
X623953Y482318D1*
Y502004D1*
X624741Y502791D1*
X625528Y508303D1*
X626316Y511452D1*
X627103Y513027D1*
Y513815D1*
X630253Y516964D1*
X631827Y517752D1*
X621591D1*
G37*
G36*
X680646Y524838D2*
X677497Y524051D1*
X675135Y523263D1*
X673560Y522476D1*
X668835Y517752D1*
X667261Y514602D1*
X666473Y512240D1*
Y502791D1*
X667261Y499641D1*
X670410Y493342D1*
X671985Y490980D1*
X675135Y487043D1*
X694032Y468145D1*
X664111Y467358D1*
Y461059D1*
X701906D1*
Y468933D1*
X686158Y485468D1*
X681434Y490980D1*
X679072Y494130D1*
X677497Y496492D1*
X675922Y499641D1*
X675135Y502004D1*
X674347Y502791D1*
Y511452D1*
X675135Y512240D1*
X675922Y513815D1*
X676075Y514373D1*
X676709Y515389D1*
X678284Y516177D1*
X679072Y516964D1*
X681434Y517752D1*
X684058Y518539D1*
X686683D1*
X689308Y517752D1*
X692457Y516964D1*
X694820Y516177D1*
X697969Y514602D1*
X698757Y513815D1*
X700331Y513027D1*
Y520901D1*
X699544Y521689D1*
X697969Y522476D1*
X695607Y523263D1*
X689308Y524838D1*
X680646D1*
G37*
G36*
X716079Y517752D2*
X715292Y516964D1*
X713717Y513815D1*
X712142Y509090D1*
X711355Y505153D1*
X710568Y498067D1*
Y485468D1*
X711355Y479169D1*
X712142Y475232D1*
X713717Y470507D1*
X715292Y467358D1*
X716867Y464996D1*
X719229Y462633D1*
X721591Y461059D1*
X726316Y459484D1*
X734190D1*
X737339Y460271D1*
X740489Y461846D1*
X744426Y465783D1*
X746001Y468145D1*
X746788Y469720D1*
X748363Y474444D1*
X749150Y477594D1*
X749938Y482318D1*
Y502004D1*
X749150Y506728D1*
X748363Y509878D1*
X746788Y514602D1*
X745213Y517752D1*
X740489Y522476D1*
X737339Y524051D1*
X734190Y524838D1*
X727103D1*
X723953Y524051D1*
X719229Y521689D1*
X716867Y519326D1*
X716079Y517752D1*
X726316D1*
X728940Y518539D1*
X731565D1*
X734190Y517752D1*
X737339Y516177D1*
X737974Y515160D1*
X738127Y514602D1*
X739701Y512240D1*
X740489Y509878D1*
X741276Y505941D1*
X742064Y505153D1*
Y479169D1*
X741276Y478381D1*
X740489Y474444D1*
X739701Y472082D1*
X738127Y469720D1*
X737868Y468765D1*
X737339Y468145D1*
X734190Y466570D1*
X731827Y465783D1*
X729465D1*
X724741Y467358D1*
X721591Y470507D1*
Y471295D1*
X720804Y472870D1*
X720016Y476019D1*
X719229Y481531D1*
X718442Y482318D1*
Y502004D1*
X719229Y502791D1*
X720016Y508303D1*
X720804Y511452D1*
X721591Y513027D1*
Y513815D1*
X724741Y516964D1*
X726316Y517752D1*
X716079D1*
G37*
G36*
X775135Y524838D2*
X771985Y524051D1*
X769623Y523263D1*
X768048Y522476D1*
X763324Y517752D1*
X761749Y514602D1*
X760961Y512240D1*
Y502791D1*
X761749Y499641D1*
X764898Y493342D1*
X766473Y490980D1*
X769623Y487043D1*
X788520Y468145D1*
X758599Y467358D1*
Y461059D1*
X796394D1*
Y468933D1*
X780646Y485468D1*
X775922Y490980D1*
X773560Y494130D1*
X771985Y496492D1*
X770410Y499641D1*
X769623Y502004D1*
X768835Y502791D1*
Y511452D1*
X769623Y512240D1*
X770410Y513815D1*
X770563Y514373D1*
X771198Y515389D1*
X772772Y516177D1*
X773560Y516964D1*
X775922Y517752D1*
X778547Y518539D1*
X781171D1*
X783796Y517752D1*
X786946Y516964D1*
X789308Y516177D1*
X792457Y514602D1*
X793245Y513815D1*
X794820Y513027D1*
Y520901D1*
X794032Y521689D1*
X792457Y522476D1*
X790095Y523263D1*
X783796Y524838D1*
X775135D1*
G37*
G36*
X841276Y493342D2*
X839701Y491767D1*
X838914Y490193D1*
X838127Y487830D1*
X837339Y483106D1*
Y479169D1*
X838127Y474444D1*
X838914Y472082D1*
X841276Y467358D1*
X846001Y462633D1*
X850725Y460271D1*
X853875Y459484D1*
X860961D1*
X865686Y461059D1*
X867261Y461846D1*
X872772Y467358D1*
X875135Y472082D1*
X876709Y476807D1*
X877497Y481531D1*
Y495704D1*
X876709Y500429D1*
X875922Y504366D1*
X875135Y506728D1*
X874347Y508303D1*
X873560Y510665D1*
X871985Y513027D1*
X871198Y514602D1*
X864898Y520901D1*
X860174Y523263D1*
X857812Y524051D1*
X854662Y524838D1*
X845213D1*
X842851Y524051D1*
Y516964D1*
X843639D1*
X846001Y517752D1*
X849150Y518539D1*
X852300D1*
X855450Y517752D1*
X857812Y516964D1*
X860961Y515389D1*
X865686Y510665D1*
Y509878D1*
X867261Y506728D1*
X868048Y504366D1*
X868835Y500429D1*
X869623Y499641D1*
Y497279D1*
X868663Y496457D1*
X868048Y496492D1*
X866473Y498067D1*
X864898Y498854D1*
X862536Y499641D1*
X859387Y500429D1*
X851513D1*
X846788Y498854D1*
X844426Y497279D1*
X841276Y494130D1*
Y493342D1*
X853087D1*
X856237Y494130D1*
X859387D1*
X862536Y493342D1*
X867261Y491767D1*
X868835Y490980D1*
X869623Y490193D1*
Y479169D1*
X868835Y478381D1*
X868048Y475232D1*
X867261Y472870D1*
X865686Y470507D1*
X865427Y469552D1*
X864898Y468933D1*
X863324Y468145D1*
X862536Y467358D1*
X860961Y466570D1*
X858337Y465783D1*
X855712D1*
X853087Y466570D1*
X849938Y468145D1*
X847576Y470507D1*
Y471295D1*
X846788Y472870D1*
X846001Y476019D1*
X845213Y476807D1*
Y483893D1*
X846001Y484681D1*
X846788Y487830D1*
Y488618D1*
X849938Y491767D1*
X853087Y493342D1*
X841276D1*
G37*
G36*
X1260174Y473657D2*
X1260327Y474215D1*
X1260961Y475232D1*
X1261749Y476807D1*
X1262536Y479956D1*
X1263324Y484681D1*
Y490193D1*
X1262536Y494917D1*
X1261749Y497279D1*
X1260174Y500429D1*
X1258599Y502791D1*
X1257024Y504366D1*
X1253875Y506728D1*
X1252300Y507515D1*
X1249938Y508303D1*
X1243639D1*
X1238914Y506728D1*
X1237954Y505906D1*
X1237041Y506007D1*
X1236295Y506919D1*
X1236552Y507515D1*
X1231040D1*
Y472082D1*
X1227366Y471295D1*
X1223691D1*
X1220016Y472082D1*
Y472870D1*
X1219229Y475232D1*
X1218442Y479169D1*
X1217654Y479956D1*
Y496492D1*
X1218442Y497279D1*
X1219229Y500429D1*
X1220804Y505153D1*
X1221591Y506728D1*
X1223166Y509090D1*
Y509878D1*
X1228678Y515389D1*
X1233402Y517752D1*
X1235764Y518539D1*
X1238914Y519326D1*
X1242851Y520114D1*
X1246788D1*
X1250725Y519326D1*
X1253875Y518539D1*
X1256237Y517752D1*
X1260961Y515389D1*
X1263324Y513027D1*
X1264898Y512240D1*
X1265533Y511223D1*
X1265686Y510665D1*
X1268835Y506728D1*
X1270410Y504366D1*
X1271198Y502791D1*
X1272772Y498067D1*
X1273560Y494130D1*
X1274347Y493342D1*
Y483106D1*
X1273560Y482318D1*
X1272772Y477594D1*
X1271198Y472870D1*
X1270410Y471295D1*
X1268835Y468933D1*
Y468145D1*
X1262536Y461846D1*
X1260961Y461059D1*
X1260174Y460271D1*
X1257024Y458696D1*
X1254662Y457909D1*
X1250725Y457122D1*
X1246263Y456334D1*
X1241801D1*
X1237339Y457122D1*
X1231827Y457909D1*
X1231040D1*
Y453185D1*
X1232615Y452397D1*
X1238127Y451610D1*
X1250725D1*
X1254662Y452397D1*
X1257024Y453185D1*
X1260961Y454759D1*
X1264898Y457122D1*
X1272772Y464996D1*
X1274347Y467358D1*
X1276709Y472082D1*
X1278284Y476807D1*
X1279072Y479956D1*
Y495704D1*
X1278284Y499641D1*
X1277497Y502004D1*
X1274347Y508303D1*
X1272772Y510665D1*
X1269623Y514602D1*
X1268048Y516177D1*
X1264111Y519326D1*
X1261749Y520901D1*
X1258599Y522476D1*
X1253875Y524051D1*
X1249938Y524838D1*
X1239701D1*
X1235764Y524051D1*
X1231040Y522476D1*
X1227890Y520901D1*
X1225528Y519326D1*
X1219229Y513027D1*
X1217654Y510665D1*
X1215292Y505941D1*
X1213717Y501216D1*
X1212930Y498067D1*
X1212142Y491767D1*
Y486256D1*
X1212930Y480744D1*
X1213717Y477594D1*
X1215292Y472870D1*
X1217654Y468145D1*
X1218442Y467358D1*
X1235764D1*
X1236552Y470507D1*
X1236680Y471116D1*
X1237163Y471762D1*
X1237552Y471743D1*
X1238117Y471270D1*
X1238914Y470507D1*
X1241276Y468933D1*
X1242851Y468145D1*
X1245213Y467358D1*
X1251513D1*
X1253875Y468145D1*
X1255450Y468933D1*
X1260174Y473657D1*
X1250725D1*
X1248363Y472870D1*
X1246001D1*
X1241276Y474444D1*
X1240489Y475232D1*
X1238127Y476807D1*
X1236552Y477594D1*
Y499641D1*
X1237339Y500429D1*
X1238914Y501216D1*
X1241276Y502004D1*
X1243901Y502791D1*
X1246526D1*
X1249150Y502004D1*
X1252300Y500429D1*
X1254662Y498067D1*
Y497279D1*
X1255450Y494917D1*
X1256237Y490193D1*
X1257024Y489405D1*
Y485468D1*
X1256237Y484681D1*
X1255450Y479956D1*
X1254662Y477594D1*
Y476807D1*
X1252300Y474444D1*
X1250725Y473657D1*
X1260174D1*
G37*
G36*
X1096394Y523263D2*
Y516177D1*
X1105056D1*
Y523263D1*
X1096394D1*
G37*
G36*
X914505Y502004D2*
Y461059D1*
X915292Y456334D1*
X916079Y453972D1*
X917654Y450822D1*
X919229Y448460D1*
X920016Y447673D1*
X923166Y445311D1*
X924741Y444523D1*
X927103Y443736D1*
X931040Y442948D1*
X941276D1*
X945213Y443736D1*
X948363Y444523D1*
X949150Y445311D1*
Y452397D1*
X948363D1*
X939701Y450035D1*
X936552Y449248D1*
X933402D1*
X930253Y450035D1*
X927890Y450822D1*
X924741Y452397D1*
X923807Y453282D1*
X923953Y453972D1*
X923166Y455547D1*
X922379Y457909D1*
X921591Y458696D1*
Y466570D1*
X922179Y467076D1*
X922587Y467030D1*
X923166Y466570D1*
X924741Y464996D1*
X929465Y462633D1*
X931827Y461846D1*
X939701D1*
X942064Y462633D1*
X945213Y464208D1*
X949938Y468933D1*
X952300Y473657D1*
X953087Y476807D1*
Y491767D1*
X952300Y494917D1*
X949150Y501216D1*
X944426Y505941D1*
X939701Y508303D1*
X937339Y509090D1*
X930253D1*
X927103Y508303D1*
X923953Y506728D1*
X922993Y505906D1*
X922080Y506007D1*
X921334Y506919D1*
X921591Y507515D1*
X914505D1*
Y502004D1*
X927890D1*
X930778Y502791D1*
X933665D1*
X936552Y502004D1*
X938914Y501216D1*
X939701Y500429D1*
X941276Y499641D1*
X942851Y498067D1*
Y497279D1*
X944426Y494130D1*
X945213Y491767D1*
X946001Y490980D1*
Y478381D1*
X945213Y477594D1*
X944426Y475232D1*
Y473657D1*
X940489Y469720D1*
X938127Y468933D1*
X935502Y468145D1*
X932877D1*
X930253Y468933D1*
X927890Y469720D1*
X923166Y472082D1*
X921591Y473657D1*
Y499641D1*
X923166Y500429D1*
X927890Y502004D1*
X914505D1*
G37*
G36*
X964111D2*
Y501216D1*
X962536Y499641D1*
X960961Y496492D1*
X960174Y494130D1*
X959387Y490980D1*
Y477594D1*
X960174Y474444D1*
X960961Y472082D1*
X963324Y467358D1*
X968048Y462633D1*
X972772Y460271D1*
X975922Y459484D1*
X983796D1*
X986946Y460271D1*
X989308Y461059D1*
X991670Y462633D1*
X996394Y467358D1*
X997969Y469720D1*
X998757Y472082D1*
X999544Y473657D1*
X1000331Y476807D1*
Y491767D1*
X999544Y494917D1*
X998757Y497279D1*
X997969Y498854D1*
X996394Y501216D1*
X991670Y505941D1*
X986946Y508303D1*
X983796Y509090D1*
X975922D1*
X972772Y508303D1*
X968048Y505941D1*
X964111Y502004D1*
X975922D1*
X978547Y502791D1*
X981171D1*
X983796Y502004D1*
X986158Y501216D1*
X987733Y500429D1*
X990095Y498067D1*
Y497279D1*
X991670Y494130D1*
X992457Y491767D1*
X993245Y490980D1*
Y478381D1*
X992457Y477594D1*
X991670Y474444D1*
X990095Y471295D1*
Y470507D1*
X987733Y468145D1*
X986158Y467358D1*
X983796Y466570D1*
X981171Y465783D1*
X978547D1*
X975922Y466570D1*
X973560Y467358D1*
X972772Y468145D1*
X971198Y468933D1*
X970264Y469818D1*
X970410Y470507D1*
X968835Y472870D1*
X968048Y475232D1*
X967261Y478381D1*
X966473Y479169D1*
Y489405D1*
X967261Y490193D1*
X968048Y493342D1*
X968835Y495704D1*
X970410Y498067D1*
X970563Y498625D1*
X971198Y499641D1*
X975922Y502004D1*
X964111D1*
G37*
G36*
X1357024Y509090D2*
X1353875Y508303D1*
X1349150Y506728D1*
X1347576Y505941D1*
Y497279D1*
X1349938Y498854D1*
X1350725Y499641D1*
X1352300Y500429D1*
X1357024Y502004D1*
X1359649Y502791D1*
X1362274D1*
X1364898Y502004D1*
X1367261Y501216D1*
X1368835Y500429D1*
X1372772Y496492D1*
Y495704D1*
X1373560Y494130D1*
X1374347Y490980D1*
X1375135Y490193D1*
Y479169D1*
X1374347Y478381D1*
X1373560Y475232D1*
X1372772Y473657D1*
Y472870D1*
X1368835Y468933D1*
X1367261Y468145D1*
X1364898Y467358D1*
X1362011Y466570D1*
X1359124D1*
X1356237Y467358D1*
X1353875Y468145D1*
X1349150Y470507D1*
X1347576Y472082D1*
Y463421D1*
X1349150Y462633D1*
X1353875Y461059D1*
X1357024Y460271D1*
X1364898D1*
X1368048Y461059D1*
X1370410Y461846D1*
X1373560Y463421D1*
X1379072Y468933D1*
X1380646Y472082D1*
X1382221Y476807D1*
Y491767D1*
X1381434Y494917D1*
X1379072Y499641D1*
X1377497Y502004D1*
X1374347Y505153D1*
X1371985Y506728D1*
X1370410Y507515D1*
X1368048Y508303D1*
X1364898Y509090D1*
X1357024D1*
G37*
G36*
X1097182Y507515D2*
Y461059D1*
X1104268D1*
Y507515D1*
X1097182D1*
G37*
G36*
X1116867D2*
Y461059D1*
X1123953D1*
Y464996D1*
X1124542Y465501D1*
X1124950Y465455D1*
X1125519Y464972D1*
X1126316Y464208D1*
X1129465Y461846D1*
X1132615Y460271D1*
X1135764Y459484D1*
X1142064D1*
X1144426Y460271D1*
X1146001Y461059D1*
X1150725Y465783D1*
X1151513Y467358D1*
X1152300Y469720D1*
X1153087Y473657D1*
Y507515D1*
X1146001D1*
X1145213Y474444D1*
X1144426Y471295D1*
Y470507D1*
X1142064Y468145D1*
X1140489Y467358D1*
X1137864Y466570D1*
X1135240D1*
X1132615Y467358D1*
X1126316Y470507D1*
X1125528Y471295D1*
X1123953Y472082D1*
Y507515D1*
X1116867D1*
G37*
G36*
X1077497Y1030350D2*
Y989405D1*
X1084583D1*
Y992555D1*
X1085425Y993080D1*
X1086158Y993342D1*
X1088520Y990980D1*
X1093245Y988618D1*
X1095607Y987830D1*
X1102694D1*
X1105056Y988618D1*
X1108205Y990193D1*
X1112142Y994130D1*
X1114505Y998854D1*
X1115292Y1001216D1*
X1116079Y1004366D1*
Y1020114D1*
X1114505Y1024838D1*
X1112930Y1027988D1*
X1111355Y1030350D1*
X1107418Y1034287D1*
X1102694Y1036649D1*
X1100331Y1037437D1*
X1092457D1*
X1087733Y1035862D1*
X1086158Y1035074D1*
X1085323Y1034219D1*
X1084916Y1034347D1*
X1084583Y1035074D1*
Y1055547D1*
X1077497D1*
Y1030350D1*
X1090883D1*
X1093770Y1031137D1*
X1096657D1*
X1099544Y1030350D1*
X1101906Y1029563D1*
X1102694Y1028775D1*
X1104268Y1027988D1*
X1104903Y1026971D1*
X1105056Y1026413D1*
X1106631Y1024051D1*
X1107418Y1022476D1*
X1108205Y1019326D1*
X1108993Y1018539D1*
Y1005941D1*
X1108205Y1005153D1*
X1107418Y1002004D1*
X1106631Y1000429D1*
Y999641D1*
X1103481Y996492D1*
X1101119Y995704D1*
X1098494Y994917D1*
X1095869D1*
X1093245Y995704D1*
X1090883Y996492D1*
X1086158Y998854D1*
X1084583Y1000429D1*
Y1027988D1*
X1087733Y1029563D1*
X1090883Y1030350D1*
X1077497D1*
G37*
G36*
X1057812Y1054759D2*
Y989405D1*
X1064898D1*
Y1054759D1*
X1057812D1*
G37*
G36*
X600331Y1051610D2*
Y989405D1*
X607418D1*
Y1042161D1*
X608006Y1042667D1*
X608414Y1042621D1*
X608955Y1042083D1*
X609378Y1041358D1*
X609780Y1040586D1*
X610568Y1038224D1*
X612930Y1033500D1*
X613717Y1031137D1*
X616079Y1026413D1*
X616867Y1024051D1*
X619229Y1019326D1*
X620016Y1016964D1*
X622379Y1012240D1*
X623166Y1009878D1*
X624741Y1006728D1*
X629465D1*
X632615Y1013027D1*
X633402Y1015389D1*
X634977Y1018539D1*
X635764Y1020901D1*
X638127Y1025626D1*
X638914Y1027988D1*
X641276Y1032712D1*
X642064Y1035074D1*
X644426Y1039799D1*
X645213Y1042161D1*
X645801Y1042667D1*
X646209Y1042621D1*
X646788Y1042161D1*
Y989405D1*
X653087D1*
Y1051610D1*
X642851D1*
X642064Y1050822D1*
X641276Y1048460D1*
X638127Y1042161D1*
X637339Y1039799D1*
X634977Y1035074D1*
X634190Y1032712D1*
X631040Y1026413D1*
X630253Y1024051D1*
X627890Y1019326D1*
Y1017752D1*
X626930Y1016930D1*
X626020Y1017032D1*
X625528Y1017752D1*
Y1019326D1*
X623953Y1022476D1*
X623166Y1024838D1*
X620804Y1029563D1*
X620016Y1031925D1*
X618442Y1035074D1*
X617654Y1037437D1*
X616079Y1040586D1*
X615292Y1042948D1*
X612930Y1047673D1*
X612142Y1050035D1*
X611355Y1051610D1*
X600331D1*
G37*
G36*
X661749D2*
X662536Y1050822D1*
Y1048460D1*
X676709Y991767D1*
X677497Y989405D1*
X686158D1*
X686946Y990980D1*
X690095Y1003578D1*
X690883Y1007515D1*
X698757Y1039011D1*
X698885Y1039620D1*
X699368Y1040266D1*
X699756Y1040247D1*
X700331Y1039799D1*
Y1038224D1*
X701119Y1035074D1*
X701906Y1031137D1*
X705056Y1018539D1*
X705843Y1014602D1*
X708993Y1002004D1*
X709780Y998067D1*
X711355Y991767D1*
X712142Y989405D1*
X720804D1*
X721591Y991767D1*
X723953Y1001216D1*
X724741Y1003578D1*
X733402Y1038224D1*
X734190Y1040586D1*
X736552Y1050035D1*
Y1051610D1*
X728678D1*
X725528Y1039011D1*
X724741Y1035074D1*
X719229Y1013027D1*
X718442Y1009090D1*
X716867Y1002791D1*
Y1000429D1*
X716032Y999574D1*
X715624Y999701D1*
X715292Y1000429D1*
Y1002004D1*
X711355Y1017752D1*
X710568Y1021689D1*
X706631Y1037437D1*
X705843Y1041374D1*
X703481Y1050822D1*
X702694Y1051610D1*
X695607D1*
X694820Y1050822D1*
X690883Y1035074D1*
X690095Y1031137D1*
X686158Y1015389D1*
X685371Y1011452D1*
X683009Y1002004D1*
Y1000429D1*
X682174Y999574D1*
X681766Y999701D1*
X681434Y1000429D1*
Y1002004D1*
X678284Y1014602D1*
X677497Y1018539D1*
X674347Y1031137D1*
X673560Y1035074D1*
X670410Y1047673D1*
X669623Y1051610D1*
X661749D1*
G37*
G36*
X744426Y1044523D2*
X742851Y1042948D1*
X741276Y1039799D1*
X740489Y1037437D1*
Y1028775D1*
X742064Y1024051D1*
X743639Y1021689D1*
X748363Y1016964D1*
X750725Y1015389D1*
X755450Y1013815D1*
X758599Y1013027D1*
X771985Y1012240D1*
Y989405D1*
X779072D1*
Y1051610D1*
X757812D1*
X753875Y1050822D1*
X751513Y1050035D1*
X748363Y1048460D1*
X746001Y1046885D1*
X744426Y1045311D1*
Y1044523D1*
X757812D1*
X762536Y1045311D1*
X767261D1*
X771985Y1044523D1*
Y1020114D1*
X767523Y1019326D1*
X763061D1*
X758599Y1020114D1*
X755450Y1020901D1*
X753875Y1021689D1*
X749938Y1025626D1*
Y1026413D1*
X749150Y1027988D1*
X748363Y1028775D1*
Y1036649D1*
X749150Y1037437D1*
Y1039011D1*
X753087Y1042948D1*
X757812Y1044523D1*
X744426D1*
G37*
G36*
X1172772Y1051610D2*
Y1044523D1*
X1181434D1*
Y1051610D1*
X1172772D1*
G37*
G36*
X1390883D2*
Y1005153D1*
X1391670Y1002004D1*
X1392457Y999641D1*
X1394032Y996492D1*
X1395607Y994130D1*
X1397182Y992555D1*
X1399544Y990980D1*
X1402694Y989405D1*
X1405056Y988618D1*
X1408205Y987830D1*
X1417654D1*
X1421591Y988618D1*
X1423953Y989405D1*
X1425528Y990193D1*
X1427890Y991767D1*
X1431040Y994917D1*
X1432615Y997279D1*
X1433402Y998854D1*
X1434977Y1003578D1*
Y1051610D1*
X1427890D1*
X1427103Y1005153D1*
X1426316Y1002004D1*
X1425528Y1000429D1*
Y999641D1*
X1423166Y997279D1*
X1420016Y995704D1*
X1417654Y994917D1*
X1414505Y994130D1*
X1411355D1*
X1408205Y994917D1*
X1405843Y995704D1*
X1404268Y996492D1*
X1400331Y1000429D1*
Y1001216D1*
X1399544Y1003578D1*
X1398757Y1008303D1*
X1397969Y1051610D1*
X1390883D1*
G37*
G36*
X965686Y1049248D2*
Y1036649D1*
X950725Y1035862D1*
Y1030350D1*
X965686Y1029563D1*
Y1002791D1*
X964898Y1002004D1*
Y998854D1*
X962536Y996492D1*
X960961Y995704D1*
X958337Y994917D1*
X955712D1*
X953087Y995704D1*
X951513Y996492D1*
X950725D1*
Y990193D1*
X951513Y989405D1*
X955450Y988618D1*
X962536D1*
X964898Y989405D1*
X968048Y990980D1*
X969623Y992555D1*
X971198Y994917D1*
X971985Y997279D1*
X972772Y1002004D1*
Y1029563D1*
X977497Y1030350D1*
Y1035862D1*
X972772Y1036649D1*
Y1049248D1*
X965686D1*
G37*
G36*
X820016Y1031137D2*
X819229Y1030350D1*
X817654Y1027988D1*
X816867Y1025626D1*
X816079Y1022476D1*
Y1012240D1*
X848363Y1011452D1*
Y1005941D1*
X847576Y1005153D1*
X846788Y1002791D1*
Y1002004D1*
X842851Y998067D1*
X839701Y996492D1*
X837339Y995704D1*
X834190Y994917D1*
X831040D1*
X824741Y996492D1*
X822379Y997279D1*
X817654Y999641D1*
X816867Y1000429D1*
Y992555D1*
X817654Y991767D1*
X821591Y990193D1*
X827890Y988618D1*
X837339D1*
X840489Y989405D1*
X842851Y990193D1*
X847576Y992555D1*
X851513Y996492D1*
X853087Y998854D1*
X853875Y1000429D1*
X855450Y1005153D1*
X856237Y1012240D1*
Y1013027D1*
X855450Y1020114D1*
X853875Y1024838D1*
X852300Y1027988D1*
X850725Y1030350D1*
X848363Y1032712D1*
X845213Y1035074D1*
X843639Y1035862D1*
X841276Y1036649D1*
X838127Y1037437D1*
X830253D1*
X827103Y1036649D1*
X823953Y1035074D1*
X820016Y1031137D1*
X830253D1*
X833140Y1031925D1*
X836027D1*
X838914Y1031137D1*
X841276Y1030350D1*
X842851Y1029563D1*
X846788Y1025626D1*
Y1024838D1*
X847576Y1022476D1*
X848363Y1021689D1*
Y1018539D1*
X839701Y1017752D1*
X831040D1*
X822379Y1018539D1*
Y1020114D1*
X823166Y1020901D1*
X823953Y1024838D1*
X824741Y1026413D1*
Y1027200D1*
X827103Y1029563D1*
X830253Y1031137D1*
X820016D1*
G37*
G36*
X864898Y1029563D2*
X864640Y1028607D1*
X864111Y1027988D1*
X863324Y1026413D1*
X862536Y1024051D1*
X861749Y1020901D1*
Y1007515D1*
X862536Y1004366D1*
X863324Y1002004D1*
X865686Y997279D1*
X867261Y994917D1*
X869623Y992555D1*
X871985Y990980D1*
X875135Y989405D1*
X877497Y988618D1*
X885371D1*
X890095Y990193D1*
X891670Y990980D1*
X892258Y991486D1*
X892666Y991440D1*
X893245Y990980D1*
Y972082D1*
X900331D1*
Y1035862D1*
X893245D1*
Y1032712D1*
X892285Y1031890D1*
X891670Y1031925D1*
X889308Y1034287D1*
X884583Y1036649D1*
X881434Y1037437D1*
X875135D1*
X872772Y1036649D1*
X869623Y1035074D1*
X865686Y1031137D1*
X864898Y1029563D1*
X876709D1*
X879334Y1030350D1*
X881959D1*
X884583Y1029563D1*
X886946Y1028775D1*
X890095Y1027200D1*
X890883Y1026413D1*
X892457Y1025626D1*
X893245Y1024838D1*
Y998067D1*
X892457Y997279D1*
X887733Y995704D1*
X884583Y994917D1*
X881434D1*
X878284Y995704D1*
X875135Y997279D1*
X871198Y1001216D1*
Y1002004D1*
X870410Y1004366D1*
X869623Y1007515D1*
X868835Y1008303D1*
Y1017752D1*
X869623Y1018539D1*
X870410Y1022476D1*
X871198Y1024838D1*
Y1025626D1*
X873560Y1027988D1*
X876709Y1029563D1*
X864898D1*
G37*
G36*
X1012930Y1031137D2*
X1012142Y1030350D1*
X1010568Y1027988D1*
X1009780Y1025626D1*
X1008993Y1022476D1*
Y1012240D1*
X1041276Y1011452D1*
Y1005941D1*
X1040489Y1005153D1*
X1039701Y1002791D1*
Y1002004D1*
X1035764Y998067D1*
X1032615Y996492D1*
X1030253Y995704D1*
X1027103Y994917D1*
X1023953D1*
X1017654Y996492D1*
X1015292Y997279D1*
X1010568Y999641D1*
X1009780Y1000429D1*
Y992555D1*
X1010568Y991767D1*
X1014505Y990193D1*
X1020804Y988618D1*
X1030253D1*
X1033402Y989405D1*
X1035764Y990193D1*
X1040489Y992555D1*
X1044426Y996492D1*
X1046001Y998854D1*
X1046788Y1000429D1*
X1048363Y1005153D1*
X1049150Y1012240D1*
Y1013027D1*
X1048363Y1020114D1*
X1046788Y1024838D1*
X1045213Y1027988D1*
X1043639Y1030350D1*
X1041276Y1032712D1*
X1038127Y1035074D1*
X1036552Y1035862D1*
X1034190Y1036649D1*
X1031040Y1037437D1*
X1023166D1*
X1020016Y1036649D1*
X1016867Y1035074D1*
X1012930Y1031137D1*
X1023166D1*
X1026053Y1031925D1*
X1028940D1*
X1031827Y1031137D1*
X1034190Y1030350D1*
X1035764Y1029563D1*
X1039701Y1025626D1*
Y1024838D1*
X1040489Y1022476D1*
X1041276Y1021689D1*
Y1018539D1*
X1032615Y1017752D1*
X1023953D1*
X1015292Y1018539D1*
Y1020114D1*
X1016079Y1020901D1*
X1016867Y1024838D1*
X1017654Y1026413D1*
Y1027200D1*
X1020016Y1029563D1*
X1023166Y1031137D1*
X1012930D1*
G37*
G36*
X1136552Y1037437D2*
X1133402Y1036649D1*
X1131827Y1035862D1*
X1127890Y1031925D1*
X1126316Y1028775D1*
X1125528Y1026413D1*
Y989405D1*
X1131827D1*
X1132615Y1016964D1*
X1133402Y1024838D1*
Y1026413D1*
X1135764Y1028775D1*
X1137339Y1029563D1*
X1139964Y1030350D1*
X1142589D1*
X1145213Y1029563D1*
X1147576Y1028775D1*
X1149150Y1027988D1*
X1149938Y1027200D1*
X1151513Y1026413D1*
X1153875Y1024051D1*
Y989405D1*
X1160961D1*
Y1035862D1*
X1153875D1*
Y1031925D1*
X1153040Y1031070D1*
X1152632Y1031197D1*
X1152300Y1031925D1*
X1150725Y1033500D1*
X1148363Y1035074D1*
X1145213Y1036649D1*
X1142064Y1037437D1*
X1136552D1*
G37*
G36*
X1193245Y1029563D2*
X1192986Y1028607D1*
X1192457Y1027988D1*
X1191670Y1026413D1*
X1190883Y1024051D1*
X1190095Y1020901D1*
Y1007515D1*
X1190883Y1004366D1*
X1191670Y1002004D1*
X1194032Y997279D1*
X1195607Y994917D1*
X1197969Y992555D1*
X1200331Y990980D1*
X1203481Y989405D1*
X1205843Y988618D1*
X1213717D1*
X1218442Y990193D1*
X1220016Y990980D1*
X1220605Y991486D1*
X1221013Y991440D1*
X1221591Y990980D1*
Y972082D1*
X1228678D1*
Y1035862D1*
X1221591D1*
Y1032712D1*
X1220631Y1031890D1*
X1220016Y1031925D1*
X1217654Y1034287D1*
X1212930Y1036649D1*
X1209780Y1037437D1*
X1203481D1*
X1201119Y1036649D1*
X1197969Y1035074D1*
X1194032Y1031137D1*
X1193245Y1029563D1*
X1205056D1*
X1207681Y1030350D1*
X1210305D1*
X1212930Y1029563D1*
X1215292Y1028775D1*
X1218442Y1027200D1*
X1219229Y1026413D1*
X1220804Y1025626D1*
X1221591Y1024838D1*
Y998067D1*
X1220804Y997279D1*
X1216079Y995704D1*
X1212930Y994917D1*
X1209780D1*
X1206631Y995704D1*
X1203481Y997279D1*
X1199544Y1001216D1*
Y1002004D1*
X1198757Y1004366D1*
X1197969Y1007515D1*
X1197182Y1008303D1*
Y1017752D1*
X1197969Y1018539D1*
X1198757Y1022476D1*
X1199544Y1024838D1*
Y1025626D1*
X1201906Y1027988D1*
X1205056Y1029563D1*
X1193245D1*
G37*
G36*
X1248363Y1037437D2*
X1242064Y1035862D1*
X1238914Y1034287D1*
Y1026413D1*
X1241276Y1027988D1*
X1242064Y1028775D1*
X1243639Y1029563D1*
X1248363Y1031137D1*
X1251250Y1031925D1*
X1254137D1*
X1257024Y1031137D1*
X1259387Y1030350D1*
X1260961Y1029563D1*
X1261596Y1028546D1*
X1261749Y1027988D1*
X1262536Y1027200D1*
Y1021689D1*
X1260174Y1019326D1*
X1257024Y1017752D1*
X1253875Y1016964D1*
X1249938Y1016177D1*
X1246788Y1015389D1*
X1244426Y1014602D1*
X1242851Y1013815D1*
X1240489Y1012240D1*
X1238914Y1010665D1*
X1238127Y1009090D1*
X1237339Y1006728D1*
Y999641D1*
X1238127Y997279D1*
X1238914Y995704D1*
X1242851Y991767D1*
X1245213Y990193D1*
X1247576Y989405D1*
X1250725Y988618D1*
X1259387D1*
X1263324Y989405D1*
X1268048Y990980D1*
X1269623Y991767D1*
X1270410Y992555D1*
Y1000429D1*
X1268048Y998854D1*
X1267261Y998067D1*
X1264111Y996492D1*
X1259387Y994917D1*
X1256499Y994130D1*
X1253612D1*
X1250725Y994917D1*
X1248363Y995704D1*
X1246788Y996492D1*
X1245213Y998067D1*
Y998854D1*
X1244426Y999641D1*
Y1003578D1*
X1245213Y1004366D1*
Y1005153D1*
X1246788Y1006728D1*
X1249938Y1008303D1*
X1253087Y1009090D1*
X1257024Y1009878D1*
X1260174Y1010665D1*
X1262536Y1011452D1*
X1264111Y1012240D1*
X1266473Y1013815D1*
X1268048Y1015389D1*
X1269623Y1018539D1*
X1270410Y1021689D1*
Y1025626D1*
X1269623Y1027988D1*
X1268048Y1031137D1*
X1264898Y1034287D1*
X1262536Y1035862D1*
X1260174Y1036649D1*
X1257024Y1037437D1*
X1248363D1*
G37*
G36*
X1307418Y1031137D2*
X1306631Y1030350D1*
X1305056Y1027988D1*
X1304268Y1025626D1*
X1303481Y1022476D1*
Y1012240D1*
X1335764Y1011452D1*
Y1005941D1*
X1334977Y1005153D1*
X1334190Y1002791D1*
Y1002004D1*
X1330253Y998067D1*
X1327103Y996492D1*
X1324741Y995704D1*
X1321591Y994917D1*
X1318442D1*
X1312142Y996492D1*
X1309780Y997279D1*
X1305056Y999641D1*
X1304268Y1000429D1*
Y992555D1*
X1305056Y991767D1*
X1308993Y990193D1*
X1315292Y988618D1*
X1324741D1*
X1327890Y989405D1*
X1330253Y990193D1*
X1334977Y992555D1*
X1338914Y996492D1*
X1340489Y998854D1*
X1341276Y1000429D1*
X1342851Y1005153D1*
X1343639Y1012240D1*
Y1013027D1*
X1342851Y1020114D1*
X1341276Y1024838D1*
X1339701Y1027988D1*
X1338127Y1030350D1*
X1335764Y1032712D1*
X1332615Y1035074D1*
X1331040Y1035862D1*
X1328678Y1036649D1*
X1325528Y1037437D1*
X1317654D1*
X1314505Y1036649D1*
X1311355Y1035074D1*
X1307418Y1031137D1*
X1317654D1*
X1320541Y1031925D1*
X1323429D1*
X1326316Y1031137D1*
X1328678Y1030350D1*
X1330253Y1029563D1*
X1334190Y1025626D1*
Y1024838D1*
X1334977Y1022476D1*
X1335764Y1021689D1*
Y1018539D1*
X1327103Y1017752D1*
X1318442D1*
X1309780Y1018539D1*
Y1020114D1*
X1310568Y1020901D1*
X1311355Y1024838D1*
X1312142Y1026413D1*
Y1027200D1*
X1314505Y1029563D1*
X1317654Y1031137D1*
X1307418D1*
G37*
G36*
X1359387Y1037437D2*
X1353087Y1035862D1*
X1349938Y1034287D1*
Y1026413D1*
X1352300Y1027988D1*
X1353087Y1028775D1*
X1354662Y1029563D1*
X1359387Y1031137D1*
X1362274Y1031925D1*
X1365161D1*
X1368048Y1031137D1*
X1370410Y1030350D1*
X1371985Y1029563D1*
X1372619Y1028546D1*
X1372772Y1027988D1*
X1373560Y1027200D1*
Y1021689D1*
X1371198Y1019326D1*
X1368048Y1017752D1*
X1364898Y1016964D1*
X1360961Y1016177D1*
X1357812Y1015389D1*
X1355450Y1014602D1*
X1353875Y1013815D1*
X1351513Y1012240D1*
X1349938Y1010665D1*
X1349150Y1009090D1*
X1348363Y1006728D1*
Y999641D1*
X1349150Y997279D1*
X1349938Y995704D1*
X1353875Y991767D1*
X1356237Y990193D1*
X1358599Y989405D1*
X1361749Y988618D1*
X1370410D1*
X1374347Y989405D1*
X1379072Y990980D1*
X1380646Y991767D1*
X1381434Y992555D1*
Y1000429D1*
X1379072Y998854D1*
X1378284Y998067D1*
X1375135Y996492D1*
X1370410Y994917D1*
X1367523Y994130D1*
X1364636D1*
X1361749Y994917D1*
X1359387Y995704D1*
X1357812Y996492D1*
X1356237Y998067D1*
Y998854D1*
X1355450Y999641D1*
Y1003578D1*
X1356237Y1004366D1*
Y1005153D1*
X1357812Y1006728D1*
X1360961Y1008303D1*
X1364111Y1009090D1*
X1368048Y1009878D1*
X1371198Y1010665D1*
X1373560Y1011452D1*
X1375135Y1012240D1*
X1377497Y1013815D1*
X1379072Y1015389D1*
X1380646Y1018539D1*
X1381434Y1021689D1*
Y1025626D1*
X1380646Y1027988D1*
X1379072Y1031137D1*
X1375922Y1034287D1*
X1373560Y1035862D1*
X1371198Y1036649D1*
X1368048Y1037437D1*
X1359387D1*
G37*
G36*
X907418Y1035862D2*
X908205Y1035074D1*
Y1033500D1*
X908993Y1031925D1*
X909780Y1029563D1*
X910568Y1027988D1*
X911355Y1025626D1*
X912142Y1024051D1*
X912930Y1021689D1*
X913717Y1020114D1*
X914505Y1017752D1*
X915292Y1016177D1*
X916867Y1011452D1*
X917654Y1009878D1*
X918442Y1007515D1*
X919229Y1005941D1*
X920016Y1003578D1*
X920804Y1002004D1*
X921591Y999641D1*
X922379Y998067D1*
X923166Y995704D1*
X923953Y994130D1*
X924741Y991767D1*
X925528Y990193D1*
X926316Y987830D1*
X927103Y986256D1*
X927890Y983893D1*
X928678Y982318D1*
X929465Y979956D1*
X930253Y978381D1*
X931827Y973657D1*
X932615Y972082D1*
X940489D1*
Y972870D1*
X938127Y977594D1*
X937339Y979956D1*
X935764Y983106D1*
X934977Y985468D1*
X933402Y988618D1*
X932615Y989405D1*
Y993342D1*
X933402Y994130D1*
X934190Y996492D1*
X934977Y998067D1*
X935764Y1000429D1*
X936552Y1002004D1*
X938127Y1006728D1*
X938914Y1008303D1*
X939701Y1010665D1*
X940489Y1012240D1*
X942064Y1016964D1*
X942851Y1018539D1*
X943639Y1020901D1*
X944426Y1022476D1*
X946001Y1027200D1*
X946788Y1028775D1*
X947576Y1031137D1*
X948363Y1032712D1*
X949150Y1035074D1*
Y1035862D1*
X941276D1*
X939701Y1031137D1*
X938914Y1029563D1*
X937339Y1024838D1*
X936552Y1023263D1*
X934977Y1018539D1*
X934190Y1016964D1*
X931827Y1009878D1*
X931040Y1008303D1*
X929465Y1003578D1*
X929179Y1002610D1*
X928341Y1001940D1*
X927628Y1002064D1*
X926841Y1002985D1*
X927103Y1003578D1*
X925528Y1008303D1*
X924741Y1009878D1*
X923166Y1014602D1*
X922379Y1016177D1*
X920016Y1023263D1*
X919229Y1024838D1*
X917654Y1029563D1*
X916867Y1031137D1*
X915292Y1035862D1*
X907418D1*
G37*
G36*
X1173560D2*
Y989405D1*
X1180646D1*
Y1035862D1*
X1173560D1*
G37*
M02*
