G04 DipTrace 4.0.0.2*
G04 TopMask.gbr*
%MOIN*%
G04 #@! TF.FileFunction,Soldermask,Top*
G04 #@! TF.Part,Single*
%AMOUTLINE1*
4,1,5,
-0.031499,-0.013781,
-0.031499,0.027562,
0.031499,0.027562,
0.031499,-0.027562,
-0.013124,-0.027562,
-0.031499,-0.013781,
0*%
%AMOUTLINE4*
4,1,5,
-0.031499,-0.027562,
-0.031499,0.027562,
0.031499,0.027562,
0.031499,-0.013443,
0.01738,-0.027562,
-0.031499,-0.027562,
0*%
%ADD32C,0.137795*%
%ADD38R,0.031502X0.08662*%
%ADD40C,0.094494*%
%ADD42R,0.094494X0.094494*%
%ADD44R,0.070872X0.066935*%
%ADD46R,0.074809X0.094494*%
%ADD48C,0.066935*%
%ADD50R,0.066935X0.066935*%
%ADD52R,0.055124X0.055124*%
%ADD54R,0.066935X0.059061*%
%ADD60OUTLINE1*%
%ADD63OUTLINE4*%
%FSLAX26Y26*%
G04*
G70*
G90*
G75*
G01*
G04 TopMask*
%LPD*%
D54*
X956500Y1269000D3*
Y1343803D3*
X606500Y1381500D3*
Y1456303D3*
D52*
X769000Y1810339D3*
Y1727661D3*
X875251Y1810339D3*
Y1727661D3*
X981500Y1810339D3*
Y1727661D3*
D50*
X473916Y1968803D3*
D48*
X573916D3*
X673916D3*
X773916D3*
X873916D3*
X973916D3*
X1073916D3*
X1173916D3*
X1273907D3*
X1373907D3*
X1473907D3*
X1573907D3*
D32*
X1516047Y827071D3*
D46*
X1231500Y1563980D3*
X1131500D3*
Y1229335D3*
X1231500D3*
X1469000Y1563980D3*
X1369000D3*
Y1229335D3*
X1469000D3*
D54*
X1231500Y1734059D3*
Y1659256D3*
X769000Y1656402D3*
Y1581598D3*
X875251Y1656402D3*
Y1581598D3*
X1469000Y1734059D3*
Y1659256D3*
X981500Y1656402D3*
Y1581598D3*
X541983Y1745723D3*
Y1670920D3*
D60*
X599118Y856992D3*
D63*
X488882D3*
D44*
X544000Y729039D3*
D54*
X631500Y1006500D3*
Y1081303D3*
X649906Y1742277D3*
Y1667474D3*
X544000Y1081500D3*
Y1006697D3*
D42*
X749807Y744000D3*
D40*
X887602D3*
X1025398D3*
X1163193D3*
X1300988D3*
D38*
X706500Y1244000D3*
X756500D3*
X806500D3*
X856500D3*
Y1456598D3*
X806500D3*
X756500D3*
X706500D3*
M02*
