G04 DipTrace 4.0.0.2*
G04 TopSilk.gbr*
%MOIN*%
G04 #@! TF.FileFunction,Legend,Top*
G04 #@! TF.Part,Single*
%ADD10C,0.009843*%
%ADD19C,0.008*%
%ADD21C,0.005906*%
%ADD56C,0.006176*%
%ADD57C,0.00772*%
%FSLAX26Y26*%
G04*
G70*
G90*
G75*
G01*
G04 TopSilk*
%LPD*%
X982071Y1227640D2*
D10*
X930929D1*
X632071Y1340140D2*
X580929D1*
G36*
X769000Y1756500D2*
X787751Y1781500D1*
X750249D1*
D1*
X769000Y1756500D1*
G37*
X787751D2*
D21*
X750249D1*
X787751Y1700249D2*
X750249D1*
G36*
X875251Y1756500D2*
X894001Y1781500D1*
X856500D1*
D1*
X875251Y1756500D1*
G37*
X894001D2*
D21*
X856500D1*
X894001Y1700249D2*
X856500D1*
G36*
X981500Y1756500D2*
X1000251Y1781500D1*
X962749D1*
D1*
X981500Y1756500D1*
G37*
X1000251D2*
D21*
X962749D1*
X1000251Y1700249D2*
X962749D1*
X394000Y2047543D2*
D10*
Y394000D1*
X1653843D1*
Y2047543D1*
X394000D1*
X1090949Y1502941D2*
Y1290374D1*
X1272051Y1502941D2*
X1090949D1*
Y1290374D2*
X1272051D1*
Y1502941D2*
Y1420290D1*
Y1290374D2*
Y1373025D1*
Y1420290D2*
G03X1272051Y1373025I-1J-23633D01*
G01*
X1328449Y1502941D2*
Y1290374D1*
X1509551Y1502941D2*
X1328449D1*
Y1290374D2*
X1509551D1*
Y1502941D2*
Y1420290D1*
Y1290374D2*
Y1373025D1*
Y1420290D2*
G03X1509551Y1373025I-1J-23633D01*
G01*
X512500Y794004D2*
G02X512500Y794004I31500J0D01*
G01*
X575500Y793995D2*
X512500D1*
X544000Y762507D2*
Y825501D1*
X563677Y882583D2*
X524323D1*
X465259Y823524D2*
Y705425D1*
X504629D2*
X465259D1*
X583371D2*
X622741D1*
Y823524D1*
X680909Y799094D2*
Y684945D1*
X1369886D1*
Y799094D1*
X680909D1*
Y905417D2*
Y354236D1*
X1369886D1*
Y905417D1*
X680909D1*
X683073Y1299112D2*
X879927D1*
X683073Y1401487D2*
X879927D1*
Y1299112D2*
Y1401487D1*
X683073Y1330605D2*
Y1299112D1*
Y1369993D2*
Y1401487D1*
Y1330605D2*
G03X683073Y1369993I-9J19694D01*
G01*
X680909Y1151874D2*
X955024D1*
Y905417D1*
X680909D1*
Y1151874D1*
X955024D2*
X1369886D1*
Y905417D1*
X955024D1*
Y1151874D1*
X1094000Y1931500D2*
D19*
X1481500D1*
Y1775249D1*
X1094000D1*
Y1931500D1*
G36*
X1390883Y1899379D2*
Y1898854D1*
X1389833Y1897804D1*
X1388783Y1895704D1*
X1387733Y1892555D1*
Y1882056D1*
X1388258Y1879956D1*
X1388783Y1878381D1*
X1390358Y1875232D1*
X1392982Y1872607D1*
X1395082Y1871557D1*
X1396657Y1871032D1*
X1401381D1*
X1402956Y1871557D1*
X1406106Y1873132D1*
X1407681Y1874707D1*
X1408169Y1874532D1*
X1408730Y1874182D1*
Y1872082D1*
X1413455D1*
Y1916177D1*
X1408730D1*
Y1902528D1*
X1408174Y1901958D1*
X1407902Y1902044D1*
X1407681Y1902528D1*
X1406631Y1903053D1*
X1403481Y1904103D1*
X1398232D1*
X1396657Y1903578D1*
X1393507Y1902004D1*
X1390883Y1899379D1*
X1398757D1*
X1400681Y1899904D1*
X1402606D1*
X1404531Y1899379D1*
X1406631Y1898854D1*
X1408730Y1897804D1*
Y1879431D1*
X1407681Y1878381D1*
X1404531Y1876807D1*
X1402956Y1876282D1*
X1401206Y1875757D1*
X1399457D1*
X1397707Y1876282D1*
X1396132Y1876807D1*
X1394032Y1878906D1*
Y1879431D1*
X1393507Y1880481D1*
X1392982Y1882581D1*
X1392457Y1883106D1*
Y1891505D1*
X1392982Y1892030D1*
X1393507Y1894130D1*
X1394032Y1895179D1*
X1395082Y1896754D1*
X1395184Y1897126D1*
X1395607Y1897804D1*
X1398757Y1899379D1*
X1390883D1*
G37*
G36*
X1421854Y1915652D2*
Y1872082D1*
X1426578D1*
Y1915652D1*
X1421854D1*
G37*
G36*
X1114242Y1909878D2*
X1114070Y1909241D1*
X1113717Y1908828D1*
X1113192Y1907778D1*
X1112142Y1904628D1*
X1111618Y1902528D1*
X1111093Y1899379D1*
Y1886256D1*
X1111618Y1883106D1*
X1112142Y1881006D1*
X1113192Y1877857D1*
X1113717Y1876807D1*
X1114767Y1875232D1*
X1117392Y1872607D1*
X1119492Y1871557D1*
X1121591Y1871032D1*
X1126841D1*
X1129990Y1872082D1*
X1131565Y1873132D1*
X1133140Y1874707D1*
X1134190Y1876282D1*
X1135240Y1878381D1*
X1136289Y1881531D1*
X1136814Y1884156D1*
X1137339Y1888355D1*
Y1896754D1*
X1136814Y1901479D1*
X1136289Y1904103D1*
X1135240Y1907253D1*
X1134190Y1909353D1*
X1133140Y1910927D1*
X1131565Y1912502D1*
X1128415Y1914077D1*
X1126316Y1914602D1*
X1121591D1*
X1119492Y1914077D1*
X1117392Y1913027D1*
X1114242Y1909878D1*
X1121591D1*
X1123341Y1910402D1*
X1125091D1*
X1126841Y1909878D1*
X1127890Y1909353D1*
X1129990Y1907253D1*
Y1906728D1*
X1130515Y1905678D1*
X1131040Y1903578D1*
X1131565Y1899904D1*
X1132090Y1899379D1*
Y1886256D1*
X1131565Y1885731D1*
X1131040Y1882056D1*
X1130515Y1879956D1*
X1129990Y1878906D1*
Y1878381D1*
X1127890Y1876282D1*
X1124741Y1875232D1*
X1123166D1*
X1121591Y1875757D1*
X1119492Y1876807D1*
X1118869Y1877397D1*
X1118967Y1877857D1*
X1117917Y1879431D1*
X1117392Y1881006D1*
X1116867Y1883631D1*
X1116342Y1884156D1*
Y1901479D1*
X1116867Y1902004D1*
X1117392Y1904628D1*
X1117917Y1906203D1*
X1118967Y1907778D1*
X1119069Y1908150D1*
X1119492Y1908828D1*
X1121591Y1909878D1*
X1114242D1*
G37*
G36*
X1198232D2*
X1198059Y1909241D1*
X1197707Y1908828D1*
X1197182Y1907778D1*
X1196132Y1904628D1*
X1195607Y1902528D1*
X1195082Y1899379D1*
Y1886256D1*
X1195607Y1883106D1*
X1196132Y1881006D1*
X1197182Y1877857D1*
X1197707Y1876807D1*
X1198757Y1875232D1*
X1201381Y1872607D1*
X1203481Y1871557D1*
X1205581Y1871032D1*
X1210830D1*
X1213980Y1872082D1*
X1215555Y1873132D1*
X1217129Y1874707D1*
X1218179Y1876282D1*
X1219229Y1878381D1*
X1220279Y1881531D1*
X1220804Y1884156D1*
X1221329Y1888355D1*
Y1896754D1*
X1220804Y1901479D1*
X1220279Y1904103D1*
X1219229Y1907253D1*
X1218179Y1909353D1*
X1217129Y1910927D1*
X1215555Y1912502D1*
X1212405Y1914077D1*
X1210305Y1914602D1*
X1205581D1*
X1203481Y1914077D1*
X1201381Y1913027D1*
X1198232Y1909878D1*
X1205581D1*
X1207331Y1910402D1*
X1209080D1*
X1210830Y1909878D1*
X1211880Y1909353D1*
X1213980Y1907253D1*
Y1906728D1*
X1214505Y1905678D1*
X1215030Y1903578D1*
X1215555Y1899904D1*
X1216079Y1899379D1*
Y1886256D1*
X1215555Y1885731D1*
X1215030Y1882056D1*
X1214505Y1879956D1*
X1213980Y1878906D1*
Y1878381D1*
X1211880Y1876282D1*
X1208730Y1875232D1*
X1207156D1*
X1205581Y1875757D1*
X1203481Y1876807D1*
X1202858Y1877397D1*
X1202956Y1877857D1*
X1201906Y1879431D1*
X1201381Y1881006D1*
X1200856Y1883631D1*
X1200331Y1884156D1*
Y1901479D1*
X1200856Y1902004D1*
X1201381Y1904628D1*
X1201906Y1906203D1*
X1202956Y1907778D1*
X1203058Y1908150D1*
X1203481Y1908828D1*
X1205581Y1909878D1*
X1198232D1*
G37*
G36*
X1290095Y1914602D2*
X1287995Y1914077D1*
X1286421Y1913552D1*
X1284321Y1912502D1*
X1280646Y1908828D1*
X1279597Y1906728D1*
X1279072Y1904628D1*
Y1900429D1*
X1279597Y1898329D1*
X1280646Y1896229D1*
X1283271Y1893605D1*
X1286421Y1892030D1*
X1287995Y1891505D1*
X1294295Y1889930D1*
X1297444Y1888880D1*
X1299544Y1887830D1*
X1299967Y1887153D1*
X1300069Y1886780D1*
X1301119Y1884156D1*
X1301644Y1883631D1*
Y1881531D1*
X1301119Y1881006D1*
X1300594Y1879431D1*
Y1878906D1*
X1299019Y1877332D1*
X1296919Y1876282D1*
X1295345Y1875757D1*
X1293070Y1875232D1*
X1290795D1*
X1288520Y1875757D1*
X1285371Y1876807D1*
X1281171Y1878906D1*
X1279072Y1881006D1*
Y1874182D1*
X1279597Y1873657D1*
X1282221Y1872607D1*
X1285371Y1871557D1*
X1288520Y1871032D1*
X1295345D1*
X1297444Y1871557D1*
X1299019Y1872082D1*
X1301119Y1873132D1*
X1303219Y1874707D1*
X1304793Y1876807D1*
X1305843Y1878906D1*
X1306368Y1880481D1*
X1306893Y1883106D1*
Y1884156D1*
X1306368Y1887305D1*
X1304793Y1890455D1*
X1303219Y1892030D1*
X1301644Y1893080D1*
X1300594Y1893605D1*
X1297444Y1894654D1*
X1291145Y1896229D1*
X1287995Y1897279D1*
X1286946Y1897804D1*
X1284846Y1899904D1*
Y1900954D1*
X1284321Y1901479D1*
Y1905153D1*
X1284846Y1905678D1*
X1285896Y1907253D1*
X1287471Y1908828D1*
X1288520Y1909353D1*
X1290095Y1909878D1*
X1292195Y1910402D1*
X1294295D1*
X1298494Y1909353D1*
X1300069Y1908828D1*
X1302169Y1907778D1*
X1302694Y1907253D1*
X1304793Y1905678D1*
Y1911977D1*
X1304268Y1912502D1*
X1303219Y1913027D1*
X1301644Y1913552D1*
X1299544Y1914077D1*
X1296394Y1914602D1*
X1290095D1*
G37*
G36*
X1176184Y1913552D2*
Y1912502D1*
X1175660Y1911977D1*
Y1910927D1*
X1174085Y1909353D1*
X1173035Y1908828D1*
X1170935Y1908303D1*
X1167785Y1907778D1*
Y1904628D1*
X1175135Y1904103D1*
Y1876282D1*
X1167785Y1875757D1*
Y1872082D1*
X1187208D1*
Y1875757D1*
X1179859Y1876282D1*
Y1913552D1*
X1176184D1*
G37*
G36*
X1223953D2*
Y1913027D1*
X1224478Y1911977D1*
X1228678Y1899379D1*
X1229203Y1898329D1*
X1233402Y1885731D1*
X1233927Y1884681D1*
X1238127Y1872082D1*
X1243901D1*
X1244426Y1872607D1*
X1248625Y1885206D1*
X1249150Y1886256D1*
X1253350Y1898854D1*
X1253875Y1899904D1*
X1258074Y1912502D1*
Y1913552D1*
X1253350D1*
X1252825Y1913027D1*
X1241801Y1879956D1*
X1241668Y1879337D1*
X1241246Y1878858D1*
X1240975Y1878945D1*
X1240637Y1879523D1*
X1240751Y1879956D1*
X1229728Y1913027D1*
X1229203Y1913552D1*
X1223953D1*
G37*
G36*
X1344163D2*
Y1908828D1*
X1349938D1*
Y1913552D1*
X1344163D1*
G37*
G36*
X1312667Y1898854D2*
Y1860534D1*
X1317392D1*
Y1873132D1*
X1317784Y1873469D1*
X1318056Y1873439D1*
X1318442Y1873132D1*
X1319492Y1872607D1*
X1322641Y1871557D1*
X1327890D1*
X1329465Y1872082D1*
X1331565Y1873132D1*
X1333140Y1874182D1*
X1334715Y1875757D1*
X1335764Y1877332D1*
X1337339Y1880481D1*
X1337864Y1882056D1*
X1338389Y1884156D1*
Y1893080D1*
X1337864Y1895179D1*
X1337339Y1896754D1*
X1335764Y1899904D1*
X1333140Y1902528D1*
X1331040Y1903578D1*
X1329465Y1904103D1*
X1325266D1*
X1323166Y1903578D1*
X1320016Y1902004D1*
X1318442Y1900429D1*
X1317672Y1900482D1*
X1317392Y1900954D1*
Y1903053D1*
X1312667D1*
Y1898854D1*
X1323166D1*
X1324916Y1899379D1*
X1326666D1*
X1328415Y1898854D1*
X1330515Y1897804D1*
X1332090Y1896229D1*
Y1895704D1*
X1332615Y1894130D1*
X1333140Y1891505D1*
X1333665Y1890980D1*
Y1884681D1*
X1333140Y1884156D1*
X1332615Y1882056D1*
X1332090Y1880481D1*
Y1879956D1*
X1329465Y1877332D1*
X1327366Y1876282D1*
X1325266Y1875757D1*
X1323166D1*
X1321066Y1876282D1*
X1317917Y1877332D1*
X1317392Y1877857D1*
Y1895704D1*
X1317917Y1896229D1*
X1318967Y1896754D1*
X1319492Y1897279D1*
X1321591Y1898329D1*
X1323166Y1898854D1*
X1312667D1*
G37*
G36*
X1370410Y1904103D2*
X1368310Y1903578D1*
X1366211Y1902528D1*
X1364636Y1901479D1*
X1363586Y1900429D1*
X1363029Y1899859D1*
X1362758Y1899944D1*
X1362536Y1900429D1*
Y1903053D1*
X1357812D1*
Y1872082D1*
X1362536D1*
Y1895179D1*
X1364111Y1896754D1*
X1365161Y1897279D1*
X1365686Y1897804D1*
X1366736Y1898329D1*
X1368310Y1898854D1*
X1370060Y1899379D1*
X1371810D1*
X1373560Y1898854D1*
X1374610Y1898329D1*
X1376184Y1896754D1*
Y1895704D1*
X1376709Y1890455D1*
X1377234Y1872082D1*
X1381434D1*
Y1896754D1*
X1380909Y1898329D1*
X1379859Y1900429D1*
X1377234Y1903053D1*
X1376184Y1903578D1*
X1374085Y1904103D1*
X1370410D1*
G37*
G36*
X1436552Y1899904D2*
X1436027Y1899379D1*
X1434977Y1897804D1*
X1433927Y1895704D1*
X1432877Y1892555D1*
X1432352Y1887830D1*
Y1887305D1*
X1432877Y1882581D1*
X1433927Y1879431D1*
X1434452Y1878381D1*
X1435502Y1876807D1*
X1438127Y1874182D1*
X1441276Y1872607D1*
X1442851Y1872082D1*
X1444951Y1871557D1*
X1451250D1*
X1455450Y1872607D1*
X1458074Y1873657D1*
X1458599Y1874182D1*
Y1879431D1*
X1458074Y1878906D1*
X1454925Y1877332D1*
X1453350Y1876807D1*
X1449150Y1875757D1*
X1447051D1*
X1444951Y1876282D1*
X1443376Y1876807D1*
X1441276Y1877857D1*
X1438652Y1880481D1*
Y1881006D1*
X1438127Y1882581D1*
X1437602Y1883106D1*
Y1886780D1*
X1459124Y1887305D1*
Y1894130D1*
X1458599Y1896229D1*
X1458074Y1897804D1*
X1457024Y1899379D1*
X1453875Y1902528D1*
X1451775Y1903578D1*
X1449675Y1904103D1*
X1444426D1*
X1442326Y1903578D1*
X1440751Y1903053D1*
X1439701Y1902528D1*
X1437602Y1900954D1*
X1436552Y1899904D1*
X1443901D1*
X1445826Y1900429D1*
X1447750D1*
X1449675Y1899904D1*
X1451775Y1898854D1*
X1453350Y1897279D1*
Y1896754D1*
X1453875Y1895704D1*
X1454400Y1893080D1*
X1454925Y1892555D1*
Y1891505D1*
X1449150Y1890980D1*
X1443376D1*
X1437602Y1891505D1*
Y1893605D1*
X1438127Y1894130D1*
X1438652Y1895704D1*
Y1896229D1*
X1441276Y1898854D1*
X1442326Y1899379D1*
X1443901Y1899904D1*
X1436552D1*
G37*
G36*
X1344688Y1903053D2*
Y1872082D1*
X1349413D1*
Y1903053D1*
X1344688D1*
G37*
G36*
X1142589Y1892555D2*
Y1887830D1*
X1157812D1*
Y1892555D1*
X1142589D1*
G37*
G36*
X1256499Y1825888D2*
Y1825363D1*
X1255450Y1824313D1*
X1254400Y1822214D1*
X1253350Y1819064D1*
Y1808565D1*
X1253875Y1806465D1*
X1254400Y1804891D1*
X1255974Y1801741D1*
X1258599Y1799116D1*
X1260699Y1798067D1*
X1262274Y1797542D1*
X1266998D1*
X1268573Y1798067D1*
X1271722Y1799641D1*
X1273297Y1801216D1*
X1273786Y1801042D1*
X1274347Y1800691D1*
Y1798591D1*
X1279072D1*
Y1842686D1*
X1274347D1*
Y1829038D1*
X1273791Y1828468D1*
X1273519Y1828553D1*
X1273297Y1829038D1*
X1272247Y1829563D1*
X1269098Y1830612D1*
X1263848D1*
X1262274Y1830088D1*
X1259124Y1828513D1*
X1256499Y1825888D1*
X1264373D1*
X1266298Y1826413D1*
X1268223D1*
X1270148Y1825888D1*
X1272247Y1825363D1*
X1274347Y1824313D1*
Y1805941D1*
X1273297Y1804891D1*
X1270148Y1803316D1*
X1268573Y1802791D1*
X1266823Y1802266D1*
X1265073D1*
X1263324Y1802791D1*
X1261749Y1803316D1*
X1259649Y1805416D1*
Y1805941D1*
X1259124Y1806990D1*
X1258599Y1809090D1*
X1258074Y1809615D1*
Y1818014D1*
X1258599Y1818539D1*
X1259124Y1820639D1*
X1259649Y1821689D1*
X1260699Y1823263D1*
X1260801Y1823635D1*
X1261224Y1824313D1*
X1264373Y1825888D1*
X1256499D1*
G37*
G36*
X1165161Y1825363D2*
Y1798591D1*
X1169360D1*
Y1799116D1*
X1170060Y1799641D1*
X1170760D1*
X1171460Y1799116D1*
X1173560Y1798067D1*
X1175660Y1797542D1*
X1180384D1*
X1181959Y1798067D1*
X1184058Y1799116D1*
X1185633Y1800166D1*
X1187208Y1801741D1*
X1188258Y1803316D1*
X1189833Y1806465D1*
X1190358Y1808040D1*
X1190883Y1810140D1*
Y1819064D1*
X1190358Y1821689D1*
X1189833Y1823263D1*
X1188783Y1825363D1*
X1187733Y1826938D1*
X1185633Y1829038D1*
X1183534Y1830088D1*
X1181959Y1830612D1*
X1177234D1*
X1175660Y1830088D1*
X1172510Y1828513D1*
X1170935Y1826938D1*
X1170166Y1826991D1*
X1169885Y1827463D1*
Y1842161D1*
X1165161D1*
Y1825363D1*
X1175660D1*
X1177409Y1825888D1*
X1179159D1*
X1180909Y1825363D1*
X1183009Y1824313D1*
X1184583Y1822738D1*
Y1822214D1*
X1185108Y1820639D1*
X1185633Y1818014D1*
X1186158Y1817489D1*
Y1810665D1*
X1185633Y1810140D1*
X1185108Y1808040D1*
X1184583Y1806465D1*
X1183534Y1804891D1*
X1183361Y1804254D1*
X1183009Y1803841D1*
X1179859Y1802266D1*
X1177934Y1801741D1*
X1176009D1*
X1174085Y1802266D1*
X1171985Y1802791D1*
X1169885Y1803841D1*
Y1822214D1*
X1170935Y1823263D1*
X1174085Y1824838D1*
X1175660Y1825363D1*
X1165161D1*
G37*
G36*
X1242326Y1842161D2*
Y1798591D1*
X1247051D1*
Y1842161D1*
X1242326D1*
G37*
G36*
X1287471D2*
Y1798591D1*
X1292195D1*
Y1842161D1*
X1287471D1*
G37*
G36*
X1144688Y1806990D2*
Y1829563D1*
X1141014D1*
X1140823Y1828917D1*
X1140264Y1828470D1*
X1139789Y1828554D1*
X1139439Y1829038D1*
X1136289Y1830088D1*
X1132090D1*
X1130515Y1829563D1*
X1129465Y1829038D1*
X1127366Y1827463D1*
X1126316Y1826413D1*
X1125266Y1824838D1*
X1124216Y1822738D1*
X1123691Y1821164D1*
X1123166Y1818014D1*
Y1814339D1*
X1123691Y1811190D1*
X1124216Y1809090D1*
X1125266Y1806990D1*
X1128415Y1803841D1*
X1129465Y1803316D1*
X1131040Y1802791D1*
X1135240D1*
X1136814Y1803316D1*
X1137864Y1803841D1*
X1139439Y1804891D1*
X1139964Y1805416D1*
X1140356Y1805753D1*
X1140621Y1805709D1*
X1140920Y1805275D1*
X1141539Y1802791D1*
X1153087D1*
X1153612Y1803316D1*
X1155187Y1806465D1*
X1156237Y1809615D1*
X1156762Y1811715D1*
X1157287Y1815389D1*
Y1819064D1*
X1156762Y1823263D1*
X1156237Y1825363D1*
X1155187Y1828513D1*
X1153612Y1831662D1*
X1152562Y1833237D1*
X1148363Y1837437D1*
X1146788Y1838486D1*
X1144688Y1839536D1*
X1141539Y1840586D1*
X1138914Y1841111D1*
X1132090D1*
X1129465Y1840586D1*
X1126316Y1839536D1*
X1124216Y1838486D1*
X1122641Y1837437D1*
X1120016Y1835337D1*
X1118967Y1834287D1*
X1116867Y1831662D1*
X1115817Y1830088D1*
X1113717Y1825888D1*
X1113192Y1824313D1*
X1112667Y1821689D1*
Y1811190D1*
X1113192Y1809090D1*
X1114242Y1805941D1*
X1115817Y1802791D1*
X1116867Y1801216D1*
X1122116Y1795967D1*
X1124741Y1794392D1*
X1127366Y1793342D1*
X1128940Y1792817D1*
X1131565Y1792292D1*
X1139964D1*
X1143639Y1792817D1*
X1144688Y1793342D1*
Y1796492D1*
X1144163D1*
X1140489Y1795967D1*
X1137514Y1795442D1*
X1134540D1*
X1131565Y1795967D1*
X1128940Y1796492D1*
X1127366Y1797017D1*
X1125266Y1798067D1*
X1124741Y1798591D1*
X1123691Y1799116D1*
X1119492Y1803316D1*
Y1803841D1*
X1118442Y1805416D1*
X1117917Y1806465D1*
X1116867Y1809615D1*
X1116342Y1812765D1*
X1115817Y1813290D1*
Y1820114D1*
X1116342Y1820639D1*
X1116867Y1823263D1*
X1117917Y1826413D1*
X1118442Y1827463D1*
X1119492Y1829038D1*
X1121591Y1831662D1*
X1121693Y1832034D1*
X1122116Y1832712D1*
X1123166Y1833237D1*
X1124741Y1834812D1*
X1127890Y1836387D1*
X1129465Y1836912D1*
X1131565Y1837437D1*
X1134190Y1837962D1*
X1136814D1*
X1139439Y1837437D1*
X1141539Y1836912D1*
X1143114Y1836387D1*
X1146263Y1834812D1*
X1149938Y1831137D1*
Y1830612D1*
X1150988Y1829038D1*
X1151513Y1827988D1*
X1152562Y1824838D1*
X1153087Y1822738D1*
X1153612Y1822214D1*
Y1811190D1*
X1153087Y1810665D1*
X1152562Y1808040D1*
X1152037Y1806465D1*
Y1805941D1*
X1149588Y1805416D1*
X1147138D1*
X1144688Y1805941D1*
Y1806990D1*
X1136289D1*
X1134715Y1806465D1*
X1133140D1*
X1131565Y1806990D1*
X1130515Y1807515D1*
X1128940Y1809090D1*
Y1809615D1*
X1128415Y1811190D1*
X1127890Y1814339D1*
X1127366Y1814864D1*
Y1817489D1*
X1127890Y1818014D1*
X1128415Y1821164D1*
X1128940Y1822738D1*
Y1823263D1*
X1130515Y1824838D1*
X1132615Y1825888D1*
X1134365Y1826413D1*
X1136114D1*
X1137864Y1825888D1*
X1139439Y1825363D1*
X1140489Y1824838D1*
X1141014Y1824313D1*
Y1809615D1*
X1139964Y1809090D1*
X1138389Y1808040D1*
X1136289Y1806990D1*
X1144688D1*
G37*
G36*
X1228678Y1840061D2*
Y1835337D1*
X1234452D1*
Y1840061D1*
X1228678D1*
G37*
G36*
X1301644Y1825888D2*
X1301119Y1825363D1*
X1300069Y1823788D1*
X1299544Y1822738D1*
X1299019Y1821164D1*
X1298494Y1819064D1*
Y1809090D1*
X1299019Y1806990D1*
X1299544Y1805941D1*
X1300069Y1804366D1*
X1301119Y1802791D1*
X1304268Y1799641D1*
X1305843Y1798591D1*
X1307418Y1798067D1*
X1309518Y1797542D1*
X1314767D1*
X1316867Y1798067D1*
X1320016Y1799641D1*
X1323166Y1802791D1*
X1324741Y1805941D1*
X1325266Y1807515D1*
X1325791Y1809615D1*
Y1818539D1*
X1325266Y1820639D1*
X1324741Y1822214D1*
X1323691Y1824313D1*
X1322641Y1825888D1*
X1320016Y1828513D1*
X1316867Y1830088D1*
X1314767Y1830612D1*
X1309518D1*
X1307418Y1830088D1*
X1304268Y1828513D1*
X1301644Y1825888D1*
X1309518D1*
X1311268Y1826413D1*
X1313017D1*
X1314767Y1825888D1*
X1316342Y1825363D1*
X1316867Y1824838D1*
X1317917Y1824313D1*
X1318340Y1823635D1*
X1318442Y1823263D1*
X1319492Y1821689D1*
X1320016Y1820114D1*
X1320541Y1818014D1*
X1321066Y1817489D1*
Y1810665D1*
X1320541Y1810140D1*
X1320016Y1808040D1*
X1319492Y1806465D1*
X1318442Y1804891D1*
X1318269Y1804254D1*
X1317917Y1803841D1*
X1316867Y1803316D1*
X1316342Y1802791D1*
X1314767Y1802266D1*
X1313017Y1801741D1*
X1311268D1*
X1309518Y1802266D1*
X1307943Y1802791D1*
X1306893Y1803316D1*
X1305318Y1804891D1*
Y1805416D1*
X1304268Y1807515D1*
X1303743Y1809615D1*
X1303219Y1810140D1*
Y1818539D1*
X1303743Y1819064D1*
X1304268Y1820639D1*
X1305318Y1822738D1*
Y1823263D1*
X1306893Y1824838D1*
X1307943Y1825363D1*
X1309518Y1825888D1*
X1301644D1*
G37*
G36*
X1333140D2*
X1332615Y1825363D1*
X1330515Y1821164D1*
X1329990Y1819064D1*
Y1809090D1*
X1330515Y1806990D1*
X1332090Y1803841D1*
X1335240Y1800691D1*
X1337339Y1799641D1*
X1338914Y1799116D1*
X1344163D1*
X1345738Y1799641D1*
X1348888Y1801216D1*
X1349938Y1802266D1*
X1350330Y1802603D1*
X1350602Y1802572D1*
X1350988Y1802266D1*
Y1797017D1*
X1350463Y1796492D1*
X1349938Y1794917D1*
X1349413Y1793867D1*
X1349240Y1793230D1*
X1348888Y1792817D1*
X1346788Y1791767D1*
X1345213Y1791242D1*
X1343114Y1790717D1*
X1341014D1*
X1338914Y1791242D1*
X1333140Y1792817D1*
X1332615D1*
Y1788093D1*
X1333140Y1787568D1*
X1335240Y1787043D1*
X1337864Y1786518D1*
X1344688D1*
X1347313Y1787043D1*
X1348888Y1787568D1*
X1349938Y1788093D1*
X1352037Y1789668D1*
X1352562Y1790193D1*
X1353612Y1791767D1*
X1354662Y1793867D1*
X1355187Y1795442D1*
X1355712Y1798591D1*
Y1829563D1*
X1350988D1*
X1350797Y1828917D1*
X1350238Y1828470D1*
X1349763Y1828554D1*
X1349413Y1829038D1*
X1347313Y1830088D1*
X1345213Y1830612D1*
X1340489D1*
X1338914Y1830088D1*
X1335764Y1828513D1*
X1333140Y1825888D1*
X1341014D1*
X1342939Y1826413D1*
X1344863D1*
X1346788Y1825888D1*
X1349938Y1824838D1*
X1350988Y1824313D1*
Y1806990D1*
X1349938Y1805941D1*
X1346788Y1804366D1*
X1345213Y1803841D1*
X1343464Y1803316D1*
X1341714D1*
X1339964Y1803841D1*
X1338389Y1804366D1*
X1335764Y1806990D1*
Y1808040D1*
X1335240Y1809615D1*
X1334715Y1810140D1*
Y1818539D1*
X1335240Y1819064D1*
X1335764Y1820639D1*
X1336814Y1822738D1*
Y1823263D1*
X1337864Y1824313D1*
X1341014Y1825888D1*
X1333140D1*
G37*
G36*
X1196657Y1829563D2*
Y1806990D1*
X1197182Y1804366D1*
X1197707Y1802791D1*
X1198232Y1801741D1*
X1201381Y1798591D1*
X1202431Y1798067D1*
X1204006Y1797542D1*
X1208205D1*
X1210305Y1798067D1*
X1212405Y1799116D1*
X1214505Y1800691D1*
X1215030Y1801216D1*
X1215422Y1801553D1*
X1215694Y1801523D1*
X1216079Y1801216D1*
Y1798591D1*
X1220804D1*
Y1829563D1*
X1216079D1*
Y1805941D1*
X1215030Y1805416D1*
X1214505Y1804891D1*
X1210305Y1802791D1*
X1208555Y1802266D1*
X1206806D1*
X1205056Y1802791D1*
X1204006Y1803316D1*
X1202431Y1804891D1*
Y1805416D1*
X1201906Y1807515D1*
X1201381Y1829563D1*
X1196657D1*
G37*
G36*
X1229203D2*
Y1798591D1*
X1233927D1*
Y1829563D1*
X1229203D1*
G37*
X854569Y938311D2*
D57*
X856946Y931126D1*
X864131Y926318D1*
X876069Y923941D1*
X883254D1*
X895192Y926318D1*
X902377Y931126D1*
X904754Y938311D1*
Y943064D1*
X902377Y950249D1*
X895192Y955003D1*
X883254Y957435D1*
X876069D1*
X864131Y955003D1*
X856946Y950249D1*
X854569Y943064D1*
Y938311D1*
X864131Y955003D2*
X895192Y926318D1*
X879661Y972874D2*
Y1000509D1*
X864131Y1015948D2*
X861699Y1020756D1*
X854569Y1027941D1*
X904754D1*
X854569Y1057751D2*
X856946Y1050566D1*
X864131Y1045757D1*
X876069Y1043381D1*
X883254D1*
X895192Y1045757D1*
X902377Y1050566D1*
X904754Y1057751D1*
Y1062504D1*
X902377Y1069689D1*
X895192Y1074442D1*
X883254Y1076874D1*
X876069D1*
X864131Y1074442D1*
X856946Y1069689D1*
X854569Y1062504D1*
Y1057751D1*
X864131Y1074442D2*
X895192Y1045757D1*
X854514Y1092313D2*
X904754Y1111436D1*
X854514Y1130560D1*
X735201Y966062D2*
X730448Y963685D1*
X725640Y958877D1*
X723263Y954124D1*
Y944562D1*
X725640Y939753D1*
X730448Y935000D1*
X735201Y932568D1*
X742386Y930192D1*
X754380D1*
X761510Y932568D1*
X766318Y935000D1*
X771071Y939753D1*
X773503Y944562D1*
Y954124D1*
X771071Y958877D1*
X766318Y963685D1*
X761510Y966062D1*
X754380D1*
Y954124D1*
X740010Y981501D2*
X773503D1*
X749571D2*
X742386Y988686D1*
X740010Y993494D1*
Y1000624D1*
X742386Y1005433D1*
X749571Y1007809D1*
X773503D1*
X723263Y1051933D2*
X773503D1*
X747195D2*
X742386Y1047180D1*
X740010Y1042372D1*
Y1035187D1*
X742386Y1030434D1*
X747195Y1025625D1*
X754380Y1023249D1*
X759133D1*
X766318Y1025625D1*
X771071Y1030434D1*
X773503Y1035187D1*
Y1042372D1*
X771071Y1047180D1*
X766318Y1051933D1*
X1560673Y1848461D2*
D56*
X1556870Y1846560D1*
X1553023Y1842713D1*
X1551122Y1838910D1*
Y1831261D1*
X1553023Y1827414D1*
X1556870Y1823612D1*
X1560673Y1821666D1*
X1566421Y1819765D1*
X1576015D1*
X1581719Y1821666D1*
X1585566Y1823612D1*
X1589369Y1827414D1*
X1591314Y1831261D1*
Y1838910D1*
X1589369Y1842713D1*
X1585566Y1846560D1*
X1581719Y1848461D1*
X1576015D1*
Y1838910D1*
X1564519Y1860812D2*
X1591314D1*
X1572169D2*
X1566421Y1866560D1*
X1564519Y1870407D1*
Y1876111D1*
X1566421Y1879958D1*
X1572169Y1881859D1*
X1591314D1*
X1551122Y1917158D2*
X1591314D1*
X1570267D2*
X1566421Y1913356D1*
X1564519Y1909509D1*
Y1903761D1*
X1566421Y1899958D1*
X1570267Y1896112D1*
X1576015Y1894210D1*
X1579818D1*
X1585566Y1896112D1*
X1589369Y1899958D1*
X1591314Y1903761D1*
Y1909509D1*
X1589369Y1913356D1*
X1585566Y1917158D1*
X458163Y1848461D2*
X454361Y1846560D1*
X450514Y1842713D1*
X448613Y1838910D1*
Y1831261D1*
X450514Y1827414D1*
X454361Y1823612D1*
X458163Y1821666D1*
X463911Y1819765D1*
X473506D1*
X479210Y1821666D1*
X483057Y1823612D1*
X486859Y1827414D1*
X488805Y1831261D1*
Y1838910D1*
X486859Y1842713D1*
X483057Y1846560D1*
X479210Y1848461D1*
X473506D1*
Y1838910D1*
X462010Y1860812D2*
X488805D1*
X469660D2*
X463911Y1866560D1*
X462010Y1870407D1*
Y1876111D1*
X463911Y1879958D1*
X469660Y1881859D1*
X488805D1*
X448613Y1917158D2*
X488805D1*
X467758D2*
X463911Y1913356D1*
X462010Y1909509D1*
Y1903761D1*
X463911Y1899958D1*
X467758Y1896112D1*
X473506Y1894210D1*
X477309D1*
X483057Y1896112D1*
X486859Y1899958D1*
X488805Y1903761D1*
Y1909509D1*
X486859Y1913356D1*
X483057Y1917158D1*
X772169Y1884273D2*
Y1901517D1*
X770267Y1907221D1*
X768322Y1909166D1*
X764519Y1911068D1*
X758771D1*
X754969Y1909166D1*
X753023Y1907221D1*
X751122Y1901517D1*
Y1884273D1*
X791314D1*
X544873Y1840811D2*
X585065Y1856110D1*
X544873Y1871408D1*
Y1883760D2*
X585065D1*
X558270Y1896111D2*
X585065D1*
X565919D2*
X560171Y1901859D1*
X558270Y1905706D1*
Y1911410D1*
X560171Y1915256D1*
X565919Y1917158D1*
X585065D1*
X644917Y1870363D2*
Y1851261D1*
X662117Y1849360D1*
X660216Y1851261D1*
X658270Y1857009D1*
Y1862713D1*
X660216Y1868461D1*
X664018Y1872308D1*
X669766Y1874209D1*
X673569D1*
X679317Y1872308D1*
X683163Y1868461D1*
X685065Y1862713D1*
Y1857009D1*
X683163Y1851261D1*
X681218Y1849360D1*
X677415Y1847415D1*
X644873Y1886561D2*
X685065Y1901859D1*
X644873Y1917158D1*
X966968Y1888313D2*
X965066D1*
X961219Y1890214D1*
X959318Y1892115D1*
X957417Y1895962D1*
Y1903611D1*
X959318Y1907414D1*
X961219Y1909315D1*
X965066Y1911261D1*
X968869D1*
X972716Y1909315D1*
X978419Y1905513D1*
X997565Y1886367D1*
Y1913162D1*
X865066Y1891067D2*
X863121Y1894914D1*
X857417Y1900662D1*
X897565D1*
X1138622Y940916D2*
X1140523Y937069D1*
X1144370Y933267D1*
X1148173Y931321D1*
X1153921Y929420D1*
X1163515D1*
X1169219Y931321D1*
X1173066Y933267D1*
X1176869Y937069D1*
X1178814Y940916D1*
Y948565D1*
X1176869Y952368D1*
X1173066Y956215D1*
X1169219Y958116D1*
X1163515Y960017D1*
X1153921D1*
X1148173Y958116D1*
X1144370Y956215D1*
X1140523Y952368D1*
X1138622Y948565D1*
Y940916D1*
X1152019Y972368D2*
X1171165D1*
X1176869Y974270D1*
X1178814Y978117D1*
Y983865D1*
X1176869Y987667D1*
X1171165Y993415D1*
X1152019D2*
X1178814D1*
X1138622Y1011515D2*
X1171165D1*
X1176869Y1013416D1*
X1178814Y1017263D1*
Y1021065D1*
X1152019Y1005767D2*
Y1019164D1*
X1146316Y1033417D2*
X1144370Y1037263D1*
X1138666Y1043011D1*
X1178814D1*
X1276122Y940916D2*
X1278023Y937069D1*
X1281870Y933267D1*
X1285673Y931321D1*
X1291421Y929420D1*
X1301015D1*
X1306719Y931321D1*
X1310566Y933267D1*
X1314369Y937069D1*
X1316314Y940916D1*
Y948565D1*
X1314369Y952368D1*
X1310566Y956215D1*
X1306719Y958116D1*
X1301015Y960017D1*
X1291421D1*
X1285673Y958116D1*
X1281870Y956215D1*
X1278023Y952368D1*
X1276122Y948565D1*
Y940916D1*
X1289519Y972368D2*
X1308665D1*
X1314369Y974270D1*
X1316314Y978117D1*
Y983865D1*
X1314369Y987667D1*
X1308665Y993415D1*
X1289519D2*
X1316314D1*
X1276122Y1011515D2*
X1308665D1*
X1314369Y1013416D1*
X1316314Y1017263D1*
Y1021065D1*
X1289519Y1005767D2*
Y1019164D1*
X1285717Y1035362D2*
X1283816D1*
X1279969Y1037263D1*
X1278068Y1039165D1*
X1276166Y1043011D1*
Y1050661D1*
X1278068Y1054463D1*
X1279969Y1056364D1*
X1283816Y1058310D1*
X1287618D1*
X1291465Y1056364D1*
X1297169Y1052562D1*
X1316314Y1033417D1*
Y1060211D1*
X1023173Y958116D2*
X1019370Y956215D1*
X1015523Y952368D1*
X1013622Y948565D1*
Y940916D1*
X1015523Y937069D1*
X1019370Y933267D1*
X1023173Y931321D1*
X1028921Y929420D1*
X1038515D1*
X1044219Y931321D1*
X1048066Y933267D1*
X1051869Y937069D1*
X1053814Y940916D1*
Y948565D1*
X1051869Y952368D1*
X1048066Y956215D1*
X1044219Y958116D1*
X1027019Y980018D2*
X1028921Y976215D1*
X1032767Y972368D1*
X1038515Y970467D1*
X1042318D1*
X1048066Y972368D1*
X1051869Y976215D1*
X1053814Y980018D1*
Y985766D1*
X1051869Y989613D1*
X1048066Y993415D1*
X1042318Y995361D1*
X1038515D1*
X1032767Y993415D1*
X1028921Y989613D1*
X1027019Y985766D1*
Y980018D1*
Y1007712D2*
X1053814D1*
X1034669D2*
X1028921Y1013460D1*
X1027019Y1017307D1*
Y1023011D1*
X1028921Y1026857D1*
X1034669Y1028759D1*
X1053814D1*
X1034669D2*
X1028921Y1034507D1*
X1027019Y1038353D1*
Y1044057D1*
X1028921Y1047904D1*
X1034669Y1049849D1*
X1053814D1*
X946695Y1420641D2*
X942893Y1418740D1*
X939046Y1414893D1*
X937145Y1411091D1*
Y1403441D1*
X939046Y1399595D1*
X942893Y1395792D1*
X946695Y1393847D1*
X952443Y1391945D1*
X962038D1*
X967742Y1393847D1*
X971589Y1395792D1*
X975391Y1399595D1*
X977337Y1403441D1*
Y1411091D1*
X975391Y1414893D1*
X971589Y1418740D1*
X967742Y1420641D1*
X944838Y1432993D2*
X942893Y1436839D1*
X937189Y1442587D1*
X977337D1*
X527945Y1405792D2*
X524142Y1403891D1*
X520295Y1400044D1*
X518394Y1396241D1*
Y1388592D1*
X520295Y1384745D1*
X524142Y1380943D1*
X527945Y1378997D1*
X533693Y1377096D1*
X543287D1*
X548991Y1378997D1*
X552838Y1380943D1*
X556640Y1384745D1*
X558586Y1388592D1*
Y1396241D1*
X556640Y1400044D1*
X552838Y1403891D1*
X548991Y1405792D1*
X527989Y1420089D2*
X526087D1*
X522241Y1421990D1*
X520339Y1423891D1*
X518438Y1427738D1*
Y1435387D1*
X520339Y1439190D1*
X522241Y1441091D1*
X526087Y1443037D1*
X529890D1*
X533737Y1441091D1*
X539441Y1437289D1*
X558586Y1418143D1*
Y1444938D1*
X838701Y1827725D2*
X798509D1*
Y1804777D1*
X838701Y1767577D2*
Y1792426D1*
X798509D1*
Y1767577D1*
X819555Y1792426D2*
Y1777127D1*
X838701Y1755225D2*
X798509D1*
Y1741828D1*
X800454Y1736080D1*
X804257Y1732233D1*
X808103Y1730332D1*
X813807Y1728431D1*
X823402D1*
X829150Y1730332D1*
X832952Y1732233D1*
X836799Y1736080D1*
X838701Y1741828D1*
Y1755225D1*
X831007Y1716079D2*
X832952Y1712233D1*
X838656Y1706485D1*
X798509D1*
X944951Y1830076D2*
X904759D1*
Y1807128D1*
X944951Y1769927D2*
Y1794777D1*
X904759D1*
Y1769927D1*
X925806Y1794777D2*
Y1779478D1*
X944951Y1757576D2*
X904759D1*
Y1744179D1*
X906705Y1738431D1*
X910507Y1734584D1*
X914354Y1732683D1*
X920058Y1730781D1*
X929653D1*
X935401Y1732683D1*
X939203Y1734584D1*
X943050Y1738431D1*
X944951Y1744179D1*
Y1757576D1*
X935356Y1716485D2*
X937258D1*
X941104Y1714583D1*
X943006Y1712682D1*
X944907Y1708835D1*
Y1701186D1*
X943006Y1697383D1*
X941104Y1695482D1*
X937258Y1693537D1*
X933455D1*
X929608Y1695482D1*
X923905Y1699285D1*
X904759Y1718430D1*
Y1691635D1*
X1057451Y1830075D2*
X1017259D1*
Y1807127D1*
X1057451Y1769926D2*
Y1794775D1*
X1017259D1*
Y1769926D1*
X1038306Y1794775D2*
Y1779477D1*
X1057451Y1757575D2*
X1017259D1*
Y1744177D1*
X1019205Y1738429D1*
X1023007Y1734583D1*
X1026854Y1732681D1*
X1032558Y1730780D1*
X1042153D1*
X1047901Y1732681D1*
X1051703Y1734583D1*
X1055550Y1738429D1*
X1057451Y1744177D1*
Y1757575D1*
X1057407Y1714582D2*
Y1693580D1*
X1042108Y1705031D1*
Y1699283D1*
X1040207Y1695481D1*
X1038306Y1693580D1*
X1032558Y1691634D1*
X1028755D1*
X1023007Y1693580D1*
X1019160Y1697382D1*
X1017259Y1703130D1*
Y1708878D1*
X1019160Y1714582D1*
X1021106Y1716483D1*
X1024908Y1718429D1*
X1202677Y1460422D2*
X1200776Y1464268D1*
X1196929Y1468071D1*
X1193126Y1470016D1*
X1187378Y1471918D1*
X1177783D1*
X1172080Y1470016D1*
X1168233Y1468071D1*
X1164430Y1464268D1*
X1162485Y1460422D1*
Y1452772D1*
X1164430Y1448970D1*
X1168233Y1445123D1*
X1172080Y1443222D1*
X1177783Y1441321D1*
X1187378D1*
X1193126Y1443222D1*
X1196929Y1445123D1*
X1200776Y1448970D1*
X1202677Y1452772D1*
Y1460422D1*
X1181630Y1428969D2*
Y1411725D1*
X1183532Y1406021D1*
X1185477Y1404076D1*
X1189280Y1402174D1*
X1195028D1*
X1198830Y1404076D1*
X1200776Y1406021D1*
X1202677Y1411725D1*
Y1428969D1*
X1162485D1*
X1202677Y1376426D2*
X1162485D1*
X1202677Y1389823D2*
Y1363028D1*
X1194983Y1350677D2*
X1196929Y1346830D1*
X1202633Y1341082D1*
X1162485D1*
X1430334Y1469022D2*
X1428433Y1472868D1*
X1424586Y1476671D1*
X1420784Y1478616D1*
X1415036Y1480518D1*
X1405441D1*
X1399737Y1478616D1*
X1395890Y1476671D1*
X1392088Y1472868D1*
X1390142Y1469022D1*
Y1461372D1*
X1392088Y1457570D1*
X1395890Y1453723D1*
X1399737Y1451822D1*
X1405441Y1449920D1*
X1415036D1*
X1420784Y1451822D1*
X1424586Y1453723D1*
X1428433Y1457570D1*
X1430334Y1461372D1*
Y1469022D1*
X1409288Y1437569D2*
Y1420325D1*
X1411189Y1414621D1*
X1413134Y1412676D1*
X1416937Y1410774D1*
X1422685D1*
X1426488Y1412676D1*
X1428433Y1414621D1*
X1430334Y1420325D1*
Y1437569D1*
X1390142D1*
X1430334Y1385026D2*
X1390142D1*
X1430334Y1398423D2*
Y1371628D1*
X1420740Y1357331D2*
X1422641D1*
X1426488Y1355430D1*
X1428389Y1353529D1*
X1430290Y1349682D1*
Y1342033D1*
X1428389Y1338230D1*
X1426488Y1336329D1*
X1422641Y1334384D1*
X1418838D1*
X1414992Y1336329D1*
X1409288Y1340132D1*
X1390142Y1359277D1*
Y1332482D1*
X1300461Y1701343D2*
Y1684143D1*
X1302406Y1678395D1*
X1304307Y1676449D1*
X1308110Y1674548D1*
X1311957D1*
X1315759Y1676449D1*
X1317705Y1678395D1*
X1319606Y1684143D1*
Y1701343D1*
X1279414D1*
X1300461Y1687946D2*
X1279414Y1674548D1*
X1311913Y1662197D2*
X1313858Y1658350D1*
X1319562Y1652602D1*
X1279414D1*
X825461Y1651970D2*
Y1634770D1*
X827406Y1629022D1*
X829307Y1627077D1*
X833110Y1625176D1*
X836957D1*
X840759Y1627077D1*
X842705Y1629022D1*
X844606Y1634770D1*
Y1651970D1*
X804414D1*
X825461Y1638573D2*
X804414Y1625176D1*
X835011Y1610879D2*
X836913D1*
X840759Y1608978D1*
X842661Y1607076D1*
X844562Y1603230D1*
Y1595580D1*
X842661Y1591778D1*
X840759Y1589876D1*
X836913Y1587931D1*
X833110D1*
X829263Y1589876D1*
X823559Y1593679D1*
X804414Y1612824D1*
Y1586030D1*
X931711Y1651970D2*
Y1634770D1*
X933657Y1629022D1*
X935558Y1627077D1*
X939361Y1625176D1*
X943207D1*
X947010Y1627077D1*
X948955Y1629022D1*
X950857Y1634770D1*
Y1651970D1*
X910665D1*
X931711Y1638573D2*
X910665Y1625176D1*
X950812Y1608978D2*
Y1587975D1*
X935514Y1599427D1*
Y1593679D1*
X933613Y1589876D1*
X931711Y1587975D1*
X925963Y1586030D1*
X922161D1*
X916413Y1587975D1*
X912566Y1591778D1*
X910665Y1597526D1*
Y1603274D1*
X912566Y1608978D1*
X914511Y1610879D1*
X918314Y1612824D1*
X1537961Y1710893D2*
Y1693694D1*
X1539906Y1687946D1*
X1541807Y1686000D1*
X1545610Y1684099D1*
X1549457D1*
X1553259Y1686000D1*
X1555205Y1687946D1*
X1557106Y1693694D1*
Y1710893D1*
X1516914D1*
X1537961Y1697496D2*
X1516914Y1684099D1*
Y1652602D2*
X1557062D1*
X1530311Y1671747D1*
Y1643051D1*
X1037961Y1658221D2*
Y1641021D1*
X1039906Y1635273D1*
X1041807Y1633328D1*
X1045610Y1631426D1*
X1049457D1*
X1053259Y1633328D1*
X1055205Y1635273D1*
X1057106Y1641021D1*
Y1658221D1*
X1016914D1*
X1037961Y1644824D2*
X1016914Y1631426D1*
X1057062Y1596127D2*
Y1615228D1*
X1039862Y1617129D1*
X1041763Y1615228D1*
X1043709Y1609480D1*
Y1603776D1*
X1041763Y1598028D1*
X1037961Y1594182D1*
X1032213Y1592280D1*
X1028410D1*
X1022662Y1594182D1*
X1018815Y1598028D1*
X1016914Y1603776D1*
Y1609480D1*
X1018815Y1615228D1*
X1020761Y1617129D1*
X1024563Y1619075D1*
X541772Y1576324D2*
Y1593524D1*
X539826Y1599272D1*
X537925Y1601217D1*
X534122Y1603119D1*
X530276D1*
X526473Y1601217D1*
X524528Y1599272D1*
X522626Y1593524D1*
Y1576324D1*
X562818D1*
X541772Y1589721D2*
X562818Y1603119D1*
X528374Y1638418D2*
X524572Y1636517D1*
X522670Y1630769D1*
Y1626966D1*
X524572Y1621218D1*
X530320Y1617371D1*
X539870Y1615470D1*
X549421D1*
X557070Y1617371D1*
X560917Y1621218D1*
X562818Y1626966D1*
Y1628867D1*
X560917Y1634571D1*
X557070Y1638418D1*
X551322Y1640319D1*
X549421D1*
X543673Y1638418D1*
X539870Y1634571D1*
X537969Y1628867D1*
Y1626966D1*
X539870Y1621218D1*
X543673Y1617371D1*
X549421Y1615470D1*
X511030Y651445D2*
X528230D1*
X533978Y653390D1*
X535923Y655292D1*
X537824Y659094D1*
Y662941D1*
X535923Y666744D1*
X533978Y668689D1*
X528230Y670590D1*
X511030D1*
Y630398D1*
X524427Y651445D2*
X537824Y630398D1*
X557825D2*
X576970Y670546D1*
X550176D1*
X631289Y1123453D2*
Y1140653D1*
X629343Y1146401D1*
X627442Y1148347D1*
X623639Y1150248D1*
X619793D1*
X615990Y1148347D1*
X614045Y1146401D1*
X612143Y1140653D1*
Y1123453D1*
X652335D1*
X631289Y1136851D2*
X652335Y1150248D1*
X612188Y1172150D2*
X614089Y1166446D1*
X617891Y1164501D1*
X621738D1*
X625541Y1166446D1*
X627486Y1170249D1*
X629387Y1177898D1*
X631289Y1183646D1*
X635135Y1187449D1*
X638938Y1189350D1*
X644686D1*
X648489Y1187449D1*
X650434Y1185547D1*
X652335Y1179799D1*
Y1172150D1*
X650434Y1166446D1*
X648489Y1164501D1*
X644686Y1162599D1*
X638938D1*
X635135Y1164501D1*
X631289Y1168347D1*
X629387Y1174051D1*
X627486Y1181701D1*
X625541Y1185547D1*
X621738Y1187449D1*
X617891D1*
X614089Y1185547D1*
X612188Y1179799D1*
Y1172150D1*
X649694Y1529105D2*
Y1546305D1*
X647749Y1552053D1*
X645847Y1553998D1*
X642045Y1555900D1*
X638198D1*
X634396Y1553998D1*
X632450Y1552053D1*
X630549Y1546305D1*
Y1529105D1*
X670741D1*
X649694Y1542502D2*
X670741Y1555900D1*
X643946Y1593144D2*
X649694Y1591199D1*
X653541Y1587396D1*
X655442Y1581648D1*
Y1579747D1*
X653541Y1573999D1*
X649694Y1570196D1*
X643946Y1568251D1*
X642045D1*
X636297Y1570196D1*
X632494Y1573999D1*
X630593Y1579747D1*
Y1581648D1*
X632494Y1587396D1*
X636297Y1591199D1*
X643946Y1593144D1*
X653541D1*
X663092Y1591199D1*
X668840Y1587396D1*
X670741Y1581648D1*
Y1577846D1*
X668840Y1572098D1*
X664993Y1570196D1*
X468790Y1037655D2*
Y1054855D1*
X466845Y1060603D1*
X464943Y1062548D1*
X461141Y1064450D1*
X457294D1*
X453491Y1062548D1*
X451546Y1060603D1*
X449645Y1054855D1*
Y1037655D1*
X489837D1*
X468790Y1051052D2*
X489837Y1064450D1*
X457338Y1076801D2*
X455393Y1080648D1*
X449689Y1086396D1*
X489837D1*
X449689Y1110243D2*
X451590Y1104495D1*
X457338Y1100648D1*
X466889Y1098747D1*
X472637D1*
X482187Y1100648D1*
X487935Y1104495D1*
X489837Y1110243D1*
Y1114046D1*
X487935Y1119794D1*
X482187Y1123596D1*
X472637Y1125542D1*
X466889D1*
X457338Y1123596D1*
X451590Y1119794D1*
X449689Y1114046D1*
Y1110243D1*
X457338Y1123596D2*
X482187Y1100648D1*
X757130Y1373298D2*
Y1344602D1*
X759031Y1338854D1*
X762878Y1335051D1*
X768626Y1333106D1*
X772428D1*
X778176Y1335051D1*
X782023Y1338854D1*
X783924Y1344602D1*
Y1373298D1*
X796276Y1365604D2*
X800122Y1367550D1*
X805870Y1373253D1*
Y1333106D1*
M02*
