M48
INCH
T01C0.0191
T02C0.0354
T03C0.0512
T04C0.063
T05C0.1378
%
T01
X+002750Y+014688
X+002375Y+014312
X+005140Y+014688
X+009750Y+014312
T02
X+000799Y+015748
X+001799Y+015748
X+002799Y+015748
X+003799Y+015748
X+004799Y+015748
X+005799Y+015748
X+006799Y+015748
X+007799Y+015748
X+008799Y+015748
X+009799Y+015748
X+010799Y+015748
X+011799Y+015748
T03
X+005537Y+011545
X+007900Y+010758
X+003175Y+010758
X+003175Y+005955
X+007900Y+005955
T04
X+003662Y+001625
X+005631Y+001625
X+007599Y+001625
T05
X+011220Y+004331
T00
M30
