M48
INCH
T01C0.0191
T02C0.0354
T03C0.0472
T04C0.1378
%
T01
X+004437Y+014625
X+006375Y+010410
X+007687Y+010473
X+009687Y+010437
X+010999Y+010437
X+011937Y+015499
X+010437Y+016749
X+009874Y+018312
X+009437Y+018687
X+008937Y+017937
T02
X+004736Y+019685
X+005736Y+019685
X+006736Y+019685
X+007736Y+019685
X+008736Y+019685
X+009736Y+019685
X+010736Y+019685
X+011736Y+019685
X+012736Y+019685
X+013736Y+019685
X+014736Y+019685
X+015736Y+019685
T03
X+006594Y+007874
X+007972Y+007874
X+009350Y+007874
X+010728Y+007874
X+012106Y+007874
T04
X+015157Y+008268
T00
M30
