G04 DipTrace 4.0.0.2*
G04 TopMask.gbr*
%MOIN*%
G04 #@! TF.FileFunction,Soldermask,Top*
G04 #@! TF.Part,Single*
%ADD31C,0.137795*%
%ADD37R,0.031502X0.08662*%
%ADD39C,0.094494*%
%ADD41R,0.094494X0.094494*%
%ADD43R,0.04725X0.051187*%
%ADD45R,0.051187X0.04725*%
%ADD47C,0.066935*%
%ADD49R,0.066935X0.066935*%
%ADD51R,0.055124X0.055124*%
%ADD53R,0.066935X0.059061*%
%FSLAX26Y26*%
G04*
G70*
G90*
G75*
G01*
G04 TopMask*
%LPD*%
D53*
X1193700Y1431298D3*
Y1506102D3*
D51*
X662449Y1166288D3*
Y1083611D3*
X793700Y1172539D3*
Y1089861D3*
X937451Y1166288D3*
Y1083611D3*
X1074949Y1166288D3*
Y1083611D3*
D49*
X473616Y1968503D3*
D47*
X573616D3*
X673616D3*
X773616D3*
X873616D3*
X973616D3*
X1073616D3*
X1173616D3*
X1273607D3*
X1373607D3*
X1473607D3*
X1573607D3*
D31*
X1515747Y826771D3*
D45*
X728986Y1231199D3*
X795915Y1231201D3*
D43*
X556201Y1091485D3*
X556199Y1158414D3*
D45*
X1008414Y1237452D3*
X941485Y1237449D3*
D43*
X1162450Y1091485D3*
X1162448Y1158414D3*
D41*
X659448Y787401D3*
D39*
X797243D3*
X935039D3*
X1072834D3*
X1210629D3*
D37*
X1093700Y1728739D3*
X1043700D3*
X993700D3*
X943700D3*
X893700D3*
X843700D3*
X793700D3*
X743700D3*
X693700D3*
X643700D3*
Y1358661D3*
X693700D3*
X743700D3*
X793700D3*
X843700D3*
X893700D3*
X943700D3*
X993700D3*
X1043700D3*
X1093700D3*
D45*
X545915Y1656200D3*
X478986D3*
X545915Y1587451D3*
X478986D3*
X545915Y1524951D3*
X478986D3*
X545915Y1462451D3*
X478986D3*
M02*
