G04 DipTrace 4.0.0.2*
G04 TopSilk.gbr*
%MOIN*%
G04 #@! TF.FileFunction,Legend,Top*
G04 #@! TF.Part,Single*
%ADD10C,0.009843*%
%ADD20C,0.005906*%
%ADD55C,0.006176*%
%ADD56C,0.009264*%
%FSLAX26Y26*%
G04*
G70*
G90*
G75*
G01*
G04 TopSilk*
%LPD*%
X1219271Y1389939D2*
D10*
X1168129D1*
G36*
X662449Y1112449D2*
X681200Y1137449D1*
X643699D1*
D1*
X662449Y1112449D1*
G37*
X681200D2*
D20*
X643699D1*
X681200Y1056199D2*
X643699D1*
G36*
X793700Y1118700D2*
X812451Y1143700D1*
X774949D1*
D1*
X793700Y1118700D1*
G37*
X812451D2*
D20*
X774949D1*
X812451Y1062449D2*
X774949D1*
G36*
X937451Y1112449D2*
X956201Y1137449D1*
X918700D1*
D1*
X937451Y1112449D1*
G37*
X956201D2*
D20*
X918700D1*
X956201Y1056199D2*
X918700D1*
G36*
X1074949Y1112449D2*
X1093700Y1137449D1*
X1056199D1*
D1*
X1074949Y1112449D1*
G37*
X1093700D2*
D20*
X1056199D1*
X1093700Y1056199D2*
X1056199D1*
X393700Y2047243D2*
D10*
Y393700D1*
X1653543D1*
Y2047243D1*
X393700D1*
X590550Y842495D2*
Y728346D1*
X1279527D1*
Y842495D1*
X590550D1*
Y948818D2*
Y397637D1*
X1279527D1*
Y948818D1*
X590550D1*
X1120645Y1671658D2*
X616755D1*
X1120645Y1419691D2*
X616755D1*
Y1671658D2*
Y1419691D1*
X1120645Y1671658D2*
Y1577182D1*
Y1514167D2*
Y1419691D1*
Y1577182D2*
G03X1120645Y1514167I65J-31507D01*
G01*
X1395172Y1171336D2*
D56*
Y1142685D1*
X1420972Y1139833D1*
X1418120Y1142685D1*
X1415202Y1151307D1*
Y1159862D1*
X1418120Y1168484D1*
X1423824Y1174255D1*
X1432446Y1177106D1*
X1438149D1*
X1446772Y1174255D1*
X1452542Y1168484D1*
X1455394Y1159862D1*
Y1151307D1*
X1452542Y1142685D1*
X1449623Y1139833D1*
X1443920Y1136914D1*
X1395106Y1195634D2*
X1455394Y1218581D1*
X1395106Y1241529D1*
Y1335622D2*
X1397957Y1329852D1*
X1403728Y1324148D1*
X1409431Y1321230D1*
X1418053Y1318378D1*
X1432446D1*
X1441001Y1321230D1*
X1446772Y1324148D1*
X1452475Y1329852D1*
X1455394Y1335622D1*
Y1347096D1*
X1452475Y1352799D1*
X1446772Y1358570D1*
X1441001Y1361422D1*
X1432446Y1364273D1*
X1418053D1*
X1409431Y1361422D1*
X1403728Y1358570D1*
X1397957Y1352799D1*
X1395106Y1347096D1*
Y1335622D1*
X1415202Y1382801D2*
X1443920D1*
X1452475Y1385652D1*
X1455394Y1391423D1*
Y1400045D1*
X1452475Y1405748D1*
X1443920Y1414371D1*
X1415202D2*
X1455394D1*
X1395106Y1441520D2*
X1443920D1*
X1452475Y1444372D1*
X1455394Y1450142D1*
Y1455846D1*
X1415202Y1432898D2*
Y1452994D1*
Y1474373D2*
X1475490D1*
X1423824D2*
X1418120Y1480143D1*
X1415202Y1485847D1*
Y1494469D1*
X1418120Y1500239D1*
X1423824Y1505943D1*
X1432446Y1508861D1*
X1438216D1*
X1446772Y1505943D1*
X1452542Y1500239D1*
X1455394Y1494469D1*
Y1485847D1*
X1452542Y1480143D1*
X1446772Y1474373D1*
X1415202Y1527388D2*
X1443920D1*
X1452475Y1530240D1*
X1455394Y1536010D1*
Y1544632D1*
X1452475Y1550336D1*
X1443920Y1558958D1*
X1415202D2*
X1455394D1*
X1395106Y1586107D2*
X1443920D1*
X1452475Y1588959D1*
X1455394Y1594729D1*
Y1600433D1*
X1415202Y1577485D2*
Y1597581D1*
X1395106Y1677281D2*
X1455394Y1700229D1*
X1395106Y1723177D1*
X1406646Y1741704D2*
X1403728Y1747474D1*
X1395172Y1756096D1*
X1455394D1*
X1449623Y1777475D2*
X1452542Y1774623D1*
X1455394Y1777475D1*
X1452542Y1780393D1*
X1449623Y1777475D1*
X1406646Y1798921D2*
X1403728Y1804691D1*
X1395172Y1813313D1*
X1455394D1*
X1509495Y1305984D2*
Y1297362D1*
X1512347Y1291659D1*
X1515199Y1288740D1*
X1520969Y1285888D1*
X1532443D1*
X1535295Y1288740D1*
Y1294510D1*
X1532443Y1305984D1*
X1538147Y1308836D1*
Y1311688D1*
X1532443Y1317458D1*
X1518117Y1320310D1*
X1509495Y1317458D1*
X1503725Y1314606D1*
X1498021Y1308836D1*
X1495169Y1303133D1*
Y1291659D1*
X1498021Y1285888D1*
X1503725Y1280185D1*
X1509495Y1277266D1*
X1518117Y1274414D1*
X1532443D1*
X1541065Y1277266D1*
X1546769Y1280185D1*
X1552539Y1285888D1*
X1555391Y1291659D1*
Y1303133D1*
X1552539Y1308836D1*
X1546769Y1314606D1*
X1506643Y1305984D2*
X1532443D1*
X1495103Y1338837D2*
X1555391D1*
X1523821D2*
X1518051Y1344608D1*
X1515199Y1350311D1*
Y1358933D1*
X1518051Y1364637D1*
X1523821Y1370407D1*
X1532443Y1373259D1*
X1538147D1*
X1546769Y1370407D1*
X1552473Y1364637D1*
X1555391Y1358933D1*
Y1350311D1*
X1552473Y1344608D1*
X1546769Y1338837D1*
X1515199Y1391786D2*
X1543917D1*
X1552473Y1394638D1*
X1555391Y1400408D1*
Y1409030D1*
X1552473Y1414734D1*
X1543917Y1423356D1*
X1515199D2*
X1555391D1*
X1495103Y1441883D2*
X1497955Y1444735D1*
X1495103Y1447654D1*
X1492185Y1444735D1*
X1495103Y1441883D1*
X1515199Y1444735D2*
X1555391D1*
X1495103Y1466181D2*
X1555391D1*
X1495103Y1519130D2*
X1555391D1*
X1523821D2*
X1518051Y1513426D1*
X1515199Y1507656D1*
Y1499034D1*
X1518051Y1493330D1*
X1523821Y1487560D1*
X1532443Y1484708D1*
X1538147D1*
X1546769Y1487560D1*
X1552473Y1493330D1*
X1555391Y1499034D1*
Y1507656D1*
X1552473Y1513426D1*
X1546769Y1519130D1*
X1495103Y1537657D2*
X1555391D1*
X1515199Y1570510D2*
X1518051Y1564806D1*
X1523821Y1559036D1*
X1532443Y1556184D1*
X1538147D1*
X1546769Y1559036D1*
X1552473Y1564806D1*
X1555391Y1570510D1*
Y1579132D1*
X1552473Y1584902D1*
X1546769Y1590606D1*
X1538147Y1593524D1*
X1532443D1*
X1523821Y1590606D1*
X1518051Y1584902D1*
X1515199Y1579132D1*
Y1570510D1*
X1518051Y1646473D2*
X1564013D1*
X1572569Y1643621D1*
X1575487Y1640769D1*
X1578339Y1634999D1*
Y1626377D1*
X1575487Y1620673D1*
X1526673Y1646473D2*
X1520969Y1640769D1*
X1518051Y1634999D1*
Y1626377D1*
X1520969Y1620673D1*
X1526673Y1614903D1*
X1535295Y1612051D1*
X1541065D1*
X1549621Y1614903D1*
X1555391Y1620673D1*
X1558243Y1626377D1*
Y1634999D1*
X1555391Y1640769D1*
X1549621Y1646473D1*
X1562243Y1915757D2*
D55*
X1558440Y1913855D1*
X1554593Y1910009D1*
X1552692Y1906206D1*
Y1898557D1*
X1554593Y1894710D1*
X1558440Y1890908D1*
X1562243Y1888962D1*
X1567991Y1887061D1*
X1577586D1*
X1583289Y1888962D1*
X1587136Y1890908D1*
X1590939Y1894710D1*
X1592884Y1898557D1*
Y1906206D1*
X1590939Y1910009D1*
X1587136Y1913855D1*
X1583289Y1915757D1*
X1577586D1*
Y1906206D1*
X646536Y1864112D2*
Y1845011D1*
X663735Y1843110D1*
X661834Y1845011D1*
X659889Y1850759D1*
Y1856463D1*
X661834Y1862211D1*
X665637Y1866058D1*
X671385Y1867959D1*
X675187D1*
X680935Y1866058D1*
X684782Y1862211D1*
X686683Y1856463D1*
Y1850759D1*
X684782Y1845011D1*
X682837Y1843110D1*
X679034Y1841164D1*
X659889Y1880311D2*
X686683Y1891807D1*
X659889Y1903258D1*
X468542Y1903257D2*
X464739Y1901355D1*
X460893Y1897509D1*
X458991Y1893706D1*
Y1886057D1*
X460893Y1882210D1*
X464739Y1878408D1*
X468542Y1876462D1*
X474290Y1874561D1*
X483885D1*
X489589Y1876462D1*
X493435Y1878408D1*
X497238Y1882210D1*
X499183Y1886057D1*
Y1893706D1*
X497238Y1897509D1*
X493435Y1901355D1*
X489589Y1903257D1*
X483885D1*
Y1893706D1*
X766685Y1881162D2*
X764739Y1885009D1*
X759036Y1890757D1*
X799183D1*
X862337Y1878408D2*
X860436D1*
X856589Y1880309D1*
X854688Y1882210D1*
X852786Y1886057D1*
Y1893706D1*
X854688Y1897509D1*
X856589Y1899410D1*
X860436Y1901356D1*
X864238D1*
X868085Y1899410D1*
X873789Y1895608D1*
X892934Y1876462D1*
Y1903257D1*
X959036Y1880309D2*
Y1901312D1*
X974334Y1889860D1*
Y1895608D1*
X976235Y1899410D1*
X978137Y1901312D1*
X983885Y1903257D1*
X987687D1*
X993435Y1901312D1*
X997282Y1897509D1*
X999183Y1891761D1*
Y1886013D1*
X997282Y1880309D1*
X995337Y1878408D1*
X991534Y1876462D1*
X1099183Y1893706D2*
X1059036D1*
X1085786Y1874561D1*
Y1903257D1*
X552742Y1820661D2*
X592934Y1835959D1*
X552742Y1851258D1*
Y1863609D2*
X592934D1*
X566139Y1875961D2*
X592934D1*
X573789D2*
X568041Y1881709D1*
X566139Y1885555D1*
Y1891259D1*
X568041Y1895106D1*
X573789Y1897007D1*
X592934D1*
X631646Y977519D2*
D56*
X628728Y983290D1*
X620172Y991912D1*
X680394D1*
X771998Y974187D2*
X769146D1*
X763376Y977039D1*
X760524Y979891D1*
X757672Y985661D1*
Y997135D1*
X760524Y1002839D1*
X763376Y1005691D1*
X769146Y1008609D1*
X774850D1*
X780620Y1005691D1*
X789176Y999987D1*
X817894Y971269D1*
Y1011461D1*
X895172Y977039D2*
Y1008543D1*
X918120Y991365D1*
Y999987D1*
X920972Y1005691D1*
X923824Y1008543D1*
X932446Y1011461D1*
X938149D1*
X946772Y1008543D1*
X952542Y1002839D1*
X955394Y994217D1*
Y985595D1*
X952542Y977039D1*
X949623Y974187D1*
X943920Y971269D1*
X1099144Y999987D2*
X1038923D1*
X1079048Y971269D1*
Y1014313D1*
X1190682Y1008063D2*
X1184978Y1005211D1*
X1179208Y999441D1*
X1176356Y993737D1*
Y982264D1*
X1179208Y976493D1*
X1184978Y970790D1*
X1190682Y967871D1*
X1199304Y965019D1*
X1213696D1*
X1222252Y967871D1*
X1228022Y970790D1*
X1233726Y976493D1*
X1236644Y982264D1*
Y993737D1*
X1233726Y999441D1*
X1228022Y1005211D1*
X1222252Y1008063D1*
X1213696D1*
Y993737D1*
X1246395Y1475290D2*
D55*
X1242593Y1473389D1*
X1238746Y1469542D1*
X1236845Y1465740D1*
Y1458091D1*
X1238746Y1454244D1*
X1242593Y1450441D1*
X1246395Y1448496D1*
X1252143Y1446594D1*
X1261738D1*
X1267442Y1448496D1*
X1271289Y1450441D1*
X1275091Y1454244D1*
X1277037Y1458091D1*
Y1465740D1*
X1275091Y1469542D1*
X1271289Y1473389D1*
X1267442Y1475290D1*
X1250242Y1512535D2*
X1255990Y1510590D1*
X1259837Y1506787D1*
X1261738Y1501039D1*
Y1499138D1*
X1259837Y1493390D1*
X1255990Y1489587D1*
X1250242Y1487642D1*
X1248341D1*
X1242593Y1489587D1*
X1238790Y1493390D1*
X1236889Y1499138D1*
Y1501039D1*
X1238790Y1506787D1*
X1242593Y1510590D1*
X1250242Y1512535D1*
X1259837D1*
X1269387Y1510590D1*
X1275135Y1506787D1*
X1277037Y1501039D1*
Y1497237D1*
X1275135Y1491489D1*
X1271289Y1489587D1*
X589993Y1068683D2*
X630185D1*
Y1091631D1*
X589993Y1128832D2*
Y1103983D1*
X630185D1*
Y1128832D1*
X609138Y1103983D2*
Y1119281D1*
X589993Y1141183D2*
X630185D1*
Y1154581D1*
X628239Y1160329D1*
X624437Y1164175D1*
X620590Y1166077D1*
X614886Y1167978D1*
X605292D1*
X599544Y1166077D1*
X595741Y1164175D1*
X591894Y1160329D1*
X589993Y1154581D1*
Y1141183D1*
X597686Y1180329D2*
X595741Y1184176D1*
X590037Y1189924D1*
X630185D1*
X714994Y1060085D2*
X755186D1*
Y1083033D1*
X714994Y1120233D2*
Y1095384D1*
X755186D1*
Y1120233D1*
X734140Y1095384D2*
Y1110683D1*
X714994Y1132585D2*
X755186D1*
Y1145982D1*
X753241Y1151730D1*
X749438Y1155577D1*
X745591Y1157478D1*
X739888Y1159379D1*
X730293D1*
X724545Y1157478D1*
X720742Y1155577D1*
X716896Y1151730D1*
X714994Y1145982D1*
Y1132585D1*
X724589Y1173676D2*
X722688D1*
X718841Y1175577D1*
X716940Y1177479D1*
X715038Y1181325D1*
Y1188975D1*
X716940Y1192777D1*
X718841Y1194679D1*
X722688Y1196624D1*
X726490D1*
X730337Y1194679D1*
X736041Y1190876D1*
X755186Y1171731D1*
Y1198525D1*
X864994Y1053834D2*
X905186D1*
Y1076782D1*
X864994Y1113983D2*
Y1089133D1*
X905186D1*
Y1113983D1*
X884140Y1089133D2*
Y1104432D1*
X864994Y1126334D2*
X905186D1*
Y1139731D1*
X903241Y1145479D1*
X899438Y1149326D1*
X895591Y1151227D1*
X889888Y1153129D1*
X880293D1*
X874545Y1151227D1*
X870742Y1149326D1*
X866896Y1145479D1*
X864994Y1139731D1*
Y1126334D1*
X865038Y1169327D2*
Y1190329D1*
X880337Y1178877D1*
Y1184625D1*
X882238Y1188428D1*
X884140Y1190329D1*
X889888Y1192275D1*
X893690D1*
X899438Y1190329D1*
X903285Y1186527D1*
X905186Y1180779D1*
Y1175031D1*
X903285Y1169327D1*
X901339Y1167425D1*
X897537Y1165480D1*
X1002493Y1052883D2*
X1042685D1*
Y1075831D1*
X1002493Y1113032D2*
Y1088183D1*
X1042685D1*
Y1113032D1*
X1021638Y1088183D2*
Y1103481D1*
X1002493Y1125383D2*
X1042685D1*
Y1138781D1*
X1040739Y1144529D1*
X1036937Y1148375D1*
X1033090Y1150277D1*
X1027386Y1152178D1*
X1017792D1*
X1012044Y1150277D1*
X1008241Y1148375D1*
X1004394Y1144529D1*
X1002493Y1138781D1*
Y1125383D1*
X1042685Y1183675D2*
X1002537D1*
X1029288Y1164529D1*
Y1193225D1*
X729477Y1284067D2*
X746677D1*
X752425Y1286013D1*
X754371Y1287914D1*
X756272Y1291717D1*
Y1295563D1*
X754370Y1299366D1*
X752425Y1301311D1*
X746677Y1303212D1*
X729477D1*
X729478Y1263020D1*
X742875Y1284067D2*
X756273Y1263021D1*
X770569Y1293618D2*
Y1295520D1*
X772470Y1299366D1*
X774371Y1301268D1*
X778218Y1303169D1*
X785867D1*
X789670Y1301268D1*
X791571Y1299367D1*
X793517Y1295520D1*
Y1291718D1*
X791571Y1287871D1*
X787769Y1282167D1*
X768624Y1263021D1*
X795419Y1263022D1*
X503333Y1106827D2*
Y1124027D1*
X501387Y1129775D1*
X499486Y1131721D1*
X495683Y1133622D1*
X491836D1*
X488034Y1131720D1*
X486088Y1129775D1*
X484187Y1124027D1*
Y1106827D1*
X524379Y1106828D1*
X503333Y1120225D2*
X524379Y1133622D1*
X491880Y1145973D2*
X489935Y1149820D1*
X484231Y1155568D1*
X524379Y1155569D1*
X941977Y1288447D2*
X959177D1*
X964925Y1290393D1*
X966870Y1292295D1*
X968771Y1296097D1*
Y1299944D1*
X966870Y1303746D1*
X964924Y1305692D1*
X959176Y1307593D1*
X941976Y1307592D1*
X941978Y1267400D1*
X955374Y1288447D2*
X968773Y1267401D1*
X984969Y1307550D2*
X1005972D1*
X994520Y1292251D1*
X1000268Y1292252D1*
X1004071Y1290350D1*
X1005972Y1288449D1*
X1007918Y1282701D1*
Y1278899D1*
X1005973Y1273151D1*
X1002171Y1269304D1*
X996423Y1267402D1*
X990675D1*
X984971Y1269303D1*
X983069Y1271248D1*
X981124Y1275051D1*
X1209581Y1097275D2*
Y1114475D1*
X1207635Y1120223D1*
X1205734Y1122169D1*
X1201931Y1124070D1*
X1198085D1*
X1194282Y1122168D1*
X1192337Y1120223D1*
X1190436Y1114475D1*
Y1097275D1*
X1230628Y1097276D1*
X1209581Y1110673D2*
X1230627Y1124071D1*
X1230626Y1155567D2*
X1190478Y1155566D1*
X1217229Y1136422D1*
Y1165118D1*
X904492Y644897D2*
Y604705D1*
X891095Y644897D2*
X917890D1*
X930241D2*
Y604705D1*
X947485D1*
X953233Y606650D1*
X955135Y608551D1*
X957036Y612354D1*
Y618102D1*
X955135Y621949D1*
X953233Y623850D1*
X947485Y625751D1*
X953233Y627697D1*
X955135Y629598D1*
X957036Y633401D1*
Y637247D1*
X955135Y641050D1*
X953233Y642995D1*
X947485Y644897D1*
X930241D1*
Y625751D2*
X947485D1*
X969387Y637203D2*
X973234Y639149D1*
X978982Y644852D1*
Y604705D1*
X1149566Y1598230D2*
X1178262D1*
X1184010Y1600131D1*
X1187813Y1603978D1*
X1189758Y1609726D1*
Y1613528D1*
X1187813Y1619276D1*
X1184010Y1623123D1*
X1178262Y1625024D1*
X1149566D1*
X1149611Y1660324D2*
Y1641222D1*
X1166811Y1639321D1*
X1164909Y1641222D1*
X1162964Y1646970D1*
Y1652674D1*
X1164909Y1658422D1*
X1168712Y1662269D1*
X1174460Y1664170D1*
X1178262D1*
X1184010Y1662269D1*
X1187857Y1658422D1*
X1189758Y1652674D1*
Y1646970D1*
X1187857Y1641222D1*
X1185912Y1639321D1*
X1182109Y1637376D1*
X485731Y1707197D2*
X502931D1*
X508679Y1709143D1*
X510624Y1711044D1*
X512526Y1714847D1*
Y1718693D1*
X510624Y1722496D1*
X508679Y1724441D1*
X502931Y1726343D1*
X485731D1*
Y1686151D1*
X499128Y1707197D2*
X512526Y1686151D1*
X532526D2*
X551672Y1726299D1*
X524877D1*
X635753Y1588449D2*
X652953D1*
X658701Y1590395D1*
X660646Y1592296D1*
X662548Y1596099D1*
Y1599945D1*
X660646Y1603748D1*
X658701Y1605693D1*
X652953Y1607595D1*
X635753D1*
Y1567403D1*
X649150Y1588449D2*
X662548Y1567403D1*
X684450Y1607551D2*
X678746Y1605649D1*
X676800Y1601847D1*
Y1598000D1*
X678746Y1594197D1*
X682548Y1592252D1*
X690198Y1590351D1*
X695946Y1588449D1*
X699748Y1584603D1*
X701650Y1580800D1*
Y1575052D1*
X699748Y1571249D1*
X697847Y1569304D1*
X692099Y1567403D1*
X684450D1*
X678746Y1569304D1*
X676800Y1571249D1*
X674899Y1575052D1*
Y1580800D1*
X676800Y1584603D1*
X680647Y1588449D1*
X686351Y1590351D1*
X694000Y1592252D1*
X697847Y1594197D1*
X699748Y1598000D1*
Y1601847D1*
X697847Y1605649D1*
X692099Y1607551D1*
X684450D1*
X636682Y1525949D2*
X653881D1*
X659629Y1527895D1*
X661575Y1529796D1*
X663476Y1533599D1*
Y1537445D1*
X661575Y1541248D1*
X659629Y1543193D1*
X653881Y1545095D1*
X636682D1*
Y1504903D1*
X650079Y1525949D2*
X663476Y1504903D1*
X700721Y1531697D2*
X698776Y1525949D1*
X694973Y1522103D1*
X689225Y1520201D1*
X687324D1*
X681576Y1522103D1*
X677773Y1525949D1*
X675828Y1531697D1*
Y1533599D1*
X677773Y1539347D1*
X681576Y1543149D1*
X687324Y1545051D1*
X689225D1*
X694973Y1543149D1*
X698776Y1539347D1*
X700721Y1531697D1*
Y1522103D1*
X698776Y1512552D1*
X694973Y1506804D1*
X689225Y1504903D1*
X685422D1*
X679674Y1506804D1*
X677773Y1510651D1*
X474758Y1413449D2*
X491958D1*
X497706Y1415395D1*
X499651Y1417296D1*
X501553Y1421099D1*
Y1424945D1*
X499651Y1428748D1*
X497706Y1430693D1*
X491958Y1432595D1*
X474758D1*
Y1392403D1*
X488155Y1413449D2*
X501553Y1392403D1*
X513904Y1424901D2*
X517751Y1426847D1*
X523499Y1432551D1*
Y1392403D1*
X547346Y1432551D2*
X541598Y1430649D1*
X537751Y1424901D1*
X535850Y1415351D1*
Y1409603D1*
X537751Y1400052D1*
X541598Y1394304D1*
X547346Y1392403D1*
X551149D1*
X556897Y1394304D1*
X560699Y1400052D1*
X562645Y1409603D1*
Y1415351D1*
X560699Y1424901D1*
X556897Y1430649D1*
X551149Y1432551D1*
X547346D1*
X560699Y1424901D2*
X537751Y1400052D1*
M02*
