G04 DipTrace 4.0.0.2*
G04 Bottom.gbr*
%MOIN*%
G04 #@! TF.FileFunction,Copper,L2,Bot*
G04 #@! TF.Part,Single*
G04 #@! TA.AperFunction,Conductor*
%ADD14C,0.02*%
G04 #@! TA.AperFunction,CopperBalancing*
%ADD15C,0.025*%
G04 #@! TA.AperFunction,ComponentPad*
%ADD17R,0.059055X0.059055*%
%ADD18C,0.059055*%
%ADD19R,0.059X0.059*%
%ADD20C,0.059*%
%FSLAX26Y26*%
G04*
G70*
G90*
G75*
G01*
G04 Bottom*
%LPD*%
X818700Y643700D2*
D14*
X843700D1*
X943700Y543700D1*
X514207Y1131331D2*
D15*
X874327D1*
X514207Y1106462D2*
X884304D1*
X514207Y1081594D2*
X913514D1*
X512951Y1056725D2*
X953704D1*
X513166Y1031856D2*
X953704D1*
X503441Y1006987D2*
X916313D1*
X502293Y982119D2*
X885092D1*
X512843Y957250D2*
X874579D1*
X513237Y932381D2*
X874149D1*
X503764Y907512D2*
X883621D1*
X501934Y882644D2*
X885452D1*
X512735Y857775D2*
X874687D1*
X513344Y832906D2*
X874077D1*
X504087Y808037D2*
X883298D1*
X501575Y783169D2*
X885810D1*
X512628Y758300D2*
X874794D1*
X513417Y733431D2*
X873969D1*
X504410Y708562D2*
X795705D1*
X841721D2*
X882976D1*
X501180Y683693D2*
X761186D1*
X512483Y658825D2*
X749881D1*
X513489Y633956D2*
X748877D1*
X504733Y609087D2*
X757632D1*
X500821Y584218D2*
X761544D1*
X512376Y559350D2*
X749989D1*
X513561Y534481D2*
X748805D1*
X505056Y509612D2*
X757346D1*
X500427Y484743D2*
X782249D1*
X855142D2*
X907305D1*
X512233Y459875D2*
X953704D1*
X513632Y435006D2*
X953704D1*
X881209Y516928D2*
X876703Y508155D1*
X870428Y499520D1*
X862880Y491972D1*
X854245Y485697D1*
X844733Y480851D1*
X834581Y477552D1*
X824037Y475882D1*
X813363D1*
X802819Y477552D1*
X792667Y480851D1*
X783155Y485697D1*
X774520Y491972D1*
X766972Y499520D1*
X760697Y508155D1*
X755851Y517667D1*
X752552Y527819D1*
X750882Y538363D1*
Y549037D1*
X752552Y559581D1*
X755851Y569733D1*
X760697Y579245D1*
X766972Y587880D1*
X772604Y593658D1*
X766972Y599520D1*
X760697Y608155D1*
X755851Y617667D1*
X752552Y627819D1*
X750882Y638363D1*
Y649037D1*
X752552Y659581D1*
X755851Y669733D1*
X760697Y679245D1*
X766972Y687880D1*
X774520Y695428D1*
X783155Y701703D1*
X792667Y706549D1*
X802819Y709848D1*
X813363Y711518D1*
X824037D1*
X834581Y709848D1*
X844733Y706549D1*
X854245Y701703D1*
X862880Y695428D1*
X870428Y687880D1*
X876713Y679226D1*
X882560Y673430D1*
X885721Y679230D1*
X891993Y687863D1*
X897654Y693666D1*
X891993Y699537D1*
X885721Y708170D1*
X880876Y717678D1*
X877579Y727826D1*
X875910Y738365D1*
Y749035D1*
X877579Y759574D1*
X880876Y769722D1*
X885721Y779230D1*
X891993Y787863D1*
X897654Y793666D1*
X891993Y799537D1*
X885721Y808170D1*
X880876Y817678D1*
X877579Y827826D1*
X875910Y838365D1*
Y849035D1*
X877579Y859574D1*
X880876Y869722D1*
X885721Y879230D1*
X891993Y887863D1*
X897654Y893666D1*
X891993Y899537D1*
X885721Y908170D1*
X880876Y917678D1*
X877579Y927826D1*
X875910Y938365D1*
Y949035D1*
X877579Y959574D1*
X880876Y969722D1*
X885721Y979230D1*
X891993Y987863D1*
X899537Y995407D1*
X908170Y1001679D1*
X917678Y1006524D1*
X927826Y1009821D1*
X938365Y1011490D1*
X949035D1*
X956199Y1010493D1*
X956200Y1076884D1*
X949035Y1075910D1*
X938365D1*
X927826Y1077579D1*
X917678Y1080876D1*
X908170Y1085721D1*
X899537Y1091993D1*
X891993Y1099537D1*
X885721Y1108170D1*
X880876Y1117678D1*
X877579Y1127826D1*
X875910Y1138365D1*
Y1149035D1*
X876856Y1156200D1*
X511734D1*
X511700Y1075700D1*
X503697D1*
X506524Y1069722D1*
X509821Y1059574D1*
X511490Y1049035D1*
Y1038365D1*
X509821Y1027826D1*
X506524Y1017678D1*
X501679Y1008170D1*
X495407Y999537D1*
X489746Y993734D1*
X495407Y987863D1*
X501679Y979230D1*
X506524Y969722D1*
X509821Y959574D1*
X511490Y949035D1*
Y938365D1*
X509821Y927826D1*
X506524Y917678D1*
X501679Y908170D1*
X495407Y899537D1*
X489746Y893734D1*
X495407Y887863D1*
X501679Y879230D1*
X506524Y869722D1*
X509821Y859574D1*
X511490Y849035D1*
Y838365D1*
X509821Y827826D1*
X506524Y817678D1*
X501679Y808170D1*
X495407Y799537D1*
X489746Y793734D1*
X495407Y787863D1*
X501679Y779230D1*
X506524Y769722D1*
X509821Y759574D1*
X511490Y749035D1*
Y738365D1*
X509821Y727826D1*
X506524Y717678D1*
X501679Y708170D1*
X495407Y699537D1*
X489746Y693734D1*
X495407Y687863D1*
X501679Y679230D1*
X506524Y669722D1*
X509821Y659574D1*
X511490Y649035D1*
Y638365D1*
X509821Y627826D1*
X506524Y617678D1*
X501679Y608170D1*
X495407Y599537D1*
X489746Y593734D1*
X495407Y587863D1*
X501679Y579230D1*
X506524Y569722D1*
X509821Y559574D1*
X511490Y549035D1*
Y538365D1*
X509821Y527826D1*
X506524Y517678D1*
X501679Y508170D1*
X495407Y499537D1*
X489746Y493734D1*
X495407Y487863D1*
X501679Y479230D1*
X506524Y469722D1*
X509821Y459574D1*
X511490Y449035D1*
Y438365D1*
X510544Y431200D1*
X956190D1*
X956200Y476829D1*
X949035Y475910D1*
X938365D1*
X927826Y477579D1*
X917678Y480876D1*
X908170Y485721D1*
X899537Y491993D1*
X891993Y499537D1*
X885721Y508170D1*
X881234Y516901D1*
D17*
X818700Y443700D3*
D18*
Y543700D3*
Y643700D3*
D19*
X443700Y1143700D3*
D20*
Y1043700D3*
Y943700D3*
Y843700D3*
Y743700D3*
Y643700D3*
Y543700D3*
Y443700D3*
X943700D3*
Y543700D3*
Y643700D3*
Y743700D3*
Y843700D3*
Y943700D3*
Y1043700D3*
Y1143700D3*
M02*
