G04 DipTrace 4.0.0.2*
G04 1 - Top.gbr*
%MOIN*%
G04 #@! TF.FileFunction,Copper,L1,Top*
G04 #@! TF.Part,Single*
%AMOUTLINE0*
4,1,28,
0.052559,-0.031496,
-0.052559,-0.031496,
-0.055005,-0.031174,
-0.057283,-0.03023,
-0.05924,-0.028729,
-0.060742,-0.026772,
-0.061686,-0.024493,
-0.062008,-0.022047,
-0.062008,0.022047,
-0.061686,0.024493,
-0.060742,0.026772,
-0.05924,0.028729,
-0.057283,0.03023,
-0.055005,0.031174,
-0.052559,0.031496,
0.052559,0.031496,
0.055005,0.031174,
0.057283,0.03023,
0.05924,0.028729,
0.060742,0.026772,
0.061686,0.024493,
0.062008,0.022047,
0.062008,-0.022047,
0.061686,-0.024493,
0.060742,-0.026772,
0.05924,-0.028729,
0.057283,-0.03023,
0.055005,-0.031174,
0.052559,-0.031496,
0*%
G04 #@! TA.AperFunction,Conductor*
%ADD14C,0.0256*%
G04 #@! TA.AperFunction,ViaPad*
%ADD15C,0.04*%
G04 #@! TA.AperFunction,Conductor*
%ADD16C,0.025591*%
G04 #@! TA.AperFunction,ViaPad*
%ADD17C,0.03*%
G04 #@! TA.AperFunction,Conductor*
%ADD18C,0.015*%
G04 #@! TA.AperFunction,CopperBalancing*
%ADD19C,0.012*%
%ADD20C,0.025*%
G04 #@! TA.AperFunction,Conductor*
%ADD21C,0.05*%
%ADD22C,0.059055*%
%ADD23C,0.06*%
G04 #@! TA.AperFunction,CopperBalancing*
%ADD24C,0.013*%
G04 #@! TA.AperFunction,Conductor*
%ADD25C,0.022*%
%ADD29R,0.070866X0.062992*%
%ADD30R,0.051181X0.059055*%
%ADD31R,0.062992X0.070866*%
%ADD32R,0.082677X0.177165*%
%ADD33R,0.066929X0.098425*%
%ADD34R,0.098425X0.066929*%
G04 #@! TA.AperFunction,ComponentPad*
%ADD35R,0.059055X0.059055*%
%ADD36C,0.059055*%
%ADD37R,0.066929X0.066929*%
%ADD38C,0.066929*%
%ADD39R,0.137795X0.09252*%
G04 #@! TA.AperFunction,ComponentPad*
%ADD40C,0.2*%
%ADD41R,0.059055X0.051181*%
%ADD42R,0.051181X0.027559*%
%ADD43R,0.07874X0.047244*%
%ADD44R,0.055118X0.047244*%
%ADD45R,0.055118X0.031496*%
G04 #@! TA.AperFunction,ComponentPad*
%ADD46R,0.12X0.12*%
%ADD47C,0.12*%
%ADD48R,0.086614X0.086614*%
%ADD49C,0.086614*%
%ADD50R,0.062992X0.024016*%
%ADD51R,0.10315X0.138189*%
%ADD52R,0.07874X0.023622*%
%ADD117OUTLINE0*%
%FSLAX26Y26*%
G04*
G70*
G90*
G75*
G01*
G04 Top*
%LPD*%
X2243700Y3693700D2*
D14*
Y3793700D1*
Y3693700D2*
Y3581200D1*
X2893700Y2756200D2*
X2324949Y3324951D1*
Y3524951D1*
X2268700Y3581200D1*
X2243700D1*
Y3793700D2*
X2293700Y3843700D1*
Y4593700D1*
X2393700Y4693700D1*
X5193700D1*
X5243700Y4643700D1*
Y4593700D1*
X893700Y3273621D2*
X982529D1*
X987451Y3268700D1*
X1743700Y3481200D2*
Y3512548D1*
X1840550Y3515747D2*
Y3484350D1*
X1843700Y3481200D1*
X1942567Y3515747D2*
Y3488582D1*
X1949949Y3481200D1*
X2043701Y3518798D2*
Y3481200D1*
X2043699D1*
X2243700Y3581200D2*
X2181200D1*
X2081200Y3481200D1*
X2043701D1*
X5293700Y4112449D2*
D16*
Y4037449D1*
X5337449Y3993700D1*
X5340106D1*
X4043705D2*
Y4068705D1*
X4087449Y4112449D1*
X2743705Y3993700D2*
Y4056205D1*
X2806200Y4118700D1*
Y4112449D1*
X4043705Y3993700D2*
X4025073D1*
X3712511Y3681138D1*
Y3483099D1*
X3848050D1*
X3943700Y3387449D1*
Y2993708D1*
X4043700Y2893708D1*
X5468700Y1268700D2*
D14*
X5481199D1*
X5462449Y1287449D1*
Y1268700D1*
X5415775Y1306099D1*
X5399949Y1312749D1*
Y2006201D1*
X5256200Y2149951D1*
Y2212449D1*
X5181200Y2287449D1*
Y2856200D1*
X493699Y4301180D2*
D17*
Y4387451D1*
X493700D1*
Y4431200D1*
X506200Y1712449D2*
X487451D1*
X443700Y1756200D1*
Y2499949D1*
X546023Y2602272D1*
D18*
X535128D1*
X3446745Y2788842D2*
D17*
Y2765655D1*
X3456200Y2756200D1*
X3356298Y3417322D2*
Y3487352D1*
X3356200Y3487451D1*
X546023Y2602272D2*
D19*
X593700Y2649949D1*
Y2856200D1*
X574949Y2874951D1*
D17*
Y3431199D1*
X606200Y3462449D1*
Y3618701D1*
D18*
X593700Y3631201D1*
Y3843700D1*
X569646Y3867754D1*
X519646D1*
D20*
X493700Y3893700D1*
Y4018700D1*
X556200Y4081200D1*
Y4301180D1*
D18*
X493699D1*
X3093700Y2756200D2*
D21*
Y3006200D1*
X3137449Y3049949D1*
Y3343699D1*
X3211073Y3417322D1*
X3356298D1*
X3290745Y2788842D2*
D19*
Y2801842D1*
X3368745Y2879842D1*
X3712511Y3372863D2*
X3758028D1*
X3772298Y3387133D1*
X3712511Y3372863D2*
X3747569D1*
X3772298Y3348133D1*
X1643700Y2693700D2*
Y2793700D1*
X2243700Y2693700D2*
Y2793700D1*
X943700Y3693700D2*
Y3793700D1*
X1243700Y1043700D2*
D21*
X1368700D1*
Y1643700D1*
X1243700D1*
X2043700Y1043700D2*
X2049951D1*
X2118700Y1112449D1*
Y1574949D1*
X2049949Y1643700D1*
X2043700D1*
X1393700Y1956200D2*
D19*
X1443700D1*
X1506200Y2018700D1*
Y2118700D1*
X1543700Y2156200D1*
X1606298D1*
X2843700Y1043700D2*
D21*
X2849951D1*
X2918700Y1112449D1*
Y1568700D1*
X2843700Y1643700D1*
X3643700Y1043700D2*
X3724949Y1124949D1*
Y1568700D1*
X3649949Y1643700D1*
X3643700D1*
X2993700Y1956200D2*
D19*
Y1962449D1*
X3043700D1*
X3087449Y2006199D1*
Y2156200D1*
X3206298D1*
X4443700Y1043700D2*
D21*
X4456200D1*
X4524949Y1112449D1*
Y1574951D1*
X4456200Y1643700D1*
X4443700D1*
X5243700Y1043700D2*
X5249951D1*
X5324949Y1118699D1*
Y1574951D1*
X5256200Y1643700D1*
X5243700D1*
X4518700Y1956200D2*
D19*
X4618700D1*
Y2131200D1*
X4643700Y2156200D1*
X4731298D1*
X5024951Y2273031D2*
D20*
X5037449D1*
Y2349949D1*
X5068700Y2381200D1*
X5024951Y2273031D2*
Y2381200D1*
Y2273031D2*
Y2337449D1*
X4981200Y2381200D1*
X4193700Y2273031D2*
Y2343701D1*
X4237449Y2387451D1*
X4193700Y2273031D2*
Y2387451D1*
Y2343701D2*
X4149951Y2387451D1*
X3493700Y2273031D2*
Y2343700D1*
X3537451Y2387451D1*
X3493700Y2273031D2*
Y2387451D1*
Y2343701D2*
X3449951Y2387451D1*
X2643700Y2273031D2*
Y2337451D1*
X2693700Y2387451D1*
X2687449D1*
X2643700Y2273031D2*
Y2387451D1*
Y2337451D2*
X2593700Y2387451D1*
X2599949D1*
X1893700Y2273031D2*
Y2337451D1*
X1943700Y2387451D1*
X1937449D1*
X1893700Y2273031D2*
Y2387451D1*
Y2337451D2*
X1843700Y2387451D1*
X1849951D1*
X1043700Y2273031D2*
Y2337451D1*
X1093700Y2387451D1*
X1087449D1*
X1043700Y2273031D2*
Y2387451D1*
Y2337451D2*
X993700Y2387451D1*
X999949D1*
X860235Y2955511D2*
D19*
Y2995914D1*
X856200Y2999949D1*
X860235Y3533464D2*
X820964D1*
X818700Y3531200D1*
X478346Y3533464D2*
X535186D1*
X537449Y3531200D1*
X1606003Y2368700D2*
Y2418503D1*
X1606200Y2418700D1*
X4618503Y2368700D2*
Y2418700D1*
X4618700D1*
X1606298Y2156200D2*
X1537449D1*
Y2168700D1*
X3206298Y2156200D2*
X3137449D1*
Y2149949D1*
X3131003Y2368700D2*
Y2418700D1*
X3131200D1*
X4656200Y2162449D2*
Y2156200D1*
X4731298D1*
X2243700Y3470964D2*
Y3418700D1*
X893700Y3360235D2*
X835235D1*
X831200Y3356200D1*
X5518701Y1762451D2*
D20*
Y1806200D1*
Y1962451D1*
X5562449D1*
Y1849951D1*
Y1893700D1*
X5518701D1*
Y1937451D1*
X5562449D1*
X5518701Y1893700D2*
Y1849951D1*
Y1999951D1*
X5562449D1*
Y1806200D1*
Y1762451D1*
X5518701D1*
X1243700Y1643700D2*
D22*
X1162449D1*
D23*
Y2154281D1*
X1043700Y2273031D1*
X2043700Y1643700D2*
D22*
X1974949D1*
D23*
X1949949Y1668700D1*
Y1774949D1*
X2018700Y1843700D1*
Y2156200D1*
X2010531D1*
X1893700Y2273031D1*
X2843700Y1643700D2*
D22*
X2774949D1*
D23*
Y2141781D1*
X2643700Y2273031D1*
X4443700Y1643700D2*
D22*
X4431200D1*
D23*
X4299949Y1774951D1*
Y2156200D1*
X4193700Y2262449D1*
Y2273031D1*
X5243700Y1643700D2*
D22*
X5212451D1*
D23*
X5143700Y1712451D1*
Y2124951D1*
X5024951Y2243700D1*
Y2273031D1*
X3643700Y1643700D2*
D22*
X3574949D1*
D23*
Y1799949D1*
X3612449Y1837449D1*
Y2043700D1*
X3493700Y2162449D1*
Y2273031D1*
X2006200Y2387451D2*
D19*
X1937449D1*
X2756200D2*
X2687449D1*
X3606200D2*
X3537451D1*
X4306200D2*
X4237449D1*
X1043700D2*
Y2387449D1*
X1156200D1*
X3062449Y2662451D2*
X3093701D1*
X3124951Y2693700D1*
X4581150Y2924949D2*
X4512449D1*
X4506200Y2918700D1*
X4793749Y3124949D2*
X4849949D1*
X4637549Y3362451D2*
X4593700D1*
X4587449Y3356200D1*
X2940993Y3306199D2*
D17*
Y3297243D1*
X2918700Y3274951D1*
X2940993Y3306199D2*
Y3296407D1*
X2962449Y3274951D1*
X2940993Y3306199D2*
Y3315158D1*
X2918700Y3337451D1*
X2962449Y3274951D2*
Y3337451D1*
X2936923Y3101608D2*
D19*
Y3046490D1*
X2935791Y3045357D1*
X743700Y1143700D2*
X674949Y1212451D1*
Y1856200D1*
X862449Y2043700D1*
Y2256200D1*
X1268700D2*
X1393700D1*
X743700Y1043700D2*
X656200Y1131200D1*
Y1874951D1*
X824949Y2043700D1*
Y2306200D1*
X1331200D2*
X1393700D1*
X2143700Y2693700D2*
Y2793700D1*
X893700Y3230314D2*
Y3228346D1*
X2143700Y3168700D2*
Y2793700D1*
X743700Y2118700D2*
Y2149951D1*
X693700Y2199951D1*
Y2493700D1*
X793700Y2593700D1*
X930314D1*
X994094Y2657480D1*
Y2814960D1*
X1092519Y2913385D1*
Y3228346D1*
X2043700Y3693700D2*
Y3793700D1*
X2051180Y3406298D2*
Y3421259D1*
X1998031Y3474409D1*
Y3648031D1*
X2043700Y3693700D1*
X2043699Y3593602D2*
Y3693700D1*
X2043700D1*
X2543705Y3993700D2*
Y4199956D1*
X2599949Y4256200D1*
Y4349949D1*
X2056200D2*
Y4193700D1*
X2093700Y4156200D1*
Y3924949D1*
X2043700Y3874949D1*
Y3793700D1*
X1743700Y1743700D2*
Y1960235D1*
X1830708Y2047243D1*
Y2312991D1*
X1791338Y2352361D1*
Y3001968D1*
X1653543Y3139763D1*
Y3303936D1*
X1651180Y3306298D1*
X1843700Y3693700D2*
Y3793700D1*
X1851180Y3406298D2*
X1839763D1*
X1791338Y3454724D1*
Y3641338D1*
X1843700Y3693700D1*
X1043705Y3993700D2*
Y4243695D1*
X1018700Y4268700D1*
Y4312449D1*
X1862449D2*
Y4074951D1*
X1893700Y4043700D1*
Y3906200D1*
X1843700Y3856200D1*
Y3793700D1*
X1840550Y3590550D2*
X1837449D1*
Y3699951D1*
X1843700Y3693700D1*
X1606298Y2206200D2*
X1643700D1*
X1668700Y2231200D1*
Y2418700D1*
X1656200Y2431200D1*
Y2531200D1*
X1743700Y2618700D1*
Y2693700D1*
X1343700D2*
Y2793700D1*
X893700Y3187007D2*
X919142D1*
X937449Y3168700D1*
X956200D1*
X1343700Y3131200D2*
Y2793700D1*
X4043700Y3293708D2*
X4356207D1*
X4362449Y3287465D1*
Y3156200D1*
X4499951D2*
Y3174949D1*
X4581150D1*
X1443700Y2693700D2*
Y2793700D1*
X893700Y3316928D2*
Y3324949D1*
X981200D1*
X1362451Y3356200D2*
X1443700Y3274951D1*
Y2793700D1*
X643700Y2118700D2*
Y2143700D1*
X593700Y2193700D1*
Y2449949D1*
X793700Y2649949D1*
Y3024949D1*
X815575Y3046825D1*
Y3296825D1*
X1143700Y3793700D2*
Y3693700D1*
Y3793700D2*
Y3893700D1*
X1193700Y3943700D1*
Y4274949D1*
X5249949Y4281200D2*
Y4312451D1*
X5243700Y4318700D1*
Y4493700D1*
X3543700Y4274949D2*
X3543705D1*
Y3993700D1*
X2243700Y4274949D2*
X2243705D1*
Y3993700D1*
X943705Y4274949D2*
Y3993700D1*
X4840106Y3731200D2*
Y3993700D1*
X4837449Y3996356D1*
X4843700Y4274949D2*
Y3990106D1*
X4840106Y3993700D1*
X5249949Y4281200D2*
Y3983856D1*
X5240106Y3993700D1*
X793700Y693700D2*
D23*
Y806200D1*
X843700Y856200D1*
Y1312449D1*
X1074951Y1543700D1*
X1243700D1*
X931495Y693700D2*
Y787745D1*
X943700Y799949D1*
Y1274949D1*
X1112451Y1443700D1*
X1243700D1*
X1069291Y693700D2*
X1062449D1*
Y774951D1*
X1043700Y793700D1*
Y1231200D1*
X1156200Y1343700D1*
X1243700D1*
X1543700Y1143700D2*
D19*
X1493700D1*
Y1393700D1*
X1474949Y1412451D1*
Y1724951D1*
X1281200Y1918700D1*
Y2068700D1*
X1318700Y2106200D1*
X1393700D1*
X1543700Y1043700D2*
X1474949D1*
Y1362451D1*
X1449949Y1387451D1*
Y1712451D1*
X1262449Y1899951D1*
Y2112449D1*
X1306200Y2156200D1*
X1393700D1*
X1443700Y3793700D2*
Y3693700D1*
X2343705Y3993700D2*
Y4331205D1*
X2393700Y4381200D1*
Y4462449D1*
X1593700D2*
Y3943700D1*
X1443700Y3793700D1*
X3143700Y1043700D2*
X3118700D1*
X2987449Y1174951D1*
Y1731200D1*
X2837449Y1881200D1*
Y2056199D1*
X2937451Y2156200D1*
X2993700D1*
X4424949Y3093708D2*
Y3224949D1*
X4474949Y3274949D1*
X4581150D1*
X1543700Y2693700D2*
Y2793700D1*
X893700Y3403543D2*
Y3406200D1*
X962451D1*
X1168700D2*
Y2943700D1*
X1543700D2*
Y2793700D1*
X543700Y2118700D2*
X499949Y2162451D1*
Y2424949D1*
X687449Y2612449D1*
Y3406200D1*
X1243700Y1243700D2*
D23*
X1206200D1*
X1143700Y1181200D1*
Y843700D1*
X1207086Y780314D1*
Y693700D1*
X1743700Y3693700D2*
D19*
Y3793700D1*
X1751180Y3406298D2*
X1692913Y3464566D1*
Y3642913D1*
X1743700Y3693700D1*
X1143705Y3993700D2*
Y4337444D1*
X1112449Y4368700D1*
Y4424949D1*
X1793700D2*
Y3843700D1*
X1743700Y3793700D1*
Y3587351D2*
Y3693700D1*
X2343700Y1143700D2*
X2206200Y1281200D1*
Y2268700D1*
X2768700D2*
X2843700D1*
X2856200Y2256200D1*
X2993700D1*
X1543700Y1443700D2*
X1506200D1*
X1493700Y1456200D1*
Y1743700D1*
X1299949Y1937451D1*
Y2037449D1*
X1318700Y2056200D1*
X1393700D1*
X2043700Y1243700D2*
D23*
X2006200D1*
X1943700Y1181200D1*
Y843700D1*
X2007086Y780314D1*
Y693700D1*
X2393700D2*
Y818700D1*
X2443700Y868700D1*
Y1299949D1*
X2687451Y1543700D1*
X2843700D1*
X2531495Y693700D2*
Y800245D1*
X2543700Y812449D1*
Y1249949D1*
X2737451Y1443700D1*
X2843700D1*
X2669291Y693700D2*
X2662449D1*
Y781201D1*
X2643700Y799951D1*
Y1206200D1*
X2781200Y1343700D1*
X2843700D1*
X1643700Y3793700D2*
D19*
Y3693700D1*
X1651180Y3406298D2*
Y3686220D1*
X1643700Y3693700D1*
X1243705Y3993700D2*
Y4312444D1*
X1212449Y4343700D1*
Y4387449D1*
X1749949D2*
Y3943699D1*
X1643700Y3837449D1*
Y3793700D1*
X1851180Y3306298D2*
Y3186220D1*
X1993700Y3043700D1*
Y2518700D1*
X3412449Y2506200D2*
Y2062449D1*
X3381200Y2031200D1*
Y1787449D1*
X3337451Y1743700D1*
X3343700D1*
X1243700Y3793700D2*
Y3693700D1*
X3643705Y3993700D2*
Y4537449D1*
X1393700D2*
Y4424951D1*
X1431200Y4387451D1*
Y4312449D1*
X1393700Y4274949D1*
Y3981200D1*
X1243700Y3831200D1*
Y3793700D1*
X3943700Y1143700D2*
X3818700Y1268700D1*
Y2268700D1*
X4268700D2*
X4343700D1*
X4356200Y2256200D1*
X4518700D1*
X2843700Y1243700D2*
D23*
X2806200D1*
X2743700Y1181200D1*
Y843700D1*
X2807086Y780314D1*
Y693700D1*
X606200Y1243700D2*
D19*
Y1118700D1*
X512449Y1024949D1*
X506200D1*
X4793700Y693700D2*
D23*
Y803780D1*
X4846357Y856438D1*
Y1296357D1*
X5087451Y1537451D1*
X5243700D1*
Y1543700D1*
X4931495Y693700D2*
X4944108Y749541D1*
Y1256608D1*
X5131200Y1443700D1*
X5243700D1*
X5069291Y693700D2*
Y778700D1*
X5042980Y826818D1*
Y1217980D1*
X5168700Y1343700D1*
X5243700D1*
X1943700Y2693700D2*
D19*
Y2793700D1*
X4493701Y3218700D2*
X4499951Y3224949D1*
X4581150D1*
X1951180Y3306298D2*
Y3223720D1*
X2093700Y3081200D1*
Y2881200D1*
X3974951Y2618700D2*
Y1893699D1*
X4124949Y1743700D1*
X4143700D1*
X2051180Y3306298D2*
X2143602D1*
X2193700Y3256200D1*
Y2618700D1*
X4931200Y2581200D2*
Y1768700D1*
X4956200Y1743700D1*
X4943700D1*
X2043700Y2693700D2*
Y2793700D1*
X1606298Y2056200D2*
X1693700D1*
X1718700Y2081200D1*
Y2368700D1*
X1749949Y2399949D1*
Y2443700D1*
X2056200D2*
Y2693700D1*
X2043700D1*
X3206298Y2056200D2*
X3249949D1*
X3287449Y2093700D1*
Y2468700D1*
X4731298Y2056200D2*
X4725049Y2062449D1*
X4768700D1*
X4818700Y2112449D1*
Y2468700D1*
X4793749Y3024949D2*
X4824951D1*
X4868700Y2981200D1*
Y2806200D1*
X4818700Y2756200D1*
Y2468700D1*
X1843700Y2693700D2*
Y2793700D1*
X4743700Y1443700D2*
X4649949Y1537451D1*
Y1699951D1*
X4418700Y1931200D1*
Y2024949D1*
X4449951Y2056200D1*
X4518700D1*
X1606298Y2306200D2*
X1549951D1*
X1531200Y2324951D1*
Y2368700D1*
X3206298Y2306200D2*
X3106200D1*
X3056200Y2356200D1*
Y2368700D1*
X4731298Y2306200D2*
X4599949D1*
X4537449Y2368700D1*
X4543700D1*
X3206298Y2306200D2*
X3099951D1*
X3324949Y2356200D2*
Y2087449D1*
X3243700Y2006200D1*
X3206298D1*
X1756200Y2306200D2*
Y2081200D1*
X1681200Y2006200D1*
X1606298D1*
X4731298Y2306200D2*
X4743699D1*
X4687449Y2362449D1*
X4856200Y2306200D2*
Y2106200D1*
X4756200Y2006200D1*
X4731298D1*
X1531200Y2368700D2*
D18*
Y2443700D1*
X1593700Y2506200D1*
Y2581200D1*
X2993700D2*
Y2756200D1*
X3056200Y2581200D2*
Y2368700D1*
X4537451Y2543700D2*
Y2368700D1*
X4543700D1*
X4968700Y2543700D2*
X5124949Y2387451D1*
Y2249949D1*
X5199949Y2174949D1*
Y1924951D1*
X5368700Y1756200D1*
Y1031200D1*
X1231003Y2387449D2*
D19*
Y2412646D1*
X1143700Y2499949D1*
X4712352Y3362451D2*
X4756200D1*
X4793749Y3324902D1*
Y3274949D1*
X943700Y2693700D2*
Y2793700D1*
X5243700Y1243700D2*
D23*
X5202787D1*
X5144997Y1185910D1*
Y835665D1*
X5207086Y773575D1*
Y693700D1*
X3993700D2*
Y818700D1*
X4043700Y868700D1*
Y1262449D1*
X4324951Y1543700D1*
X4443700D1*
X943700Y1743700D2*
D19*
X949949D1*
Y2012449D1*
X974949Y2037449D1*
Y2343700D1*
X949949Y2368700D1*
Y2562449D1*
X1496062D2*
Y3149606D1*
X1549949Y3203493D1*
Y3305067D1*
X1551180Y3306298D1*
X4131495Y693700D2*
D23*
Y786861D1*
X4146621Y801987D1*
Y1221621D1*
X4368700Y1443700D1*
X4443700D1*
X1143700Y2693700D2*
D19*
Y2793700D1*
X3743705Y3993700D2*
Y4431205D1*
X3787449Y4474949D1*
Y4574949D1*
X1287449D2*
Y3943699D1*
X1190944Y3847193D1*
Y3633956D1*
X1210629Y3614271D1*
Y2913385D1*
X1143700Y2846456D1*
Y2793700D1*
X3943700Y1043700D2*
X3781200Y1206200D1*
Y2306200D1*
X4331200D2*
X4518700D1*
X4269291Y693700D2*
D23*
Y786860D1*
X4243700Y812451D1*
Y1187449D1*
X4399951Y1343700D1*
X4443700D1*
X4687449Y2987449D2*
D19*
Y3181199D1*
X4731200Y3224949D1*
X4793749D1*
X1943700Y3693700D2*
Y3793700D1*
X1951180Y3406298D2*
X1948031D1*
X1889763Y3464566D1*
Y3639763D1*
X1943700Y3693700D1*
X1942567Y3590550D2*
Y3692567D1*
X1943700Y3693700D1*
X2643705Y3993700D2*
Y4156205D1*
X2693700Y4206200D1*
Y4312449D1*
X1968700D2*
Y4143700D1*
X1999949Y4112451D1*
Y3968699D1*
X1943700Y3912449D1*
Y3793700D1*
X1543700D2*
Y3693700D1*
X1551180Y3406298D2*
X1555905D1*
X1624015Y3474409D1*
Y3613385D1*
X1543700Y3693700D1*
X1343705Y3993700D2*
Y4299955D1*
X1393700Y4349949D1*
X1712449D2*
Y3962449D1*
X1543700Y3793700D1*
X2543700Y1743700D2*
Y2081200D1*
X2356200Y2268700D1*
Y2406200D1*
X2268700Y2493700D1*
X1893700Y2481200D2*
Y3074949D1*
X1751180Y3217469D1*
Y3306298D1*
X3656388Y2972894D2*
X3691692D1*
X3706745Y2957842D1*
X3742548D1*
X3745745Y2954645D1*
X843700Y3693700D2*
Y3793700D1*
X843714Y3993700D2*
Y3793714D1*
X843700Y3793700D1*
X843714Y3993700D2*
Y4231200D1*
X5137449Y4237449D2*
Y3996356D1*
X5140106Y3993700D1*
X4740115Y3768700D2*
Y3993700D1*
X4737449Y3996365D1*
X2099949Y4231200D2*
X2143714Y3993700D1*
X4743700Y4237449D2*
Y3990115D1*
X4740115Y3993700D1*
X3437449Y4237449D2*
Y3999965D1*
X3443714Y3993700D1*
X5137449Y4237449D2*
Y4487449D1*
X5143700Y4493700D1*
X843700Y2693700D2*
Y2793700D1*
Y2812451D1*
X899949Y2868700D1*
X962451D1*
X1031200Y2937449D1*
Y3593700D1*
X993699Y3631201D1*
Y4256201D1*
X981200Y4268700D1*
Y4349949D1*
X993699Y4362448D1*
Y4499949D1*
X2493700D2*
Y4331200D1*
X2443705Y4281205D1*
Y3993700D1*
X1043700Y2693700D2*
Y2793700D1*
X3843705Y3993700D2*
Y4418705D1*
X3893700Y4468700D1*
Y4612621D1*
X893700D2*
Y3668699D1*
X987449Y3574949D1*
X1131889D2*
Y2883857D1*
X1042716Y2794684D1*
X1043700Y2793700D1*
X4743700Y1143700D2*
X4724951D1*
X4612449Y1256201D1*
Y1699951D1*
X4381200Y1931200D1*
Y2043700D1*
X4443700Y2106200D1*
X4518700D1*
X4743700Y1043700D2*
X4731200D1*
X4574949Y1199951D1*
Y1699951D1*
X4349949Y1924951D1*
Y2068699D1*
X4437451Y2156200D1*
X4518700D1*
X4443700Y1243700D2*
D23*
X4431200D1*
X4343700Y1156200D1*
Y856200D1*
X4407086Y792814D1*
Y693700D1*
X3193700D2*
Y812451D1*
X3243700Y862451D1*
Y1268700D1*
X3518700Y1543700D1*
X3643700D1*
X3143700Y1143700D2*
D19*
X3018700Y1268700D1*
Y1743700D1*
X2868700Y1893700D1*
Y2043700D1*
X2931200Y2106200D1*
X2993700D1*
X3368745Y2970842D2*
X3441737D1*
X3443789Y2972894D1*
X2343700Y1043700D2*
X2168700Y1218700D1*
Y2306200D1*
X2831200D2*
X2993700D1*
X3293941Y2879842D2*
Y2970842D1*
X3443789Y2922894D2*
Y2866600D1*
X3446745Y2863645D1*
X3440351D1*
X3365548Y2788842D1*
X3331495Y693700D2*
D23*
Y793995D1*
X3343700Y806200D1*
Y1237449D1*
X3549951Y1443700D1*
X3643700D1*
X3469291Y693700D2*
X3462449D1*
Y774951D1*
X3443700Y793700D1*
Y1199949D1*
X3587451Y1343700D1*
X3643700D1*
X743700Y2693700D2*
D19*
Y2793700D1*
Y3474949D1*
X693700Y3524949D1*
Y3837451D1*
X743700Y3887451D1*
Y4256200D1*
X4999949Y4199949D2*
Y4493700D1*
X5043700D1*
X3343714Y3993700D2*
X3343700Y4199949D1*
X2004574Y4197086D2*
X2002813D1*
X2037449Y4162449D1*
Y3999965D1*
X2043714Y3993700D1*
X4637449Y3806200D2*
Y3993700D1*
X4640115D1*
X4593700Y4199949D2*
Y4112449D1*
X4637449Y4068700D1*
Y3993700D1*
X4999949Y4199949D2*
Y4124951D1*
X5037449Y4087451D1*
Y3993700D1*
X5040106D1*
X743700Y1743700D2*
X768700D1*
X806200Y1781200D1*
Y1906200D1*
X937449Y2037449D1*
Y2168700D1*
X1543700Y2256200D2*
X1606298D1*
X3643700Y1243700D2*
D23*
X3618700D1*
X3543700Y1168700D1*
Y837451D1*
X3607086Y774065D1*
Y693700D1*
X1606298Y1956200D2*
D19*
X1668700D1*
X1793700Y2081200D1*
Y2156200D1*
X3143700Y2206200D2*
X3206298D1*
X1043700Y3693700D2*
Y3793700D1*
X643714Y3993700D2*
Y4256200D1*
X4481200Y4162449D2*
Y4093700D1*
X4543700Y4031200D1*
Y3990115D1*
X4540115Y3993700D1*
X4543700Y3843700D2*
Y3997285D1*
X4540115Y3993700D1*
X3243714D2*
Y4056186D1*
X3193700Y4106200D1*
Y4162449D1*
X1101495D2*
X1093700D1*
Y3843700D1*
X1043700Y3793700D1*
X1906200Y4162449D2*
Y4118700D1*
X1943714Y4081186D1*
Y3993700D1*
X4893700Y4162449D2*
Y4087451D1*
X4937449Y4043701D1*
Y3996356D1*
X4940106Y3993700D1*
X4893700Y4162449D2*
Y4443700D1*
X4943700Y4493700D1*
X1593700Y693700D2*
D23*
Y812451D1*
X1643700Y862451D1*
Y1312449D1*
X1874951Y1543700D1*
X2043700D1*
X1731495Y693700D2*
X1724949D1*
Y799949D1*
X1743700Y818700D1*
Y1262449D1*
X1924951Y1443700D1*
X2043700D1*
X1869291Y693700D2*
Y780609D1*
X1843700Y806200D1*
Y1224949D1*
X1962451Y1343700D1*
X2043700D1*
X2143700Y3693700D2*
D19*
Y3793700D1*
Y3862449D1*
X2193700Y3912449D1*
Y4393700D1*
X4506200D2*
X4743700D1*
X4843700Y4493700D1*
X3206298Y1956200D2*
X3243700D1*
X3368700Y2081200D1*
Y2156200D1*
X4624951Y2206200D2*
X4731298D1*
X1343700Y3693700D2*
Y3793700D1*
Y3837449D1*
X1387451Y3881200D1*
X1456200D1*
X1493700Y3918700D1*
Y4649949D1*
X3987449D2*
Y4462449D1*
X3947642Y4422642D1*
X3943705D1*
Y3993700D1*
X1243700Y2693700D2*
Y2793700D1*
X1606298Y2106200D2*
X1693700D1*
Y2518700D1*
X1237451Y2468700D2*
Y2693700D1*
X1243700D1*
X4731298Y2106200D2*
X4768700D1*
X4793700Y2131200D1*
Y2418700D1*
X4756200Y2456200D1*
Y2506200D1*
X3206298Y2106200D2*
X3249951D1*
X3268700Y2124949D1*
Y2381200D1*
X3106200Y2543700D1*
X4793749Y3074949D2*
X4818701D1*
X4893700Y2999951D1*
Y2762449D1*
X4856200Y2724949D1*
Y2506200D1*
X4731298Y1956200D2*
X4831200D1*
X4893700Y2018700D1*
Y2668700D1*
X4918700Y2693700D1*
Y3106200D1*
X4849951Y3174949D1*
X4793749D1*
X2343700Y1443700D2*
X2337451D1*
X2243700Y1537451D1*
Y2231200D1*
X2818700D2*
X2843700Y2206200D1*
X2993700D1*
X743700Y1443700D2*
Y1481200D1*
X699949Y1524951D1*
Y1837449D1*
X899949Y2037449D1*
Y2206200D1*
X1318700D2*
X1393700D1*
X1543700Y1743700D2*
X1531200D1*
X1318700Y1956200D1*
Y1993700D1*
X1331200Y2006200D1*
X1393700D1*
X2343700Y1743700D2*
X2337449D1*
Y2193700D1*
X3131200Y2256200D2*
X3206298D1*
X3143700Y1443700D2*
X3137449D1*
X3049949Y1531200D1*
Y1762451D1*
X2893700Y1918700D1*
Y2012449D1*
X2937451Y2056200D1*
X2993700D1*
X3943700Y1743700D2*
X3937449D1*
Y2193700D1*
X4624951Y2262449D2*
X4731298D1*
Y2256200D1*
X3143700Y1743700D2*
X3112449D1*
X2924949Y1931200D1*
Y2006200D1*
X2993700D1*
X3943700Y1443700D2*
X3937449D1*
X3862449Y1518700D1*
Y2231200D1*
X4331200D2*
X4356200Y2206200D1*
X4518700D1*
X4743700Y1743700D2*
Y1756200D1*
X4631200D1*
X4449949Y1937451D1*
Y1974949D1*
X4481200Y2006200D1*
X4518700D1*
X743700Y2218700D2*
X756200D1*
X793700Y2181200D1*
Y2074949D1*
X618700Y1899949D1*
Y1643700D1*
X543700Y2218700D2*
Y2206200D1*
X593700Y2156200D1*
Y1987449D1*
X556200Y1949949D1*
Y1599951D1*
X549949Y1593700D1*
Y1343700D1*
X643700Y2218700D2*
Y2206200D1*
X693700Y2156200D1*
Y2037449D1*
X581200Y1924949D1*
Y1618700D1*
X599949Y1599951D1*
Y1543700D1*
X443700Y3693700D2*
D20*
Y3793700D1*
D17*
Y4068700D1*
X493701Y4118701D1*
Y4143700D1*
X5440106Y3993700D2*
D23*
Y3683855D1*
X5306200Y3549949D1*
Y2337448D1*
X5443699Y2199949D1*
X4043700Y2793708D2*
X3937441D1*
X3887449Y2843700D1*
Y2956200D1*
X3814044Y3029606D1*
X3745745D1*
X5024951Y1918700D2*
D17*
X4974949Y1968700D1*
X5024951Y1918700D2*
X5074951Y1968700D1*
X5024951Y1918700D2*
X5068701D1*
X5074951Y1912451D1*
X5024951Y1918700D2*
Y1906201D1*
X5074951Y1856201D1*
X5024951Y1906203D2*
X4974949Y1856201D1*
X5024951Y1918700D2*
X4981199D1*
X4974949Y1912451D1*
X4193700Y1918700D2*
Y1924949D1*
X4243700Y1974949D1*
X4193700Y1918700D2*
X4243700D1*
X4193700D2*
Y1912451D1*
X4243700Y1862451D1*
X4193700Y1912451D2*
X4143700Y1862451D1*
X4193700Y1918700D2*
X4143700D1*
X4193700D2*
X4143700Y1968700D1*
Y1974949D1*
X3493700Y1918700D2*
Y1924949D1*
X3543700Y1974949D1*
X3493700Y1918700D2*
X3543700D1*
X3493700D2*
Y1912451D1*
X3543700Y1862451D1*
X3493700Y1912451D2*
X3443700Y1862451D1*
X3493700Y1918700D2*
X3443700D1*
X3493700Y1924949D2*
X3443700Y1974949D1*
X2643700Y1918700D2*
Y1974949D1*
X2693700D1*
X2643700Y1918700D2*
X2693700D1*
X2643700D2*
Y1862451D1*
X2693700D1*
X2643700Y1918700D2*
Y1912451D1*
X2593700Y1862451D1*
X2643700Y1918700D2*
X2593700D1*
X2643700D2*
Y1924949D1*
X2593700Y1974949D1*
X1893700Y1918700D2*
Y1924949D1*
X1843700Y1974949D1*
X1893700Y1918700D2*
X1843700D1*
X1893700D2*
Y1912451D1*
X1843700Y1862451D1*
X1893700Y1912451D2*
X1943700Y1862451D1*
X1893700Y1918700D2*
X1943700D1*
X1893700Y1924949D2*
X1943700Y1974949D1*
X1043700Y1918700D2*
Y1974949D1*
X993700D1*
X1043700Y1918700D2*
X993700D1*
X1043700D2*
Y1856200D1*
X993700D1*
X1043700Y1918700D2*
Y1912451D1*
X1093700Y1862451D1*
X1043700Y1918700D2*
X1093700D1*
X1043700D2*
Y1924949D1*
X1093700Y1974949D1*
X3656388Y3022894D2*
D25*
X3739033D1*
X3745745Y3029606D1*
D15*
X987451Y3268700D3*
X1743700Y3481200D3*
X5293700Y4112449D3*
X4087449D3*
X2806200D3*
X5181200Y2856200D3*
X862449Y2256200D3*
X1268700D3*
X824949Y2306200D3*
X1331200D3*
X893700Y3228346D3*
X2143700Y3168700D3*
X1092519Y3228346D3*
X2599949Y4349949D3*
X2056200D3*
X1018700Y4312449D3*
X1862449D3*
X956200Y3168700D3*
X1343700Y3131200D3*
X4362449Y3156200D3*
X4499951D3*
X981200Y3324949D3*
X1362451Y3356200D3*
X815575Y3296825D3*
X981200Y3324949D3*
X1193700Y4274949D3*
X5249949Y4281200D3*
X3543700Y4274949D3*
X2243700D3*
X943705D3*
X1193700D3*
X4840106Y3731200D3*
X4843700Y4274949D3*
X5249949Y4281200D3*
X2393700Y4462449D3*
X1593700D3*
X4424949Y3093708D3*
X962451Y3406200D3*
X1168700D3*
Y2943700D3*
X1543700D3*
X687449Y3406200D3*
X962451D3*
X1112449Y4424949D3*
X1793700D3*
X2206200Y2268700D3*
X2768700D3*
X1212449Y4387449D3*
X1749949D3*
X1993700Y2518700D3*
X3412449Y2506200D3*
X3643705Y4537449D3*
X1393700D3*
X3818700Y2268700D3*
X4268700D3*
X606200Y1243700D3*
X4493701Y3218700D3*
X2093700Y2881200D3*
X3974951Y2618700D3*
X2193700D3*
X4931200Y2581200D3*
X1749949Y2443700D3*
X2056200D3*
X3287449Y2468700D3*
X4818700D3*
X3287449D3*
X3099951Y2306200D3*
X3324949Y2356200D3*
X1531200Y2324949D3*
X1756200Y2306200D3*
X4687449Y2362449D3*
X4856200Y2306200D3*
X1593700Y2581200D3*
X2993700D3*
X3056200D3*
X4537451Y2543700D3*
X4968700D3*
X5368700Y1031200D3*
X949949Y2562449D3*
X1496062D3*
X3787449Y4574949D3*
X1287449D3*
X3781200Y2306200D3*
X4331200D3*
X4687449Y2987449D3*
X2693700Y4312449D3*
X1968700D3*
X1393700Y4349949D3*
X1712449D3*
X2268700Y2493700D3*
X1893700Y2481200D3*
X843714Y4231200D3*
X5137449Y4237449D3*
X4740115Y3768700D3*
X2099949Y4231200D3*
X4743700Y4237449D3*
X3437449D3*
X5137449D3*
X993699Y4499949D3*
X2493700D3*
X3893700Y4612621D3*
X893700D3*
X987449Y3574949D3*
X1131889D3*
X2168700Y2306200D3*
X2831200D3*
X743700Y4256200D3*
X4999949Y4199949D3*
X3343700D3*
X2004574Y4197086D3*
X4637449Y3806200D3*
X4593700Y4199949D3*
X4999949D3*
X937449Y2168700D3*
X1543700Y2256200D3*
X1793700Y2156200D3*
X3143700Y2206200D3*
X643714Y4256200D3*
X4481200Y4162449D3*
X4543700Y3843700D3*
X3193700Y4162449D3*
X1101495D3*
X1906200D3*
X4893700D3*
D3*
X2193700Y4393700D3*
X4506200D3*
X3368700Y2156200D3*
X4624951Y2206200D3*
X1493700Y4649949D3*
X3987449D3*
X1693700Y2518700D3*
X1237451Y2468700D3*
X4756200Y2506200D3*
X1693700Y2518700D3*
X3106200Y2543700D3*
X4856200Y2506200D3*
X4756200D3*
X2243700Y2231200D3*
X2818700D3*
X899949Y2206200D3*
X1318700D3*
X2337449Y2193700D3*
X3131200Y2256200D3*
X3937449Y2193700D3*
X4624951Y2262449D3*
X3862449Y2231200D3*
X4331200D3*
X618700Y1643700D3*
X549949Y1343700D3*
X599949Y1543700D3*
X493700Y4387451D3*
Y4431200D3*
X1843700Y3481200D3*
X1949949D3*
D17*
X3524745Y3035842D3*
X3550745D3*
D15*
X2043699Y3481200D3*
X3456200Y2756200D3*
X3356200Y3487451D3*
X993700Y1918700D3*
Y1974949D3*
Y1856200D3*
X1093700Y1974949D3*
Y1918700D3*
Y1862451D3*
X1843700Y1918700D3*
Y1974949D3*
Y1862451D3*
X1943700Y1974949D3*
Y1918700D3*
D17*
X3576745Y3035842D3*
X3524745Y2996842D3*
X3550745D3*
X3576745D3*
X3524745Y2957842D3*
X3550745D3*
X3576745D3*
X3772298Y3387133D3*
Y3348133D3*
D15*
X1943700Y1862451D3*
X2593700Y1918700D3*
Y1974949D3*
Y1862451D3*
X2693700Y1974949D3*
Y1918700D3*
Y1862451D3*
X3443700Y1918700D3*
Y1974949D3*
X1043700Y2387451D3*
X999949D3*
X1087449D3*
X1849951D3*
X1893700D3*
X1937449D3*
X2599949D3*
X2643700D3*
X2687449D3*
X3449951D3*
X3493700D3*
X3537451D3*
X3443700Y1862451D3*
X3543700Y1974949D3*
Y1918700D3*
Y1862451D3*
X4143700Y1918700D3*
Y1974949D3*
Y1862451D3*
X4243700Y1974949D3*
Y1918700D3*
Y1862451D3*
X4974949Y1912451D3*
Y1968700D3*
X4149951Y2387451D3*
X4193700D3*
X4237449D3*
X4981200Y2381200D3*
X5024951D3*
X5068700D3*
X4974949Y1856201D3*
X5074951Y1968700D3*
Y1912451D3*
Y1856201D3*
X4506200Y2918700D3*
X4849949Y3124949D3*
X4587449Y3356200D3*
X2918700Y3337451D3*
X2962449D3*
X2918700Y3274951D3*
X2962449D3*
X2935791Y3045357D3*
X537449Y3531200D3*
X818700D3*
X856200Y2999949D3*
X1606200Y2418700D3*
X4656200Y2162449D3*
X4618700Y2418700D3*
X1537449Y2168700D3*
X3137449Y2149949D3*
X3131200Y2418700D3*
X2243700Y3418700D3*
X831200Y3356200D3*
X5562449Y1937451D3*
X5518701D3*
X5562449Y1893700D3*
Y1849951D3*
X5518701Y1806200D3*
Y1762451D3*
Y1893700D3*
Y1849951D3*
X5562449Y1806200D3*
Y1762451D3*
X3124951Y2693700D3*
X1143700Y2499949D3*
X3293317Y3479764D2*
D20*
X3744297D1*
X3293317Y3454896D2*
X3744297D1*
X3293317Y3430027D2*
X3550629D1*
X3293317Y3405158D2*
X3529422D1*
X3293317Y3380289D2*
X3508251D1*
X3290798Y3504623D2*
Y3360583D1*
X3493758Y3360372D1*
X3569170Y3448629D1*
X3571611Y3450264D1*
X3574367Y3451284D1*
X3577288Y3451633D1*
X3746764D1*
X3746798Y3504611D1*
X3290767Y3504633D1*
X3508455Y3273001D2*
X3622519D1*
X3478636Y3248132D2*
X3622519D1*
X3277577Y3223263D2*
X3622519D1*
X3277577Y3198394D2*
X3599123D1*
X3277577Y3173525D2*
X3585020D1*
X3277577Y3148657D2*
X3585020D1*
X3413075Y3123788D2*
X3585020D1*
X3415049Y3098919D2*
X3459676D1*
X3415049Y3074050D2*
X3441914D1*
X3456254Y3235376D2*
X3275058D1*
Y3141611D1*
X3389501Y3141485D1*
X3392329Y3140687D1*
X3394893Y3139251D1*
X3402633Y3131728D1*
X3410157Y3123987D1*
X3411592Y3121423D1*
X3412390Y3118595D1*
X3412544Y3107266D1*
Y3072924D1*
X3443579Y3072896D1*
X3472376Y3112909D1*
X3474669Y3114746D1*
X3477327Y3115998D1*
X3480204Y3116594D1*
X3587511Y3116641D1*
X3587676Y3181088D1*
X3588474Y3183917D1*
X3589910Y3186481D1*
X3597434Y3194221D1*
X3624999Y3221788D1*
X3625019Y3297880D1*
X3535788Y3297869D1*
X3462690Y3237140D1*
X3460006Y3235941D1*
X3457113Y3235403D1*
X3683388Y3362764D2*
X3783313D1*
X3683460Y3337896D2*
X3783313D1*
X3683532Y3313027D2*
X3783313D1*
X3683603Y3288158D2*
X3783313D1*
X3683675Y3263289D2*
X3783313D1*
X3683710Y3238420D2*
X3783313D1*
X3695733Y3213552D2*
X3783313D1*
X3717048Y3188683D2*
X3783313D1*
X3721497Y3163814D2*
X3783313D1*
X3721892Y3138945D2*
X3783313D1*
X3702376Y3202869D2*
X3710638D1*
Y3193217D1*
X3716814Y3185834D1*
X3718087Y3183184D1*
X3718707Y3180313D1*
X3719602Y3126609D1*
X3785763Y3126633D1*
X3785798Y3387645D1*
X3680822Y3387633D1*
X3681254Y3227493D1*
X3702371Y3202880D1*
X3520582Y3023027D2*
X3578773D1*
X3520079Y2998158D2*
X3578773D1*
X3519612Y2973289D2*
X3578773D1*
X3519146Y2948420D2*
X3578773D1*
X3518644Y2923552D2*
X3578773D1*
X3518178Y2898683D2*
X3705516D1*
X3517710Y2873814D2*
X3756759D1*
X3517208Y2848945D2*
X3756759D1*
X3516742Y2824077D2*
X3756759D1*
X3279763Y2799208D2*
X3291289D1*
X3516275D2*
X3756759D1*
X3279763Y2774339D2*
X3291289D1*
X3515773D2*
X3756759D1*
X3279763Y2749470D2*
X3291289D1*
X3515306D2*
X3756759D1*
X3279763Y2724602D2*
X3291289D1*
X3514840D2*
X3756759D1*
X3279763Y2699733D2*
X3756759D1*
X3684548Y2910410D2*
X3591818Y2910564D1*
X3588990Y2911361D1*
X3586426Y2912797D1*
X3584268Y2914792D1*
X3582636Y2917235D1*
X3581619Y2919991D1*
X3581273Y2922910D1*
Y3047876D1*
X3518531Y3047896D1*
X3512380Y2733474D1*
X3511582Y2730646D1*
X3510146Y2728082D1*
X3508151Y2725924D1*
X3505708Y2724292D1*
X3502952Y2723275D1*
X3500033Y2722930D1*
X3488651Y2722923D1*
X3483532Y2718581D1*
X3477310Y2714768D1*
X3470569Y2711976D1*
X3463474Y2710272D1*
X3456200Y2709700D1*
X3448926Y2710272D1*
X3441831Y2711976D1*
X3435090Y2714768D1*
X3428868Y2718581D1*
X3423749Y2722923D1*
X3304348Y2723083D1*
X3301520Y2723881D1*
X3298956Y2725317D1*
X3296798Y2727312D1*
X3295166Y2729755D1*
X3294149Y2732511D1*
X3293804Y2735430D1*
Y2803588D1*
X3277234Y2802880D1*
X3277245Y2684364D1*
X3759275Y2684342D1*
X3759245Y2894245D1*
X3709686Y2898235D1*
X3706920Y2899231D1*
X3700256Y2902554D1*
X3689717D1*
Y2907829D1*
X3700254Y2902565D1*
X3646281Y3141764D2*
X3666258D1*
X3646281Y3116896D2*
X3666258D1*
X3640039Y3092027D2*
X3672502D1*
X3637520Y3092729D2*
Y3072907D1*
X3674995Y3072896D1*
X3675014Y3092700D1*
X3671151Y3096793D1*
X3669716Y3099357D1*
X3668918Y3102186D1*
X3668764Y3116644D1*
Y3166615D1*
X3643758Y3166633D1*
X3643616Y3102186D1*
X3642818Y3099357D1*
X3641382Y3096793D1*
X3640106Y3095300D1*
X5377196Y2475130D2*
X5609965D1*
X5377196Y2450262D2*
X5609965D1*
X5377196Y2425393D2*
X5609965D1*
X5377196Y2400524D2*
X5609965D1*
X5377196Y2375655D2*
X5609965D1*
X5392231Y2350787D2*
X5609965D1*
X5439886Y2325918D2*
X5609965D1*
X5441968Y2301049D2*
X5609965D1*
X5544704Y2276180D2*
X5609965D1*
X5544704Y2251312D2*
X5609965D1*
X5544704Y2226443D2*
X5609965D1*
X5544704Y2201574D2*
X5609965D1*
X5544704Y2176705D2*
X5609965D1*
X5544704Y2151836D2*
X5609965D1*
X5544704Y2126968D2*
X5609965D1*
X5544704Y2102099D2*
X5609965D1*
X5444981Y2077230D2*
X5609965D1*
X5444407Y2052361D2*
X5609965D1*
X5449108Y2027493D2*
X5609965D1*
X5453737Y2002624D2*
X5609965D1*
X5453737Y1977755D2*
X5609965D1*
X5453737Y1952886D2*
X5609965D1*
X5453737Y1928018D2*
X5609965D1*
X5453737Y1903149D2*
X5609965D1*
X5453737Y1878280D2*
X5609965D1*
X5453737Y1853411D2*
X5609965D1*
X5453737Y1828543D2*
X5609965D1*
X5453737Y1803674D2*
X5609965D1*
X5453737Y1778805D2*
X5609965D1*
X5453737Y1753936D2*
X5609965D1*
X5453737Y1729067D2*
X5609965D1*
X5453737Y1704199D2*
X5609965D1*
X5453737Y1679330D2*
X5609965D1*
X5453737Y1654461D2*
X5609965D1*
X5453737Y1629592D2*
X5609965D1*
X5453737Y1604724D2*
X5609965D1*
X5453737Y1579855D2*
X5609965D1*
X5453737Y1554986D2*
X5609965D1*
X5543161Y1530117D2*
X5609965D1*
X5543161Y1505249D2*
X5609965D1*
X5543161Y1480380D2*
X5609965D1*
X5543161Y1455511D2*
X5609965D1*
X5543161Y1430642D2*
X5609965D1*
X5543161Y1405773D2*
X5609965D1*
X5453737Y1380905D2*
X5609965D1*
X5453737Y1356036D2*
X5609965D1*
X5506918Y1331167D2*
X5609965D1*
X5451243Y1540665D2*
X5540665D1*
Y1396735D1*
X5451277D1*
X5451250Y1343447D1*
X5456067Y1339550D1*
X5463054Y1340443D1*
X5474346D1*
X5485499Y1338676D1*
X5496239Y1335187D1*
X5506301Y1330060D1*
X5515438Y1323422D1*
X5523407Y1315453D1*
X5612456Y1312822D1*
X5612449Y2499952D1*
X5374665Y2499985D1*
X5374700Y2365808D1*
X5409326Y2331196D1*
X5426776Y2331066D1*
X5429613Y2330297D1*
X5432191Y2328889D1*
X5434369Y2326917D1*
X5436028Y2324490D1*
X5437073Y2321745D1*
X5437449Y2318830D1*
X5437615Y2302894D1*
X5442058Y2298464D1*
X5542199Y2298449D1*
Y2101449D1*
X5443050D1*
X5441544Y2036259D1*
X5445658Y2029491D1*
X5448738Y2022054D1*
X5450617Y2014226D1*
X5451249Y2006186D1*
X5451250Y1540666D1*
X2355537Y3613331D2*
D19*
X3680027D1*
X3744982D2*
X3998683D1*
X4088717D2*
X4936489D1*
X2354435Y3601462D2*
X3680027D1*
X3744982D2*
X3995121D1*
X4092279D2*
X4936489D1*
X2353357Y3589594D2*
X3680027D1*
X3744982D2*
X3994676D1*
X4092724D2*
X4936489D1*
X2352255Y3577725D2*
X3680027D1*
X3744982D2*
X3997230D1*
X4090170D2*
X4936489D1*
X2351178Y3565856D2*
X3680027D1*
X3744982D2*
X4003394D1*
X4084006D2*
X4936489D1*
X2350075Y3553987D2*
X3680027D1*
X3744982D2*
X4015512D1*
X4071888D2*
X4936489D1*
X2352302Y3542119D2*
X3680027D1*
X3744982D2*
X4936489D1*
X2356966Y3530250D2*
X3264082D1*
X3773506D2*
X4011386D1*
X4076014D2*
X4936489D1*
X2357435Y3518381D2*
X3258669D1*
X3778943D2*
X4001333D1*
X4086067D2*
X4936489D1*
X2357435Y3506512D2*
X3258621D1*
X3869974D2*
X3996222D1*
X4091178D2*
X4936489D1*
X2357435Y3494644D2*
X3258621D1*
X3881927D2*
X3994512D1*
X4092888D2*
X4936489D1*
X2357435Y3482775D2*
X3258621D1*
X3893810D2*
X3995754D1*
X4091646D2*
X4936489D1*
X2357435Y3470906D2*
X3258621D1*
X3905670D2*
X4000254D1*
X4087146D2*
X4936489D1*
X2357435Y3459037D2*
X3197613D1*
X3917552D2*
X4009277D1*
X4078123D2*
X4936489D1*
X2357435Y3447169D2*
X3178230D1*
X3929411D2*
X4030676D1*
X4056724D2*
X4936489D1*
X2357435Y3435300D2*
X3166371D1*
X3941271D2*
X4018535D1*
X4068865D2*
X4936489D1*
X2357435Y3423431D2*
X3154489D1*
X3953154D2*
X4004801D1*
X4082599D2*
X4936489D1*
X2357435Y3411562D2*
X3142629D1*
X3579279D2*
X3652582D1*
X3965014D2*
X3997934D1*
X4089466D2*
X4936489D1*
X2357435Y3399693D2*
X3130746D1*
X3569178D2*
X3648621D1*
X3973686D2*
X3994863D1*
X4092537D2*
X4592285D1*
X4682810D2*
X4936489D1*
X2357435Y3387825D2*
X3118886D1*
X3559052D2*
X3648645D1*
X3976170D2*
X3994863D1*
X4092537D2*
X4564325D1*
X4682810D2*
X4936489D1*
X2357435Y3375956D2*
X3107027D1*
X3548951D2*
X3648691D1*
X3976170D2*
X3997886D1*
X4089514D2*
X4553238D1*
X4682810D2*
X4936489D1*
X2357435Y3364087D2*
X2889738D1*
X2991419D2*
X3097840D1*
X3220522D2*
X3258621D1*
X3538826D2*
X3648714D1*
X3976170D2*
X4004730D1*
X4082670D2*
X4548598D1*
X4682810D2*
X4936489D1*
X2357435Y3352218D2*
X2872910D1*
X3009091D2*
X3065825D1*
X3208662D2*
X3258621D1*
X3528724D2*
X3648738D1*
X3976170D2*
X4018348D1*
X4069052D2*
X4547965D1*
X4682810D2*
X4936489D1*
X2357435Y3340350D2*
X2862058D1*
X3019919D2*
X3054973D1*
X3212834D2*
X3260333D1*
X3518599D2*
X3648785D1*
X3976170D2*
X4031121D1*
X4056279D2*
X4551176D1*
X4682810D2*
X4936489D1*
X2366857Y3328481D2*
X2859317D1*
X3022686D2*
X3052230D1*
X3215599D2*
X3526418D1*
X3642396D2*
X3648813D1*
X3976170D2*
X4009394D1*
X4078006D2*
X4559566D1*
X4682810D2*
X4936489D1*
X2378717Y3316612D2*
X2859293D1*
X3022686D2*
X3052207D1*
X3215599D2*
X3508699D1*
X3976170D2*
X4000301D1*
X4366052D2*
X4592285D1*
X4682810D2*
X4936489D1*
X2390599Y3304743D2*
X2859293D1*
X3022686D2*
X3052207D1*
X3215599D2*
X3494473D1*
X3976170D2*
X3995777D1*
X4380982D2*
X4522090D1*
X4640201D2*
X4936489D1*
X2402459Y3292875D2*
X2859293D1*
X3022686D2*
X3052207D1*
X3215599D2*
X3480222D1*
X3976170D2*
X3994489D1*
X4387522D2*
X4457074D1*
X4640201D2*
X4936489D1*
X2414342Y3281006D2*
X2859481D1*
X3022498D2*
X3052394D1*
X3215411D2*
X3465973D1*
X3976170D2*
X3996199D1*
X4388130D2*
X4445191D1*
X4640201D2*
X4936489D1*
X2323873Y3269137D2*
X2335325D1*
X2426201D2*
X2863676D1*
X3018302D2*
X3056590D1*
X3211217D2*
X3451746D1*
X3976170D2*
X4001262D1*
X4086138D2*
X4336770D1*
X4388130D2*
X4433309D1*
X4640201D2*
X4936489D1*
X2322794Y3257268D2*
X2347183D1*
X2438060D2*
X2879661D1*
X3002318D2*
X3072574D1*
X3195231D2*
X3245449D1*
X3976170D2*
X4011246D1*
X4076154D2*
X4336770D1*
X4388130D2*
X4421449D1*
X4640201D2*
X4936489D1*
X2321693Y3245399D2*
X2359066D1*
X2449943D2*
X2892855D1*
X2988302D2*
X3092777D1*
X3182130D2*
X3242871D1*
X3976170D2*
X4336770D1*
X4388130D2*
X4409590D1*
X4640201D2*
X4716550D1*
X4852802D2*
X4936489D1*
X2320615Y3233531D2*
X2370926D1*
X2461802D2*
X3092777D1*
X3182130D2*
X3242871D1*
X3976170D2*
X4015699D1*
X4071701D2*
X4336770D1*
X4388130D2*
X4400825D1*
X4640201D2*
X4703965D1*
X4852802D2*
X4936489D1*
X2319514Y3221662D2*
X2382809D1*
X2473686D2*
X3092777D1*
X3182130D2*
X3242871D1*
X3976170D2*
X4003465D1*
X4083935D2*
X4336770D1*
X4388130D2*
X4399277D1*
X4640201D2*
X4692082D1*
X4852802D2*
X4936489D1*
X2318435Y3209793D2*
X2394669D1*
X2485545D2*
X3092777D1*
X3182130D2*
X3242871D1*
X3976170D2*
X3997277D1*
X4090123D2*
X4336770D1*
X4388130D2*
X4399277D1*
X4640201D2*
X4680222D1*
X4852802D2*
X4936489D1*
X2317334Y3197924D2*
X2406550D1*
X2497403D2*
X3092777D1*
X3182130D2*
X3242871D1*
X3976170D2*
X3994676D1*
X4092724D2*
X4336770D1*
X4388130D2*
X4399277D1*
X4450638D2*
X4460121D1*
X4640201D2*
X4668363D1*
X4859599D2*
X4936489D1*
X2316231Y3186056D2*
X2418410D1*
X2509287D2*
X3092777D1*
X3182130D2*
X3242871D1*
X3976170D2*
X3995098D1*
X4092302D2*
X4336770D1*
X4388130D2*
X4399277D1*
X4450638D2*
X4472121D1*
X4640201D2*
X4662246D1*
X4728115D2*
X4734717D1*
X4874670D2*
X4936489D1*
X2315154Y3174187D2*
X2430270D1*
X2521146D2*
X3092777D1*
X3182130D2*
X3242871D1*
X3976170D2*
X3998637D1*
X4088763D2*
X4327230D1*
X4450638D2*
X4464738D1*
X4640201D2*
X4661777D1*
X4716255D2*
X4734691D1*
X4886529D2*
X4936489D1*
X2314052Y3162318D2*
X2442153D1*
X2533029D2*
X3092777D1*
X3182130D2*
X3242871D1*
X3976170D2*
X4006183D1*
X4081217D2*
X4323270D1*
X4450638D2*
X4460754D1*
X4640201D2*
X4661777D1*
X4713138D2*
X4734691D1*
X4898411D2*
X4936489D1*
X2312974Y3150449D2*
X2454012D1*
X2544888D2*
X2885754D1*
X2988091D2*
X3092777D1*
X3182130D2*
X3242871D1*
X3976170D2*
X4021676D1*
X4065724D2*
X4323199D1*
X4450638D2*
X4460707D1*
X4640201D2*
X4661777D1*
X4713138D2*
X4734691D1*
X4910271D2*
X4936489D1*
X2311873Y3138581D2*
X2465894D1*
X2556747D2*
X2885754D1*
X2988091D2*
X3092777D1*
X3182130D2*
X3242871D1*
X3976170D2*
X4025426D1*
X4061974D2*
X4327043D1*
X4450638D2*
X4464550D1*
X4640201D2*
X4661777D1*
X4713138D2*
X4734691D1*
X4922130D2*
X4936489D1*
X2310794Y3126712D2*
X2477754D1*
X2568630D2*
X2885754D1*
X2988091D2*
X3092777D1*
X3182130D2*
X3243035D1*
X3976170D2*
X4007637D1*
X4079763D2*
X4336535D1*
X4388365D2*
X4399277D1*
X4450638D2*
X4474019D1*
X4640201D2*
X4661777D1*
X4713138D2*
X4734691D1*
X2309693Y3114843D2*
X2489613D1*
X2580490D2*
X2885754D1*
X2988091D2*
X3092777D1*
X3182130D2*
X3249645D1*
X3976170D2*
X3999386D1*
X4088014D2*
X4391590D1*
X4458302D2*
X4522090D1*
X4640201D2*
X4661777D1*
X4713138D2*
X4734691D1*
X2308591Y3102974D2*
X2501497D1*
X2592373D2*
X2885754D1*
X2988091D2*
X3092777D1*
X3182130D2*
X3380355D1*
X3976170D2*
X3995402D1*
X4091998D2*
X4386410D1*
X4463506D2*
X4522090D1*
X4640201D2*
X4661777D1*
X4713138D2*
X4734691D1*
X2307514Y3091106D2*
X2513355D1*
X2604231D2*
X2885754D1*
X2988091D2*
X3092777D1*
X3182130D2*
X3380355D1*
X3976170D2*
X3994558D1*
X4092842D2*
X4385355D1*
X4464537D2*
X4522090D1*
X4640201D2*
X4661777D1*
X4713138D2*
X4734691D1*
X2219388Y3079237D2*
X2525238D1*
X2616091D2*
X2885754D1*
X2988091D2*
X3092777D1*
X3182130D2*
X3380355D1*
X3976170D2*
X3996714D1*
X4090686D2*
X4388098D1*
X4461794D2*
X4522090D1*
X4640201D2*
X4661777D1*
X4713138D2*
X4734691D1*
X1639334Y3067368D2*
X1690113D1*
X2005850D2*
X2068019D1*
X2219388D2*
X2537098D1*
X2627974D2*
X2885754D1*
X2988091D2*
X3092169D1*
X3182130D2*
X3380355D1*
X3976170D2*
X4002363D1*
X4085037D2*
X4395691D1*
X4454201D2*
X4522090D1*
X4640201D2*
X4661777D1*
X4713138D2*
X4734691D1*
X1236302Y3055499D2*
X1318019D1*
X1369381D2*
X1418027D1*
X1521747D2*
X1701997D1*
X2016350D2*
X2068019D1*
X2219388D2*
X2548957D1*
X2639834D2*
X2885754D1*
X2988091D2*
X3080309D1*
X3182130D2*
X3381035D1*
X3976170D2*
X4013426D1*
X4073974D2*
X4419199D1*
X4430713D2*
X4522090D1*
X4640201D2*
X4661777D1*
X4713138D2*
X4734691D1*
X1236302Y3043630D2*
X1318019D1*
X1369381D2*
X1418027D1*
X1521747D2*
X1713855D1*
X2019373D2*
X2068019D1*
X2219388D2*
X2560840D1*
X2651717D2*
X2896161D1*
X2975435D2*
X3068449D1*
X3181662D2*
X3391066D1*
X3976170D2*
X4522090D1*
X4640201D2*
X4661777D1*
X4713138D2*
X4734691D1*
X1236302Y3031762D2*
X1318019D1*
X1369381D2*
X1418027D1*
X1521747D2*
X1725714D1*
X2019373D2*
X2068019D1*
X2219388D2*
X2572699D1*
X2663575D2*
X2898598D1*
X2972998D2*
X3057317D1*
X3178146D2*
X3392613D1*
X3976170D2*
X4013238D1*
X4074162D2*
X4522090D1*
X4640201D2*
X4661777D1*
X4713138D2*
X4734691D1*
X1236302Y3019893D2*
X1318019D1*
X1369381D2*
X1418027D1*
X1521747D2*
X1737598D1*
X2019373D2*
X2068019D1*
X2219388D2*
X2584582D1*
X2675435D2*
X2905746D1*
X2965850D2*
X3051222D1*
X3170060D2*
X3392613D1*
X3976170D2*
X4002270D1*
X4085130D2*
X4522090D1*
X4640201D2*
X4661777D1*
X4713138D2*
X4734691D1*
X1236302Y3008024D2*
X1318019D1*
X1369381D2*
X1418027D1*
X1521747D2*
X1749457D1*
X2019373D2*
X2068019D1*
X2219388D2*
X2596441D1*
X2687318D2*
X2925270D1*
X2946326D2*
X3049066D1*
X3158224D2*
X3248661D1*
X3976170D2*
X3996669D1*
X4090731D2*
X4522090D1*
X4640201D2*
X4653738D1*
X4721178D2*
X4734691D1*
X1236302Y2996155D2*
X1318019D1*
X1369381D2*
X1418027D1*
X1521747D2*
X1761340D1*
X2019373D2*
X2068019D1*
X2219388D2*
X2608301D1*
X2699178D2*
X3049019D1*
X3146342D2*
X3248661D1*
X3986693D2*
X3994558D1*
X4092842D2*
X4522090D1*
X4640201D2*
X4648770D1*
X4726123D2*
X4734695D1*
X1236302Y2984287D2*
X1318019D1*
X1369381D2*
X1418027D1*
X1521747D2*
X1765653D1*
X2019373D2*
X2068019D1*
X2219388D2*
X2620183D1*
X2711060D2*
X3049019D1*
X3138373D2*
X3248661D1*
X4091974D2*
X4522090D1*
X4640201D2*
X4647902D1*
X4726990D2*
X4829801D1*
X1236302Y2972418D2*
X1318019D1*
X1369381D2*
X1418027D1*
X1570522D2*
X1765653D1*
X2019373D2*
X2068019D1*
X2219388D2*
X2632043D1*
X2722919D2*
X3049019D1*
X3138373D2*
X3248661D1*
X3794951D2*
X3801481D1*
X4087919D2*
X4522090D1*
X4640201D2*
X4650833D1*
X4724083D2*
X4841661D1*
X1236302Y2960549D2*
X1318019D1*
X1369381D2*
X1418027D1*
X1579498D2*
X1765653D1*
X2019373D2*
X2068019D1*
X2219388D2*
X2643926D1*
X2734779D2*
X3049019D1*
X3138373D2*
X3248661D1*
X3794951D2*
X3813340D1*
X4079623D2*
X4522090D1*
X4640201D2*
X4658730D1*
X4716162D2*
X4843019D1*
X1236302Y2948680D2*
X1318019D1*
X1369381D2*
X1418027D1*
X1583060D2*
X1765653D1*
X2019373D2*
X2068019D1*
X2219388D2*
X2655785D1*
X2746662D2*
X3049019D1*
X3138373D2*
X3248661D1*
X3794951D2*
X3825199D1*
X3937123D2*
X3943312D1*
X4061552D2*
X4480886D1*
X4640201D2*
X4734691D1*
X1236302Y2936812D2*
X1318019D1*
X1369381D2*
X1418027D1*
X1582755D2*
X1765653D1*
X2019373D2*
X2068019D1*
X2219388D2*
X2667645D1*
X2758522D2*
X3049019D1*
X3138373D2*
X3248661D1*
X3794951D2*
X3837082D1*
X3937123D2*
X3955161D1*
X4066029D2*
X4471043D1*
X4640201D2*
X4734691D1*
X1236302Y2924943D2*
X1318019D1*
X1369381D2*
X1418027D1*
X1578490D2*
X1765653D1*
X2019373D2*
X2068019D1*
X2219388D2*
X2679527D1*
X2770403D2*
X3049019D1*
X3138373D2*
X3248661D1*
X3794951D2*
X3837762D1*
X3937123D2*
X3967043D1*
X4081357D2*
X4467035D1*
X4640201D2*
X4734691D1*
X1236302Y2913074D2*
X1318019D1*
X1369381D2*
X1418027D1*
X1569373D2*
X1765653D1*
X2019373D2*
X2068019D1*
X2219388D2*
X2691386D1*
X2782263D2*
X3049019D1*
X3138373D2*
X3248661D1*
X3794951D2*
X3837762D1*
X3937123D2*
X3978902D1*
X4088834D2*
X4466941D1*
X4640201D2*
X4734691D1*
X1233067Y2901205D2*
X1318019D1*
X1369381D2*
X1418027D1*
X1569373D2*
X1765653D1*
X2019373D2*
X2059629D1*
X2219388D2*
X2703270D1*
X2794123D2*
X3049019D1*
X3138373D2*
X3248661D1*
X3794951D2*
X3837762D1*
X3937123D2*
X3990762D1*
X4092326D2*
X4470738D1*
X4640201D2*
X4734691D1*
X1222403Y2889336D2*
X1318019D1*
X1369381D2*
X1418027D1*
X1569373D2*
X1765653D1*
X2019373D2*
X2054894D1*
X2219388D2*
X2715129D1*
X2806006D2*
X3049019D1*
X3138373D2*
X3248661D1*
X3794951D2*
X3837762D1*
X3937123D2*
X3994699D1*
X4092701D2*
X4480137D1*
X4532271D2*
X4843019D1*
X1210522Y2877468D2*
X1318019D1*
X1369381D2*
X1418027D1*
X1569373D2*
X1765653D1*
X2019373D2*
X2054191D1*
X2219388D2*
X2726989D1*
X2817865D2*
X3049019D1*
X3138373D2*
X3248661D1*
X3794951D2*
X3837762D1*
X3937123D2*
X3997325D1*
X4090075D2*
X4843019D1*
X1198662Y2865599D2*
X1318019D1*
X1369381D2*
X1418027D1*
X1569373D2*
X1765653D1*
X2019373D2*
X2057333D1*
X2219388D2*
X2738871D1*
X2829747D2*
X3049019D1*
X3138373D2*
X3248661D1*
X3794951D2*
X3837762D1*
X3937123D2*
X4003582D1*
X4083818D2*
X4843019D1*
X1186802Y2853730D2*
X1318019D1*
X1369381D2*
X1418027D1*
X1569373D2*
X1765653D1*
X2019373D2*
X2065558D1*
X2219388D2*
X2750730D1*
X2841607D2*
X3049019D1*
X3138373D2*
X3248661D1*
X3794951D2*
X3837762D1*
X3947178D2*
X4015910D1*
X4071490D2*
X4843019D1*
X1174919Y2841861D2*
X1318019D1*
X1369381D2*
X1418027D1*
X1569373D2*
X1765653D1*
X2019373D2*
X2118012D1*
X2219388D2*
X2762613D1*
X2853466D2*
X3049019D1*
X3138373D2*
X3248661D1*
X3794951D2*
X3837809D1*
X4050514D2*
X4843019D1*
X1176326Y2829993D2*
X1211074D1*
X1276334D2*
X1311082D1*
X1376318D2*
X1411066D1*
X1576334D2*
X1611082D1*
X1676318D2*
X1711066D1*
X2076326D2*
X2111074D1*
X2276318D2*
X2774473D1*
X2865350D2*
X3049019D1*
X3138373D2*
X3245473D1*
X3791435D2*
X3839754D1*
X4077045D2*
X4843019D1*
X1186239Y2818124D2*
X1201161D1*
X1286224D2*
X1301169D1*
X1386231D2*
X1401176D1*
X1586224D2*
X1601169D1*
X1686231D2*
X1701176D1*
X2086239D2*
X2101161D1*
X2286231D2*
X2786333D1*
X2877209D2*
X3049019D1*
X3138373D2*
X3245355D1*
X3791435D2*
X3845074D1*
X4086794D2*
X4843019D1*
X2291247Y2806255D2*
X2798214D1*
X2946842D2*
X3049019D1*
X3138373D2*
X3245074D1*
X3791435D2*
X3855129D1*
X4091739D2*
X4832941D1*
X2292911Y2794386D2*
X2810074D1*
X2946842D2*
X3049019D1*
X3138373D2*
X3245074D1*
X3791435D2*
X3867012D1*
X4093381D2*
X4821058D1*
X2291575Y2782518D2*
X2821957D1*
X2946842D2*
X3047707D1*
X3139686D2*
X3245074D1*
X3791435D2*
X3878871D1*
X4092067D2*
X4809199D1*
X1187014Y2770649D2*
X1200386D1*
X1287022D2*
X1300394D1*
X1387006D2*
X1400378D1*
X1587022D2*
X1600394D1*
X1687006D2*
X1700378D1*
X2087014D2*
X2100386D1*
X2287006D2*
X2833817D1*
X2946842D2*
X3042598D1*
X3144794D2*
X3245074D1*
X3791435D2*
X3890730D1*
X4087545D2*
X4797738D1*
X1177850Y2758780D2*
X1209550D1*
X1277834D2*
X1309558D1*
X1377842D2*
X1409566D1*
X1577834D2*
X1609558D1*
X1677842D2*
X1709566D1*
X2077850D2*
X2109550D1*
X2277842D2*
X2840566D1*
X2946842D2*
X3040629D1*
X3146787D2*
X3245074D1*
X3791435D2*
X3902613D1*
X4078522D2*
X4793169D1*
X1169388Y2746911D2*
X1218012D1*
X1269373D2*
X1318019D1*
X1369381D2*
X1418027D1*
X1569373D2*
X1618019D1*
X1669381D2*
X1731762D1*
X1755654D2*
X1765653D1*
X2069388D2*
X2118012D1*
X2269381D2*
X2840566D1*
X2946842D2*
X3041402D1*
X3146014D2*
X3245074D1*
X3791435D2*
X3923566D1*
X4057567D2*
X4792746D1*
X1169388Y2735043D2*
X1218012D1*
X1269373D2*
X1318019D1*
X1369381D2*
X1418027D1*
X1569373D2*
X1618019D1*
X1669381D2*
X1718098D1*
X2069388D2*
X2118012D1*
X2269381D2*
X2840566D1*
X2946842D2*
X3045058D1*
X3142334D2*
X3245074D1*
X3791435D2*
X3994489D1*
X4092911D2*
X4792746D1*
X1182794Y2723174D2*
X1204606D1*
X1282802D2*
X1304613D1*
X1382787D2*
X1404598D1*
X1582802D2*
X1604613D1*
X1682787D2*
X1704598D1*
X2082794D2*
X2104606D1*
X2282787D2*
X2840566D1*
X2946842D2*
X3052418D1*
X3150888D2*
X3245074D1*
X3791435D2*
X3994489D1*
X4092911D2*
X4792746D1*
X1189567Y2711305D2*
X1197833D1*
X1289552D2*
X1297840D1*
X1389560D2*
X1397848D1*
X1589552D2*
X1597840D1*
X1689560D2*
X1697848D1*
X2089567D2*
X2097833D1*
X2289560D2*
X2840566D1*
X2946842D2*
X3066363D1*
X3160357D2*
X3245074D1*
X3791435D2*
X3994489D1*
X4092911D2*
X4792746D1*
X2292560Y2699436D2*
X3017169D1*
X3164201D2*
X3245074D1*
X3791435D2*
X3994489D1*
X4092911D2*
X4792746D1*
X2292514Y2687567D2*
X3017169D1*
X3164130D2*
X3245074D1*
X3791435D2*
X3994489D1*
X4092911D2*
X4792746D1*
X1189403Y2675699D2*
X1197997D1*
X1289411D2*
X1298004D1*
X1389396D2*
X1397989D1*
X1589411D2*
X1598004D1*
X1689396D2*
X1697989D1*
X2089403D2*
X2097997D1*
X2289396D2*
X3017169D1*
X3160170D2*
X3245074D1*
X3791435D2*
X3994489D1*
X4092911D2*
X4792746D1*
X1182490Y2663830D2*
X1204910D1*
X1282474D2*
X1304918D1*
X1382482D2*
X1404926D1*
X1582474D2*
X1604918D1*
X1682482D2*
X1704926D1*
X2082490D2*
X2104910D1*
X2282482D2*
X3017169D1*
X3150419D2*
X3246902D1*
X3789607D2*
X3994489D1*
X4092911D2*
X4792746D1*
X1168615Y2651961D2*
X1211777D1*
X1268623D2*
X1318770D1*
X1368630D2*
X1418777D1*
X1568623D2*
X1618770D1*
X1668630D2*
X1718027D1*
X2081881D2*
X2118785D1*
X2268630D2*
X3017169D1*
X3119037D2*
X3954410D1*
X4092911D2*
X4792746D1*
X1128350Y2640092D2*
X1211777D1*
X1263138D2*
X1470386D1*
X1521747D2*
X1718027D1*
X2081881D2*
X2160504D1*
X2226888D2*
X3017169D1*
X3107717D2*
X3941754D1*
X4008138D2*
X4792746D1*
X1128231Y2628224D2*
X1211777D1*
X1263138D2*
X1470386D1*
X1521747D2*
X1717394D1*
X2081881D2*
X2155207D1*
X2232186D2*
X3017169D1*
X3107717D2*
X3936457D1*
X4013435D2*
X4792746D1*
X1128138Y2616355D2*
X1211777D1*
X1263138D2*
X1470386D1*
X1521747D2*
X1705535D1*
X2081881D2*
X2154082D1*
X2233310D2*
X3017169D1*
X3107717D2*
X3935333D1*
X4014560D2*
X4792746D1*
X1128022Y2604486D2*
X1211777D1*
X1263138D2*
X1470386D1*
X1521747D2*
X1693676D1*
X2081881D2*
X2156730D1*
X2230662D2*
X3937981D1*
X4011911D2*
X4792746D1*
X1127927Y2592617D2*
X1211777D1*
X1263138D2*
X1470386D1*
X1521747D2*
X1681793D1*
X2081881D2*
X2164207D1*
X2223186D2*
X3945457D1*
X4004435D2*
X4792746D1*
X1127810Y2580749D2*
X1211777D1*
X1263138D2*
X1461012D1*
X1531123D2*
X1669934D1*
X2081881D2*
X2186145D1*
X2201247D2*
X3094606D1*
X3117794D2*
X3949277D1*
X4000638D2*
X4792746D1*
X1127693Y2568880D2*
X1211777D1*
X1263138D2*
X1456934D1*
X1535201D2*
X1658050D1*
X2081881D2*
X3075902D1*
X3136498D2*
X3949277D1*
X4000638D2*
X4792746D1*
X1127599Y2557011D2*
X1211777D1*
X1263138D2*
X1456770D1*
X1535365D2*
X1646191D1*
X2081881D2*
X3068894D1*
X3143506D2*
X3949277D1*
X4000638D2*
X4792746D1*
X1127482Y2545142D2*
X1211777D1*
X1263138D2*
X1460497D1*
X1531638D2*
X1634871D1*
X2081881D2*
X3066550D1*
X3145850D2*
X3949277D1*
X4000638D2*
X4792746D1*
X1127388Y2533273D2*
X1211777D1*
X1263138D2*
X1469777D1*
X1522357D2*
X1630606D1*
X2081881D2*
X3067957D1*
X3152435D2*
X3383894D1*
X3440998D2*
X3949277D1*
X4000638D2*
X4727661D1*
X4784739D2*
X4792746D1*
X1127271Y2521405D2*
X1211777D1*
X1263138D2*
X1630512D1*
X2081881D2*
X2240801D1*
X2296615D2*
X3073629D1*
X3164318D2*
X3375902D1*
X3448990D2*
X3949277D1*
X4000638D2*
X4719645D1*
X1127178Y2509536D2*
X1211777D1*
X1263138D2*
X1630512D1*
X2081881D2*
X2232434D1*
X2304982D2*
X3087293D1*
X3176178D2*
X3372926D1*
X3451990D2*
X3949277D1*
X4000638D2*
X4716669D1*
X1127060Y2497667D2*
X1210910D1*
X1263982D2*
X1630512D1*
X2081881D2*
X2229222D1*
X2308170D2*
X3116402D1*
X3188060D2*
X3260918D1*
X3313990D2*
X3373722D1*
X3451170D2*
X3949277D1*
X4000638D2*
X4717489D1*
X1126966Y2485798D2*
X1201770D1*
X1273123D2*
X1630512D1*
X2081881D2*
X2229833D1*
X2312411D2*
X3128285D1*
X3199919D2*
X3251777D1*
X3323130D2*
X3378621D1*
X3446271D2*
X3949277D1*
X4000638D2*
X4722363D1*
X1126850Y2473930D2*
X1198137D1*
X1276779D2*
X1630512D1*
X2081881D2*
X2234497D1*
X2324294D2*
X3140145D1*
X3211779D2*
X3248121D1*
X3326763D2*
X3386777D1*
X3438138D2*
X3949277D1*
X4000638D2*
X4730519D1*
X1126731Y2462061D2*
X1198348D1*
X1276545D2*
X1630512D1*
X2091209D2*
X2245606D1*
X2336154D2*
X3152027D1*
X3223662D2*
X3248355D1*
X3326552D2*
X3386777D1*
X3438138D2*
X3949277D1*
X4000638D2*
X4730519D1*
X1126638Y2450192D2*
X1202519D1*
X1272396D2*
X1582886D1*
X2095334D2*
X2276378D1*
X2348037D2*
X3107894D1*
X3154522D2*
X3163886D1*
X3235522D2*
X3252504D1*
X3322381D2*
X3386777D1*
X3438138D2*
X3949277D1*
X4000638D2*
X4595378D1*
X4642006D2*
X4731270D1*
X1126522Y2438323D2*
X1212621D1*
X1262271D2*
X1571894D1*
X2095498D2*
X2288262D1*
X2359896D2*
X3096902D1*
X3165490D2*
X3175746D1*
X3247403D2*
X3261762D1*
X3313123D2*
X3386777D1*
X3438138D2*
X3949277D1*
X4000638D2*
X4584410D1*
X4652998D2*
X4738254D1*
X1201474Y2426455D2*
X1567301D1*
X2091794D2*
X2300121D1*
X2371755D2*
X2710934D1*
X2801482D2*
X3092309D1*
X3170083D2*
X3187629D1*
X3313123D2*
X3386777D1*
X3438138D2*
X3560918D1*
X3651466D2*
X3949277D1*
X4000638D2*
X4260926D1*
X4351474D2*
X4579817D1*
X4657591D2*
X4750137D1*
X1201474Y2414586D2*
X1560738D1*
X2082560D2*
X2312004D1*
X2380403D2*
X2571457D1*
X2801482D2*
X3085722D1*
X3176271D2*
X3199489D1*
X3313123D2*
X3386777D1*
X3651466D2*
X3949277D1*
X4000638D2*
X4121473D1*
X4351474D2*
X4573230D1*
X4663779D2*
X4761997D1*
X1201474Y2402717D2*
X1560738D1*
X2051482D2*
X2323863D1*
X2381881D2*
X2563418D1*
X2801482D2*
X3085722D1*
X3176271D2*
X3211371D1*
X3313123D2*
X3386777D1*
X3651466D2*
X3949277D1*
X4000638D2*
X4113434D1*
X4351474D2*
X4573230D1*
X4663779D2*
X4768019D1*
X1201474Y2390848D2*
X1560738D1*
X2051482D2*
X2330519D1*
X2381881D2*
X2560418D1*
X2801482D2*
X3085722D1*
X3176271D2*
X3223230D1*
X3313123D2*
X3386777D1*
X3651466D2*
X3949277D1*
X4000638D2*
X4110410D1*
X4351474D2*
X4573230D1*
X4663779D2*
X4768019D1*
X1201474Y2378980D2*
X1560738D1*
X2051482D2*
X2330519D1*
X2381881D2*
X2561214D1*
X2801482D2*
X3085722D1*
X3176271D2*
X3235090D1*
X3313123D2*
X3386777D1*
X3651466D2*
X3949277D1*
X4000638D2*
X4111207D1*
X4351474D2*
X4573230D1*
X4663779D2*
X4768019D1*
X2051482Y2367111D2*
X2330519D1*
X2381881D2*
X2566090D1*
X2801482D2*
X3085722D1*
X3176271D2*
X3243012D1*
X3313123D2*
X3386777D1*
X3651466D2*
X3949277D1*
X4000638D2*
X4116082D1*
X4351474D2*
X4573230D1*
X4663779D2*
X4768019D1*
X3030067Y2355242D2*
X3085722D1*
X3176271D2*
X3243012D1*
X3313123D2*
X3386777D1*
X3651466D2*
X3949277D1*
X4000638D2*
X4127707D1*
X4351474D2*
X4573230D1*
X4663779D2*
X4768019D1*
X4351474Y2343373D2*
X4573230D1*
X4663779D2*
X4768019D1*
X3330674Y3018850D2*
X3393792D1*
X3393813Y3042993D1*
X3390388Y3044638D1*
X3388043Y3046343D1*
X3385991Y3048394D1*
X3384287Y3050739D1*
X3382970Y3053323D1*
X3382074Y3056082D1*
X3381621Y3058945D1*
X3381564Y3108981D1*
X3375864Y3110658D1*
X3261108Y3110716D1*
X3258245Y3111169D1*
X3255486Y3112065D1*
X3252902Y3113381D1*
X3250557Y3115086D1*
X3248506Y3117137D1*
X3246801Y3119482D1*
X3245485Y3122066D1*
X3244588Y3124825D1*
X3244136Y3127688D1*
X3244078Y3189075D1*
X3244136Y3249326D1*
X3244588Y3252190D1*
X3245485Y3254948D1*
X3246801Y3257532D1*
X3248506Y3259877D1*
X3250557Y3261928D1*
X3252902Y3263633D1*
X3255486Y3264949D1*
X3258245Y3265846D1*
X3261108Y3266298D1*
X3322612Y3266356D1*
X3449620D1*
X3520418Y3325319D1*
X3522890Y3326835D1*
X3525569Y3327945D1*
X3528389Y3328621D1*
X3531280Y3328850D1*
X3638969Y3328792D1*
X3641833Y3328339D1*
X3644591Y3327443D1*
X3647175Y3326127D1*
X3649525Y3324418D1*
X3650018Y3324738D1*
X3649872Y3401535D1*
X3650318Y3404399D1*
X3651207Y3407161D1*
X3652516Y3409747D1*
X3654214Y3412098D1*
X3656259Y3414154D1*
X3657402Y3415058D1*
X3658598Y3418886D1*
Y3420662D1*
X3585818Y3420653D1*
X3512583Y3334783D1*
X3510376Y3332902D1*
X3507902Y3331389D1*
X3505221Y3330283D1*
X3502401Y3329609D1*
X3499510Y3329385D1*
X3276826Y3329712D1*
X3273962Y3330169D1*
X3271205Y3331069D1*
X3268624Y3332388D1*
X3266280Y3334095D1*
X3264231Y3336149D1*
X3262529Y3338497D1*
X3261217Y3341082D1*
X3260323Y3343840D1*
X3259873Y3346705D1*
X3259818Y3373833D1*
X3229099Y3373842D1*
X3204665Y3349424D1*
X3207703Y3346384D1*
X3210279Y3342839D1*
X3212268Y3338934D1*
X3213623Y3334766D1*
X3214308Y3330438D1*
X3214394Y3304734D1*
X3214308Y3281960D1*
X3213623Y3277632D1*
X3212268Y3273464D1*
X3210279Y3269558D1*
X3207703Y3266014D1*
X3204603Y3262914D1*
X3201058Y3260338D1*
X3197153Y3258348D1*
X3192985Y3256994D1*
X3188657Y3256309D1*
X3186456Y3256222D1*
X3180930Y3253823D1*
X3180796Y3046539D1*
X3179728Y3039800D1*
X3177620Y3033310D1*
X3174523Y3027231D1*
X3170512Y3021712D1*
X3159577Y3010587D1*
X3137187Y2988197D1*
X3137180Y2784599D1*
X3139983Y2779783D1*
X3141691Y2776078D1*
X3143102Y2772251D1*
X3144209Y2768326D1*
X3145004Y2764326D1*
X3145485Y2760276D1*
X3145645Y2756200D1*
X3145485Y2752124D1*
X3145004Y2748074D1*
X3144209Y2744074D1*
X3143102Y2740149D1*
X3141691Y2736322D1*
X3138388Y2729768D1*
X3142420Y2727986D1*
X3147569Y2724831D1*
X3152161Y2720910D1*
X3156082Y2716318D1*
X3159237Y2711170D1*
X3161548Y2705591D1*
X3162957Y2699720D1*
X3163431Y2693700D1*
X3162957Y2687680D1*
X3161548Y2681809D1*
X3159237Y2676230D1*
X3156082Y2671082D1*
X3152161Y2666490D1*
X3147569Y2662569D1*
X3142420Y2659414D1*
X3136842Y2657103D1*
X3130970Y2655693D1*
X3124951Y2655220D1*
X3121287Y2655415D1*
X3109600Y2643835D1*
X3108085Y2642642D1*
X3106520Y2638459D1*
Y2614443D1*
X3018378D1*
Y2710459D1*
X3069074D1*
X3063167Y2714176D1*
X3059965Y2716701D1*
X3056969Y2719469D1*
X3054201Y2722465D1*
X3051676Y2725667D1*
X3049410Y2729060D1*
X3047417Y2732617D1*
X3045709Y2736322D1*
X3044298Y2740149D1*
X3043191Y2744074D1*
X3042396Y2748074D1*
X3041915Y2752124D1*
X3041755Y2756200D1*
X3041915Y2760276D1*
X3042396Y2764326D1*
X3043191Y2768326D1*
X3044298Y2772251D1*
X3045709Y2776078D1*
X3047417Y2779783D1*
X3050216Y2784546D1*
X3050354Y3009611D1*
X3051422Y3016350D1*
X3053529Y3022839D1*
X3056627Y3028918D1*
X3060637Y3034438D1*
X3071573Y3045562D1*
X3093962Y3067952D1*
X3093969Y3256238D1*
X3079155Y3256309D1*
X3074827Y3256994D1*
X3070659Y3258348D1*
X3066754Y3260338D1*
X3063209Y3262914D1*
X3060109Y3266014D1*
X3057533Y3269558D1*
X3055544Y3273464D1*
X3054190Y3277632D1*
X3053504Y3281960D1*
X3053418Y3307663D1*
X3053504Y3330438D1*
X3054190Y3334766D1*
X3055544Y3338934D1*
X3057533Y3342839D1*
X3060109Y3346384D1*
X3063209Y3349483D1*
X3066754Y3352060D1*
X3070659Y3354049D1*
X3074827Y3355403D1*
X3079155Y3356088D1*
X3095788Y3356175D1*
X3097279Y3360338D1*
X3100376Y3366417D1*
X3104386Y3371936D1*
X3115037Y3382776D1*
X3182835Y3450385D1*
X3188355Y3454396D1*
X3194434Y3457493D1*
X3200923Y3459600D1*
X3207662Y3460669D1*
X3223124Y3460802D1*
X3259804D1*
X3259876Y3518583D1*
X3260329Y3521447D1*
X3261225Y3524205D1*
X3262541Y3526789D1*
X3264246Y3529134D1*
X3266297Y3531186D1*
X3268642Y3532890D1*
X3271226Y3534207D1*
X3273985Y3535103D1*
X3276848Y3535556D1*
X3338312Y3535613D1*
X3681225D1*
X3681235Y3621978D1*
X2355415Y3625187D1*
X2348133Y3545924D1*
X2350255Y3543336D1*
X2352819Y3539151D1*
X2354699Y3534617D1*
X2355844Y3529844D1*
X2356229Y3524941D1*
Y3337920D1*
X2886001Y2808136D1*
X2945645Y2808145D1*
Y2704255D1*
X2841755D1*
Y2763903D1*
X2323831Y3281831D1*
X2305812Y3086174D1*
X2305130Y3084426D1*
X2303943Y3082972D1*
X2302363Y3081957D1*
X2300548Y3081481D1*
X2218186Y3079709D1*
X2218180Y2834381D1*
X2221905Y2836476D1*
X2228865Y2839357D1*
X2236190Y2841116D1*
X2243700Y2841708D1*
X2251210Y2841116D1*
X2258535Y2839357D1*
X2265495Y2836476D1*
X2271918Y2832539D1*
X2277646Y2827646D1*
X2282539Y2821918D1*
X2286476Y2815495D1*
X2289357Y2808535D1*
X2291116Y2801210D1*
X2291708Y2793700D1*
X2291116Y2786190D1*
X2289357Y2778865D1*
X2286476Y2771905D1*
X2282539Y2765482D1*
X2277646Y2759754D1*
X2271918Y2754861D1*
X2268180Y2752428D1*
Y2735011D1*
X2271918Y2732539D1*
X2277646Y2727646D1*
X2282539Y2721918D1*
X2286476Y2715495D1*
X2289357Y2708535D1*
X2291116Y2701210D1*
X2291708Y2693700D1*
X2291116Y2686190D1*
X2289357Y2678865D1*
X2286476Y2671905D1*
X2282539Y2665482D1*
X2277646Y2659754D1*
X2271918Y2654861D1*
X2265495Y2650924D1*
X2258535Y2648043D1*
X2251210Y2646284D1*
X2243700Y2645692D1*
X2236190Y2646284D1*
X2228865Y2648043D1*
X2221905Y2650924D1*
X2218188Y2653053D1*
X2218180Y2648381D1*
X2220910Y2645910D1*
X2224831Y2641318D1*
X2227986Y2636170D1*
X2230297Y2630591D1*
X2231707Y2624720D1*
X2232180Y2618700D1*
X2231707Y2612680D1*
X2230297Y2606809D1*
X2227986Y2601230D1*
X2224831Y2596082D1*
X2220910Y2591490D1*
X2216318Y2587569D1*
X2211170Y2584414D1*
X2205591Y2582103D1*
X2199720Y2580693D1*
X2193700Y2580220D1*
X2187680Y2580693D1*
X2181809Y2582103D1*
X2176230Y2584414D1*
X2171082Y2587569D1*
X2166490Y2591490D1*
X2162569Y2596082D1*
X2159414Y2601230D1*
X2157103Y2606809D1*
X2155693Y2612680D1*
X2155220Y2618700D1*
X2155693Y2624720D1*
X2157103Y2630591D1*
X2159414Y2636170D1*
X2162569Y2641318D1*
X2166490Y2645910D1*
X2169218Y2648363D1*
X2169220Y2653050D1*
X2165495Y2650924D1*
X2158535Y2648043D1*
X2151210Y2646284D1*
X2143700Y2645692D1*
X2136190Y2646284D1*
X2128865Y2648043D1*
X2121905Y2650924D1*
X2115482Y2654861D1*
X2109754Y2659754D1*
X2104861Y2665482D1*
X2100924Y2671905D1*
X2098043Y2678865D1*
X2096284Y2686190D1*
X2095692Y2693700D1*
X2096284Y2701210D1*
X2098043Y2708535D1*
X2100924Y2715495D1*
X2104861Y2721918D1*
X2109754Y2727646D1*
X2115482Y2732539D1*
X2119220Y2734972D1*
Y2752389D1*
X2115482Y2754861D1*
X2109754Y2759754D1*
X2104861Y2765482D1*
X2100924Y2771905D1*
X2098043Y2778865D1*
X2096284Y2786190D1*
X2095692Y2793700D1*
X2096284Y2801210D1*
X2098043Y2808535D1*
X2100924Y2815495D1*
X2104861Y2821918D1*
X2109754Y2827646D1*
X2115482Y2832539D1*
X2119220Y2834972D1*
Y2852411D1*
X2116318Y2850069D1*
X2111170Y2846914D1*
X2105591Y2844603D1*
X2099720Y2843193D1*
X2093700Y2842720D1*
X2087680Y2843193D1*
X2081809Y2844603D1*
X2076230Y2846914D1*
X2071082Y2850069D1*
X2066490Y2853990D1*
X2062569Y2858582D1*
X2059414Y2863730D1*
X2057103Y2869309D1*
X2055693Y2875180D1*
X2055220Y2881200D1*
X2055693Y2887220D1*
X2057103Y2893091D1*
X2059414Y2898670D1*
X2062569Y2903818D1*
X2066490Y2908410D1*
X2069218Y2910863D1*
X2069220Y3071044D1*
X2063861Y3076418D1*
X1997032Y3075004D1*
X2012314Y3059599D1*
X2014573Y3056491D1*
X2016317Y3053069D1*
X2017503Y3049415D1*
X2018104Y3045621D1*
X2018180Y3013734D1*
Y2834367D1*
X2021905Y2836476D1*
X2028865Y2839357D1*
X2036190Y2841116D1*
X2043700Y2841708D1*
X2051210Y2841116D1*
X2058535Y2839357D1*
X2065495Y2836476D1*
X2071918Y2832539D1*
X2077646Y2827646D1*
X2082539Y2821918D1*
X2086476Y2815495D1*
X2089357Y2808535D1*
X2091116Y2801210D1*
X2091708Y2793700D1*
X2091116Y2786190D1*
X2089357Y2778865D1*
X2086476Y2771905D1*
X2082539Y2765482D1*
X2077646Y2759754D1*
X2071918Y2754861D1*
X2068180Y2752428D1*
Y2735011D1*
X2071918Y2732539D1*
X2077646Y2727646D1*
X2082539Y2721918D1*
X2086476Y2715495D1*
X2089357Y2708535D1*
X2091116Y2701210D1*
X2091708Y2693700D1*
X2091116Y2686190D1*
X2089357Y2678865D1*
X2086476Y2671905D1*
X2082539Y2665482D1*
X2080688Y2663134D1*
X2080680Y2473411D1*
X2085460Y2468691D1*
X2089010Y2463806D1*
X2091751Y2458426D1*
X2093617Y2452683D1*
X2094561Y2446720D1*
Y2440680D1*
X2093617Y2434717D1*
X2091751Y2428974D1*
X2089010Y2423594D1*
X2085460Y2418709D1*
X2081191Y2414440D1*
X2076306Y2410890D1*
X2070926Y2408149D1*
X2065183Y2406283D1*
X2059220Y2405339D1*
X2053180D1*
X2050263Y2405684D1*
X2050271Y2365216D1*
X2331701Y2362344D1*
X2331720Y2396046D1*
X2272384Y2455397D1*
X2268700Y2455220D1*
X2262680Y2455693D1*
X2256809Y2457103D1*
X2251230Y2459414D1*
X2246082Y2462569D1*
X2241490Y2466490D1*
X2237569Y2471082D1*
X2234414Y2476230D1*
X2232103Y2481809D1*
X2230693Y2487680D1*
X2230220Y2493700D1*
X2230693Y2499720D1*
X2232103Y2505591D1*
X2234414Y2511170D1*
X2237569Y2516318D1*
X2241490Y2520910D1*
X2246082Y2524831D1*
X2251230Y2527986D1*
X2256809Y2530297D1*
X2262680Y2531707D1*
X2268700Y2532180D1*
X2274720Y2531707D1*
X2280591Y2530297D1*
X2286170Y2527986D1*
X2291318Y2524831D1*
X2295910Y2520910D1*
X2299831Y2516318D1*
X2302986Y2511170D1*
X2305297Y2505591D1*
X2306707Y2499720D1*
X2307180Y2493700D1*
X2306985Y2490036D1*
X2374814Y2422099D1*
X2377073Y2418991D1*
X2378817Y2415567D1*
X2380003Y2411915D1*
X2380604Y2408121D1*
X2380680Y2376470D1*
Y2361822D1*
X2573095Y2359885D1*
X2570690Y2362460D1*
X2567140Y2367344D1*
X2564398Y2372725D1*
X2562532Y2378468D1*
X2561588Y2384431D1*
Y2390470D1*
X2562532Y2396434D1*
X2564398Y2402176D1*
X2567140Y2407557D1*
X2570690Y2412441D1*
X2574959Y2416710D1*
X2579843Y2420260D1*
X2585224Y2423002D1*
X2590966Y2424868D1*
X2596930Y2425812D1*
X2602969D1*
X2608932Y2424868D1*
X2614675Y2423002D1*
X2620056Y2420260D1*
X2621812Y2419087D1*
X2626230Y2421737D1*
X2631809Y2424048D1*
X2637680Y2425457D1*
X2643700Y2425931D1*
X2649720Y2425457D1*
X2655591Y2424048D1*
X2661170Y2421737D1*
X2665562Y2419087D1*
X2669980Y2421737D1*
X2675558Y2424048D1*
X2681430Y2425457D1*
X2687449Y2425931D1*
X2693469Y2425457D1*
X2699340Y2424048D1*
X2704919Y2421737D1*
X2710067Y2418582D1*
X2712134Y2416952D1*
X2712129Y2435459D1*
X2800271D1*
Y2357575D1*
X3086913Y2354650D1*
X3086932Y2416708D1*
X3092768D1*
X3092839Y2421720D1*
X3093783Y2427683D1*
X3095649Y2433426D1*
X3098390Y2438806D1*
X3101940Y2443691D1*
X3106209Y2447960D1*
X3111094Y2451510D1*
X3116474Y2454251D1*
X3122217Y2456117D1*
X3128180Y2457061D1*
X3134220D1*
X3140183Y2456117D1*
X3145926Y2454251D1*
X3151306Y2451510D1*
X3156191Y2447960D1*
X3160460Y2443691D1*
X3164010Y2438806D1*
X3166751Y2433426D1*
X3168617Y2427683D1*
X3169561Y2421720D1*
X3169602Y2416707D1*
X3175074Y2416708D1*
Y2353730D1*
X3244217Y2353048D1*
X3244220Y2371078D1*
X3109875Y2505406D1*
X3106200Y2505220D1*
X3100180Y2505693D1*
X3094309Y2507103D1*
X3088730Y2509414D1*
X3083582Y2512569D1*
X3078990Y2516490D1*
X3075069Y2521082D1*
X3071914Y2526230D1*
X3069603Y2531809D1*
X3068193Y2537680D1*
X3067720Y2543700D1*
X3068193Y2549720D1*
X3069603Y2555591D1*
X3071914Y2561170D1*
X3075069Y2566318D1*
X3078990Y2570910D1*
X3083582Y2574831D1*
X3088730Y2577986D1*
X3094309Y2580297D1*
X3100180Y2581707D1*
X3106200Y2582180D1*
X3112220Y2581707D1*
X3118091Y2580297D1*
X3123670Y2577986D1*
X3128818Y2574831D1*
X3133410Y2570910D1*
X3137331Y2566318D1*
X3140486Y2561170D1*
X3142797Y2555591D1*
X3144207Y2549720D1*
X3144680Y2543700D1*
X3144485Y2540036D1*
X3262970Y2421549D1*
X3262969Y2439004D1*
X3260239Y2441490D1*
X3256318Y2446082D1*
X3253163Y2451230D1*
X3250852Y2456809D1*
X3249443Y2462680D1*
X3248969Y2468700D1*
X3249443Y2474720D1*
X3250852Y2480591D1*
X3253163Y2486170D1*
X3256318Y2491318D1*
X3260239Y2495910D1*
X3264831Y2499831D1*
X3269980Y2502986D1*
X3275558Y2505297D1*
X3281430Y2506707D1*
X3287449Y2507180D1*
X3293469Y2506707D1*
X3299340Y2505297D1*
X3304919Y2502986D1*
X3310067Y2499831D1*
X3314659Y2495910D1*
X3318581Y2491318D1*
X3321735Y2486170D1*
X3324046Y2480591D1*
X3325456Y2474720D1*
X3325930Y2468700D1*
X3325456Y2462680D1*
X3324046Y2456809D1*
X3321735Y2451230D1*
X3318581Y2446082D1*
X3314659Y2441490D1*
X3311931Y2439037D1*
X3311930Y2352380D1*
X3387976Y2351583D1*
X3387969Y2476516D1*
X3385239Y2478990D1*
X3381318Y2483582D1*
X3378163Y2488730D1*
X3375852Y2494309D1*
X3374443Y2500180D1*
X3373969Y2506200D1*
X3374443Y2512220D1*
X3375852Y2518091D1*
X3378163Y2523670D1*
X3381318Y2528818D1*
X3385239Y2533410D1*
X3389831Y2537331D1*
X3394980Y2540486D1*
X3400558Y2542797D1*
X3406430Y2544207D1*
X3412449Y2544680D1*
X3418469Y2544207D1*
X3424340Y2542797D1*
X3429919Y2540486D1*
X3435067Y2537331D1*
X3439659Y2533410D1*
X3443581Y2528818D1*
X3446735Y2523670D1*
X3449046Y2518091D1*
X3450456Y2512220D1*
X3450930Y2506200D1*
X3450456Y2500180D1*
X3449046Y2494309D1*
X3446735Y2488730D1*
X3443581Y2483582D1*
X3439659Y2478990D1*
X3436931Y2476537D1*
X3436930Y2423680D1*
X3440968Y2424868D1*
X3446931Y2425812D1*
X3452970D1*
X3458934Y2424868D1*
X3464676Y2423002D1*
X3470057Y2420260D1*
X3471813Y2419087D1*
X3476230Y2421737D1*
X3481809Y2424048D1*
X3487680Y2425457D1*
X3493700Y2425931D1*
X3499720Y2425457D1*
X3505591Y2424048D1*
X3511170Y2421737D1*
X3515562Y2419087D1*
X3519981Y2421737D1*
X3525560Y2424048D1*
X3531431Y2425457D1*
X3537451Y2425931D1*
X3543470Y2425457D1*
X3549342Y2424048D1*
X3554920Y2421737D1*
X3560069Y2418582D1*
X3562136Y2416952D1*
X3562129Y2435459D1*
X3650271D1*
Y2348903D1*
X3950493Y2345854D1*
X3950470Y2589008D1*
X3947741Y2591490D1*
X3943819Y2596082D1*
X3940665Y2601230D1*
X3938354Y2606809D1*
X3936944Y2612680D1*
X3936470Y2618700D1*
X3936944Y2624720D1*
X3938354Y2630591D1*
X3940665Y2636170D1*
X3943819Y2641318D1*
X3947741Y2645910D1*
X3952333Y2649831D1*
X3957481Y2652986D1*
X3963060Y2655297D1*
X3968931Y2656707D1*
X3974951Y2657180D1*
X3980970Y2656707D1*
X3986842Y2655297D1*
X3992420Y2652986D1*
X3995695Y2651083D1*
X3995692Y2741716D1*
X4091708D1*
Y2645700D1*
X4002388D1*
X4006082Y2641318D1*
X4009237Y2636170D1*
X4011548Y2630591D1*
X4012957Y2624720D1*
X4013431Y2618700D1*
X4012957Y2612680D1*
X4011548Y2606809D1*
X4009237Y2601230D1*
X4006082Y2596082D1*
X4002161Y2591490D1*
X3999432Y2589037D1*
X3999431Y2345359D1*
X4133859Y2343986D1*
X4133881Y2352507D1*
X4129844Y2354641D1*
X4124960Y2358191D1*
X4120691Y2362460D1*
X4117141Y2367344D1*
X4114399Y2372725D1*
X4112533Y2378468D1*
X4111590Y2384431D1*
Y2390470D1*
X4112533Y2396434D1*
X4114399Y2402176D1*
X4117141Y2407557D1*
X4120691Y2412441D1*
X4124960Y2416710D1*
X4129844Y2420260D1*
X4135225Y2423002D1*
X4140968Y2424868D1*
X4146931Y2425812D1*
X4152970D1*
X4158934Y2424868D1*
X4164676Y2423002D1*
X4170057Y2420260D1*
X4171813Y2419087D1*
X4176230Y2421737D1*
X4181809Y2424048D1*
X4187680Y2425457D1*
X4193700Y2425931D1*
X4199720Y2425457D1*
X4205591Y2424048D1*
X4211170Y2421737D1*
X4215562Y2419087D1*
X4219980Y2421737D1*
X4225558Y2424048D1*
X4231430Y2425457D1*
X4237449Y2425931D1*
X4243469Y2425457D1*
X4249340Y2424048D1*
X4254919Y2421737D1*
X4260067Y2418582D1*
X4262134Y2416952D1*
X4262129Y2435459D1*
X4350271D1*
Y2341779D1*
X4574414Y2339498D1*
X4574432Y2416708D1*
X4580268D1*
X4580339Y2421720D1*
X4581283Y2427683D1*
X4583149Y2433426D1*
X4585890Y2438806D1*
X4589440Y2443691D1*
X4593709Y2447960D1*
X4598594Y2451510D1*
X4603974Y2454251D1*
X4609717Y2456117D1*
X4615680Y2457061D1*
X4621720D1*
X4627683Y2456117D1*
X4633426Y2454251D1*
X4638806Y2451510D1*
X4643691Y2447960D1*
X4647960Y2443691D1*
X4651510Y2438806D1*
X4654251Y2433426D1*
X4656117Y2427683D1*
X4657061Y2421720D1*
X4657102Y2416707D1*
X4662574Y2416708D1*
Y2338590D1*
X4769216Y2337514D1*
X4769220Y2408573D1*
X4737586Y2440301D1*
X4735327Y2443409D1*
X4733583Y2446833D1*
X4732397Y2450485D1*
X4731796Y2454279D1*
X4731720Y2476489D1*
X4728990Y2478990D1*
X4725069Y2483582D1*
X4721914Y2488730D1*
X4719603Y2494309D1*
X4718193Y2500180D1*
X4717720Y2506200D1*
X4718193Y2512220D1*
X4719603Y2518091D1*
X4721914Y2523670D1*
X4725069Y2528818D1*
X4728990Y2533410D1*
X4733582Y2537331D1*
X4738730Y2540486D1*
X4744309Y2542797D1*
X4750180Y2544207D1*
X4756200Y2544680D1*
X4762220Y2544207D1*
X4768091Y2542797D1*
X4773670Y2540486D1*
X4778818Y2537331D1*
X4783410Y2533410D1*
X4787331Y2528818D1*
X4790486Y2523670D1*
X4792797Y2518091D1*
X4793951Y2513504D1*
X4794060Y2751095D1*
X4794296Y2758121D1*
X4794897Y2761915D1*
X4796083Y2765567D1*
X4797827Y2768991D1*
X4800086Y2772099D1*
X4822527Y2794648D1*
X4844221Y2816340D1*
X4844220Y2894650D1*
X4735898Y2894658D1*
Y2955241D1*
X4844203D1*
X4844220Y2971057D1*
X4820615Y2994666D1*
X4735898Y2994658D1*
Y3195025D1*
X4711934Y3171064D1*
X4711930Y3017151D1*
X4714659Y3014659D1*
X4718581Y3010067D1*
X4721735Y3004919D1*
X4724046Y2999340D1*
X4725456Y2993469D1*
X4725930Y2987449D1*
X4725456Y2981430D1*
X4724046Y2975558D1*
X4721735Y2969980D1*
X4718581Y2964831D1*
X4714659Y2960239D1*
X4710067Y2956318D1*
X4704919Y2953163D1*
X4699340Y2950852D1*
X4693469Y2949443D1*
X4687449Y2948969D1*
X4681430Y2949443D1*
X4675558Y2950852D1*
X4669980Y2953163D1*
X4664831Y2956318D1*
X4660239Y2960239D1*
X4656318Y2964831D1*
X4653163Y2969980D1*
X4650852Y2975558D1*
X4649443Y2981430D1*
X4648969Y2987449D1*
X4649443Y2993469D1*
X4650852Y2999340D1*
X4653163Y3004919D1*
X4656318Y3010067D1*
X4660239Y3014659D1*
X4662968Y3017112D1*
X4663045Y3183120D1*
X4663646Y3186914D1*
X4664833Y3190567D1*
X4666577Y3193990D1*
X4668835Y3197098D1*
X4691485Y3219855D1*
X4715301Y3243564D1*
X4718409Y3245822D1*
X4721831Y3247566D1*
X4725485Y3248752D1*
X4729279Y3249354D1*
X4735915Y3249430D1*
X4735898Y3255241D1*
X4851599D1*
Y3199389D1*
X4855666Y3198752D1*
X4859319Y3197566D1*
X4862742Y3195822D1*
X4865850Y3193565D1*
X4888528Y3170993D1*
X4937319Y3122092D1*
X4937700Y3122150D1*
X4937682Y3618964D1*
X4083176Y3621023D1*
X4086476Y3615494D1*
X4089357Y3608533D1*
X4091116Y3601209D1*
X4091708Y3593699D1*
X4091116Y3586188D1*
X4089357Y3578864D1*
X4086476Y3571903D1*
X4082539Y3565481D1*
X4077646Y3559752D1*
X4071918Y3554860D1*
X4065495Y3550923D1*
X4058535Y3548041D1*
X4051210Y3546283D1*
X4043700Y3545691D1*
X4036190Y3546283D1*
X4028865Y3548041D1*
X4021905Y3550923D1*
X4015482Y3554860D1*
X4009754Y3559752D1*
X4004861Y3565481D1*
X4000924Y3571903D1*
X3998043Y3578864D1*
X3996284Y3586188D1*
X3995692Y3593699D1*
X3996284Y3601209D1*
X3998043Y3608533D1*
X4000924Y3615494D1*
X4004394Y3621218D1*
X3743802Y3621840D1*
X3743787Y3535603D1*
X3760749Y3535556D1*
X3763612Y3535103D1*
X3766371Y3534207D1*
X3768955Y3532890D1*
X3771300Y3531186D1*
X3773351Y3529134D1*
X3775056Y3526789D1*
X3776372Y3524205D1*
X3777268Y3521447D1*
X3777721Y3518583D1*
X3777779Y3514369D1*
X3850504Y3514277D1*
X3855351Y3513510D1*
X3860019Y3511994D1*
X3864392Y3509766D1*
X3868361Y3506881D1*
X3882636Y3492743D1*
X3967482Y3407762D1*
X3970367Y3403791D1*
X3972595Y3399418D1*
X3974111Y3394750D1*
X3974878Y3389903D1*
X3974976Y3369483D1*
Y3006648D1*
X3996448Y2985190D1*
X3995840Y2989941D1*
Y2997474D1*
X3997019Y3004915D1*
X3999347Y3012079D1*
X4002767Y3018792D1*
X4007195Y3024886D1*
X4012522Y3030213D1*
X4018616Y3034641D1*
X4025329Y3038061D1*
X4032493Y3040389D1*
X4039934Y3041567D1*
X4047466D1*
X4054907Y3040389D1*
X4062071Y3038061D1*
X4068784Y3034641D1*
X4074878Y3030213D1*
X4080205Y3024886D1*
X4084633Y3018792D1*
X4088053Y3012079D1*
X4090381Y3004915D1*
X4091560Y2997474D1*
Y2989941D1*
X4090381Y2982501D1*
X4088053Y2975336D1*
X4084633Y2968624D1*
X4080205Y2962529D1*
X4074878Y2957203D1*
X4068784Y2952775D1*
X4062071Y2949355D1*
X4054907Y2947027D1*
X4047466Y2945848D1*
X4039934D1*
X4035136Y2946501D1*
X4040067Y2941570D1*
X4047466Y2941567D1*
X4054907Y2940389D1*
X4062071Y2938061D1*
X4068784Y2934641D1*
X4074878Y2930213D1*
X4080205Y2924886D1*
X4084633Y2918792D1*
X4088053Y2912079D1*
X4090381Y2904915D1*
X4091560Y2897474D1*
Y2889941D1*
X4090381Y2882501D1*
X4088053Y2875336D1*
X4084633Y2868624D1*
X4080205Y2862529D1*
X4074878Y2857203D1*
X4068784Y2852775D1*
X4062071Y2849355D1*
X4054907Y2847027D1*
X4047466Y2845848D1*
X4039934D1*
X4032493Y2847027D1*
X4025329Y2849355D1*
X4018616Y2852775D1*
X4012522Y2857203D1*
X4007195Y2862529D1*
X4002767Y2868624D1*
X3999347Y2875336D1*
X3997019Y2882501D1*
X3995840Y2889941D1*
X3995835Y2897342D1*
X3935930Y2957249D1*
Y2863785D1*
X3957533Y2842178D1*
X4043700Y2842188D1*
X4051284Y2841591D1*
X4058682Y2839815D1*
X4065709Y2836903D1*
X4072196Y2832930D1*
X4077981Y2827989D1*
X4082922Y2822204D1*
X4086896Y2815717D1*
X4089808Y2808690D1*
X4091583Y2801292D1*
X4092180Y2793708D1*
X4091583Y2786124D1*
X4089808Y2778726D1*
X4086896Y2771699D1*
X4082922Y2765212D1*
X4077981Y2759427D1*
X4072196Y2754486D1*
X4065709Y2750512D1*
X4058682Y2747600D1*
X4051284Y2745825D1*
X4043700Y2745228D1*
X3933638Y2745377D1*
X3926124Y2746567D1*
X3918889Y2748918D1*
X3912111Y2752372D1*
X3905956Y2756843D1*
X3894752Y2767836D1*
X3850585Y2812214D1*
X3846113Y2818369D1*
X3842659Y2825148D1*
X3840309Y2832382D1*
X3839119Y2839897D1*
X3838969Y2855325D1*
Y2936115D1*
X3795444Y2979644D1*
X3793752Y2974716D1*
Y2835771D1*
X3790213D1*
X3790167Y2670392D1*
X3789714Y2667528D1*
X3788818Y2664770D1*
X3787502Y2662186D1*
X3785797Y2659840D1*
X3783746Y2657789D1*
X3781401Y2656085D1*
X3778817Y2654768D1*
X3776058Y2653872D1*
X3773195Y2653419D1*
X3711850Y2653361D1*
X3263294Y2653419D1*
X3260431Y2653872D1*
X3257672Y2654768D1*
X3255088Y2656085D1*
X3252743Y2657789D1*
X3250692Y2659840D1*
X3248987Y2662186D1*
X3247671Y2664770D1*
X3246775Y2667528D1*
X3246322Y2670392D1*
X3246264Y2731800D1*
X3246322Y2816292D1*
X3246674Y2818834D1*
Y2836850D1*
X3249885D1*
X3249871Y3018850D1*
X3330674D1*
X1561932Y2370169D2*
Y2416708D1*
X1567768D1*
X1567839Y2421720D1*
X1568783Y2427683D1*
X1570649Y2433426D1*
X1573390Y2438806D1*
X1576940Y2443691D1*
X1581209Y2447960D1*
X1586094Y2451510D1*
X1591474Y2454251D1*
X1597217Y2456117D1*
X1603180Y2457061D1*
X1609220D1*
X1615183Y2456117D1*
X1620926Y2454251D1*
X1626306Y2451510D1*
X1631191Y2447960D1*
X1631720Y2447472D1*
X1631796Y2533121D1*
X1632397Y2536915D1*
X1633583Y2540569D1*
X1635327Y2543991D1*
X1637586Y2547099D1*
X1659838Y2569459D1*
X1719218Y2628838D1*
X1719220Y2652393D1*
X1715482Y2654861D1*
X1709754Y2659754D1*
X1704861Y2665482D1*
X1700924Y2671905D1*
X1698043Y2678865D1*
X1696284Y2686190D1*
X1695692Y2693700D1*
X1696284Y2701210D1*
X1698043Y2708535D1*
X1700924Y2715495D1*
X1704861Y2721918D1*
X1709754Y2727646D1*
X1715482Y2732539D1*
X1721905Y2736476D1*
X1728865Y2739357D1*
X1736190Y2741116D1*
X1743700Y2741708D1*
X1751210Y2741116D1*
X1758535Y2739357D1*
X1765495Y2736476D1*
X1766869Y2735705D1*
X1766857Y2751634D1*
X1762071Y2749347D1*
X1754907Y2747019D1*
X1747466Y2745840D1*
X1739934D1*
X1732493Y2747019D1*
X1725329Y2749347D1*
X1718616Y2752767D1*
X1712522Y2757195D1*
X1707195Y2762522D1*
X1702767Y2768616D1*
X1699347Y2775329D1*
X1697019Y2782493D1*
X1695840Y2789934D1*
Y2797466D1*
X1697019Y2804907D1*
X1699347Y2812071D1*
X1702767Y2818784D1*
X1707195Y2824878D1*
X1712522Y2830205D1*
X1718616Y2834633D1*
X1725329Y2838053D1*
X1732493Y2840381D1*
X1739934Y2841560D1*
X1747466D1*
X1754907Y2840381D1*
X1762071Y2838053D1*
X1766869Y2835705D1*
X1766857Y2991822D1*
X1690222Y3068464D1*
X1520562Y3064867D1*
X1520543Y2974419D1*
X1523594Y2976510D1*
X1528974Y2979251D1*
X1534717Y2981117D1*
X1540680Y2982061D1*
X1546720D1*
X1552683Y2981117D1*
X1558426Y2979251D1*
X1563806Y2976510D1*
X1568691Y2972960D1*
X1572960Y2968691D1*
X1576510Y2963806D1*
X1579251Y2958426D1*
X1581117Y2952683D1*
X1582061Y2946720D1*
Y2940680D1*
X1581117Y2934717D1*
X1579251Y2928974D1*
X1576510Y2923594D1*
X1572960Y2918709D1*
X1568691Y2914440D1*
X1568180Y2913931D1*
Y2835016D1*
X1571918Y2832539D1*
X1577646Y2827646D1*
X1582539Y2821918D1*
X1586476Y2815495D1*
X1589357Y2808535D1*
X1591116Y2801210D1*
X1591708Y2793700D1*
X1591116Y2786190D1*
X1589357Y2778865D1*
X1586476Y2771905D1*
X1582539Y2765482D1*
X1577646Y2759754D1*
X1571918Y2754861D1*
X1568180Y2752428D1*
Y2735011D1*
X1571918Y2732539D1*
X1577646Y2727646D1*
X1582539Y2721918D1*
X1586476Y2715495D1*
X1589357Y2708535D1*
X1591116Y2701210D1*
X1591708Y2693700D1*
X1591116Y2686190D1*
X1589357Y2678865D1*
X1586476Y2671905D1*
X1582539Y2665482D1*
X1577646Y2659754D1*
X1571918Y2654861D1*
X1565495Y2650924D1*
X1558535Y2648043D1*
X1551210Y2646284D1*
X1543700Y2645692D1*
X1536190Y2646284D1*
X1528865Y2648043D1*
X1521905Y2650924D1*
X1520543Y2651615D1*
Y2592153D1*
X1523272Y2589659D1*
X1527193Y2585067D1*
X1530348Y2579919D1*
X1532659Y2574340D1*
X1534069Y2568469D1*
X1534543Y2562449D1*
X1534069Y2556430D1*
X1532659Y2550558D1*
X1530348Y2544980D1*
X1527193Y2539831D1*
X1523272Y2535239D1*
X1518680Y2531318D1*
X1513532Y2528163D1*
X1507953Y2525852D1*
X1502082Y2524443D1*
X1496062Y2523969D1*
X1490043Y2524443D1*
X1484171Y2525852D1*
X1478592Y2528163D1*
X1473444Y2531318D1*
X1468852Y2535239D1*
X1464931Y2539831D1*
X1461776Y2544980D1*
X1459465Y2550558D1*
X1458056Y2556430D1*
X1457582Y2562449D1*
X1458056Y2568469D1*
X1459465Y2574340D1*
X1461776Y2579919D1*
X1464931Y2585067D1*
X1468852Y2589659D1*
X1471581Y2592112D1*
X1471582Y2654620D1*
X1465495Y2650924D1*
X1458535Y2648043D1*
X1451210Y2646284D1*
X1443700Y2645692D1*
X1436190Y2646284D1*
X1428865Y2648043D1*
X1421905Y2650924D1*
X1415482Y2654861D1*
X1409754Y2659754D1*
X1404861Y2665482D1*
X1400924Y2671905D1*
X1398043Y2678865D1*
X1396284Y2686190D1*
X1395692Y2693700D1*
X1396284Y2701210D1*
X1398043Y2708535D1*
X1400924Y2715495D1*
X1404861Y2721918D1*
X1409754Y2727646D1*
X1415482Y2732539D1*
X1419220Y2734972D1*
Y2752389D1*
X1415482Y2754861D1*
X1409754Y2759754D1*
X1404861Y2765482D1*
X1400924Y2771905D1*
X1398043Y2778865D1*
X1396284Y2786190D1*
X1395692Y2793700D1*
X1396284Y2801210D1*
X1398043Y2808535D1*
X1400924Y2815495D1*
X1404861Y2821918D1*
X1409754Y2827646D1*
X1415482Y2832539D1*
X1419220Y2834972D1*
Y3062708D1*
X1368159Y3061624D1*
X1368180Y2834994D1*
X1371918Y2832539D1*
X1377646Y2827646D1*
X1382539Y2821918D1*
X1386476Y2815495D1*
X1389357Y2808535D1*
X1391116Y2801210D1*
X1391708Y2793700D1*
X1391116Y2786190D1*
X1389357Y2778865D1*
X1386476Y2771905D1*
X1382539Y2765482D1*
X1377646Y2759754D1*
X1371918Y2754861D1*
X1368180Y2752428D1*
Y2735011D1*
X1371918Y2732539D1*
X1377646Y2727646D1*
X1382539Y2721918D1*
X1386476Y2715495D1*
X1389357Y2708535D1*
X1391116Y2701210D1*
X1391708Y2693700D1*
X1391116Y2686190D1*
X1389357Y2678865D1*
X1386476Y2671905D1*
X1382539Y2665482D1*
X1377646Y2659754D1*
X1371918Y2654861D1*
X1365495Y2650924D1*
X1358535Y2648043D1*
X1351210Y2646284D1*
X1343700Y2645692D1*
X1336190Y2646284D1*
X1328865Y2648043D1*
X1321905Y2650924D1*
X1315482Y2654861D1*
X1309754Y2659754D1*
X1304861Y2665482D1*
X1300924Y2671905D1*
X1298043Y2678865D1*
X1296284Y2686190D1*
X1295692Y2693700D1*
X1296284Y2701210D1*
X1298043Y2708535D1*
X1300924Y2715495D1*
X1304861Y2721918D1*
X1309754Y2727646D1*
X1315482Y2732539D1*
X1319220Y2734972D1*
Y2752389D1*
X1315482Y2754861D1*
X1309754Y2759754D1*
X1304861Y2765482D1*
X1300924Y2771905D1*
X1298043Y2778865D1*
X1296284Y2786190D1*
X1295692Y2793700D1*
X1296284Y2801210D1*
X1298043Y2808535D1*
X1300924Y2815495D1*
X1304861Y2821918D1*
X1309754Y2827646D1*
X1315482Y2832539D1*
X1319220Y2834972D1*
Y3060562D1*
X1235111Y3058793D1*
X1235033Y2911464D1*
X1234432Y2907670D1*
X1233246Y2904016D1*
X1231502Y2900594D1*
X1229243Y2897486D1*
X1206785Y2874922D1*
X1168187Y2836323D1*
X1168180Y2835016D1*
X1171918Y2832539D1*
X1177646Y2827646D1*
X1182539Y2821918D1*
X1186476Y2815495D1*
X1189357Y2808535D1*
X1191116Y2801210D1*
X1191708Y2793700D1*
X1191116Y2786190D1*
X1189357Y2778865D1*
X1186476Y2771905D1*
X1182539Y2765482D1*
X1177646Y2759754D1*
X1171918Y2754861D1*
X1168180Y2752428D1*
Y2735011D1*
X1171918Y2732539D1*
X1177646Y2727646D1*
X1182539Y2721918D1*
X1186476Y2715495D1*
X1189357Y2708535D1*
X1191116Y2701210D1*
X1191708Y2693700D1*
X1191116Y2686190D1*
X1189357Y2678865D1*
X1186476Y2671905D1*
X1182539Y2665482D1*
X1177646Y2659754D1*
X1171918Y2654861D1*
X1165495Y2650924D1*
X1158535Y2648043D1*
X1151210Y2646284D1*
X1143700Y2645692D1*
X1136190Y2646284D1*
X1128865Y2648043D1*
X1127221Y2648649D1*
X1125301Y2435465D1*
X1200271Y2435457D1*
Y2373886D1*
X1561914Y2370186D1*
X4599478Y3410459D2*
X4681620D1*
Y3314443D1*
X4593478D1*
X4593469Y3318193D1*
X4587449Y3317720D1*
X4581430Y3318193D1*
X4575558Y3319603D1*
X4569980Y3321914D1*
X4564831Y3325069D1*
X4560239Y3328990D1*
X4556318Y3333582D1*
X4553163Y3338730D1*
X4550852Y3344309D1*
X4549443Y3350180D1*
X4548969Y3356200D1*
X4549443Y3362220D1*
X4550852Y3368091D1*
X4553163Y3373670D1*
X4556318Y3378818D1*
X4560239Y3383410D1*
X4564831Y3387331D1*
X4569980Y3390486D1*
X4575558Y3392797D1*
X4581430Y3394207D1*
X4587449Y3394680D1*
X4593481Y3394204D1*
X4593478Y3410459D1*
X4599478D1*
X1291560Y2689934D2*
X1290381Y2682493D1*
X1288053Y2675329D1*
X1284633Y2668616D1*
X1280205Y2662522D1*
X1274878Y2657195D1*
X1268784Y2652767D1*
X1262071Y2649347D1*
X1261931Y2645779D1*
Y2498381D1*
X1264661Y2495910D1*
X1268582Y2491318D1*
X1271737Y2486170D1*
X1274048Y2480591D1*
X1275457Y2474720D1*
X1275931Y2468700D1*
X1275457Y2462680D1*
X1274048Y2456809D1*
X1271737Y2451230D1*
X1268582Y2446082D1*
X1264661Y2441490D1*
X1260069Y2437569D1*
X1254920Y2434414D1*
X1249342Y2432103D1*
X1243470Y2430693D1*
X1237451Y2430220D1*
X1231431Y2430693D1*
X1225560Y2432103D1*
X1219981Y2434414D1*
X1214833Y2437569D1*
X1210241Y2441490D1*
X1206319Y2446082D1*
X1203165Y2451230D1*
X1200854Y2456809D1*
X1199444Y2462680D1*
X1198970Y2468700D1*
X1199444Y2474720D1*
X1200854Y2480591D1*
X1203165Y2486170D1*
X1206319Y2491318D1*
X1210241Y2495910D1*
X1212969Y2498363D1*
X1212970Y2656801D1*
X1209754Y2659754D1*
X1204861Y2665482D1*
X1200924Y2671905D1*
X1198043Y2678865D1*
X1196284Y2686190D1*
X1195692Y2693700D1*
X1196284Y2701210D1*
X1198043Y2708535D1*
X1200924Y2715495D1*
X1204861Y2721918D1*
X1209754Y2727646D1*
X1215482Y2732539D1*
X1219220Y2734972D1*
Y2752389D1*
X1215482Y2754861D1*
X1209754Y2759754D1*
X1204861Y2765482D1*
X1200924Y2771905D1*
X1198043Y2778865D1*
X1196284Y2786190D1*
X1195692Y2793700D1*
X1196284Y2801210D1*
X1198043Y2808535D1*
X1200924Y2815495D1*
X1204861Y2821918D1*
X1209754Y2827646D1*
X1215482Y2832539D1*
X1221905Y2836476D1*
X1228865Y2839357D1*
X1236190Y2841116D1*
X1243700Y2841708D1*
X1251210Y2841116D1*
X1258535Y2839357D1*
X1265495Y2836476D1*
X1271918Y2832539D1*
X1277646Y2827646D1*
X1282539Y2821918D1*
X1286476Y2815495D1*
X1289357Y2808535D1*
X1291116Y2801210D1*
X1291708Y2793700D1*
X1291116Y2786190D1*
X1289357Y2778865D1*
X1286476Y2771905D1*
X1282539Y2765482D1*
X1277646Y2759754D1*
X1271918Y2754861D1*
X1268180Y2752428D1*
Y2735011D1*
X1271918Y2732539D1*
X1277646Y2727646D1*
X1282539Y2721918D1*
X1286476Y2715495D1*
X1289357Y2708535D1*
X1291116Y2701210D1*
X1291708Y2693700D1*
X1291560Y2689934D1*
X1691560D2*
X1690381Y2682493D1*
X1688053Y2675329D1*
X1684633Y2668616D1*
X1680205Y2662522D1*
X1674878Y2657195D1*
X1668784Y2652767D1*
X1662071Y2649347D1*
X1654907Y2647019D1*
X1647466Y2645840D1*
X1639934D1*
X1632493Y2647019D1*
X1625329Y2649347D1*
X1618616Y2652767D1*
X1612522Y2657195D1*
X1607195Y2662522D1*
X1602767Y2668616D1*
X1599347Y2675329D1*
X1597019Y2682493D1*
X1595840Y2689934D1*
Y2697466D1*
X1597019Y2704907D1*
X1599347Y2712071D1*
X1602767Y2718784D1*
X1607195Y2724878D1*
X1612522Y2730205D1*
X1618616Y2734633D1*
X1619220Y2734972D1*
Y2752389D1*
X1615482Y2754861D1*
X1609754Y2759754D1*
X1604861Y2765482D1*
X1600924Y2771905D1*
X1598043Y2778865D1*
X1596284Y2786190D1*
X1595692Y2793700D1*
X1596284Y2801210D1*
X1598043Y2808535D1*
X1600924Y2815495D1*
X1604861Y2821918D1*
X1609754Y2827646D1*
X1615482Y2832539D1*
X1621905Y2836476D1*
X1628865Y2839357D1*
X1636190Y2841116D1*
X1643700Y2841708D1*
X1651210Y2841116D1*
X1658535Y2839357D1*
X1665495Y2836476D1*
X1671918Y2832539D1*
X1677646Y2827646D1*
X1682539Y2821918D1*
X1686476Y2815495D1*
X1689357Y2808535D1*
X1691116Y2801210D1*
X1691708Y2793700D1*
X1691116Y2786190D1*
X1689357Y2778865D1*
X1686476Y2771905D1*
X1682539Y2765482D1*
X1677646Y2759754D1*
X1671918Y2754861D1*
X1668180Y2752428D1*
Y2735011D1*
X1671918Y2732539D1*
X1677646Y2727646D1*
X1682539Y2721918D1*
X1686476Y2715495D1*
X1689357Y2708535D1*
X1691116Y2701210D1*
X1691708Y2693700D1*
X1691560Y2689934D1*
X4091560Y3089941D2*
X4090381Y3082501D1*
X4088053Y3075336D1*
X4084633Y3068624D1*
X4080205Y3062529D1*
X4074878Y3057203D1*
X4068784Y3052775D1*
X4062071Y3049355D1*
X4054907Y3047027D1*
X4047466Y3045848D1*
X4039934D1*
X4032493Y3047027D1*
X4025329Y3049355D1*
X4018616Y3052775D1*
X4012522Y3057203D1*
X4007195Y3062529D1*
X4002767Y3068624D1*
X3999347Y3075336D1*
X3997019Y3082501D1*
X3995840Y3089941D1*
Y3097474D1*
X3997019Y3104915D1*
X3999347Y3112079D1*
X4002767Y3118792D1*
X4007195Y3124886D1*
X4012522Y3130213D1*
X4018616Y3134641D1*
X4025329Y3138061D1*
X4032493Y3140389D1*
X4039934Y3141567D1*
X4047466D1*
X4054907Y3140389D1*
X4062071Y3138061D1*
X4068784Y3134641D1*
X4074878Y3130213D1*
X4080205Y3124886D1*
X4084633Y3118792D1*
X4088053Y3112079D1*
X4090381Y3104915D1*
X4091560Y3097474D1*
Y3089941D1*
Y3189941D2*
X4090381Y3182501D1*
X4088053Y3175336D1*
X4084633Y3168624D1*
X4080205Y3162529D1*
X4074878Y3157203D1*
X4068784Y3152775D1*
X4062071Y3149355D1*
X4054907Y3147027D1*
X4047466Y3145848D1*
X4039934D1*
X4032493Y3147027D1*
X4025329Y3149355D1*
X4018616Y3152775D1*
X4012522Y3157203D1*
X4007195Y3162529D1*
X4002767Y3168624D1*
X3999347Y3175336D1*
X3997019Y3182501D1*
X3995840Y3189941D1*
Y3197474D1*
X3997019Y3204915D1*
X3999347Y3212079D1*
X4002767Y3218792D1*
X4007195Y3224886D1*
X4012522Y3230213D1*
X4018616Y3234641D1*
X4025329Y3238061D1*
X4032493Y3240389D1*
X4039934Y3241567D1*
X4047466D1*
X4054907Y3240389D1*
X4062071Y3238061D1*
X4068784Y3234641D1*
X4074878Y3230213D1*
X4080205Y3224886D1*
X4084633Y3218792D1*
X4088053Y3212079D1*
X4090381Y3204915D1*
X4091560Y3197474D1*
Y3189941D1*
X4084972Y3269228D2*
X4082539Y3265490D1*
X4077646Y3259762D1*
X4071918Y3254869D1*
X4065495Y3250932D1*
X4058535Y3248050D1*
X4051210Y3246292D1*
X4043700Y3245700D1*
X4036190Y3246292D1*
X4028865Y3248050D1*
X4021905Y3250932D1*
X4015482Y3254869D1*
X4009754Y3259762D1*
X4004861Y3265490D1*
X4000924Y3271913D1*
X3998043Y3278873D1*
X3996284Y3286197D1*
X3995692Y3293708D1*
X3996284Y3301218D1*
X3998043Y3308543D1*
X4000924Y3315503D1*
X4004861Y3321926D1*
X4009754Y3327654D1*
X4015482Y3332546D1*
X4021905Y3336483D1*
X4028865Y3339365D1*
X4036190Y3341124D1*
X4043700Y3341716D1*
X4051210Y3341124D1*
X4058535Y3339365D1*
X4065495Y3336483D1*
X4071918Y3332546D1*
X4077646Y3327654D1*
X4082539Y3321926D1*
X4084972Y3318188D1*
X4358128Y3318112D1*
X4361922Y3317511D1*
X4365575Y3316325D1*
X4368998Y3314581D1*
X4372106Y3312323D1*
X4379759Y3304775D1*
X4382254Y3301854D1*
X4384262Y3298579D1*
X4385731Y3295029D1*
X4386628Y3291294D1*
X4386930Y3287457D1*
Y3185897D1*
X4389659Y3183410D1*
X4393581Y3178818D1*
X4396735Y3173670D1*
X4399046Y3168091D1*
X4400468Y3162115D1*
X4400545Y3226871D1*
X4401146Y3230665D1*
X4402333Y3234318D1*
X4404077Y3237741D1*
X4406334Y3240848D1*
X4428776Y3263397D1*
X4459050Y3293565D1*
X4462158Y3295822D1*
X4465581Y3297566D1*
X4469234Y3298752D1*
X4473028Y3299354D1*
X4504850Y3299430D1*
X4523294D1*
X4523300Y3305241D1*
X4639001D1*
Y2894658D1*
X4536226D1*
X4533410Y2891490D1*
X4528818Y2887569D1*
X4523670Y2884414D1*
X4518091Y2882103D1*
X4512220Y2880693D1*
X4506200Y2880220D1*
X4500180Y2880693D1*
X4494309Y2882103D1*
X4488730Y2884414D1*
X4483582Y2887569D1*
X4478990Y2891490D1*
X4475069Y2896082D1*
X4471914Y2901230D1*
X4469603Y2906809D1*
X4468193Y2912680D1*
X4467720Y2918700D1*
X4468193Y2924720D1*
X4469603Y2930591D1*
X4471914Y2936170D1*
X4475069Y2941318D1*
X4478990Y2945910D1*
X4483582Y2949831D1*
X4488730Y2952986D1*
X4494309Y2955297D1*
X4500180Y2956707D1*
X4506200Y2957180D1*
X4512220Y2956707D1*
X4518091Y2955297D1*
X4523294Y2953159D1*
X4523300Y3125619D1*
X4520057Y3123390D1*
X4514676Y3120649D1*
X4508934Y3118783D1*
X4502970Y3117839D1*
X4496931D1*
X4490968Y3118783D1*
X4485225Y3120649D1*
X4479844Y3123390D1*
X4474960Y3126940D1*
X4470691Y3131209D1*
X4467141Y3136094D1*
X4464399Y3141474D1*
X4462533Y3147217D1*
X4461590Y3153180D1*
Y3159220D1*
X4462533Y3165183D1*
X4464399Y3170926D1*
X4467141Y3176306D1*
X4470691Y3181191D1*
X4474709Y3185228D1*
X4471083Y3187569D1*
X4466491Y3191490D1*
X4462570Y3196082D1*
X4459415Y3201230D1*
X4457104Y3206809D1*
X4455695Y3212680D1*
X4455221Y3218700D1*
X4455298Y3220670D1*
X4449428Y3214808D1*
X4449430Y3123382D1*
X4452159Y3120918D1*
X4456081Y3116326D1*
X4459235Y3111178D1*
X4461546Y3105599D1*
X4462956Y3099728D1*
X4463430Y3093708D1*
X4462956Y3087688D1*
X4461546Y3081817D1*
X4459235Y3076238D1*
X4456081Y3071090D1*
X4452159Y3066498D1*
X4447567Y3062577D1*
X4442419Y3059422D1*
X4436840Y3057111D1*
X4430969Y3055701D1*
X4424949Y3055228D1*
X4418930Y3055701D1*
X4413058Y3057111D1*
X4407480Y3059422D1*
X4402331Y3062577D1*
X4397739Y3066498D1*
X4393818Y3071090D1*
X4390663Y3076238D1*
X4388352Y3081817D1*
X4386943Y3087688D1*
X4386469Y3093708D1*
X4386943Y3099728D1*
X4388352Y3105599D1*
X4390663Y3111178D1*
X4393818Y3116326D1*
X4397739Y3120918D1*
X4400468Y3123371D1*
X4400456Y3150180D1*
X4399046Y3144309D1*
X4396735Y3138730D1*
X4393581Y3133582D1*
X4389659Y3128990D1*
X4385067Y3125069D1*
X4379919Y3121914D1*
X4374340Y3119603D1*
X4368469Y3118193D1*
X4362449Y3117720D1*
X4356430Y3118193D1*
X4350558Y3119603D1*
X4344980Y3121914D1*
X4339831Y3125069D1*
X4335239Y3128990D1*
X4331318Y3133582D1*
X4328163Y3138730D1*
X4325852Y3144309D1*
X4324443Y3150180D1*
X4323969Y3156200D1*
X4324443Y3162220D1*
X4325852Y3168091D1*
X4328163Y3173670D1*
X4331318Y3178818D1*
X4335239Y3183410D1*
X4337968Y3185863D1*
X4337969Y3269205D1*
X4085002Y3269228D1*
X4091560Y3389941D2*
X4090381Y3382501D1*
X4088053Y3375336D1*
X4084633Y3368624D1*
X4080205Y3362529D1*
X4074878Y3357203D1*
X4068784Y3352775D1*
X4062071Y3349355D1*
X4054907Y3347027D1*
X4047466Y3345848D1*
X4039934D1*
X4032493Y3347027D1*
X4025329Y3349355D1*
X4018616Y3352775D1*
X4012522Y3357203D1*
X4007195Y3362529D1*
X4002767Y3368624D1*
X3999347Y3375336D1*
X3997019Y3382501D1*
X3995840Y3389941D1*
Y3397474D1*
X3997019Y3404915D1*
X3999347Y3412079D1*
X4002767Y3418792D1*
X4007195Y3424886D1*
X4012522Y3430213D1*
X4018616Y3434641D1*
X4025329Y3438061D1*
X4032493Y3440389D1*
X4039934Y3441567D1*
X4047466D1*
X4054907Y3440389D1*
X4062071Y3438061D1*
X4068784Y3434641D1*
X4074878Y3430213D1*
X4080205Y3424886D1*
X4084633Y3418792D1*
X4088053Y3412079D1*
X4090381Y3404915D1*
X4091560Y3397474D1*
Y3389941D1*
Y3489932D2*
X4090381Y3482491D1*
X4088053Y3475327D1*
X4084633Y3468615D1*
X4080205Y3462520D1*
X4074878Y3457193D1*
X4068784Y3452766D1*
X4062071Y3449346D1*
X4054907Y3447018D1*
X4047466Y3445839D1*
X4039934D1*
X4032493Y3447018D1*
X4025329Y3449346D1*
X4018616Y3452766D1*
X4012522Y3457193D1*
X4007195Y3462520D1*
X4002767Y3468615D1*
X3999347Y3475327D1*
X3997019Y3482491D1*
X3995840Y3489932D1*
Y3497465D1*
X3997019Y3504906D1*
X3999347Y3512070D1*
X4002767Y3518783D1*
X4007195Y3524877D1*
X4012522Y3530204D1*
X4018616Y3534632D1*
X4025329Y3538052D1*
X4032493Y3540380D1*
X4039934Y3541558D1*
X4047466D1*
X4054907Y3540380D1*
X4062071Y3538052D1*
X4068784Y3534632D1*
X4074878Y3530204D1*
X4080205Y3524877D1*
X4084633Y3518783D1*
X4088053Y3512070D1*
X4090381Y3504906D1*
X4091560Y3497465D1*
Y3489932D1*
X2860504Y3289663D2*
X2860591Y3330438D1*
X2861276Y3334766D1*
X2862630Y3338934D1*
X2864620Y3342839D1*
X2867196Y3346384D1*
X2870296Y3349483D1*
X2873840Y3352060D1*
X2877746Y3354049D1*
X2881914Y3355403D1*
X2884073Y3355833D1*
X2885890Y3357557D1*
X2889440Y3362441D1*
X2893709Y3366710D1*
X2898594Y3370260D1*
X2903974Y3373002D1*
X2909717Y3374868D1*
X2915680Y3375812D1*
X2921720D1*
X2927683Y3374868D1*
X2933426Y3373002D1*
X2938806Y3370260D1*
X2940562Y3369087D1*
X2944980Y3371737D1*
X2950558Y3374048D1*
X2956430Y3375457D1*
X2962449Y3375931D1*
X2968469Y3375457D1*
X2974340Y3374048D1*
X2979919Y3371737D1*
X2985067Y3368582D1*
X2989659Y3364661D1*
X2993581Y3360069D1*
X2996095Y3356064D1*
X3000071Y3355403D1*
X3004239Y3354049D1*
X3008145Y3352060D1*
X3011690Y3349483D1*
X3014789Y3346384D1*
X3017365Y3342839D1*
X3019355Y3338934D1*
X3020709Y3334766D1*
X3021394Y3330438D1*
X3021481Y3304734D1*
X3021394Y3281960D1*
X3020709Y3277632D1*
X3019355Y3273464D1*
X3017365Y3269558D1*
X3014789Y3266014D1*
X3011690Y3262914D1*
X3008145Y3260338D1*
X3004239Y3258348D1*
X3000071Y3256994D1*
X2997913Y3256565D1*
X2995259Y3254844D1*
X2991709Y3249960D1*
X2987440Y3245691D1*
X2982556Y3242141D1*
X2977175Y3239399D1*
X2971432Y3237533D1*
X2965469Y3236590D1*
X2959430D1*
X2953466Y3237533D1*
X2947724Y3239399D1*
X2942343Y3242141D1*
X2940587Y3243314D1*
X2936170Y3240665D1*
X2930591Y3238354D1*
X2924720Y3236944D1*
X2918700Y3236470D1*
X2912680Y3236944D1*
X2906809Y3238354D1*
X2901230Y3240665D1*
X2896082Y3243819D1*
X2891490Y3247741D1*
X2887569Y3252333D1*
X2884997Y3256441D1*
X2881914Y3256994D1*
X2877746Y3258348D1*
X2873840Y3260338D1*
X2870296Y3262914D1*
X2867196Y3266014D1*
X2864620Y3269558D1*
X2862630Y3273464D1*
X2861276Y3277632D1*
X2860591Y3281960D1*
X2860504Y3289663D1*
X2892947Y3155522D2*
X2986899D1*
Y3047695D1*
X2974220D1*
X2974151Y3042338D1*
X2973208Y3036375D1*
X2971342Y3030632D1*
X2968600Y3025251D1*
X2965050Y3020367D1*
X2960781Y3016098D1*
X2955897Y3012548D1*
X2950516Y3009806D1*
X2944773Y3007940D1*
X2938810Y3006997D1*
X2932771D1*
X2926808Y3007940D1*
X2921065Y3009806D1*
X2915684Y3012548D1*
X2910800Y3016098D1*
X2906531Y3020367D1*
X2902981Y3025251D1*
X2900239Y3030632D1*
X2898373Y3036375D1*
X2897430Y3042338D1*
X2897403Y3047704D1*
X2886947Y3047695D1*
Y3155522D1*
X2892947D1*
X3262968Y2439037D2*
X3260239Y2441490D1*
X3256318Y2446082D1*
X3253163Y2451230D1*
X3250852Y2456809D1*
X3249443Y2462680D1*
X3248969Y2468700D1*
X3249443Y2474720D1*
X3250852Y2480591D1*
X3253163Y2486170D1*
X3256318Y2491318D1*
X3260239Y2495910D1*
X3264831Y2499831D1*
X3269980Y2502986D1*
X3275558Y2505297D1*
X3281430Y2506707D1*
X3287449Y2507180D1*
X3293469Y2506707D1*
X3299340Y2505297D1*
X3304919Y2502986D1*
X3310067Y2499831D1*
X3314659Y2495910D1*
X3318581Y2491318D1*
X3321735Y2486170D1*
X3324046Y2480591D1*
X3325456Y2474720D1*
X3325930Y2468700D1*
X3325456Y2462680D1*
X3324046Y2456809D1*
X3321735Y2451230D1*
X3318581Y2446082D1*
X3314659Y2441490D1*
X3311931Y2439037D1*
X4731718Y2476537D2*
X4728990Y2478990D1*
X4725069Y2483582D1*
X4721914Y2488730D1*
X4719603Y2494309D1*
X4718193Y2500180D1*
X4717720Y2506200D1*
X4718193Y2512220D1*
X4719603Y2518091D1*
X4721914Y2523670D1*
X4725069Y2528818D1*
X4728990Y2533410D1*
X4733582Y2537331D1*
X4738730Y2540486D1*
X4744309Y2542797D1*
X4750180Y2544207D1*
X4756200Y2544680D1*
X4762220Y2544207D1*
X4768091Y2542797D1*
X4773670Y2540486D1*
X4778818Y2537331D1*
X4783410Y2533410D1*
X4787331Y2528818D1*
X4790486Y2523670D1*
X4792797Y2518091D1*
X4793951Y2513504D1*
X495262Y2868081D2*
D24*
X598389D1*
X495262Y2855212D2*
X598389D1*
X495262Y2842343D2*
X532982D1*
X554422D2*
X598389D1*
X495262Y2829474D2*
X508125D1*
X579280D2*
X598389D1*
X588928Y2816606D2*
X598389D1*
X495262Y2765130D2*
X501920D1*
X585474D2*
X598389D1*
X495262Y2752262D2*
X515234D1*
X572170D2*
X598389D1*
X495262Y2739393D2*
X523233D1*
X564172D2*
X598389D1*
X495262Y2726524D2*
X505268D1*
X582124D2*
X598389D1*
X590350Y2713655D2*
X597043D1*
X495262Y2662180D2*
X504153D1*
X583241D2*
X598389D1*
X495262Y2649312D2*
X520389D1*
X567016D2*
X598389D1*
X495262Y2636443D2*
X598389D1*
X495262Y2623574D2*
X598389D1*
X495262Y2610705D2*
X598389D1*
X593095Y2689813D2*
X591878Y2682133D1*
X589476Y2674739D1*
X585947Y2667812D1*
X581376Y2661522D1*
X575878Y2656024D1*
X569588Y2651453D1*
X562661Y2647924D1*
X555267Y2645522D1*
X547587Y2644305D1*
X539813D1*
X532133Y2645522D1*
X524739Y2647924D1*
X517812Y2651453D1*
X511522Y2656024D1*
X506024Y2661522D1*
X501453Y2667812D1*
X497924Y2674739D1*
X495522Y2682133D1*
X494305Y2689813D1*
Y2697587D1*
X495522Y2705267D1*
X497924Y2712661D1*
X501453Y2719588D1*
X506024Y2725878D1*
X511522Y2731376D1*
X517812Y2735947D1*
X524739Y2739476D1*
X532133Y2741878D1*
X539813Y2743095D1*
X547587D1*
X555267Y2741878D1*
X562661Y2739476D1*
X569588Y2735947D1*
X575878Y2731376D1*
X581376Y2725878D1*
X585947Y2719588D1*
X589476Y2712661D1*
X591878Y2705267D1*
X593095Y2697587D1*
Y2689813D1*
X599693Y2670955D2*
X597924Y2674739D1*
X595522Y2682133D1*
X594305Y2689813D1*
Y2697587D1*
X595522Y2705267D1*
X597924Y2712661D1*
X599693Y2716445D1*
X599553Y2771205D1*
X596578Y2778389D1*
X594763Y2785949D1*
X594153Y2793700D1*
X594763Y2801451D1*
X596578Y2809011D1*
X599553Y2816195D1*
X599700Y2820983D1*
X599603Y2880949D1*
X493952D1*
X493949Y2600573D1*
X599717Y2606117D1*
X599700Y2670899D1*
X593095Y2789813D2*
X591878Y2782133D1*
X589476Y2774739D1*
X585947Y2767812D1*
X581376Y2761522D1*
X575878Y2756024D1*
X569588Y2751453D1*
X562661Y2747924D1*
X555267Y2745522D1*
X547587Y2744305D1*
X539813D1*
X532133Y2745522D1*
X524739Y2747924D1*
X517812Y2751453D1*
X511522Y2756024D1*
X506024Y2761522D1*
X501453Y2767812D1*
X497924Y2774739D1*
X495522Y2782133D1*
X494305Y2789813D1*
Y2797587D1*
X495522Y2805267D1*
X497924Y2812661D1*
X501453Y2819588D1*
X506024Y2825878D1*
X511522Y2831376D1*
X517812Y2835947D1*
X524739Y2839476D1*
X532133Y2841878D1*
X539813Y2843095D1*
X547587D1*
X555267Y2841878D1*
X562661Y2839476D1*
X569588Y2835947D1*
X575878Y2831376D1*
X581376Y2825878D1*
X585947Y2819588D1*
X589476Y2812661D1*
X591878Y2805267D1*
X593095Y2797587D1*
Y2789813D1*
X489012Y3874331D2*
X598411D1*
X489012Y3861462D2*
X598411D1*
X489012Y3848594D2*
X598411D1*
X494548Y3835725D2*
X516145D1*
X571252D2*
X598411D1*
X494548Y3822856D2*
X502333D1*
X585065D2*
X598411D1*
X589229Y3771381D2*
X598157D1*
X494548Y3758512D2*
X507512D1*
X579886D2*
X598411D1*
X494548Y3745644D2*
X530339D1*
X557060D2*
X598411D1*
X494548Y3732775D2*
X511930D1*
X575468D2*
X598411D1*
X587046Y3719906D2*
X598411D1*
X587630Y3668431D2*
X598411D1*
X494548Y3655562D2*
X510762D1*
X576636D2*
X598411D1*
X489012Y3642693D2*
X598411D1*
X489012Y3629825D2*
X598411D1*
X487717Y3843247D2*
X493247D1*
Y3744153D1*
X487687D1*
X491653Y3743247D1*
X493247D1*
Y3644153D1*
X487687D1*
X487700Y3618955D1*
X599701Y3618949D1*
X599553Y3671205D1*
X596578Y3678389D1*
X594763Y3685949D1*
X594153Y3693700D1*
X594763Y3701451D1*
X596578Y3709011D1*
X599553Y3716195D1*
X599700Y3722842D1*
X599553Y3771205D1*
X596578Y3778389D1*
X594763Y3785949D1*
X594153Y3793700D1*
X594763Y3801451D1*
X596578Y3809011D1*
X599553Y3816195D1*
X599700Y3820342D1*
Y3887195D1*
X487699Y3887200D1*
X487700Y3843255D1*
X593095Y3789813D2*
X591878Y3782133D1*
X589476Y3774739D1*
X585947Y3767812D1*
X581376Y3761522D1*
X575878Y3756024D1*
X569588Y3751453D1*
X562661Y3747924D1*
X555267Y3745522D1*
X547587Y3744305D1*
X539813D1*
X532133Y3745522D1*
X524739Y3747924D1*
X517812Y3751453D1*
X511522Y3756024D1*
X506024Y3761522D1*
X501453Y3767812D1*
X497924Y3774739D1*
X495522Y3782133D1*
X494305Y3789813D1*
Y3797587D1*
X495522Y3805267D1*
X497924Y3812661D1*
X501453Y3819588D1*
X506024Y3825878D1*
X511522Y3831376D1*
X517812Y3835947D1*
X524739Y3839476D1*
X532133Y3841878D1*
X539813Y3843095D1*
X547587D1*
X555267Y3841878D1*
X562661Y3839476D1*
X569588Y3835947D1*
X575878Y3831376D1*
X581376Y3825878D1*
X585947Y3819588D1*
X589476Y3812661D1*
X591878Y3805267D1*
X593095Y3797587D1*
Y3789813D1*
Y3689813D2*
X591878Y3682133D1*
X589476Y3674739D1*
X585947Y3667812D1*
X581376Y3661522D1*
X575878Y3656024D1*
X569588Y3651453D1*
X562661Y3647924D1*
X555267Y3645522D1*
X547587Y3644305D1*
X539813D1*
X532133Y3645522D1*
X524739Y3647924D1*
X517812Y3651453D1*
X511522Y3656024D1*
X506024Y3661522D1*
X501453Y3667812D1*
X497924Y3674739D1*
X495522Y3682133D1*
X494305Y3689813D1*
Y3697587D1*
X495522Y3705267D1*
X497924Y3712661D1*
X501453Y3719588D1*
X506024Y3725878D1*
X511522Y3731376D1*
X517812Y3735947D1*
X524739Y3739476D1*
X532133Y3741878D1*
X539813Y3743095D1*
X547587D1*
X555267Y3741878D1*
X562661Y3739476D1*
X569588Y3735947D1*
X575878Y3731376D1*
X581376Y3725878D1*
X585947Y3719588D1*
X589476Y3712661D1*
X591878Y3705267D1*
X593095Y3697587D1*
Y3689813D1*
D29*
X2243700Y3470964D3*
Y3581200D3*
X3745745Y3139842D3*
Y3029606D3*
D30*
X3583745Y3146842D3*
X3658548D3*
X3368745Y2970842D3*
X3293941D3*
D29*
X3712511Y3372863D3*
Y3483099D3*
D30*
X1531200Y2368700D3*
X1606003D3*
X4543700D3*
X4618503D3*
D117*
X3133906Y3306199D3*
X2940993D3*
D31*
X2936923Y3101608D3*
X3047159D3*
D30*
X3056200Y2368700D3*
X3131003D3*
X4712352Y3362451D3*
X4637549D3*
D32*
X1043700Y1918700D3*
Y2273031D3*
X1893700Y1918700D3*
Y2273031D3*
X2643700Y1918700D3*
Y2273031D3*
X3493700Y1918700D3*
Y2273031D3*
X4193700Y1918700D3*
Y2273031D3*
X5024951Y1918700D3*
Y2273031D3*
D30*
X1156200Y2387449D3*
X1231003D3*
X2006200Y2387451D3*
X2081003D3*
X2756200D3*
X2831003D3*
X3606200D3*
X3681003D3*
X4306200D3*
X4381003D3*
X3062449Y2662451D3*
X2987646D3*
D33*
X493701Y4143700D3*
X493698Y4301180D3*
D34*
X3583745Y3263842D3*
X3741225D3*
D35*
X443700Y3793700D3*
D36*
X543700D3*
X643700D3*
X743700D3*
X843700D3*
X943700D3*
X1043700D3*
X1143700D3*
X1243700D3*
X1343700D3*
X1443700D3*
X1543700D3*
X1643700D3*
X1743700D3*
X1843700D3*
X1943700D3*
X2043700D3*
X2143700D3*
X2243700D3*
D35*
X443700Y3693700D3*
D36*
X543700D3*
X643700D3*
X743700D3*
X843700D3*
X943700D3*
X1043700D3*
X1143700D3*
X1243700D3*
X1343700D3*
X1443700D3*
X1543700D3*
X1643700D3*
X1743700D3*
X1843700D3*
X1943700D3*
X2043700D3*
X2143700D3*
X2243700D3*
D37*
X5468700Y1468700D3*
D38*
Y1368700D3*
Y1268700D3*
D37*
X506200Y1912449D3*
D38*
Y1812449D3*
Y1712449D3*
D35*
X443700Y2693700D3*
D36*
X543700D3*
X643700D3*
X743700D3*
X843700D3*
X943700D3*
X1043700D3*
X1143700D3*
X1243700D3*
X1343700D3*
X1443700D3*
X1543700D3*
X1643700D3*
X1743700D3*
X1843700D3*
X1943700D3*
X2043700D3*
X2143700D3*
X2243700D3*
D37*
X2893700Y2756200D3*
D38*
X2993700D3*
X3093700D3*
D35*
X443700Y2793700D3*
D36*
X543700D3*
X643700D3*
X743700D3*
X843700D3*
X943700D3*
X1043700D3*
X1143700D3*
X1243700D3*
X1343700D3*
X1443700D3*
X1543700D3*
X1643700D3*
X1743700D3*
X1843700D3*
X1943700D3*
X2043700D3*
X2143700D3*
X2243700D3*
D35*
X1551180Y3306298D3*
D36*
Y3406298D3*
X1651180Y3306298D3*
Y3406298D3*
X1751180Y3306298D3*
Y3406298D3*
X1851180Y3306298D3*
Y3406298D3*
X1951180Y3306298D3*
Y3406298D3*
X2051180Y3306298D3*
Y3406298D3*
D35*
X743700Y1743700D3*
D36*
Y1643700D3*
Y1543700D3*
Y1443700D3*
Y1343700D3*
Y1243700D3*
Y1143700D3*
Y1043700D3*
D35*
X1543700Y1743700D3*
D36*
Y1643700D3*
Y1543700D3*
Y1443700D3*
Y1343700D3*
Y1243700D3*
Y1143700D3*
Y1043700D3*
D35*
X2343700Y1743700D3*
D36*
Y1643700D3*
Y1543700D3*
Y1443700D3*
Y1343700D3*
Y1243700D3*
Y1143700D3*
Y1043700D3*
D35*
X3143700Y1743700D3*
D36*
Y1643700D3*
Y1543700D3*
Y1443700D3*
Y1343700D3*
Y1243700D3*
Y1143700D3*
Y1043700D3*
D35*
X3943700Y1743700D3*
D36*
Y1643700D3*
Y1543700D3*
Y1443700D3*
Y1343700D3*
Y1243700D3*
Y1143700D3*
Y1043700D3*
D35*
X4743700Y1743700D3*
D36*
Y1643700D3*
Y1543700D3*
Y1443700D3*
Y1343700D3*
Y1243700D3*
Y1143700D3*
Y1043700D3*
D35*
X943700Y1743700D3*
D36*
X843700D3*
D35*
X1743700D3*
D36*
X1643700D3*
D35*
X2543700D3*
D36*
X2443700D3*
D35*
X3343700D3*
D36*
X3243700D3*
D35*
X4143700D3*
D36*
X4043700D3*
D35*
X4943700D3*
D36*
X4843700D3*
D35*
X1243700D3*
D36*
Y1643700D3*
Y1543700D3*
Y1443700D3*
Y1343700D3*
Y1243700D3*
Y1143700D3*
Y1043700D3*
D35*
X2043700Y1743700D3*
D36*
Y1643700D3*
Y1543700D3*
Y1443700D3*
Y1343700D3*
Y1243700D3*
Y1143700D3*
Y1043700D3*
D35*
X2843700Y1743700D3*
D36*
Y1643700D3*
Y1543700D3*
Y1443700D3*
Y1343700D3*
Y1243700D3*
Y1143700D3*
Y1043700D3*
D35*
X3643700Y1743700D3*
D36*
Y1643700D3*
Y1543700D3*
Y1443700D3*
Y1343700D3*
Y1243700D3*
Y1143700D3*
Y1043700D3*
D35*
X4443700Y1743700D3*
D36*
Y1643700D3*
Y1543700D3*
Y1443700D3*
Y1343700D3*
Y1243700D3*
Y1143700D3*
Y1043700D3*
D35*
X5243700Y1743700D3*
D36*
Y1643700D3*
Y1543700D3*
Y1443700D3*
Y1343700D3*
Y1243700D3*
Y1143700D3*
Y1043700D3*
D35*
Y4593700D3*
D36*
Y4493700D3*
X5143700Y4593700D3*
Y4493700D3*
X5043700Y4593700D3*
Y4493700D3*
X4943700Y4593700D3*
Y4493700D3*
X4843700Y4593700D3*
Y4493700D3*
D35*
X743700Y2118700D3*
D36*
Y2218700D3*
Y2318700D3*
D35*
X643700Y2118700D3*
D36*
Y2218700D3*
Y2318700D3*
D35*
X543700Y2118700D3*
D36*
Y2218700D3*
Y2318700D3*
D35*
X506202Y924949D3*
D36*
X506200Y1024949D3*
X506198Y1124949D3*
D39*
X3356298Y3179133D3*
Y3417322D3*
D40*
X5531495Y531495D3*
Y5452755D3*
X531495D3*
Y531495D3*
D35*
X1643705Y3993700D3*
D36*
X1543705D3*
X1443705D3*
X1343705D3*
X1243705D3*
X1143705D3*
X1043705D3*
X943705D3*
X843714D3*
X743714D3*
X643714D3*
X543714D3*
D35*
X2943705D3*
D36*
X2843705D3*
X2743705D3*
X2643705D3*
X2543705D3*
X2443705D3*
X2343705D3*
X2243705D3*
X2143714D3*
X2043714D3*
X1943714D3*
X1843714D3*
D35*
X4243705D3*
D36*
X4143705D3*
X4043705D3*
X3943705D3*
X3843705D3*
X3743705D3*
X3643705D3*
X3543705D3*
X3443714D3*
X3343714D3*
X3243714D3*
X3143714D3*
D35*
X5540106D3*
D36*
X5440106D3*
X5340106D3*
X5240106D3*
X5140106D3*
X5040106D3*
X4940106D3*
X4840106D3*
X4740115D3*
X4640115D3*
X4540115D3*
X4440115D3*
D35*
X4043700Y2693708D3*
D36*
Y2793708D3*
Y2893708D3*
Y2993708D3*
Y3093708D3*
Y3193708D3*
Y3293708D3*
Y3393708D3*
Y3493699D3*
Y3593699D3*
Y3693699D3*
Y3793699D3*
D41*
X3745745Y2879842D3*
Y2954645D3*
D30*
X3368745Y2879842D3*
X3293941D3*
X3290745Y2788842D3*
X3365548D3*
D41*
X3446745D3*
Y2863645D3*
X1743700Y3512548D3*
Y3587351D3*
X1840550Y3515747D3*
Y3590550D3*
X1942567Y3515747D3*
Y3590550D3*
X2043701Y3518798D3*
X2043699Y3593602D3*
D42*
X893700Y3143700D3*
Y3187007D3*
Y3230314D3*
Y3273621D3*
Y3316928D3*
Y3360235D3*
Y3403543D3*
Y3446850D3*
Y3490157D3*
D43*
X478346Y2955511D3*
D44*
X860235D3*
D45*
Y3533464D3*
D43*
X478346D3*
D46*
X5443699Y2199949D3*
D47*
Y2396800D3*
D48*
X793700Y693700D3*
D49*
X931495D3*
X1069291D3*
X1207086D3*
D48*
X1593700D3*
D49*
X1731495D3*
X1869291D3*
X2007086D3*
D48*
X2393700D3*
D49*
X2531495D3*
X2669291D3*
X2807086D3*
D48*
X3193700D3*
D49*
X3331495D3*
X3469291D3*
X3607086D3*
D48*
X3993700D3*
D49*
X4131495D3*
X4269291D3*
X4407086D3*
D48*
X4793700D3*
D49*
X4931495D3*
X5069291D3*
X5207086D3*
D50*
X3443789Y3072894D3*
Y3022894D3*
Y2972894D3*
Y2922894D3*
X3656388D3*
Y2972894D3*
Y3022894D3*
Y3072894D3*
D51*
X3550088Y2997894D3*
D52*
X1393700Y2306200D3*
Y2256200D3*
Y2206200D3*
Y2156200D3*
Y2106200D3*
Y2056200D3*
Y2006200D3*
Y1956200D3*
X1606298D3*
Y2006200D3*
Y2056200D3*
Y2106200D3*
Y2156200D3*
Y2206200D3*
Y2256200D3*
Y2306200D3*
X4518700D3*
Y2256200D3*
Y2206200D3*
Y2156200D3*
Y2106200D3*
Y2056200D3*
Y2006200D3*
Y1956200D3*
X4731298D3*
Y2006200D3*
Y2056200D3*
Y2106200D3*
Y2156200D3*
Y2206200D3*
Y2256200D3*
Y2306200D3*
X2993700D3*
Y2256200D3*
Y2206200D3*
Y2156200D3*
Y2106200D3*
Y2056200D3*
Y2006200D3*
Y1956200D3*
X3206298D3*
Y2006200D3*
Y2056200D3*
Y2106200D3*
Y2156200D3*
Y2206200D3*
Y2256200D3*
Y2306200D3*
X4581150Y3274949D3*
Y3224949D3*
Y3174949D3*
Y3124949D3*
Y3074949D3*
Y3024949D3*
Y2974949D3*
Y2924949D3*
X4793749D3*
Y2974949D3*
Y3024949D3*
Y3074949D3*
Y3124949D3*
Y3174949D3*
Y3224949D3*
Y3274949D3*
M02*
