G04 DipTrace 4.0.0.2*
G04 BottomMask.gbr*
%MOIN*%
G04 #@! TF.FileFunction,Soldermask,Bot*
G04 #@! TF.Part,Single*
%ADD54C,0.137795*%
%ADD55C,0.03937*%
%ADD71C,0.094614*%
%ADD73R,0.094614X0.094614*%
%ADD75C,0.128*%
%ADD77R,0.128X0.128*%
%ADD89C,0.208*%
%ADD93C,0.074929*%
%ADD95R,0.074929X0.074929*%
%ADD97C,0.067055*%
%ADD99R,0.067055X0.067055*%
%FSLAX26Y26*%
G04*
G70*
G90*
G75*
G01*
G04 BotMask*
%LPD*%
D99*
X443700Y3793700D3*
D97*
X543700D3*
X643700D3*
X743700D3*
X843700D3*
X943700D3*
X1043700D3*
X1143700D3*
X1243700D3*
X1343700D3*
X1443700D3*
X1543700D3*
X1643700D3*
X1743700D3*
X1843700D3*
X1943700D3*
X2043700D3*
X2143700D3*
X2243700D3*
D99*
X443700Y3693700D3*
D97*
X543700D3*
X643700D3*
X743700D3*
X843700D3*
X943700D3*
X1043700D3*
X1143700D3*
X1243700D3*
X1343700D3*
X1443700D3*
X1543700D3*
X1643700D3*
X1743700D3*
X1843700D3*
X1943700D3*
X2043700D3*
X2143700D3*
X2243700D3*
D95*
X5468700Y1468700D3*
D93*
Y1368700D3*
Y1268700D3*
D95*
X506200Y1912449D3*
D93*
Y1812449D3*
Y1712449D3*
D99*
X443700Y2693700D3*
D97*
X543700D3*
X643700D3*
X743700D3*
X843700D3*
X943700D3*
X1043700D3*
X1143700D3*
X1243700D3*
X1343700D3*
X1443700D3*
X1543700D3*
X1643700D3*
X1743700D3*
X1843700D3*
X1943700D3*
X2043700D3*
X2143700D3*
X2243700D3*
D95*
X2893700Y2756200D3*
D93*
X2993700D3*
X3093700D3*
D99*
X443700Y2793700D3*
D97*
X543700D3*
X643700D3*
X743700D3*
X843700D3*
X943700D3*
X1043700D3*
X1143700D3*
X1243700D3*
X1343700D3*
X1443700D3*
X1543700D3*
X1643700D3*
X1743700D3*
X1843700D3*
X1943700D3*
X2043700D3*
X2143700D3*
X2243700D3*
D99*
X1551180Y3306298D3*
D97*
Y3406298D3*
X1651180Y3306298D3*
Y3406298D3*
X1751180Y3306298D3*
Y3406298D3*
X1851180Y3306298D3*
Y3406298D3*
X1951180Y3306298D3*
Y3406298D3*
X2051180Y3306298D3*
Y3406298D3*
D99*
X743700Y1743700D3*
D97*
Y1643700D3*
Y1543700D3*
Y1443700D3*
Y1343700D3*
Y1243700D3*
Y1143700D3*
Y1043700D3*
D99*
X1543700Y1743700D3*
D97*
Y1643700D3*
Y1543700D3*
Y1443700D3*
Y1343700D3*
Y1243700D3*
Y1143700D3*
Y1043700D3*
D99*
X2343700Y1743700D3*
D97*
Y1643700D3*
Y1543700D3*
Y1443700D3*
Y1343700D3*
Y1243700D3*
Y1143700D3*
Y1043700D3*
D99*
X3143700Y1743700D3*
D97*
Y1643700D3*
Y1543700D3*
Y1443700D3*
Y1343700D3*
Y1243700D3*
Y1143700D3*
Y1043700D3*
D99*
X3943700Y1743700D3*
D97*
Y1643700D3*
Y1543700D3*
Y1443700D3*
Y1343700D3*
Y1243700D3*
Y1143700D3*
Y1043700D3*
D99*
X4743700Y1743700D3*
D97*
Y1643700D3*
Y1543700D3*
Y1443700D3*
Y1343700D3*
Y1243700D3*
Y1143700D3*
Y1043700D3*
D99*
X943700Y1743700D3*
D97*
X843700D3*
D99*
X1743700D3*
D97*
X1643700D3*
D99*
X2543700D3*
D97*
X2443700D3*
D99*
X3343700D3*
D97*
X3243700D3*
D99*
X4143700D3*
D97*
X4043700D3*
D99*
X4943700D3*
D97*
X4843700D3*
D99*
X1243700D3*
D97*
Y1643700D3*
Y1543700D3*
Y1443700D3*
Y1343700D3*
Y1243700D3*
Y1143700D3*
Y1043700D3*
D99*
X2043700Y1743700D3*
D97*
Y1643700D3*
Y1543700D3*
Y1443700D3*
Y1343700D3*
Y1243700D3*
Y1143700D3*
Y1043700D3*
D99*
X2843700Y1743700D3*
D97*
Y1643700D3*
Y1543700D3*
Y1443700D3*
Y1343700D3*
Y1243700D3*
Y1143700D3*
Y1043700D3*
D99*
X3643700Y1743700D3*
D97*
Y1643700D3*
Y1543700D3*
Y1443700D3*
Y1343700D3*
Y1243700D3*
Y1143700D3*
Y1043700D3*
D99*
X4443700Y1743700D3*
D97*
Y1643700D3*
Y1543700D3*
Y1443700D3*
Y1343700D3*
Y1243700D3*
Y1143700D3*
Y1043700D3*
D99*
X5243700Y1743700D3*
D97*
Y1643700D3*
Y1543700D3*
Y1443700D3*
Y1343700D3*
Y1243700D3*
Y1143700D3*
Y1043700D3*
D99*
Y4593700D3*
D97*
Y4493700D3*
X5143700Y4593700D3*
Y4493700D3*
X5043700Y4593700D3*
Y4493700D3*
X4943700Y4593700D3*
Y4493700D3*
X4843700Y4593700D3*
Y4493700D3*
D99*
X743700Y2118700D3*
D97*
Y2218700D3*
Y2318700D3*
D99*
X643700Y2118700D3*
D97*
Y2218700D3*
Y2318700D3*
D99*
X543700Y2118700D3*
D97*
Y2218700D3*
Y2318700D3*
D99*
X506202Y924949D3*
D97*
X506200Y1024949D3*
X506198Y1124949D3*
D89*
X5531495Y531495D3*
Y5452755D3*
X531495D3*
Y531495D3*
D99*
X1643705Y3993700D3*
D97*
X1543705D3*
X1443705D3*
X1343705D3*
X1243705D3*
X1143705D3*
X1043705D3*
X943705D3*
X843714D3*
X743714D3*
X643714D3*
X543714D3*
D54*
X601574Y5135432D3*
D99*
X2943705Y3993700D3*
D97*
X2843705D3*
X2743705D3*
X2643705D3*
X2543705D3*
X2443705D3*
X2343705D3*
X2243705D3*
X2143714D3*
X2043714D3*
X1943714D3*
X1843714D3*
D54*
X1901574Y5135432D3*
D99*
X4243705Y3993700D3*
D97*
X4143705D3*
X4043705D3*
X3943705D3*
X3843705D3*
X3743705D3*
X3643705D3*
X3543705D3*
X3443714D3*
X3343714D3*
X3243714D3*
X3143714D3*
D54*
X3201574Y5135432D3*
D99*
X5540106Y3993700D3*
D97*
X5440106D3*
X5340106D3*
X5240106D3*
X5140106D3*
X5040106D3*
X4940106D3*
X4840106D3*
X4740115D3*
X4640115D3*
X4540115D3*
X4440115D3*
D54*
X4497974Y5135432D3*
D99*
X4043700Y2693708D3*
D97*
Y2793708D3*
Y2893708D3*
Y2993708D3*
Y3093708D3*
Y3193708D3*
Y3293708D3*
Y3393708D3*
Y3493699D3*
Y3593699D3*
Y3693699D3*
Y3793699D3*
D54*
X5185432Y3735839D3*
D55*
X462598Y3422834D3*
Y3107873D3*
D77*
X5443699Y2199949D3*
D75*
Y2396800D3*
D73*
X793700Y693700D3*
D71*
X931495D3*
X1069291D3*
X1207086D3*
D73*
X1593700D3*
D71*
X1731495D3*
X1869291D3*
X2007086D3*
D73*
X2393700D3*
D71*
X2531495D3*
X2669291D3*
X2807086D3*
D73*
X3193700D3*
D71*
X3331495D3*
X3469291D3*
X3607086D3*
D73*
X3993700D3*
D71*
X4131495D3*
X4269291D3*
X4407086D3*
D73*
X4793700D3*
D71*
X4931495D3*
X5069291D3*
X5207086D3*
M02*
