G04 DipTrace 4.0.0.2*
G04 BottomSilk.gbr*
%MOIN*%
G04 #@! TF.FileFunction,Legend,Bot*
G04 #@! TF.Part,Single*
%ADD27C,0.01*%
%ADD28C,0.003*%
%ADD113C,0.006176*%
%FSLAX26Y26*%
G04*
G70*
G90*
G75*
G01*
G04 BotSilk*
%LPD*%
G36*
X4059755Y4928755D2*
D1*
D1*
D1*
D1*
D1*
D1*
D1*
D1*
D1*
D1*
D1*
D1*
D1*
D1*
D1*
D1*
D1*
D1*
D1*
D1*
D1*
D1*
D1*
D1*
D1*
D1*
D1*
D1*
D1*
D1*
D1*
D1*
D1*
D1*
D1*
G37*
X3766113Y4934079D2*
D28*
Y4977569D1*
X3757367D1*
Y4972924D1*
X3757207D1*
G03X3752336Y4976783I-10348J-8059D01*
G01*
G03X3745885Y4978071I-6179J-14141D01*
G01*
G03X3741224Y4977231I12J-13422D01*
G01*
G03X3736797Y4974712I5924J-15555D01*
G01*
X3743111Y4967172D1*
G02X3745989Y4968788I6924J-8964D01*
G01*
G02X3748901Y4969323I2934J-7771D01*
G01*
G02X3754745Y4967165I11J-8960D01*
G01*
G02X3756712Y4964346I-4242J-5056D01*
G01*
G02X3757367Y4960216I-11128J-3881D01*
G01*
Y4934079D1*
X3766113D1*
X3896195Y4969323D2*
G02X3898982Y4969061I152J-13316D01*
G01*
G02X3901149Y4968266I-1466J-7342D01*
G01*
G02X3903623Y4965094I-2524J-4519D01*
G01*
G02X3904860Y4955875I-31554J-8928D01*
G01*
G02X3903623Y4946515I-33232J-368D01*
G01*
G02X3901149Y4943342I-4996J1344D01*
G01*
G02X3898982Y4942546I-3632J6547D01*
G01*
G02X3896195Y4942284I-2635J13053D01*
G01*
G02X3893453Y4942558I-150J12343D01*
G01*
G02X3891315Y4943382I1539J7178D01*
G01*
G02X3888867Y4946687I2797J4632D01*
G01*
G02X3887629Y4955875I32653J9075D01*
G01*
G02X3888867Y4964920I33398J39D01*
G01*
G02X3891315Y4968225I5245J-1328D01*
G01*
G02X3893453Y4969049I3677J-6354D01*
G01*
G02X3896195Y4969323I2592J-12069D01*
G01*
D3*
X3833648Y4934079D2*
X3842756Y4964499D1*
X3842918D1*
X3852004Y4934079D1*
X3859725D1*
X3873617Y4977569D1*
X3864368D1*
X3856025Y4947109D1*
X3855864D1*
X3846014Y4977569D1*
X3839637D1*
X3829808Y4947109D1*
X3829627D1*
X3821304Y4977569D1*
X3812036D1*
X3825947Y4934079D1*
X3833648D1*
X3952629Y5021728D2*
X3979713D1*
G02X3978985Y5017032I-13769J-268D01*
G01*
G02X3976797Y5013678I-7820J2710D01*
G01*
G02X3973481Y5011665I-6550J7052D01*
G01*
G02X3969359Y5010993I-3972J11385D01*
G01*
G02X3964268Y5012043I-79J12485D01*
G01*
G02X3959808Y5015195I5937J13134D01*
G01*
X3953477Y5009787D1*
G03X3956913Y5006550I15853J13389D01*
G01*
G03X3960752Y5004398I10151J13609D01*
G01*
G03X3969199Y5002791I8379J21029D01*
G01*
G03X3975788Y5003872I-8J20663D01*
G01*
G03X3982176Y5007121I-8283J24190D01*
G01*
G03X3984924Y5009855I-6387J9169D01*
G01*
G03X3986889Y5013724I-12648J8856D01*
G01*
G03X3988065Y5018728I-24445J8384D01*
G01*
G03X3988459Y5024864I-43499J5872D01*
G01*
G03X3988095Y5030728I-43460J249D01*
G01*
G03X3987010Y5035608I-26634J-3362D01*
G01*
G03X3985196Y5039508I-16442J-5274D01*
G01*
G03X3982659Y5042427I-10664J-6707D01*
G01*
G03X3976725Y5046069I-14321J-16680D01*
G01*
G03X3970525Y5047283I-6223J-15343D01*
G01*
G03X3963815Y5046041I-134J-18032D01*
G01*
G03X3957997Y5042317I7044J-17413D01*
G01*
G03X3953973Y5036487I10821J-11772D01*
G01*
G03X3952629Y5028926I18893J-7258D01*
G01*
Y5021728D1*
X4073606Y5025086D2*
G03X4073329Y5031192I-59844J346D01*
G01*
G03X4072508Y5035511I-21900J-1922D01*
G01*
G03X4068899Y5041714I-16008J-5161D01*
G01*
G03X4066764Y5043641I-11634J-10747D01*
G01*
G03X4063941Y5045482I-15012J-19930D01*
G01*
G03X4060293Y5046833I-6224J-11211D01*
G01*
G03X4055670Y5047283I-4407J-21296D01*
G01*
G03X4051104Y5046833I-218J-21169D01*
G01*
G03X4047457Y5045482I2629J-12699D01*
G01*
G03X4044615Y5043641I12332J-22153D01*
G01*
G03X4042460Y5041714I9474J-12765D01*
G01*
G03X4038861Y5035511I12309J-11285D01*
G01*
G03X4038048Y5031192I21463J-6280D01*
G01*
G03X4037777Y5025086I59069J-5674D01*
G01*
G03X4038048Y5018877I61251J-443D01*
G01*
G03X4038861Y5014520I22633J1972D01*
G01*
G03X4042460Y5008319I15897J5081D01*
G01*
G03X4044615Y5006371I11274J10300D01*
G01*
G03X4047457Y5004548I14028J18748D01*
G01*
G03X4051104Y5003229I6274J11646D01*
G01*
G03X4055670Y5002791I4372J21545D01*
G01*
G03X4060293Y5003229I239J22080D01*
G01*
G03X4063941Y5004548I-2571J12818D01*
G01*
G03X4066764Y5006371I-11060J20224D01*
G01*
G03X4068899Y5008319I-9156J12176D01*
G01*
G03X4072508Y5014520I-12388J11361D01*
G01*
G03X4073329Y5018877I-21176J6242D01*
G01*
G03X4073606Y5025086I-60474J5808D01*
G01*
D3*
X3843474D2*
G03X3843203Y5031192I-59838J397D01*
G01*
G03X3842380Y5035511I-22159J-1984D01*
G01*
G03X3838772Y5041714I-15984J-5145D01*
G01*
G03X3836637Y5043641I-11927J-11072D01*
G01*
G03X3833813Y5045482I-14931J-19816D01*
G01*
G03X3830162Y5046833I-6214J-11191D01*
G01*
G03X3825541Y5047283I-4400J-21227D01*
G01*
G03X3820974Y5046833I-217J-21192D01*
G01*
G03X3817330Y5045482I2641J-12721D01*
G01*
G03X3814487Y5043641I12332J-22153D01*
G01*
G03X3812333Y5041714I9474J-12765D01*
G01*
G03X3808731Y5035511I12310J-11293D01*
G01*
G03X3807918Y5031192I20951J-6183D01*
G01*
G03X3807645Y5025086I59069J-5700D01*
G01*
G03X3807918Y5018877I61253J-417D01*
G01*
G03X3808731Y5014520I22113J1875D01*
G01*
G03X3812333Y5008319I15901J5088D01*
G01*
G03X3814487Y5006371I11145J10158D01*
G01*
G03X3817330Y5004548I14028J18748D01*
G01*
G03X3820974Y5003229I6284J11668D01*
G01*
G03X3825541Y5002791I4372J21546D01*
G01*
G03X3830162Y5003229I243J22011D01*
G01*
G03X3833813Y5004548I-2587J12873D01*
G01*
G03X3836637Y5006371I-11437J20819D01*
G01*
G03X3838772Y5008319I-9156J12176D01*
G01*
G03X3842380Y5014520I-12366J11344D01*
G01*
G03X3843203Y5018877I-21431J6303D01*
G01*
G03X3843474Y5025086I-61493J5801D01*
G01*
D3*
X3962094Y4933918D2*
Y4937760D1*
X3962276D1*
G03X3965917Y4934503I6209J3277D01*
G01*
G03X3968909Y4933688I4883J12027D01*
G01*
G03X3972709Y4933415I3667J24458D01*
G01*
G03X3979029Y4934456I-126J20477D01*
G01*
G03X3983586Y4937258I-3819J11317D01*
G01*
G03X3986604Y4941464I-8146J9032D01*
G01*
G03X3987609Y4946687I-12227J5062D01*
G01*
G03X3986739Y4951696I-14014J146D01*
G01*
G03X3984130Y4955834I-11621J-4436D01*
G01*
G03X3979838Y4958613I-7924J-7533D01*
G01*
G03X3973876Y4959594I-5850J-16959D01*
G01*
X3962094D1*
Y4964197D1*
G02X3962624Y4966721I5461J170D01*
G01*
G02X3964245Y4968499I4024J-2040D01*
G01*
G02X3966964Y4969536I4088J-6637D01*
G01*
G02X3970780Y4969826I3232J-17269D01*
G01*
G02X3973545Y4969657I163J-20004D01*
G01*
G02X3975808Y4969145I-1543J-12076D01*
G01*
G02X3978783Y4966428I-2461J-5683D01*
G01*
X3985478Y4971696D1*
G03X3979478Y4976528I-12105J-8890D01*
G01*
G03X3975624Y4977695I-6857J-15702D01*
G01*
G03X3971204Y4978031I-3909J-22183D01*
G01*
G03X3964056Y4977296I-609J-29206D01*
G01*
G03X3958456Y4974935I3933J-17151D01*
G01*
G03X3954886Y4970465I5904J-8375D01*
G01*
G03X3953969Y4967369I13488J-5681D01*
G01*
G03X3953630Y4963695I21571J-3841D01*
G01*
Y4933918D1*
X3962094D1*
X3979713Y5028926D2*
X3961357D1*
G02X3962148Y5033256I14274J-367D01*
G01*
G02X3964120Y5036436I8334J-2968D01*
G01*
G02X3967004Y5038389I6150J-5977D01*
G01*
G02X3970525Y5039040I3423J-8667D01*
G01*
G02X3974092Y5038389I101J-9546D01*
G01*
G02X3976999Y5036436I-3221J-7935D01*
G01*
G02X3978965Y5033256I-6189J-6024D01*
G01*
G02X3979713Y5028926I-13170J-4505D01*
G01*
D3*
X3962094Y4949200D2*
Y4952397D1*
X3972289D1*
G02X3975544Y4951982I-226J-14752D01*
G01*
G02X3977856Y4950964I-1545J-6641D01*
G01*
G02X3979226Y4949338I-2321J-3346D01*
G01*
G02X3979648Y4947109I-4580J-2020D01*
G01*
G02X3979170Y4945078I-4393J-39D01*
G01*
G02X3977735Y4943329I-4948J2595D01*
G01*
G02X3975289Y4942048I-3846J4368D01*
G01*
G02X3971646Y4941620I-3375J13017D01*
G01*
G02X3967087Y4941906I-730J24838D01*
G01*
G02X3964106Y4942927I1125J8151D01*
G01*
G02X3963225Y4943831I1903J2734D01*
G01*
G02X3962598Y4945179I4595J2959D01*
G01*
G02X3962094Y4949200I13056J3678D01*
G01*
D3*
X3697661Y5016079D2*
X3691207Y5010289D1*
G03X3697982Y5004901I18106J15813D01*
G01*
G03X3702159Y5003318I8096J15065D01*
G01*
G03X3706848Y5002791I4558J19411D01*
G01*
G03X3714025Y5004070I98J20218D01*
G01*
G03X3720481Y5007917I-7964J20705D01*
G01*
G03X3723145Y5010905I-9089J10784D01*
G01*
G03X3725049Y5014747I-14381J9520D01*
G01*
G03X3726191Y5019440I-23431J8186D01*
G01*
G03X3726573Y5024985I-37090J5340D01*
G01*
G03X3726191Y5030533I-37475J208D01*
G01*
G03X3725049Y5035238I-24722J-3509D01*
G01*
G03X3723145Y5039094I-16729J-5864D01*
G01*
G03X3720481Y5042106I-11881J-7825D01*
G01*
G03X3714025Y5045989I-14475J-16755D01*
G01*
G03X3706848Y5047283I-7085J-18746D01*
G01*
G03X3702159Y5046750I-87J-20130D01*
G01*
G03X3697982Y5045153I3955J-16607D01*
G01*
G03X3691207Y5039743I11530J-21390D01*
G01*
X3697661Y5033994D1*
G02X3701722Y5037401I10117J-7937D01*
G01*
G02X3706506Y5038537I4711J-9192D01*
G01*
G02X3711460Y5037690I276J-13285D01*
G01*
G02X3714997Y5035149I-3161J-8132D01*
G01*
G02X3717117Y5030915I-8687J-6999D01*
G01*
G02X3717827Y5024985I-21669J-5602D01*
G01*
G02X3717117Y5019083I-22148J-329D01*
G01*
G02X3714997Y5014868I-10754J2769D01*
G01*
G02X3711460Y5012339I-6739J5687D01*
G01*
G02X3706506Y5011495I-4673J12472D01*
G01*
G02X3701701Y5012641I-79J10314D01*
G01*
G02X3697661Y5016079I6012J11159D01*
G01*
D3*
X4046482Y5024985D2*
G02X4046603Y5029027I57666J300D01*
G01*
G02X4046965Y5031662I15890J-842D01*
G01*
G02X4048633Y5035339I11043J-2792D01*
G01*
G02X4051539Y5037738I5846J-4122D01*
G01*
G02X4055670Y5038537I3910J-9133D01*
G01*
G02X4059831Y5037738I244J-9965D01*
G01*
G02X4062707Y5035339I-2823J-6307D01*
G01*
G02X4064396Y5031662I-8354J-6064D01*
G01*
G02X4064726Y5029053I-17314J-3520D01*
G01*
G02X4064838Y5025086I-63657J-3775D01*
G01*
G02X4064726Y5021010I-67355J-196D01*
G01*
G02X4064396Y5018351I-17397J814D01*
G01*
G02X4062707Y5014692I-9618J2221D01*
G01*
G02X4059831Y5012294I-5721J3938D01*
G01*
G02X4055670Y5011495I-3928J9221D01*
G01*
G02X4051539Y5012294I-232J9877D01*
G01*
G02X4048633Y5014692I2947J6530D01*
G01*
G02X4046965Y5018331I9069J6359D01*
G01*
G02X4046603Y5020960I15425J3465D01*
G01*
G02X4046482Y5024985I57092J3727D01*
G01*
D3*
X3816350D2*
G02X3816474Y5029027I58756J211D01*
G01*
G02X3816834Y5031662I16264J-877D01*
G01*
G02X3818504Y5035339I11186J-2864D01*
G01*
G02X3821409Y5037738I5867J-4145D01*
G01*
G02X3825541Y5038537I3910J-9134D01*
G01*
G02X3829703Y5037738I244J-9965D01*
G01*
G02X3832578Y5035339I-2867J-6359D01*
G01*
G02X3834267Y5031662I-8298J-6038D01*
G01*
G02X3834599Y5029053I-17085J-3500D01*
G01*
G02X3834709Y5025086I-59839J-3648D01*
G01*
G02X3834599Y5021010I-63319J-327D01*
G01*
G02X3834267Y5018351I-18079J907D01*
G01*
G02X3832578Y5014692I-9618J2221D01*
G01*
G02X3829703Y5012294I-5765J3991D01*
G01*
G02X3825541Y5011495I-3928J9221D01*
G01*
G02X3821409Y5012294I-233J9878D01*
G01*
G02X3818504Y5014692I2969J6554D01*
G01*
G02X3816834Y5018331I9071J6367D01*
G01*
G02X3816474Y5020960I15799J3500D01*
G01*
G02X3816350Y5024985I58170J3816D01*
G01*
D3*
X3944983Y5003293D2*
Y5046780D1*
X3936238D1*
Y5042136D1*
X3936077D1*
G03X3931207Y5045997I-10315J-8010D01*
G01*
G03X3924758Y5047283I-6181J-14184D01*
G01*
G03X3919780Y5046319I8J-13382D01*
G01*
G03X3914977Y5043432I6806J-16762D01*
G01*
G03X3911441Y5038700I7546J-9325D01*
G01*
G03X3910557Y5035672I13310J-5532D01*
G01*
G03X3910263Y5032203I19251J-3378D01*
G01*
Y5003293D1*
X3919008D1*
Y5029187D1*
G02X3919621Y5033109I11635J191D01*
G01*
G02X3921461Y5036065I7450J-2588D01*
G01*
G02X3924216Y5037919I5882J-5765D01*
G01*
G02X3927573Y5038537I3263J-8298D01*
G01*
G02X3931006Y5037919I124J-9154D01*
G01*
G02X3933785Y5036065I-3047J-7577D01*
G01*
G02X3935625Y5033109I-5611J-5543D01*
G01*
G02X3936238Y5029187I-11022J-3731D01*
G01*
Y5003293D1*
X3944983D1*
X3784864Y4933918D2*
Y4937760D1*
X3785045D1*
G03X3788684Y4934503I6222J3289D01*
G01*
G03X3791679Y4933688I4874J12002D01*
G01*
G03X3795480Y4933415I3660J24364D01*
G01*
G03X3801798Y4934456I-127J20478D01*
G01*
G03X3806357Y4937258I-3821J11327D01*
G01*
G03X3809373Y4941464I-8144J9023D01*
G01*
G03X3810378Y4946687I-12227J5062D01*
G01*
G03X3809507Y4951696I-14132J122D01*
G01*
G03X3806898Y4955834I-11573J-4406D01*
G01*
G03X3802607Y4958613I-7929J-7539D01*
G01*
G03X3796645Y4959594I-5853J-16974D01*
G01*
X3784864D1*
Y4964197D1*
G02X3785392Y4966721I5459J176D01*
G01*
G02X3787015Y4968499I3988J-2011D01*
G01*
G02X3789734Y4969536I4078J-6613D01*
G01*
G02X3793549Y4969826I3230J-17249D01*
G01*
G02X3796314Y4969657I163J-20004D01*
G01*
G02X3798575Y4969145I-1549J-12093D01*
G01*
G02X3801553Y4966428I-2462J-5689D01*
G01*
X3808247Y4971696D1*
G03X3802245Y4976528I-12109J-8898D01*
G01*
G03X3798393Y4977695I-6836J-15628D01*
G01*
G03X3793972Y4978031I-3911J-22206D01*
G01*
G03X3786822Y4977296I-608J-29226D01*
G01*
G03X3781225Y4974935I3919J-17106D01*
G01*
G03X3777655Y4970465I5945J-8408D01*
G01*
G03X3776739Y4967369I13010J-5533D01*
G01*
G03X3776398Y4963695I21211J-3823D01*
G01*
Y4933918D1*
X3784864D1*
X3700414Y4952516D2*
X3727495D1*
G02X3726767Y4947821I-13942J-242D01*
G01*
G02X3724582Y4944464I-7909J2758D01*
G01*
G02X3721263Y4942452I-6611J7162D01*
G01*
G02X3717144Y4941781I-3947J11258D01*
G01*
G02X3712050Y4942831I-76J12509D01*
G01*
G02X3707592Y4945983I5959J13157D01*
G01*
X3701259Y4940573D1*
G03X3704696Y4937338I15953J13506D01*
G01*
G03X3708536Y4935187I10141J13601D01*
G01*
G03X3716980Y4933577I8383J21016D01*
G01*
G03X3723573Y4934661I-33J20795D01*
G01*
G03X3729960Y4937910I-8269J24157D01*
G01*
G03X3732708Y4940644I-6387J9169D01*
G01*
G03X3734671Y4944512I-13025J9042D01*
G01*
G03X3735848Y4949516I-24571J8421D01*
G01*
G03X3736239Y4955653I-43465J5851D01*
G01*
G03X3735880Y4961515I-43743J259D01*
G01*
G03X3734791Y4966396I-26850J-3431D01*
G01*
G03X3732981Y4970296I-16503J-5287D01*
G01*
G03X3730441Y4973216I-10760J-6793D01*
G01*
G03X3724507Y4976857I-14414J-16833D01*
G01*
G03X3718306Y4978071I-6220J-15329D01*
G01*
G03X3711598Y4976830I-132J-18032D01*
G01*
G03X3705783Y4973106I7007J-17342D01*
G01*
G03X3701755Y4967273I10790J-11758D01*
G01*
G03X3700414Y4959714I18937J-7259D01*
G01*
Y4952516D1*
X3943480Y4934079D2*
Y4977569D1*
X3934734D1*
Y4972924D1*
X3934573D1*
G03X3929703Y4976783I-10330J-8036D01*
G01*
G03X3923254Y4978071I-6177J-14129D01*
G01*
G03X3918590Y4977231I9J-13422D01*
G01*
G03X3914167Y4974712I5880J-15461D01*
G01*
X3920480Y4967172D1*
G02X3923355Y4968788I6979J-9054D01*
G01*
G02X3926270Y4969323I2931J-7757D01*
G01*
G02X3932109Y4967165I14J-8940D01*
G01*
G02X3934079Y4964346I-4243J-5063D01*
G01*
G02X3934734Y4960216I-11048J-3869D01*
G01*
Y4934079D1*
X3943480D1*
X3727495Y4959714D2*
X3709140D1*
G02X3709931Y4964044I14311J-379D01*
G01*
G02X3711905Y4967225I8225J-2900D01*
G01*
G02X3714785Y4969175I6096J-5902D01*
G01*
G02X3718306Y4969826I3413J-8612D01*
G01*
G02X3721876Y4969175I126J-9422D01*
G01*
G02X3724781Y4967225I-3222J-7940D01*
G01*
G02X3726746Y4964044I-6226J-6042D01*
G01*
G02X3727495Y4959714I-13120J-4500D01*
G01*
D3*
X3784864Y4949200D2*
Y4952397D1*
X3795057D1*
G02X3798313Y4951982I-228J-14777D01*
G01*
G02X3800627Y4950964I-1564J-6690D01*
G01*
G02X3801995Y4949338I-2377J-3390D01*
G01*
G02X3802414Y4947109I-4532J-2005D01*
G01*
G02X3801939Y4945078I-4391J-45D01*
G01*
G02X3800506Y4943329I-5003J2637D01*
G01*
G02X3798056Y4942048I-3866J4411D01*
G01*
G02X3794414Y4941620I-3375J13015D01*
G01*
G02X3789854Y4941906I-732J24823D01*
G01*
G02X3786875Y4942927I1125J8138D01*
G01*
G02X3785995Y4943831I1884J2711D01*
G01*
G02X3785367Y4945179I4428J2886D01*
G01*
G02X3784864Y4949200I12999J3667D01*
G01*
D3*
X3799682Y5017868D2*
Y5046780D1*
X3790936D1*
Y5020843D1*
G02X3790325Y5016899I-11799J-189D01*
G01*
G02X3788486Y5013948I-7379J2548D01*
G01*
G02X3785705Y5012109I-5779J5718D01*
G01*
G02X3782272Y5011495I-3320J8654D01*
G01*
G02X3778915Y5012109I-98J8947D01*
G01*
G02X3776159Y5013948I3030J7527D01*
G01*
G02X3774319Y5016899I5560J5515D01*
G01*
G02X3773707Y5020843I11143J3751D01*
G01*
Y5046780D1*
X3764961D1*
Y5003293D1*
X3773707D1*
Y5007897D1*
X3773888D1*
G03X3778722Y5004066I10275J8002D01*
G01*
G03X3785107Y5002791I6116J13997D01*
G01*
G03X3790157Y5003747I0J13806D01*
G01*
G03X3794977Y5006619I-6641J16629D01*
G01*
G03X3798507Y5011347I-7514J9292D01*
G01*
G03X3799388Y5014382I-13193J5473D01*
G01*
G03X3799682Y5017868I-19129J3368D01*
G01*
D3*
X3755031Y5003293D2*
Y5046780D1*
X3746285D1*
Y5042136D1*
X3746125D1*
G03X3741254Y5045997I-10326J-8025D01*
G01*
G03X3734806Y5047283I-6183J-14195D01*
G01*
G03X3730141Y5046443I-6J-13342D01*
G01*
G03X3725720Y5043926I5808J-15343D01*
G01*
X3732032Y5036386D1*
G02X3734907Y5037999I7021J-9148D01*
G01*
G02X3737822Y5038537I2954J-7836D01*
G01*
G02X3743662Y5036376I1J-8967D01*
G01*
G02X3745630Y5033557I-4212J-5038D01*
G01*
G02X3746285Y5029428I-10968J-3856D01*
G01*
Y5003293D1*
X3755031D1*
X3887629Y4934079D2*
Y4938604D1*
G03X3892731Y4934834I11523J10257D01*
G01*
G03X3898869Y4933577I5988J13625D01*
G01*
G03X3902608Y4933969I115J16911D01*
G01*
G03X3905785Y4935145I-2682J12128D01*
G01*
G03X3910510Y4939186I-6635J12541D01*
G01*
G03X3912985Y4944655I-9814J7736D01*
G01*
G03X3913449Y4949039I-32405J5651D01*
G01*
G03X3913606Y4955875I-125305J6282D01*
G01*
G03X3913449Y4962625I-122313J548D01*
G01*
G03X3912985Y4966952I-32069J-1255D01*
G01*
G03X3910510Y4972422I-12570J-2393D01*
G01*
G03X3905785Y4976462I-11828J-9047D01*
G01*
G03X3902608Y4977667I-5886J-10731D01*
G01*
G03X3898869Y4978071I-3644J-16210D01*
G01*
G03X3892789Y4976644I-174J-12918D01*
G01*
G03X3887629Y4972924I10978J-20670D01*
G01*
Y4995120D1*
X3878882D1*
Y4934079D1*
X3887629D1*
X4012415Y5011495D2*
G02X4009637Y5011760I-120J13435D01*
G01*
G02X4007476Y5012553I1489J7404D01*
G01*
G02X4005002Y5015726I2549J4538D01*
G01*
G02X4003768Y5024985I31892J8961D01*
G01*
G02X4005002Y5034273I33312J302D01*
G01*
G02X4007476Y5037472I5050J-1350D01*
G01*
G02X4009637Y5038270I3586J-6387D01*
G01*
G02X4012415Y5038537I2626J-12705D01*
G01*
G02X4015182Y5038260I119J-12773D01*
G01*
G02X4017333Y5037436I-1477J-7073D01*
G01*
G02X4019783Y5034133I-2765J-4611D01*
G01*
G02X4020999Y5024985I-33083J-9054D01*
G01*
G02X4019783Y5015878I-33993J-93D01*
G01*
G02X4017333Y5012590I-5181J1303D01*
G01*
G02X4015182Y5011770I-3666J6383D01*
G01*
G02X4012415Y5011495I-2614J12281D01*
G01*
D3*
X3652812Y5021728D2*
X3679890D1*
G02X3679163Y5017032I-13811J-266D01*
G01*
G02X3676978Y5013678I-7816J2703D01*
G01*
G02X3673661Y5011665I-6544J7043D01*
G01*
G02X3669536Y5010993I-3974J11400D01*
G01*
G02X3664449Y5012043I-80J12461D01*
G01*
G02X3659989Y5015195I5937J13134D01*
G01*
X3653655Y5009787D1*
G03X3657094Y5006550I15860J13406D01*
G01*
G03X3660934Y5004398I10077J13478D01*
G01*
G03X3669378Y5002791I8379J21029D01*
G01*
G03X3675969Y5003872I-6J20663D01*
G01*
G03X3682355Y5007121I-8254J24120D01*
G01*
G03X3685104Y5009855I-6324J9110D01*
G01*
G03X3687067Y5013724I-12700J8877D01*
G01*
G03X3688247Y5018728I-24573J8435D01*
G01*
G03X3688638Y5024864I-44038J5887D01*
G01*
G03X3688276Y5030728I-43175J276D01*
G01*
G03X3687188Y5035608I-27227J-3508D01*
G01*
G03X3685373Y5039508I-16375J-5248D01*
G01*
G03X3682838Y5042427I-10568J-6620D01*
G01*
G03X3676903Y5046069I-14321J-16680D01*
G01*
G03X3670705Y5047283I-6220J-15329D01*
G01*
G03X3663993Y5046041I-129J-18071D01*
G01*
G03X3658178Y5042317I7074J-17447D01*
G01*
G03X3654154Y5036487I10785J-11747D01*
G01*
G03X3652812Y5028926I18858J-7248D01*
G01*
Y5021728D1*
X3886045Y5010531D2*
X3879934Y5016582D1*
G02X3873651Y5012389I-13738J13780D01*
G01*
G02X3866225Y5010993I-7246J18092D01*
G01*
G02X3862825Y5011346I-130J15298D01*
G01*
G02X3860071Y5012401I2110J9626D01*
G01*
G02X3858245Y5014149I2317J4249D01*
G01*
G02X3857638Y5016582I4153J2327D01*
G01*
G02X3857972Y5018273I4073J76D01*
G01*
G02X3858972Y5019548I3100J-1404D01*
G01*
G02X3860634Y5020405I3125J-4022D01*
G01*
G02X3862966Y5020843I3069J-9907D01*
G01*
X3870666Y5021567D1*
G03X3875611Y5022657I-1097J16750D01*
G01*
G03X3879630Y5025117I-4914J12540D01*
G01*
G03X3882304Y5028880I-6560J7492D01*
G01*
G03X3883192Y5033873I-12368J4776D01*
G01*
G03X3882031Y5039683I-13732J276D01*
G01*
G03X3878546Y5043885I-9756J-4544D01*
G01*
G03X3873335Y5046434I-9847J-13534D01*
G01*
G03X3866989Y5047283I-6115J-21560D01*
G01*
G03X3861700Y5046881I-181J-32644D01*
G01*
G03X3857225Y5045675I3509J-21925D01*
G01*
G03X3849938Y5041372I9602J-24583D01*
G01*
X3855346Y5034999D1*
G02X3860703Y5037903I16549J-24133D01*
G01*
G02X3866989Y5039040I6012J-15300D01*
G01*
G02X3870533Y5038667I279J-14384D01*
G01*
G02X3872808Y5037553I-1118J-5161D01*
G01*
G02X3874445Y5033793I-3229J-3643D01*
G01*
G02X3874142Y5032418I-3181J-20D01*
G01*
G02X3873229Y5031149I-4014J1926D01*
G01*
G02X3871489Y5030175I-2886J3116D01*
G01*
G02X3868696Y5029690I-3477J11723D01*
G01*
X3861498Y5029187D1*
G03X3858359Y5028752I1283J-20834D01*
G01*
G03X3855700Y5027913I2934J-13916D01*
G01*
G03X3851815Y5025016I3728J-9054D01*
G01*
G03X3849624Y5020948I10447J-8252D01*
G01*
G03X3848890Y5016159I14547J-4679D01*
G01*
G03X3850203Y5010480I12038J-210D01*
G01*
G03X3854129Y5006268I10147J5524D01*
G01*
G03X3859943Y5003659I10931J16575D01*
G01*
G03X3866906Y5002791I6705J25398D01*
G01*
G03X3877119Y5004725I179J26982D01*
G01*
G03X3886045Y5010531I-11035J26732D01*
G01*
D3*
X3679890Y5028926D2*
X3661536D1*
G02X3662329Y5033256I14277J-375D01*
G01*
G02X3664301Y5036436I8292J-2942D01*
G01*
G02X3667184Y5038389I6158J-5987D01*
G01*
G02X3670705Y5039040I3423J-8667D01*
G01*
G02X3674273Y5038389I97J-9572D01*
G01*
G02X3677179Y5036436I-3250J-7973D01*
G01*
G02X3679145Y5033256I-6189J-6024D01*
G01*
G02X3679890Y5028926I-13273J-4514D01*
G01*
D3*
X4029745Y4934079D2*
Y5046780D1*
X4020999D1*
Y5042217D1*
G03X4015907Y5046016I-11519J-10127D01*
G01*
G03X4009759Y5047283I-6004J-13589D01*
G01*
G03X4006053Y5046881I-130J-16099D01*
G01*
G03X4002893Y5045675I2744J-11934D01*
G01*
G03X3998119Y5041633I7463J-13655D01*
G01*
G03X3995666Y5036163I10504J-7995D01*
G01*
G03X3995183Y5031812I30846J-5626D01*
G01*
G03X3995023Y5024985I123193J-6304D01*
G01*
G03X3995183Y5018201I121754J-520D01*
G01*
G03X3995666Y5013848I31259J1265D01*
G01*
G03X3998119Y5008399I12695J2438D01*
G01*
G03X4002893Y5004359I11741J9032D01*
G01*
G03X4006053Y5003182I5788J10708D01*
G01*
G03X4009759Y5002791I3593J16298D01*
G01*
G03X4015861Y5004166I223J13236D01*
G01*
G03X4020999Y5007897I-9902J19038D01*
G01*
Y4972924D1*
X4020835D1*
G03X4015968Y4976783I-10362J-8073D01*
G01*
G03X4009518Y4978071I-6179J-14141D01*
G01*
G03X4004540Y4977107I23J-13445D01*
G01*
G03X3999738Y4974220I6839J-16811D01*
G01*
G03X3996201Y4969487I7554J-9333D01*
G01*
G03X3995319Y4966460I12917J-5405D01*
G01*
G03X3995023Y4962991I18616J-3339D01*
G01*
Y4934079D1*
X4003768D1*
Y4959976D1*
G02X4004380Y4963896I11663J188D01*
G01*
G02X4006221Y4966851I7472J-2604D01*
G01*
G02X4008974Y4968705I5832J-5687D01*
G01*
G02X4012333Y4969323I3241J-8176D01*
G01*
G02X4015767Y4968705I118J-9192D01*
G01*
G02X4018545Y4966851I-2980J-7473D01*
G01*
G02X4020386Y4963896I-5631J-5559D01*
G01*
G02X4020999Y4959976I-11095J-3743D01*
G01*
Y4934079D1*
X4029745D1*
X3844310Y5170680D2*
D27*
G02X3882780Y5170680I19235J41791D01*
G01*
G03X3881713Y5167974I876J-1909D01*
G01*
X3909291Y5100427D1*
G03X3912043Y5099279I1948J797D01*
G01*
X3927022Y5105485D1*
G02X3929007Y5105284I806J-1946D01*
G01*
X3961955Y5082994D1*
G03X3964619Y5083247I1179J1736D01*
G01*
X3992768Y5111397D1*
G03X3993022Y5114062I-1484J1486D01*
G01*
X3970731Y5147007D1*
G02X3970531Y5148990I1762J1180D01*
G01*
X3984083Y5181707D1*
G02X3985627Y5182968I1943J-803D01*
G01*
X4024683Y5190502D1*
G03X4026388Y5192565I-394J2062D01*
G01*
Y5232375D1*
G03X4024683Y5234440I-2099J4D01*
G01*
X3985627Y5241974D1*
G02X3984083Y5243234I395J2059D01*
G01*
X3970531Y5275949D1*
G02X3970731Y5277932I1963J803D01*
G01*
X3993022Y5310880D1*
G03X3992768Y5313545I-1738J1180D01*
G01*
X3964619Y5341695D1*
G03X3961955Y5341948I-1485J-1483D01*
G01*
X3929007Y5319658D1*
G02X3927022Y5319457I-1179J1746D01*
G01*
X3894309Y5333010D1*
G02X3893049Y5334553I799J1938D01*
G01*
X3885514Y5373611D1*
G03X3883449Y5375315I-2067J-401D01*
G01*
X3843641D1*
G03X3841577Y5373611I1J-2103D01*
G01*
X3834041Y5334553D1*
G02X3832781Y5333010I-2059J395D01*
G01*
X3800064Y5319457D1*
G02X3798083Y5319658I-804J1937D01*
G01*
X3765136Y5341948D1*
G03X3762469Y5341695I-1180J-1741D01*
G01*
X3734322Y5313545D1*
G03X3734067Y5310880I1481J-1486D01*
G01*
X3756357Y5277932D1*
G02X3756558Y5275949I-1740J-1178D01*
G01*
X3743008Y5243234D1*
G02X3741461Y5241974I-1945J808D01*
G01*
X3702405Y5234440D1*
G03X3700700Y5232375I401J-2067D01*
G01*
Y5192565D1*
G03X3702405Y5190502I2106J4D01*
G01*
X3741461Y5182968D1*
G02X3743008Y5181707I-402J-2073D01*
G01*
X3756558Y5148990D1*
G02X3756357Y5147007I-1941J-805D01*
G01*
X3734067Y5114062D1*
G03X3734322Y5111397I1736J-1179D01*
G01*
X3762469Y5083247D1*
G03X3765136Y5082994I1487J1488D01*
G01*
X3798083Y5105284D1*
G02X3800064Y5105485I1176J-1736D01*
G01*
X3815046Y5099279D1*
G03X3817797Y5100427I803J1944D01*
G01*
X3845375Y5167974D1*
G03X3844310Y5170680I-1941J799D01*
G01*
G36*
X2193506Y5518901D2*
Y5420869D1*
X2204136D1*
Y5518901D1*
X2193506D1*
G37*
G36*
X2223033D2*
Y5420869D1*
X2233663D1*
Y5518901D1*
X2223033D1*
G37*
G36*
X2993112D2*
Y5462208D1*
X2991860Y5460925D1*
X2991248Y5461117D1*
X2990750Y5462208D1*
X2986026Y5468113D1*
X2968309Y5487011D1*
X2964766Y5490554D1*
X2950593D1*
X2978939Y5462208D1*
X2978551Y5460775D1*
X2977758Y5459846D1*
X2958860Y5436223D1*
X2952955Y5429137D1*
X2948230Y5423231D1*
X2947049Y5420869D1*
X2961222D1*
X2963585Y5423231D1*
X2967128Y5427956D1*
X2971852Y5433861D1*
X2978939Y5443310D1*
X2983663Y5449216D1*
X2987207Y5453940D1*
X2988089Y5454699D1*
X2988701Y5454630D1*
X2989569Y5453940D1*
X2993112Y5450397D1*
Y5420869D1*
X3003742D1*
Y5518901D1*
X2993112D1*
G37*
G36*
X1750593Y5505909D2*
X1749411Y5504727D1*
X1747049Y5500003D1*
X1744687Y5492916D1*
X1743506Y5487011D1*
X1742325Y5476381D1*
Y5457483D1*
X1743506Y5448035D1*
X1744687Y5442129D1*
X1747049Y5435042D1*
X1749411Y5430318D1*
X1751774Y5426775D1*
X1755317Y5423231D1*
X1758860Y5420869D1*
X1765947Y5418507D1*
X1777758D1*
X1782482Y5419688D1*
X1787207Y5422050D1*
X1793112Y5427956D1*
X1795474Y5431499D1*
X1796656Y5433861D1*
X1799018Y5440948D1*
X1800199Y5445672D1*
X1801380Y5452759D1*
Y5482286D1*
X1800199Y5489373D1*
X1799018Y5494097D1*
X1796656Y5501184D1*
X1794293Y5505909D1*
X1787207Y5512995D1*
X1782482Y5515357D1*
X1777758Y5516538D1*
X1767128D1*
X1762404Y5515357D1*
X1755317Y5511814D1*
X1751774Y5508271D1*
X1750593Y5505909D1*
X1765947D1*
X1769884Y5507090D1*
X1773821D1*
X1777758Y5505909D1*
X1782482Y5503546D1*
X1783434Y5502021D1*
X1783663Y5501184D1*
X1786026Y5497641D1*
X1787207Y5494097D1*
X1788388Y5488192D1*
X1789569Y5487011D1*
Y5448035D1*
X1788388Y5446853D1*
X1787207Y5440948D1*
X1786026Y5437405D1*
X1783663Y5433861D1*
X1783275Y5432428D1*
X1782482Y5431499D1*
X1777758Y5429137D1*
X1774215Y5427956D1*
X1770671D1*
X1763585Y5430318D1*
X1758860Y5435042D1*
Y5436223D1*
X1757679Y5438586D1*
X1756498Y5443310D1*
X1755317Y5451578D1*
X1754136Y5452759D1*
Y5482286D1*
X1755317Y5483468D1*
X1756498Y5491735D1*
X1757679Y5496460D1*
X1758860Y5498822D1*
Y5500003D1*
X1763585Y5504727D1*
X1765947Y5505909D1*
X1750593D1*
G37*
G36*
X2571459Y5516538D2*
X2562010Y5514176D1*
X2558467Y5512995D1*
X2551380Y5509452D1*
Y5494097D1*
X2558467Y5500003D1*
X2559648Y5501184D1*
X2564372Y5503546D1*
X2571459Y5505909D1*
X2576183Y5507090D1*
X2580907D1*
X2590356Y5504727D1*
X2592719Y5503546D1*
X2593900Y5502365D1*
X2596262Y5501184D1*
X2602167Y5495279D1*
Y5494097D1*
X2604530Y5490554D1*
X2606892Y5483468D1*
X2608073Y5478743D1*
X2609254Y5477562D1*
Y5457483D1*
X2608073Y5456302D1*
X2606892Y5451578D1*
X2604530Y5444491D1*
X2602167Y5440948D1*
Y5439767D1*
X2595081Y5432680D1*
X2590356Y5430318D1*
X2580907Y5427956D1*
X2576183D1*
X2571459Y5429137D1*
X2564372Y5431499D1*
X2559648Y5433861D1*
X2558467Y5435042D1*
X2551380Y5440948D1*
Y5426775D1*
X2552561Y5425594D1*
X2559648Y5422050D1*
X2566734Y5419688D1*
X2571459Y5418507D1*
X2586813D1*
X2591537Y5419688D1*
X2598624Y5422050D1*
X2605711Y5426775D1*
X2611616Y5432680D1*
X2613978Y5436223D1*
X2617522Y5443310D1*
X2618703Y5446853D1*
X2619884Y5451578D1*
X2621065Y5457483D1*
Y5477562D1*
X2619884Y5483468D1*
X2618703Y5488192D1*
X2617522Y5490554D1*
X2616341Y5494097D1*
X2613978Y5497641D1*
X2612797Y5500003D1*
X2602167Y5510633D1*
X2595081Y5514176D1*
X2591537Y5515357D1*
X2585632Y5516538D1*
X2571459D1*
G37*
G36*
X2689569D2*
X2680120Y5514176D1*
X2676577Y5512995D1*
X2669490Y5509452D1*
Y5494097D1*
X2676577Y5500003D1*
X2677758Y5501184D1*
X2682482Y5503546D1*
X2689569Y5505909D1*
X2694293Y5507090D1*
X2699018D1*
X2708467Y5504727D1*
X2710829Y5503546D1*
X2712010Y5502365D1*
X2714372Y5501184D1*
X2720278Y5495279D1*
Y5494097D1*
X2722640Y5490554D1*
X2725002Y5483468D1*
X2726183Y5478743D1*
X2727364Y5477562D1*
Y5457483D1*
X2726183Y5456302D1*
X2725002Y5451578D1*
X2722640Y5444491D1*
X2720278Y5440948D1*
Y5439767D1*
X2713191Y5432680D1*
X2708467Y5430318D1*
X2699018Y5427956D1*
X2694293D1*
X2689569Y5429137D1*
X2682482Y5431499D1*
X2677758Y5433861D1*
X2676577Y5435042D1*
X2669490Y5440948D1*
Y5426775D1*
X2670671Y5425594D1*
X2677758Y5422050D1*
X2684844Y5419688D1*
X2689569Y5418507D1*
X2704923D1*
X2709648Y5419688D1*
X2716734Y5422050D1*
X2723821Y5426775D1*
X2729726Y5432680D1*
X2732089Y5436223D1*
X2735632Y5443310D1*
X2736813Y5446853D1*
X2737994Y5451578D1*
X2739175Y5457483D1*
Y5477562D1*
X2737994Y5483468D1*
X2736813Y5488192D1*
X2735632Y5490554D1*
X2734451Y5494097D1*
X2732089Y5497641D1*
X2730907Y5500003D1*
X2720278Y5510633D1*
X2713191Y5514176D1*
X2709648Y5515357D1*
X2703742Y5516538D1*
X2689569D1*
G37*
G36*
X2853742D2*
X2844293Y5514176D1*
X2840750Y5512995D1*
X2833663Y5509452D1*
Y5494097D1*
X2840750Y5500003D1*
X2841931Y5501184D1*
X2846656Y5503546D1*
X2853742Y5505909D1*
X2858467Y5507090D1*
X2863191D1*
X2872640Y5504727D1*
X2875002Y5503546D1*
X2876183Y5502365D1*
X2878545Y5501184D1*
X2884451Y5495279D1*
Y5494097D1*
X2886813Y5490554D1*
X2889175Y5483468D1*
X2890356Y5478743D1*
X2891537Y5477562D1*
Y5457483D1*
X2890356Y5456302D1*
X2889175Y5451578D1*
X2886813Y5444491D1*
X2884451Y5440948D1*
Y5439767D1*
X2877364Y5432680D1*
X2872640Y5430318D1*
X2863191Y5427956D1*
X2858467D1*
X2853742Y5429137D1*
X2846656Y5431499D1*
X2841931Y5433861D1*
X2840750Y5435042D1*
X2833663Y5440948D1*
Y5426775D1*
X2834844Y5425594D1*
X2841931Y5422050D1*
X2849018Y5419688D1*
X2853742Y5418507D1*
X2869096D1*
X2873821Y5419688D1*
X2880907Y5422050D1*
X2887994Y5426775D1*
X2893900Y5432680D1*
X2896262Y5436223D1*
X2899805Y5443310D1*
X2900986Y5446853D1*
X2902167Y5451578D1*
X2903348Y5457483D1*
Y5477562D1*
X2902167Y5483468D1*
X2900986Y5488192D1*
X2899805Y5490554D1*
X2898624Y5494097D1*
X2896262Y5497641D1*
X2895081Y5500003D1*
X2884451Y5510633D1*
X2877364Y5514176D1*
X2873821Y5515357D1*
X2867915Y5516538D1*
X2853742D1*
G37*
G36*
X3271852Y5469294D2*
X3269490Y5466932D1*
X3268309Y5464570D1*
X3267128Y5461027D1*
X3265947Y5453940D1*
Y5448035D1*
X3267128Y5440948D1*
X3268309Y5437405D1*
X3271852Y5430318D1*
X3278939Y5423231D1*
X3286026Y5419688D1*
X3290750Y5418507D1*
X3301380D1*
X3308467Y5420869D1*
X3310829Y5422050D1*
X3319096Y5430318D1*
X3322640Y5437405D1*
X3325002Y5444491D1*
X3326183Y5451578D1*
Y5472838D1*
X3325002Y5479924D1*
X3323821Y5485830D1*
X3322640Y5489373D1*
X3321459Y5491735D1*
X3320278Y5495279D1*
X3317915Y5498822D1*
X3316734Y5501184D1*
X3307285Y5510633D1*
X3300199Y5514176D1*
X3296656Y5515357D1*
X3291931Y5516538D1*
X3277758D1*
X3274215Y5515357D1*
Y5504727D1*
X3275396D1*
X3278939Y5505909D1*
X3283663Y5507090D1*
X3288388D1*
X3293112Y5505909D1*
X3296656Y5504727D1*
X3301380Y5502365D1*
X3308467Y5495279D1*
Y5494097D1*
X3310829Y5489373D1*
X3312010Y5485830D1*
X3313191Y5479924D1*
X3314372Y5478743D1*
Y5475200D1*
X3312932Y5473967D1*
X3312010Y5474019D1*
X3309648Y5476381D1*
X3307285Y5477562D1*
X3303742Y5478743D1*
X3299018Y5479924D1*
X3287207D1*
X3280120Y5477562D1*
X3276577Y5475200D1*
X3271852Y5470475D1*
Y5469294D1*
X3289569D1*
X3294293Y5470475D1*
X3299018D1*
X3303742Y5469294D1*
X3310829Y5466932D1*
X3313191Y5465751D1*
X3314372Y5464570D1*
Y5448035D1*
X3313191Y5446853D1*
X3312010Y5442129D1*
X3310829Y5438586D1*
X3308467Y5435042D1*
X3308078Y5433609D1*
X3307285Y5432680D1*
X3304923Y5431499D1*
X3303742Y5430318D1*
X3301380Y5429137D1*
X3297443Y5427956D1*
X3293506D1*
X3289569Y5429137D1*
X3284844Y5431499D1*
X3281301Y5435042D1*
Y5436223D1*
X3280120Y5438586D1*
X3278939Y5443310D1*
X3277758Y5444491D1*
Y5455121D1*
X3278939Y5456302D1*
X3280120Y5461027D1*
Y5462208D1*
X3284844Y5466932D1*
X3289569Y5469294D1*
X3271852D1*
G37*
G36*
X1907679Y5514176D2*
Y5430318D1*
X1891144Y5429137D1*
Y5420869D1*
X1934844D1*
Y5429137D1*
X1918309Y5430318D1*
Y5492916D1*
X1934844Y5494097D1*
Y5501184D1*
X1927758Y5502365D1*
X1923033Y5503546D1*
X1920671Y5504727D1*
X1917128Y5508271D1*
Y5510633D1*
X1915947Y5514176D1*
X1907679D1*
G37*
G36*
X1951380D2*
Y5511814D1*
X1960829Y5483468D1*
X1962010Y5481105D1*
X1971459Y5452759D1*
X1972640Y5450397D1*
X1982089Y5422050D1*
X1983270Y5420869D1*
X1996262D1*
X2005711Y5449216D1*
X2006892Y5451578D1*
X2016341Y5479924D1*
X2017522Y5482286D1*
X2026970Y5510633D1*
X2028152Y5512995D1*
Y5514176D1*
X2016341D1*
X2015159Y5512995D1*
X1990356Y5438586D1*
X1990056Y5437192D1*
X1989106Y5436115D1*
X1988497Y5436311D1*
X1987736Y5437612D1*
X1987994Y5438586D1*
X1963191Y5512995D1*
X1962010Y5514176D1*
X1951380D1*
G37*
G36*
X2754530D2*
Y5420869D1*
X2767522D1*
X2781695Y5449216D1*
X2784057Y5452759D1*
X2807093Y5498814D1*
X2807733Y5499905D1*
X2808571Y5500742D1*
X2809175Y5500687D1*
X2810041Y5500003D1*
Y5420869D1*
X2820671D1*
Y5514176D1*
X2802955D1*
X2767522Y5443310D1*
X2767222Y5441917D1*
X2766272Y5440839D1*
X2765660Y5441038D1*
X2765159Y5442129D1*
Y5514176D1*
X2754530D1*
G37*
G36*
X3151380Y5503546D2*
X3149018Y5501184D1*
X3146656Y5496460D1*
X3145474Y5492916D1*
Y5479924D1*
X3147837Y5472838D1*
X3150199Y5469294D1*
X3157285Y5462208D1*
X3160829Y5459846D1*
X3167915Y5457483D1*
X3172640Y5456302D1*
X3192719Y5455121D1*
Y5420869D1*
X3203348D1*
Y5514176D1*
X3171459D1*
X3165553Y5512995D1*
X3162010Y5511814D1*
X3157285Y5509452D1*
X3153742Y5507090D1*
X3151380Y5504727D1*
Y5503546D1*
X3171459D1*
X3178545Y5504727D1*
X3185632D1*
X3192719Y5503546D1*
Y5466932D1*
X3186026Y5465751D1*
X3179333D1*
X3172640Y5466932D1*
X3167915Y5468113D1*
X3165553Y5469294D1*
X3159648Y5475200D1*
Y5476381D1*
X3158467Y5478743D1*
X3157285Y5479924D1*
Y5491735D1*
X3158467Y5492916D1*
Y5495279D1*
X3164372Y5501184D1*
X3171459Y5503546D1*
X3151380D1*
G37*
G36*
X2384844Y5510633D2*
Y5491735D1*
X2362404Y5490554D1*
Y5482286D1*
X2384844Y5481105D1*
Y5440948D1*
X2383663Y5439767D1*
Y5435042D1*
X2380120Y5431499D1*
X2377758Y5430318D1*
X2373821Y5429137D1*
X2369884D1*
X2365947Y5430318D1*
X2363585Y5431499D1*
X2362404D1*
Y5422050D1*
X2363585Y5420869D1*
X2369490Y5419688D1*
X2380120D1*
X2383663Y5420869D1*
X2388388Y5423231D1*
X2390750Y5425594D1*
X2393112Y5429137D1*
X2394293Y5432680D1*
X2395474Y5439767D1*
Y5481105D1*
X2402561Y5482286D1*
Y5490554D1*
X2395474Y5491735D1*
Y5510633D1*
X2384844D1*
G37*
G36*
X1816734Y5481105D2*
X1816346Y5479672D1*
X1815553Y5478743D1*
X1814372Y5476381D1*
X1813191Y5472838D1*
X1812010Y5468113D1*
Y5448035D1*
X1813191Y5443310D1*
X1814372Y5439767D1*
X1817915Y5432680D1*
X1820278Y5429137D1*
X1823821Y5425594D1*
X1827364Y5423231D1*
X1832089Y5420869D1*
X1835632Y5419688D1*
X1847443D1*
X1854530Y5422050D1*
X1856892Y5423231D1*
X1857774Y5423990D1*
X1858386Y5423921D1*
X1859254Y5423231D1*
Y5394885D1*
X1869884D1*
Y5490554D1*
X1859254D1*
Y5485830D1*
X1857814Y5484597D1*
X1856892Y5484649D1*
X1853348Y5488192D1*
X1846262Y5491735D1*
X1841537Y5492916D1*
X1832089D1*
X1828545Y5491735D1*
X1823821Y5489373D1*
X1817915Y5483468D1*
X1816734Y5481105D1*
X1834451D1*
X1838388Y5482286D1*
X1842325D1*
X1846262Y5481105D1*
X1849805Y5479924D1*
X1854530Y5477562D1*
X1855711Y5476381D1*
X1858073Y5475200D1*
X1859254Y5474019D1*
Y5433861D1*
X1858073Y5432680D1*
X1850986Y5430318D1*
X1846262Y5429137D1*
X1841537D1*
X1836813Y5430318D1*
X1832089Y5432680D1*
X1826183Y5438586D1*
Y5439767D1*
X1825002Y5443310D1*
X1823821Y5448035D1*
X1822640Y5449216D1*
Y5463389D1*
X1823821Y5464570D1*
X1825002Y5470475D1*
X1826183Y5474019D1*
Y5475200D1*
X1829726Y5478743D1*
X1834451Y5481105D1*
X1816734D1*
G37*
G36*
X2126183Y5483468D2*
X2125002Y5482286D1*
X2122640Y5478743D1*
X2121459Y5475200D1*
X2120278Y5470475D1*
Y5455121D1*
X2168703Y5453940D1*
Y5445672D1*
X2167522Y5444491D1*
X2166341Y5440948D1*
Y5439767D1*
X2160435Y5433861D1*
X2155711Y5431499D1*
X2152167Y5430318D1*
X2147443Y5429137D1*
X2142719D1*
X2133270Y5431499D1*
X2129726Y5432680D1*
X2122640Y5436223D1*
X2121459Y5437405D1*
Y5425594D1*
X2122640Y5424412D1*
X2128545Y5422050D1*
X2137994Y5419688D1*
X2152167D1*
X2156892Y5420869D1*
X2160435Y5422050D1*
X2167522Y5425594D1*
X2173427Y5431499D1*
X2175789Y5435042D1*
X2176970Y5437405D1*
X2179333Y5444491D1*
X2180514Y5455121D1*
Y5456302D1*
X2179333Y5466932D1*
X2176970Y5474019D1*
X2174608Y5478743D1*
X2172246Y5482286D1*
X2168703Y5485830D1*
X2163978Y5489373D1*
X2161616Y5490554D1*
X2158073Y5491735D1*
X2153348Y5492916D1*
X2141537D1*
X2136813Y5491735D1*
X2132089Y5489373D1*
X2126183Y5483468D1*
X2141537D1*
X2145868Y5484649D1*
X2150199D1*
X2154530Y5483468D1*
X2158073Y5482286D1*
X2160435Y5481105D1*
X2166341Y5475200D1*
Y5474019D1*
X2167522Y5470475D1*
X2168703Y5469294D1*
Y5464570D1*
X2155711Y5463389D1*
X2142719D1*
X2129726Y5464570D1*
Y5466932D1*
X2130907Y5468113D1*
X2132089Y5474019D1*
X2133270Y5476381D1*
Y5477562D1*
X2136813Y5481105D1*
X2141537Y5483468D1*
X2126183D1*
G37*
G36*
X2254923Y5482286D2*
Y5481105D1*
X2252561Y5478743D1*
X2250199Y5474019D1*
X2249018Y5470475D1*
X2247837Y5465751D1*
Y5445672D1*
X2249018Y5440948D1*
X2250199Y5437405D1*
X2253742Y5430318D1*
X2260829Y5423231D1*
X2267915Y5419688D1*
X2272640Y5418507D1*
X2284451D1*
X2289175Y5419688D1*
X2292719Y5420869D1*
X2296262Y5423231D1*
X2303348Y5430318D1*
X2305711Y5433861D1*
X2306892Y5437405D1*
X2308073Y5439767D1*
X2309254Y5444491D1*
Y5466932D1*
X2308073Y5471657D1*
X2306892Y5475200D1*
X2305711Y5477562D1*
X2303348Y5481105D1*
X2296262Y5488192D1*
X2289175Y5491735D1*
X2284451Y5492916D1*
X2272640D1*
X2267915Y5491735D1*
X2260829Y5488192D1*
X2254923Y5482286D1*
X2272640D1*
X2276577Y5483468D1*
X2280514D1*
X2284451Y5482286D1*
X2287994Y5481105D1*
X2290356Y5479924D1*
X2293900Y5476381D1*
Y5475200D1*
X2296262Y5470475D1*
X2297443Y5466932D1*
X2298624Y5465751D1*
Y5446853D1*
X2297443Y5445672D1*
X2296262Y5440948D1*
X2293900Y5436223D1*
Y5435042D1*
X2290356Y5431499D1*
X2287994Y5430318D1*
X2284451Y5429137D1*
X2280514Y5427956D1*
X2276577D1*
X2272640Y5429137D1*
X2269096Y5430318D1*
X2267915Y5431499D1*
X2265553Y5432680D1*
X2264152Y5434008D1*
X2264372Y5435042D1*
X2262010Y5438586D1*
X2260829Y5442129D1*
X2259648Y5446853D1*
X2258467Y5448035D1*
Y5463389D1*
X2259648Y5464570D1*
X2260829Y5469294D1*
X2262010Y5472838D1*
X2264372Y5476381D1*
X2264602Y5477218D1*
X2265553Y5478743D1*
X2272640Y5482286D1*
X2254923D1*
G37*
G36*
X2430907Y5492916D2*
X2426183Y5491735D1*
X2423821Y5490554D1*
X2417915Y5484649D1*
X2415553Y5479924D1*
X2414372Y5476381D1*
Y5420869D1*
X2423821D1*
X2425002Y5462208D1*
X2426183Y5474019D1*
Y5476381D1*
X2429726Y5479924D1*
X2432089Y5481105D1*
X2436026Y5482286D1*
X2439963D1*
X2443900Y5481105D1*
X2447443Y5479924D1*
X2449805Y5478743D1*
X2450986Y5477562D1*
X2453348Y5476381D1*
X2456892Y5472838D1*
Y5420869D1*
X2467522D1*
Y5490554D1*
X2456892D1*
Y5484649D1*
X2455639Y5483366D1*
X2455028Y5483558D1*
X2454530Y5484649D1*
X2452167Y5487011D1*
X2448624Y5489373D1*
X2443900Y5491735D1*
X2439175Y5492916D1*
X2430907D1*
G37*
G36*
X2488782Y5482286D2*
Y5481105D1*
X2486419Y5478743D1*
X2484057Y5474019D1*
X2482876Y5470475D1*
X2481695Y5465751D1*
Y5445672D1*
X2482876Y5440948D1*
X2484057Y5437405D1*
X2487600Y5430318D1*
X2494687Y5423231D1*
X2501774Y5419688D1*
X2506498Y5418507D1*
X2518309D1*
X2523033Y5419688D1*
X2526577Y5420869D1*
X2530120Y5423231D1*
X2537207Y5430318D1*
X2539569Y5433861D1*
X2540750Y5437405D1*
X2541931Y5439767D1*
X2543112Y5444491D1*
Y5466932D1*
X2541931Y5471657D1*
X2540750Y5475200D1*
X2539569Y5477562D1*
X2537207Y5481105D1*
X2530120Y5488192D1*
X2523033Y5491735D1*
X2518309Y5492916D1*
X2506498D1*
X2501774Y5491735D1*
X2494687Y5488192D1*
X2488782Y5482286D1*
X2506498D1*
X2510435Y5483468D1*
X2514372D1*
X2518309Y5482286D1*
X2521852Y5481105D1*
X2524215Y5479924D1*
X2527758Y5476381D1*
Y5475200D1*
X2530120Y5470475D1*
X2531301Y5466932D1*
X2532482Y5465751D1*
Y5446853D1*
X2531301Y5445672D1*
X2530120Y5440948D1*
X2527758Y5436223D1*
Y5435042D1*
X2524215Y5431499D1*
X2521852Y5430318D1*
X2518309Y5429137D1*
X2514372Y5427956D1*
X2510435D1*
X2506498Y5429137D1*
X2502955Y5430318D1*
X2501774Y5431499D1*
X2499411Y5432680D1*
X2498011Y5434008D1*
X2498230Y5435042D1*
X2495868Y5438586D1*
X2494687Y5442129D1*
X2493506Y5446853D1*
X2492325Y5448035D1*
Y5463389D1*
X2493506Y5464570D1*
X2494687Y5469294D1*
X2495868Y5472838D1*
X2498230Y5476381D1*
X2498460Y5477218D1*
X2499411Y5478743D1*
X2506498Y5482286D1*
X2488782D1*
G37*
G36*
X3030907Y5492916D2*
X3026183Y5491735D1*
X3019096Y5489373D1*
X3016734Y5488192D1*
Y5475200D1*
X3020278Y5477562D1*
X3021459Y5478743D1*
X3023821Y5479924D1*
X3030907Y5482286D1*
X3034844Y5483468D1*
X3038782D1*
X3042719Y5482286D1*
X3046262Y5481105D1*
X3048624Y5479924D1*
X3054530Y5474019D1*
Y5472838D1*
X3055711Y5470475D1*
X3056892Y5465751D1*
X3058073Y5464570D1*
Y5448035D1*
X3056892Y5446853D1*
X3055711Y5442129D1*
X3054530Y5439767D1*
Y5438586D1*
X3048624Y5432680D1*
X3046262Y5431499D1*
X3042719Y5430318D1*
X3038388Y5429137D1*
X3034057D1*
X3029726Y5430318D1*
X3026183Y5431499D1*
X3019096Y5435042D1*
X3016734Y5437405D1*
Y5424412D1*
X3019096Y5423231D1*
X3026183Y5420869D1*
X3030907Y5419688D1*
X3042719D1*
X3047443Y5420869D1*
X3050986Y5422050D1*
X3055711Y5424412D1*
X3063978Y5432680D1*
X3066341Y5437405D1*
X3068703Y5444491D1*
Y5466932D1*
X3067522Y5471657D1*
X3063978Y5478743D1*
X3061616Y5482286D1*
X3056892Y5487011D1*
X3053348Y5489373D1*
X3050986Y5490554D1*
X3047443Y5491735D1*
X3042719Y5492916D1*
X3030907D1*
G37*
G36*
X3082876Y5457483D2*
Y5420869D1*
X3093506D1*
Y5426775D1*
X3094388Y5427533D1*
X3095000Y5427464D1*
X3095868Y5426775D1*
X3099411Y5423231D1*
X3106498Y5419688D1*
X3110041Y5418507D1*
X3120671D1*
X3124215Y5419688D1*
X3128939Y5422050D1*
X3133663Y5426775D1*
X3136026Y5430318D1*
X3137207Y5433861D1*
Y5449216D1*
X3134844Y5453940D1*
X3128939Y5459846D1*
X3121852Y5463389D1*
X3117128Y5464570D1*
X3111222Y5465751D1*
X3101774Y5466932D1*
X3093506Y5468113D1*
Y5475200D1*
X3094687Y5476381D1*
Y5477562D1*
X3097049Y5479924D1*
X3099411Y5481105D1*
X3102955Y5482286D1*
X3108073Y5483468D1*
X3113191D1*
X3118309Y5482286D1*
X3131301Y5478743D1*
X3132482D1*
Y5489373D1*
X3131301Y5490554D1*
X3125396Y5491735D1*
X3118309Y5492916D1*
X3102955D1*
X3097049Y5491735D1*
X3093506Y5490554D1*
X3089963Y5488192D1*
X3086419Y5484649D1*
X3084057Y5481105D1*
X3082876Y5477562D1*
Y5457483D1*
X3093506D1*
X3095868Y5458664D1*
X3098230D1*
X3100593Y5457483D1*
X3110041Y5456302D1*
X3115947Y5455121D1*
X3120671Y5452759D1*
X3123033Y5450397D1*
X3124188Y5449158D1*
X3125162Y5447683D1*
X3125396Y5446853D1*
X3126577Y5445672D1*
Y5436223D1*
X3125396Y5435042D1*
Y5433861D1*
X3121852Y5430318D1*
X3118309Y5429137D1*
X3114372Y5427956D1*
X3110435D1*
X3106498Y5429137D1*
X3102955Y5430318D1*
X3100593Y5431499D1*
X3099411Y5432680D1*
X3097049Y5433861D1*
X3093506Y5437405D1*
Y5457483D1*
X3082876D1*
G37*
G36*
X2069490Y5490554D2*
Y5479924D1*
X2082482Y5478743D1*
X2086026Y5477562D1*
X2090750Y5475200D1*
X2093112Y5472838D1*
X2095474Y5471657D1*
Y5420869D1*
X2106104D1*
Y5490554D1*
X2095474D1*
Y5482286D1*
X2094034Y5481054D1*
X2093112Y5481105D1*
X2089569Y5484649D1*
X2086026Y5487011D1*
X2081301Y5489373D1*
X2077758Y5490554D1*
X2069490D1*
G37*
G36*
X2315159D2*
Y5479924D1*
X2328152Y5478743D1*
X2331695Y5477562D1*
X2336419Y5475200D1*
X2338782Y5472838D1*
X2341144Y5471657D1*
Y5420869D1*
X2351774D1*
Y5490554D1*
X2341144D1*
Y5482286D1*
X2339704Y5481054D1*
X2338782Y5481105D1*
X2335238Y5484649D1*
X2331695Y5487011D1*
X2326970Y5489373D1*
X2323427Y5490554D1*
X2315159D1*
G37*
G36*
X3221065Y5466932D2*
Y5456302D1*
X3255317D1*
Y5466932D1*
X3221065D1*
G37*
G36*
X2814766Y5354727D2*
Y5256696D1*
X2825396D1*
Y5354727D1*
X2814766D1*
G37*
G36*
X2844293Y5316932D2*
X2843905Y5315499D1*
X2843112Y5314570D1*
X2841931Y5312208D1*
X2840750Y5308664D1*
X2839569Y5302759D1*
Y5282680D1*
X2840750Y5277956D1*
X2841931Y5274412D1*
X2845474Y5267326D1*
X2847837Y5263783D1*
X2851380Y5260239D1*
X2854923Y5257877D1*
X2859648Y5255515D1*
X2863191Y5254334D1*
X2873821D1*
X2878545Y5255515D1*
X2883270Y5257877D1*
X2884844Y5259058D1*
X2886419D1*
X2887994Y5257877D1*
Y5256696D1*
X2897443D1*
Y5354727D1*
X2886813D1*
Y5321657D1*
X2885373Y5320424D1*
X2884451Y5320475D1*
X2880907Y5324019D1*
X2873821Y5327562D1*
X2870278Y5328743D1*
X2859648D1*
X2856104Y5327562D1*
X2851380Y5325200D1*
X2846656Y5320475D1*
X2844293Y5316932D1*
X2862010D1*
X2865947Y5318113D1*
X2869884D1*
X2873821Y5316932D1*
X2877364Y5315751D1*
X2884451Y5312208D1*
X2886813Y5309846D1*
Y5268507D1*
X2882089Y5266145D1*
X2877364Y5264964D1*
X2873033Y5263783D1*
X2868703D1*
X2864372Y5264964D1*
X2857285Y5268507D1*
X2855885Y5269835D1*
X2856104Y5270869D1*
X2853742Y5274412D1*
X2852561Y5277956D1*
X2851380Y5282680D1*
X2850199Y5283861D1*
Y5299216D1*
X2851380Y5300397D1*
X2852561Y5306302D1*
X2853742Y5309846D1*
Y5311027D1*
X2857285Y5314570D1*
X2862010Y5316932D1*
X2844293D1*
G37*
G36*
X2407285Y5352365D2*
X2402561Y5351184D1*
X2399018Y5350003D1*
X2396656Y5348822D1*
X2389569Y5341735D1*
X2387207Y5337011D1*
X2386026Y5333468D1*
Y5319294D1*
X2387207Y5314570D1*
X2391931Y5305121D1*
X2394293Y5301578D1*
X2399018Y5295672D1*
X2427364Y5267326D1*
X2382482Y5266145D1*
Y5256696D1*
X2439175D1*
Y5268507D1*
X2415553Y5293310D1*
X2408467Y5301578D1*
X2404923Y5306302D1*
X2402561Y5309846D1*
X2400199Y5314570D1*
X2399018Y5318113D1*
X2397837Y5319294D1*
Y5332286D1*
X2399018Y5333468D1*
X2400199Y5335830D1*
X2400428Y5336667D1*
X2401380Y5338192D1*
X2403742Y5339373D1*
X2404923Y5340554D1*
X2408467Y5341735D1*
X2412404Y5342916D1*
X2416341D1*
X2420278Y5341735D1*
X2425002Y5340554D1*
X2428545Y5339373D1*
X2433270Y5337011D1*
X2434451Y5335830D1*
X2436813Y5334649D1*
Y5346460D1*
X2435632Y5347641D1*
X2433270Y5348822D1*
X2429726Y5350003D1*
X2420278Y5352365D1*
X2407285D1*
G37*
G36*
X2476970D2*
X2472246Y5351184D1*
X2468703Y5350003D1*
X2466341Y5348822D1*
X2462797Y5346460D1*
X2460435Y5344097D1*
X2458073Y5340554D1*
X2456892Y5337011D1*
Y5324019D1*
X2458073Y5320475D1*
X2460435Y5316932D1*
X2463978Y5313389D1*
X2467522Y5311027D1*
X2469884Y5309846D1*
X2473427Y5308664D1*
X2472246Y5307483D1*
X2468703Y5306302D1*
X2463978Y5303940D1*
X2460435Y5301578D1*
X2456892Y5296853D1*
X2455711Y5294491D1*
X2454530Y5289767D1*
Y5277956D1*
X2455711Y5273231D1*
X2458073Y5268507D1*
X2460435Y5264964D1*
X2465159Y5260239D1*
X2468703Y5257877D1*
X2471065Y5256696D1*
X2474608Y5255515D1*
X2479333Y5254334D1*
X2493506D1*
X2499411Y5255515D1*
X2510041Y5259058D1*
Y5272050D1*
X2508860Y5270869D1*
X2504136Y5268507D1*
X2493506Y5264964D1*
X2489175Y5263783D1*
X2484844D1*
X2480514Y5264964D1*
X2474608Y5267326D1*
X2472246Y5268507D1*
X2469884Y5270869D1*
Y5272050D1*
X2467522Y5276775D1*
X2466341Y5277956D1*
Y5290948D1*
X2467522Y5292129D1*
Y5294491D1*
X2472246Y5299216D1*
X2474608Y5300397D1*
X2478152Y5301578D1*
X2491144Y5302759D1*
Y5312208D1*
X2480514Y5313389D1*
X2476970Y5314570D1*
X2474608Y5315751D1*
X2469884Y5320475D1*
Y5321657D1*
X2468703Y5325200D1*
X2467522Y5326381D1*
Y5331105D1*
X2468703Y5332286D1*
X2469884Y5335830D1*
X2470114Y5336667D1*
X2471065Y5338192D1*
X2473427Y5339373D1*
X2474608Y5340554D1*
X2478152Y5341735D1*
X2482482Y5342916D1*
X2486813D1*
X2491144Y5341735D1*
X2495868Y5340554D1*
X2499411Y5339373D1*
X2504136Y5337011D1*
X2505317Y5335830D1*
X2507679Y5334649D1*
Y5346460D1*
X2506498Y5347641D1*
X2504136Y5348822D1*
X2497049Y5351184D1*
X2491144Y5352365D1*
X2476970D1*
G37*
G36*
X2616341D2*
X2609254Y5351184D1*
X2604530Y5350003D1*
X2600986Y5348822D1*
X2598624Y5347641D1*
X2597443Y5346460D1*
Y5332286D1*
X2602167Y5335830D1*
X2603348Y5337011D1*
X2608073Y5339373D1*
X2611616Y5340554D1*
X2621065Y5342916D1*
X2625789D1*
X2630514Y5341735D1*
X2634057Y5340554D1*
X2636419Y5339373D1*
X2642325Y5333468D1*
Y5332286D1*
X2643506Y5331105D1*
Y5322838D1*
X2642325Y5321657D1*
Y5319294D1*
X2637600Y5314570D1*
X2635238Y5313389D1*
X2628152Y5311027D1*
X2613978Y5307483D1*
X2606892Y5305121D1*
X2604530Y5303940D1*
X2600986Y5301578D1*
X2597443Y5298035D1*
X2593900Y5290948D1*
X2592719Y5283861D1*
Y5281499D1*
X2593900Y5275594D1*
X2595081Y5272050D1*
X2597443Y5267326D1*
X2600986Y5262601D1*
X2605711Y5259058D1*
X2610435Y5256696D1*
X2613978Y5255515D1*
X2618703Y5254334D1*
X2634057D1*
X2641144Y5255515D1*
X2648230Y5257877D1*
X2654136Y5260239D1*
X2655317Y5261420D1*
Y5276775D1*
X2650593Y5272050D1*
X2641144Y5267326D1*
X2634057Y5264964D1*
X2628939Y5263783D1*
X2623821D1*
X2618703Y5264964D1*
X2615159Y5266145D1*
X2610435Y5268507D1*
X2606892Y5272050D1*
Y5273231D1*
X2605711Y5276775D1*
X2604530Y5277956D1*
Y5282680D1*
X2605711Y5283861D1*
X2608073Y5289767D1*
X2608302Y5290604D1*
X2609254Y5292129D1*
X2613978Y5294491D1*
X2621065Y5296853D1*
X2635238Y5300397D1*
X2638782Y5301578D1*
X2645868Y5305121D1*
X2651774Y5311027D1*
X2654136Y5315751D1*
X2655317Y5320475D1*
Y5329924D1*
X2654136Y5334649D1*
X2651774Y5339373D1*
X2643506Y5347641D1*
X2638782Y5350003D1*
X2635238Y5351184D1*
X2630514Y5352365D1*
X2616341D1*
G37*
G36*
X2983663D2*
X2977758Y5351184D1*
X2970671Y5348822D1*
X2964766Y5346460D1*
X2962404Y5345279D1*
X2961222Y5344097D1*
Y5329924D1*
X2962404D1*
X2967128Y5334649D1*
X2976577Y5339373D1*
X2980120Y5340554D1*
X2984844Y5341735D1*
X2989963Y5342916D1*
X2995081D1*
X3000199Y5341735D1*
X3003742Y5340554D1*
X3010829Y5337011D1*
X3016734Y5331105D1*
Y5329924D1*
X3019096Y5326381D1*
X3021459Y5319294D1*
X3022640Y5314570D1*
X3023821Y5313389D1*
Y5293310D1*
X3022640Y5292129D1*
X3021459Y5287405D1*
X3019096Y5280318D1*
X3016734Y5276775D1*
Y5275594D1*
X3010829Y5269688D1*
X3003742Y5266145D1*
X2999018Y5264964D1*
X2993506Y5263783D1*
X2987994D1*
X2982482Y5264964D1*
X2976577Y5266145D1*
X2973033Y5267326D1*
X2971852Y5268507D1*
Y5292129D1*
X2994293Y5293310D1*
Y5302759D1*
X2961222D1*
Y5262601D1*
X2962404Y5261420D1*
X2964766Y5260239D1*
X2970671Y5257877D1*
X2974215Y5256696D1*
X2983663Y5254334D1*
X2999018D1*
X3004923Y5255515D1*
X3012010Y5257877D1*
X3016734Y5260239D1*
X3021459Y5263783D1*
X3025002Y5267326D1*
X3029726Y5274412D1*
X3032089Y5279137D1*
X3033270Y5282680D1*
X3034451Y5287405D1*
X3035632Y5293310D1*
Y5313389D1*
X3034451Y5319294D1*
X3032089Y5326381D1*
X3028545Y5333468D1*
X3026183Y5337011D1*
X3019096Y5344097D1*
X3015553Y5346460D1*
X3008467Y5350003D1*
X2999018Y5352365D1*
X2983663D1*
G37*
G36*
X2246656Y5350003D2*
Y5339373D1*
X2259648D1*
Y5350003D1*
X2246656D1*
G37*
G36*
X2270278D2*
Y5340554D1*
X2313978Y5339373D1*
Y5313389D1*
X2272640Y5312208D1*
Y5302759D1*
X2313978Y5301578D1*
Y5256696D1*
X2325789D1*
Y5350003D1*
X2270278D1*
G37*
G36*
X2526577Y5339373D2*
X2524215Y5337011D1*
X2521852Y5332286D1*
X2520671Y5328743D1*
Y5315751D1*
X2523033Y5308664D1*
X2525396Y5305121D1*
X2532482Y5298035D1*
X2536026Y5295672D1*
X2543112Y5293310D1*
X2547837Y5292129D1*
X2567915Y5290948D1*
Y5256696D1*
X2578545D1*
Y5350003D1*
X2546656D1*
X2540750Y5348822D1*
X2537207Y5347641D1*
X2532482Y5345279D1*
X2528939Y5342916D1*
X2526577Y5340554D1*
Y5339373D1*
X2546656D1*
X2553742Y5340554D1*
X2560829D1*
X2567915Y5339373D1*
Y5302759D1*
X2561222Y5301578D1*
X2554530D1*
X2547837Y5302759D1*
X2543112Y5303940D1*
X2540750Y5305121D1*
X2534844Y5311027D1*
Y5312208D1*
X2533663Y5314570D1*
X2532482Y5315751D1*
Y5327562D1*
X2533663Y5328743D1*
Y5331105D1*
X2539569Y5337011D1*
X2546656Y5339373D1*
X2526577D1*
G37*
G36*
X2665947Y5350003D2*
Y5340554D1*
X2713191Y5339373D1*
Y5314570D1*
X2669490Y5313389D1*
Y5303940D1*
X2713191Y5302759D1*
Y5267326D1*
X2665947Y5266145D1*
Y5256696D1*
X2723821D1*
Y5350003D1*
X2665947D1*
G37*
G36*
X3200986D2*
Y5340554D1*
X3244687Y5339373D1*
Y5313389D1*
X3203348Y5312208D1*
Y5302759D1*
X3244687Y5301578D1*
Y5256696D1*
X3256498D1*
Y5350003D1*
X3200986D1*
G37*
G36*
X1812010Y5319294D2*
X1810829Y5318113D1*
X1808467Y5314570D1*
X1807285Y5311027D1*
X1806104Y5306302D1*
Y5290948D1*
X1854530Y5289767D1*
Y5281499D1*
X1853348Y5280318D1*
X1852167Y5276775D1*
Y5275594D1*
X1846262Y5269688D1*
X1841537Y5267326D1*
X1837994Y5266145D1*
X1833270Y5264964D1*
X1828545D1*
X1819096Y5267326D1*
X1815553Y5268507D1*
X1808467Y5272050D1*
X1807285Y5273231D1*
Y5261420D1*
X1808467Y5260239D1*
X1814372Y5257877D1*
X1823821Y5255515D1*
X1837994D1*
X1842719Y5256696D1*
X1846262Y5257877D1*
X1853348Y5261420D1*
X1859254Y5267326D1*
X1861616Y5270869D1*
X1862797Y5273231D1*
X1865159Y5280318D1*
X1866341Y5290948D1*
Y5292129D1*
X1865159Y5302759D1*
X1862797Y5309846D1*
X1860435Y5314570D1*
X1858073Y5318113D1*
X1854530Y5321657D1*
X1849805Y5325200D1*
X1847443Y5326381D1*
X1843900Y5327562D1*
X1839175Y5328743D1*
X1827364D1*
X1822640Y5327562D1*
X1817915Y5325200D1*
X1812010Y5319294D1*
X1827364D1*
X1831695Y5320475D1*
X1836026D1*
X1840356Y5319294D1*
X1843900Y5318113D1*
X1846262Y5316932D1*
X1852167Y5311027D1*
Y5309846D1*
X1853348Y5306302D1*
X1854530Y5305121D1*
Y5300397D1*
X1841537Y5299216D1*
X1828545D1*
X1815553Y5300397D1*
Y5302759D1*
X1816734Y5303940D1*
X1817915Y5309846D1*
X1819096Y5312208D1*
Y5313389D1*
X1822640Y5316932D1*
X1827364Y5319294D1*
X1812010D1*
G37*
G36*
X1926577Y5293310D2*
Y5256696D1*
X1937207D1*
Y5262601D1*
X1938089Y5263360D1*
X1938701Y5263291D1*
X1939569Y5262601D1*
X1943112Y5259058D1*
X1950199Y5255515D1*
X1953742Y5254334D1*
X1964372D1*
X1967915Y5255515D1*
X1972640Y5257877D1*
X1977364Y5262601D1*
X1979726Y5266145D1*
X1980907Y5269688D1*
Y5285042D1*
X1978545Y5289767D1*
X1972640Y5295672D1*
X1965553Y5299216D1*
X1960829Y5300397D1*
X1954923Y5301578D1*
X1945474Y5302759D1*
X1937207Y5303940D1*
Y5311027D1*
X1938388Y5312208D1*
Y5313389D1*
X1940750Y5315751D1*
X1943112Y5316932D1*
X1946656Y5318113D1*
X1951774Y5319294D1*
X1956892D1*
X1962010Y5318113D1*
X1975002Y5314570D1*
X1976183D1*
Y5325200D1*
X1975002Y5326381D1*
X1969096Y5327562D1*
X1962010Y5328743D1*
X1946656D1*
X1940750Y5327562D1*
X1937207Y5326381D1*
X1933663Y5324019D1*
X1930120Y5320475D1*
X1927758Y5316932D1*
X1926577Y5313389D1*
Y5293310D1*
X1937207D1*
X1939569Y5294491D1*
X1941931D1*
X1944293Y5293310D1*
X1953742Y5292129D1*
X1959648Y5290948D1*
X1964372Y5288586D1*
X1966734Y5286223D1*
X1967889Y5284985D1*
X1968863Y5283509D1*
X1969096Y5282680D1*
X1970278Y5281499D1*
Y5272050D1*
X1969096Y5270869D1*
Y5269688D1*
X1965553Y5266145D1*
X1962010Y5264964D1*
X1958073Y5263783D1*
X1954136D1*
X1950199Y5264964D1*
X1946656Y5266145D1*
X1944293Y5267326D1*
X1943112Y5268507D1*
X1940750Y5269688D1*
X1937207Y5273231D1*
Y5293310D1*
X1926577D1*
G37*
G36*
X2107285Y5328743D2*
X2102561Y5327562D1*
X2099018Y5325200D1*
X2095474Y5321657D1*
X2093112Y5316932D1*
X2091931Y5313389D1*
Y5256696D1*
X2101380D1*
X2102561Y5299216D1*
X2103742Y5311027D1*
X2104923Y5313389D1*
X2105153Y5314226D1*
X2106104Y5315751D1*
X2108467Y5316932D1*
X2112010Y5318113D1*
X2115553D1*
X2122640Y5315751D1*
X2125002Y5314570D1*
X2126183Y5313389D1*
X2128545Y5312208D1*
X2132089Y5308664D1*
X2131700Y5307232D1*
X2130907Y5306302D1*
Y5256696D1*
X2141537D1*
X2142719Y5302759D1*
X2143900Y5312208D1*
Y5313389D1*
X2146262Y5315751D1*
X2148624Y5316932D1*
X2152167Y5318113D1*
X2155711D1*
X2162797Y5315751D1*
X2163978Y5314570D1*
X2167522Y5312208D1*
X2169884Y5311027D1*
X2171065Y5309846D1*
Y5256696D1*
X2181695D1*
Y5326381D1*
X2171065D1*
Y5320475D1*
X2169813Y5319193D1*
X2169201Y5319384D1*
X2168703Y5320475D1*
X2165159Y5324019D1*
X2161616Y5326381D1*
X2159254Y5327562D1*
X2155711Y5328743D1*
X2147443D1*
X2142719Y5327562D1*
X2140356Y5326381D1*
X2135632Y5321657D1*
X2134451Y5319294D1*
X2134021Y5317842D1*
X2132800Y5316841D1*
X2132089Y5316932D1*
X2123821Y5325200D1*
X2119096Y5327562D1*
X2115553Y5328743D1*
X2107285D1*
G37*
G36*
X3139569Y5318113D2*
Y5316932D1*
X3137207Y5314570D1*
X3134844Y5309846D1*
X3133663Y5306302D1*
X3132482Y5301578D1*
Y5281499D1*
X3133663Y5276775D1*
X3134844Y5273231D1*
X3138388Y5266145D1*
X3145474Y5259058D1*
X3152561Y5255515D1*
X3157285Y5254334D1*
X3169096D1*
X3173821Y5255515D1*
X3177364Y5256696D1*
X3180907Y5259058D1*
X3187994Y5266145D1*
X3190356Y5269688D1*
X3191537Y5273231D1*
X3192719Y5275594D1*
X3193900Y5280318D1*
Y5302759D1*
X3192719Y5307483D1*
X3191537Y5311027D1*
X3190356Y5313389D1*
X3187994Y5316932D1*
X3180907Y5324019D1*
X3173821Y5327562D1*
X3169096Y5328743D1*
X3157285D1*
X3152561Y5327562D1*
X3145474Y5324019D1*
X3139569Y5318113D1*
X3157285D1*
X3161222Y5319294D1*
X3165159D1*
X3169096Y5318113D1*
X3172640Y5316932D1*
X3175002Y5315751D1*
X3178545Y5312208D1*
Y5311027D1*
X3180907Y5306302D1*
X3182089Y5302759D1*
X3183270Y5301578D1*
Y5282680D1*
X3182089Y5281499D1*
X3180907Y5276775D1*
X3178545Y5272050D1*
Y5270869D1*
X3175002Y5267326D1*
X3172640Y5266145D1*
X3169096Y5264964D1*
X3165159Y5263783D1*
X3161222D1*
X3157285Y5264964D1*
X3153742Y5266145D1*
X3152561Y5267326D1*
X3150199Y5268507D1*
X3148798Y5269835D1*
X3149018Y5270869D1*
X3146656Y5274412D1*
X3145474Y5277956D1*
X3144293Y5282680D1*
X3143112Y5283861D1*
Y5299216D1*
X3144293Y5300397D1*
X3145474Y5305121D1*
X3146656Y5308664D1*
X3149018Y5312208D1*
X3149247Y5313045D1*
X3150199Y5314570D1*
X3157285Y5318113D1*
X3139569D1*
G37*
G36*
X1871065Y5326381D2*
Y5315751D1*
X1884057Y5314570D1*
X1887600Y5313389D1*
X1892325Y5311027D1*
X1894687Y5308664D1*
X1897049Y5307483D1*
Y5256696D1*
X1907679D1*
Y5326381D1*
X1897049D1*
Y5318113D1*
X1895609Y5316881D1*
X1894687Y5316932D1*
X1891144Y5320475D1*
X1887600Y5322838D1*
X1882876Y5325200D1*
X1879333Y5326381D1*
X1871065D1*
G37*
G36*
X1989175D2*
Y5322838D1*
X2003348Y5266145D1*
X2004530Y5262601D1*
X2005711Y5257877D1*
X2006892Y5256696D1*
X2016341D1*
X2017522Y5259058D1*
X2021065Y5269688D1*
X2022246Y5274412D1*
X2029333Y5295672D1*
X2030514Y5300397D1*
X2032876Y5307483D1*
Y5309846D1*
X2033758Y5310604D1*
X2034355Y5310505D1*
X2035028Y5309528D1*
X2035238Y5308664D1*
X2037600Y5301578D1*
X2038782Y5296853D1*
X2044687Y5279137D1*
X2045868Y5274412D1*
X2051774Y5256696D1*
X2062404D1*
X2065947Y5270869D1*
X2067128Y5274412D1*
X2076577Y5312208D1*
X2077758Y5315751D1*
X2080120Y5325200D1*
Y5326381D1*
X2069490D1*
X2068309Y5325200D1*
X2065947Y5315751D1*
X2064766Y5309846D1*
X2062404Y5300397D1*
X2061222Y5294491D1*
X2058860Y5285042D1*
X2057679Y5279137D1*
X2056498Y5274412D1*
X2056198Y5273019D1*
X2055248Y5271941D1*
X2054636Y5272140D1*
X2054136Y5273231D1*
Y5276775D1*
X2050593Y5287405D1*
X2049411Y5292129D1*
X2045868Y5302759D1*
X2044687Y5307483D1*
X2041144Y5318113D1*
X2039963Y5322838D1*
X2038782Y5326381D1*
X2029333D1*
X2022246Y5305121D1*
X2021065Y5300397D1*
X2015159Y5282680D1*
X2013978Y5277956D1*
X2012797Y5274412D1*
X2012497Y5273019D1*
X2011547Y5271941D1*
X2010935Y5272140D1*
X2010435Y5273231D1*
Y5276775D1*
X2009254Y5282680D1*
X2008073Y5287405D1*
X2006892Y5293310D1*
X2005711Y5298035D1*
X2003348Y5309846D1*
X2002167Y5314570D1*
X1999805Y5326381D1*
X1989175D1*
G37*
G36*
X2192325D2*
Y5315751D1*
X2205317Y5314570D1*
X2208860Y5313389D1*
X2213585Y5311027D1*
X2215947Y5308664D1*
X2218309Y5307483D1*
Y5256696D1*
X2228939D1*
Y5326381D1*
X2218309D1*
Y5318113D1*
X2216869Y5316881D1*
X2215947Y5316932D1*
X2212404Y5320475D1*
X2208860Y5322838D1*
X2204136Y5325200D1*
X2200593Y5326381D1*
X2192325D1*
G37*
G36*
X2247837D2*
Y5256696D1*
X2258467D1*
Y5326381D1*
X2247837D1*
G37*
G36*
X2908073D2*
Y5315751D1*
X2921065Y5314570D1*
X2924608Y5313389D1*
X2929333Y5311027D1*
X2931695Y5308664D1*
X2934057Y5307483D1*
Y5256696D1*
X2944687D1*
Y5326381D1*
X2934057D1*
Y5318113D1*
X2932617Y5316881D1*
X2931695Y5316932D1*
X2928152Y5320475D1*
X2924608Y5322838D1*
X2919884Y5325200D1*
X2916341Y5326381D1*
X2908073D1*
G37*
G36*
X3081695D2*
Y5315751D1*
X3094687Y5314570D1*
X3098230Y5313389D1*
X3102955Y5311027D1*
X3105317Y5308664D1*
X3107679Y5307483D1*
Y5256696D1*
X3118309D1*
Y5326381D1*
X3107679D1*
Y5318113D1*
X3106239Y5316881D1*
X3105317Y5316932D1*
X3101774Y5320475D1*
X3098230Y5322838D1*
X3093506Y5325200D1*
X3089963Y5326381D1*
X3081695D1*
G37*
G36*
X2734451Y5244885D2*
Y5237798D1*
X2805317D1*
Y5244885D1*
X2734451D1*
G37*
G36*
X2554923Y4988586D2*
Y4927168D1*
X2565553D1*
Y4931893D1*
X2566815Y4932681D1*
X2567915Y4933074D1*
X2571459Y4929531D1*
X2578545Y4925987D1*
X2582089Y4924806D1*
X2592719D1*
X2596262Y4925987D1*
X2600986Y4928349D1*
X2606892Y4934255D1*
X2610435Y4941342D1*
X2611616Y4944885D1*
X2612797Y4949609D1*
Y4973231D1*
X2610435Y4980318D1*
X2608073Y4985042D1*
X2605711Y4988586D1*
X2599805Y4994491D1*
X2592719Y4998035D1*
X2589175Y4999216D1*
X2577364D1*
X2570278Y4996853D1*
X2567915Y4995672D1*
X2566663Y4994389D1*
X2566051Y4994581D1*
X2565553Y4995672D1*
Y5026381D1*
X2554923D1*
Y4988586D1*
X2575002D1*
X2579333Y4989767D1*
X2583663D1*
X2587994Y4988586D1*
X2591537Y4987405D1*
X2592719Y4986223D1*
X2595081Y4985042D1*
X2596032Y4983517D1*
X2596262Y4982680D1*
X2598624Y4979137D1*
X2599805Y4976775D1*
X2600986Y4972050D1*
X2602167Y4970869D1*
Y4951972D1*
X2600986Y4950790D1*
X2599805Y4946066D1*
X2598624Y4943704D1*
Y4942523D1*
X2593900Y4937798D1*
X2590356Y4936617D1*
X2586419Y4935436D1*
X2582482D1*
X2578545Y4936617D1*
X2575002Y4937798D1*
X2567915Y4941342D1*
X2565553Y4943704D1*
Y4985042D1*
X2570278Y4987405D1*
X2575002Y4988586D1*
X2554923D1*
G37*
G36*
X2217128Y5025200D2*
Y5022838D1*
X2220671Y5012208D1*
X2221852Y5007483D1*
X2226577Y4993310D1*
X2227758Y4988586D1*
X2231301Y4977956D1*
X2232482Y4973231D1*
X2237207Y4959058D1*
X2238388Y4954334D1*
X2241931Y4943704D1*
X2243112Y4938979D1*
X2247837Y4924806D1*
X2249018Y4920082D1*
X2252561Y4909452D1*
X2253742Y4907090D1*
X2263191D1*
X2262010Y4911814D1*
X2257285Y4925987D1*
X2256104Y4930712D1*
X2252561Y4941342D1*
X2251380Y4946066D1*
X2247837Y4956696D1*
X2246656Y4961420D1*
X2243112Y4972050D1*
X2241931Y4976775D1*
X2238388Y4987405D1*
X2237207Y4992129D1*
X2232482Y5006302D1*
X2231301Y5011027D1*
X2226577Y5025200D1*
X2217128D1*
G37*
G36*
X2525396D2*
Y4927168D1*
X2536026D1*
Y5025200D1*
X2525396D1*
G37*
G36*
X2626970D2*
Y4927168D1*
X2637600D1*
Y5025200D1*
X2626970D1*
G37*
G36*
X2758073Y4987405D2*
X2757685Y4985972D1*
X2756892Y4985042D1*
X2755711Y4982680D1*
X2754530Y4979137D1*
X2753348Y4973231D1*
Y4953153D1*
X2754530Y4948428D1*
X2755711Y4944885D1*
X2759254Y4937798D1*
X2761616Y4934255D1*
X2765159Y4930712D1*
X2768703Y4928349D1*
X2773427Y4925987D1*
X2776970Y4924806D1*
X2787600D1*
X2792325Y4925987D1*
X2797049Y4928349D1*
X2798624Y4929531D1*
X2800199D1*
X2801774Y4928349D1*
Y4927168D1*
X2811222D1*
Y5025200D1*
X2800593D1*
Y4992129D1*
X2799152Y4990896D1*
X2798230Y4990948D1*
X2794687Y4994491D1*
X2787600Y4998035D1*
X2784057Y4999216D1*
X2773427D1*
X2769884Y4998035D1*
X2765159Y4995672D1*
X2760435Y4990948D1*
X2758073Y4987405D1*
X2775789D1*
X2779726Y4988586D1*
X2783663D1*
X2787600Y4987405D1*
X2791144Y4986223D1*
X2798230Y4982680D1*
X2800593Y4980318D1*
Y4938979D1*
X2795868Y4936617D1*
X2791144Y4935436D1*
X2786813Y4934255D1*
X2782482D1*
X2778152Y4935436D1*
X2771065Y4938979D1*
X2769664Y4940307D1*
X2769884Y4941342D1*
X2767522Y4944885D1*
X2766341Y4948428D1*
X2765159Y4953153D1*
X2763978Y4954334D1*
Y4969688D1*
X2765159Y4970869D1*
X2766341Y4976775D1*
X2767522Y4980318D1*
Y4981499D1*
X2771065Y4985042D1*
X2775789Y4987405D1*
X2758073D1*
G37*
G36*
X3009648Y5025200D2*
X3008467Y5024019D1*
X3001380Y5014570D1*
X3000199Y5012208D1*
X2997837Y5008664D1*
X2993112Y4999216D1*
X2991931Y4995672D1*
X2990750Y4993310D1*
X2989569Y4989767D1*
X2988388Y4985042D1*
X2987207Y4979137D1*
Y4947247D1*
X2988388Y4941342D1*
X2989569Y4936617D1*
X2990750Y4933074D1*
X2991931Y4930712D1*
X2993112Y4927168D1*
X2997837Y4917720D1*
X3000199Y4914176D1*
X3001380Y4911814D1*
X3003742Y4908271D1*
X3007285Y4903546D1*
X3009648Y4901184D1*
X3023821D1*
X3014372Y4911814D1*
X3010829Y4916538D1*
X3008467Y4920082D1*
X3003742Y4929531D1*
X3000199Y4940160D1*
X2999018Y4944885D1*
X2997837Y4951972D1*
X2996656Y4953153D1*
Y4973231D1*
X2997837Y4974412D1*
X2999018Y4981499D1*
X3000199Y4986223D1*
X3003742Y4996853D1*
X3008467Y5006302D1*
X3010829Y5009846D1*
X3014372Y5014570D1*
X3023821Y5025200D1*
X3009648D1*
G37*
G36*
X3094687D2*
X3099411Y5020475D1*
Y5019294D1*
X3105317Y5012208D1*
X3107679Y5008664D1*
X3108860Y5006302D1*
X3111222Y5002759D1*
X3112404Y5000397D1*
X3113585Y4996853D1*
X3114766Y4994491D1*
X3117128Y4987405D1*
X3118309Y4982680D1*
X3119490Y4976775D1*
X3120671Y4975594D1*
Y4949609D1*
X3119490Y4948428D1*
X3118309Y4942523D1*
X3114766Y4931893D1*
X3113585Y4929531D1*
X3112404Y4925987D1*
X3111222Y4923625D1*
X3108860Y4920082D1*
X3107679Y4917720D1*
X3105317Y4914176D1*
X3099411Y4907090D1*
X3094687Y4901184D1*
X3107679D1*
X3111222Y4904727D1*
X3118309Y4915357D1*
X3119490Y4917720D1*
X3121852Y4921263D1*
X3124215Y4925987D1*
X3125396Y4929531D1*
X3126577Y4931893D1*
X3127758Y4935436D1*
X3130120Y4944885D1*
X3131301Y4954334D1*
Y4972050D1*
X3130120Y4980318D1*
X3128939Y4986223D1*
X3127758Y4990948D1*
X3126577Y4994491D1*
X3125396Y4996853D1*
X3124215Y5000397D1*
X3121852Y5005121D1*
X3119490Y5008664D1*
X3117128Y5013389D1*
X3114766Y5016932D1*
X3111222Y5021657D1*
X3107679Y5025200D1*
X3094687D1*
G37*
G36*
X1943112Y5012208D2*
X1941931Y5011027D1*
X1939569Y5006302D1*
X1937207Y4999216D1*
X1936026Y4993310D1*
X1934844Y4982680D1*
Y4963783D1*
X1936026Y4954334D1*
X1937207Y4948428D1*
X1939569Y4941342D1*
X1941931Y4936617D1*
X1944293Y4933074D1*
X1947837Y4929531D1*
X1951380Y4927168D1*
X1958467Y4924806D1*
X1970278D1*
X1975002Y4925987D1*
X1979726Y4928349D1*
X1985632Y4934255D1*
X1987994Y4937798D1*
X1989175Y4940160D1*
X1991537Y4947247D1*
X1992719Y4951972D1*
X1993900Y4959058D1*
Y4988586D1*
X1992719Y4995672D1*
X1991537Y5000397D1*
X1989175Y5007483D1*
X1986813Y5012208D1*
X1979726Y5019294D1*
X1975002Y5021657D1*
X1970278Y5022838D1*
X1959648D1*
X1954923Y5021657D1*
X1947837Y5018113D1*
X1944293Y5014570D1*
X1943112Y5012208D1*
X1958467D1*
X1962404Y5013389D1*
X1966341D1*
X1970278Y5012208D1*
X1975002Y5009846D1*
X1975953Y5008321D1*
X1976183Y5007483D1*
X1978545Y5003940D1*
X1979726Y5000397D1*
X1980907Y4994491D1*
X1982089Y4993310D1*
Y4954334D1*
X1980907Y4953153D1*
X1979726Y4947247D1*
X1978545Y4943704D1*
X1976183Y4940160D1*
X1975795Y4938728D1*
X1975002Y4937798D1*
X1970278Y4935436D1*
X1966734Y4934255D1*
X1963191D1*
X1956104Y4936617D1*
X1951380Y4941342D1*
Y4942523D1*
X1950199Y4944885D1*
X1949018Y4949609D1*
X1947837Y4957877D1*
X1946656Y4959058D1*
Y4988586D1*
X1947837Y4989767D1*
X1949018Y4998035D1*
X1950199Y5002759D1*
X1951380Y5005121D1*
Y5006302D1*
X1956104Y5011027D1*
X1958467Y5012208D1*
X1943112D1*
G37*
G36*
X2031695Y5022838D2*
X2026970Y5021657D1*
X2023427Y5020475D1*
X2021065Y5019294D1*
X2013978Y5012208D1*
X2011616Y5007483D1*
X2010435Y5003940D1*
Y4989767D1*
X2011616Y4985042D1*
X2016341Y4975594D1*
X2018703Y4972050D1*
X2023427Y4966145D1*
X2051774Y4937798D1*
X2006892Y4936617D1*
Y4927168D1*
X2063585D1*
Y4938979D1*
X2039963Y4963783D1*
X2032876Y4972050D1*
X2029333Y4976775D1*
X2026970Y4980318D1*
X2024608Y4985042D1*
X2023427Y4988586D1*
X2022246Y4989767D1*
Y5002759D1*
X2023427Y5003940D1*
X2024608Y5006302D1*
X2024838Y5007139D1*
X2025789Y5008664D1*
X2028152Y5009846D1*
X2029333Y5011027D1*
X2032876Y5012208D1*
X2036813Y5013389D1*
X2040750D1*
X2044687Y5012208D1*
X2049411Y5011027D1*
X2052955Y5009846D1*
X2057679Y5007483D1*
X2058860Y5006302D1*
X2061222Y5005121D1*
Y5016932D1*
X2060041Y5018113D1*
X2057679Y5019294D1*
X2054136Y5020475D1*
X2044687Y5022838D1*
X2031695D1*
G37*
G36*
X2084844Y5012208D2*
X2083663Y5011027D1*
X2081301Y5006302D1*
X2078939Y4999216D1*
X2077758Y4993310D1*
X2076577Y4982680D1*
Y4963783D1*
X2077758Y4954334D1*
X2078939Y4948428D1*
X2081301Y4941342D1*
X2083663Y4936617D1*
X2086026Y4933074D1*
X2089569Y4929531D1*
X2093112Y4927168D1*
X2100199Y4924806D1*
X2112010D1*
X2116734Y4925987D1*
X2121459Y4928349D1*
X2127364Y4934255D1*
X2129726Y4937798D1*
X2130907Y4940160D1*
X2133270Y4947247D1*
X2134451Y4951972D1*
X2135632Y4959058D1*
Y4988586D1*
X2134451Y4995672D1*
X2133270Y5000397D1*
X2130907Y5007483D1*
X2128545Y5012208D1*
X2121459Y5019294D1*
X2116734Y5021657D1*
X2112010Y5022838D1*
X2101380D1*
X2096656Y5021657D1*
X2089569Y5018113D1*
X2086026Y5014570D1*
X2084844Y5012208D1*
X2100199D1*
X2104136Y5013389D1*
X2108073D1*
X2112010Y5012208D1*
X2116734Y5009846D1*
X2117686Y5008321D1*
X2117915Y5007483D1*
X2120278Y5003940D1*
X2121459Y5000397D1*
X2122640Y4994491D1*
X2123821Y4993310D1*
Y4954334D1*
X2122640Y4953153D1*
X2121459Y4947247D1*
X2120278Y4943704D1*
X2117915Y4940160D1*
X2117527Y4938728D1*
X2116734Y4937798D1*
X2112010Y4935436D1*
X2108467Y4934255D1*
X2104923D1*
X2097837Y4936617D1*
X2093112Y4941342D1*
Y4942523D1*
X2091931Y4944885D1*
X2090750Y4949609D1*
X2089569Y4957877D1*
X2088388Y4959058D1*
Y4988586D1*
X2089569Y4989767D1*
X2090750Y4998035D1*
X2091931Y5002759D1*
X2093112Y5005121D1*
Y5006302D1*
X2097837Y5011027D1*
X2100199Y5012208D1*
X2084844D1*
G37*
G36*
X2173427Y5022838D2*
X2168703Y5021657D1*
X2165159Y5020475D1*
X2162797Y5019294D1*
X2155711Y5012208D1*
X2153348Y5007483D1*
X2152167Y5003940D1*
Y4989767D1*
X2153348Y4985042D1*
X2158073Y4975594D1*
X2160435Y4972050D1*
X2165159Y4966145D1*
X2193506Y4937798D1*
X2148624Y4936617D1*
Y4927168D1*
X2205317D1*
Y4938979D1*
X2181695Y4963783D1*
X2174608Y4972050D1*
X2171065Y4976775D1*
X2168703Y4980318D1*
X2166341Y4985042D1*
X2165159Y4988586D1*
X2163978Y4989767D1*
Y5002759D1*
X2165159Y5003940D1*
X2166341Y5006302D1*
X2166570Y5007139D1*
X2167522Y5008664D1*
X2169884Y5009846D1*
X2171065Y5011027D1*
X2174608Y5012208D1*
X2178545Y5013389D1*
X2182482D1*
X2186419Y5012208D1*
X2191144Y5011027D1*
X2194687Y5009846D1*
X2199411Y5007483D1*
X2200593Y5006302D1*
X2202955Y5005121D1*
Y5016932D1*
X2201774Y5018113D1*
X2199411Y5019294D1*
X2195868Y5020475D1*
X2186419Y5022838D1*
X2173427D1*
G37*
G36*
X2272640Y4975594D2*
X2270278Y4973231D1*
X2269096Y4970869D1*
X2267915Y4967326D1*
X2266734Y4960239D1*
Y4954334D1*
X2267915Y4947247D1*
X2269096Y4943704D1*
X2272640Y4936617D1*
X2279726Y4929531D1*
X2286813Y4925987D1*
X2291537Y4924806D1*
X2302167D1*
X2309254Y4927168D1*
X2311616Y4928349D1*
X2319884Y4936617D1*
X2323427Y4943704D1*
X2325789Y4950790D1*
X2326970Y4957877D1*
Y4979137D1*
X2325789Y4986223D1*
X2324608Y4992129D1*
X2323427Y4995672D1*
X2322246Y4998035D1*
X2321065Y5001578D1*
X2318703Y5005121D1*
X2317522Y5007483D1*
X2308073Y5016932D1*
X2300986Y5020475D1*
X2297443Y5021657D1*
X2292719Y5022838D1*
X2278545D1*
X2275002Y5021657D1*
Y5011027D1*
X2276183D1*
X2279726Y5012208D1*
X2284451Y5013389D1*
X2289175D1*
X2293900Y5012208D1*
X2297443Y5011027D1*
X2302167Y5008664D1*
X2309254Y5001578D1*
Y5000397D1*
X2311616Y4995672D1*
X2312797Y4992129D1*
X2313978Y4986223D1*
X2315159Y4985042D1*
Y4981499D1*
X2313719Y4980266D1*
X2312797Y4980318D1*
X2310435Y4982680D1*
X2308073Y4983861D1*
X2304530Y4985042D1*
X2299805Y4986223D1*
X2287994D1*
X2280907Y4983861D1*
X2277364Y4981499D1*
X2272640Y4976775D1*
Y4975594D1*
X2290356D1*
X2295081Y4976775D1*
X2299805D1*
X2304530Y4975594D1*
X2311616Y4973231D1*
X2313978Y4972050D1*
X2315159Y4970869D1*
Y4954334D1*
X2313978Y4953153D1*
X2312797Y4948428D1*
X2311616Y4944885D1*
X2309254Y4941342D1*
X2308866Y4939909D1*
X2308073Y4938979D1*
X2305711Y4937798D1*
X2304530Y4936617D1*
X2302167Y4935436D1*
X2298230Y4934255D1*
X2294293D1*
X2290356Y4935436D1*
X2285632Y4937798D1*
X2282089Y4941342D1*
Y4942523D1*
X2280907Y4944885D1*
X2279726Y4949609D1*
X2278545Y4950790D1*
Y4961420D1*
X2279726Y4962601D1*
X2280907Y4967326D1*
Y4968507D1*
X2285632Y4973231D1*
X2290356Y4975594D1*
X2272640D1*
G37*
G36*
X2900986Y4946066D2*
X2901216Y4946903D1*
X2902167Y4948428D1*
X2903348Y4950790D1*
X2904530Y4955515D1*
X2905711Y4962601D1*
Y4970869D1*
X2904530Y4977956D1*
X2903348Y4981499D1*
X2900986Y4986223D1*
X2898624Y4989767D1*
X2896262Y4992129D1*
X2891537Y4995672D1*
X2889175Y4996853D1*
X2885632Y4998035D1*
X2876183D1*
X2869096Y4995672D1*
X2867656Y4994440D1*
X2866287Y4994591D1*
X2865168Y4995959D1*
X2865553Y4996853D1*
X2857285D1*
Y4943704D1*
X2851774Y4942523D1*
X2846262D1*
X2840750Y4943704D1*
Y4944885D1*
X2839569Y4948428D1*
X2838388Y4954334D1*
X2837207Y4955515D1*
Y4980318D1*
X2838388Y4981499D1*
X2839569Y4986223D1*
X2841931Y4993310D1*
X2843112Y4995672D1*
X2845474Y4999216D1*
Y5000397D1*
X2853742Y5008664D1*
X2860829Y5012208D1*
X2864372Y5013389D1*
X2869096Y5014570D1*
X2875002Y5015751D1*
X2880907D1*
X2886813Y5014570D1*
X2891537Y5013389D1*
X2895081Y5012208D1*
X2902167Y5008664D1*
X2905711Y5005121D1*
X2908073Y5003940D1*
X2909024Y5002415D1*
X2909254Y5001578D1*
X2913978Y4995672D1*
X2916341Y4992129D1*
X2917522Y4989767D1*
X2919884Y4982680D1*
X2921065Y4976775D1*
X2922246Y4975594D1*
Y4960239D1*
X2921065Y4959058D1*
X2919884Y4951972D1*
X2917522Y4944885D1*
X2916341Y4942523D1*
X2913978Y4938979D1*
Y4937798D1*
X2904530Y4928349D1*
X2902167Y4927168D1*
X2900986Y4925987D1*
X2896262Y4923625D1*
X2892719Y4922444D1*
X2886813Y4921263D1*
X2880120Y4920082D1*
X2873427D1*
X2866734Y4921263D1*
X2858467Y4922444D1*
X2857285D1*
Y4915357D1*
X2859648Y4914176D1*
X2867915Y4912995D1*
X2886813D1*
X2892719Y4914176D1*
X2896262Y4915357D1*
X2902167Y4917720D1*
X2908073Y4921263D1*
X2919884Y4933074D1*
X2922246Y4936617D1*
X2925789Y4943704D1*
X2928152Y4950790D1*
X2929333Y4955515D1*
Y4979137D1*
X2928152Y4985042D1*
X2926970Y4988586D1*
X2922246Y4998035D1*
X2919884Y5001578D1*
X2915159Y5007483D1*
X2912797Y5009846D1*
X2906892Y5014570D1*
X2903348Y5016932D1*
X2898624Y5019294D1*
X2891537Y5021657D1*
X2885632Y5022838D1*
X2870278D1*
X2864372Y5021657D1*
X2857285Y5019294D1*
X2852561Y5016932D1*
X2849018Y5014570D1*
X2839569Y5005121D1*
X2837207Y5001578D1*
X2833663Y4994491D1*
X2831301Y4987405D1*
X2830120Y4982680D1*
X2828939Y4973231D1*
Y4964964D1*
X2830120Y4956696D1*
X2831301Y4951972D1*
X2833663Y4944885D1*
X2837207Y4937798D1*
X2838388Y4936617D1*
X2864372D1*
X2865553Y4941342D1*
X2865746Y4942255D1*
X2866470Y4943223D1*
X2867053Y4943195D1*
X2867901Y4942485D1*
X2869096Y4941342D1*
X2872640Y4938979D1*
X2875002Y4937798D1*
X2878545Y4936617D1*
X2887994D1*
X2891537Y4937798D1*
X2893900Y4938979D1*
X2900986Y4946066D1*
X2886813D1*
X2883270Y4944885D1*
X2879726D1*
X2872640Y4947247D1*
X2871459Y4948428D1*
X2867915Y4950790D1*
X2865553Y4951972D1*
Y4985042D1*
X2866734Y4986223D1*
X2869096Y4987405D1*
X2872640Y4988586D1*
X2876577Y4989767D1*
X2880514D1*
X2884451Y4988586D1*
X2889175Y4986223D1*
X2892719Y4982680D1*
Y4981499D1*
X2893900Y4977956D1*
X2895081Y4970869D1*
X2896262Y4969688D1*
Y4963783D1*
X2895081Y4962601D1*
X2893900Y4955515D1*
X2892719Y4951972D1*
Y4950790D1*
X2889175Y4947247D1*
X2886813Y4946066D1*
X2900986D1*
G37*
G36*
X2655317Y5020475D2*
Y5009846D1*
X2668309D1*
Y5020475D1*
X2655317D1*
G37*
G36*
X2382482Y4988586D2*
Y4927168D1*
X2383663Y4920082D1*
X2384844Y4916538D1*
X2387207Y4911814D1*
X2389569Y4908271D1*
X2390750Y4907090D1*
X2395474Y4903546D1*
X2397837Y4902365D1*
X2401380Y4901184D1*
X2407285Y4900003D1*
X2422640D1*
X2428545Y4901184D1*
X2433270Y4902365D1*
X2434451Y4903546D1*
Y4914176D1*
X2433270D1*
X2420278Y4910633D1*
X2415553Y4909452D1*
X2410829D1*
X2406104Y4910633D1*
X2402561Y4911814D1*
X2397837Y4914176D1*
X2396436Y4915504D1*
X2396656Y4916538D1*
X2395474Y4918901D1*
X2394293Y4922444D1*
X2393112Y4923625D1*
Y4935436D1*
X2393994Y4936195D1*
X2394606Y4936126D1*
X2395474Y4935436D1*
X2397837Y4933074D1*
X2404923Y4929531D1*
X2408467Y4928349D1*
X2420278D1*
X2423821Y4929531D1*
X2428545Y4931893D1*
X2435632Y4938979D1*
X2439175Y4946066D1*
X2440356Y4950790D1*
Y4973231D1*
X2439175Y4977956D1*
X2434451Y4987405D1*
X2427364Y4994491D1*
X2420278Y4998035D1*
X2416734Y4999216D1*
X2406104D1*
X2401380Y4998035D1*
X2396656Y4995672D1*
X2395215Y4994440D1*
X2393846Y4994591D1*
X2392727Y4995959D1*
X2393112Y4996853D1*
X2382482D1*
Y4988586D1*
X2402561D1*
X2406892Y4989767D1*
X2411222D1*
X2415553Y4988586D1*
X2419096Y4987405D1*
X2420278Y4986223D1*
X2422640Y4985042D1*
X2425002Y4982680D1*
Y4981499D1*
X2427364Y4976775D1*
X2428545Y4973231D1*
X2429726Y4972050D1*
Y4953153D1*
X2428545Y4951972D1*
X2427364Y4948428D1*
Y4946066D1*
X2421459Y4940160D1*
X2417915Y4938979D1*
X2413978Y4937798D1*
X2410041D1*
X2406104Y4938979D1*
X2402561Y4940160D1*
X2395474Y4943704D1*
X2393112Y4946066D1*
Y4985042D1*
X2395474Y4986223D1*
X2402561Y4988586D1*
X2382482D1*
G37*
G36*
X2456892D2*
Y4987405D1*
X2454530Y4985042D1*
X2452167Y4980318D1*
X2450986Y4976775D1*
X2449805Y4972050D1*
Y4951972D1*
X2450986Y4947247D1*
X2452167Y4943704D1*
X2455711Y4936617D1*
X2462797Y4929531D1*
X2469884Y4925987D1*
X2474608Y4924806D1*
X2486419D1*
X2491144Y4925987D1*
X2494687Y4927168D1*
X2498230Y4929531D1*
X2505317Y4936617D1*
X2507679Y4940160D1*
X2508860Y4943704D1*
X2510041Y4946066D1*
X2511222Y4950790D1*
Y4973231D1*
X2510041Y4977956D1*
X2508860Y4981499D1*
X2507679Y4983861D1*
X2505317Y4987405D1*
X2498230Y4994491D1*
X2491144Y4998035D1*
X2486419Y4999216D1*
X2474608D1*
X2469884Y4998035D1*
X2462797Y4994491D1*
X2456892Y4988586D1*
X2474608D1*
X2478545Y4989767D1*
X2482482D1*
X2486419Y4988586D1*
X2489963Y4987405D1*
X2492325Y4986223D1*
X2495868Y4982680D1*
Y4981499D1*
X2498230Y4976775D1*
X2499411Y4973231D1*
X2500593Y4972050D1*
Y4953153D1*
X2499411Y4951972D1*
X2498230Y4947247D1*
X2495868Y4942523D1*
Y4941342D1*
X2492325Y4937798D1*
X2489963Y4936617D1*
X2486419Y4935436D1*
X2482482Y4934255D1*
X2478545D1*
X2474608Y4935436D1*
X2471065Y4936617D1*
X2469884Y4937798D1*
X2467522Y4938979D1*
X2466121Y4940307D1*
X2466341Y4941342D1*
X2463978Y4944885D1*
X2462797Y4948428D1*
X2461616Y4953153D1*
X2460435Y4954334D1*
Y4969688D1*
X2461616Y4970869D1*
X2462797Y4975594D1*
X2463978Y4979137D1*
X2466341Y4982680D1*
X2466570Y4983517D1*
X2467522Y4985042D1*
X2474608Y4988586D1*
X2456892D1*
G37*
G36*
X3046262Y4999216D2*
X3041537Y4998035D1*
X3034451Y4995672D1*
X3032089Y4994491D1*
Y4981499D1*
X3035632Y4983861D1*
X3036813Y4985042D1*
X3039175Y4986223D1*
X3046262Y4988586D1*
X3050199Y4989767D1*
X3054136D1*
X3058073Y4988586D1*
X3061616Y4987405D1*
X3063978Y4986223D1*
X3069884Y4980318D1*
Y4979137D1*
X3071065Y4976775D1*
X3072246Y4972050D1*
X3073427Y4970869D1*
Y4954334D1*
X3072246Y4953153D1*
X3071065Y4948428D1*
X3069884Y4946066D1*
Y4944885D1*
X3063978Y4938979D1*
X3061616Y4937798D1*
X3058073Y4936617D1*
X3053742Y4935436D1*
X3049411D1*
X3045081Y4936617D1*
X3041537Y4937798D1*
X3034451Y4941342D1*
X3032089Y4943704D1*
Y4930712D1*
X3034451Y4929531D1*
X3041537Y4927168D1*
X3046262Y4925987D1*
X3058073D1*
X3062797Y4927168D1*
X3066341Y4928349D1*
X3071065Y4930712D1*
X3079333Y4938979D1*
X3081695Y4943704D1*
X3084057Y4950790D1*
Y4973231D1*
X3082876Y4977956D1*
X3079333Y4985042D1*
X3076970Y4988586D1*
X3072246Y4993310D1*
X3068703Y4995672D1*
X3066341Y4996853D1*
X3062797Y4998035D1*
X3058073Y4999216D1*
X3046262D1*
G37*
G36*
X2656498Y4996853D2*
Y4927168D1*
X2667128D1*
Y4996853D1*
X2656498D1*
G37*
G36*
X2686026D2*
Y4927168D1*
X2696656D1*
Y4933074D1*
X2697538Y4933832D1*
X2698150Y4933763D1*
X2699004Y4933038D1*
X2700199Y4931893D1*
X2704923Y4928349D1*
X2709648Y4925987D1*
X2714372Y4924806D1*
X2723821D1*
X2727364Y4925987D1*
X2729726Y4927168D1*
X2736813Y4934255D1*
X2737994Y4936617D1*
X2739175Y4940160D1*
X2740356Y4946066D1*
Y4996853D1*
X2729726D1*
X2728545Y4947247D1*
X2727364Y4942523D1*
Y4941342D1*
X2723821Y4937798D1*
X2721459Y4936617D1*
X2717522Y4935436D1*
X2713585D1*
X2709648Y4936617D1*
X2700199Y4941342D1*
X2699018Y4942523D1*
X2696656Y4943704D1*
Y4996853D1*
X2686026D1*
G37*
G36*
X1810533Y4847355D2*
Y4806253D1*
X1817384D1*
Y4809678D1*
X1818023Y4810228D1*
X1818467Y4810178D1*
X1819087Y4809652D1*
X1819953Y4808822D1*
X1822522Y4807109D1*
X1825947Y4805397D1*
X1828516Y4804540D1*
X1835366D1*
X1837935Y4805397D1*
X1841360Y4807109D1*
X1845642Y4811391D1*
X1847354Y4814816D1*
X1849067Y4819954D1*
X1849923Y4825948D1*
Y4832798D1*
X1849067Y4837936D1*
X1847354Y4843074D1*
X1846498Y4844786D1*
X1844785Y4847355D1*
X1839648Y4852493D1*
X1836222Y4854206D1*
X1832797Y4855062D1*
X1825947D1*
X1822522Y4854206D1*
X1819096Y4852493D1*
X1818188Y4851563D1*
X1817745Y4851702D1*
X1817384Y4852493D1*
Y4873044D1*
X1810533D1*
Y4847355D1*
X1822522D1*
X1825947Y4848212D1*
X1829372D1*
X1832797Y4847355D1*
X1836222Y4845643D1*
X1839648Y4842218D1*
Y4841361D1*
X1840504Y4839649D1*
X1841360Y4836223D1*
X1842217Y4835367D1*
Y4823379D1*
X1841360Y4822523D1*
X1840504Y4819097D1*
X1838791Y4815672D1*
X1838510Y4814633D1*
X1837935Y4813960D1*
X1834510Y4812247D1*
X1831656Y4811391D1*
X1828801D1*
X1825947Y4812247D1*
X1823378Y4813103D1*
X1821665Y4813960D1*
X1820809Y4814816D1*
X1819096Y4815672D1*
X1817384Y4817385D1*
Y4845643D1*
X1822522Y4847355D1*
X1810533D1*
G37*
G36*
X2015189D2*
Y4806253D1*
X2022039D1*
Y4809678D1*
X2022679Y4810228D1*
X2023123Y4810178D1*
X2023742Y4809652D1*
X2024608Y4808822D1*
X2027177Y4807109D1*
X2030602Y4805397D1*
X2033171Y4804540D1*
X2040022D1*
X2042591Y4805397D1*
X2046016Y4807109D1*
X2050297Y4811391D1*
X2052010Y4814816D1*
X2053722Y4819954D1*
X2054579Y4825948D1*
Y4832798D1*
X2053722Y4837936D1*
X2052010Y4843074D1*
X2051154Y4844786D1*
X2049441Y4847355D1*
X2044303Y4852493D1*
X2040878Y4854206D1*
X2037453Y4855062D1*
X2030602D1*
X2027177Y4854206D1*
X2023752Y4852493D1*
X2022844Y4851563D1*
X2022401Y4851702D1*
X2022039Y4852493D1*
Y4873044D1*
X2015189D1*
Y4847355D1*
X2027177D1*
X2030602Y4848212D1*
X2034028D1*
X2037453Y4847355D1*
X2040878Y4845643D1*
X2044303Y4842218D1*
Y4841361D1*
X2045159Y4839649D1*
X2046016Y4836223D1*
X2046872Y4835367D1*
Y4823379D1*
X2046016Y4822523D1*
X2045159Y4819097D1*
X2043447Y4815672D1*
X2043165Y4814633D1*
X2042591Y4813960D1*
X2039165Y4812247D1*
X2036311Y4811391D1*
X2033457D1*
X2030602Y4812247D1*
X2028033Y4813103D1*
X2026321Y4813960D1*
X2025465Y4814816D1*
X2023752Y4815672D1*
X2022039Y4817385D1*
Y4845643D1*
X2027177Y4847355D1*
X2015189D1*
G37*
G36*
X2296911D2*
Y4806253D1*
X2303762D1*
Y4809678D1*
X2304401Y4810228D1*
X2304845Y4810178D1*
X2305465Y4809652D1*
X2306331Y4808822D1*
X2308900Y4807109D1*
X2312325Y4805397D1*
X2314894Y4804540D1*
X2321744D1*
X2324313Y4805397D1*
X2327738Y4807109D1*
X2332020Y4811391D1*
X2333732Y4814816D1*
X2335445Y4819954D1*
X2336301Y4825948D1*
Y4832798D1*
X2335445Y4837936D1*
X2333732Y4843074D1*
X2332876Y4844786D1*
X2331163Y4847355D1*
X2326026Y4852493D1*
X2322600Y4854206D1*
X2319175Y4855062D1*
X2312325D1*
X2308900Y4854206D1*
X2305474Y4852493D1*
X2304566Y4851563D1*
X2304123Y4851702D1*
X2303762Y4852493D1*
Y4873044D1*
X2296911D1*
Y4847355D1*
X2308900D1*
X2312325Y4848212D1*
X2315750D1*
X2319175Y4847355D1*
X2322600Y4845643D1*
X2326026Y4842218D1*
Y4841361D1*
X2326882Y4839649D1*
X2327738Y4836223D1*
X2328594Y4835367D1*
Y4823379D1*
X2327738Y4822523D1*
X2326882Y4819097D1*
X2325169Y4815672D1*
X2324888Y4814633D1*
X2324313Y4813960D1*
X2320888Y4812247D1*
X2318033Y4811391D1*
X2315179D1*
X2312325Y4812247D1*
X2309756Y4813103D1*
X2308043Y4813960D1*
X2307187Y4814816D1*
X2305474Y4815672D1*
X2303762Y4817385D1*
Y4845643D1*
X2308900Y4847355D1*
X2296911D1*
G37*
G36*
X1743742Y4872188D2*
Y4834511D1*
X1742834Y4833581D1*
X1742391Y4833720D1*
X1742030Y4834511D1*
X1739461Y4837936D1*
X1727472Y4850781D1*
X1724904Y4853349D1*
X1715484D1*
X1734323Y4834511D1*
Y4832798D1*
X1731754Y4830229D1*
X1714628Y4808822D1*
X1712915Y4806253D1*
X1722335D1*
X1724904Y4808822D1*
X1730041Y4815672D1*
X1733467Y4819954D1*
X1738604Y4826804D1*
X1739036Y4827655D1*
X1739500Y4828446D1*
X1740107Y4829053D1*
X1740545Y4829013D1*
X1741173Y4828517D1*
X1743742Y4825948D1*
Y4806253D1*
X1751449D1*
Y4872188D1*
X1743742D1*
G37*
G36*
X2276360D2*
Y4806253D1*
X2283211D1*
Y4872188D1*
X2276360D1*
G37*
G36*
X2504992D2*
Y4849924D1*
X2503948Y4849031D1*
X2503280Y4849068D1*
X2501567Y4850781D1*
X2498998Y4852493D1*
X2495573Y4854206D1*
X2493004Y4855062D1*
X2486154D1*
X2483585Y4854206D1*
X2481872Y4853349D1*
X2477591Y4849068D1*
X2475878Y4845643D1*
X2475022Y4841361D1*
Y4806253D1*
X2481872D1*
X2482728Y4837080D1*
X2483585Y4843074D1*
X2484441Y4844786D1*
Y4845643D1*
X2487866Y4847355D1*
X2490435Y4848212D1*
X2493004D1*
X2495573Y4847355D1*
X2502423Y4843930D1*
X2504992Y4841361D1*
Y4806253D1*
X2511843D1*
Y4872188D1*
X2504992D1*
G37*
G36*
X2957974D2*
Y4834511D1*
X2957066Y4833581D1*
X2956623Y4833720D1*
X2956262Y4834511D1*
X2953693Y4837936D1*
X2941705Y4850781D1*
X2939136Y4853349D1*
X2929717D1*
X2948555Y4834511D1*
Y4832798D1*
X2945986Y4830229D1*
X2928860Y4808822D1*
X2927148Y4806253D1*
X2936567D1*
X2939136Y4808822D1*
X2944274Y4815672D1*
X2947699Y4819954D1*
X2952837Y4826804D1*
X2953268Y4827655D1*
X2953732Y4828446D1*
X2954340Y4829053D1*
X2954777Y4829013D1*
X2955406Y4828517D1*
X2957974Y4825948D1*
Y4806253D1*
X2965681D1*
Y4872188D1*
X2957974D1*
G37*
G36*
X3102689D2*
Y4849924D1*
X3101645Y4849031D1*
X3100976Y4849068D1*
X3099264Y4850781D1*
X3096695Y4852493D1*
X3093270Y4854206D1*
X3090701Y4855062D1*
X3083850D1*
X3081282Y4854206D1*
X3079569Y4853349D1*
X3075287Y4849068D1*
X3073575Y4845643D1*
X3072719Y4841361D1*
Y4806253D1*
X3079569D1*
X3080425Y4837080D1*
X3081282Y4843074D1*
X3082138Y4844786D1*
Y4845643D1*
X3085563Y4847355D1*
X3088132Y4848212D1*
X3090701D1*
X3093270Y4847355D1*
X3100120Y4843930D1*
X3102689Y4841361D1*
Y4806253D1*
X3109539D1*
Y4872188D1*
X3102689D1*
G37*
G36*
X3178900D2*
Y4806253D1*
X3185750D1*
Y4872188D1*
X3178900D1*
G37*
G36*
X1955248Y4819954D2*
X1956104Y4820810D1*
X1957817Y4825948D1*
Y4840505D1*
X1956961Y4843074D1*
X1955248Y4846499D1*
X1950110Y4851637D1*
X1947541Y4853349D1*
X1944116Y4854206D1*
X1938122D1*
X1935553Y4853349D1*
X1933841Y4852493D1*
X1932796Y4851600D1*
X1931804Y4851709D1*
X1930992Y4852701D1*
X1931272Y4853349D1*
X1925278D1*
Y4818241D1*
X1921567Y4817385D1*
X1917856D1*
X1914146Y4818241D1*
Y4819097D1*
X1913289Y4821666D1*
X1912433Y4825948D1*
X1911577Y4826804D1*
Y4842218D1*
X1912433Y4843074D1*
X1913289Y4846499D1*
X1915002Y4851637D1*
X1916715Y4854206D1*
Y4855062D1*
X1922709Y4861056D1*
X1924421Y4861912D1*
X1925278Y4862769D1*
X1926990Y4863625D1*
X1929559Y4864481D1*
X1933841Y4865338D1*
X1937837Y4866194D1*
X1941833D1*
X1945829Y4865338D1*
X1949254Y4864481D1*
X1951823Y4863625D1*
X1955248Y4861912D1*
X1956104Y4861056D1*
X1957817Y4860200D1*
X1962955Y4855062D1*
Y4854206D1*
X1966380Y4849068D1*
X1968093Y4843930D1*
X1968949Y4839649D1*
X1969805Y4838792D1*
Y4829373D1*
X1968949Y4828517D1*
X1968093Y4823379D1*
X1966380Y4818241D1*
X1962955Y4813103D1*
Y4812247D1*
X1959530Y4808822D1*
X1957817Y4807966D1*
X1955248Y4806253D1*
X1950110Y4803684D1*
X1945829Y4802828D1*
X1941262Y4801972D1*
X1936695D1*
X1932128Y4802828D1*
X1926134Y4803684D1*
Y4798546D1*
X1926990Y4797690D1*
X1932128Y4796834D1*
X1944972D1*
X1949254Y4797690D1*
X1954392Y4799403D1*
X1957817Y4801115D1*
X1960386Y4802828D1*
X1968093Y4810535D1*
X1969805Y4813103D1*
X1972374Y4818241D1*
X1974087Y4823379D1*
X1974943Y4828517D1*
Y4839649D1*
X1974087Y4843930D1*
X1972374Y4849068D1*
X1969805Y4854206D1*
X1968093Y4856775D1*
X1965524Y4860200D1*
X1962955Y4862769D1*
X1958673Y4866194D1*
X1951823Y4869619D1*
X1949254Y4870475D1*
X1944972Y4871332D1*
X1933841D1*
X1926990Y4869619D1*
X1921852Y4867050D1*
X1919283Y4865338D1*
X1914146Y4860200D1*
X1911577Y4856775D1*
X1909008Y4851637D1*
X1908152Y4849068D1*
X1907295Y4845643D1*
X1906439Y4841361D1*
Y4828517D1*
X1908152Y4821666D1*
X1909008Y4819097D1*
X1911577Y4813960D1*
X1912433Y4813103D1*
X1930415D1*
Y4816529D1*
X1931557Y4817385D1*
X1932699D1*
X1933841Y4816529D1*
X1935553Y4814816D1*
X1937266Y4813960D1*
X1939835Y4813103D1*
X1946685D1*
X1949254Y4813960D1*
X1950967Y4814816D1*
X1954392Y4818241D1*
X1955248Y4819954D1*
X1945829D1*
X1943260Y4819097D1*
X1940691D1*
X1938122Y4819954D1*
X1932984Y4822523D1*
X1931272Y4824235D1*
Y4846499D1*
X1933841Y4847355D1*
X1935553Y4848212D1*
X1938407Y4849068D1*
X1941262D1*
X1944116Y4848212D1*
X1947541Y4846499D1*
X1949254Y4844786D1*
Y4843930D1*
X1950110Y4842218D1*
X1950967Y4839649D1*
X1951823Y4838792D1*
Y4828517D1*
X1950967Y4827660D1*
X1950110Y4825092D1*
X1949254Y4823379D1*
Y4822523D1*
X1947541Y4820810D1*
X1945829Y4819954D1*
X1955248D1*
G37*
G36*
X2731055D2*
X2731911Y4820810D1*
X2733624Y4825948D1*
Y4840505D1*
X2732768Y4843074D1*
X2731055Y4846499D1*
X2725917Y4851637D1*
X2723348Y4853349D1*
X2719923Y4854206D1*
X2713929D1*
X2711360Y4853349D1*
X2709648Y4852493D1*
X2708604Y4851600D1*
X2707611Y4851709D1*
X2706799Y4852701D1*
X2707079Y4853349D1*
X2701085D1*
Y4818241D1*
X2697374Y4817385D1*
X2693663D1*
X2689953Y4818241D1*
Y4819097D1*
X2689096Y4821666D1*
X2688240Y4825948D1*
X2687384Y4826804D1*
Y4842218D1*
X2688240Y4843074D1*
X2689096Y4846499D1*
X2690809Y4851637D1*
X2692522Y4854206D1*
Y4855062D1*
X2698516Y4861056D1*
X2700228Y4861912D1*
X2701085Y4862769D1*
X2702797Y4863625D1*
X2705366Y4864481D1*
X2709648Y4865338D1*
X2713644Y4866194D1*
X2717640D1*
X2721636Y4865338D1*
X2725061Y4864481D1*
X2727630Y4863625D1*
X2731055Y4861912D1*
X2731911Y4861056D1*
X2733624Y4860200D1*
X2738762Y4855062D1*
Y4854206D1*
X2742187Y4849068D1*
X2743900Y4843930D1*
X2744756Y4839649D1*
X2745612Y4838792D1*
Y4829373D1*
X2744756Y4828517D1*
X2743900Y4823379D1*
X2742187Y4818241D1*
X2738762Y4813103D1*
Y4812247D1*
X2735337Y4808822D1*
X2733624Y4807966D1*
X2731055Y4806253D1*
X2725917Y4803684D1*
X2721636Y4802828D1*
X2717069Y4801972D1*
X2712502D1*
X2707935Y4802828D1*
X2701941Y4803684D1*
Y4798546D1*
X2702797Y4797690D1*
X2707935Y4796834D1*
X2720780D1*
X2725061Y4797690D1*
X2730199Y4799403D1*
X2733624Y4801115D1*
X2736193Y4802828D1*
X2743900Y4810535D1*
X2745612Y4813103D1*
X2748181Y4818241D1*
X2749894Y4823379D1*
X2750750Y4828517D1*
Y4839649D1*
X2749894Y4843930D1*
X2748181Y4849068D1*
X2745612Y4854206D1*
X2743900Y4856775D1*
X2741331Y4860200D1*
X2738762Y4862769D1*
X2734480Y4866194D1*
X2727630Y4869619D1*
X2725061Y4870475D1*
X2720780Y4871332D1*
X2709648D1*
X2702797Y4869619D1*
X2697659Y4867050D1*
X2695091Y4865338D1*
X2689953Y4860200D1*
X2687384Y4856775D1*
X2684815Y4851637D1*
X2683959Y4849068D1*
X2683102Y4845643D1*
X2682246Y4841361D1*
Y4828517D1*
X2683959Y4821666D1*
X2684815Y4819097D1*
X2687384Y4813960D1*
X2688240Y4813103D1*
X2706222D1*
Y4816529D1*
X2707364Y4817385D1*
X2708506D1*
X2709648Y4816529D1*
X2711360Y4814816D1*
X2713073Y4813960D1*
X2715642Y4813103D1*
X2722492D1*
X2725061Y4813960D1*
X2726774Y4814816D1*
X2730199Y4818241D1*
X2731055Y4819954D1*
X2721636D1*
X2719067Y4819097D1*
X2716498D1*
X2713929Y4819954D1*
X2708791Y4822523D1*
X2707079Y4824235D1*
Y4846499D1*
X2709648Y4847355D1*
X2711360Y4848212D1*
X2714215Y4849068D1*
X2717069D1*
X2719923Y4848212D1*
X2723348Y4846499D1*
X2725061Y4844786D1*
Y4843930D1*
X2725917Y4842218D1*
X2726774Y4839649D1*
X2727630Y4838792D1*
Y4828517D1*
X2726774Y4827660D1*
X2725917Y4825092D1*
X2725061Y4823379D1*
Y4822523D1*
X2723348Y4820810D1*
X2721636Y4819954D1*
X2731055D1*
G37*
G36*
X1699215Y4869619D2*
Y4861912D1*
X1707778D1*
Y4869619D1*
X1699215D1*
G37*
G36*
X2422787Y4836223D2*
X2421931Y4835367D1*
X2420219Y4831942D1*
X2419362Y4829373D1*
Y4822523D1*
X2420219Y4819097D1*
X2421931Y4815672D1*
X2423644Y4813103D1*
X2425356Y4811391D1*
X2427925Y4809678D1*
X2431350Y4807966D1*
X2433919Y4807109D1*
X2438201Y4806253D1*
X2462177D1*
Y4869619D1*
X2435632D1*
X2432207Y4868763D1*
X2429638Y4867907D1*
X2427925Y4867050D1*
X2424500Y4863625D1*
X2423644Y4861912D1*
X2436488D1*
X2442482Y4862769D1*
X2448476D1*
X2454470Y4861912D1*
Y4844786D1*
X2448762Y4843930D1*
X2443053D1*
X2437344Y4844786D1*
X2433919Y4846499D1*
X2431350Y4849068D1*
Y4849924D1*
X2430494Y4850781D1*
Y4857631D1*
X2433919Y4861056D1*
X2436488Y4861912D1*
X2423644D1*
X2422787Y4860200D1*
Y4851637D1*
X2424500Y4848212D1*
X2426213Y4845643D1*
X2429638Y4843074D1*
X2431350Y4842218D1*
X2430494Y4841361D1*
X2427925Y4840505D1*
X2426213Y4839649D1*
X2422787Y4836223D1*
X2435632D1*
X2441911Y4837080D1*
X2448191D1*
X2454470Y4836223D1*
Y4813960D1*
X2449047Y4813103D1*
X2443624D1*
X2438201Y4813960D1*
X2434776Y4814816D1*
X2431350Y4816529D1*
X2428782Y4819097D1*
Y4819954D1*
X2427925Y4822523D1*
X2427069Y4823379D1*
Y4827660D1*
X2427925Y4828517D1*
Y4831086D1*
X2431350Y4834511D1*
X2433063Y4835367D1*
X2435632Y4836223D1*
X2422787D1*
G37*
G36*
X2594047Y4869619D2*
Y4861912D1*
X2602610D1*
Y4869619D1*
X2594047D1*
G37*
G36*
X2615455D2*
Y4806253D1*
X2623161D1*
Y4860200D1*
X2623801Y4860750D1*
X2624234Y4860678D1*
X2624721Y4859970D1*
X2624874Y4859344D1*
X2625730Y4857631D1*
X2626587Y4855062D1*
X2629156Y4849924D1*
X2630012Y4847355D1*
X2632581Y4842218D1*
X2633437Y4839649D1*
X2636006Y4834511D1*
X2636862Y4831942D1*
X2639431Y4826804D1*
X2640287Y4824235D1*
X2645425D1*
X2646282Y4825948D1*
X2647138Y4828517D1*
X2649707Y4833655D1*
X2650563Y4836223D1*
X2653132Y4841361D1*
X2653988Y4843930D1*
X2655701Y4847355D1*
X2656557Y4849924D1*
X2659126Y4855062D1*
X2659982Y4857631D1*
X2660839Y4859344D1*
X2660978Y4860006D1*
X2661504Y4860708D1*
X2661926Y4860688D1*
X2662551Y4860200D1*
Y4806253D1*
X2669402D1*
Y4869619D1*
X2658270D1*
X2657413Y4867050D1*
X2653988Y4860200D1*
X2653132Y4857631D1*
X2650563Y4852493D1*
X2649707Y4849924D1*
X2647138Y4844786D1*
X2646282Y4842218D1*
X2643281Y4836221D1*
X2642784Y4835327D1*
X2641947Y4834435D1*
X2641506Y4834576D1*
X2641144Y4835367D1*
Y4837080D1*
X2639431Y4840505D1*
X2638575Y4843074D1*
X2636862Y4846499D1*
X2636006Y4849068D1*
X2634293Y4852493D1*
X2633437Y4855062D1*
X2630868Y4860200D1*
X2630012Y4862769D1*
X2628299Y4866194D1*
X2627443Y4868763D1*
X2626587Y4869619D1*
X2615455D1*
G37*
G36*
X3244835D2*
Y4861912D1*
X3253398D1*
Y4869619D1*
X3244835D1*
G37*
G36*
X2574352Y4867050D2*
Y4854206D1*
X2559795Y4853349D1*
Y4847355D1*
X2574352Y4846499D1*
Y4816529D1*
X2573496Y4815672D1*
Y4814816D1*
X2571783Y4813103D1*
X2570071Y4812247D1*
X2567502Y4811391D1*
X2564933D1*
X2559795Y4813103D1*
Y4806253D1*
X2564077Y4805397D1*
X2571783D1*
X2574352Y4806253D1*
X2576065Y4807109D1*
X2579490Y4810535D1*
X2580346Y4812247D1*
X2581203Y4814816D1*
Y4846499D1*
X2587197Y4847355D1*
Y4853349D1*
X2581203Y4854206D1*
Y4867050D1*
X2574352D1*
G37*
G36*
X2847512D2*
Y4854206D1*
X2832955Y4853349D1*
Y4847355D1*
X2847512Y4846499D1*
Y4816529D1*
X2846656Y4815672D1*
Y4814816D1*
X2844943Y4813103D1*
X2843230Y4812247D1*
X2840661Y4811391D1*
X2838093D1*
X2832955Y4813103D1*
Y4806253D1*
X2837236Y4805397D1*
X2844943D1*
X2847512Y4806253D1*
X2849224Y4807109D1*
X2852650Y4810535D1*
X2853506Y4812247D1*
X2854362Y4814816D1*
Y4846499D1*
X2860356Y4847355D1*
Y4853349D1*
X2854362Y4854206D1*
Y4867050D1*
X2847512D1*
G37*
G36*
X3130947D2*
Y4854206D1*
X3116390Y4853349D1*
Y4847355D1*
X3130947Y4846499D1*
Y4816529D1*
X3130091Y4815672D1*
Y4814816D1*
X3128378Y4813103D1*
X3126665Y4812247D1*
X3124096Y4811391D1*
X3121528D1*
X3116390Y4813103D1*
Y4806253D1*
X3120671Y4805397D1*
X3128378D1*
X3130947Y4806253D1*
X3132659Y4807109D1*
X3136085Y4810535D1*
X3136941Y4812247D1*
X3137797Y4814816D1*
Y4846499D1*
X3143791Y4847355D1*
Y4853349D1*
X3137797Y4854206D1*
Y4867050D1*
X3130947D1*
G37*
G36*
X1763437Y4830229D2*
Y4806253D1*
X1770287D1*
Y4809678D1*
X1771202Y4810250D1*
X1772000Y4810535D1*
X1773713Y4808822D1*
X1776282Y4807109D1*
X1779707Y4805397D1*
X1782276Y4804540D1*
X1789982D1*
X1792551Y4805397D1*
X1794264Y4806253D1*
X1798545Y4810535D1*
X1800258Y4813960D1*
X1801114Y4817385D1*
Y4821666D1*
X1800258Y4825948D1*
X1799402Y4827660D1*
X1797689Y4830229D1*
X1794264Y4832798D1*
X1790839Y4834511D1*
X1783988Y4836223D1*
X1776282Y4837080D1*
X1770287Y4837936D1*
Y4840505D1*
X1771144Y4841361D1*
Y4843930D1*
X1774569Y4847355D1*
X1777138Y4848212D1*
X1780848Y4849068D1*
X1784559D1*
X1788270Y4848212D1*
X1791695Y4847355D1*
X1796833Y4845643D1*
Y4853349D1*
X1793407Y4854206D1*
X1788270Y4855062D1*
X1777138D1*
X1772856Y4854206D1*
X1769431Y4852493D1*
X1766006Y4849068D1*
X1764293Y4845643D1*
X1763437Y4842218D1*
Y4830229D1*
X1770287D1*
X1772285Y4831086D1*
X1774283D1*
X1776282Y4830229D1*
X1783132Y4829373D1*
X1786557Y4828517D1*
X1789982Y4826804D1*
X1792551Y4824235D1*
Y4823379D1*
X1793407Y4822523D1*
Y4817385D1*
X1792551Y4816529D1*
X1791695Y4814816D1*
Y4813960D1*
X1788270Y4812247D1*
X1785415Y4811391D1*
X1782561D1*
X1779707Y4812247D1*
X1777138Y4813103D1*
X1773713Y4814816D1*
X1772000Y4816529D1*
X1770287Y4817385D1*
Y4830229D1*
X1763437D1*
G37*
G36*
X1861055Y4848212D2*
X1859343Y4846499D1*
X1857630Y4843074D1*
X1856774Y4840505D1*
X1855917Y4837080D1*
Y4822523D1*
X1856774Y4819097D1*
X1857630Y4816529D1*
X1859343Y4813103D1*
X1865337Y4807109D1*
X1867049Y4806253D1*
X1872187Y4804540D1*
X1880750D1*
X1884175Y4805397D1*
X1887600Y4807109D1*
X1891026Y4809678D1*
X1893594Y4813103D1*
X1896163Y4818241D1*
X1897020Y4820810D1*
X1897876Y4825948D1*
Y4833655D1*
X1897020Y4838792D1*
X1896163Y4841361D1*
X1893594Y4846499D1*
X1887600Y4852493D1*
X1885888Y4853349D1*
X1880750Y4855062D1*
X1872187D1*
X1867049Y4853349D1*
X1864480Y4851637D1*
X1861055Y4848212D1*
X1872187D1*
X1875041Y4849068D1*
X1877896D1*
X1880750Y4848212D1*
X1883319Y4847355D1*
X1887600Y4843074D1*
Y4842218D1*
X1888457Y4840505D1*
X1889313Y4837080D1*
X1890169Y4836223D1*
Y4823379D1*
X1889313Y4822523D1*
X1888457Y4819097D1*
X1887600Y4817385D1*
Y4816529D1*
X1884175Y4813103D1*
X1880750Y4811391D1*
X1877896Y4810535D1*
X1875041D1*
X1872187Y4811391D1*
X1868762Y4813103D1*
X1866193Y4815672D1*
Y4816529D1*
X1864480Y4819954D1*
X1863624Y4824235D1*
X1862768Y4825092D1*
Y4834511D1*
X1863624Y4835367D1*
X1864480Y4839649D1*
X1865337Y4842218D1*
Y4843074D1*
X1868762Y4846499D1*
X1872187Y4848212D1*
X1861055D1*
G37*
G36*
X2074274Y4855062D2*
X2071705Y4854206D1*
X2069992Y4853349D1*
X2065711Y4849068D1*
X2063998Y4845643D1*
X2063142Y4841361D1*
Y4806253D1*
X2069992D1*
X2070848Y4837080D1*
X2071705Y4843074D1*
X2072561Y4844786D1*
Y4845643D1*
X2075986Y4847355D1*
X2078555Y4848212D1*
X2081124D1*
X2083693Y4847355D1*
X2090543Y4843930D1*
X2093112Y4841361D1*
Y4806253D1*
X2099963D1*
Y4853349D1*
X2093112D1*
Y4849924D1*
X2092068Y4849031D1*
X2091400Y4849068D1*
X2089687Y4850781D1*
X2087118Y4852493D1*
X2083693Y4854206D1*
X2081124Y4855062D1*
X2074274D1*
G37*
G36*
X2111951Y4830229D2*
Y4806253D1*
X2118801D1*
Y4809678D1*
X2119716Y4810250D1*
X2120514Y4810535D1*
X2122226Y4808822D1*
X2124795Y4807109D1*
X2128220Y4805397D1*
X2130789Y4804540D1*
X2138496D1*
X2141065Y4805397D1*
X2142778Y4806253D1*
X2147059Y4810535D1*
X2148772Y4813960D1*
X2149628Y4817385D1*
Y4821666D1*
X2148772Y4825948D1*
X2147915Y4827660D1*
X2146203Y4830229D1*
X2142778Y4832798D1*
X2139352Y4834511D1*
X2132502Y4836223D1*
X2124795Y4837080D1*
X2118801Y4837936D1*
Y4840505D1*
X2119657Y4841361D1*
Y4843930D1*
X2123083Y4847355D1*
X2125652Y4848212D1*
X2129362Y4849068D1*
X2133073D1*
X2136783Y4848212D1*
X2140209Y4847355D1*
X2145346Y4845643D1*
Y4853349D1*
X2141921Y4854206D1*
X2136783Y4855062D1*
X2125652D1*
X2121370Y4854206D1*
X2117945Y4852493D1*
X2114520Y4849068D1*
X2112807Y4845643D1*
X2111951Y4842218D1*
Y4830229D1*
X2118801D1*
X2120799Y4831086D1*
X2122797D1*
X2124795Y4830229D1*
X2131646Y4829373D1*
X2135071Y4828517D1*
X2138496Y4826804D1*
X2141065Y4824235D1*
Y4823379D1*
X2141921Y4822523D1*
Y4817385D1*
X2141065Y4816529D1*
X2140209Y4814816D1*
Y4813960D1*
X2136783Y4812247D1*
X2133929Y4811391D1*
X2131075D1*
X2128220Y4812247D1*
X2125652Y4813103D1*
X2122226Y4814816D1*
X2120514Y4816529D1*
X2118801Y4817385D1*
Y4830229D1*
X2111951D1*
G37*
G36*
X2230120Y4848212D2*
X2229264Y4847355D1*
X2227551Y4843930D1*
X2226695Y4841361D1*
X2225839Y4835367D1*
Y4829373D1*
X2259234Y4828517D1*
Y4823379D1*
X2258378Y4822523D1*
X2257522Y4819954D1*
X2256665Y4818241D1*
Y4817385D1*
X2254096Y4814816D1*
X2250671Y4813103D1*
X2248102Y4812247D1*
X2244677Y4811391D1*
X2241252D1*
X2237827Y4812247D1*
X2232689Y4813960D1*
X2229264Y4815672D1*
X2228407Y4816529D1*
X2226695Y4817385D1*
Y4809678D1*
X2227551Y4808822D1*
X2231833Y4807109D1*
X2234402Y4806253D1*
X2238683Y4805397D1*
X2248102D1*
X2251528Y4806253D1*
X2254096Y4807109D1*
X2257522Y4808822D1*
X2262659Y4813960D1*
X2264372Y4816529D1*
X2266085Y4821666D1*
X2266941Y4825948D1*
Y4833655D1*
X2266085Y4837936D1*
X2265228Y4841361D1*
X2263516Y4844786D1*
X2261803Y4847355D1*
X2257522Y4851637D1*
X2252384Y4854206D1*
X2248959Y4855062D1*
X2241252D1*
X2237827Y4854206D1*
X2234402Y4852493D1*
X2231833Y4850781D1*
X2230120Y4848212D1*
X2241252D1*
X2244106Y4849068D1*
X2246961D1*
X2249815Y4848212D1*
X2252384Y4847355D1*
X2253240Y4846499D1*
X2254953Y4845643D1*
X2255643Y4844537D1*
X2255809Y4843930D1*
X2257522Y4841361D1*
X2258378Y4839649D1*
X2259234Y4838792D1*
Y4835367D1*
X2250386Y4834511D1*
X2241537D1*
X2232689Y4835367D1*
X2233545Y4836223D1*
X2234402Y4841361D1*
X2236114Y4844786D1*
X2238683Y4847355D1*
X2241252Y4848212D1*
X2230120D1*
G37*
G36*
X2344864Y4830229D2*
Y4806253D1*
X2351715D1*
Y4809678D1*
X2352630Y4810250D1*
X2353427Y4810535D1*
X2355140Y4808822D1*
X2357709Y4807109D1*
X2361134Y4805397D1*
X2363703Y4804540D1*
X2371409D1*
X2373978Y4805397D1*
X2375691Y4806253D1*
X2379972Y4810535D1*
X2381685Y4813960D1*
X2382541Y4817385D1*
Y4821666D1*
X2381685Y4825948D1*
X2380829Y4827660D1*
X2379116Y4830229D1*
X2375691Y4832798D1*
X2372266Y4834511D1*
X2365415Y4836223D1*
X2357709Y4837080D1*
X2351715Y4837936D1*
Y4840505D1*
X2352571Y4841361D1*
Y4843930D1*
X2355996Y4847355D1*
X2358565Y4848212D1*
X2362276Y4849068D1*
X2365986D1*
X2369697Y4848212D1*
X2373122Y4847355D1*
X2378260Y4845643D1*
Y4853349D1*
X2374835Y4854206D1*
X2369697Y4855062D1*
X2358565D1*
X2354283Y4854206D1*
X2350858Y4852493D1*
X2347433Y4849068D1*
X2345720Y4845643D1*
X2344864Y4842218D1*
Y4830229D1*
X2351715D1*
X2353713Y4831086D1*
X2355711D1*
X2357709Y4830229D1*
X2364559Y4829373D1*
X2367984Y4828517D1*
X2371409Y4826804D1*
X2373978Y4824235D1*
Y4823379D1*
X2374835Y4822523D1*
Y4817385D1*
X2373978Y4816529D1*
X2373122Y4814816D1*
Y4813960D1*
X2369697Y4812247D1*
X2366843Y4811391D1*
X2363988D1*
X2361134Y4812247D1*
X2358565Y4813103D1*
X2355140Y4814816D1*
X2353427Y4816529D1*
X2351715Y4817385D1*
Y4830229D1*
X2344864D1*
G37*
G36*
X2529825Y4855062D2*
X2526400Y4854206D1*
X2521262Y4852493D1*
X2519549Y4850781D1*
Y4843074D1*
X2521262Y4843930D1*
X2522118Y4844786D1*
X2527256Y4847355D1*
X2529825Y4848212D1*
X2532679Y4849068D1*
X2535533D1*
X2538388Y4848212D1*
X2541813Y4846499D1*
X2546094Y4842218D1*
Y4841361D1*
X2546951Y4839649D1*
X2547807Y4836223D1*
X2548663Y4835367D1*
Y4825092D1*
X2547807Y4824235D1*
X2546951Y4820810D1*
X2545238Y4817385D1*
Y4816529D1*
X2543526Y4814816D1*
X2541813Y4813960D1*
X2540957Y4813103D1*
X2538388Y4812247D1*
X2535533Y4811391D1*
X2532679D1*
X2529825Y4812247D1*
X2526400Y4813103D1*
X2522974Y4814816D1*
X2521262Y4816529D1*
X2519549Y4817385D1*
Y4809678D1*
X2520406Y4808822D1*
X2523831Y4807109D1*
X2526400Y4806253D1*
X2529825Y4805397D1*
X2538388D1*
X2541813Y4806253D1*
X2544382Y4807109D1*
X2549520Y4810535D1*
X2550376Y4811391D1*
X2553801Y4816529D1*
X2555514Y4821666D1*
X2556370Y4827660D1*
Y4832798D1*
X2555514Y4837936D1*
X2554657Y4841361D1*
X2552945Y4844786D1*
X2551232Y4847355D1*
X2546951Y4851637D1*
X2543526Y4853349D1*
X2538388Y4855062D1*
X2529825D1*
G37*
G36*
X2792709Y4848212D2*
X2790996Y4846499D1*
X2789283Y4843074D1*
X2788427Y4840505D1*
X2787571Y4837080D1*
Y4822523D1*
X2788427Y4819097D1*
X2789283Y4816529D1*
X2790996Y4813103D1*
X2796990Y4807109D1*
X2798703Y4806253D1*
X2803841Y4804540D1*
X2812404D1*
X2815829Y4805397D1*
X2819254Y4807109D1*
X2822679Y4809678D1*
X2825248Y4813103D1*
X2827817Y4818241D1*
X2828673Y4820810D1*
X2829530Y4825948D1*
Y4833655D1*
X2828673Y4838792D1*
X2827817Y4841361D1*
X2825248Y4846499D1*
X2819254Y4852493D1*
X2817541Y4853349D1*
X2812404Y4855062D1*
X2803841D1*
X2798703Y4853349D1*
X2796134Y4851637D1*
X2792709Y4848212D1*
X2803841D1*
X2806695Y4849068D1*
X2809549D1*
X2812404Y4848212D1*
X2814972Y4847355D1*
X2819254Y4843074D1*
Y4842218D1*
X2820110Y4840505D1*
X2820967Y4837080D1*
X2821823Y4836223D1*
Y4823379D1*
X2820967Y4822523D1*
X2820110Y4819097D1*
X2819254Y4817385D1*
Y4816529D1*
X2815829Y4813103D1*
X2812404Y4811391D1*
X2809549Y4810535D1*
X2806695D1*
X2803841Y4811391D1*
X2800415Y4813103D1*
X2797846Y4815672D1*
Y4816529D1*
X2796134Y4819954D1*
X2795278Y4824235D1*
X2794421Y4825092D1*
Y4834511D1*
X2795278Y4835367D1*
X2796134Y4839649D1*
X2796990Y4842218D1*
Y4843074D1*
X2800415Y4846499D1*
X2803841Y4848212D1*
X2792709D1*
G37*
G36*
X2902315Y4855062D2*
X2898033Y4854206D1*
X2895465Y4853349D1*
X2893752Y4852493D1*
X2892896Y4851637D1*
Y4843930D1*
X2893752Y4844786D1*
X2898890Y4847355D1*
X2902315Y4848212D1*
X2905455Y4849068D1*
X2908594D1*
X2911734Y4848212D1*
X2915159Y4846499D1*
X2916872Y4844786D1*
Y4838792D1*
X2914303Y4836223D1*
X2909165Y4834511D1*
X2904884Y4833655D1*
X2901459Y4832798D1*
X2898890Y4831942D1*
X2895465Y4830229D1*
X2892039Y4826804D1*
X2891183Y4824235D1*
Y4815672D1*
X2892896Y4812247D1*
X2896321Y4808822D1*
X2898890Y4807109D1*
X2904028Y4805397D1*
X2914303D1*
X2917728Y4806253D1*
X2922866Y4807966D1*
X2924579Y4808822D1*
Y4817385D1*
X2923722Y4816529D1*
X2916872Y4813103D1*
X2913447Y4812247D1*
X2910307Y4811391D1*
X2907167D1*
X2904028Y4812247D1*
X2901459Y4813103D1*
X2898890Y4815672D1*
Y4816529D1*
X2898033Y4817385D1*
Y4820810D1*
X2898890Y4821666D1*
X2899056Y4822273D1*
X2899746Y4823379D1*
X2903171Y4825092D1*
X2905740Y4825948D1*
X2910022Y4826804D1*
X2913447Y4827660D1*
X2916016Y4828517D1*
X2919441Y4830229D1*
X2922866Y4833655D1*
X2923722Y4835367D1*
X2924579Y4837936D1*
Y4843930D1*
X2923722Y4846499D1*
X2922866Y4848212D1*
X2919441Y4851637D1*
X2916872Y4853349D1*
X2911734Y4855062D1*
X2902315D1*
G37*
G36*
X2988801D2*
X2986232Y4854206D1*
X2984520Y4853349D1*
X2980238Y4849068D1*
X2978526Y4845643D1*
X2977669Y4841361D1*
Y4806253D1*
X2984520D1*
X2985376Y4837080D1*
X2986232Y4843074D1*
X2987089Y4844786D1*
Y4845643D1*
X2990514Y4847355D1*
X2993083Y4848212D1*
X2995652D1*
X2998220Y4847355D1*
X3005071Y4843930D1*
X3007640Y4841361D1*
Y4806253D1*
X3014490D1*
Y4853349D1*
X3007640D1*
Y4849924D1*
X3006596Y4849031D1*
X3005927Y4849068D1*
X3004215Y4850781D1*
X3001646Y4852493D1*
X2998220Y4854206D1*
X2995652Y4855062D1*
X2988801D1*
G37*
G36*
X3026478Y4830229D2*
Y4806253D1*
X3033329D1*
Y4809678D1*
X3034244Y4810250D1*
X3035041Y4810535D1*
X3036754Y4808822D1*
X3039323Y4807109D1*
X3042748Y4805397D1*
X3045317Y4804540D1*
X3053024D1*
X3055593Y4805397D1*
X3057305Y4806253D1*
X3061587Y4810535D1*
X3063299Y4813960D1*
X3064156Y4817385D1*
Y4821666D1*
X3063299Y4825948D1*
X3062443Y4827660D1*
X3060730Y4830229D1*
X3057305Y4832798D1*
X3053880Y4834511D1*
X3047030Y4836223D1*
X3039323Y4837080D1*
X3033329Y4837936D1*
Y4840505D1*
X3034185Y4841361D1*
Y4843930D1*
X3037610Y4847355D1*
X3040179Y4848212D1*
X3043890Y4849068D1*
X3047600D1*
X3051311Y4848212D1*
X3054736Y4847355D1*
X3059874Y4845643D1*
Y4853349D1*
X3056449Y4854206D1*
X3051311Y4855062D1*
X3040179D1*
X3035898Y4854206D1*
X3032472Y4852493D1*
X3029047Y4849068D1*
X3027335Y4845643D1*
X3026478Y4842218D1*
Y4830229D1*
X3033329D1*
X3035327Y4831086D1*
X3037325D1*
X3039323Y4830229D1*
X3046173Y4829373D1*
X3049598Y4828517D1*
X3053024Y4826804D1*
X3055593Y4824235D1*
Y4823379D1*
X3056449Y4822523D1*
Y4817385D1*
X3055593Y4816529D1*
X3054736Y4814816D1*
Y4813960D1*
X3051311Y4812247D1*
X3048457Y4811391D1*
X3045602D1*
X3042748Y4812247D1*
X3040179Y4813103D1*
X3036754Y4814816D1*
X3035041Y4816529D1*
X3033329Y4817385D1*
Y4830229D1*
X3026478D1*
G37*
G36*
X3198594D2*
Y4806253D1*
X3205445D1*
Y4809678D1*
X3206360Y4810250D1*
X3207157Y4810535D1*
X3208870Y4808822D1*
X3211439Y4807109D1*
X3214864Y4805397D1*
X3217433Y4804540D1*
X3225140D1*
X3227709Y4805397D1*
X3229421Y4806253D1*
X3233703Y4810535D1*
X3235415Y4813960D1*
X3236272Y4817385D1*
Y4821666D1*
X3235415Y4825948D1*
X3234559Y4827660D1*
X3232846Y4830229D1*
X3229421Y4832798D1*
X3225996Y4834511D1*
X3219146Y4836223D1*
X3211439Y4837080D1*
X3205445Y4837936D1*
Y4840505D1*
X3206301Y4841361D1*
Y4843930D1*
X3209726Y4847355D1*
X3212295Y4848212D1*
X3216006Y4849068D1*
X3219717D1*
X3223427Y4848212D1*
X3226852Y4847355D1*
X3231990Y4845643D1*
Y4853349D1*
X3228565Y4854206D1*
X3223427Y4855062D1*
X3212295D1*
X3208014Y4854206D1*
X3204589Y4852493D1*
X3201163Y4849068D1*
X3199451Y4845643D1*
X3198594Y4842218D1*
Y4830229D1*
X3205445D1*
X3207443Y4831086D1*
X3209441D1*
X3211439Y4830229D1*
X3218289Y4829373D1*
X3221715Y4828517D1*
X3225140Y4826804D1*
X3227709Y4824235D1*
Y4823379D1*
X3228565Y4822523D1*
Y4817385D1*
X3227709Y4816529D1*
X3226852Y4814816D1*
Y4813960D1*
X3223427Y4812247D1*
X3220573Y4811391D1*
X3217719D1*
X3214864Y4812247D1*
X3212295Y4813103D1*
X3208870Y4814816D1*
X3207157Y4816529D1*
X3205445Y4817385D1*
Y4830229D1*
X3198594D1*
G37*
G36*
X3271380Y4855062D2*
X3267955Y4854206D1*
X3262817Y4852493D1*
X3261104Y4850781D1*
Y4843074D1*
X3262817Y4843930D1*
X3263673Y4844786D1*
X3268811Y4847355D1*
X3271380Y4848212D1*
X3274234Y4849068D1*
X3277089D1*
X3279943Y4848212D1*
X3283368Y4846499D1*
X3287650Y4842218D1*
Y4841361D1*
X3288506Y4839649D1*
X3289362Y4836223D1*
X3290219Y4835367D1*
Y4825092D1*
X3289362Y4824235D1*
X3288506Y4820810D1*
X3286793Y4817385D1*
Y4816529D1*
X3285081Y4814816D1*
X3283368Y4813960D1*
X3282512Y4813103D1*
X3279943Y4812247D1*
X3277089Y4811391D1*
X3274234D1*
X3271380Y4812247D1*
X3267955Y4813103D1*
X3264530Y4814816D1*
X3262817Y4816529D1*
X3261104Y4817385D1*
Y4809678D1*
X3261961Y4808822D1*
X3265386Y4807109D1*
X3267955Y4806253D1*
X3271380Y4805397D1*
X3279943D1*
X3283368Y4806253D1*
X3285937Y4807109D1*
X3291075Y4810535D1*
X3291931Y4811391D1*
X3295356Y4816529D1*
X3297069Y4821666D1*
X3297925Y4827660D1*
Y4832798D1*
X3297069Y4837936D1*
X3296213Y4841361D1*
X3294500Y4844786D1*
X3292787Y4847355D1*
X3288506Y4851637D1*
X3285081Y4853349D1*
X3279943Y4855062D1*
X3271380D1*
G37*
G36*
X3307344Y4848212D2*
X3306488Y4847355D1*
X3304776Y4843930D1*
X3303919Y4841361D1*
X3303063Y4835367D1*
Y4829373D1*
X3336459Y4828517D1*
Y4823379D1*
X3335602Y4822523D1*
X3334746Y4819954D1*
X3333890Y4818241D1*
Y4817385D1*
X3331321Y4814816D1*
X3327896Y4813103D1*
X3325327Y4812247D1*
X3321902Y4811391D1*
X3318476D1*
X3315051Y4812247D1*
X3309913Y4813960D1*
X3306488Y4815672D1*
X3305632Y4816529D1*
X3303919Y4817385D1*
Y4809678D1*
X3304776Y4808822D1*
X3309057Y4807109D1*
X3311626Y4806253D1*
X3315907Y4805397D1*
X3325327D1*
X3328752Y4806253D1*
X3331321Y4807109D1*
X3334746Y4808822D1*
X3339884Y4813960D1*
X3341596Y4816529D1*
X3343309Y4821666D1*
X3344165Y4825948D1*
Y4833655D1*
X3343309Y4837936D1*
X3342453Y4841361D1*
X3340740Y4844786D1*
X3339028Y4847355D1*
X3334746Y4851637D1*
X3329608Y4854206D1*
X3326183Y4855062D1*
X3318476D1*
X3315051Y4854206D1*
X3311626Y4852493D1*
X3309057Y4850781D1*
X3307344Y4848212D1*
X3318476D1*
X3321331Y4849068D1*
X3324185D1*
X3327039Y4848212D1*
X3329608Y4847355D1*
X3330465Y4846499D1*
X3332177Y4845643D1*
X3332867Y4844537D1*
X3333033Y4843930D1*
X3334746Y4841361D1*
X3335602Y4839649D1*
X3336459Y4838792D1*
Y4835367D1*
X3327610Y4834511D1*
X3318762D1*
X3309913Y4835367D1*
X3310770Y4836223D1*
X3311626Y4841361D1*
X3313339Y4844786D1*
X3315907Y4847355D1*
X3318476Y4848212D1*
X3307344D1*
G37*
G36*
X3353585Y4847355D2*
X3352728Y4846499D1*
X3351872Y4844786D1*
X3351016Y4842218D1*
X3350159Y4838792D1*
Y4823379D1*
X3351872Y4818241D1*
X3354441Y4813103D1*
X3358722Y4808822D1*
X3361291Y4807109D1*
X3363004Y4806253D1*
X3366429Y4805397D1*
X3374136D1*
X3379274Y4807109D1*
X3380190Y4807621D1*
X3380934Y4807566D1*
X3381843Y4807109D1*
Y4788271D1*
X3389549D1*
Y4853349D1*
X3381843D1*
Y4849924D1*
X3380935Y4848994D1*
X3380491Y4849133D1*
X3380130Y4849924D1*
X3379274Y4850781D1*
X3376705Y4852493D1*
X3373280Y4854206D1*
X3370711Y4855062D1*
X3363860D1*
X3360435Y4854206D1*
X3358722Y4853349D1*
X3353585Y4848212D1*
Y4847355D1*
X3364717D1*
X3367571Y4848212D1*
X3370425D1*
X3373280Y4847355D1*
X3375848Y4846499D1*
X3377561Y4845643D1*
X3378417Y4844786D1*
X3380130Y4843930D1*
X3381843Y4842218D1*
Y4815672D1*
X3380986Y4814816D1*
X3379274Y4813960D1*
X3376705Y4813103D1*
X3373280Y4812247D1*
X3369854D1*
X3366429Y4813103D1*
X3363004Y4814816D1*
X3360435Y4817385D1*
Y4818241D1*
X3358722Y4821666D1*
X3357866Y4825948D1*
X3357010Y4826804D1*
Y4834511D1*
X3357866Y4835367D1*
X3358722Y4839649D1*
X3359579Y4842218D1*
Y4843074D1*
X3363004Y4846499D1*
X3364717Y4847355D1*
X3353585D1*
G37*
G36*
X3409244Y4855062D2*
X3404963Y4854206D1*
X3402394Y4853349D1*
X3400681Y4852493D1*
X3399825Y4851637D1*
Y4843930D1*
X3400681Y4844786D1*
X3405819Y4847355D1*
X3409244Y4848212D1*
X3412384Y4849068D1*
X3415524D1*
X3418663Y4848212D1*
X3422089Y4846499D1*
X3423801Y4844786D1*
Y4838792D1*
X3421232Y4836223D1*
X3416094Y4834511D1*
X3411813Y4833655D1*
X3408388Y4832798D1*
X3405819Y4831942D1*
X3402394Y4830229D1*
X3398969Y4826804D1*
X3398112Y4824235D1*
Y4815672D1*
X3399825Y4812247D1*
X3403250Y4808822D1*
X3405819Y4807109D1*
X3410957Y4805397D1*
X3421232D1*
X3424657Y4806253D1*
X3429795Y4807966D1*
X3431508Y4808822D1*
Y4817385D1*
X3430652Y4816529D1*
X3423801Y4813103D1*
X3420376Y4812247D1*
X3417236Y4811391D1*
X3414096D1*
X3410957Y4812247D1*
X3408388Y4813103D1*
X3405819Y4815672D1*
Y4816529D1*
X3404963Y4817385D1*
Y4820810D1*
X3405819Y4821666D1*
X3405985Y4822273D1*
X3406675Y4823379D1*
X3410100Y4825092D1*
X3412669Y4825948D1*
X3416951Y4826804D1*
X3420376Y4827660D1*
X3422945Y4828517D1*
X3426370Y4830229D1*
X3429795Y4833655D1*
X3430652Y4835367D1*
X3431508Y4837936D1*
Y4843930D1*
X3430652Y4846499D1*
X3429795Y4848212D1*
X3426370Y4851637D1*
X3423801Y4853349D1*
X3418663Y4855062D1*
X3409244D1*
G37*
G36*
X1700071Y4853349D2*
Y4806253D1*
X1706921D1*
Y4853349D1*
X1700071D1*
G37*
G36*
X2180455D2*
X2181311Y4852493D1*
Y4850781D1*
X2182167Y4849068D1*
X2183024Y4846499D1*
X2183880Y4844786D1*
X2185593Y4839649D1*
X2186449Y4837936D1*
X2187305Y4835367D1*
X2188161Y4833655D1*
X2189018Y4831086D1*
X2189874Y4829373D1*
X2190730Y4826804D1*
X2191587Y4825092D1*
X2193299Y4819954D1*
X2194156Y4818241D1*
X2195012Y4815672D1*
X2195868Y4813960D1*
X2196724Y4811391D1*
X2197581Y4809678D1*
X2199293Y4804540D1*
X2200150Y4802828D1*
X2201006Y4800259D1*
X2201862Y4798546D1*
X2202719Y4795977D1*
X2203575Y4794265D1*
X2205287Y4789127D1*
X2206144Y4788271D1*
X2213850D1*
X2212994Y4790840D1*
X2211282Y4794265D1*
X2210425Y4796834D1*
X2208713Y4800259D1*
X2207856Y4802828D1*
X2206144Y4806253D1*
X2205287Y4807109D1*
Y4808822D1*
X2206144Y4809678D1*
X2207000Y4812247D1*
X2207856Y4813960D1*
X2208713Y4816529D1*
X2209569Y4818241D1*
X2211282Y4823379D1*
X2212138Y4825092D1*
X2213850Y4830229D1*
X2214707Y4831942D1*
X2216419Y4837080D1*
X2217276Y4838792D1*
X2218132Y4841361D1*
X2218988Y4843074D1*
X2220701Y4848212D1*
X2221557Y4849924D1*
X2222413Y4852493D1*
Y4853349D1*
X2214707D1*
X2213850Y4851637D1*
X2212138Y4846499D1*
X2211282Y4844786D1*
X2208713Y4837080D1*
X2207856Y4835367D1*
X2205287Y4827660D1*
X2204431Y4825948D1*
X2202719Y4820810D1*
X2202287Y4819952D1*
X2201790Y4819057D1*
X2200953Y4818165D1*
X2200512Y4818306D1*
X2200150Y4819097D1*
Y4820810D1*
X2198437Y4825948D1*
X2197581Y4827660D1*
X2195012Y4835367D1*
X2194156Y4837080D1*
X2191587Y4844786D1*
X2190730Y4846499D1*
X2189018Y4851637D1*
X2188161Y4853349D1*
X2180455D1*
G37*
G36*
X2385967D2*
Y4845643D1*
X2394530Y4844786D1*
X2397098Y4843930D1*
X2400524Y4842218D1*
X2403093Y4839649D1*
Y4806253D1*
X2410799D1*
Y4853349D1*
X2403093D1*
Y4847355D1*
X2402185Y4846425D1*
X2401741Y4846564D1*
X2401380Y4847355D1*
X2398811Y4849924D1*
X2393673Y4852493D1*
X2391104Y4853349D1*
X2385967D1*
G37*
G36*
X2594904D2*
Y4806253D1*
X2601754D1*
Y4853349D1*
X2594904D1*
G37*
G36*
X3245691D2*
Y4806253D1*
X3252541D1*
Y4853349D1*
X3245691D1*
G37*
X5426529Y2075320D2*
D113*
X5422682Y2077266D1*
X5416934Y2082969D1*
Y2042822D1*
X5402637Y2073419D2*
Y2075320D1*
X5400736Y2079167D1*
X5398835Y2081068D1*
X5394988Y2082969D1*
X5387339D1*
X5383536Y2081068D1*
X5381635Y2079167D1*
X5379689Y2075320D1*
Y2071518D1*
X5381635Y2067671D1*
X5385437Y2061967D1*
X5404583Y2042822D1*
X5377788D1*
X5365437Y2062896D2*
X5343329D1*
X5329032Y2073419D2*
Y2075320D1*
X5327131Y2079167D1*
X5325229Y2081068D1*
X5321383Y2082969D1*
X5313733D1*
X5309931Y2081068D1*
X5308030Y2079167D1*
X5306084Y2075320D1*
Y2071518D1*
X5308030Y2067671D1*
X5311832Y2061967D1*
X5330977Y2042822D1*
X5304183D1*
X5272686D2*
Y2082969D1*
X5291831Y2056219D1*
X5263135D1*
X5250784Y2083014D2*
X5235485Y2042822D1*
X5220187Y2083014D1*
X5343265Y2552795D2*
X5345166Y2556598D1*
X5349013Y2560444D1*
X5352815Y2562346D1*
X5360465D1*
X5364311Y2560444D1*
X5368114Y2556598D1*
X5370059Y2552795D1*
X5371961Y2547047D1*
Y2537452D1*
X5370059Y2531748D1*
X5368114Y2527902D1*
X5364311Y2524099D1*
X5360465Y2522154D1*
X5352815D1*
X5349013Y2524099D1*
X5345166Y2527902D1*
X5343265Y2531748D1*
Y2537452D1*
X5352815D1*
X5330913Y2548948D2*
Y2522154D1*
Y2541299D2*
X5325165Y2547047D1*
X5321319Y2548948D1*
X5315615D1*
X5311768Y2547047D1*
X5309867Y2541299D1*
Y2522154D1*
X5274567Y2562346D2*
Y2522154D1*
Y2543200D2*
X5278370Y2547047D1*
X5282217Y2548948D1*
X5287965D1*
X5291767Y2547047D1*
X5295614Y2543200D1*
X5297515Y2537452D1*
Y2533650D1*
X5295614Y2527902D1*
X5291767Y2524099D1*
X5287965Y2522154D1*
X5282217D1*
X5278370Y2524099D1*
X5274567Y2527902D1*
X5409137Y2145943D2*
X5393838Y2105751D1*
X5378539Y2145943D1*
X5335591Y2105751D2*
Y2145943D1*
X5350889Y2105751D1*
X5366188Y2145943D1*
Y2105751D1*
X5313689Y2132545D2*
X5317491Y2130644D1*
X5321338Y2126797D1*
X5323239Y2121049D1*
Y2117247D1*
X5321338Y2111499D1*
X5317491Y2107696D1*
X5313689Y2105751D1*
X5307941D1*
X5304094Y2107696D1*
X5300291Y2111499D1*
X5298346Y2117247D1*
Y2121049D1*
X5300291Y2126797D1*
X5304094Y2130644D1*
X5307941Y2132545D1*
X5313689D1*
X5280247Y2145943D2*
Y2113400D1*
X5278345Y2107696D1*
X5274499Y2105751D1*
X5270696D1*
X5285995Y2132545D2*
X5272597D1*
M02*
