M48
INCH
T01C0.013
T02C0.0191
T03C0.0354
T04C0.0394
T05C0.0433
T06C0.0472
T07C0.063
T08C0.1378
T09C0.14
%
T01
X+035247Y+030358
X+035507Y+030358
X+035767Y+030358
X+035767Y+029968
X+035507Y+029968
X+035247Y+029968
X+035247Y+029578
X+035507Y+029578
X+035767Y+029578
X+037723Y+033481
X+037723Y+033871
T02
X+004937Y+043875
X+004937Y+044312
X+006437Y+042562
X+007437Y+042562
X+008437Y+042312
X+009437Y+042749
X+010187Y+043124
X+011124Y+044249
X+012124Y+043874
X+011937Y+042749
X+011015Y+041624
X+013937Y+043499
X+013937Y+045374
X+012874Y+045749
X+014937Y+046499
X+015937Y+044624
X+017124Y+043499
X+017499Y+043874
X+017937Y+044249
X+018624Y+043124
X+019687Y+043124
X+020562Y+043499
X+020999Y+042312
X+020046Y+041971
X+019062Y+041624
X+022437Y+042749
X+021937Y+043937
X+023937Y+044624
X+024937Y+044999
X+025999Y+043499
X+026937Y+043124
X+028062Y+041124
X+031937Y+041624
X+033437Y+041999
X+034374Y+042374
X+035437Y+042749
X+036437Y+045374
X+037874Y+045749
X+038937Y+046126
X+039874Y+046499
X+040874Y+041124
X+044812Y+041624
X+045937Y+041999
X+047437Y+042374
X+048437Y+042749
X+048937Y+041624
X+049999Y+041999
X+051374Y+042374
X+052499Y+042812
X+052937Y+041124
X+048401Y+037312
X+047401Y+037687
X+046374Y+038062
X+045437Y+038437
X+045874Y+033562
X+044937Y+032187
X+045000Y+031562
X+044249Y+030937
X+043624Y+031562
X+045062Y+029187
X+046874Y+029874
X+048499Y+031249
X+051812Y+028562
X+049312Y+025812
X+049687Y+025437
X+048562Y+025062
X+048187Y+024687
X+047562Y+025062
X+046874Y+023624
X+046187Y+024187
X+045375Y+025437
X+046250Y+022624
X+046250Y+022062
X+046562Y+021624
X+048562Y+023062
X+049812Y+023812
X+050250Y+023812
X+050687Y+023812
X+050750Y+019687
X+050750Y+019125
X+050750Y+018562
X+049749Y+018562
X+049749Y+019125
X+049749Y+019687
X+055187Y+019375
X+055624Y+019375
X+055624Y+018937
X+055187Y+018937
X+055187Y+018500
X+055624Y+018500
X+055624Y+018062
X+055187Y+018062
X+055187Y+017625
X+055624Y+017625
X+053687Y+010312
X+042437Y+018625
X+042437Y+019187
X+042437Y+019749
X+041437Y+019749
X+041437Y+019187
X+041437Y+018625
X+039374Y+021937
X+038624Y+022312
X+038187Y+022687
X+037812Y+023062
X+035375Y+023875
X+034937Y+023875
X+034500Y+023875
X+034124Y+025062
X+032874Y+024687
X+033249Y+023562
X+031312Y+024187
X+031000Y+023062
X+031312Y+022562
X+031437Y+022062
X+031374Y+021499
X+033687Y+021562
X+034437Y+019749
X+034437Y+019187
X+034437Y+018625
X+035437Y+018625
X+035437Y+019187
X+035437Y+019749
X+031062Y+025437
X+030562Y+025812
X+029937Y+025812
X+031250Y+026937
X+034562Y+027562
X+039750Y+026187
X+041500Y+023875
X+041937Y+023875
X+042374Y+023875
X+042687Y+022687
X+043312Y+022312
X+043312Y+023062
X+028312Y+023062
X+027687Y+022687
X+028187Y+022312
X+026874Y+023875
X+026437Y+023875
X+025999Y+023875
X+023374Y+021937
X+022437Y+022312
X+022062Y+022687
X+021687Y+023062
X+020562Y+024437
X+019937Y+025187
X+018937Y+024812
X+018937Y+023875
X+018500Y+023875
X+019374Y+023875
X+017499Y+024437
X+016937Y+025187
X+015937Y+025812
X+014961Y+025624
X+016062Y+024187
X+015312Y+023249
X+015437Y+022562
X+015374Y+021687
X+013187Y+022062
X+012687Y+022562
X+013312Y+023062
X+012375Y+024687
X+011437Y+024999
X+010874Y+023875
X+010437Y+023875
X+009999Y+023875
X+009499Y+025624
X+008249Y+023062
X+008624Y+022562
X+008999Y+022062
X+009374Y+021687
X+009937Y+019749
X+009937Y+019187
X+009937Y+018562
X+010937Y+018625
X+010937Y+019187
X+010937Y+019749
X+006187Y+016437
X+005999Y+015437
X+005499Y+013437
X+006062Y+012437
X+018437Y+018625
X+018437Y+019187
X+018437Y+019749
X+019437Y+019749
X+019437Y+019187
X+019437Y+018625
X+017937Y+021562
X+017562Y+023062
X+021937Y+026187
X+022687Y+024937
X+020937Y+028812
X+021437Y+031687
X+022437Y+034187
X+020437Y+034812
X+019499Y+034812
X+018437Y+034812
X+017437Y+034812
X+013625Y+033562
X+011687Y+034062
X+011319Y+035749
X+009874Y+035749
X+009625Y+034062
X+009812Y+033249
X+009875Y+032687
X+008937Y+032283
X+009562Y+031687
X+010925Y+032283
X+013437Y+031312
X+011687Y+029437
X+008562Y+029999
X+008156Y+032968
X+008312Y+033562
X+006874Y+034062
X+008187Y+035312
X+005374Y+035312
X+009937Y+044999
X+008937Y+046126
X+015437Y+029437
X+029358Y+030454
X+029187Y+032750
X+029624Y+032750
X+029624Y+033375
X+029187Y+033375
X+033562Y+034875
X+045062Y+043937
X+026937Y+019749
X+026937Y+019187
X+026937Y+018625
X+025937Y+018625
X+025937Y+019187
X+025937Y+019749
T03
X+004437Y+037937
X+005437Y+037937
X+005437Y+036937
X+004437Y+036937
X+006437Y+036937
X+006437Y+037937
X+007437Y+037937
X+008437Y+037937
X+008437Y+036937
X+007437Y+036937
X+009437Y+036937
X+009437Y+037937
X+010437Y+037937
X+011437Y+037937
X+011437Y+036937
X+010437Y+036937
X+012437Y+036937
X+012437Y+037937
X+013437Y+037937
X+014437Y+037937
X+014437Y+036937
X+013437Y+036937
X+015437Y+036937
X+015437Y+037937
X+016437Y+037937
X+017437Y+037937
X+017437Y+036937
X+016437Y+036937
X+018437Y+036937
X+018437Y+037937
X+019437Y+037937
X+020437Y+037937
X+020437Y+036937
X+019437Y+036937
X+021437Y+036937
X+021437Y+037937
X+022437Y+037937
X+022437Y+036937
X+022437Y+039937
X+021437Y+039937
X+020437Y+039937
X+019437Y+039937
X+018437Y+039937
X+016437Y+039937
X+015437Y+039937
X+014437Y+039937
X+013437Y+039937
X+012437Y+039937
X+011437Y+039937
X+010437Y+039937
X+009437Y+039937
X+008437Y+039937
X+007437Y+039937
X+006437Y+039937
X+005437Y+039937
X+015512Y+034063
X+015512Y+033063
X+016512Y+033063
X+016512Y+034063
X+017512Y+034063
X+017512Y+033063
X+018512Y+033063
X+018512Y+034063
X+019512Y+034063
X+019512Y+033063
X+020512Y+033063
X+020512Y+034063
X+020437Y+027937
X+019437Y+027937
X+018437Y+027937
X+018437Y+026937
X+019437Y+026937
X+020437Y+026937
X+021437Y+026937
X+021437Y+027937
X+022437Y+027937
X+022437Y+026937
X+017437Y+026937
X+016437Y+026937
X+015437Y+026937
X+015437Y+027937
X+016437Y+027937
X+017437Y+027937
X+014437Y+027937
X+013437Y+027937
X+012437Y+027937
X+012437Y+026937
X+013437Y+026937
X+014437Y+026937
X+011437Y+026937
X+010437Y+026937
X+009437Y+026937
X+009437Y+027937
X+010437Y+027937
X+011437Y+027937
X+008437Y+027937
X+007437Y+027937
X+006437Y+027937
X+006437Y+026937
X+007437Y+026937
X+008437Y+026937
X+005437Y+026937
X+005437Y+027937
X+004437Y+027937
X+004437Y+026937
X+005437Y+023187
X+006437Y+023187
X+007437Y+023187
X+007437Y+022187
X+007437Y+021187
X+006437Y+021187
X+006437Y+022187
X+005437Y+022187
X+005437Y+021187
X+007437Y+017437
X+007437Y+016437
X+007437Y+015437
X+007437Y+014437
X+007437Y+013437
X+007437Y+012437
X+007437Y+011437
X+007437Y+010437
X+005062Y+010249
X+005062Y+009249
X+005062Y+011249
X+008437Y+017437
X+009437Y+017437
X+012437Y+017437
X+012437Y+016437
X+012437Y+015437
X+012437Y+014437
X+012437Y+013437
X+012437Y+012437
X+012437Y+011437
X+012437Y+010437
X+015437Y+010437
X+015437Y+011437
X+015437Y+012437
X+015437Y+013437
X+015437Y+014437
X+015437Y+015437
X+015437Y+016437
X+015437Y+017437
X+016437Y+017437
X+017437Y+017437
X+020437Y+017437
X+020437Y+016437
X+020437Y+015437
X+020437Y+014437
X+020437Y+013437
X+020437Y+012437
X+020437Y+011437
X+020437Y+010437
X+023437Y+010437
X+023437Y+011437
X+023437Y+012437
X+023437Y+013437
X+023437Y+014437
X+023437Y+015437
X+023437Y+016437
X+023437Y+017437
X+024437Y+017437
X+025437Y+017437
X+028437Y+017437
X+028437Y+016437
X+028437Y+015437
X+028437Y+014437
X+028437Y+013437
X+028437Y+012437
X+028437Y+011437
X+028437Y+010437
X+031437Y+010437
X+031437Y+011437
X+031437Y+012437
X+031437Y+013437
X+031437Y+014437
X+031437Y+015437
X+031437Y+016437
X+031437Y+017437
X+032437Y+017437
X+033437Y+017437
X+036437Y+017437
X+036437Y+016437
X+036437Y+015437
X+036437Y+014437
X+036437Y+013437
X+036437Y+012437
X+036437Y+011437
X+036437Y+010437
X+039437Y+010437
X+039437Y+011437
X+039437Y+012437
X+039437Y+013437
X+039437Y+014437
X+039437Y+015437
X+039437Y+016437
X+039437Y+017437
X+040437Y+017437
X+041437Y+017437
X+044437Y+017437
X+044437Y+016437
X+044437Y+015437
X+044437Y+014437
X+044437Y+013437
X+044437Y+012437
X+044437Y+011437
X+044437Y+010437
X+047437Y+010437
X+047437Y+011437
X+047437Y+012437
X+047437Y+013437
X+047437Y+014437
X+047437Y+015437
X+047437Y+016437
X+047437Y+017437
X+048437Y+017437
X+049437Y+017437
X+052437Y+017437
X+052437Y+016437
X+052437Y+015437
X+052437Y+014437
X+052437Y+013437
X+052437Y+012437
X+052437Y+011437
X+052437Y+010437
X+040437Y+026937
X+040437Y+027937
X+040437Y+028937
X+040437Y+029937
X+040437Y+030937
X+040437Y+031937
X+040437Y+032937
X+040437Y+033937
X+040437Y+034937
X+040437Y+035937
X+040437Y+036937
X+040437Y+037937
X+040437Y+039937
X+041437Y+039937
X+042437Y+039937
X+044401Y+039937
X+045401Y+039937
X+046401Y+039937
X+047401Y+039937
X+048401Y+039937
X+049401Y+039937
X+050401Y+039937
X+051401Y+039937
X+052401Y+039937
X+053401Y+039937
X+054401Y+039937
X+055401Y+039937
X+052437Y+044937
X+052437Y+045937
X+051437Y+045937
X+050437Y+045937
X+050437Y+044937
X+049437Y+044937
X+049437Y+045937
X+048437Y+045937
X+048437Y+044937
X+051437Y+044937
X+039437Y+039937
X+038437Y+039937
X+037437Y+039937
X+036437Y+039937
X+035437Y+039937
X+034437Y+039937
X+033437Y+039937
X+032437Y+039937
X+031437Y+039937
X+029437Y+039937
X+028437Y+039937
X+027437Y+039937
X+026437Y+039937
X+025437Y+039937
X+024437Y+039937
X+023437Y+039937
T04
X+004626Y+034228
X+004626Y+031079
T05
X+054687Y+014687
X+054687Y+013687
X+054687Y+012687
X+030937Y+027562
X+029937Y+027562
X+028937Y+027562
X+005062Y+019124
X+005062Y+018124
X+005062Y+017124
T06
X+007937Y+006937
X+009315Y+006937
X+010693Y+006937
X+012071Y+006937
X+015937Y+006937
X+017315Y+006937
X+018693Y+006937
X+020071Y+006937
X+023937Y+006937
X+025315Y+006937
X+026693Y+006937
X+028071Y+006937
X+031937Y+006937
X+033315Y+006937
X+034693Y+006937
X+036071Y+006937
X+039937Y+006937
X+041315Y+006937
X+042693Y+006937
X+044071Y+006937
X+047937Y+006937
X+049315Y+006937
X+050693Y+006937
X+052071Y+006937
T07
X+054437Y+021999
X+054437Y+023968
T08
X+006016Y+051354
X+019016Y+051354
X+032016Y+051354
X+044980Y+051354
X+051854Y+037358
T09
X+055315Y+005315
X+055315Y+054528
X+005315Y+054528
X+005315Y+005315
T00
M30
