G04 DipTrace 4.0.0.2*
G04 TopPaste.gbr*
%MOIN*%
G04 #@! TF.FileFunction,Paste,Top*
G04 #@! TF.Part,Single*
%AMOUTLINE2*
4,1,28,
0.052297,-0.027496,
-0.052297,-0.027496,
-0.05396,-0.027277,
-0.055266,-0.026736,
-0.056388,-0.025876,
-0.057248,-0.024754,
-0.057789,-0.023449,
-0.058008,-0.021785,
-0.058008,0.021785,
-0.057789,0.023449,
-0.057248,0.024754,
-0.056388,0.025876,
-0.055266,0.026736,
-0.05396,0.027277,
-0.052297,0.027496,
0.052297,0.027496,
0.05396,0.027277,
0.055266,0.026736,
0.056388,0.025876,
0.057248,0.024754,
0.057789,0.023449,
0.058008,0.021785,
0.058008,-0.021785,
0.057789,-0.023449,
0.057248,-0.024754,
0.056388,-0.025876,
0.055266,-0.026736,
0.05396,-0.027277,
0.052297,-0.027496,
0*%
%ADD66R,0.07074X0.015622*%
%ADD68R,0.09515X0.130189*%
%ADD70R,0.054992X0.016016*%
%ADD80R,0.047118X0.023496*%
%ADD82R,0.047118X0.039244*%
%ADD84R,0.07074X0.039244*%
%ADD86R,0.043181X0.019559*%
%ADD88R,0.051055X0.043181*%
%ADD92R,0.129795X0.08452*%
%ADD102R,0.090425X0.058929*%
%ADD104R,0.058929X0.090425*%
%ADD106R,0.074677X0.169165*%
%ADD108R,0.054992X0.062866*%
%ADD110R,0.043181X0.051055*%
%ADD112R,0.062866X0.054992*%
%ADD119OUTLINE2*%
%FSLAX26Y26*%
G04*
G70*
G90*
G75*
G01*
G04 TopPaste*
%LPD*%
D112*
X2243700Y3470964D3*
Y3581200D3*
X3745745Y3139842D3*
Y3029606D3*
D110*
X3583745Y3146842D3*
X3658548D3*
X3368745Y2970842D3*
X3293941D3*
D112*
X3712511Y3372863D3*
Y3483099D3*
D110*
X1531200Y2368700D3*
X1606003D3*
X4543700D3*
X4618503D3*
D119*
X3133906Y3306199D3*
X2940993D3*
D108*
X2936923Y3101608D3*
X3047159D3*
D110*
X3056200Y2368700D3*
X3131003D3*
X4712352Y3362451D3*
X4637549D3*
D106*
X1043700Y1918700D3*
Y2273031D3*
X1893700Y1918700D3*
Y2273031D3*
X2643700Y1918700D3*
Y2273031D3*
X3493700Y1918700D3*
Y2273031D3*
X4193700Y1918700D3*
Y2273031D3*
X5024951Y1918700D3*
Y2273031D3*
D110*
X1156200Y2387449D3*
X1231003D3*
X2006200Y2387451D3*
X2081003D3*
X2756200D3*
X2831003D3*
X3606200D3*
X3681003D3*
X4306200D3*
X4381003D3*
X3062449Y2662451D3*
X2987646D3*
D104*
X493701Y4143700D3*
X493698Y4301180D3*
D102*
X3583745Y3263842D3*
X3741225D3*
D92*
X3356298Y3179133D3*
Y3417322D3*
D88*
X3745745Y2879842D3*
Y2954645D3*
D110*
X3368745Y2879842D3*
X3293941D3*
X3290745Y2788842D3*
X3365548D3*
D88*
X3446745D3*
Y2863645D3*
X1743700Y3512548D3*
Y3587351D3*
X1840550Y3515747D3*
Y3590550D3*
X1942567Y3515747D3*
Y3590550D3*
X2043701Y3518798D3*
X2043699Y3593602D3*
D86*
X893700Y3143700D3*
Y3187007D3*
Y3230314D3*
Y3273621D3*
Y3316928D3*
Y3360235D3*
Y3403543D3*
Y3446850D3*
Y3490157D3*
D84*
X478346Y2955511D3*
D82*
X860235D3*
D80*
Y3533464D3*
D84*
X478346D3*
D70*
X3443789Y3072894D3*
Y3022894D3*
Y2972894D3*
Y2922894D3*
X3656388D3*
Y2972894D3*
Y3022894D3*
Y3072894D3*
D68*
X3550088Y2997894D3*
D66*
X1393700Y2306200D3*
Y2256200D3*
Y2206200D3*
Y2156200D3*
Y2106200D3*
Y2056200D3*
Y2006200D3*
Y1956200D3*
X1606298D3*
Y2006200D3*
Y2056200D3*
Y2106200D3*
Y2156200D3*
Y2206200D3*
Y2256200D3*
Y2306200D3*
X4518700D3*
Y2256200D3*
Y2206200D3*
Y2156200D3*
Y2106200D3*
Y2056200D3*
Y2006200D3*
Y1956200D3*
X4731298D3*
Y2006200D3*
Y2056200D3*
Y2106200D3*
Y2156200D3*
Y2206200D3*
Y2256200D3*
Y2306200D3*
X2993700D3*
Y2256200D3*
Y2206200D3*
Y2156200D3*
Y2106200D3*
Y2056200D3*
Y2006200D3*
Y1956200D3*
X3206298D3*
Y2006200D3*
Y2056200D3*
Y2106200D3*
Y2156200D3*
Y2206200D3*
Y2256200D3*
Y2306200D3*
X4581150Y3274949D3*
Y3224949D3*
Y3174949D3*
Y3124949D3*
Y3074949D3*
Y3024949D3*
Y2974949D3*
Y2924949D3*
X4793749D3*
Y2974949D3*
Y3024949D3*
Y3074949D3*
Y3124949D3*
Y3174949D3*
Y3224949D3*
Y3274949D3*
M02*
