G04 DipTrace 4.0.0.2*
G04 BottomSilk.gbr*
%MOIN*%
G04 #@! TF.FileFunction,Legend,Bot*
G04 #@! TF.Part,Single*
%ADD10C,0.009843*%
%FSLAX26Y26*%
G04*
G70*
G90*
G75*
G01*
G04 BotSilk*
%LPD*%
X700249Y750249D2*
D10*
Y687751D1*
X662751Y681500D2*
X731500D1*
X681500Y662751D2*
X719000D1*
X694000Y644000D2*
X706500D1*
X1194000Y756500D2*
Y694000D1*
X1156500Y687751D2*
X1225249D1*
X1175251Y669000D2*
X1212749D1*
X1187751Y650251D2*
X1200251D1*
X1125249Y1175249D2*
Y1112751D1*
X1087751Y1106500D2*
X1156500D1*
X1106500Y1087751D2*
X1144000D1*
X1119000Y1069000D2*
X1131500D1*
X637749Y1175249D2*
Y1112751D1*
X600251Y1106500D2*
X669000D1*
X619000Y1087751D2*
X656500D1*
X631500Y1069000D2*
X644000D1*
G36*
X1586954Y1547567D2*
X1587742Y1548355D1*
X1589316Y1550717D1*
X1590891Y1553866D1*
X1591679Y1557803D1*
Y1560166D1*
X1590891Y1563315D1*
X1589316Y1566465D1*
X1586167Y1569615D1*
X1583805Y1571189D1*
X1579080Y1572764D1*
X1575143Y1573552D1*
X1567269D1*
X1563332Y1572764D1*
X1560970Y1571977D1*
X1556246Y1569615D1*
X1552309Y1565678D1*
X1549946Y1560953D1*
Y1552292D1*
X1551521Y1549142D1*
X1552156Y1548125D1*
X1552309Y1547567D1*
X1550734Y1546780D1*
Y1540481D1*
X1587742Y1539693D1*
Y1531032D1*
X1586954Y1530244D1*
X1584592Y1529457D1*
X1581442Y1528670D1*
X1575143Y1527882D1*
X1571731Y1527095D1*
X1568319D1*
X1564907Y1527882D1*
X1559395Y1528670D1*
X1556246Y1529457D1*
X1554671Y1530244D1*
X1552309Y1531032D1*
X1550734Y1531819D1*
X1549946Y1532607D1*
X1547584Y1534181D1*
X1546009Y1534969D1*
X1542860Y1538118D1*
Y1538906D1*
X1541285Y1541268D1*
X1540498Y1542843D1*
X1538923Y1547567D1*
X1538135Y1548355D1*
Y1561740D1*
X1538923Y1562528D1*
X1540498Y1567252D1*
X1541285Y1568827D1*
X1543647Y1571977D1*
Y1572764D1*
X1547584Y1576701D1*
X1549159Y1577489D1*
X1551521Y1579063D1*
X1552309Y1579851D1*
X1555458Y1581426D1*
X1560183Y1583000D1*
X1563332Y1583788D1*
X1568057Y1584575D1*
X1572781D1*
X1577505Y1583788D1*
X1581442Y1583000D1*
X1583805Y1582213D1*
X1590104Y1579063D1*
X1590891Y1578276D1*
X1592466Y1577489D1*
X1597191Y1572764D1*
Y1571977D1*
X1598765Y1569615D1*
X1600340Y1566465D1*
X1601128Y1564103D1*
X1601915Y1559378D1*
X1602702Y1558591D1*
Y1550717D1*
X1601915Y1549929D1*
X1601128Y1543630D1*
Y1541268D1*
X1605852D1*
X1606639Y1544418D1*
X1607427Y1552292D1*
Y1557016D1*
X1606639Y1563315D1*
X1605852Y1566465D1*
X1605065Y1568040D1*
X1604277Y1570402D1*
X1603490Y1571977D1*
X1600340Y1576701D1*
X1594041Y1583000D1*
X1591679Y1584575D1*
X1585379Y1587725D1*
X1583017Y1588512D1*
X1579868Y1589300D1*
X1574356Y1590087D1*
X1565694D1*
X1560970Y1589300D1*
X1553883Y1586937D1*
X1550734Y1585363D1*
X1548372Y1583788D1*
X1545222Y1581426D1*
X1540498Y1576701D1*
X1538135Y1573552D1*
X1534986Y1567252D1*
X1534198Y1564890D1*
X1533411Y1561740D1*
Y1548355D1*
X1534198Y1545205D1*
X1535773Y1540481D1*
X1536561Y1538906D1*
X1539710Y1534181D1*
X1543647Y1530244D1*
X1548372Y1527095D1*
X1553096Y1524733D1*
X1555458Y1523945D1*
X1558608Y1523158D1*
X1562545Y1522370D1*
X1576718D1*
X1583017Y1523945D1*
X1586954Y1525520D1*
X1590104Y1527095D1*
X1591679Y1528670D1*
Y1545205D1*
X1590891Y1545992D1*
X1586954Y1547567D1*
X1581442D1*
X1573306Y1546780D1*
X1565170D1*
X1557033Y1547567D1*
Y1548355D1*
X1556246Y1550717D1*
X1555458Y1551504D1*
Y1559378D1*
X1556246Y1560166D1*
Y1560953D1*
X1559395Y1564103D1*
X1560970Y1564890D1*
X1563332Y1565678D1*
X1568057Y1566465D1*
X1569894Y1567252D1*
X1571731D1*
X1573568Y1566465D1*
X1579080Y1565678D1*
X1581442Y1564890D1*
X1582230Y1564103D1*
X1583805Y1563315D1*
X1584439Y1562299D1*
X1584592Y1561740D1*
X1585379Y1559378D1*
X1586167Y1558591D1*
Y1555441D1*
X1585379Y1554654D1*
X1584592Y1552292D1*
X1583805Y1550717D1*
X1581442Y1547567D1*
X1586954D1*
G37*
G36*
X1554671Y1501898D2*
X1553096Y1500323D1*
X1551521Y1497961D1*
X1549946Y1494811D1*
X1549159Y1492449D1*
Y1483788D1*
X1549946Y1481426D1*
X1550734Y1479851D1*
X1555458Y1475126D1*
X1560183Y1472764D1*
X1562545Y1471977D1*
X1566482Y1471189D1*
X1579868D1*
X1583017Y1471977D1*
X1587742Y1473552D1*
X1589316Y1474339D1*
X1591679Y1475914D1*
X1596403Y1480638D1*
X1598765Y1485363D1*
X1599553Y1489300D1*
Y1492449D1*
X1598765Y1496386D1*
X1597978Y1498748D1*
X1596797Y1501111D1*
X1596217Y1502116D1*
X1597191Y1502685D1*
X1597978Y1503473D1*
Y1509772D1*
X1597191Y1510559D1*
X1532624D1*
Y1502685D1*
X1554671Y1501898D1*
X1560183D1*
X1570419Y1502685D1*
X1580655D1*
X1590891Y1501898D1*
Y1501111D1*
X1591679Y1498748D1*
X1592466Y1495599D1*
X1593253Y1494811D1*
Y1490087D1*
X1592466Y1489300D1*
X1591679Y1486150D1*
Y1485363D1*
X1588529Y1482213D1*
X1583805Y1479851D1*
X1579080Y1479063D1*
X1575668Y1478276D1*
X1572256D1*
X1568844Y1479063D1*
X1562545Y1480638D1*
X1560183Y1481426D1*
X1557033Y1484575D1*
Y1485363D1*
X1556246Y1486150D1*
Y1494024D1*
X1557033Y1494811D1*
X1557820Y1497174D1*
X1558608Y1498748D1*
X1560183Y1501111D1*
Y1501898D1*
X1554671D1*
G37*
G36*
X1550734Y1462528D2*
Y1455441D1*
X1584592Y1454654D1*
X1587742Y1453866D1*
X1589316Y1453079D1*
X1591679Y1450717D1*
Y1449142D1*
X1592466Y1448355D1*
Y1444418D1*
X1591679Y1443630D1*
X1590891Y1440481D1*
X1589316Y1437331D1*
Y1436544D1*
X1586954Y1434181D1*
X1550734Y1433394D1*
Y1425520D1*
X1597191D1*
X1597978Y1426307D1*
Y1432607D1*
X1597191Y1433394D1*
X1594041Y1434969D1*
Y1435756D1*
X1596403Y1438118D1*
X1598765Y1442843D1*
X1599553Y1446780D1*
Y1449142D1*
X1598765Y1453079D1*
X1597191Y1456229D1*
X1593253Y1460166D1*
X1591679Y1460953D1*
X1589316Y1461740D1*
X1586167Y1462528D1*
X1550734D1*
G37*
G36*
X1534986Y1413709D2*
Y1405048D1*
X1542072D1*
X1542860Y1405835D1*
Y1413709D1*
X1534986D1*
G37*
G36*
X1550734Y1412922D2*
Y1405835D1*
X1597978D1*
Y1412922D1*
X1550734D1*
G37*
G36*
X1532624Y1393237D2*
Y1386150D1*
X1597978D1*
Y1393237D1*
X1532624D1*
G37*
G36*
X1553096Y1368827D2*
X1551521Y1367252D1*
X1549946Y1364103D1*
X1549159Y1361740D1*
Y1352292D1*
X1549946Y1349929D1*
X1551521Y1346780D1*
X1531836Y1345205D1*
Y1338118D1*
X1597978D1*
Y1345205D1*
X1593253Y1345992D1*
X1594828Y1347567D1*
X1596403Y1349929D1*
X1598765Y1354654D1*
X1599553Y1358591D1*
Y1360953D1*
X1598765Y1364890D1*
X1596403Y1369615D1*
X1593253Y1372764D1*
X1586954Y1375914D1*
X1583805Y1376701D1*
X1579080Y1377489D1*
X1569631D1*
X1565694Y1376701D1*
X1560970Y1375126D1*
X1559395Y1374339D1*
X1557033Y1372764D1*
X1553096Y1368827D1*
X1566482D1*
X1571731Y1369615D1*
X1576981D1*
X1582230Y1368827D1*
X1585379Y1368040D1*
X1588529Y1366465D1*
X1590891Y1364103D1*
Y1363315D1*
X1591679Y1360953D1*
X1592466Y1360166D1*
Y1356229D1*
X1591679Y1355441D1*
X1590891Y1352292D1*
X1589316Y1349142D1*
X1587742Y1346780D1*
Y1345992D1*
X1577768Y1345205D1*
X1567794D1*
X1557820Y1345992D1*
X1557033Y1346780D1*
Y1348355D1*
X1556246Y1349929D1*
X1555458Y1350717D1*
Y1360166D1*
X1556246Y1360953D1*
X1557033Y1362528D1*
Y1363315D1*
X1560183Y1366465D1*
X1563332Y1368040D1*
X1566482Y1368827D1*
X1553096D1*
G37*
G36*
X1532624Y1325520D2*
Y1318433D1*
X1597978D1*
Y1325520D1*
X1532624D1*
G37*
G36*
X1553096Y1301111D2*
X1551521Y1299536D1*
X1549946Y1296386D1*
X1549159Y1294024D1*
Y1283788D1*
X1550734Y1279063D1*
X1552309Y1276701D1*
X1556246Y1272764D1*
X1558608Y1271189D1*
X1561757Y1269615D1*
X1564120Y1268827D1*
X1568057Y1268040D1*
X1579868D1*
X1583805Y1268827D1*
X1586167Y1269615D1*
X1590891Y1271977D1*
X1596403Y1277489D1*
X1597978Y1280638D1*
X1598765Y1283000D1*
X1599553Y1286937D1*
Y1290087D1*
X1598765Y1294811D1*
X1597978Y1297174D1*
X1596403Y1300323D1*
X1591679Y1305048D1*
X1589316Y1306622D1*
X1587742Y1307410D1*
X1583017Y1308985D1*
X1578293Y1309772D1*
X1569631D1*
X1564907Y1308985D1*
X1562545Y1308197D1*
X1557820Y1305835D1*
X1555458Y1304260D1*
X1553096Y1301898D1*
Y1301111D1*
X1565694D1*
X1571206Y1301898D1*
X1576718D1*
X1582230Y1301111D1*
X1584592Y1300323D1*
X1589316Y1297961D1*
X1590891Y1296386D1*
Y1295599D1*
X1591679Y1294024D1*
X1592466Y1291662D1*
X1593253Y1290874D1*
Y1286937D1*
X1592466Y1286150D1*
X1591679Y1283000D1*
Y1282213D1*
X1588529Y1279063D1*
X1585379Y1277489D1*
X1583017Y1276701D1*
X1577505Y1275914D1*
X1575143Y1275126D1*
X1572781D1*
X1570419Y1275914D1*
X1564907Y1276701D1*
X1562545Y1277489D1*
X1560970Y1278276D1*
X1560183Y1279063D1*
X1558608Y1279851D1*
X1557033Y1281426D1*
Y1282213D1*
X1556246Y1283788D1*
X1555458Y1284575D1*
Y1293237D1*
X1556246Y1294024D1*
Y1294811D1*
X1560183Y1298748D1*
X1563332Y1300323D1*
X1565694Y1301111D1*
X1553096D1*
G37*
G36*
Y1253866D2*
X1551521Y1252292D1*
X1549946Y1249142D1*
X1549159Y1246780D1*
Y1237331D1*
X1549946Y1234969D1*
X1551128Y1232607D1*
X1551382Y1231680D1*
X1551113Y1231022D1*
X1550734Y1230244D1*
Y1223158D1*
X1597978D1*
X1601915Y1223945D1*
X1606639Y1225520D1*
X1609002Y1227095D1*
X1612151Y1230244D1*
X1613726Y1232607D1*
X1615301Y1237331D1*
X1616088Y1242055D1*
Y1245992D1*
X1615301Y1253079D1*
X1614513Y1256229D1*
X1613726Y1257803D1*
X1606639D1*
Y1257016D1*
X1607427Y1254654D1*
X1608214Y1251504D1*
X1609002Y1247567D1*
X1609789Y1246780D1*
Y1241268D1*
X1609002Y1240481D1*
X1608214Y1237331D1*
Y1235756D1*
X1605065Y1232607D1*
X1603490Y1231819D1*
X1600340Y1231032D1*
X1597453Y1230244D1*
X1594566D1*
X1591679Y1231032D1*
X1592466Y1231819D1*
X1595616Y1236544D1*
X1596403Y1238906D1*
X1597191Y1243630D1*
Y1245992D1*
X1596403Y1249929D1*
X1595616Y1252292D1*
X1594828Y1253866D1*
X1590104Y1258591D1*
X1585379Y1260953D1*
X1583017Y1261740D1*
X1578293Y1262528D1*
X1569631D1*
X1565694Y1261740D1*
X1562545Y1260953D1*
X1557820Y1258591D1*
X1554671Y1256229D1*
X1553096Y1254654D1*
Y1253866D1*
X1565694D1*
X1570944Y1254654D1*
X1576193D1*
X1581442Y1253866D1*
X1583805Y1253079D1*
X1586954Y1251504D1*
X1589316Y1249142D1*
Y1248355D1*
X1590104Y1245992D1*
X1590891Y1245205D1*
Y1241268D1*
X1590104Y1240481D1*
X1589316Y1237331D1*
X1587742Y1234181D1*
X1586167Y1231819D1*
Y1231032D1*
X1576718Y1230244D1*
X1567269D1*
X1557820Y1231032D1*
Y1231819D1*
X1557033Y1233394D1*
X1556246Y1235756D1*
X1555458Y1236544D1*
Y1245205D1*
X1556246Y1245992D1*
X1557033Y1247567D1*
Y1248355D1*
X1560183Y1251504D1*
X1563332Y1253079D1*
X1565694Y1253866D1*
X1553096D1*
G37*
G36*
X1090104Y1409772D2*
Y1404260D1*
X1098765Y1403473D1*
Y1353079D1*
X1090104Y1352292D1*
Y1346780D1*
X1114513D1*
Y1352292D1*
X1105852Y1353079D1*
Y1403473D1*
X1114513Y1404260D1*
Y1409772D1*
X1090104D1*
G37*
G36*
X1199553Y1399536D2*
Y1375914D1*
X1191679Y1375126D1*
Y1368827D1*
X1199553Y1368040D1*
Y1346780D1*
X1206639D1*
Y1368040D1*
X1234986Y1368827D1*
Y1378276D1*
X1230261Y1383788D1*
X1223962Y1390874D1*
X1212939Y1403473D1*
X1206639Y1409772D1*
X1199553D1*
Y1399536D1*
X1206639D1*
X1207227Y1400041D1*
X1207635Y1399995D1*
X1208214Y1399536D1*
X1212939Y1394024D1*
X1223962Y1381426D1*
X1229474Y1375914D1*
X1221862Y1375126D1*
X1214251D1*
X1206639Y1375914D1*
Y1399536D1*
X1199553D1*
G37*
G36*
X927112Y1407410D2*
Y1394811D1*
X912151Y1394024D1*
Y1387725D1*
X927112Y1386937D1*
Y1360166D1*
X926324Y1359378D1*
Y1356229D1*
X923962Y1353866D1*
X922387Y1353079D1*
X919763Y1352292D1*
X917138D1*
X914513Y1353079D1*
X912151Y1353866D1*
Y1347567D1*
X912939Y1346780D1*
X916876Y1345992D1*
X923962D1*
X926324Y1346780D1*
X929474Y1348355D1*
X931049Y1349929D1*
X932624Y1352292D1*
X933411Y1354654D1*
X934198Y1358591D1*
Y1386937D1*
X939710Y1387725D1*
Y1394024D1*
X934198Y1394811D1*
Y1407410D1*
X927112D1*
G37*
G36*
X995616Y1387725D2*
X995357Y1386769D1*
X994828Y1386150D1*
X994041Y1384575D1*
X993253Y1382213D1*
X992466Y1378276D1*
Y1365678D1*
X993253Y1361740D1*
X994041Y1359378D1*
X996403Y1354654D1*
X997978Y1352292D1*
X1000340Y1349929D1*
X1002702Y1348355D1*
X1005852Y1346780D1*
X1008214Y1345992D1*
X1016088D1*
X1020813Y1347567D1*
X1022387Y1348355D1*
X1022975Y1348860D1*
X1023383Y1348814D1*
X1023962Y1348355D1*
Y1329457D1*
X1031049D1*
Y1394024D1*
X1023962D1*
Y1390087D1*
X1023127Y1389232D1*
X1022720Y1389360D1*
X1022387Y1390087D1*
X1020813Y1391662D1*
X1018450Y1393237D1*
X1015301Y1394811D1*
X1012151Y1395599D1*
X1005852D1*
X1003490Y1394811D1*
X1000340Y1393237D1*
X996403Y1389300D1*
X995616Y1387725D1*
X1007427D1*
X1010051Y1388512D1*
X1012676D1*
X1015301Y1387725D1*
X1017663Y1386937D1*
X1020813Y1385363D1*
X1022387Y1383788D1*
X1023962Y1383000D1*
Y1355441D1*
X1020813Y1353866D1*
X1018450Y1353079D1*
X1015301Y1352292D1*
X1012151D1*
X1009002Y1353079D1*
X1005852Y1354654D1*
X1001915Y1358591D1*
Y1359378D1*
X1001128Y1361740D1*
X1000340Y1365678D1*
X999553Y1366465D1*
Y1375126D1*
X1000340Y1375914D1*
X1001128Y1379851D1*
X1001915Y1382213D1*
X1002702Y1383788D1*
Y1384575D1*
X1004277Y1386150D1*
X1007427Y1387725D1*
X995616D1*
G37*
G36*
X1054671Y1395599D2*
X1052309Y1394811D1*
X1049159Y1393237D1*
X1046797Y1390874D1*
X1045222Y1388512D1*
X1043647Y1383788D1*
Y1346780D1*
X1050734D1*
X1051521Y1382213D1*
X1052309Y1384575D1*
X1052462Y1385133D1*
X1053096Y1386150D1*
X1056246Y1387725D1*
X1058608Y1388512D1*
X1060970D1*
X1065694Y1386937D1*
X1068844Y1385363D1*
X1069631Y1384575D1*
X1071206Y1383788D1*
X1072781Y1382213D1*
Y1346780D1*
X1079868D1*
Y1394024D1*
X1072781D1*
Y1390087D1*
X1071946Y1389232D1*
X1071538Y1389360D1*
X1071206Y1390087D1*
X1070419Y1390874D1*
X1065694Y1394024D1*
X1060970Y1395599D1*
X1054671D1*
G37*
G36*
X946797Y1394024D2*
Y1346780D1*
X953883D1*
Y1350717D1*
X954471Y1351223D1*
X954880Y1351177D1*
X955458Y1350717D1*
X958608Y1348355D1*
X963332Y1345992D1*
X965694Y1345205D1*
X971994D1*
X974356Y1345992D1*
X977505Y1347567D1*
X980655Y1350717D1*
X982230Y1353866D1*
X983017Y1356229D1*
X983805Y1360953D1*
Y1394024D1*
X976718D1*
X975931Y1362528D1*
X975143Y1357803D1*
Y1356229D1*
X972781Y1353866D1*
X971206Y1353079D1*
X968582Y1352292D1*
X965957D1*
X963332Y1353079D1*
X960970Y1353866D1*
X957820Y1355441D1*
X957033Y1356229D1*
X955458Y1357016D1*
X953883Y1358591D1*
Y1394024D1*
X946797D1*
G37*
G36*
X1147584D2*
Y1393237D1*
X1150734Y1388512D1*
X1153096Y1385363D1*
X1156246Y1380638D1*
X1158608Y1377489D1*
X1161757Y1372764D1*
X1163332Y1371189D1*
X1163073Y1370234D1*
X1162545Y1369615D1*
X1160183Y1366465D1*
X1147584Y1347567D1*
Y1346780D1*
X1156246D1*
X1157033Y1347567D1*
X1158608Y1349929D1*
X1159395Y1351504D1*
X1164120Y1358591D1*
X1164907Y1360166D1*
X1166482Y1362528D1*
X1166879Y1363310D1*
X1167305Y1364037D1*
X1167864Y1364596D1*
X1168266Y1364559D1*
X1168807Y1364024D1*
X1169229Y1363300D1*
X1170419Y1360953D1*
X1179868Y1346780D1*
X1188529D1*
X1185379Y1351504D1*
X1183017Y1354654D1*
X1179868Y1359378D1*
X1177505Y1362528D1*
X1172781Y1369615D1*
X1173568Y1371977D1*
X1187742Y1393237D1*
Y1394024D1*
X1179080D1*
X1178293Y1393237D1*
X1177505Y1391662D1*
X1171206Y1382213D1*
X1170419Y1380638D1*
X1168844Y1378276D1*
X1168557Y1377308D1*
X1167744Y1376640D1*
X1167269Y1376701D1*
X1164907Y1379063D1*
Y1379851D1*
X1163332Y1382213D1*
X1162545Y1383788D1*
X1156246Y1393237D1*
X1155458Y1394024D1*
X1147584D1*
G37*
G36*
X1112151Y1326307D2*
Y1304260D1*
X1111316Y1303405D1*
X1110909Y1303533D1*
X1110576Y1304260D1*
X1109789Y1305048D1*
X1105065Y1308197D1*
X1100340Y1309772D1*
X1094041D1*
X1091679Y1308985D1*
X1088529Y1307410D1*
X1086167Y1305048D1*
X1084592Y1302685D1*
X1083017Y1297961D1*
Y1260953D1*
X1090104D1*
X1090891Y1296386D1*
X1091679Y1298748D1*
X1091832Y1299307D1*
X1092466Y1300323D1*
X1095616Y1301898D1*
X1097978Y1302685D1*
X1100340D1*
X1105065Y1301111D1*
X1108214Y1299536D1*
X1109002Y1298748D1*
X1110576Y1297961D1*
X1112151Y1296386D1*
Y1260953D1*
X1119238D1*
Y1326307D1*
X1112151D1*
G37*
G36*
X1183805Y1325520D2*
X1179080Y1324733D1*
X1171994Y1322370D1*
X1171206Y1321583D1*
Y1312134D1*
X1175931Y1315284D1*
X1180655Y1317646D1*
X1186954Y1319221D1*
X1190104D1*
X1196403Y1317646D1*
X1197978Y1316859D1*
X1201128Y1313709D1*
Y1312922D1*
X1201915Y1311347D1*
X1202702Y1310559D1*
Y1306622D1*
X1201915Y1305835D1*
X1201128Y1303473D1*
Y1302685D1*
X1198765Y1300323D1*
X1195616Y1298748D1*
X1193253Y1297961D1*
X1183805Y1295599D1*
X1176718Y1293237D1*
X1174356Y1291662D1*
X1171206Y1288512D1*
X1169631Y1286150D1*
X1168844Y1283788D1*
X1168057Y1279063D1*
Y1278276D1*
X1168844Y1273552D1*
X1169631Y1271189D1*
X1171206Y1268040D1*
X1175931Y1263315D1*
X1178293Y1261740D1*
X1179868Y1260953D1*
X1182230Y1260166D1*
X1185379Y1259378D1*
X1196403D1*
X1200340Y1260166D1*
X1203490Y1260953D1*
X1205852Y1261740D1*
X1209789Y1263315D1*
X1210576Y1264103D1*
Y1274339D1*
X1206639Y1271189D1*
X1205852Y1270402D1*
X1201128Y1268040D1*
X1198765Y1267252D1*
X1192466Y1265678D1*
X1189316D1*
X1183017Y1267252D1*
X1179868Y1268827D1*
X1178293Y1270402D1*
Y1271189D1*
X1177505Y1272764D1*
X1176718Y1273552D1*
Y1281426D1*
X1177505Y1282213D1*
Y1283000D1*
X1179080Y1284575D1*
X1180655Y1285363D1*
X1181442Y1286150D1*
X1186167Y1287725D1*
X1198765Y1290874D1*
X1203490Y1293237D1*
X1208214Y1297961D1*
X1209789Y1301111D1*
X1210576Y1304260D1*
Y1309772D1*
X1209789Y1312922D1*
X1207427Y1317646D1*
X1203490Y1321583D1*
X1201128Y1323158D1*
X1197191Y1324733D1*
X1194041Y1325520D1*
X1183805D1*
G37*
G36*
X1379080Y1318433D2*
X1375931Y1315284D1*
X1374356Y1312922D1*
X1372781Y1309772D1*
X1371206Y1305048D1*
X1370419Y1301898D1*
X1369631Y1296386D1*
Y1288512D1*
X1370419Y1283000D1*
X1371206Y1279851D1*
X1372781Y1275126D1*
X1374356Y1271977D1*
X1375931Y1269615D1*
X1382230Y1263315D1*
X1386954Y1260953D1*
X1389316Y1260166D1*
X1393253Y1259378D1*
X1402702D1*
X1405852Y1260166D1*
X1408214Y1260953D1*
X1412939Y1263315D1*
X1415301Y1264890D1*
X1418450Y1268040D1*
X1421600Y1272764D1*
X1422387Y1274339D1*
X1424750Y1281426D1*
X1425537Y1286150D1*
Y1298748D1*
X1424750Y1303473D1*
X1422387Y1310559D1*
X1421600Y1312134D1*
X1418450Y1316859D1*
X1415301Y1320008D1*
X1412939Y1321583D1*
X1408214Y1323945D1*
X1405852Y1324733D1*
X1402702Y1325520D1*
X1393253D1*
X1389316Y1324733D1*
X1386954Y1323945D1*
X1383805Y1322370D1*
X1381442Y1320796D1*
X1379080Y1318433D1*
X1393253D1*
X1396403Y1319221D1*
X1399553D1*
X1402702Y1318433D1*
X1405065Y1317646D1*
X1408214Y1316071D1*
X1409002Y1315284D1*
X1410576Y1314496D1*
X1411211Y1313480D1*
X1411364Y1312922D1*
X1413726Y1309772D1*
X1414513Y1308197D1*
X1416088Y1303473D1*
X1416876Y1298748D1*
X1417663Y1297961D1*
Y1286937D1*
X1416876Y1286150D1*
X1416088Y1281426D1*
X1414513Y1276701D1*
X1413726Y1275126D1*
Y1274339D1*
X1408214Y1268827D1*
X1405065Y1267252D1*
X1402702Y1266465D1*
X1399553Y1265678D1*
X1396403D1*
X1390104Y1267252D1*
X1388529Y1268040D1*
X1387742Y1268827D1*
X1386167Y1269615D1*
X1382230Y1273552D1*
Y1274339D1*
X1380655Y1277489D1*
X1379080Y1282213D1*
X1378293Y1288512D1*
X1377505Y1289300D1*
Y1295599D1*
X1378293Y1296386D1*
X1379080Y1302685D1*
X1380655Y1307410D1*
X1382230Y1310559D1*
Y1311347D1*
X1386954Y1316071D1*
X1390104Y1317646D1*
X1393253Y1318433D1*
X1379080D1*
G37*
G36*
X739710Y1323945D2*
Y1267252D1*
X728687Y1266465D1*
Y1260953D1*
X758608D1*
Y1266465D1*
X747584Y1267252D1*
Y1309772D1*
X758608Y1310559D1*
Y1315284D1*
X753096Y1316071D1*
X750734Y1316859D1*
X747584Y1318433D1*
Y1319221D1*
X746009Y1323945D1*
X739710D1*
G37*
G36*
X814513D2*
Y1267252D1*
X803490Y1266465D1*
Y1260953D1*
X833411D1*
Y1266465D1*
X822387Y1267252D1*
Y1309772D1*
X833411Y1310559D1*
Y1315284D1*
X827899Y1316071D1*
X825537Y1316859D1*
X822387Y1318433D1*
Y1319221D1*
X820813Y1323945D1*
X814513D1*
G37*
G36*
X855458Y1316859D2*
X853883Y1315284D1*
X853096Y1313709D1*
X852309Y1310559D1*
Y1302685D1*
X853883Y1297961D1*
X854671Y1296386D1*
X860183Y1290874D1*
X862545Y1289300D1*
X864907Y1288512D1*
X864648Y1287557D1*
X864120Y1286937D1*
X860970Y1283000D1*
X857033Y1278276D1*
X853883Y1274339D1*
X846009Y1264890D1*
X842860Y1260953D1*
X853096D1*
X855458Y1263315D1*
X871206Y1283000D1*
Y1283788D1*
X872781Y1285363D1*
X876456Y1286150D1*
X880130D1*
X883805Y1285363D1*
Y1260953D1*
X890891D1*
Y1323945D1*
X868057D1*
X864120Y1323158D1*
X861757Y1322370D1*
X860183Y1321583D1*
X857820Y1320008D1*
X855458Y1317646D1*
Y1316859D1*
X868844D1*
X873831Y1317646D1*
X878818D1*
X883805Y1316859D1*
Y1293237D1*
X879080Y1292449D1*
X874356D1*
X869631Y1293237D1*
X867269Y1294024D1*
X864120Y1295599D1*
X862545Y1297174D1*
Y1297961D1*
X861757Y1299536D1*
X860970Y1301898D1*
X860183Y1302685D1*
Y1308985D1*
X860970Y1309772D1*
X861757Y1312134D1*
Y1312922D1*
X863332Y1314496D1*
X866482Y1316071D1*
X868844Y1316859D1*
X855458D1*
G37*
G36*
X989316Y1323945D2*
Y1316071D1*
X997978D1*
Y1323945D1*
X989316D1*
G37*
G36*
X941285Y1321583D2*
Y1308985D1*
X926324Y1308197D1*
Y1301898D1*
X941285Y1301111D1*
Y1274339D1*
X940498Y1273552D1*
Y1270402D1*
X938135Y1268040D1*
X936561Y1267252D1*
X933936Y1266465D1*
X931311D1*
X928687Y1267252D1*
X926324Y1268040D1*
Y1261740D1*
X927112Y1260953D1*
X931049Y1260166D1*
X938135D1*
X940498Y1260953D1*
X943647Y1262528D1*
X945222Y1264103D1*
X946797Y1266465D1*
X947584Y1268827D1*
X948372Y1272764D1*
Y1301111D1*
X953883Y1301898D1*
Y1308197D1*
X948372Y1308985D1*
Y1321583D1*
X941285D1*
G37*
G36*
X970419D2*
Y1308985D1*
X955458Y1308197D1*
Y1301898D1*
X970419Y1301111D1*
Y1274339D1*
X969631Y1273552D1*
Y1270402D1*
X967269Y1268040D1*
X965694Y1267252D1*
X963070Y1266465D1*
X960445D1*
X957820Y1267252D1*
X955458Y1268040D1*
Y1261740D1*
X956246Y1260953D1*
X960183Y1260166D1*
X967269D1*
X969631Y1260953D1*
X972781Y1262528D1*
X974356Y1264103D1*
X975931Y1266465D1*
X976718Y1268827D1*
X977505Y1272764D1*
Y1301111D1*
X983017Y1301898D1*
Y1308197D1*
X977505Y1308985D1*
Y1321583D1*
X970419D1*
G37*
G36*
X1305065D2*
Y1308985D1*
X1290104Y1308197D1*
Y1301898D1*
X1305065Y1301111D1*
Y1274339D1*
X1304277Y1273552D1*
Y1270402D1*
X1301915Y1268040D1*
X1300340Y1267252D1*
X1297715Y1266465D1*
X1295091D1*
X1292466Y1267252D1*
X1290104Y1268040D1*
Y1261740D1*
X1290891Y1260953D1*
X1294828Y1260166D1*
X1301915D1*
X1304277Y1260953D1*
X1307427Y1262528D1*
X1309002Y1264103D1*
X1310576Y1266465D1*
X1311364Y1268827D1*
X1312151Y1272764D1*
Y1301111D1*
X1317663Y1301898D1*
Y1308197D1*
X1312151Y1308985D1*
Y1321583D1*
X1305065D1*
G37*
G36*
X1020025Y1309772D2*
X1017663Y1308985D1*
X1014513Y1307410D1*
X1012939Y1305835D1*
X1011364Y1303473D1*
X1009789Y1298748D1*
Y1260953D1*
X1016876D1*
X1017663Y1297174D1*
Y1298748D1*
X1020025Y1301111D1*
X1021600Y1301898D1*
X1023700Y1302685D1*
X1025799D1*
X1027899Y1301898D1*
X1030261Y1301111D1*
X1031836Y1300323D1*
X1032624Y1299536D1*
X1034198Y1298748D1*
X1036561Y1296386D1*
Y1260953D1*
X1043647D1*
X1044435Y1296386D1*
Y1298748D1*
X1046797Y1301111D1*
X1048372Y1301898D1*
X1050734Y1302685D1*
X1053096D1*
X1055458Y1301898D1*
X1060183Y1299536D1*
X1061757Y1297961D1*
X1063332Y1297174D1*
Y1260953D1*
X1070419D1*
Y1308197D1*
X1063332D1*
Y1304260D1*
X1062497Y1303405D1*
X1062090Y1303533D1*
X1061757Y1304260D1*
X1059395Y1306622D1*
X1057033Y1308197D1*
X1055458Y1308985D1*
X1053096Y1309772D1*
X1046797D1*
X1044435Y1308985D1*
X1042860Y1308197D1*
X1038923Y1304260D1*
X1038526Y1303471D1*
X1038069Y1302648D1*
X1037299Y1301828D1*
X1036894Y1301958D1*
X1036561Y1302685D1*
X1033411Y1305835D1*
X1031049Y1307410D1*
X1027899Y1308985D1*
X1025537Y1309772D1*
X1020025D1*
G37*
G36*
X1137348D2*
X1134198Y1308985D1*
X1129474Y1307410D1*
X1127899Y1306622D1*
Y1297961D1*
X1130261Y1299536D1*
X1131049Y1300323D1*
X1132624Y1301111D1*
X1137348Y1302685D1*
X1139973Y1303473D1*
X1142597D1*
X1145222Y1302685D1*
X1147584Y1301898D1*
X1149159Y1301111D1*
X1152309Y1297961D1*
Y1297174D1*
X1153883Y1294024D1*
X1154671Y1290874D1*
X1155458Y1290087D1*
Y1279063D1*
X1154671Y1278276D1*
X1153096Y1273552D1*
Y1272764D1*
X1149159Y1268827D1*
X1147584Y1268040D1*
X1145222Y1267252D1*
X1142335Y1266465D1*
X1139448D1*
X1136561Y1267252D1*
X1134198Y1268040D1*
X1129474Y1270402D1*
X1127899Y1271977D1*
Y1263315D1*
X1129474Y1262528D1*
X1134198Y1260953D1*
X1137348Y1260166D1*
X1145222D1*
X1148372Y1260953D1*
X1150734Y1261740D1*
X1153883Y1263315D1*
X1158608Y1268040D1*
X1160183Y1270402D1*
X1160970Y1271977D1*
X1161757Y1274339D1*
X1162545Y1277489D1*
Y1292449D1*
X1160970Y1297174D1*
X1159395Y1300323D1*
X1157820Y1302685D1*
X1154671Y1305835D1*
X1152309Y1307410D1*
X1150734Y1308197D1*
X1148372Y1308985D1*
X1145222Y1309772D1*
X1137348D1*
G37*
G36*
X1249946Y1302685D2*
Y1301898D1*
X1248372Y1300323D1*
X1246797Y1297174D1*
X1246009Y1294811D1*
X1245222Y1290874D1*
Y1278276D1*
X1246009Y1274339D1*
X1246797Y1271977D1*
X1248372Y1268827D1*
X1249946Y1266465D1*
X1253096Y1263315D1*
X1255458Y1261740D1*
X1258608Y1260166D1*
X1261757Y1259378D1*
X1269631D1*
X1272781Y1260166D1*
X1277505Y1262528D1*
X1282230Y1267252D1*
X1285379Y1273552D1*
X1286167Y1276701D1*
Y1292449D1*
X1285379Y1295599D1*
X1282230Y1301898D1*
X1277505Y1306622D1*
X1272781Y1308985D1*
X1269631Y1309772D1*
X1261757D1*
X1258608Y1308985D1*
X1255458Y1307410D1*
X1253096Y1305835D1*
X1249946Y1302685D1*
X1261757D1*
X1264382Y1303473D1*
X1267007D1*
X1269631Y1302685D1*
X1271994Y1301898D1*
X1273568Y1301111D1*
X1275931Y1298748D1*
Y1297961D1*
X1277505Y1294811D1*
X1278293Y1291662D1*
X1279080Y1290874D1*
Y1278276D1*
X1278293Y1277489D1*
X1277505Y1274339D1*
X1275931Y1271189D1*
Y1270402D1*
X1274356Y1268827D1*
X1272781Y1268040D1*
X1271994Y1267252D1*
X1269631Y1266465D1*
X1267007Y1265678D1*
X1264382D1*
X1261757Y1266465D1*
X1258608Y1268040D1*
X1254671Y1271977D1*
Y1272764D1*
X1253883Y1275126D1*
X1253096Y1279851D1*
X1252309Y1280638D1*
Y1288512D1*
X1253096Y1289300D1*
X1253883Y1294024D1*
X1254671Y1296386D1*
Y1297174D1*
X1259395Y1301898D1*
X1261757Y1302685D1*
X1249946D1*
G37*
G36*
X1324750Y1301898D2*
X1324491Y1300943D1*
X1323962Y1300323D1*
X1323175Y1298748D1*
X1322387Y1296386D1*
X1321600Y1292449D1*
Y1279851D1*
X1322387Y1275914D1*
X1323175Y1273552D1*
X1325537Y1268827D1*
X1327112Y1266465D1*
X1329474Y1264103D1*
X1331836Y1262528D1*
X1334986Y1260953D1*
X1337348Y1260166D1*
X1345222D1*
X1349946Y1261740D1*
X1351521Y1262528D1*
X1352109Y1263034D1*
X1352517Y1262988D1*
X1353096Y1262528D1*
Y1243630D1*
X1360183D1*
Y1308197D1*
X1353096D1*
Y1304260D1*
X1352261Y1303405D1*
X1351853Y1303533D1*
X1351521Y1304260D1*
X1349946Y1305835D1*
X1347584Y1307410D1*
X1344435Y1308985D1*
X1341285Y1309772D1*
X1334986D1*
X1332624Y1308985D1*
X1329474Y1307410D1*
X1325537Y1303473D1*
X1324750Y1301898D1*
X1336561D1*
X1339185Y1302685D1*
X1341810D1*
X1344435Y1301898D1*
X1346797Y1301111D1*
X1349946Y1299536D1*
X1351521Y1297961D1*
X1353096Y1297174D1*
Y1269615D1*
X1349946Y1268040D1*
X1347584Y1267252D1*
X1344435Y1266465D1*
X1341285D1*
X1338135Y1267252D1*
X1334986Y1268827D1*
X1331049Y1272764D1*
Y1273552D1*
X1330261Y1275914D1*
X1329474Y1279851D1*
X1328687Y1280638D1*
Y1289300D1*
X1329474Y1290087D1*
X1330261Y1294024D1*
X1331049Y1296386D1*
X1331836Y1297961D1*
Y1298748D1*
X1333411Y1300323D1*
X1336561Y1301898D1*
X1324750D1*
G37*
G36*
X990104Y1308197D2*
Y1260953D1*
X997191D1*
Y1308197D1*
X990104D1*
G37*
G36*
X777505Y1271977D2*
Y1260953D1*
X786954D1*
Y1271977D1*
X777505D1*
G37*
G36*
X551259Y753407D2*
X542597Y751964D1*
X529605Y747633D1*
X528162Y746189D1*
Y728866D1*
X536823Y734641D1*
X545484Y738971D1*
X557033Y741859D1*
X562807D1*
X574356Y738971D1*
X577243Y737528D1*
X583017Y731754D1*
Y730310D1*
X584461Y727423D1*
X585904Y725979D1*
Y718761D1*
X584461Y717318D1*
X583017Y712987D1*
Y711544D1*
X578687Y707213D1*
X572912Y704326D1*
X568582Y702882D1*
X551259Y698552D1*
X538267Y694221D1*
X533936Y691334D1*
X528162Y685559D1*
X525274Y681229D1*
X523831Y676898D1*
X522387Y668237D1*
Y666793D1*
X523831Y658132D1*
X525274Y653801D1*
X528162Y648027D1*
X536823Y639365D1*
X541154Y636478D1*
X544041Y635034D1*
X548372Y633591D1*
X554146Y632147D1*
X574356D1*
X581574Y633591D1*
X587348Y635034D1*
X591679Y636478D1*
X598897Y639365D1*
X600340Y640809D1*
Y659575D1*
X593122Y653801D1*
X591679Y652357D1*
X583017Y648027D1*
X578687Y646583D1*
X567138Y643696D1*
X561364D1*
X549815Y646583D1*
X544041Y649470D1*
X541154Y652357D1*
Y653801D1*
X539710Y656688D1*
X538267Y658132D1*
Y672567D1*
X539710Y674011D1*
Y675454D1*
X542597Y678342D1*
X545484Y679785D1*
X546928Y681229D1*
X555589Y684116D1*
X578687Y689890D1*
X587348Y694221D1*
X596009Y702882D1*
X598897Y708657D1*
X600340Y714431D1*
Y724536D1*
X598897Y730310D1*
X594566Y738971D1*
X587348Y746189D1*
X583017Y749076D1*
X575799Y751964D1*
X570025Y753407D1*
X551259D1*
G37*
G36*
X800996Y757738D2*
Y746189D1*
X850078Y744746D1*
Y714431D1*
X828424Y712987D1*
X822650Y711544D1*
X818319Y710100D1*
X815432Y708657D1*
X811101Y705769D1*
X806771Y701439D1*
X803883Y697108D1*
X802440Y694221D1*
X800996Y689890D1*
Y668237D1*
X803883Y659575D1*
X805327Y656688D1*
X808214Y652357D1*
X813988Y646583D1*
X818319Y643696D1*
X821206Y642252D1*
X825537Y640809D1*
X831311Y639365D1*
X848634D1*
X855852Y640809D1*
X868844Y645139D1*
Y661019D1*
X855852Y655244D1*
X847191Y652357D1*
X841897Y650914D1*
X836604D1*
X831311Y652357D1*
X826981Y653801D1*
X824093Y655244D1*
X818319Y661019D1*
Y662462D1*
X816876Y666793D1*
X815432Y674011D1*
X813988Y675454D1*
Y679785D1*
X815432Y681229D1*
X816876Y688447D1*
X818319Y691334D1*
Y692777D1*
X821206Y695664D1*
X826981Y698552D1*
X831311Y699995D1*
X838529Y701439D1*
X845747D1*
X852965Y699995D1*
X861626Y698552D1*
X863070D1*
Y757738D1*
X800996D1*
G37*
G36*
X1044960Y759181D2*
X1036298Y757738D1*
X1023306Y753407D1*
X1021862Y751964D1*
Y734641D1*
X1030524Y740415D1*
X1039185Y744746D1*
X1050734Y747633D1*
X1056508D1*
X1068057Y744746D1*
X1070944Y743302D1*
X1076718Y737528D1*
Y736084D1*
X1078162Y733197D1*
X1079605Y731754D1*
Y724536D1*
X1078162Y723092D1*
X1076718Y718761D1*
Y717318D1*
X1072387Y712987D1*
X1066613Y710100D1*
X1062282Y708657D1*
X1044960Y704326D1*
X1031967Y699995D1*
X1027637Y697108D1*
X1021862Y691334D1*
X1018975Y687003D1*
X1017532Y682672D1*
X1016088Y674011D1*
Y672567D1*
X1017532Y663906D1*
X1018975Y659575D1*
X1021862Y653801D1*
X1030524Y645139D1*
X1034855Y642252D1*
X1037742Y640809D1*
X1042072Y639365D1*
X1047847Y637922D1*
X1068057D1*
X1075274Y639365D1*
X1081049Y640809D1*
X1085379Y642252D1*
X1092597Y645139D1*
X1094041Y646583D1*
Y665349D1*
X1086823Y659575D1*
X1085379Y658132D1*
X1076718Y653801D1*
X1072387Y652357D1*
X1060839Y649470D1*
X1055065D1*
X1043516Y652357D1*
X1037742Y655244D1*
X1034855Y658132D1*
Y659575D1*
X1033411Y662462D1*
X1031967Y663906D1*
Y678342D1*
X1033411Y679785D1*
Y681229D1*
X1036298Y684116D1*
X1039185Y685559D1*
X1040629Y687003D1*
X1049290Y689890D1*
X1072387Y695664D1*
X1081049Y699995D1*
X1089710Y708657D1*
X1092597Y714431D1*
X1094041Y720205D1*
Y730310D1*
X1092597Y736084D1*
X1088267Y744746D1*
X1081049Y751964D1*
X1076718Y754851D1*
X1069500Y757738D1*
X1063726Y759181D1*
X1044960D1*
G37*
G36*
X1296141Y763512D2*
Y751964D1*
X1345222Y750520D1*
Y720205D1*
X1323568Y718761D1*
X1317794Y717318D1*
X1313463Y715874D1*
X1310576Y714431D1*
X1306246Y711544D1*
X1301915Y707213D1*
X1299028Y702882D1*
X1297584Y699995D1*
X1296141Y695664D1*
Y674011D1*
X1299028Y665349D1*
X1300471Y662462D1*
X1303358Y658132D1*
X1309133Y652357D1*
X1313463Y649470D1*
X1316351Y648027D1*
X1320681Y646583D1*
X1326456Y645139D1*
X1343778D1*
X1350996Y646583D1*
X1363988Y650914D1*
Y666793D1*
X1350996Y661019D1*
X1342335Y658132D1*
X1337042Y656688D1*
X1331749D1*
X1326456Y658132D1*
X1322125Y659575D1*
X1319238Y661019D1*
X1313463Y666793D1*
Y668237D1*
X1312020Y672567D1*
X1310576Y679785D1*
X1309133Y681229D1*
Y685559D1*
X1310576Y687003D1*
X1312020Y694221D1*
X1313463Y697108D1*
Y698552D1*
X1316351Y701439D1*
X1322125Y704326D1*
X1326456Y705769D1*
X1333673Y707213D1*
X1340891D1*
X1348109Y705769D1*
X1356771Y704326D1*
X1358214D1*
Y763512D1*
X1296141D1*
G37*
G36*
X975668Y1179260D2*
X967007Y1177817D1*
X954015Y1173486D1*
X952571Y1172042D1*
Y1154719D1*
X961232Y1160494D1*
X969894Y1164824D1*
X981442Y1167712D1*
X987217D1*
X998765Y1164824D1*
X1001652Y1163381D1*
X1007427Y1157607D1*
Y1156163D1*
X1008870Y1153276D1*
X1010314Y1151832D1*
Y1144615D1*
X1008870Y1143171D1*
X1007427Y1138840D1*
Y1137397D1*
X1003096Y1133066D1*
X997322Y1130179D1*
X992991Y1128735D1*
X975668Y1124405D1*
X962676Y1120074D1*
X958345Y1117187D1*
X952571Y1111412D1*
X949684Y1107082D1*
X948240Y1102751D1*
X946797Y1094090D1*
Y1092646D1*
X948240Y1083985D1*
X949684Y1079654D1*
X952571Y1073880D1*
X961232Y1065218D1*
X965563Y1062331D1*
X968450Y1060887D1*
X972781Y1059444D1*
X978555Y1058000D1*
X998765D1*
X1005983Y1059444D1*
X1011757Y1060887D1*
X1016088Y1062331D1*
X1023306Y1065218D1*
X1024750Y1066662D1*
Y1085428D1*
X1017532Y1079654D1*
X1016088Y1078210D1*
X1007427Y1073880D1*
X1003096Y1072436D1*
X991547Y1069549D1*
X985773D1*
X974225Y1072436D1*
X968450Y1075323D1*
X965563Y1078210D1*
Y1079654D1*
X964120Y1082541D1*
X962676Y1083985D1*
Y1098420D1*
X964120Y1099864D1*
Y1101307D1*
X967007Y1104195D1*
X969894Y1105638D1*
X971337Y1107082D1*
X979999Y1109969D1*
X1003096Y1115743D1*
X1011757Y1120074D1*
X1020419Y1128735D1*
X1023306Y1134510D1*
X1024750Y1140284D1*
Y1150389D1*
X1023306Y1156163D1*
X1018975Y1164824D1*
X1011757Y1172042D1*
X1007427Y1174929D1*
X1000209Y1177817D1*
X994435Y1179260D1*
X975668D1*
G37*
G36*
X1228293Y1182147D2*
Y1170599D1*
X1277374Y1169155D1*
Y1138840D1*
X1255721Y1137397D1*
X1249946Y1135953D1*
X1245616Y1134510D1*
X1242729Y1133066D1*
X1238398Y1130179D1*
X1234067Y1125848D1*
X1231180Y1121517D1*
X1229736Y1118630D1*
X1228293Y1114300D1*
Y1092646D1*
X1231180Y1083985D1*
X1232624Y1081097D1*
X1235511Y1076767D1*
X1241285Y1070992D1*
X1245616Y1068105D1*
X1248503Y1066662D1*
X1252834Y1065218D1*
X1258608Y1063775D1*
X1275931D1*
X1283149Y1065218D1*
X1296141Y1069549D1*
Y1085428D1*
X1283149Y1079654D1*
X1274487Y1076767D1*
X1269194Y1075323D1*
X1263901D1*
X1258608Y1076767D1*
X1254277Y1078210D1*
X1251390Y1079654D1*
X1245616Y1085428D1*
Y1086872D1*
X1244172Y1091202D1*
X1242729Y1098420D1*
X1241285Y1099864D1*
Y1104195D1*
X1242729Y1105638D1*
X1244172Y1112856D1*
X1245616Y1115743D1*
Y1117187D1*
X1248503Y1120074D1*
X1254277Y1122961D1*
X1258608Y1124405D1*
X1265826Y1125848D1*
X1273044D1*
X1280261Y1124405D1*
X1288923Y1122961D1*
X1290366D1*
Y1182147D1*
X1228293D1*
G37*
G36*
X487742Y1179260D2*
X479080Y1177817D1*
X466088Y1173486D1*
X464645Y1172042D1*
Y1154719D1*
X473306Y1160494D1*
X481967Y1164824D1*
X493516Y1167712D1*
X499290D1*
X510839Y1164824D1*
X513726Y1163381D1*
X519500Y1157607D1*
Y1156163D1*
X520944Y1153276D1*
X522387Y1151832D1*
Y1144615D1*
X520944Y1143171D1*
X519500Y1138840D1*
Y1137397D1*
X515170Y1133066D1*
X509395Y1130179D1*
X505065Y1128735D1*
X487742Y1124405D1*
X474750Y1120074D1*
X470419Y1117187D1*
X464645Y1111412D1*
X461757Y1107082D1*
X460314Y1102751D1*
X458870Y1094090D1*
Y1092646D1*
X460314Y1083985D1*
X461757Y1079654D1*
X464645Y1073880D1*
X473306Y1065218D1*
X477637Y1062331D1*
X480524Y1060887D1*
X484855Y1059444D1*
X490629Y1058000D1*
X510839D1*
X518057Y1059444D1*
X523831Y1060887D1*
X528162Y1062331D1*
X535379Y1065218D1*
X536823Y1066662D1*
Y1085428D1*
X529605Y1079654D1*
X528162Y1078210D1*
X519500Y1073880D1*
X515170Y1072436D1*
X503621Y1069549D1*
X497847D1*
X486298Y1072436D1*
X480524Y1075323D1*
X477637Y1078210D1*
Y1079654D1*
X476193Y1082541D1*
X474750Y1083985D1*
Y1098420D1*
X476193Y1099864D1*
Y1101307D1*
X479080Y1104195D1*
X481967Y1105638D1*
X483411Y1107082D1*
X492072Y1109969D1*
X515170Y1115743D1*
X523831Y1120074D1*
X532492Y1128735D1*
X535379Y1134510D1*
X536823Y1140284D1*
Y1150389D1*
X535379Y1156163D1*
X531049Y1164824D1*
X523831Y1172042D1*
X519500Y1174929D1*
X512282Y1177817D1*
X506508Y1179260D1*
X487742D1*
G37*
G36*
X740366Y1182147D2*
Y1170599D1*
X789448Y1169155D1*
Y1138840D1*
X767794Y1137397D1*
X762020Y1135953D1*
X757689Y1134510D1*
X754802Y1133066D1*
X750471Y1130179D1*
X746141Y1125848D1*
X743253Y1121517D1*
X741810Y1118630D1*
X740366Y1114300D1*
Y1092646D1*
X743253Y1083985D1*
X744697Y1081097D1*
X747584Y1076767D1*
X753358Y1070992D1*
X757689Y1068105D1*
X760576Y1066662D1*
X764907Y1065218D1*
X770681Y1063775D1*
X788004D1*
X795222Y1065218D1*
X808214Y1069549D1*
Y1085428D1*
X795222Y1079654D1*
X786561Y1076767D1*
X781267Y1075323D1*
X775974D1*
X770681Y1076767D1*
X766351Y1078210D1*
X763463Y1079654D1*
X757689Y1085428D1*
Y1086872D1*
X756246Y1091202D1*
X754802Y1098420D1*
X753358Y1099864D1*
Y1104195D1*
X754802Y1105638D1*
X756246Y1112856D1*
X757689Y1115743D1*
Y1117187D1*
X760576Y1120074D1*
X766351Y1122961D1*
X770681Y1124405D1*
X777899Y1125848D1*
X785117D1*
X792335Y1124405D1*
X800996Y1122961D1*
X802440D1*
Y1182147D1*
X740366D1*
G37*
G36*
X686429Y960428D2*
Y865940D1*
X668057Y864628D1*
Y855441D1*
X717925D1*
Y864628D1*
X699553Y865940D1*
Y936806D1*
X717925Y938118D1*
Y945992D1*
X708739Y947305D1*
X704802Y948617D1*
X699553Y951242D1*
Y952554D1*
X696928Y960428D1*
X686429D1*
G37*
G36*
X765170Y526045D2*
X759920Y524733D1*
X752046Y520796D1*
X746797Y515546D1*
X744172Y511609D1*
X741547Y503735D1*
Y490612D1*
X742860Y485363D1*
X744172Y481426D1*
X748109Y473552D1*
X750734Y469615D1*
X754671Y464365D1*
X788792Y430244D1*
X737610Y428932D1*
Y418433D1*
X801915D1*
Y431557D1*
X774356Y460428D1*
X767794Y468302D1*
X762545Y474864D1*
X759920Y478801D1*
X757295Y484050D1*
X755983Y489300D1*
X754671Y490612D1*
Y502423D1*
X755983Y503735D1*
Y506360D1*
X761232Y511609D1*
X766482Y514234D1*
X771294Y515546D1*
X776106D1*
X780918Y514234D1*
X786167Y512922D1*
X790104Y511609D1*
X795353Y508985D1*
X796666Y507672D1*
X799290Y506360D1*
Y519483D1*
X797978Y520796D1*
X795353Y522108D1*
X791416Y523420D1*
X786167Y524733D1*
X779605Y526045D1*
X765170D1*
G37*
G36*
X1189054Y969615D2*
X1183805Y968302D1*
X1175931Y964365D1*
X1169369Y957803D1*
X1168057Y955179D1*
X1166744Y951242D1*
Y938118D1*
X1168057Y934181D1*
X1169369Y931557D1*
X1177243Y923683D1*
X1182492Y921058D1*
X1186429Y919746D1*
X1183805Y918433D1*
X1179868Y917121D1*
X1174618Y914496D1*
X1168057Y907935D1*
X1165432Y902685D1*
X1164120Y898748D1*
Y886937D1*
X1165432Y881688D1*
X1166744Y877751D1*
X1171994Y869877D1*
X1174618Y867252D1*
X1179868Y863315D1*
X1182492Y862003D1*
X1186429Y860691D1*
X1191679Y859378D1*
X1207427D1*
X1213988Y860691D1*
X1219238Y862003D1*
X1227112Y864628D1*
Y879063D1*
X1216613Y873814D1*
X1208739Y871189D1*
X1203490Y869877D1*
X1198240D1*
X1192991Y871189D1*
X1189054Y872502D1*
X1186429Y873814D1*
X1179868Y880376D1*
Y881688D1*
X1178555Y885625D1*
X1177243Y886937D1*
Y898748D1*
X1178555Y900061D1*
X1179868Y903998D1*
Y905310D1*
X1183805Y909247D1*
X1186429Y910559D1*
X1191679Y911872D1*
X1206114Y913184D1*
Y923683D1*
X1194303Y924995D1*
X1190366Y926307D1*
X1185117Y928932D1*
X1182492Y931557D1*
Y932869D1*
X1181180Y935494D1*
X1179868Y936806D1*
Y948617D1*
X1181180Y949929D1*
Y951242D1*
X1185117Y955179D1*
X1187742Y956491D1*
X1191679Y957803D1*
X1196491Y959116D1*
X1201302D1*
X1206114Y957803D1*
X1217925Y953866D1*
X1220550Y952554D1*
X1221862Y951242D1*
X1224487Y949929D1*
Y963053D1*
X1223175Y964365D1*
X1220550Y965678D1*
X1216613Y966990D1*
X1211364Y968302D1*
X1204802Y969615D1*
X1189054D1*
G37*
G36*
X1246797Y518171D2*
Y478801D1*
X1233673Y477489D1*
Y466990D1*
X1246797Y465678D1*
Y430244D1*
X1258608D1*
Y465678D1*
X1305852Y466990D1*
Y482738D1*
X1297978Y491924D1*
X1287479Y503735D1*
X1269107Y524733D1*
X1258608Y535231D1*
X1246797D1*
Y518171D1*
X1258608D1*
X1259588Y519014D1*
X1260268Y518937D1*
X1261232Y518171D1*
X1269107Y508985D1*
X1287479Y487987D1*
X1296666Y478801D1*
X1283980Y477489D1*
X1271294D1*
X1258608Y478801D1*
Y518171D1*
X1246797D1*
G37*
M02*
