M48
INCH
T01C0.0191
T02C0.0354
T03C0.0394
T04C0.0512
T05C0.1378
%
T01
X+007065Y+012440
X+008878Y+014440
X+009503Y+016253
X+009752Y+017002
X+009752Y+017940
X+008440Y+017878
X+007936Y+016624
X+005815Y+016253
X+006315Y+018565
X+004503Y+018440
X+011565Y+016214
X+012003Y+018002
X+012628Y+018690
X+013440Y+018753
X+013315Y+017440
X+013315Y+016940
X+013565Y+016190
X+014252Y+017315
X+014877Y+016690
X+015753Y+017002
X+014877Y+019128
X+014940Y+014440
X+012940Y+014440
X+010940Y+014440
X+006105Y+008960
X+004924Y+008960
T02
X+004739Y+019688
X+005739Y+019688
X+006739Y+019688
X+007739Y+019688
X+008739Y+019688
X+009739Y+019688
X+010739Y+019688
X+011739Y+019688
X+012739Y+019688
X+013739Y+019688
X+014739Y+019688
X+015739Y+019688
T03
X+004531Y+014889
X+004531Y+013889
X+004531Y+012889
X+004531Y+011889
T04
X+012700Y+009944
X+011322Y+009944
X+009944Y+009944
X+007680Y+009944
X+006302Y+009944
X+004924Y+009944
X+005613Y+005456
X+006991Y+005456
X+008369Y+005456
X+010633Y+005456
X+012011Y+005456
X+013389Y+005456
T05
X+015160Y+008271
T00
M30
