G04 DipTrace 4.0.0.2*
G04 TopSilk.gbr*
%MOIN*%
G04 #@! TF.FileFunction,Legend,Top*
G04 #@! TF.Part,Single*
%ADD10C,0.009843*%
%ADD12C,0.004724*%
%ADD51C,0.006176*%
%FSLAX26Y26*%
G04*
G70*
G90*
G75*
G01*
G04 TopSilk*
%LPD*%
X502760Y1845525D2*
D12*
Y1854974D1*
X560240Y1845527D2*
Y1854976D1*
Y1667474D2*
Y1658026D1*
X502760Y1667473D2*
Y1658024D1*
X680220Y1156992D2*
Y1166441D1*
X737701Y1156992D2*
Y1166441D1*
X1594148Y1780761D2*
Y1769738D1*
X1556353Y1780761D2*
Y1769738D1*
X1030762Y1543853D2*
X1019739D1*
X1030762Y1581648D2*
X1019739D1*
X1230762Y1543853D2*
X1219739D1*
X1230762Y1581648D2*
X1219739D1*
X1430761Y1543853D2*
X1419738D1*
X1430761Y1581648D2*
X1419738D1*
X830761Y1543853D2*
X819738D1*
X830761Y1581648D2*
X819738D1*
X394000Y2047543D2*
D10*
Y394000D1*
X1653843D1*
Y2047543D1*
X394000D1*
X1525890Y1203932D2*
Y1440152D1*
X758173D1*
Y1203932D1*
X1525890D1*
X787504Y1266727D2*
Y1391727D1*
X762504D1*
Y1266727D1*
X787504D1*
G36*
X832976Y1237199D2*
X832763Y1233936D1*
X832125Y1230729D1*
X831073Y1227632D1*
X829627Y1224699D1*
X827810Y1221980D1*
X825654Y1219522D1*
X823196Y1217366D1*
X820477Y1215549D1*
X817544Y1214102D1*
X814447Y1213051D1*
X811240Y1212413D1*
X807977Y1212199D1*
X804714Y1212413D1*
X801507Y1213051D1*
X798410Y1214102D1*
X795477Y1215549D1*
X792758Y1217366D1*
X790300Y1219522D1*
X788144Y1221980D1*
X786327Y1224699D1*
X784881Y1227632D1*
X783830Y1230729D1*
X783192Y1233936D1*
X782978Y1237199D1*
Y1237200D1*
X783192Y1240463D1*
X783830Y1243670D1*
X784881Y1246767D1*
X786327Y1249700D1*
X788144Y1252419D1*
X790300Y1254877D1*
X792758Y1257033D1*
X795477Y1258850D1*
X798410Y1260297D1*
X801507Y1261348D1*
X804714Y1261986D1*
X807977Y1262199D1*
X811240Y1261986D1*
X814447Y1261348D1*
X817544Y1260297D1*
X820477Y1258850D1*
X823196Y1257033D1*
X825654Y1254877D1*
X827810Y1252419D1*
X829627Y1249700D1*
X831073Y1246767D1*
X832125Y1243670D1*
X832763Y1240463D1*
X832976Y1237200D1*
Y1237199D1*
G37*
X653055Y1573882D2*
D10*
X418055D1*
Y1103882D1*
X653055D1*
Y1573882D1*
X428066Y1338882D2*
X653055D1*
X668764Y1851332D2*
X767170Y1851335D1*
Y1821795D1*
X767174Y1703709D2*
X767175Y1674169D1*
X668769Y1674166D1*
G36*
X610123Y1852727D2*
X609118Y1852793D1*
X608130Y1852989D1*
X607176Y1853313D1*
X606273Y1853759D1*
X605435Y1854318D1*
X604678Y1854982D1*
X604014Y1855739D1*
X603454Y1856577D1*
X603009Y1857480D1*
X602685Y1858434D1*
X602488Y1859422D1*
X602423Y1860427D1*
X602488Y1861432D1*
X602685Y1862420D1*
X603009Y1863374D1*
X603454Y1864277D1*
X604014Y1865115D1*
X604678Y1865872D1*
X605435Y1866536D1*
X606272Y1867096D1*
X607176Y1867541D1*
X608130Y1867865D1*
X609117Y1868061D1*
X610122Y1868127D1*
X610143D1*
X611149Y1868061D1*
X612136Y1867865D1*
X613090Y1867541D1*
X613994Y1867096D1*
X614831Y1866536D1*
X615588Y1865872D1*
X616252Y1865115D1*
X616812Y1864277D1*
X617258Y1863374D1*
X617581Y1862420D1*
X617778Y1861432D1*
X617844Y1860427D1*
X617778Y1859422D1*
X617582Y1858434D1*
X617258Y1857481D1*
X616812Y1856577D1*
X616253Y1855740D1*
X615589Y1854982D1*
X614831Y1854318D1*
X613994Y1853759D1*
X613091Y1853313D1*
X612137Y1852989D1*
X611149Y1852793D1*
X610144Y1852727D1*
X610123D1*
G37*
X925496Y1041638D2*
D10*
Y399906D1*
X1407780D1*
Y1041638D1*
X925496D1*
X1407780Y752268D2*
X925496D1*
X1308722Y1870379D2*
Y1673526D1*
X1434690Y1870379D2*
Y1673526D1*
X1308722D2*
X1434690D1*
X1308722Y1870379D2*
X1352018D1*
X1391394D2*
X1434690D1*
X1352018D2*
G03X1391394Y1870379I19688J1D01*
G01*
X423528Y1041638D2*
Y399906D1*
X905811D1*
Y1041638D1*
X423528D1*
X905811Y752268D2*
X423528D1*
X594751Y1859377D2*
D51*
X598553Y1861278D1*
X602400Y1865125D1*
X604301Y1868927D1*
Y1876577D1*
X602399Y1880423D1*
X598552Y1884226D1*
X594750Y1886171D1*
X589002Y1888072D1*
X579407D1*
X573703Y1886171D1*
X569856Y1884225D1*
X566054Y1880422D1*
X564109Y1876575D1*
Y1868926D1*
X566055Y1865124D1*
X569857Y1861277D1*
X573704Y1859376D1*
X596608Y1847025D2*
X598554Y1843179D1*
X604258Y1837431D1*
X564110Y1837429D1*
X462000Y1651273D2*
X458197Y1649372D1*
X454351Y1645525D1*
X452450Y1641722D1*
Y1634073D1*
X454351Y1630226D1*
X458198Y1626424D1*
X462001Y1624478D1*
X467749Y1622577D1*
X477344Y1622578D1*
X483047Y1624479D1*
X486894Y1626425D1*
X490696Y1630227D1*
X492642Y1634074D1*
Y1641723D1*
X490696Y1645526D1*
X486893Y1649373D1*
X483047Y1651274D1*
X462044Y1665570D2*
X460143D1*
X456296Y1667471D1*
X454394Y1669372D1*
X452493Y1673219D1*
Y1680868D1*
X454394Y1684671D1*
X456295Y1686572D1*
X460142Y1688518D1*
X463944D1*
X467791Y1686573D1*
X473495Y1682770D1*
X492641Y1663625D1*
X492640Y1690420D1*
X599208Y1185744D2*
X597307Y1189547D1*
X593460Y1193394D1*
X589657Y1195295D1*
X582008D1*
X578161Y1193394D1*
X574359Y1189547D1*
X572413Y1185744D1*
X570512Y1179996D1*
Y1170402D1*
X572413Y1164698D1*
X574359Y1160851D1*
X578161Y1157048D1*
X582008Y1155103D1*
X589657D1*
X593460Y1157048D1*
X597307Y1160851D1*
X599208Y1164698D1*
X615406Y1195251D2*
X636409D1*
X624957Y1179952D1*
X630705D1*
X634507Y1178051D1*
X636409Y1176150D1*
X638354Y1170402D1*
Y1166599D1*
X636409Y1160851D1*
X632606Y1157004D1*
X626858Y1155103D1*
X621110D1*
X615406Y1157004D1*
X613505Y1158950D1*
X611559Y1162752D1*
X1562000Y1869074D2*
X1558197Y1867172D1*
X1554350Y1863326D1*
X1552449Y1859523D1*
Y1851874D1*
X1554350Y1848027D1*
X1558197Y1844224D1*
X1562000Y1842279D1*
X1567748Y1840378D1*
X1577342D1*
X1583046Y1842279D1*
X1586893Y1844224D1*
X1590696Y1848027D1*
X1592641Y1851874D1*
Y1859523D1*
X1590696Y1863326D1*
X1586893Y1867172D1*
X1583046Y1869074D1*
X1592641Y1900570D2*
X1552493D1*
X1579244Y1881425D1*
Y1910121D1*
X920026Y1573343D2*
X918124Y1577145D1*
X914278Y1580992D1*
X910475Y1582893D1*
X902826D1*
X898979Y1580992D1*
X895176Y1577145D1*
X893231Y1573343D1*
X891330Y1567595D1*
Y1558000D1*
X893231Y1552296D1*
X895176Y1548449D1*
X898979Y1544647D1*
X902826Y1542701D1*
X910475D1*
X914278Y1544647D1*
X918124Y1548449D1*
X920026Y1552296D1*
X955325Y1582849D2*
X936224D1*
X934322Y1565649D1*
X936224Y1567551D1*
X941972Y1569496D1*
X947676D1*
X953424Y1567551D1*
X957270Y1563748D1*
X959172Y1558000D1*
Y1554197D1*
X957270Y1548449D1*
X953424Y1544603D1*
X947676Y1542701D1*
X941972D1*
X936224Y1544603D1*
X934322Y1546548D1*
X932377Y1550351D1*
X1127248Y1573343D2*
X1125346Y1577145D1*
X1121500Y1580992D1*
X1117697Y1582893D1*
X1110048D1*
X1106201Y1580992D1*
X1102398Y1577145D1*
X1100453Y1573343D1*
X1098552Y1567595D1*
Y1558000D1*
X1100453Y1552296D1*
X1102398Y1548449D1*
X1106201Y1544647D1*
X1110048Y1542701D1*
X1117697D1*
X1121500Y1544647D1*
X1125346Y1548449D1*
X1127248Y1552296D1*
X1162547Y1577145D2*
X1160646Y1580948D1*
X1154898Y1582849D1*
X1151095D1*
X1145347Y1580948D1*
X1141500Y1575200D1*
X1139599Y1565649D1*
Y1556099D1*
X1141500Y1548449D1*
X1145347Y1544603D1*
X1151095Y1542701D1*
X1152996D1*
X1158700Y1544603D1*
X1162547Y1548449D1*
X1164448Y1554197D1*
Y1556099D1*
X1162547Y1561847D1*
X1158700Y1565649D1*
X1152996Y1567551D1*
X1151095D1*
X1145347Y1565649D1*
X1141500Y1561847D1*
X1139599Y1556099D1*
X1326274Y1573343D2*
X1324372Y1577145D1*
X1320526Y1580992D1*
X1316723Y1582893D1*
X1309074D1*
X1305227Y1580992D1*
X1301424Y1577145D1*
X1299479Y1573343D1*
X1297578Y1567595D1*
Y1558000D1*
X1299479Y1552296D1*
X1301424Y1548449D1*
X1305227Y1544647D1*
X1309074Y1542701D1*
X1316723D1*
X1320526Y1544647D1*
X1324372Y1548449D1*
X1326274Y1552296D1*
X1346274Y1542701D2*
X1365420Y1582849D1*
X1338625D1*
X726297Y1573344D2*
X724396Y1577147D1*
X720549Y1580993D1*
X716746Y1582895D1*
X709097D1*
X705250Y1580993D1*
X701448Y1577147D1*
X699502Y1573344D1*
X697601Y1567596D1*
Y1558001D1*
X699502Y1552298D1*
X701448Y1548451D1*
X705250Y1544648D1*
X709097Y1542703D1*
X716746D1*
X720549Y1544648D1*
X724396Y1548451D1*
X726297Y1552298D1*
X748199Y1582851D2*
X742495Y1580949D1*
X740550Y1577147D1*
Y1573300D1*
X742495Y1569497D1*
X746298Y1567552D1*
X753947Y1565651D1*
X759695Y1563749D1*
X763498Y1559903D1*
X765399Y1556100D1*
Y1550352D1*
X763498Y1546549D1*
X761596Y1544604D1*
X755848Y1542703D1*
X748199D1*
X742495Y1544604D1*
X740550Y1546549D1*
X738648Y1550352D1*
Y1556100D1*
X740550Y1559903D1*
X744396Y1563749D1*
X750100Y1565651D1*
X757750Y1567552D1*
X761596Y1569497D1*
X763498Y1573300D1*
Y1577147D1*
X761596Y1580949D1*
X755848Y1582851D1*
X748199D1*
X844359Y1350206D2*
X840512Y1348304D1*
X836710Y1344458D1*
X834764Y1340655D1*
X832863Y1334907D1*
Y1325312D1*
X834764Y1319609D1*
X836710Y1315762D1*
X840512Y1311959D1*
X844359Y1310014D1*
X852008D1*
X855811Y1311959D1*
X859658Y1315762D1*
X861559Y1319609D1*
X863460Y1325312D1*
Y1334907D1*
X861559Y1340655D1*
X859658Y1344458D1*
X855811Y1348304D1*
X852008Y1350206D1*
X844359D1*
X875812Y1329159D2*
X893056D1*
X898760Y1331060D1*
X900705Y1333006D1*
X902606Y1336808D1*
Y1342556D1*
X900705Y1346359D1*
X898760Y1348304D1*
X893056Y1350206D1*
X875812D1*
Y1310014D1*
X928355Y1350206D2*
Y1310014D1*
X914958Y1350206D2*
X941752D1*
X954104Y1342512D2*
X957951Y1344458D1*
X963699Y1350162D1*
Y1310014D1*
X534112Y1526414D2*
X551356D1*
X557060Y1528315D1*
X559005Y1530260D1*
X560906Y1534063D1*
Y1539811D1*
X559005Y1543614D1*
X557060Y1545559D1*
X551356Y1547460D1*
X534112D1*
Y1507268D1*
X600052Y1541712D2*
X596250Y1545559D1*
X590502Y1547460D1*
X582853D1*
X577104Y1545559D1*
X573258Y1541712D1*
Y1537910D1*
X575203Y1534063D1*
X577104Y1532162D1*
X580907Y1530260D1*
X592403Y1526414D1*
X596250Y1524512D1*
X598151Y1522567D1*
X600052Y1518764D1*
Y1513016D1*
X596250Y1509214D1*
X590502Y1507268D1*
X582853D1*
X577104Y1509214D1*
X573258Y1513016D1*
X612404Y1539767D2*
X616251Y1541712D1*
X621999Y1547416D1*
Y1507268D1*
X622702Y1643161D2*
X639946D1*
X645650Y1645063D1*
X647595Y1647008D1*
X649496Y1650811D1*
Y1656559D1*
X647595Y1660361D1*
X645649Y1662307D1*
X639945Y1664208D1*
X622701Y1664207D1*
X622702Y1624015D1*
X688642Y1658461D2*
X684839Y1662308D1*
X679091Y1664209D1*
X671442D1*
X665694Y1662307D1*
X661847Y1658461D1*
X661848Y1654658D1*
X663793Y1650811D1*
X665694Y1648910D1*
X669497Y1647009D1*
X680993Y1643162D1*
X684840Y1641261D1*
X686741Y1639316D1*
X688643Y1635513D1*
Y1629765D1*
X684841Y1625963D1*
X679093Y1624017D1*
X671443D1*
X665695Y1625962D1*
X661848Y1629765D1*
X702939Y1654615D2*
Y1656516D1*
X704840Y1660363D1*
X706741Y1662264D1*
X710588Y1664166D1*
X718237D1*
X722040Y1662265D1*
X723941Y1660364D1*
X725887Y1656517D1*
Y1652714D1*
X723942Y1648868D1*
X720139Y1643164D1*
X700995Y1624018D1*
X727789D1*
X916135Y1086702D2*
X933335D1*
X939083Y1088648D1*
X941028Y1090549D1*
X942929Y1094351D1*
Y1098198D1*
X941028Y1102001D1*
X939083Y1103946D1*
X933335Y1105847D1*
X916135D1*
Y1065655D1*
X929532Y1086702D2*
X942929Y1065655D1*
X955281Y1098154D2*
X959128Y1100099D1*
X964876Y1105803D1*
Y1065655D1*
X1110635Y1086700D2*
X1127834Y1086701D1*
X1133582Y1088646D1*
X1135528Y1090548D1*
X1137429Y1094350D1*
Y1098197D1*
X1135527Y1101999D1*
X1133582Y1103945D1*
X1127834Y1105846D1*
X1110634D1*
X1110635Y1065654D1*
X1124032Y1086701D2*
X1137430Y1065654D1*
X1151726Y1096252D2*
Y1098153D1*
X1153627Y1102000D1*
X1155528Y1103901D1*
X1159375Y1105803D1*
X1167024D1*
X1170827Y1103902D1*
X1172728Y1102001D1*
X1174674Y1098154D1*
Y1094351D1*
X1172728Y1090505D1*
X1168926Y1084801D1*
X1149781Y1065655D1*
X1176576D1*
X1327171Y1086114D2*
X1344371D1*
X1350119Y1088060D1*
X1352065Y1089961D1*
X1353966Y1093764D1*
Y1097610D1*
X1352065Y1101413D1*
X1350119Y1103358D1*
X1344371Y1105260D1*
X1327171D1*
Y1065068D1*
X1340569Y1086114D2*
X1353966Y1065068D1*
X1370164Y1105215D2*
X1391167D1*
X1379715Y1089917D1*
X1385463D1*
X1389265Y1088015D1*
X1391167Y1086114D1*
X1393112Y1080366D1*
Y1076564D1*
X1391167Y1070816D1*
X1387364Y1066969D1*
X1381616Y1065068D1*
X1375868D1*
X1370164Y1066969D1*
X1368263Y1068914D1*
X1366317Y1072717D1*
X1422135Y1036114D2*
X1439335D1*
X1445083Y1038060D1*
X1447029Y1039961D1*
X1448930Y1043764D1*
Y1047610D1*
X1447029Y1051413D1*
X1445083Y1053358D1*
X1439335Y1055260D1*
X1422135D1*
Y1015068D1*
X1435533Y1036114D2*
X1448930Y1015068D1*
X1480427D2*
Y1055215D1*
X1461281Y1028465D1*
X1489977D1*
X837852Y1675075D2*
X855052D1*
X860800Y1677020D1*
X862746Y1678922D1*
X864647Y1682724D1*
Y1686571D1*
X862746Y1690373D1*
X860800Y1692319D1*
X855052Y1694220D1*
X837852D1*
Y1654028D1*
X851250Y1675075D2*
X864647Y1654028D1*
X899946Y1694176D2*
X880845D1*
X878944Y1676976D1*
X880845Y1678877D1*
X886593Y1680823D1*
X892297D1*
X898045Y1678877D1*
X901892Y1675075D1*
X903793Y1669327D1*
Y1665524D1*
X901892Y1659776D1*
X898045Y1655929D1*
X892297Y1654028D1*
X886593D1*
X880845Y1655929D1*
X878944Y1657875D1*
X876999Y1661677D1*
X980358Y1668824D2*
X997558D1*
X1003306Y1670770D1*
X1005251Y1672671D1*
X1007153Y1676473D1*
Y1680320D1*
X1005251Y1684123D1*
X1003306Y1686068D1*
X997558Y1687970D1*
X980358D1*
Y1647778D1*
X993755Y1668824D2*
X1007153Y1647778D1*
X1042452Y1682222D2*
X1040551Y1686024D1*
X1034803Y1687925D1*
X1031000D1*
X1025252Y1686024D1*
X1021405Y1680276D1*
X1019504Y1670725D1*
Y1661175D1*
X1021405Y1653526D1*
X1025252Y1649679D1*
X1031000Y1647778D1*
X1032901D1*
X1038605Y1649679D1*
X1042452Y1653526D1*
X1044353Y1659274D1*
Y1661175D1*
X1042452Y1666923D1*
X1038605Y1670725D1*
X1032901Y1672627D1*
X1031000D1*
X1025252Y1670725D1*
X1021405Y1666923D1*
X1019504Y1661175D1*
X1498108Y1625076D2*
X1515308D1*
X1521056Y1627022D1*
X1523002Y1628923D1*
X1524903Y1632725D1*
Y1636572D1*
X1523002Y1640375D1*
X1521056Y1642320D1*
X1515308Y1644222D1*
X1498108D1*
Y1604030D1*
X1511506Y1625076D2*
X1524903Y1604030D1*
X1546805Y1644177D2*
X1541101Y1642276D1*
X1539156Y1638473D1*
Y1634627D1*
X1541101Y1630824D1*
X1544904Y1628879D1*
X1552553Y1626977D1*
X1558301Y1625076D1*
X1562103Y1621229D1*
X1564005Y1617427D1*
Y1611679D1*
X1562103Y1607876D1*
X1560202Y1605931D1*
X1554454Y1604030D1*
X1546805D1*
X1541101Y1605931D1*
X1539156Y1607876D1*
X1537254Y1611679D1*
Y1617427D1*
X1539156Y1621229D1*
X1543002Y1625076D1*
X1548706Y1626977D1*
X1556355Y1628879D1*
X1560202Y1630824D1*
X1562103Y1634627D1*
Y1638473D1*
X1560202Y1642276D1*
X1554454Y1644177D1*
X1546805D1*
X672413Y1427379D2*
X689613D1*
X695361Y1429325D1*
X697307Y1431226D1*
X699208Y1435029D1*
Y1438875D1*
X697307Y1442678D1*
X695361Y1444623D1*
X689613Y1446525D1*
X672413D1*
Y1406333D1*
X685811Y1427379D2*
X699208Y1406333D1*
X736453Y1433127D2*
X734507Y1427379D1*
X730705Y1423533D1*
X724957Y1421631D1*
X723055D1*
X717307Y1423533D1*
X713505Y1427379D1*
X711559Y1433127D1*
Y1435029D1*
X713505Y1440777D1*
X717307Y1444579D1*
X723055Y1446480D1*
X724957D1*
X730705Y1444579D1*
X734507Y1440777D1*
X736453Y1433127D1*
Y1423533D1*
X734507Y1413982D1*
X730705Y1408234D1*
X724957Y1406333D1*
X721154D1*
X715406Y1408234D1*
X713505Y1412081D1*
X796867Y1925443D2*
Y1908244D1*
X798813Y1902496D1*
X800714Y1900550D1*
X804517Y1898649D1*
X808364D1*
X812166Y1900550D1*
X814112Y1902496D1*
X816013Y1908244D1*
Y1925443D1*
X775821D1*
X796867Y1912046D2*
X775821Y1898649D1*
X808319Y1886297D2*
X810265Y1882451D1*
X815969Y1876703D1*
X775821D1*
X815969Y1852855D2*
X814067Y1858603D1*
X808319Y1862450D1*
X798769Y1864351D1*
X793021D1*
X783470Y1862450D1*
X777722Y1858603D1*
X775821Y1852855D1*
Y1849053D1*
X777722Y1843305D1*
X783470Y1839502D1*
X793021Y1837557D1*
X798769D1*
X808319Y1839502D1*
X814067Y1843305D1*
X815969Y1849053D1*
Y1852855D1*
X808319Y1839502D2*
X783470Y1862450D1*
X903118Y1798094D2*
Y1780894D1*
X905064Y1775146D1*
X906965Y1773201D1*
X910767Y1771300D1*
X914614D1*
X918417Y1773201D1*
X920362Y1775146D1*
X922264Y1780894D1*
Y1798094D1*
X882071D1*
X903118Y1784697D2*
X882071Y1771300D1*
X914570Y1758948D2*
X916515Y1755101D1*
X922219Y1749353D1*
X882071D1*
X914570Y1737002D2*
X916515Y1733155D1*
X922219Y1727407D1*
X882071D1*
X1028117Y1906694D2*
Y1889494D1*
X1030062Y1883746D1*
X1031964Y1881801D1*
X1035766Y1879899D1*
X1039613D1*
X1043415Y1881801D1*
X1045361Y1883746D1*
X1047262Y1889494D1*
Y1906694D1*
X1007070D1*
X1028117Y1893297D2*
X1007070Y1879899D1*
X1039569Y1867548D2*
X1041514Y1863701D1*
X1047218Y1857953D1*
X1007070D1*
X1037667Y1843656D2*
X1039569D1*
X1043415Y1841755D1*
X1045317Y1839854D1*
X1047218Y1836007D1*
Y1828358D1*
X1045317Y1824555D1*
X1043415Y1822654D1*
X1039569Y1820708D1*
X1035766D1*
X1031919Y1822654D1*
X1026216Y1826456D1*
X1007070Y1845602D1*
Y1818807D1*
X1121867Y1912945D2*
Y1895745D1*
X1123813Y1889997D1*
X1125714Y1888051D1*
X1129517Y1886150D1*
X1133364D1*
X1137166Y1888051D1*
X1139112Y1889997D1*
X1141013Y1895745D1*
Y1912945D1*
X1100821D1*
X1121867Y1899547D2*
X1100821Y1886150D1*
X1133319Y1873799D2*
X1135265Y1869952D1*
X1140969Y1864204D1*
X1100821D1*
X1140969Y1848006D2*
Y1827003D1*
X1125670Y1838455D1*
Y1832707D1*
X1123769Y1828905D1*
X1121867Y1827003D1*
X1116119Y1825058D1*
X1112317D1*
X1106569Y1827003D1*
X1102722Y1830806D1*
X1100821Y1836554D1*
Y1842302D1*
X1102722Y1848006D1*
X1104668Y1849907D1*
X1108470Y1851853D1*
X1122570Y1100216D2*
Y1060024D1*
X1109173Y1100216D2*
X1135968D1*
X1148319D2*
Y1060024D1*
X1165563D1*
X1171311Y1061970D1*
X1173213Y1063871D1*
X1175114Y1067674D1*
Y1073422D1*
X1173213Y1077268D1*
X1171311Y1079170D1*
X1165563Y1081071D1*
X1171311Y1083016D1*
X1173213Y1084918D1*
X1175114Y1088720D1*
Y1092567D1*
X1173213Y1096369D1*
X1171311Y1098315D1*
X1165563Y1100216D1*
X1148319D1*
Y1081071D2*
X1165563D1*
X1189411Y1090621D2*
Y1092523D1*
X1191312Y1096369D1*
X1193213Y1098271D1*
X1197060Y1100172D1*
X1204709D1*
X1208512Y1098271D1*
X1210413Y1096369D1*
X1212359Y1092523D1*
Y1088720D1*
X1210413Y1084873D1*
X1206611Y1079170D1*
X1187465Y1060024D1*
X1214260D1*
X1357485Y1841458D2*
Y1812762D1*
X1359386Y1807014D1*
X1363233Y1803211D1*
X1368981Y1801266D1*
X1372784D1*
X1378532Y1803211D1*
X1382378Y1807014D1*
X1384280Y1812762D1*
Y1841458D1*
X1398577Y1831863D2*
Y1833764D1*
X1400478Y1837611D1*
X1402379Y1839512D1*
X1406226Y1841414D1*
X1413875D1*
X1417678Y1839512D1*
X1419579Y1837611D1*
X1421524Y1833764D1*
Y1829962D1*
X1419579Y1826115D1*
X1415776Y1820411D1*
X1396631Y1801266D1*
X1423426D1*
X629202Y1100216D2*
Y1060024D1*
X615805Y1100216D2*
X642599D1*
X654951D2*
Y1060024D1*
X672195D1*
X677943Y1061970D1*
X679844Y1063871D1*
X681745Y1067674D1*
Y1073422D1*
X679844Y1077268D1*
X677943Y1079170D1*
X672195Y1081071D1*
X677943Y1083016D1*
X679844Y1084918D1*
X681745Y1088720D1*
Y1092567D1*
X679844Y1096369D1*
X677943Y1098315D1*
X672195Y1100216D1*
X654951D1*
Y1081071D2*
X672195D1*
X694097Y1092523D2*
X697943Y1094468D1*
X703691Y1100172D1*
Y1060024D1*
M02*
