G04 DipTrace 4.0.0.2*
G04 1 - Top.gbr*
%MOIN*%
G04 #@! TF.FileFunction,Copper,L1,Top*
G04 #@! TF.Part,Single*
%AMOUTLINE0*
4,1,28,
-0.019803,0.025591,
0.019803,0.025591,
0.02232,0.025259,
0.024665,0.024288,
0.026679,0.022742,
0.028225,0.020728,
0.029196,0.018383,
0.029528,0.015866,
0.029528,-0.015866,
0.029196,-0.018383,
0.028225,-0.020728,
0.026679,-0.022742,
0.024665,-0.024288,
0.02232,-0.025259,
0.019803,-0.025591,
-0.019803,-0.025591,
-0.02232,-0.025259,
-0.024665,-0.024288,
-0.026679,-0.022742,
-0.028225,-0.020728,
-0.029196,-0.018383,
-0.029528,-0.015866,
-0.029528,0.015866,
-0.029196,0.018383,
-0.028225,0.020728,
-0.026679,0.022742,
-0.024665,0.024288,
-0.02232,0.025259,
-0.019803,0.025591,
0*%
G04 #@! TA.AperFunction,Conductor*
%ADD15C,0.012*%
%ADD16C,0.02*%
%ADD17C,0.075*%
G04 #@! TA.AperFunction,CopperBalancing*
%ADD19C,0.025*%
%ADD21R,0.037402X0.084646*%
%ADD22R,0.127953X0.084646*%
G04 #@! TA.AperFunction,ComponentPad*
%ADD23R,0.086614X0.086614*%
%ADD24C,0.086614*%
%ADD25R,0.059055X0.059055*%
%ADD26C,0.059055*%
%ADD28R,0.047244X0.047244*%
%ADD29R,0.043307X0.03937*%
G04 #@! TA.AperFunction,ViaPad*
%ADD30C,0.04*%
%ADD59OUTLINE0*%
%FSLAX26Y26*%
G04*
G70*
G90*
G75*
G01*
G04 Top*
%LPD*%
X1078839Y1287500D2*
D15*
X1125000D1*
X785088D2*
X825000D1*
X485088D2*
X531249D1*
X216339D2*
X262500D1*
X56251Y1406152D2*
D16*
Y1551136D1*
X79916Y1574803D1*
X403198Y1173547D2*
X395203D1*
X368751Y1200000D1*
X403198Y1173547D2*
X386049D1*
X368751Y1156249D1*
X403198Y1173547D2*
Y1146948D1*
X368751Y1112500D1*
X403198Y1173547D2*
Y1115551D1*
X406249Y1112500D1*
X703198Y1173547D2*
X688953D1*
X668751Y1193749D1*
X703198Y1173547D2*
X686049D1*
X668751Y1156249D1*
X703198Y1173547D2*
Y1146948D1*
X668751Y1112500D1*
X703198Y1173547D2*
Y1115551D1*
X706249Y1112500D1*
X996949Y1173547D2*
X982702D1*
X962500Y1193749D1*
X996949Y1173547D2*
X979798D1*
X962500Y1156249D1*
X996949Y1173547D2*
Y1153199D1*
X962500Y1118751D1*
X996949Y1173547D2*
Y1121802D1*
X1000000Y1118751D1*
X56251Y1331349D2*
Y1200000D1*
X62500Y1193751D1*
X147785Y1368749D2*
Y1347785D1*
X133661Y1333661D1*
Y1287500D1*
X379916Y1574803D2*
Y1517416D1*
X318751Y1456249D1*
Y1368749D1*
Y1275000D1*
X287500Y1243749D1*
Y1173547D1*
X284301D1*
X214714Y1368749D2*
X318751D1*
X479916Y1574803D2*
Y1463835D1*
X528285Y1415466D1*
X584301Y1359450D1*
Y1173547D1*
X477214Y1368751D2*
D15*
X481570D1*
X528285Y1415466D1*
X579916Y1574803D2*
D16*
X593949D1*
X725001Y1443751D1*
X825000D1*
X830175Y1438576D1*
X881249Y1387501D1*
Y1181252D1*
X884301Y1178201D1*
Y1173547D1*
X777215Y1368751D2*
D15*
X760349D1*
X830175Y1438576D1*
X679916Y1574803D2*
D16*
X754719Y1500000D1*
X1125000D1*
X1178051Y1446949D1*
Y1368751D1*
Y1173547D1*
X1070965Y1368751D2*
D15*
X1178051D1*
X218602Y125000D2*
D17*
Y250148D1*
X193749Y275001D1*
Y945201D1*
Y1173547D2*
D16*
Y945201D1*
X493749Y1173547D2*
Y945201D1*
X494193Y125000D2*
D17*
Y230807D1*
X393749Y331251D1*
Y845201D1*
X493749Y945201D1*
X793749Y1173547D2*
D16*
Y945201D1*
X769783Y125000D2*
D17*
Y226034D1*
X831249Y287500D1*
Y907701D1*
X793749Y945201D1*
X1087500Y1173547D2*
D16*
Y945201D1*
X1045374Y125000D2*
D17*
Y248375D1*
X931249Y362500D1*
Y668749D1*
X1075000Y812500D1*
Y932701D1*
X1087500Y945201D1*
X710286Y1368748D2*
D15*
Y1295375D1*
X702411Y1287500D1*
X996161D2*
Y1360874D1*
X1004035Y1368748D1*
X402411Y1287500D2*
Y1360874D1*
X410285Y1368748D1*
D30*
X62500Y1193751D3*
Y1143749D3*
Y1100000D3*
X100000D3*
X262500Y1287500D3*
X531249D3*
X825000D3*
X1125000D3*
X368751Y1200000D3*
Y1156249D3*
X406249Y1112500D3*
X368751D3*
X668751Y1193749D3*
Y1156249D3*
Y1112500D3*
X706249D3*
X962500Y1193749D3*
Y1156249D3*
Y1118751D3*
X1000000D3*
X58769Y1181382D2*
D19*
X109999D1*
X58769Y1156513D2*
X109999D1*
X58769Y1131644D2*
X109999D1*
X58769Y1106776D2*
X109999D1*
X112533Y1206251D2*
X56266D1*
X56251Y1087509D1*
X112484Y1087500D1*
X112500Y1206241D1*
X365018Y1181382D2*
X410005D1*
X365018Y1156513D2*
X410005D1*
X365018Y1131644D2*
X410005D1*
X365018Y1106776D2*
X410005D1*
X412503Y1206251D2*
X362480D1*
X362500Y1106224D1*
X412520Y1106251D1*
X412500Y1206277D1*
X665018Y1181382D2*
X710005D1*
X665018Y1156512D2*
X710005D1*
X665018Y1131643D2*
X710005D1*
X665018Y1106776D2*
X710005D1*
X712503Y1206249D2*
X662480D1*
X662500Y1106224D1*
X712520Y1106251D1*
X712500Y1206276D1*
X958768Y1181382D2*
X1003755D1*
X958768Y1156512D2*
X1003755D1*
X958768Y1131643D2*
X1003755D1*
X1006245Y1206249D2*
X956222D1*
X956251Y1112483D1*
X1006269Y1112500D1*
X1006249Y1206266D1*
D21*
X284301Y1173547D3*
X193749D3*
X103198D3*
D22*
X193749Y945201D3*
D21*
X584301Y1173547D3*
X493749D3*
X403198D3*
D22*
X493749Y945201D3*
D21*
X884301Y1173547D3*
X793749D3*
X703198D3*
D22*
X793749Y945201D3*
D21*
X1178051Y1173547D3*
X1087500D3*
X996949D3*
D22*
X1087500Y945201D3*
D23*
X80807Y125000D3*
D24*
X218602D3*
X356398D3*
X494193D3*
X631988D3*
X769783D3*
X907579D3*
X1045374D3*
D25*
X79916Y1574803D3*
D26*
X179916D3*
X279916D3*
X379916D3*
X479916D3*
X579916D3*
X679916D3*
X779916D3*
X879907D3*
X979907D3*
X1079907D3*
X1179907D3*
D28*
X133661Y1287500D3*
X216339D3*
X402411D3*
X485088D3*
X702411D3*
X785088D3*
X996161D3*
X1078839D3*
D29*
X214714Y1368749D3*
X147785D3*
X477214Y1368750D3*
X410285Y1368749D3*
X777215Y1368750D3*
X710286Y1368749D3*
X1070965Y1368750D3*
X1004035Y1368749D3*
D23*
X550000Y593455D3*
D24*
Y731251D3*
D59*
X56251Y1406152D3*
Y1331349D3*
M02*
