G04 DipTrace 4.0.0.2*
G04 2 - Bottom.gbr*
%MOIN*%
G04 #@! TF.FileFunction,Copper,L2,Bot*
G04 #@! TF.Part,Single*
G04 #@! TA.AperFunction,CopperBalancing*
%ADD18C,0.013*%
%ADD19C,0.025*%
G04 #@! TA.AperFunction,ComponentPad*
%ADD23R,0.086614X0.086614*%
%ADD24C,0.086614*%
%ADD25R,0.059055X0.059055*%
%ADD26C,0.059055*%
G04 #@! TA.AperFunction,ViaPad*
%ADD30C,0.04*%
%FSLAX26Y26*%
G04*
G70*
G90*
G75*
G01*
G04 Bottom*
%LPD*%
D30*
X62500Y1193751D3*
Y1143749D3*
Y1100000D3*
X100000D3*
X262500Y1287500D3*
X531249D3*
X825000D3*
X1125000D3*
X368751Y1200000D3*
Y1156249D3*
X406249Y1112500D3*
X368751D3*
X668751Y1193749D3*
Y1156249D3*
Y1112500D3*
X706249D3*
X962500Y1193749D3*
Y1156249D3*
Y1118751D3*
X1000000D3*
X39290Y1605631D2*
D18*
X139827D1*
X219996D2*
X239815D1*
X320009D2*
X339829D1*
X419997D2*
X439818D1*
X520012D2*
X539831D1*
X620000D2*
X639819D1*
X720013D2*
X739833D1*
X820001D2*
X839822D1*
X919990D2*
X939810D1*
X1020004D2*
X1039823D1*
X1119992D2*
X1223449D1*
X39265Y1592762D2*
X132438D1*
X1127381D2*
X1223449D1*
X39265Y1579894D2*
X129341D1*
X1130504D2*
X1223449D1*
X39265Y1567025D2*
X129671D1*
X1130148D2*
X1223449D1*
X39240Y1554156D2*
X133581D1*
X226268D2*
X233570D1*
X326256D2*
X333584D1*
X426269D2*
X433571D1*
X526257D2*
X533585D1*
X626245D2*
X633584D1*
X726260D2*
X733587D1*
X826248D2*
X833571D1*
X926236D2*
X933563D1*
X1026249D2*
X1033577D1*
X1126238D2*
X1223449D1*
X39240Y1541287D2*
X142113D1*
X217710D2*
X242126D1*
X317698D2*
X342114D1*
X417713D2*
X442129D1*
X517701D2*
X542117D1*
X617714D2*
X642130D1*
X717702D2*
X742118D1*
X817717D2*
X842106D1*
X917705D2*
X942121D1*
X1017693D2*
X1042109D1*
X1117706D2*
X1223449D1*
X39240Y1528419D2*
X161206D1*
X198642D2*
X261194D1*
X298630D2*
X361209D1*
X398644D2*
X461197D1*
X498633D2*
X561185D1*
X598646D2*
X661198D1*
X698634D2*
X761186D1*
X798648D2*
X861175D1*
X898636D2*
X961189D1*
X998625D2*
X1061177D1*
X1098638D2*
X1223449D1*
X39214Y1515550D2*
X1223449D1*
X39214Y1502681D2*
X1223449D1*
X39214Y1489812D2*
X1223449D1*
X39189Y1476944D2*
X1223449D1*
X39189Y1464075D2*
X1223449D1*
X39189Y1451206D2*
X1223449D1*
X39164Y1438337D2*
X1223449D1*
X39164Y1425469D2*
X1223449D1*
X39164Y1412600D2*
X1223449D1*
X39138Y1399731D2*
X1223449D1*
X39138Y1386862D2*
X1223449D1*
X39138Y1373993D2*
X1223449D1*
X39113Y1361125D2*
X1223449D1*
X39113Y1348256D2*
X1223449D1*
X39088Y1335387D2*
X1223449D1*
X39088Y1322518D2*
X1223449D1*
X39088Y1309650D2*
X1223449D1*
X39062Y1296781D2*
X1223449D1*
X39062Y1283912D2*
X1223449D1*
X39062Y1271043D2*
X1223449D1*
X229311Y1570916D2*
X228094Y1563236D1*
X225692Y1555843D1*
X222163Y1548915D1*
X217592Y1542625D1*
X212094Y1537127D1*
X205804Y1532556D1*
X198877Y1529028D1*
X191483Y1526625D1*
X183803Y1525408D1*
X176029D1*
X168349Y1526625D1*
X160955Y1529028D1*
X154028Y1532556D1*
X147738Y1537127D1*
X142240Y1542625D1*
X137669Y1548915D1*
X134140Y1555843D1*
X131738Y1563236D1*
X130521Y1570916D1*
Y1578690D1*
X131738Y1586370D1*
X134140Y1593764D1*
X137669Y1600692D1*
X142240Y1606982D1*
X147738Y1612479D1*
X152220Y1615843D1*
X37986Y1615563D1*
X37753Y1269014D1*
X1224738Y1269000D1*
X1224751Y1618475D1*
X1103831Y1618186D1*
X1109030Y1614888D1*
X1114942Y1609839D1*
X1119992Y1603927D1*
X1124054Y1597298D1*
X1127029Y1590114D1*
X1128844Y1582554D1*
X1129454Y1574803D1*
X1128844Y1567052D1*
X1127029Y1559492D1*
X1124054Y1552308D1*
X1119992Y1545680D1*
X1114942Y1539768D1*
X1109030Y1534718D1*
X1102402Y1530656D1*
X1095218Y1527681D1*
X1087657Y1525866D1*
X1079907Y1525256D1*
X1072156Y1525866D1*
X1064596Y1527681D1*
X1057412Y1530656D1*
X1050783Y1534718D1*
X1044871Y1539768D1*
X1039822Y1545680D1*
X1035760Y1552308D1*
X1032785Y1559492D1*
X1030970Y1567052D1*
X1030360Y1574803D1*
X1030970Y1582554D1*
X1032785Y1590114D1*
X1035760Y1597298D1*
X1039822Y1603927D1*
X1044871Y1609839D1*
X1050783Y1614888D1*
X1055835Y1618067D1*
X1004299Y1617941D1*
X1009030Y1614888D1*
X1014942Y1609839D1*
X1019992Y1603927D1*
X1024054Y1597298D1*
X1027029Y1590114D1*
X1028844Y1582554D1*
X1029454Y1574803D1*
X1028844Y1567052D1*
X1027029Y1559492D1*
X1024054Y1552308D1*
X1019992Y1545680D1*
X1014942Y1539768D1*
X1009030Y1534718D1*
X1002402Y1530656D1*
X995218Y1527681D1*
X987657Y1525866D1*
X979907Y1525256D1*
X972156Y1525866D1*
X964596Y1527681D1*
X957412Y1530656D1*
X950783Y1534718D1*
X944871Y1539768D1*
X939822Y1545680D1*
X935760Y1552308D1*
X932785Y1559492D1*
X930970Y1567052D1*
X930360Y1574803D1*
X930970Y1582554D1*
X932785Y1590114D1*
X935760Y1597298D1*
X939822Y1603927D1*
X944871Y1609839D1*
X950783Y1614888D1*
X955385Y1617814D1*
X904718Y1617697D1*
X909030Y1614888D1*
X914942Y1609839D1*
X919992Y1603927D1*
X924054Y1597298D1*
X927029Y1590114D1*
X928844Y1582554D1*
X929454Y1574803D1*
X928844Y1567052D1*
X927029Y1559492D1*
X924054Y1552308D1*
X919992Y1545680D1*
X914942Y1539768D1*
X909030Y1534718D1*
X902402Y1530656D1*
X895218Y1527681D1*
X887657Y1525866D1*
X879907Y1525256D1*
X872156Y1525866D1*
X864596Y1527681D1*
X857412Y1530656D1*
X850783Y1534718D1*
X844871Y1539768D1*
X839822Y1545680D1*
X835760Y1552308D1*
X832785Y1559492D1*
X830970Y1567052D1*
X830360Y1574803D1*
X830970Y1582554D1*
X832785Y1590114D1*
X835760Y1597298D1*
X839822Y1603927D1*
X844871Y1609839D1*
X850783Y1614888D1*
X854959Y1617576D1*
X805136Y1617451D1*
X809039Y1614888D1*
X814951Y1609839D1*
X820001Y1603927D1*
X824063Y1597298D1*
X827038Y1590114D1*
X828853Y1582554D1*
X829463Y1574803D1*
X828853Y1567052D1*
X827038Y1559492D1*
X824063Y1552308D1*
X820001Y1545680D1*
X814951Y1539768D1*
X809039Y1534718D1*
X802411Y1530656D1*
X795227Y1527681D1*
X787667Y1525866D1*
X779916Y1525256D1*
X772165Y1525866D1*
X764605Y1527681D1*
X757421Y1530656D1*
X750793Y1534718D1*
X744881Y1539768D1*
X739831Y1545680D1*
X735769Y1552308D1*
X732794Y1559492D1*
X730979Y1567052D1*
X730369Y1574803D1*
X730979Y1582554D1*
X732794Y1590114D1*
X735769Y1597298D1*
X739831Y1603927D1*
X744881Y1609839D1*
X750793Y1614888D1*
X754518Y1617324D1*
X705554Y1617206D1*
X709039Y1614888D1*
X714951Y1609839D1*
X720001Y1603927D1*
X724063Y1597298D1*
X727038Y1590114D1*
X728853Y1582554D1*
X729463Y1574803D1*
X728853Y1567052D1*
X727038Y1559492D1*
X724063Y1552308D1*
X720001Y1545680D1*
X714951Y1539768D1*
X709039Y1534718D1*
X702411Y1530656D1*
X695227Y1527681D1*
X687667Y1525866D1*
X679916Y1525256D1*
X672165Y1525866D1*
X664605Y1527681D1*
X657421Y1530656D1*
X650793Y1534718D1*
X644881Y1539768D1*
X639831Y1545680D1*
X635769Y1552308D1*
X632794Y1559492D1*
X630979Y1567052D1*
X630369Y1574803D1*
X630979Y1582554D1*
X632794Y1590114D1*
X635769Y1597298D1*
X639831Y1603927D1*
X644881Y1609839D1*
X650793Y1614888D1*
X654093Y1617087D1*
X605972Y1616961D1*
X612094Y1612479D1*
X617592Y1606982D1*
X622163Y1600692D1*
X625692Y1593764D1*
X628094Y1586370D1*
X629311Y1578690D1*
Y1570916D1*
X628094Y1563236D1*
X625692Y1555843D1*
X622163Y1548915D1*
X617592Y1542625D1*
X612094Y1537127D1*
X605804Y1532556D1*
X598877Y1529028D1*
X591483Y1526625D1*
X583803Y1525408D1*
X576029D1*
X568349Y1526625D1*
X560955Y1529028D1*
X554028Y1532556D1*
X547738Y1537127D1*
X542240Y1542625D1*
X537669Y1548915D1*
X534140Y1555843D1*
X531738Y1563236D1*
X530521Y1570916D1*
Y1578690D1*
X531738Y1586370D1*
X534140Y1593764D1*
X537669Y1600692D1*
X542240Y1606982D1*
X547738Y1612479D1*
X553711Y1616839D1*
X506340Y1616715D1*
X512094Y1612479D1*
X517592Y1606982D1*
X522163Y1600692D1*
X525692Y1593764D1*
X528094Y1586370D1*
X529311Y1578690D1*
Y1570916D1*
X528094Y1563236D1*
X525692Y1555843D1*
X522163Y1548915D1*
X517592Y1542625D1*
X512094Y1537127D1*
X505804Y1532556D1*
X498877Y1529028D1*
X491483Y1526625D1*
X483803Y1525408D1*
X476029D1*
X468349Y1526625D1*
X460955Y1529028D1*
X454028Y1532556D1*
X447738Y1537127D1*
X442240Y1542625D1*
X437669Y1548915D1*
X434140Y1555843D1*
X431738Y1563236D1*
X430521Y1570916D1*
Y1578690D1*
X431738Y1586370D1*
X434140Y1593764D1*
X437669Y1600692D1*
X442240Y1606982D1*
X447738Y1612479D1*
X453332Y1616585D1*
X406707Y1616471D1*
X412094Y1612479D1*
X417592Y1606982D1*
X422163Y1600692D1*
X425692Y1593764D1*
X428094Y1586370D1*
X429311Y1578690D1*
Y1570916D1*
X428094Y1563236D1*
X425692Y1555843D1*
X422163Y1548915D1*
X417592Y1542625D1*
X412094Y1537127D1*
X405804Y1532556D1*
X398877Y1529028D1*
X391483Y1526625D1*
X383803Y1525408D1*
X376029D1*
X368349Y1526625D1*
X360955Y1529028D1*
X354028Y1532556D1*
X347738Y1537127D1*
X342240Y1542625D1*
X337669Y1548915D1*
X334140Y1555843D1*
X331738Y1563236D1*
X330521Y1570916D1*
Y1578690D1*
X331738Y1586370D1*
X334140Y1593764D1*
X337669Y1600692D1*
X342240Y1606982D1*
X347738Y1612479D1*
X352954Y1616332D1*
X307126Y1616226D1*
X312094Y1612479D1*
X317592Y1606982D1*
X322163Y1600692D1*
X325692Y1593764D1*
X328094Y1586370D1*
X329311Y1578690D1*
Y1570916D1*
X328094Y1563236D1*
X325692Y1555843D1*
X322163Y1548915D1*
X317592Y1542625D1*
X312094Y1537127D1*
X305804Y1532556D1*
X298877Y1529028D1*
X291483Y1526625D1*
X283803Y1525408D1*
X276029D1*
X268349Y1526625D1*
X260955Y1529028D1*
X254028Y1532556D1*
X247738Y1537127D1*
X242240Y1542625D1*
X237669Y1548915D1*
X234140Y1555843D1*
X231738Y1563236D1*
X230521Y1570916D1*
Y1578690D1*
X231738Y1586370D1*
X234140Y1593764D1*
X237669Y1600692D1*
X242240Y1606982D1*
X247738Y1612479D1*
X252600Y1616096D1*
X207493Y1615980D1*
X212094Y1612479D1*
X217592Y1606982D1*
X222163Y1600692D1*
X225692Y1593764D1*
X228094Y1586370D1*
X229311Y1578690D1*
Y1570916D1*
X46268Y593882D2*
D19*
X960010D1*
X46268Y569013D2*
X960010D1*
X46268Y544144D2*
X960010D1*
X46268Y519276D2*
X960010D1*
X46268Y494407D2*
X960010D1*
X46268Y469538D2*
X960010D1*
X46268Y444669D2*
X960010D1*
X46268Y419801D2*
X960010D1*
X46268Y394932D2*
X960010D1*
X46268Y370063D2*
X960010D1*
X46268Y345194D2*
X960010D1*
X46268Y320325D2*
X960010D1*
X46268Y295457D2*
X960010D1*
X46268Y270588D2*
X960010D1*
X46268Y245719D2*
X960010D1*
X46268Y220850D2*
X960010D1*
X46268Y195982D2*
X175438D1*
X261789D2*
X451029D1*
X537379D2*
X726619D1*
X812970D2*
X960010D1*
X46268Y171113D2*
X148526D1*
X288665D2*
X424117D1*
X564256D2*
X699707D1*
X839846D2*
X960010D1*
X46268Y146244D2*
X137114D1*
X300113D2*
X412705D1*
X575703D2*
X688295D1*
X851294D2*
X960010D1*
X46268Y121375D2*
X134387D1*
X302840D2*
X409978D1*
X578430D2*
X685568D1*
X854021D2*
X960010D1*
X46268Y96507D2*
X139411D1*
X297781D2*
X415001D1*
X573371D2*
X690592D1*
X848962D2*
X960010D1*
X300157Y118581D2*
X299403Y112202D1*
X298150Y105903D1*
X296406Y99720D1*
X294182Y93694D1*
X291285Y87488D1*
X421522Y87500D1*
X418613Y93694D1*
X416390Y99720D1*
X414646Y105903D1*
X413392Y112202D1*
X412638Y118581D1*
X412386Y125000D1*
X412638Y131419D1*
X413392Y137798D1*
X414646Y144097D1*
X416390Y150280D1*
X418613Y156306D1*
X421302Y162139D1*
X424441Y167744D1*
X428009Y173085D1*
X431987Y178130D1*
X436346Y182846D1*
X441063Y187206D1*
X446108Y191184D1*
X451449Y194752D1*
X457054Y197891D1*
X462887Y200580D1*
X468913Y202803D1*
X475096Y204547D1*
X481395Y205801D1*
X487774Y206555D1*
X494193Y206807D1*
X500612Y206555D1*
X506991Y205801D1*
X513290Y204547D1*
X519472Y202803D1*
X525499Y200580D1*
X531332Y197891D1*
X536937Y194752D1*
X542278Y191184D1*
X547323Y187206D1*
X552039Y182846D1*
X556399Y178130D1*
X560377Y173085D1*
X563945Y167744D1*
X567084Y162139D1*
X569773Y156306D1*
X571996Y150280D1*
X573740Y144097D1*
X574993Y137798D1*
X575748Y131419D1*
X576000Y125000D1*
X575748Y118581D1*
X574993Y112202D1*
X573740Y105903D1*
X571996Y99720D1*
X569773Y93694D1*
X566875Y87488D1*
X697113Y87500D1*
X694203Y93694D1*
X691980Y99720D1*
X690236Y105903D1*
X688983Y112202D1*
X688228Y118581D1*
X687976Y125000D1*
X688228Y131419D1*
X688983Y137798D1*
X690236Y144097D1*
X691980Y150280D1*
X694203Y156306D1*
X696892Y162139D1*
X700031Y167744D1*
X703600Y173085D1*
X707577Y178130D1*
X711937Y182846D1*
X716654Y187206D1*
X721698Y191184D1*
X727039Y194752D1*
X732644Y197891D1*
X738478Y200580D1*
X744504Y202803D1*
X750686Y204547D1*
X756986Y205801D1*
X763365Y206555D1*
X769783Y206807D1*
X776202Y206555D1*
X782581Y205801D1*
X788881Y204547D1*
X795063Y202803D1*
X801089Y200580D1*
X806923Y197891D1*
X812528Y194752D1*
X817869Y191184D1*
X822913Y187206D1*
X827630Y182846D1*
X831990Y178130D1*
X835967Y173085D1*
X839535Y167744D1*
X842675Y162139D1*
X845364Y156306D1*
X847587Y150280D1*
X849331Y144097D1*
X850584Y137798D1*
X851339Y131419D1*
X851591Y125000D1*
X851339Y118581D1*
X850584Y112202D1*
X849331Y105903D1*
X847587Y99720D1*
X845364Y93694D1*
X842466Y87488D1*
X962512Y87500D1*
X962500Y618753D1*
X43738Y618749D1*
X43751Y87496D1*
X145932Y87500D1*
X143022Y93694D1*
X140799Y99720D1*
X139055Y105903D1*
X137802Y112202D1*
X137047Y118581D1*
X136795Y125000D1*
X137047Y131419D1*
X137802Y137798D1*
X139055Y144097D1*
X140799Y150280D1*
X143022Y156306D1*
X145711Y162139D1*
X148850Y167744D1*
X152419Y173085D1*
X156396Y178130D1*
X160756Y182846D1*
X165472Y187206D1*
X170517Y191184D1*
X175858Y194752D1*
X181463Y197891D1*
X187297Y200580D1*
X193323Y202803D1*
X199505Y204547D1*
X205804Y205801D1*
X212184Y206555D1*
X218602Y206807D1*
X225021Y206555D1*
X231400Y205801D1*
X237699Y204547D1*
X243882Y202803D1*
X249908Y200580D1*
X255741Y197891D1*
X261346Y194752D1*
X266688Y191184D1*
X271732Y187206D1*
X276449Y182846D1*
X280808Y178130D1*
X284786Y173085D1*
X288354Y167744D1*
X291493Y162139D1*
X294182Y156306D1*
X296406Y150280D1*
X298150Y144097D1*
X299403Y137798D1*
X300157Y131419D1*
X300409Y125000D1*
X300157Y118581D1*
X52518Y1187631D2*
X1216266D1*
X52518Y1162762D2*
X1216266D1*
X52518Y1137894D2*
X1216266D1*
X52518Y1113025D2*
X1216266D1*
X52518Y1088156D2*
X1216266D1*
X52518Y1063287D2*
X1216266D1*
X52518Y1038419D2*
X1216266D1*
X52518Y1013550D2*
X1216266D1*
X52518Y988681D2*
X1216266D1*
X52518Y963812D2*
X1216266D1*
X52518Y938944D2*
X1216266D1*
X52518Y914075D2*
X1216266D1*
X52518Y889206D2*
X1216266D1*
X52518Y864337D2*
X1216266D1*
X52518Y839469D2*
X1216266D1*
X52518Y814600D2*
X1216266D1*
X52518Y789731D2*
X1216266D1*
X52518Y764862D2*
X1216266D1*
X52518Y739993D2*
X1216266D1*
X52518Y715125D2*
X1216266D1*
X52518Y690256D2*
X1216266D1*
X1218730Y1212500D2*
X49982D1*
X50000Y681318D1*
X1218759Y687434D1*
X1218749Y1212490D1*
D23*
X80807Y125000D3*
D24*
X218602D3*
X356398D3*
X494193D3*
X631988D3*
X769783D3*
X907579D3*
X1045374D3*
D25*
X79916Y1574803D3*
D26*
X179916D3*
X279916D3*
X379916D3*
X479916D3*
X579916D3*
X679916D3*
X779916D3*
X879907D3*
X979907D3*
X1079907D3*
X1179907D3*
D23*
X550000Y593455D3*
D24*
Y731251D3*
M02*
