M48
INCH
T01C0.0191
T02C0.0354
T03C0.0472
T04C0.1378
%
T01
X+000625Y+011938
X+000625Y+011437
X+000625Y+011000
X+001000Y+011000
X+002625Y+012875
X+003688Y+012000
X+003688Y+011562
X+003688Y+011125
X+004062Y+011125
X+005312Y+012875
X+006688Y+011937
X+006688Y+011562
X+006688Y+011125
X+007062Y+011125
X+008250Y+012875
X+009625Y+011937
X+009625Y+011562
X+009625Y+011188
X+010000Y+011188
X+011250Y+012875
T02
X+000799Y+015748
X+001799Y+015748
X+002799Y+015748
X+003799Y+015748
X+004799Y+015748
X+005799Y+015748
X+006799Y+015748
X+007799Y+015748
X+008799Y+015748
X+009799Y+015748
X+010799Y+015748
X+011799Y+015748
T03
X+000808Y+001250
X+002186Y+001250
X+003564Y+001250
X+004942Y+001250
X+006320Y+001250
X+007698Y+001250
X+009076Y+001250
X+010454Y+001250
X+005500Y+005935
X+005500Y+007313
T04
X+011220Y+004331
T00
M30
