G04 DipTrace 4.0.0.2*
G04 TopMask.gbr*
%MOIN*%
G04 #@! TF.FileFunction,Soldermask,Top*
G04 #@! TF.Part,Single*
%AMOUTLINE1*
4,1,28,
-0.020061,0.029531,
0.020061,0.029531,
0.023349,0.029098,
0.026652,0.027729,
0.029489,0.025552,
0.031666,0.022715,
0.033035,0.019412,
0.033468,0.016124,
0.033468,-0.016124,
0.033035,-0.019412,
0.031666,-0.022715,
0.029489,-0.025552,
0.026652,-0.027729,
0.023349,-0.029098,
0.020061,-0.029531,
-0.020061,-0.029531,
-0.023349,-0.029098,
-0.026652,-0.027729,
-0.029489,-0.025552,
-0.031666,-0.022715,
-0.033035,-0.019412,
-0.033468,-0.016124,
-0.033468,0.016124,
-0.033035,0.019412,
-0.031666,0.022715,
-0.029489,0.025552,
-0.026652,0.027729,
-0.023349,0.029098,
-0.020061,0.029531,
0*%
%ADD32C,0.137795*%
%ADD38R,0.051187X0.04725*%
%ADD40R,0.055124X0.055124*%
%ADD42C,0.066935*%
%ADD44R,0.066935X0.066935*%
%ADD46C,0.094494*%
%ADD48R,0.094494X0.094494*%
%ADD50R,0.135833X0.092526*%
%ADD52R,0.045282X0.092526*%
%ADD60OUTLINE1*%
%FSLAX26Y26*%
G04*
G70*
G90*
G75*
G01*
G04 TopMask*
%LPD*%
D52*
X284301Y1173547D3*
X193749D3*
X103198D3*
D50*
X193749Y945201D3*
D52*
X584301Y1173547D3*
X493749D3*
X403198D3*
D50*
X493749Y945201D3*
D52*
X884301Y1173547D3*
X793749D3*
X703198D3*
D50*
X793749Y945201D3*
D52*
X1178051Y1173547D3*
X1087500D3*
X996949D3*
D50*
X1087500Y945201D3*
D48*
X80807Y125000D3*
D46*
X218602D3*
X356398D3*
X494193D3*
X631988D3*
X769783D3*
X907579D3*
X1045374D3*
D44*
X79916Y1574803D3*
D42*
X179916D3*
X279916D3*
X379916D3*
X479916D3*
X579916D3*
X679916D3*
X779916D3*
X879907D3*
X979907D3*
X1079907D3*
X1179907D3*
D32*
X1122047Y433071D3*
D40*
X133661Y1287500D3*
X216339D3*
X402411D3*
X485088D3*
X702411D3*
X785088D3*
X996161D3*
X1078839D3*
D38*
X214714Y1368749D3*
X147785D3*
X477214Y1368750D3*
X410285Y1368749D3*
X777215Y1368750D3*
X710286Y1368749D3*
X1070965Y1368750D3*
X1004035Y1368749D3*
D48*
X550000Y593455D3*
D46*
Y731251D3*
D60*
X56251Y1406152D3*
Y1331349D3*
M02*
