%TF.GenerationSoftware,KiCad,Pcbnew,5.1.6+dfsg1-1*%
%TF.CreationDate,2020-12-14T15:48:38-08:00*%
%TF.ProjectId,High_Current_Analog,48696768-5f43-4757-9272-656e745f416e,rev?*%
%TF.SameCoordinates,Original*%
%TF.FileFunction,Soldermask,Top*%
%TF.FilePolarity,Negative*%
%FSLAX46Y46*%
G04 Gerber Fmt 4.6, Leading zero omitted, Abs format (unit mm)*
G04 Created by KiCad (PCBNEW 5.1.6+dfsg1-1) date 2020-12-14 15:48:38*
%MOMM*%
%LPD*%
G01*
G04 APERTURE LIST*
%ADD10C,2.400000*%
%ADD11R,2.400000X2.400000*%
%ADD12R,2.100000X1.600000*%
%ADD13R,2.100000X3.900000*%
%ADD14O,1.800000X1.800000*%
%ADD15R,1.800000X1.800000*%
%ADD16O,2.300000X2.300000*%
%ADD17R,2.300000X2.300000*%
%ADD18R,1.600000X1.100000*%
G04 APERTURE END LIST*
D10*
%TO.C,J3*%
X125278000Y-64770000D03*
D11*
X128778000Y-64770000D03*
%TD*%
D10*
%TO.C,J2*%
X125278000Y-54356000D03*
D11*
X128778000Y-54356000D03*
%TD*%
%TO.C,R4*%
G36*
G01*
X120249000Y-67019000D02*
X121559000Y-67019000D01*
G75*
G02*
X121829000Y-67289000I0J-270000D01*
G01*
X121829000Y-68099000D01*
G75*
G02*
X121559000Y-68369000I-270000J0D01*
G01*
X120249000Y-68369000D01*
G75*
G02*
X119979000Y-68099000I0J270000D01*
G01*
X119979000Y-67289000D01*
G75*
G02*
X120249000Y-67019000I270000J0D01*
G01*
G37*
G36*
G01*
X120249000Y-64219000D02*
X121559000Y-64219000D01*
G75*
G02*
X121829000Y-64489000I0J-270000D01*
G01*
X121829000Y-65299000D01*
G75*
G02*
X121559000Y-65569000I-270000J0D01*
G01*
X120249000Y-65569000D01*
G75*
G02*
X119979000Y-65299000I0J270000D01*
G01*
X119979000Y-64489000D01*
G75*
G02*
X120249000Y-64219000I270000J0D01*
G01*
G37*
%TD*%
%TO.C,R3*%
G36*
G01*
X139660000Y-63393000D02*
X139660000Y-62083000D01*
G75*
G02*
X139930000Y-61813000I270000J0D01*
G01*
X140740000Y-61813000D01*
G75*
G02*
X141010000Y-62083000I0J-270000D01*
G01*
X141010000Y-63393000D01*
G75*
G02*
X140740000Y-63663000I-270000J0D01*
G01*
X139930000Y-63663000D01*
G75*
G02*
X139660000Y-63393000I0J270000D01*
G01*
G37*
G36*
G01*
X136860000Y-63393000D02*
X136860000Y-62083000D01*
G75*
G02*
X137130000Y-61813000I270000J0D01*
G01*
X137940000Y-61813000D01*
G75*
G02*
X138210000Y-62083000I0J-270000D01*
G01*
X138210000Y-63393000D01*
G75*
G02*
X137940000Y-63663000I-270000J0D01*
G01*
X137130000Y-63663000D01*
G75*
G02*
X136860000Y-63393000I0J270000D01*
G01*
G37*
%TD*%
%TO.C,R2*%
G36*
G01*
X139660000Y-65933000D02*
X139660000Y-64623000D01*
G75*
G02*
X139930000Y-64353000I270000J0D01*
G01*
X140740000Y-64353000D01*
G75*
G02*
X141010000Y-64623000I0J-270000D01*
G01*
X141010000Y-65933000D01*
G75*
G02*
X140740000Y-66203000I-270000J0D01*
G01*
X139930000Y-66203000D01*
G75*
G02*
X139660000Y-65933000I0J270000D01*
G01*
G37*
G36*
G01*
X136860000Y-65933000D02*
X136860000Y-64623000D01*
G75*
G02*
X137130000Y-64353000I270000J0D01*
G01*
X137940000Y-64353000D01*
G75*
G02*
X138210000Y-64623000I0J-270000D01*
G01*
X138210000Y-65933000D01*
G75*
G02*
X137940000Y-66203000I-270000J0D01*
G01*
X137130000Y-66203000D01*
G75*
G02*
X136860000Y-65933000I0J270000D01*
G01*
G37*
%TD*%
%TO.C,R1*%
G36*
G01*
X139660000Y-68473000D02*
X139660000Y-67163000D01*
G75*
G02*
X139930000Y-66893000I270000J0D01*
G01*
X140740000Y-66893000D01*
G75*
G02*
X141010000Y-67163000I0J-270000D01*
G01*
X141010000Y-68473000D01*
G75*
G02*
X140740000Y-68743000I-270000J0D01*
G01*
X139930000Y-68743000D01*
G75*
G02*
X139660000Y-68473000I0J270000D01*
G01*
G37*
G36*
G01*
X136860000Y-68473000D02*
X136860000Y-67163000D01*
G75*
G02*
X137130000Y-66893000I270000J0D01*
G01*
X137940000Y-66893000D01*
G75*
G02*
X138210000Y-67163000I0J-270000D01*
G01*
X138210000Y-68473000D01*
G75*
G02*
X137940000Y-68743000I-270000J0D01*
G01*
X137130000Y-68743000D01*
G75*
G02*
X136860000Y-68473000I0J270000D01*
G01*
G37*
%TD*%
D12*
%TO.C,Q1*%
X121031000Y-57404000D03*
X121031000Y-62004000D03*
X121031000Y-59704000D03*
D13*
X127331000Y-59704000D03*
%TD*%
D14*
%TO.C,J1*%
X148844000Y-71120000D03*
X146304000Y-71120000D03*
X143764000Y-71120000D03*
X141224000Y-71120000D03*
X138684000Y-71120000D03*
X136144000Y-71120000D03*
X133604000Y-71120000D03*
X131064000Y-71120000D03*
X128524000Y-71120000D03*
X125984000Y-71120000D03*
X123444000Y-71120000D03*
D15*
X120904000Y-71120000D03*
%TD*%
D16*
%TO.C,D2*%
X133096000Y-54356000D03*
D17*
X133096000Y-64516000D03*
%TD*%
D18*
%TO.C,D1*%
X147955000Y-66878000D03*
X147955000Y-65278000D03*
X147955000Y-63678000D03*
X143055000Y-66878000D03*
X143055000Y-65278000D03*
X143055000Y-63678000D03*
%TD*%
M02*
