M48
INCH
T01C0.0191
T02C0.0354
T03C0.0394
T04C0.046
T05C0.0551
T06C0.063
T07C0.1378
T08C0.14
%
T01
X+004940Y+043878
X+004940Y+044315
X+006440Y+042565
X+007440Y+042565
X+008440Y+042315
X+009440Y+042752
X+010190Y+043127
X+011127Y+044252
X+012127Y+043877
X+011940Y+042752
X+011018Y+041627
X+014375Y+042315
X+015440Y+042752
X+013940Y+043502
X+013940Y+045377
X+012877Y+045752
X+011940Y+045628
X+010940Y+046690
X+009940Y+047190
X+008940Y+046129
X+009753Y+045002
X+007440Y+045628
X+006440Y+046690
X+014940Y+046502
X+015940Y+044627
X+017127Y+043502
X+017502Y+043877
X+017940Y+044252
X+018627Y+043127
X+019815Y+043502
X+020628Y+043127
X+021002Y+042315
X+020049Y+041974
X+019065Y+041627
X+022440Y+042752
X+023440Y+043127
X+024440Y+043502
X+025440Y+044565
X+026440Y+045002
X+028065Y+041127
X+031940Y+041627
X+033440Y+042002
X+034377Y+042377
X+035440Y+042752
X+036440Y+045377
X+037877Y+045752
X+038940Y+046129
X+039877Y+046502
X+040877Y+041127
X+044815Y+041627
X+045940Y+042002
X+047440Y+042377
X+048440Y+042752
X+048940Y+041627
X+050002Y+042002
X+051377Y+042377
X+052502Y+042815
X+050378Y+046940
X+049440Y+047940
X+045440Y+038440
X+046377Y+038065
X+047404Y+037690
X+048404Y+037315
X+049877Y+036752
X+050440Y+036315
X+050377Y+034627
X+048877Y+033565
X+047315Y+033377
X+046940Y+033877
X+046565Y+034377
X+046065Y+033690
X+044940Y+032190
X+045003Y+031565
X+044877Y+030940
X+043627Y+031565
X+045065Y+029190
X+045627Y+025440
X+046190Y+024065
X+046877Y+023627
X+046253Y+022627
X+046253Y+022065
X+046565Y+021627
X+048565Y+023065
X+049815Y+023815
X+050253Y+023815
X+050690Y+023815
X+049690Y+025440
X+049315Y+025815
X+048565Y+025065
X+048190Y+024690
X+047565Y+025065
X+043315Y+023065
X+042690Y+022690
X+043315Y+022315
X+042377Y+023878
X+041940Y+023878
X+041503Y+023878
X+039377Y+021940
X+038627Y+022315
X+038190Y+022690
X+037815Y+023065
X+035378Y+023878
X+034940Y+023878
X+034503Y+023878
X+034127Y+025065
X+032877Y+024690
X+033252Y+023565
X+031315Y+024065
X+031003Y+023065
X+031315Y+022565
X+031440Y+022065
X+031377Y+021502
X+033690Y+021565
X+034440Y+019752
X+034440Y+019190
X+034440Y+018628
X+035440Y+018628
X+035440Y+019190
X+035440Y+019752
X+041440Y+019752
X+041440Y+019190
X+041440Y+018628
X+042440Y+018628
X+042440Y+019190
X+042440Y+019752
X+039753Y+026190
X+037815Y+028252
X+038690Y+028815
X+036190Y+028627
X+036127Y+029190
X+036127Y+029565
X+036127Y+029940
X+035690Y+029940
X+035690Y+029565
X+035690Y+029190
X+035190Y+031690
X+035190Y+032127
X+035190Y+032627
X+033877Y+032627
X+033877Y+032190
X+033877Y+031752
X+032565Y+030065
X+032565Y+029565
X+032565Y+029065
X+031065Y+026940
X+030746Y+025815
X+031440Y+025440
X+029127Y+025815
X+028315Y+023065
X+027690Y+022690
X+028190Y+022315
X+026877Y+023878
X+026440Y+023878
X+026002Y+023878
X+023377Y+021940
X+022440Y+022315
X+022065Y+022690
X+021690Y+023065
X+020440Y+024440
X+019940Y+025190
X+018940Y+024815
X+018940Y+023878
X+019377Y+023878
X+018503Y+023878
X+017502Y+024440
X+016940Y+025190
X+015940Y+025815
X+014964Y+025627
X+016065Y+024190
X+015315Y+023252
X+015440Y+022565
X+015377Y+021690
X+013190Y+022065
X+012690Y+022565
X+013315Y+023065
X+012378Y+024690
X+011440Y+025002
X+010877Y+023878
X+010440Y+023878
X+010002Y+023878
X+009502Y+025627
X+008252Y+023065
X+008627Y+022565
X+009002Y+022065
X+009377Y+021690
X+009940Y+019752
X+009940Y+019190
X+009940Y+018565
X+010940Y+018628
X+010940Y+019190
X+010940Y+019752
X+006190Y+016440
X+006002Y+015440
X+005502Y+013440
X+006065Y+012440
X+018440Y+018628
X+018440Y+019190
X+018440Y+019752
X+019440Y+019752
X+019440Y+019190
X+019440Y+018628
X+017940Y+021565
X+017565Y+023065
X+021940Y+026190
X+022690Y+024940
X+021190Y+029690
X+020940Y+030315
X+021690Y+031690
X+022377Y+034190
X+020440Y+034815
X+019502Y+034815
X+018440Y+034815
X+017440Y+034815
X+013628Y+033565
X+011690Y+034065
X+011322Y+035752
X+009877Y+035752
X+009628Y+034065
X+009815Y+033252
X+009878Y+032690
X+009878Y+031877
X+010877Y+032252
X+008440Y+032431
X+008159Y+032971
X+008315Y+033565
X+006877Y+034065
X+008190Y+035315
X+005377Y+035315
X+008565Y+030002
X+011690Y+029440
X+013440Y+031315
X+015440Y+029440
X+023253Y+037940
X+024377Y+036752
X+028753Y+035127
X+029002Y+033378
X+029440Y+033378
X+029440Y+032753
X+029002Y+032753
X+029173Y+030457
X+032690Y+034190
X+032690Y+034627
X+032690Y+035127
X+035627Y+034252
X+048502Y+031252
X+049627Y+029940
X+051815Y+028565
X+053377Y+035690
X+050753Y+019690
X+050753Y+019128
X+050753Y+018565
X+049752Y+018565
X+049752Y+019128
X+049752Y+019690
X+055190Y+019378
X+055627Y+019378
X+055627Y+018940
X+055190Y+018940
X+055190Y+018503
X+055627Y+018503
X+055627Y+018065
X+055190Y+018065
X+055190Y+017628
X+055627Y+017628
X+053690Y+010315
X+026940Y+018628
X+026940Y+019190
X+026940Y+019752
X+025940Y+019752
X+025940Y+019190
X+025940Y+018628
X+021940Y+043940
X+022002Y+047190
T02
X+009440Y+017440
X+008440Y+017440
X+007440Y+017440
X+007440Y+016440
X+007440Y+015440
X+007440Y+014440
X+007440Y+013440
X+007440Y+012440
X+007440Y+011440
X+007440Y+010440
X+005065Y+010252
X+005065Y+009252
X+005065Y+011252
X+005065Y+017127
X+005065Y+018127
X+005065Y+019127
X+005440Y+021190
X+005440Y+022190
X+005440Y+023190
X+006440Y+023190
X+007440Y+023190
X+007440Y+022190
X+007440Y+021190
X+006440Y+021190
X+006440Y+022190
X+006440Y+026940
X+007440Y+026940
X+008440Y+026940
X+008440Y+027940
X+007440Y+027940
X+006440Y+027940
X+005440Y+027940
X+005440Y+026940
X+004440Y+026940
X+004440Y+027940
X+009440Y+027940
X+009440Y+026940
X+010440Y+026940
X+011440Y+026940
X+011440Y+027940
X+010440Y+027940
X+012440Y+027940
X+012440Y+026940
X+013440Y+026940
X+014440Y+026940
X+014440Y+027940
X+013440Y+027940
X+015440Y+027940
X+015440Y+026940
X+016440Y+026940
X+017440Y+026940
X+017440Y+027940
X+016440Y+027940
X+018440Y+027940
X+018440Y+026940
X+019440Y+026940
X+020440Y+026940
X+020440Y+027940
X+019440Y+027940
X+021440Y+027940
X+021440Y+026940
X+022440Y+026940
X+022440Y+027940
X+020515Y+033066
X+020515Y+034066
X+019515Y+034066
X+018515Y+034066
X+017515Y+034066
X+016515Y+034066
X+016515Y+033066
X+017515Y+033066
X+018515Y+033066
X+019515Y+033066
X+019440Y+036940
X+018440Y+036940
X+018440Y+037940
X+019440Y+037940
X+020440Y+037940
X+020440Y+036940
X+021440Y+036940
X+021440Y+037940
X+022440Y+037940
X+022440Y+036940
X+022440Y+039940
X+021440Y+039940
X+020440Y+039940
X+019440Y+039940
X+018440Y+039940
X+016440Y+039940
X+015440Y+039940
X+014440Y+039940
X+013440Y+039940
X+012440Y+039940
X+011440Y+039940
X+010440Y+039940
X+009440Y+039940
X+008440Y+039940
X+007440Y+039940
X+006440Y+039940
X+005440Y+039940
X+005440Y+037940
X+005440Y+036940
X+004440Y+036940
X+004440Y+037940
X+006440Y+037940
X+006440Y+036940
X+007440Y+036940
X+007440Y+037940
X+008440Y+037940
X+008440Y+036940
X+009440Y+036940
X+010440Y+036940
X+011440Y+036940
X+011440Y+037940
X+010440Y+037940
X+009440Y+037940
X+012440Y+037940
X+012440Y+036940
X+013440Y+036940
X+014440Y+036940
X+014440Y+037940
X+013440Y+037940
X+015440Y+037940
X+015440Y+036940
X+016440Y+036940
X+017440Y+036940
X+017440Y+037940
X+016440Y+037940
X+015515Y+034066
X+015515Y+033066
X+023440Y+039940
X+024440Y+039940
X+025440Y+039940
X+026440Y+039940
X+027440Y+039940
X+028440Y+039940
X+029440Y+039940
X+031440Y+039940
X+032440Y+039940
X+033440Y+039940
X+034440Y+039940
X+035440Y+039940
X+036440Y+039940
X+037440Y+039940
X+038440Y+039940
X+039440Y+039940
X+040440Y+039940
X+041440Y+039940
X+042440Y+039940
X+044404Y+039940
X+045404Y+039940
X+046404Y+039940
X+047404Y+039940
X+048404Y+039940
X+049404Y+039940
X+050404Y+039940
X+051404Y+039940
X+052404Y+039940
X+053404Y+039940
X+054404Y+039940
X+055404Y+039940
X+040440Y+037940
X+040440Y+036940
X+040440Y+035940
X+040440Y+034940
X+040440Y+033940
X+040440Y+032940
X+040440Y+031940
X+040440Y+030940
X+040440Y+029940
X+040440Y+028940
X+040440Y+027940
X+040440Y+026940
X+040440Y+017440
X+039440Y+017440
X+039440Y+016440
X+039440Y+015440
X+039440Y+014440
X+039440Y+013440
X+039440Y+012440
X+039440Y+011440
X+039440Y+010440
X+036440Y+010440
X+036440Y+011440
X+036440Y+012440
X+036440Y+013440
X+036440Y+014440
X+036440Y+015440
X+036440Y+016440
X+036440Y+017440
X+033440Y+017440
X+032440Y+017440
X+031440Y+017440
X+031440Y+016440
X+031440Y+015440
X+031440Y+014440
X+031440Y+013440
X+031440Y+012440
X+031440Y+011440
X+031440Y+010440
X+028440Y+010440
X+028440Y+011440
X+028440Y+012440
X+028440Y+013440
X+028440Y+014440
X+028440Y+015440
X+028440Y+016440
X+028440Y+017440
X+025440Y+017440
X+024440Y+017440
X+023440Y+017440
X+023440Y+016440
X+023440Y+015440
X+023440Y+014440
X+023440Y+013440
X+023440Y+012440
X+023440Y+011440
X+023440Y+010440
X+020440Y+010440
X+020440Y+011440
X+020440Y+012440
X+020440Y+013440
X+020440Y+014440
X+020440Y+015440
X+020440Y+016440
X+020440Y+017440
X+017440Y+017440
X+016440Y+017440
X+015440Y+017440
X+015440Y+016440
X+015440Y+015440
X+015440Y+014440
X+015440Y+013440
X+015440Y+012440
X+015440Y+011440
X+015440Y+010440
X+012440Y+010440
X+012440Y+011440
X+012440Y+012440
X+012440Y+013440
X+012440Y+014440
X+012440Y+015440
X+012440Y+016440
X+012440Y+017440
X+028127Y+027565
X+029127Y+027565
X+030127Y+027565
X+041440Y+017440
X+044440Y+017440
X+044440Y+016440
X+044440Y+015440
X+044440Y+014440
X+044440Y+013440
X+044440Y+012440
X+044440Y+011440
X+044440Y+010440
X+047440Y+010440
X+047440Y+011440
X+047440Y+012440
X+047440Y+013440
X+047440Y+014440
X+047440Y+015440
X+047440Y+016440
X+047440Y+017440
X+048440Y+017440
X+049440Y+017440
X+052440Y+017440
X+052440Y+016440
X+052440Y+015440
X+052440Y+014440
X+052440Y+013440
X+052440Y+012440
X+052440Y+011440
X+052440Y+010440
X+054690Y+012690
X+054690Y+013690
X+054690Y+014690
X+013940Y+048440
X+013940Y+049440
X+012940Y+049440
X+011940Y+049440
X+011940Y+048440
X+012940Y+048440
X+010940Y+048440
X+010940Y+049440
X+009940Y+049440
X+009940Y+048440
T03
X+004879Y+034356
X+004879Y+031207
T04
X+051690Y+046940
X+052690Y+046940
X+052690Y+047940
X+051690Y+047940
X+051690Y+048940
X+052690Y+048940
X+052690Y+049940
X+051690Y+049940
X+051690Y+050940
X+052690Y+050940
X+052690Y+051940
X+051690Y+051940
T05
X+007939Y+006940
X+009317Y+006940
X+010695Y+006940
X+012073Y+006940
X+015939Y+006940
X+017317Y+006940
X+018695Y+006940
X+020073Y+006940
X+023939Y+006940
X+025317Y+006940
X+026695Y+006940
X+028073Y+006940
X+031939Y+006940
X+033317Y+006940
X+034695Y+006940
X+036073Y+006940
X+039939Y+006940
X+041317Y+006940
X+042695Y+006940
X+044073Y+006940
X+047939Y+006940
X+049317Y+006940
X+050695Y+006940
X+052073Y+006940
T06
X+054440Y+022002
X+054440Y+023971
T07
X+006019Y+051357
X+019019Y+051357
X+032019Y+051357
X+044983Y+051357
X+051857Y+037361
T08
X+055318Y+005318
X+038192Y+037601
X+055318Y+044688
X+055318Y+054531
X+005318Y+054531
X+005318Y+005318
T00
M30
