G04 DipTrace 4.0.0.2*
G04 2 - Bottom.gbr*
%MOIN*%
G04 #@! TF.FileFunction,Copper,L2,Bot*
G04 #@! TF.Part,Single*
G04 #@! TA.AperFunction,Conductor*
%ADD16C,0.012*%
G04 #@! TA.AperFunction,CopperBalancing*
%ADD17C,0.025*%
G04 #@! TA.AperFunction,ComponentPad*
%ADD22R,0.059055X0.059055*%
%ADD23C,0.059055*%
%ADD26R,0.086614X0.086614*%
%ADD27C,0.086614*%
G04 #@! TA.AperFunction,ViaPad*
%ADD29C,0.04*%
%FSLAX26Y26*%
G04*
G70*
G90*
G75*
G01*
G04 Bottom*
%LPD*%
X1044000Y1794000D2*
D16*
Y1869000D1*
X1073916Y1898916D1*
Y1968803D1*
X973916D2*
Y1851584D1*
X994000Y1831500D1*
X944000Y1794000D2*
Y1850249D1*
X873916Y1920333D1*
Y1968803D1*
X773916D2*
Y1951584D1*
X894000Y1831500D1*
D29*
X1044000Y1794000D3*
X994000Y1831500D3*
X944000Y1794000D3*
X894000Y1831500D3*
X444000Y1462751D3*
X1100249Y1044000D3*
X968999D3*
X769000Y1047593D3*
X637751Y1041343D3*
X1194000Y1550249D3*
X446367Y1981631D2*
D17*
X504596D1*
X1543203D2*
X1610259D1*
X446260Y1956762D2*
X504451D1*
X1543348D2*
X1610259D1*
X446152Y1931894D2*
X514285D1*
X1533551D2*
X1610259D1*
X446045Y1907025D2*
X542920D1*
X604904D2*
X642929D1*
X704913D2*
X742938D1*
X1120919D2*
X1142940D1*
X1204887D2*
X1242912D1*
X1304896D2*
X1342921D1*
X1404906D2*
X1442932D1*
X1504879D2*
X1610259D1*
X445972Y1882156D2*
X777925D1*
X1117654D2*
X1610259D1*
X445865Y1857287D2*
X802793D1*
X1097738D2*
X1610259D1*
X445757Y1832419D2*
X827661D1*
X1090991D2*
X1610259D1*
X445650Y1807550D2*
X838139D1*
X1103407D2*
X1610259D1*
X445579Y1782681D2*
X859274D1*
X1103909D2*
X1610259D1*
X445471Y1757812D2*
X895554D1*
X1092462D2*
X1610259D1*
X445362Y1732944D2*
X1610259D1*
X445291Y1708075D2*
X1610259D1*
X445184Y1683206D2*
X1610259D1*
X445076Y1658337D2*
X1610259D1*
X444969Y1633469D2*
X1610259D1*
X444896Y1608600D2*
X1610259D1*
X444789Y1583731D2*
X1610259D1*
X444681Y1558862D2*
X1610259D1*
X444573Y1533993D2*
X1610259D1*
X444501Y1509125D2*
X1610259D1*
X444394Y1484256D2*
X1610259D1*
X444286Y1459387D2*
X1610259D1*
X444214Y1434518D2*
X1610259D1*
X444106Y1409650D2*
X1610259D1*
X443999Y1384781D2*
X1610259D1*
X443891Y1359912D2*
X1610259D1*
X443820Y1335043D2*
X1610259D1*
X443713Y1310175D2*
X1610259D1*
X443605Y1285306D2*
X1610259D1*
X443497Y1260437D2*
X1610259D1*
X443425Y1235568D2*
X1610259D1*
X443318Y1210699D2*
X1610259D1*
X443210Y1185831D2*
X1610259D1*
X443138Y1160962D2*
X1610259D1*
X443030Y1136093D2*
X1610259D1*
X442923Y1111224D2*
X1610259D1*
X442815Y1086356D2*
X1610259D1*
X442743Y1061487D2*
X1610259D1*
X442635Y1036618D2*
X1610259D1*
X442528Y1011749D2*
X1610259D1*
X442420Y986881D2*
X1610259D1*
X442349Y962012D2*
X1610259D1*
X442241Y937143D2*
X1442500D1*
X1589566D2*
X1610259D1*
X442134Y912274D2*
X1414045D1*
X442062Y887406D2*
X1397251D1*
X441954Y862537D2*
X575430D1*
X744063D2*
X761993D1*
X833092D2*
X899789D1*
X970887D2*
X1037584D1*
X1108682D2*
X1387419D1*
X441846Y837668D2*
X575430D1*
X1140404D2*
X1382969D1*
X441739Y812799D2*
X575430D1*
X1153501D2*
X1383328D1*
X441667Y787930D2*
X575430D1*
X1157449D2*
X1388530D1*
X441559Y763062D2*
X575430D1*
X1153644D2*
X1399260D1*
X441451Y738193D2*
X575430D1*
X1140762D2*
X1417310D1*
X441344Y713324D2*
X575430D1*
X744063D2*
X760988D1*
X834096D2*
X898783D1*
X971891D2*
X1036579D1*
X1109686D2*
X1448564D1*
X1583538D2*
X1610259D1*
X441272Y688455D2*
X1610259D1*
X441164Y663587D2*
X1610259D1*
X441056Y638718D2*
X1610259D1*
X440986Y613849D2*
X1610259D1*
X440878Y588980D2*
X1610259D1*
X440769Y564112D2*
X1610259D1*
X440661Y539243D2*
X1610259D1*
X440591Y514374D2*
X1610259D1*
X440483Y489505D2*
X1610259D1*
X440375Y464636D2*
X1610259D1*
X623874Y1922707D2*
X618096Y1917075D1*
X609461Y1910801D1*
X599949Y1905954D1*
X589797Y1902655D1*
X579253Y1900986D1*
X568579D1*
X558035Y1902655D1*
X547883Y1905954D1*
X538371Y1910801D1*
X529736Y1917075D1*
X522188Y1924623D1*
X515913Y1933259D1*
X511067Y1942770D1*
X507768Y1952923D1*
X506098Y1963466D1*
Y1974140D1*
X507768Y1984684D1*
X511067Y1994836D1*
X515913Y2004348D1*
X517362Y2006516D1*
X443983Y2006500D1*
X437799Y444033D1*
X1612741Y444000D1*
X1612751Y738714D1*
X1603344Y729391D1*
X1596285Y723514D1*
X1588832Y718147D1*
X1581022Y713315D1*
X1572891Y709042D1*
X1564483Y705349D1*
X1555835Y702255D1*
X1546992Y699774D1*
X1537996Y697919D1*
X1528894Y696698D1*
X1519727Y696118D1*
X1510543Y696182D1*
X1501386Y696890D1*
X1492301Y698238D1*
X1483332Y700218D1*
X1474525Y702822D1*
X1465921Y706035D1*
X1457564Y709845D1*
X1449495Y714231D1*
X1441752Y719172D1*
X1434374Y724642D1*
X1427399Y730617D1*
X1420858Y737064D1*
X1414786Y743955D1*
X1409211Y751255D1*
X1404161Y758927D1*
X1399663Y766933D1*
X1395735Y775235D1*
X1392399Y783793D1*
X1389671Y792563D1*
X1387563Y801501D1*
X1386087Y810567D1*
X1385251Y819713D1*
X1385056Y828895D1*
X1385505Y838070D1*
X1386597Y847189D1*
X1388325Y856209D1*
X1390680Y865087D1*
X1393652Y873777D1*
X1397226Y882238D1*
X1401382Y890428D1*
X1406104Y898306D1*
X1411365Y905833D1*
X1417140Y912975D1*
X1423403Y919694D1*
X1430119Y925957D1*
X1437260Y931735D1*
X1444786Y936997D1*
X1452664Y941720D1*
X1460852Y945879D1*
X1469312Y949455D1*
X1478003Y952429D1*
X1486879Y954786D1*
X1495899Y956516D1*
X1505018Y957610D1*
X1514192Y958062D1*
X1523374Y957870D1*
X1532520Y957035D1*
X1541585Y955562D1*
X1550526Y953457D1*
X1559297Y950730D1*
X1567854Y947396D1*
X1576157Y943470D1*
X1584165Y938972D1*
X1591839Y933925D1*
X1599139Y928352D1*
X1606030Y922281D1*
X1612738Y915442D1*
X1612751Y2006501D1*
X1530556Y2006500D1*
X1534520Y1999688D1*
X1538605Y1989825D1*
X1541097Y1979445D1*
X1541934Y1968803D1*
X1541097Y1958161D1*
X1538605Y1947781D1*
X1534520Y1937919D1*
X1528942Y1928818D1*
X1522009Y1920701D1*
X1513892Y1913768D1*
X1504791Y1908190D1*
X1494929Y1904105D1*
X1484549Y1901613D1*
X1473907Y1900776D1*
X1463265Y1901613D1*
X1452885Y1904105D1*
X1443022Y1908190D1*
X1433921Y1913768D1*
X1425804Y1920701D1*
X1423949Y1922707D1*
X1418087Y1917075D1*
X1409451Y1910801D1*
X1399940Y1905954D1*
X1389787Y1902655D1*
X1379244Y1900986D1*
X1368570D1*
X1358026Y1902655D1*
X1347874Y1905954D1*
X1338362Y1910801D1*
X1329727Y1917075D1*
X1323949Y1922707D1*
X1318087Y1917075D1*
X1309451Y1910801D1*
X1299940Y1905954D1*
X1289787Y1902655D1*
X1279244Y1900986D1*
X1268570D1*
X1258026Y1902655D1*
X1247874Y1905954D1*
X1238362Y1910801D1*
X1229727Y1917075D1*
X1223949Y1922707D1*
X1218096Y1917075D1*
X1209461Y1910801D1*
X1199949Y1905954D1*
X1189797Y1902655D1*
X1179253Y1900986D1*
X1168579D1*
X1158035Y1902655D1*
X1147883Y1905954D1*
X1138371Y1910801D1*
X1129736Y1917075D1*
X1123958Y1922707D1*
X1118419Y1917371D1*
X1118278Y1895425D1*
X1117186Y1888528D1*
X1115029Y1881887D1*
X1111858Y1875665D1*
X1107755Y1870016D1*
X1088496Y1850563D1*
X1088500Y1831958D1*
X1093879Y1824566D1*
X1098047Y1816387D1*
X1100883Y1807656D1*
X1102320Y1798589D1*
Y1789411D1*
X1100883Y1780344D1*
X1098047Y1771613D1*
X1093879Y1763434D1*
X1088484Y1756008D1*
X1081992Y1749516D1*
X1074566Y1744121D1*
X1066387Y1739953D1*
X1057656Y1737117D1*
X1048589Y1735680D1*
X1039411D1*
X1030344Y1737117D1*
X1021613Y1739953D1*
X1013434Y1744121D1*
X1006008Y1749516D1*
X999516Y1756008D1*
X994007Y1763638D1*
X988484Y1756008D1*
X981992Y1749516D1*
X974566Y1744121D1*
X966387Y1739953D1*
X957656Y1737117D1*
X948589Y1735680D1*
X939411D1*
X930344Y1737117D1*
X921613Y1739953D1*
X913434Y1744121D1*
X906008Y1749516D1*
X899516Y1756008D1*
X894121Y1763434D1*
X889953Y1771613D1*
X889375Y1773178D1*
X880344Y1774617D1*
X871613Y1777453D1*
X863434Y1781621D1*
X856008Y1787016D1*
X849516Y1793508D1*
X844121Y1800934D1*
X839953Y1809113D1*
X837117Y1817844D1*
X835682Y1826892D1*
X760430Y1902136D1*
X752894Y1904105D1*
X743031Y1908190D1*
X733930Y1913768D1*
X725814Y1920701D1*
X723958Y1922707D1*
X718096Y1917075D1*
X709461Y1910801D1*
X699949Y1905954D1*
X689797Y1902655D1*
X679253Y1900986D1*
X668579D1*
X658035Y1902655D1*
X647883Y1905954D1*
X638371Y1910801D1*
X629736Y1917075D1*
X623958Y1922707D1*
X587127Y869508D2*
X741555D1*
Y847367D1*
X749458Y853885D1*
X754799Y857453D1*
X760404Y860592D1*
X766238Y863281D1*
X772264Y865504D1*
X778446Y867248D1*
X784745Y868501D1*
X791125Y869256D1*
X797543Y869508D1*
X803962Y869256D1*
X810341Y868501D1*
X816640Y867248D1*
X822823Y865504D1*
X828849Y863281D1*
X834682Y860592D1*
X840287Y857453D1*
X845629Y853885D1*
X850673Y849907D1*
X855390Y845547D1*
X859749Y840831D1*
X866417Y831760D1*
X873133Y840831D1*
X877492Y845547D1*
X882209Y849907D1*
X887253Y853885D1*
X892594Y857453D1*
X898199Y860592D1*
X904033Y863281D1*
X910059Y865504D1*
X916241Y867248D1*
X922541Y868501D1*
X928920Y869256D1*
X935339Y869508D1*
X941757Y869256D1*
X948136Y868501D1*
X954436Y867248D1*
X960618Y865504D1*
X966644Y863281D1*
X972478Y860592D1*
X978083Y857453D1*
X983424Y853885D1*
X988469Y849907D1*
X993185Y845547D1*
X997545Y840831D1*
X1004213Y831760D1*
X1010928Y840831D1*
X1015287Y845547D1*
X1020004Y849907D1*
X1025049Y853885D1*
X1030390Y857453D1*
X1035995Y860592D1*
X1041828Y863281D1*
X1047854Y865504D1*
X1054037Y867248D1*
X1060336Y868501D1*
X1066715Y869256D1*
X1073134Y869508D1*
X1079552Y869256D1*
X1085932Y868501D1*
X1092231Y867248D1*
X1098413Y865504D1*
X1104440Y863281D1*
X1110273Y860592D1*
X1115878Y857453D1*
X1121219Y853885D1*
X1126264Y849907D1*
X1130980Y845547D1*
X1135340Y840831D1*
X1139318Y835786D1*
X1142886Y830445D1*
X1146025Y824840D1*
X1148714Y819007D1*
X1150937Y812980D1*
X1152681Y806798D1*
X1153934Y800499D1*
X1154689Y794119D1*
X1154941Y787701D1*
X1154689Y781282D1*
X1153934Y774903D1*
X1152681Y768604D1*
X1150937Y762421D1*
X1148714Y756395D1*
X1146025Y750562D1*
X1142886Y744957D1*
X1139318Y739615D1*
X1135340Y734571D1*
X1130980Y729854D1*
X1126264Y725495D1*
X1121219Y721517D1*
X1115878Y717949D1*
X1110273Y714810D1*
X1104440Y712121D1*
X1098413Y709898D1*
X1092231Y708154D1*
X1085932Y706900D1*
X1079552Y706146D1*
X1073134Y705894D1*
X1066715Y706146D1*
X1060336Y706900D1*
X1054037Y708154D1*
X1047854Y709898D1*
X1041828Y712121D1*
X1035995Y714810D1*
X1030390Y717949D1*
X1025049Y721517D1*
X1020004Y725495D1*
X1015287Y729854D1*
X1010928Y734571D1*
X1004260Y743642D1*
X997545Y734571D1*
X993185Y729854D1*
X988469Y725495D1*
X983424Y721517D1*
X978083Y717949D1*
X972478Y714810D1*
X966644Y712121D1*
X960618Y709898D1*
X954436Y708154D1*
X948136Y706900D1*
X941757Y706146D1*
X935339Y705894D1*
X928920Y706146D1*
X922541Y706900D1*
X916241Y708154D1*
X910059Y709898D1*
X904033Y712121D1*
X898199Y714810D1*
X892594Y717949D1*
X887253Y721517D1*
X882209Y725495D1*
X877492Y729854D1*
X873133Y734571D1*
X866465Y743642D1*
X859749Y734571D1*
X855390Y729854D1*
X850673Y725495D1*
X845629Y721517D1*
X840287Y717949D1*
X834682Y714810D1*
X828849Y712121D1*
X822823Y709898D1*
X816640Y708154D1*
X810341Y706900D1*
X803962Y706146D1*
X797543Y705894D1*
X791125Y706146D1*
X784745Y706900D1*
X778446Y708154D1*
X772264Y709898D1*
X766238Y712121D1*
X760404Y714810D1*
X754799Y717949D1*
X749458Y721517D1*
X741558Y728134D1*
X741555Y705894D1*
X577941D1*
Y869508D1*
X587127D1*
D22*
X473916Y1968803D3*
D23*
X573916D3*
X673916D3*
X773916D3*
X873916D3*
X973916D3*
X1073916D3*
X1173916D3*
X1273907D3*
X1373907D3*
X1473907D3*
X1573907D3*
D26*
X659748Y787701D3*
D27*
X797543D3*
X935339D3*
X1073134D3*
X1210929D3*
M02*
