M48
INCH
T01C0.0191
T02C0.0354
T03C0.0472
T04C0.1378
%
T01
X+004440Y+014628
X+006378Y+010413
X+007690Y+010476
X+009690Y+010440
X+011002Y+010440
X+011940Y+015502
X+010440Y+017940
X+009940Y+018315
X+009440Y+017940
X+008940Y+018315
T02
X+004739Y+019688
X+005739Y+019688
X+006739Y+019688
X+007739Y+019688
X+008739Y+019688
X+009739Y+019688
X+010739Y+019688
X+011739Y+019688
X+012739Y+019688
X+013739Y+019688
X+014739Y+019688
X+015739Y+019688
T03
X+006597Y+007877
X+007975Y+007877
X+009353Y+007877
X+010731Y+007877
X+012109Y+007877
T04
X+015160Y+008271
T00
M30
