G04 DipTrace 4.0.0.2*
G04 TopMask.gbr*
%MOIN*%
G04 #@! TF.FileFunction,Soldermask,Top*
G04 #@! TF.Part,Single*
%ADD31C,0.137795*%
%ADD37R,0.031502X0.08662*%
%ADD39C,0.094494*%
%ADD41R,0.094494X0.094494*%
%ADD43R,0.04725X0.051187*%
%ADD45R,0.051187X0.04725*%
%ADD47C,0.066935*%
%ADD49R,0.066935X0.066935*%
%ADD51R,0.055124X0.055124*%
%ADD53R,0.066935X0.059061*%
%FSLAX26Y26*%
G04*
G70*
G90*
G75*
G01*
G04 TopMask*
%LPD*%
D53*
X1194000Y1431598D3*
Y1506402D3*
D51*
X662749Y1166588D3*
Y1083911D3*
X794000Y1172839D3*
Y1090161D3*
X937751Y1166588D3*
Y1083911D3*
X1075249Y1166588D3*
Y1083911D3*
D49*
X473916Y1968803D3*
D47*
X573916D3*
X673916D3*
X773916D3*
X873916D3*
X973916D3*
X1073916D3*
X1173916D3*
X1273907D3*
X1373907D3*
X1473907D3*
X1573907D3*
D31*
X1516047Y827071D3*
D45*
X729286Y1231499D3*
X796215Y1231501D3*
D43*
X556501Y1091785D3*
X556499Y1158714D3*
D45*
X1008714Y1237752D3*
X941785Y1237749D3*
D43*
X1162750Y1091785D3*
X1162748Y1158714D3*
D41*
X659748Y787701D3*
D39*
X797543D3*
X935339D3*
X1073134D3*
X1210929D3*
D37*
X1094000Y1729039D3*
X1044000D3*
X994000D3*
X944000D3*
X894000D3*
X844000D3*
X794000D3*
X744000D3*
X694000D3*
X644000D3*
Y1358961D3*
X694000D3*
X744000D3*
X794000D3*
X844000D3*
X894000D3*
X944000D3*
X994000D3*
X1044000D3*
X1094000D3*
D45*
X546215Y1656500D3*
X479286D3*
X546215Y1587751D3*
X479286D3*
X546215Y1525251D3*
X479286D3*
X546215Y1462751D3*
X479286D3*
M02*
