G04 DipTrace 4.0.0.2*
G04 TopSilk.gbr*
%MOIN*%
G04 #@! TF.FileFunction,Legend,Top*
G04 #@! TF.Part,Single*
%ADD10C,0.009843*%
%ADD20C,0.005906*%
%ADD55C,0.006176*%
%ADD56C,0.009264*%
%FSLAX26Y26*%
G04*
G70*
G90*
G75*
G01*
G04 TopSilk*
%LPD*%
X1219571Y1390239D2*
D10*
X1168429D1*
G36*
X662749Y1112749D2*
X681500Y1137749D1*
X643999D1*
D1*
X662749Y1112749D1*
G37*
X681500D2*
D20*
X643999D1*
X681500Y1056499D2*
X643999D1*
G36*
X794000Y1119000D2*
X812751Y1144000D1*
X775249D1*
D1*
X794000Y1119000D1*
G37*
X812751D2*
D20*
X775249D1*
X812751Y1062749D2*
X775249D1*
G36*
X937751Y1112749D2*
X956501Y1137749D1*
X919000D1*
D1*
X937751Y1112749D1*
G37*
X956501D2*
D20*
X919000D1*
X956501Y1056499D2*
X919000D1*
G36*
X1075249Y1112749D2*
X1094000Y1137749D1*
X1056499D1*
D1*
X1075249Y1112749D1*
G37*
X1094000D2*
D20*
X1056499D1*
X1094000Y1056499D2*
X1056499D1*
X394000Y2047543D2*
D10*
Y394000D1*
X1653843D1*
Y2047543D1*
X394000D1*
X590850Y842795D2*
Y728646D1*
X1279827D1*
Y842795D1*
X590850D1*
Y949118D2*
Y397937D1*
X1279827D1*
Y949118D1*
X590850D1*
X1120945Y1671958D2*
X617055D1*
X1120945Y1419991D2*
X617055D1*
Y1671958D2*
Y1419991D1*
X1120945Y1671958D2*
Y1577482D1*
Y1514467D2*
Y1419991D1*
Y1577482D2*
G03X1120945Y1514467I65J-31507D01*
G01*
X1395472Y1171636D2*
D56*
Y1142985D1*
X1421272Y1140133D1*
X1418420Y1142985D1*
X1415502Y1151607D1*
Y1160162D1*
X1418420Y1168784D1*
X1424124Y1174555D1*
X1432746Y1177406D1*
X1438449D1*
X1447072Y1174555D1*
X1452842Y1168784D1*
X1455694Y1160162D1*
Y1151607D1*
X1452842Y1142985D1*
X1449923Y1140133D1*
X1444220Y1137214D1*
X1395406Y1195934D2*
X1455694Y1218881D1*
X1395406Y1241829D1*
Y1335922D2*
X1398257Y1330152D1*
X1404028Y1324448D1*
X1409731Y1321530D1*
X1418353Y1318678D1*
X1432746D1*
X1441301Y1321530D1*
X1447072Y1324448D1*
X1452775Y1330152D1*
X1455694Y1335922D1*
Y1347396D1*
X1452775Y1353099D1*
X1447072Y1358870D1*
X1441301Y1361722D1*
X1432746Y1364573D1*
X1418353D1*
X1409731Y1361722D1*
X1404028Y1358870D1*
X1398257Y1353099D1*
X1395406Y1347396D1*
Y1335922D1*
X1415502Y1383101D2*
X1444220D1*
X1452775Y1385952D1*
X1455694Y1391723D1*
Y1400345D1*
X1452775Y1406048D1*
X1444220Y1414671D1*
X1415502D2*
X1455694D1*
X1395406Y1441820D2*
X1444220D1*
X1452775Y1444672D1*
X1455694Y1450442D1*
Y1456146D1*
X1415502Y1433198D2*
Y1453294D1*
Y1474673D2*
X1475790D1*
X1424124D2*
X1418420Y1480443D1*
X1415502Y1486147D1*
Y1494769D1*
X1418420Y1500539D1*
X1424124Y1506243D1*
X1432746Y1509161D1*
X1438516D1*
X1447072Y1506243D1*
X1452842Y1500539D1*
X1455694Y1494769D1*
Y1486147D1*
X1452842Y1480443D1*
X1447072Y1474673D1*
X1415502Y1527688D2*
X1444220D1*
X1452775Y1530540D1*
X1455694Y1536310D1*
Y1544932D1*
X1452775Y1550636D1*
X1444220Y1559258D1*
X1415502D2*
X1455694D1*
X1395406Y1586407D2*
X1444220D1*
X1452775Y1589259D1*
X1455694Y1595029D1*
Y1600733D1*
X1415502Y1577785D2*
Y1597881D1*
X1395406Y1677581D2*
X1455694Y1700529D1*
X1395406Y1723477D1*
X1406946Y1742004D2*
X1404028Y1747774D1*
X1395472Y1756396D1*
X1455694D1*
X1449923Y1777775D2*
X1452842Y1774923D1*
X1455694Y1777775D1*
X1452842Y1780693D1*
X1449923Y1777775D1*
X1406946Y1799221D2*
X1404028Y1804991D1*
X1395472Y1813613D1*
X1455694D1*
X1509795Y1306284D2*
Y1297662D1*
X1512647Y1291959D1*
X1515499Y1289040D1*
X1521269Y1286188D1*
X1532743D1*
X1535595Y1289040D1*
Y1294810D1*
X1532743Y1306284D1*
X1538447Y1309136D1*
Y1311988D1*
X1532743Y1317758D1*
X1518417Y1320610D1*
X1509795Y1317758D1*
X1504025Y1314906D1*
X1498321Y1309136D1*
X1495469Y1303433D1*
Y1291959D1*
X1498321Y1286188D1*
X1504025Y1280485D1*
X1509795Y1277566D1*
X1518417Y1274714D1*
X1532743D1*
X1541365Y1277566D1*
X1547069Y1280485D1*
X1552839Y1286188D1*
X1555691Y1291959D1*
Y1303433D1*
X1552839Y1309136D1*
X1547069Y1314906D1*
X1506943Y1306284D2*
X1532743D1*
X1495403Y1339137D2*
X1555691D1*
X1524121D2*
X1518351Y1344908D1*
X1515499Y1350611D1*
Y1359233D1*
X1518351Y1364937D1*
X1524121Y1370707D1*
X1532743Y1373559D1*
X1538447D1*
X1547069Y1370707D1*
X1552773Y1364937D1*
X1555691Y1359233D1*
Y1350611D1*
X1552773Y1344908D1*
X1547069Y1339137D1*
X1515499Y1392086D2*
X1544217D1*
X1552773Y1394938D1*
X1555691Y1400708D1*
Y1409330D1*
X1552773Y1415034D1*
X1544217Y1423656D1*
X1515499D2*
X1555691D1*
X1495403Y1442183D2*
X1498255Y1445035D1*
X1495403Y1447954D1*
X1492485Y1445035D1*
X1495403Y1442183D1*
X1515499Y1445035D2*
X1555691D1*
X1495403Y1466481D2*
X1555691D1*
X1495403Y1519430D2*
X1555691D1*
X1524121D2*
X1518351Y1513726D1*
X1515499Y1507956D1*
Y1499334D1*
X1518351Y1493630D1*
X1524121Y1487860D1*
X1532743Y1485008D1*
X1538447D1*
X1547069Y1487860D1*
X1552773Y1493630D1*
X1555691Y1499334D1*
Y1507956D1*
X1552773Y1513726D1*
X1547069Y1519430D1*
X1495403Y1537957D2*
X1555691D1*
X1515499Y1570810D2*
X1518351Y1565106D1*
X1524121Y1559336D1*
X1532743Y1556484D1*
X1538447D1*
X1547069Y1559336D1*
X1552773Y1565106D1*
X1555691Y1570810D1*
Y1579432D1*
X1552773Y1585202D1*
X1547069Y1590906D1*
X1538447Y1593824D1*
X1532743D1*
X1524121Y1590906D1*
X1518351Y1585202D1*
X1515499Y1579432D1*
Y1570810D1*
X1518351Y1646773D2*
X1564313D1*
X1572869Y1643921D1*
X1575787Y1641069D1*
X1578639Y1635299D1*
Y1626677D1*
X1575787Y1620973D1*
X1526973Y1646773D2*
X1521269Y1641069D1*
X1518351Y1635299D1*
Y1626677D1*
X1521269Y1620973D1*
X1526973Y1615203D1*
X1535595Y1612351D1*
X1541365D1*
X1549921Y1615203D1*
X1555691Y1620973D1*
X1558543Y1626677D1*
Y1635299D1*
X1555691Y1641069D1*
X1549921Y1646773D1*
X1562543Y1916057D2*
D55*
X1558740Y1914155D1*
X1554893Y1910309D1*
X1552992Y1906506D1*
Y1898857D1*
X1554893Y1895010D1*
X1558740Y1891208D1*
X1562543Y1889262D1*
X1568291Y1887361D1*
X1577886D1*
X1583589Y1889262D1*
X1587436Y1891208D1*
X1591239Y1895010D1*
X1593184Y1898857D1*
Y1906506D1*
X1591239Y1910309D1*
X1587436Y1914155D1*
X1583589Y1916057D1*
X1577886D1*
Y1906506D1*
X646836Y1864412D2*
Y1845311D1*
X664035Y1843410D1*
X662134Y1845311D1*
X660189Y1851059D1*
Y1856763D1*
X662134Y1862511D1*
X665937Y1866358D1*
X671685Y1868259D1*
X675487D1*
X681235Y1866358D1*
X685082Y1862511D1*
X686983Y1856763D1*
Y1851059D1*
X685082Y1845311D1*
X683137Y1843410D1*
X679334Y1841464D1*
X660189Y1880611D2*
X686983Y1892107D1*
X660189Y1903558D1*
X468842Y1903557D2*
X465039Y1901655D1*
X461193Y1897809D1*
X459291Y1894006D1*
Y1886357D1*
X461193Y1882510D1*
X465039Y1878708D1*
X468842Y1876762D1*
X474590Y1874861D1*
X484185D1*
X489889Y1876762D1*
X493735Y1878708D1*
X497538Y1882510D1*
X499483Y1886357D1*
Y1894006D1*
X497538Y1897809D1*
X493735Y1901655D1*
X489889Y1903557D1*
X484185D1*
Y1894006D1*
X766985Y1881462D2*
X765039Y1885309D1*
X759336Y1891057D1*
X799483D1*
X862637Y1878708D2*
X860736D1*
X856889Y1880609D1*
X854988Y1882510D1*
X853086Y1886357D1*
Y1894006D1*
X854988Y1897809D1*
X856889Y1899710D1*
X860736Y1901656D1*
X864538D1*
X868385Y1899710D1*
X874089Y1895908D1*
X893234Y1876762D1*
Y1903557D1*
X959336Y1880609D2*
Y1901612D1*
X974634Y1890160D1*
Y1895908D1*
X976535Y1899710D1*
X978437Y1901612D1*
X984185Y1903557D1*
X987987D1*
X993735Y1901612D1*
X997582Y1897809D1*
X999483Y1892061D1*
Y1886313D1*
X997582Y1880609D1*
X995637Y1878708D1*
X991834Y1876762D1*
X1099483Y1894006D2*
X1059336D1*
X1086086Y1874861D1*
Y1903557D1*
X553042Y1820961D2*
X593234Y1836259D1*
X553042Y1851558D1*
Y1863909D2*
X593234D1*
X566439Y1876261D2*
X593234D1*
X574089D2*
X568341Y1882009D1*
X566439Y1885855D1*
Y1891559D1*
X568341Y1895406D1*
X574089Y1897307D1*
X593234D1*
X631946Y977819D2*
D56*
X629028Y983590D1*
X620472Y992212D1*
X680694D1*
X772298Y974487D2*
X769446D1*
X763676Y977339D1*
X760824Y980191D1*
X757972Y985961D1*
Y997435D1*
X760824Y1003139D1*
X763676Y1005991D1*
X769446Y1008909D1*
X775150D1*
X780920Y1005991D1*
X789476Y1000287D1*
X818194Y971569D1*
Y1011761D1*
X895472Y977339D2*
Y1008843D1*
X918420Y991665D1*
Y1000287D1*
X921272Y1005991D1*
X924124Y1008843D1*
X932746Y1011761D1*
X938449D1*
X947072Y1008843D1*
X952842Y1003139D1*
X955694Y994517D1*
Y985895D1*
X952842Y977339D1*
X949923Y974487D1*
X944220Y971569D1*
X1099444Y1000287D2*
X1039223D1*
X1079348Y971569D1*
Y1014613D1*
X1190982Y1008363D2*
X1185278Y1005511D1*
X1179508Y999741D1*
X1176656Y994037D1*
Y982564D1*
X1179508Y976793D1*
X1185278Y971090D1*
X1190982Y968171D1*
X1199604Y965319D1*
X1213996D1*
X1222552Y968171D1*
X1228322Y971090D1*
X1234026Y976793D1*
X1236944Y982564D1*
Y994037D1*
X1234026Y999741D1*
X1228322Y1005511D1*
X1222552Y1008363D1*
X1213996D1*
Y994037D1*
X1246695Y1475590D2*
D55*
X1242893Y1473689D1*
X1239046Y1469842D1*
X1237145Y1466040D1*
Y1458391D1*
X1239046Y1454544D1*
X1242893Y1450741D1*
X1246695Y1448796D1*
X1252443Y1446894D1*
X1262038D1*
X1267742Y1448796D1*
X1271589Y1450741D1*
X1275391Y1454544D1*
X1277337Y1458391D1*
Y1466040D1*
X1275391Y1469842D1*
X1271589Y1473689D1*
X1267742Y1475590D1*
X1250542Y1512835D2*
X1256290Y1510890D1*
X1260137Y1507087D1*
X1262038Y1501339D1*
Y1499438D1*
X1260137Y1493690D1*
X1256290Y1489887D1*
X1250542Y1487942D1*
X1248641D1*
X1242893Y1489887D1*
X1239090Y1493690D1*
X1237189Y1499438D1*
Y1501339D1*
X1239090Y1507087D1*
X1242893Y1510890D1*
X1250542Y1512835D1*
X1260137D1*
X1269687Y1510890D1*
X1275435Y1507087D1*
X1277337Y1501339D1*
Y1497537D1*
X1275435Y1491789D1*
X1271589Y1489887D1*
X590293Y1068983D2*
X630485D1*
Y1091931D1*
X590293Y1129132D2*
Y1104283D1*
X630485D1*
Y1129132D1*
X609438Y1104283D2*
Y1119581D1*
X590293Y1141483D2*
X630485D1*
Y1154881D1*
X628539Y1160629D1*
X624737Y1164475D1*
X620890Y1166377D1*
X615186Y1168278D1*
X605592D1*
X599844Y1166377D1*
X596041Y1164475D1*
X592194Y1160629D1*
X590293Y1154881D1*
Y1141483D1*
X597986Y1180629D2*
X596041Y1184476D1*
X590337Y1190224D1*
X630485D1*
X715294Y1060385D2*
X755486D1*
Y1083333D1*
X715294Y1120533D2*
Y1095684D1*
X755486D1*
Y1120533D1*
X734440Y1095684D2*
Y1110983D1*
X715294Y1132885D2*
X755486D1*
Y1146282D1*
X753541Y1152030D1*
X749738Y1155877D1*
X745891Y1157778D1*
X740188Y1159679D1*
X730593D1*
X724845Y1157778D1*
X721042Y1155877D1*
X717196Y1152030D1*
X715294Y1146282D1*
Y1132885D1*
X724889Y1173976D2*
X722988D1*
X719141Y1175877D1*
X717240Y1177779D1*
X715338Y1181625D1*
Y1189275D1*
X717240Y1193077D1*
X719141Y1194979D1*
X722988Y1196924D1*
X726790D1*
X730637Y1194979D1*
X736341Y1191176D1*
X755486Y1172031D1*
Y1198825D1*
X865294Y1054134D2*
X905486D1*
Y1077082D1*
X865294Y1114283D2*
Y1089433D1*
X905486D1*
Y1114283D1*
X884440Y1089433D2*
Y1104732D1*
X865294Y1126634D2*
X905486D1*
Y1140031D1*
X903541Y1145779D1*
X899738Y1149626D1*
X895891Y1151527D1*
X890188Y1153429D1*
X880593D1*
X874845Y1151527D1*
X871042Y1149626D1*
X867196Y1145779D1*
X865294Y1140031D1*
Y1126634D1*
X865338Y1169627D2*
Y1190629D1*
X880637Y1179177D1*
Y1184925D1*
X882538Y1188728D1*
X884440Y1190629D1*
X890188Y1192575D1*
X893990D1*
X899738Y1190629D1*
X903585Y1186827D1*
X905486Y1181079D1*
Y1175331D1*
X903585Y1169627D1*
X901639Y1167725D1*
X897837Y1165780D1*
X1002793Y1053183D2*
X1042985D1*
Y1076131D1*
X1002793Y1113332D2*
Y1088483D1*
X1042985D1*
Y1113332D1*
X1021938Y1088483D2*
Y1103781D1*
X1002793Y1125683D2*
X1042985D1*
Y1139081D1*
X1041039Y1144829D1*
X1037237Y1148675D1*
X1033390Y1150577D1*
X1027686Y1152478D1*
X1018092D1*
X1012344Y1150577D1*
X1008541Y1148675D1*
X1004694Y1144829D1*
X1002793Y1139081D1*
Y1125683D1*
X1042985Y1183975D2*
X1002837D1*
X1029588Y1164829D1*
Y1193525D1*
X729777Y1284367D2*
X746977D1*
X752725Y1286313D1*
X754671Y1288214D1*
X756572Y1292017D1*
Y1295863D1*
X754670Y1299666D1*
X752725Y1301611D1*
X746977Y1303512D1*
X729777D1*
X729778Y1263320D1*
X743175Y1284367D2*
X756573Y1263321D1*
X770869Y1293918D2*
Y1295820D1*
X772770Y1299666D1*
X774671Y1301568D1*
X778518Y1303469D1*
X786167D1*
X789970Y1301568D1*
X791871Y1299667D1*
X793817Y1295820D1*
Y1292018D1*
X791871Y1288171D1*
X788069Y1282467D1*
X768924Y1263321D1*
X795719Y1263322D1*
X503633Y1107127D2*
Y1124327D1*
X501687Y1130075D1*
X499786Y1132021D1*
X495983Y1133922D1*
X492136D1*
X488334Y1132020D1*
X486388Y1130075D1*
X484487Y1124327D1*
Y1107127D1*
X524679Y1107128D1*
X503633Y1120525D2*
X524679Y1133922D1*
X492180Y1146273D2*
X490235Y1150120D1*
X484531Y1155868D1*
X524679Y1155869D1*
X942277Y1288747D2*
X959477D1*
X965225Y1290693D1*
X967170Y1292595D1*
X969071Y1296397D1*
Y1300244D1*
X967170Y1304046D1*
X965224Y1305992D1*
X959476Y1307893D1*
X942276Y1307892D1*
X942278Y1267700D1*
X955674Y1288747D2*
X969073Y1267701D1*
X985269Y1307850D2*
X1006272D1*
X994820Y1292551D1*
X1000568Y1292552D1*
X1004371Y1290650D1*
X1006272Y1288749D1*
X1008218Y1283001D1*
Y1279199D1*
X1006273Y1273451D1*
X1002471Y1269604D1*
X996723Y1267702D1*
X990975D1*
X985271Y1269603D1*
X983369Y1271548D1*
X981424Y1275351D1*
X1209881Y1097575D2*
Y1114775D1*
X1207935Y1120523D1*
X1206034Y1122469D1*
X1202231Y1124370D1*
X1198385D1*
X1194582Y1122468D1*
X1192637Y1120523D1*
X1190736Y1114775D1*
Y1097575D1*
X1230928Y1097576D1*
X1209881Y1110973D2*
X1230927Y1124371D1*
X1230926Y1155867D2*
X1190778Y1155866D1*
X1217529Y1136722D1*
Y1165418D1*
X904792Y645197D2*
Y605005D1*
X891395Y645197D2*
X918190D1*
X930541D2*
Y605005D1*
X947785D1*
X953533Y606950D1*
X955435Y608851D1*
X957336Y612654D1*
Y618402D1*
X955435Y622249D1*
X953533Y624150D1*
X947785Y626051D1*
X953533Y627997D1*
X955435Y629898D1*
X957336Y633701D1*
Y637547D1*
X955435Y641350D1*
X953533Y643295D1*
X947785Y645197D1*
X930541D1*
Y626051D2*
X947785D1*
X969687Y637503D2*
X973534Y639449D1*
X979282Y645152D1*
Y605005D1*
X1149866Y1598530D2*
X1178562D1*
X1184310Y1600431D1*
X1188113Y1604278D1*
X1190058Y1610026D1*
Y1613828D1*
X1188113Y1619576D1*
X1184310Y1623423D1*
X1178562Y1625324D1*
X1149866D1*
X1149911Y1660624D2*
Y1641522D1*
X1167111Y1639621D1*
X1165209Y1641522D1*
X1163264Y1647270D1*
Y1652974D1*
X1165209Y1658722D1*
X1169012Y1662569D1*
X1174760Y1664470D1*
X1178562D1*
X1184310Y1662569D1*
X1188157Y1658722D1*
X1190058Y1652974D1*
Y1647270D1*
X1188157Y1641522D1*
X1186212Y1639621D1*
X1182409Y1637676D1*
X486031Y1707497D2*
X503231D1*
X508979Y1709443D1*
X510924Y1711344D1*
X512826Y1715147D1*
Y1718993D1*
X510924Y1722796D1*
X508979Y1724741D1*
X503231Y1726643D1*
X486031D1*
Y1686451D1*
X499428Y1707497D2*
X512826Y1686451D1*
X532826D2*
X551972Y1726599D1*
X525177D1*
X636053Y1588749D2*
X653253D1*
X659001Y1590695D1*
X660946Y1592596D1*
X662848Y1596399D1*
Y1600245D1*
X660946Y1604048D1*
X659001Y1605993D1*
X653253Y1607895D1*
X636053D1*
Y1567703D1*
X649450Y1588749D2*
X662848Y1567703D1*
X684750Y1607851D2*
X679046Y1605949D1*
X677100Y1602147D1*
Y1598300D1*
X679046Y1594497D1*
X682848Y1592552D1*
X690498Y1590651D1*
X696246Y1588749D1*
X700048Y1584903D1*
X701950Y1581100D1*
Y1575352D1*
X700048Y1571549D1*
X698147Y1569604D1*
X692399Y1567703D1*
X684750D1*
X679046Y1569604D1*
X677100Y1571549D1*
X675199Y1575352D1*
Y1581100D1*
X677100Y1584903D1*
X680947Y1588749D1*
X686651Y1590651D1*
X694300Y1592552D1*
X698147Y1594497D1*
X700048Y1598300D1*
Y1602147D1*
X698147Y1605949D1*
X692399Y1607851D1*
X684750D1*
X636982Y1526249D2*
X654181D1*
X659929Y1528195D1*
X661875Y1530096D1*
X663776Y1533899D1*
Y1537745D1*
X661875Y1541548D1*
X659929Y1543493D1*
X654181Y1545395D1*
X636982D1*
Y1505203D1*
X650379Y1526249D2*
X663776Y1505203D1*
X701021Y1531997D2*
X699076Y1526249D1*
X695273Y1522403D1*
X689525Y1520501D1*
X687624D1*
X681876Y1522403D1*
X678073Y1526249D1*
X676128Y1531997D1*
Y1533899D1*
X678073Y1539647D1*
X681876Y1543449D1*
X687624Y1545351D1*
X689525D1*
X695273Y1543449D1*
X699076Y1539647D1*
X701021Y1531997D1*
Y1522403D1*
X699076Y1512852D1*
X695273Y1507104D1*
X689525Y1505203D1*
X685722D1*
X679974Y1507104D1*
X678073Y1510951D1*
X475058Y1413749D2*
X492258D1*
X498006Y1415695D1*
X499951Y1417596D1*
X501853Y1421399D1*
Y1425245D1*
X499951Y1429048D1*
X498006Y1430993D1*
X492258Y1432895D1*
X475058D1*
Y1392703D1*
X488455Y1413749D2*
X501853Y1392703D1*
X514204Y1425201D2*
X518051Y1427147D1*
X523799Y1432851D1*
Y1392703D1*
X547646Y1432851D2*
X541898Y1430949D1*
X538051Y1425201D1*
X536150Y1415651D1*
Y1409903D1*
X538051Y1400352D1*
X541898Y1394604D1*
X547646Y1392703D1*
X551449D1*
X557197Y1394604D1*
X560999Y1400352D1*
X562945Y1409903D1*
Y1415651D1*
X560999Y1425201D1*
X557197Y1430949D1*
X551449Y1432851D1*
X547646D1*
X560999Y1425201D2*
X538051Y1400352D1*
M02*
