G04 DipTrace 4.0.0.2*
G04 2 - Bottom.gbr*
%MOIN*%
G04 #@! TF.FileFunction,Copper,L2,Bot*
G04 #@! TF.Part,Single*
G04 #@! TA.AperFunction,Conductor*
%ADD15C,0.016*%
%ADD16C,0.018*%
G04 #@! TA.AperFunction,CopperBalancing*
%ADD18C,0.025*%
G04 #@! TA.AperFunction,ComponentPad*
%ADD21R,0.059055X0.059055*%
%ADD22C,0.059055*%
%ADD24R,0.086614X0.086614*%
%ADD25C,0.086614*%
G04 #@! TA.AperFunction,ViaPad*
%ADD29C,0.04*%
%FSLAX26Y26*%
G04*
G70*
G90*
G75*
G01*
G04 Bottom*
%LPD*%
X1018700Y1606200D2*
D16*
X1087451D1*
X1106200Y1624951D1*
X1449949D1*
X843700Y1437451D2*
D15*
X868700Y1412451D1*
X1024952D1*
X1087451Y1474949D1*
X1137451D1*
X968700Y1474951D2*
Y1487449D1*
X1056200Y1574949D1*
X1137451D1*
X637451Y1356200D2*
X774951D1*
X773616Y1968503D2*
D16*
Y1667365D1*
X637451Y1531200D1*
Y1356200D1*
D29*
X1018700Y1606200D3*
X1449949Y1624951D3*
X968700Y1474951D3*
X637451Y1356200D3*
X774951D3*
X637451D3*
X581200Y1618700D3*
Y1581200D3*
X1024949Y1056200D3*
X1012451Y1793700D3*
Y1681200D3*
X1281200Y1662451D3*
X1399949Y1393700D3*
X1137451Y1574949D3*
Y1474949D3*
X843700Y1437451D3*
X448088Y1970504D2*
D18*
X503123D1*
X1544099D2*
X1599169D1*
X448088Y1945636D2*
X507033D1*
X1540187D2*
X1599169D1*
X448088Y1920767D2*
X522644D1*
X1524578D2*
X1599169D1*
X448088Y1895898D2*
X723630D1*
X823616D2*
X1599169D1*
X448088Y1871029D2*
X723630D1*
X823616D2*
X1599169D1*
X448088Y1846161D2*
X723630D1*
X823616D2*
X1599169D1*
X448088Y1821292D2*
X723630D1*
X823616D2*
X1599169D1*
X448088Y1796423D2*
X723630D1*
X823616D2*
X1599169D1*
X448088Y1771554D2*
X723630D1*
X823616D2*
X1599169D1*
X448088Y1746686D2*
X723630D1*
X823616D2*
X1599169D1*
X448088Y1721817D2*
X723630D1*
X823616D2*
X1599169D1*
X448088Y1696948D2*
X723630D1*
X823616D2*
X1599169D1*
X448088Y1672079D2*
X708667D1*
X823616D2*
X1097759D1*
X1487115D2*
X1599169D1*
X448088Y1647210D2*
X683800D1*
X819130D2*
X974497D1*
X1506564D2*
X1599169D1*
X448088Y1622342D2*
X658931D1*
X798281D2*
X959964D1*
X1510906D2*
X1599169D1*
X448088Y1597473D2*
X634064D1*
X773414D2*
X958350D1*
X1504088D2*
X1599169D1*
X448088Y1572604D2*
X609196D1*
X748546D2*
X968325D1*
X1198390D2*
X1421327D1*
X1478574D2*
X1599169D1*
X448088Y1547735D2*
X590428D1*
X723679D2*
X960717D1*
X1191752D2*
X1599169D1*
X448088Y1522867D2*
X587451D1*
X698775D2*
X932655D1*
X1173523D2*
X1599169D1*
X448088Y1497998D2*
X587451D1*
X687435D2*
X912418D1*
X1193725D2*
X1599169D1*
X448088Y1473129D2*
X587451D1*
X687435D2*
X794825D1*
X892549D2*
X907717D1*
X1198426D2*
X1599169D1*
X448088Y1448260D2*
X587451D1*
X687435D2*
X783701D1*
X1192003D2*
X1599169D1*
X448088Y1423392D2*
X587451D1*
X687435D2*
X784418D1*
X1167602D2*
X1599169D1*
X448088Y1398523D2*
X587451D1*
X1079291D2*
X1599169D1*
X448088Y1373654D2*
X579125D1*
X1053095D2*
X1599169D1*
X448088Y1348785D2*
X576936D1*
X835494D2*
X1599169D1*
X448088Y1323917D2*
X586158D1*
X826235D2*
X1599169D1*
X448088Y1299048D2*
X622473D1*
X652448D2*
X759981D1*
X789920D2*
X1599169D1*
X448088Y1274179D2*
X1599169D1*
X448088Y1249310D2*
X1599169D1*
X448088Y1224441D2*
X1599169D1*
X448088Y1199573D2*
X1599169D1*
X448088Y1174704D2*
X1599169D1*
X448088Y1149835D2*
X1599169D1*
X448088Y1124966D2*
X1599169D1*
X448088Y1100098D2*
X1599169D1*
X448088Y1075229D2*
X1599169D1*
X448088Y1050360D2*
X1599169D1*
X448088Y1025491D2*
X1599169D1*
X448088Y1000623D2*
X1599169D1*
X448088Y975754D2*
X1599169D1*
X448088Y950885D2*
X1471313D1*
X1560175D2*
X1599169D1*
X448088Y926016D2*
X1427750D1*
X448088Y901148D2*
X1405394D1*
X448088Y876279D2*
X1391973D1*
X448088Y851410D2*
X714911D1*
X981507D2*
X1384582D1*
X448088Y826541D2*
X714911D1*
X1007594D2*
X1382249D1*
X448088Y801672D2*
X714911D1*
X1018718D2*
X1384653D1*
X448088Y776804D2*
X714911D1*
X1021195D2*
X1392153D1*
X448088Y751935D2*
X714911D1*
X1015884D2*
X1405717D1*
X448088Y727066D2*
X714911D1*
X1000848D2*
X1428288D1*
X448088Y702197D2*
X714911D1*
X883507D2*
X913279D1*
X960729D2*
X1472713D1*
X1558775D2*
X1599169D1*
X448088Y677329D2*
X1599169D1*
X448088Y652460D2*
X1599169D1*
X448088Y627591D2*
X1599169D1*
X448088Y602722D2*
X1599169D1*
X448088Y577854D2*
X1599169D1*
X448088Y552985D2*
X1599169D1*
X448088Y528116D2*
X1599169D1*
X448088Y503247D2*
X1599169D1*
X448088Y478378D2*
X1599169D1*
X448088Y453510D2*
X1599169D1*
X623574Y1922407D2*
X617796Y1916775D1*
X609161Y1910501D1*
X599649Y1905654D1*
X589497Y1902355D1*
X578953Y1900686D1*
X568279D1*
X557735Y1902355D1*
X547583Y1905654D1*
X538071Y1910501D1*
X529436Y1916775D1*
X521888Y1924323D1*
X515613Y1932959D1*
X510767Y1942470D1*
X507468Y1952623D1*
X505798Y1963166D1*
Y1973840D1*
X507468Y1984384D1*
X510767Y1994536D1*
X511159Y1995389D1*
X445561Y1995373D1*
X445570Y445543D1*
X1601682Y445570D1*
X1601672Y727899D1*
X1595985Y723214D1*
X1588532Y717847D1*
X1580722Y713015D1*
X1572591Y708742D1*
X1564183Y705049D1*
X1555535Y701955D1*
X1546692Y699474D1*
X1537696Y697619D1*
X1528594Y696398D1*
X1519427Y695818D1*
X1510243Y695882D1*
X1501086Y696590D1*
X1492001Y697938D1*
X1483032Y699918D1*
X1474225Y702522D1*
X1465621Y705735D1*
X1457264Y709545D1*
X1449195Y713931D1*
X1441452Y718872D1*
X1434074Y724342D1*
X1427099Y730317D1*
X1420558Y736764D1*
X1414486Y743655D1*
X1408911Y750955D1*
X1403861Y758627D1*
X1399363Y766633D1*
X1395435Y774935D1*
X1392099Y783493D1*
X1389371Y792263D1*
X1387263Y801201D1*
X1385787Y810267D1*
X1384951Y819413D1*
X1384756Y828595D1*
X1385205Y837770D1*
X1386297Y846889D1*
X1388025Y855909D1*
X1390380Y864787D1*
X1393352Y873477D1*
X1396926Y881938D1*
X1401082Y890128D1*
X1405804Y898006D1*
X1411065Y905533D1*
X1416840Y912675D1*
X1423103Y919394D1*
X1429819Y925657D1*
X1436960Y931435D1*
X1444486Y936697D1*
X1452364Y941420D1*
X1460552Y945579D1*
X1469012Y949155D1*
X1477703Y952129D1*
X1486579Y954486D1*
X1495599Y956216D1*
X1504718Y957310D1*
X1513892Y957762D1*
X1523074Y957570D1*
X1532220Y956735D1*
X1541285Y955262D1*
X1550226Y953157D1*
X1558997Y950430D1*
X1567554Y947096D1*
X1575857Y943170D1*
X1583865Y938672D1*
X1591539Y933625D1*
X1601666Y925562D1*
X1601672Y1995401D1*
X1536082Y1995373D1*
X1538305Y1989525D1*
X1540797Y1979145D1*
X1541634Y1968503D1*
X1540797Y1957861D1*
X1538305Y1947481D1*
X1534220Y1937619D1*
X1528642Y1928518D1*
X1521709Y1920401D1*
X1513592Y1913468D1*
X1504491Y1907890D1*
X1494629Y1903805D1*
X1484249Y1901313D1*
X1473607Y1900476D1*
X1462965Y1901313D1*
X1452585Y1903805D1*
X1442722Y1907890D1*
X1433621Y1913468D1*
X1425504Y1920401D1*
X1423649Y1922407D1*
X1417787Y1916775D1*
X1409151Y1910501D1*
X1399640Y1905654D1*
X1389487Y1902355D1*
X1378944Y1900686D1*
X1368270D1*
X1357726Y1902355D1*
X1347574Y1905654D1*
X1338062Y1910501D1*
X1329427Y1916775D1*
X1323649Y1922407D1*
X1317787Y1916775D1*
X1309151Y1910501D1*
X1299640Y1905654D1*
X1289487Y1902355D1*
X1278944Y1900686D1*
X1268270D1*
X1257726Y1902355D1*
X1247574Y1905654D1*
X1238062Y1910501D1*
X1229427Y1916775D1*
X1223649Y1922407D1*
X1217796Y1916775D1*
X1209161Y1910501D1*
X1199649Y1905654D1*
X1189497Y1902355D1*
X1178953Y1900686D1*
X1168279D1*
X1157735Y1902355D1*
X1147583Y1905654D1*
X1138071Y1910501D1*
X1129436Y1916775D1*
X1123658Y1922407D1*
X1117796Y1916775D1*
X1109161Y1910501D1*
X1099649Y1905654D1*
X1089497Y1902355D1*
X1078953Y1900686D1*
X1068279D1*
X1057735Y1902355D1*
X1047583Y1905654D1*
X1038071Y1910501D1*
X1029436Y1916775D1*
X1023658Y1922407D1*
X1017796Y1916775D1*
X1009161Y1910501D1*
X999649Y1905654D1*
X989497Y1902355D1*
X978953Y1900686D1*
X968279D1*
X957735Y1902355D1*
X947583Y1905654D1*
X938071Y1910501D1*
X929436Y1916775D1*
X923658Y1922407D1*
X917796Y1916775D1*
X909161Y1910501D1*
X899649Y1905654D1*
X889497Y1902355D1*
X878953Y1900686D1*
X868279D1*
X857735Y1902355D1*
X847583Y1905654D1*
X838071Y1910501D1*
X829436Y1916775D1*
X823658Y1922407D1*
X821121Y1919848D1*
X820970Y1663640D1*
X819804Y1656277D1*
X817501Y1649188D1*
X814116Y1642548D1*
X809735Y1636518D1*
X788023Y1614598D1*
X684928Y1511503D1*
X684951Y1402704D1*
X739451Y1402700D1*
X744384Y1406079D1*
X752564Y1410247D1*
X761293Y1413083D1*
X770360Y1414520D1*
X779540D1*
X788607Y1413083D1*
X790800Y1412465D1*
X788064Y1419373D1*
X785920Y1428300D1*
X785200Y1437451D1*
X785920Y1446602D1*
X788064Y1455528D1*
X791577Y1464010D1*
X796372Y1471836D1*
X802334Y1478817D1*
X809314Y1484779D1*
X817141Y1489574D1*
X825623Y1493087D1*
X834549Y1495230D1*
X843700Y1495951D1*
X852851Y1495230D1*
X861777Y1493087D1*
X870259Y1489574D1*
X878086Y1484779D1*
X885066Y1478817D1*
X891028Y1471836D1*
X895823Y1464010D1*
X898077Y1458945D1*
X912440Y1458951D1*
X910920Y1465800D1*
X910200Y1474951D1*
X910920Y1484102D1*
X913064Y1493028D1*
X916577Y1501510D1*
X921372Y1509336D1*
X927334Y1516317D1*
X934314Y1522279D1*
X942141Y1527074D1*
X942940Y1527443D1*
X978836Y1563347D1*
X974216Y1568208D1*
X968821Y1575634D1*
X964653Y1583813D1*
X961817Y1592544D1*
X960380Y1601611D1*
Y1610789D1*
X961817Y1619856D1*
X964653Y1628587D1*
X968821Y1636766D1*
X974216Y1644192D1*
X980708Y1650684D1*
X988134Y1656079D1*
X996313Y1660247D1*
X1005044Y1663083D1*
X1014111Y1664520D1*
X1023289D1*
X1032356Y1663083D1*
X1041087Y1660247D1*
X1049266Y1656079D1*
X1052831Y1653697D1*
X1067808Y1653700D1*
X1075351Y1661069D1*
X1081381Y1665451D1*
X1088023Y1668834D1*
X1095111Y1671137D1*
X1102473Y1672304D1*
X1133619Y1672451D1*
X1415776D1*
X1423392Y1677074D1*
X1431872Y1680587D1*
X1440798Y1682730D1*
X1449951Y1683449D1*
X1459102Y1682730D1*
X1468028Y1680587D1*
X1476508Y1677074D1*
X1484335Y1672277D1*
X1491315Y1666315D1*
X1497277Y1659335D1*
X1502074Y1651508D1*
X1505587Y1643028D1*
X1507730Y1634102D1*
X1508449Y1624951D1*
X1507730Y1615798D1*
X1505587Y1606872D1*
X1502074Y1598392D1*
X1497277Y1590565D1*
X1491315Y1583585D1*
X1484335Y1577623D1*
X1476508Y1572826D1*
X1468028Y1569313D1*
X1459102Y1567170D1*
X1449949Y1566451D1*
X1440798Y1567170D1*
X1431872Y1569313D1*
X1423392Y1572826D1*
X1415818Y1577453D1*
X1195923Y1577449D1*
X1195771Y1570360D1*
X1194334Y1561293D1*
X1191498Y1552562D1*
X1187330Y1544384D1*
X1181935Y1536957D1*
X1175443Y1530465D1*
X1167813Y1524956D1*
X1175443Y1519434D1*
X1181935Y1512941D1*
X1187330Y1505515D1*
X1191498Y1497336D1*
X1194334Y1488606D1*
X1195771Y1479539D1*
Y1470360D1*
X1194334Y1461293D1*
X1191498Y1452562D1*
X1187330Y1444384D1*
X1181935Y1436957D1*
X1175443Y1430465D1*
X1168016Y1425070D1*
X1159838Y1420902D1*
X1151107Y1418066D1*
X1142040Y1416629D1*
X1132861D1*
X1123794Y1418066D1*
X1115064Y1420902D1*
X1106885Y1425070D1*
X1104751Y1426495D1*
X1055151Y1377092D1*
X1049249Y1372802D1*
X1042747Y1369490D1*
X1035808Y1367235D1*
X1028600Y1366094D1*
X997898Y1365951D1*
X865052Y1366094D1*
X857844Y1367235D1*
X850905Y1369490D1*
X844403Y1372802D1*
X838490Y1377102D1*
X834549Y1379671D1*
X827850Y1381186D1*
X830587Y1374277D1*
X832730Y1365351D1*
X833449Y1356200D1*
X832730Y1347049D1*
X830587Y1338123D1*
X827074Y1329641D1*
X822277Y1321814D1*
X816315Y1314834D1*
X809335Y1308872D1*
X801508Y1304077D1*
X793028Y1300564D1*
X784102Y1298420D1*
X774951Y1297700D1*
X765798Y1298420D1*
X756872Y1300564D1*
X748392Y1304077D1*
X740565Y1308872D1*
X739508Y1309705D1*
X672949Y1309700D1*
X668016Y1306321D1*
X659836Y1302153D1*
X651107Y1299317D1*
X642040Y1297880D1*
X632860D1*
X623793Y1299317D1*
X615064Y1302153D1*
X606884Y1306321D1*
X599457Y1311716D1*
X592966Y1318208D1*
X587570Y1325634D1*
X583403Y1333813D1*
X580566Y1342544D1*
X579130Y1351611D1*
Y1360789D1*
X580566Y1369856D1*
X583403Y1378587D1*
X587570Y1386766D1*
X589953Y1390331D1*
X590096Y1534927D1*
X591262Y1542289D1*
X593566Y1549377D1*
X596949Y1556019D1*
X601331Y1562049D1*
X623044Y1583969D1*
X726137Y1687062D1*
X726116Y1919840D1*
X723658Y1922407D1*
X717796Y1916775D1*
X709161Y1910501D1*
X699649Y1905654D1*
X689497Y1902355D1*
X678953Y1900686D1*
X668279D1*
X657735Y1902355D1*
X647583Y1905654D1*
X638071Y1910501D1*
X629436Y1916775D1*
X623658Y1922407D1*
X726590Y863007D2*
X881018D1*
Y840867D1*
X888920Y847384D1*
X894262Y850952D1*
X899867Y854091D1*
X905700Y856780D1*
X911726Y859003D1*
X917909Y860747D1*
X924208Y862001D1*
X930587Y862755D1*
X937006Y863007D1*
X943424Y862755D1*
X949804Y862001D1*
X956103Y860747D1*
X962285Y859003D1*
X968312Y856780D1*
X974145Y854091D1*
X979750Y850952D1*
X985091Y847384D1*
X990136Y843406D1*
X994852Y839046D1*
X999212Y834330D1*
X1003190Y829285D1*
X1006758Y823944D1*
X1009897Y818339D1*
X1012586Y812506D1*
X1014809Y806480D1*
X1016553Y800297D1*
X1017806Y793998D1*
X1018561Y787619D1*
X1018813Y781200D1*
X1018561Y774781D1*
X1017806Y768402D1*
X1016553Y762103D1*
X1014809Y755920D1*
X1012586Y749894D1*
X1009897Y744061D1*
X1006758Y738456D1*
X1003190Y733115D1*
X999212Y728070D1*
X994852Y723354D1*
X990136Y718994D1*
X985091Y715016D1*
X979750Y711448D1*
X974145Y708309D1*
X968312Y705620D1*
X962285Y703397D1*
X956103Y701653D1*
X949804Y700399D1*
X943424Y699645D1*
X937006Y699393D1*
X930587Y699645D1*
X924208Y700399D1*
X917909Y701653D1*
X911726Y703397D1*
X905700Y705620D1*
X899867Y708309D1*
X894262Y711448D1*
X888920Y715016D1*
X881020Y721633D1*
X881018Y699393D1*
X717403D1*
Y863007D1*
X726590D1*
X672892Y1309705D2*
X668016Y1306321D1*
X659836Y1302153D1*
X651107Y1299317D1*
X642040Y1297880D1*
X632860D1*
X623793Y1299317D1*
X615064Y1302153D1*
X606884Y1306321D1*
X599457Y1311716D1*
X592966Y1318208D1*
X587570Y1325634D1*
X583403Y1333813D1*
X580566Y1342544D1*
X579130Y1351611D1*
Y1360789D1*
X580566Y1369856D1*
X583403Y1378587D1*
X587570Y1386766D1*
X589953Y1390331D1*
D21*
X473616Y1968503D3*
D22*
X573616D3*
X673616D3*
X773616D3*
X873616D3*
X973616D3*
X1073616D3*
X1173616D3*
X1273607D3*
X1373607D3*
X1473607D3*
X1573607D3*
D24*
X799210Y781200D3*
D25*
X937006D3*
X1074801D3*
M02*
