M48
INCH
T01C0.0191
T02C0.0354
T03C0.0472
T04C0.1378
%
T01
X+005812Y+016187
X+005812Y+015812
X+006375Y+013562
X+007750Y+013562
X+008437Y+014375
X+009687Y+014750
X+010187Y+016062
X+010125Y+016812
X+010125Y+017937
X+011375Y+015749
X+011375Y+014749
X+012812Y+016625
X+014499Y+016250
X+013999Y+013937
X+010249Y+010562
T02
X+004736Y+019685
X+005736Y+019685
X+006736Y+019685
X+007736Y+019685
X+008736Y+019685
X+009736Y+019685
X+010736Y+019685
X+011736Y+019685
X+012736Y+019685
X+013736Y+019685
X+014736Y+019685
X+015736Y+019685
T03
X+007992Y+007812
X+009370Y+007812
X+010748Y+007812
T04
X+015157Y+008268
T00
M30
