G04 DipTrace 4.0.0.2*
G04 TopMask.gbr*
%MOIN*%
G04 #@! TF.FileFunction,Soldermask,Top*
G04 #@! TF.Part,Single*
%ADD31C,0.137795*%
%ADD35C,0.04788*%
%ADD37R,0.08662X0.031502*%
%ADD39R,0.092526X0.135833*%
%ADD41R,0.092526X0.045282*%
%ADD43C,0.094494*%
%ADD45R,0.094494X0.094494*%
%ADD47R,0.066935X0.059061*%
%ADD49C,0.066935*%
%ADD51R,0.066935X0.066935*%
%ADD53R,0.059061X0.066935*%
%ADD55R,0.070872X0.078746*%
%FSLAX26Y26*%
G04*
G70*
G90*
G75*
G01*
G04 TopMask*
%LPD*%
D35*
X1018700Y1606200D3*
X1449949Y1624951D3*
X968700Y1474951D3*
X637451Y1356200D3*
X774951D3*
X637451D3*
X581200Y1618700D3*
Y1581200D3*
X1024949Y1056200D3*
X1012451Y1793700D3*
Y1681200D3*
X1281200Y1662451D3*
X1399949Y1393700D3*
X1137451Y1574949D3*
Y1474949D3*
X843700Y1437451D3*
D55*
X955067Y1787451D3*
X844831D3*
X955067Y1681200D3*
X844831D3*
D53*
X1399949Y1662451D3*
X1325146D3*
D51*
X473616Y1968503D3*
D49*
X573616D3*
X673616D3*
X773616D3*
X873616D3*
X973616D3*
X1073616D3*
X1173616D3*
X1273607D3*
X1373607D3*
X1473607D3*
X1573607D3*
D31*
X1515747Y826771D3*
D47*
X843701Y1474951D3*
Y1549754D3*
X924951Y1474951D3*
Y1549754D3*
D53*
X549951Y1218700D3*
X624754D3*
X793700Y1218701D3*
X718897Y1218699D3*
X868700Y1106200D3*
X793897D3*
X1024949D3*
X950146D3*
D45*
X799210Y781200D3*
D43*
X937006D3*
X1074801D3*
D41*
X701624Y1596899D3*
Y1687451D3*
Y1778002D3*
D39*
X473277Y1687451D3*
D37*
X1187451Y1574951D3*
Y1524951D3*
Y1474951D3*
Y1424951D3*
X1400049D3*
Y1474951D3*
Y1524951D3*
Y1574951D3*
M02*
