G04 DipTrace 4.0.0.2*
G04 TopSilk.gbr*
%MOIN*%
G04 #@! TF.FileFunction,Legend,Top*
G04 #@! TF.Part,Single*
%ADD10C,0.009843*%
%ADD57C,0.006176*%
%ADD58C,0.009264*%
%FSLAX26Y26*%
G04*
G70*
G90*
G75*
G01*
G04 TopSilk*
%LPD*%
X904280Y1818915D2*
D10*
Y1755986D1*
X911729Y1818915D2*
Y1755986D1*
Y1818915D2*
X888170D1*
X911729Y1755986D2*
X888170D1*
X904280Y1712665D2*
Y1649735D1*
X911729Y1712665D2*
Y1649735D1*
Y1712665D2*
X888170D1*
X911729Y1649735D2*
X888170D1*
X1441309Y1688022D2*
Y1636880D1*
X393700Y2047243D2*
Y393700D1*
X1653543D1*
Y2047243D1*
X393700D1*
X730313Y836294D2*
Y726058D1*
X1143699D1*
Y836294D1*
X730313D1*
Y948523D2*
Y391436D1*
X1143699D1*
Y948523D1*
X730313D1*
G36*
X731831Y1566272D2*
X732837Y1566206D1*
X733825Y1566010D1*
X734779Y1565686D1*
X735682Y1565240D1*
X736520Y1564681D1*
X737277Y1564016D1*
X737942Y1563259D1*
X738501Y1562421D1*
X738947Y1561518D1*
X739271Y1560564D1*
X739467Y1559575D1*
X739533Y1558570D1*
X739467Y1557565D1*
X739271Y1556577D1*
X738947Y1555623D1*
X738501Y1554719D1*
X737942Y1553881D1*
X737277Y1553124D1*
X736520Y1552460D1*
X735682Y1551900D1*
X734779Y1551454D1*
X733825Y1551130D1*
X732837Y1550934D1*
X731831Y1550868D1*
X731805D1*
X730800Y1550934D1*
X729812Y1551130D1*
X728858Y1551454D1*
X727954Y1551900D1*
X727116Y1552460D1*
X726359Y1553124D1*
X725695Y1553881D1*
X725135Y1554719D1*
X724689Y1555623D1*
X724365Y1556577D1*
X724169Y1557565D1*
X724103Y1558570D1*
X724169Y1559575D1*
X724365Y1560564D1*
X724689Y1561518D1*
X725135Y1562421D1*
X725694Y1563259D1*
X726359Y1564016D1*
X727116Y1564681D1*
X727954Y1565240D1*
X728858Y1565686D1*
X729812Y1566010D1*
X730800Y1566206D1*
X731805Y1566272D1*
X731831D1*
G37*
X642569Y1557531D2*
D10*
Y1817361D1*
X532333Y1557531D2*
Y1817361D1*
X642569D2*
X532333D1*
X642569Y1557531D2*
X532333D1*
X1242562Y1598377D2*
Y1401524D1*
X1344938Y1598377D2*
Y1401524D1*
X1242562D2*
X1344938D1*
X1274056Y1598377D2*
X1242562D1*
X1313444D2*
X1344938D1*
X1274056D2*
G03X1313444Y1598377I19694J9D01*
G01*
X461323Y468163D2*
D58*
Y493963D1*
X458405Y502585D1*
X455553Y505503D1*
X449849Y508355D1*
X444079D1*
X438375Y505503D1*
X435457Y502585D1*
X432605Y493963D1*
Y468163D1*
X492893D1*
X461323Y488259D2*
X492893Y508355D1*
X441227Y567074D2*
X435457Y561370D1*
X432605Y552748D1*
Y541274D1*
X435457Y532652D1*
X441227Y526882D1*
X446931D1*
X452701Y529800D1*
X455553Y532652D1*
X458405Y538356D1*
X464175Y555600D1*
X467027Y561370D1*
X469945Y564222D1*
X475649Y567074D1*
X484271D1*
X489975Y561370D1*
X492893Y552748D1*
Y541274D1*
X489975Y532652D1*
X484271Y526882D1*
X492893Y614319D2*
X432671D1*
X472797Y585601D1*
Y628645D1*
X432671Y661498D2*
X435523Y652942D1*
X441227Y650024D1*
X446997D1*
X452701Y652942D1*
X455619Y658646D1*
X458471Y670120D1*
X461323Y678742D1*
X467093Y684446D1*
X472797Y687298D1*
X481419D1*
X487123Y684446D1*
X490041Y681594D1*
X492893Y672972D1*
Y661498D1*
X490041Y652942D1*
X487123Y650024D1*
X481419Y647172D1*
X472797D1*
X467093Y650024D1*
X461323Y655794D1*
X458471Y664350D1*
X455619Y675824D1*
X452701Y681594D1*
X446997Y684446D1*
X441227D1*
X435523Y681594D1*
X432671Y672972D1*
Y661498D1*
Y740247D2*
Y711595D1*
X458471Y708743D1*
X455619Y711595D1*
X452701Y720217D1*
Y728773D1*
X455619Y737395D1*
X461323Y743165D1*
X469945Y746017D1*
X475649D1*
X484271Y743165D1*
X490041Y737395D1*
X492893Y728773D1*
Y720217D1*
X490041Y711595D1*
X487123Y708743D1*
X481419Y705825D1*
X492893Y868761D2*
X432605D1*
X492893Y845813D1*
X432605Y822865D1*
X492893D1*
X452701Y901614D2*
X455553Y895910D1*
X461323Y890140D1*
X469945Y887288D1*
X475649D1*
X484271Y890140D1*
X489975Y895910D1*
X492893Y901614D1*
Y910236D1*
X489975Y916006D1*
X484271Y921710D1*
X475649Y924628D1*
X469945D1*
X461323Y921710D1*
X455553Y916006D1*
X452701Y910236D1*
Y901614D1*
X432605Y977577D2*
X492893D1*
X461323D2*
X455553Y971874D1*
X452701Y966103D1*
Y957481D1*
X455553Y951778D1*
X461323Y946007D1*
X469945Y943155D1*
X475649D1*
X484271Y946007D1*
X489975Y951778D1*
X492893Y957481D1*
Y966103D1*
X489975Y971874D1*
X484271Y977577D1*
X452701Y996104D2*
X481419D1*
X489975Y998956D1*
X492893Y1004727D1*
Y1013349D1*
X489975Y1019052D1*
X481419Y1027674D1*
X452701D2*
X492893D1*
X432605Y1046202D2*
X492893D1*
X469945Y1064729D2*
Y1099150D1*
X464175D1*
X458405Y1096299D1*
X455553Y1093447D1*
X452701Y1087677D1*
Y1079054D1*
X455553Y1073351D1*
X461323Y1067581D1*
X469945Y1064729D1*
X475649D1*
X484271Y1067581D1*
X489975Y1073351D1*
X492893Y1079054D1*
Y1087677D1*
X489975Y1093447D1*
X484271Y1099150D1*
X432605Y1175999D2*
X492893Y1198947D1*
X432605Y1221895D1*
X469945Y1240422D2*
Y1274844D1*
X464175D1*
X458405Y1271992D1*
X455553Y1269140D1*
X452701Y1263370D1*
Y1254748D1*
X455553Y1249044D1*
X461323Y1243274D1*
X469945Y1240422D1*
X475649D1*
X484271Y1243274D1*
X489975Y1249044D1*
X492893Y1254748D1*
Y1263370D1*
X489975Y1269140D1*
X484271Y1274844D1*
X452701Y1293371D2*
X492893D1*
X469945D2*
X461323Y1296289D1*
X455553Y1301993D1*
X452701Y1307763D1*
Y1316385D1*
X444145Y1393233D2*
X441227Y1399003D1*
X432671Y1407625D1*
X492893D1*
X487123Y1429004D2*
X490041Y1426152D1*
X492893Y1429004D1*
X490041Y1431923D1*
X487123Y1429004D1*
X432671Y1467694D2*
X435523Y1459072D1*
X444145Y1453302D1*
X458471Y1450450D1*
X467093D1*
X481419Y1453302D1*
X490041Y1459072D1*
X492893Y1467694D1*
Y1473398D1*
X490041Y1482020D1*
X481419Y1487723D1*
X467093Y1490642D1*
X458471D1*
X444145Y1487723D1*
X435523Y1482020D1*
X432671Y1473398D1*
Y1467694D1*
X444145Y1487723D2*
X481419Y1453302D1*
X553247Y499733D2*
Y491111D1*
X556099Y485407D1*
X558951Y482489D1*
X564721Y479637D1*
X576195D1*
X579047Y482489D1*
Y488259D1*
X576195Y499733D1*
X581899Y502585D1*
Y505437D1*
X576195Y511207D1*
X561869Y514059D1*
X553247Y511207D1*
X547477Y508355D1*
X541773Y502585D1*
X538921Y496881D1*
Y485407D1*
X541773Y479637D1*
X547477Y473933D1*
X553247Y471015D1*
X561869Y468163D1*
X576195D1*
X584817Y471015D1*
X590521Y473933D1*
X596291Y479637D1*
X599143Y485407D1*
Y496881D1*
X596291Y502585D1*
X590521Y508355D1*
X550395Y499733D2*
X576195D1*
X538855Y532586D2*
X599143D1*
X567573D2*
X561803Y538356D1*
X558951Y544060D1*
Y552682D1*
X561803Y558386D1*
X567573Y564156D1*
X576195Y567008D1*
X581899D1*
X590521Y564156D1*
X596225Y558386D1*
X599143Y552682D1*
Y544060D1*
X596225Y538356D1*
X590521Y532586D1*
X558951Y585535D2*
X587669D1*
X596225Y588387D1*
X599143Y594157D1*
Y602779D1*
X596225Y608483D1*
X587669Y617105D1*
X558951D2*
X599143D1*
X538855Y635632D2*
X541707Y638484D1*
X538855Y641402D1*
X535937Y638484D1*
X538855Y635632D1*
X558951Y638484D2*
X599143D1*
X538855Y659929D2*
X599143D1*
X538855Y712878D2*
X599143D1*
X567573D2*
X561803Y707174D1*
X558951Y701404D1*
Y692782D1*
X561803Y687078D1*
X567573Y681308D1*
X576195Y678456D1*
X581899D1*
X590521Y681308D1*
X596225Y687078D1*
X599143Y692782D1*
Y701404D1*
X596225Y707174D1*
X590521Y712878D1*
X538855Y731405D2*
X599143D1*
X558951Y764258D2*
X561803Y758555D1*
X567573Y752784D1*
X576195Y749932D1*
X581899D1*
X590521Y752784D1*
X596225Y758555D1*
X599143Y764258D1*
Y772880D1*
X596225Y778651D1*
X590521Y784354D1*
X581899Y787273D1*
X576195D1*
X567573Y784354D1*
X561803Y778651D1*
X558951Y772880D1*
Y764258D1*
X561803Y840222D2*
X607765D1*
X616321Y837370D1*
X619239Y834518D1*
X622091Y828748D1*
Y820126D1*
X619239Y814422D1*
X570425Y840222D2*
X564721Y834518D1*
X561803Y828748D1*
Y820126D1*
X564721Y814422D1*
X570425Y808652D1*
X579047Y805800D1*
X584817D1*
X593373Y808652D1*
X599143Y814422D1*
X601995Y820126D1*
Y828748D1*
X599143Y834518D1*
X593373Y840222D1*
X553247Y919988D2*
X550395D1*
X544625Y922840D1*
X541773Y925692D1*
X538921Y931462D1*
Y942936D1*
X541773Y948640D1*
X544625Y951492D1*
X550395Y954410D1*
X556099D1*
X561869Y951492D1*
X570425Y945788D1*
X599143Y917070D1*
Y957262D1*
X538921Y993033D2*
X541773Y984411D1*
X550395Y978641D1*
X564721Y975789D1*
X573343D1*
X587669Y978641D1*
X596291Y984411D1*
X599143Y993033D1*
Y998737D1*
X596291Y1007359D1*
X587669Y1013063D1*
X573343Y1015981D1*
X564721D1*
X550395Y1013063D1*
X541773Y1007359D1*
X538921Y998737D1*
Y993033D1*
X550395Y1013063D2*
X587669Y978641D1*
X553247Y1037426D2*
X550395D1*
X544625Y1040278D1*
X541773Y1043130D1*
X538921Y1048900D1*
Y1060374D1*
X541773Y1066078D1*
X544625Y1068930D1*
X550395Y1071848D1*
X556099D1*
X561869Y1068930D1*
X570425Y1063226D1*
X599143Y1034508D1*
Y1074700D1*
X538921Y1110471D2*
X541773Y1101849D1*
X550395Y1096079D1*
X564721Y1093227D1*
X573343D1*
X587669Y1096079D1*
X596291Y1101849D1*
X599143Y1110471D1*
Y1116175D1*
X596291Y1124797D1*
X587669Y1130501D1*
X573343Y1133419D1*
X564721D1*
X550395Y1130501D1*
X541773Y1124797D1*
X538921Y1116175D1*
Y1110471D1*
X550395Y1130501D2*
X587669Y1096079D1*
X819098Y976643D2*
X796084Y1036931D1*
X773136Y976643D1*
X781758Y996739D2*
X810476D1*
X923136Y1036930D2*
Y976642D1*
X949002D1*
X957624Y979560D1*
X960476Y982412D1*
X963328Y988116D1*
Y996738D1*
X960476Y1002508D1*
X957624Y1005360D1*
X949002Y1008212D1*
X957624Y1011130D1*
X960476Y1013982D1*
X963328Y1019686D1*
Y1025456D1*
X960476Y1031159D1*
X957624Y1034078D1*
X949002Y1036930D1*
X923136D1*
Y1008212D2*
X949002D1*
X1097431Y1022604D2*
X1094579Y1028308D1*
X1088809Y1034078D1*
X1083105Y1036930D1*
X1071631D1*
X1065861Y1034078D1*
X1060157Y1028308D1*
X1057239Y1022604D1*
X1054387Y1013982D1*
Y999590D1*
X1057239Y991034D1*
X1060157Y985264D1*
X1065861Y979560D1*
X1071631Y976642D1*
X1083105D1*
X1088809Y979560D1*
X1094579Y985264D1*
X1097431Y991034D1*
Y999590D1*
X1083105D1*
X468736Y1894233D2*
D57*
X464934Y1892332D1*
X461087Y1888485D1*
X459186Y1884683D1*
Y1877033D1*
X461087Y1873186D1*
X464934Y1869384D1*
X468736Y1867438D1*
X474484Y1865537D1*
X484079D1*
X489783Y1867438D1*
X493630Y1869384D1*
X497432Y1873186D1*
X499378Y1877033D1*
Y1884683D1*
X497432Y1888485D1*
X493630Y1892332D1*
X489783Y1894233D1*
X484079D1*
Y1884683D1*
X1566030Y1906734D2*
X1562228Y1904833D1*
X1558381Y1900986D1*
X1556480Y1897184D1*
Y1889535D1*
X1558381Y1885688D1*
X1562228Y1881885D1*
X1566030Y1879940D1*
X1571778Y1878039D1*
X1581373D1*
X1587077Y1879940D1*
X1590924Y1881885D1*
X1594726Y1885688D1*
X1596672Y1889535D1*
Y1897184D1*
X1594726Y1900986D1*
X1590924Y1904833D1*
X1587077Y1906734D1*
X1581373D1*
Y1897184D1*
X559187Y1840539D2*
X599379Y1855837D1*
X559187Y1871136D1*
X599379Y1914084D2*
X559187D1*
X599379Y1898786D1*
X559187Y1883487D1*
X599379D1*
X659231Y1875986D2*
Y1856885D1*
X676431Y1854984D1*
X674530Y1856885D1*
X672584Y1862633D1*
Y1868337D1*
X674530Y1874085D1*
X678332Y1877932D1*
X684080Y1879833D1*
X687883D1*
X693631Y1877932D1*
X697478Y1874085D1*
X699379Y1868337D1*
Y1862633D1*
X697478Y1856885D1*
X695532Y1854984D1*
X691730Y1853039D1*
X672584Y1892185D2*
X699379Y1903681D1*
X672584Y1915132D1*
X752936Y1866436D2*
X793128D1*
X752936Y1853039D2*
Y1879833D1*
X766334Y1892185D2*
X793128Y1913231D1*
X766334D2*
X793128Y1892185D1*
X972082Y1859288D2*
Y1876488D1*
X970136Y1882236D1*
X968235Y1884181D1*
X964432Y1886083D1*
X960586D1*
X956783Y1884181D1*
X954838Y1882236D1*
X952936Y1876488D1*
Y1859288D1*
X993128D1*
X972082Y1872685D2*
X993128Y1886083D1*
X966334Y1898434D2*
X993128Y1919481D1*
X966334D2*
X993128Y1898434D1*
X852936Y1859288D2*
X893128D1*
Y1872685D1*
X891183Y1878433D1*
X887380Y1882280D1*
X883533Y1884181D1*
X877830Y1886083D1*
X868235D1*
X862487Y1884181D1*
X858684Y1882280D1*
X854838Y1878433D1*
X852936Y1872685D1*
Y1859288D1*
X866334Y1898434D2*
X893128D1*
X877830D2*
X872082Y1900379D1*
X868235Y1904182D1*
X866334Y1908029D1*
Y1913777D1*
X1078324Y1801045D2*
X1076423Y1804848D1*
X1072576Y1808695D1*
X1068774Y1810596D1*
X1061124D1*
X1057278Y1808695D1*
X1053475Y1804848D1*
X1051530Y1801045D1*
X1049628Y1795297D1*
Y1785703D1*
X1051530Y1779999D1*
X1053475Y1776152D1*
X1057278Y1772350D1*
X1061124Y1770404D1*
X1068774D1*
X1072576Y1772350D1*
X1076423Y1776152D1*
X1078324Y1779999D1*
X1090676Y1802903D2*
X1094522Y1804848D1*
X1100270Y1810552D1*
Y1770404D1*
X1075974Y1694795D2*
X1074072Y1698597D1*
X1070226Y1702444D1*
X1066423Y1704345D1*
X1058774D1*
X1054927Y1702444D1*
X1051124Y1698597D1*
X1049179Y1694795D1*
X1047278Y1689047D1*
Y1679452D1*
X1049179Y1673748D1*
X1051124Y1669901D1*
X1054927Y1666099D1*
X1058774Y1664153D1*
X1066423D1*
X1070226Y1666099D1*
X1074072Y1669901D1*
X1075974Y1673748D1*
X1090271Y1694751D2*
Y1696652D1*
X1092172Y1700499D1*
X1094073Y1702400D1*
X1097920Y1704301D1*
X1105569D1*
X1109372Y1702400D1*
X1111273Y1700499D1*
X1113218Y1696652D1*
Y1692849D1*
X1111273Y1689003D1*
X1107470Y1683299D1*
X1088325Y1664153D1*
X1115120D1*
X1363157Y1721395D2*
X1365059Y1717593D1*
X1368905Y1713746D1*
X1372708Y1711845D1*
X1380357D1*
X1384204Y1713746D1*
X1388007Y1717593D1*
X1389952Y1721395D1*
X1391853Y1727143D1*
Y1736738D1*
X1389952Y1742442D1*
X1388007Y1746289D1*
X1384204Y1750091D1*
X1380357Y1752037D1*
X1372708D1*
X1368905Y1750091D1*
X1365059Y1746289D1*
X1363157Y1742442D1*
X1346959Y1711889D2*
X1325957D1*
X1337409Y1727187D1*
X1331661D1*
X1327858Y1729089D1*
X1325957Y1730990D1*
X1324011Y1736738D1*
Y1740541D1*
X1325957Y1746289D1*
X1329759Y1750135D1*
X1335507Y1752037D1*
X1341255D1*
X1346959Y1750135D1*
X1348860Y1748190D1*
X1350806Y1744387D1*
X843490Y1600482D2*
Y1617682D1*
X841545Y1623430D1*
X839643Y1625375D1*
X835841Y1627276D1*
X831994D1*
X828191Y1625375D1*
X826246Y1623430D1*
X824345Y1617682D1*
Y1600482D1*
X864537D1*
X843490Y1613879D2*
X864537Y1627276D1*
X832038Y1639628D2*
X830093Y1643475D1*
X824389Y1649223D1*
X864537D1*
X924741Y1591882D2*
Y1609082D1*
X922795Y1614830D1*
X920894Y1616775D1*
X917091Y1618677D1*
X913245D1*
X909442Y1616775D1*
X907497Y1614830D1*
X905595Y1609082D1*
Y1591882D1*
X945787D1*
X924741Y1605279D2*
X945787Y1618677D1*
X915190Y1632973D2*
X913289D1*
X909442Y1634875D1*
X907541Y1636776D1*
X905640Y1640623D1*
Y1648272D1*
X907541Y1652075D1*
X909442Y1653976D1*
X913289Y1655921D1*
X917091D1*
X920938Y1653976D1*
X926642Y1650173D1*
X945787Y1631028D1*
Y1657823D1*
X679382Y1218911D2*
X696582D1*
X702330Y1220857D1*
X704275Y1222758D1*
X706177Y1226561D1*
Y1230407D1*
X704275Y1234210D1*
X702330Y1236155D1*
X696582Y1238057D1*
X679382D1*
Y1197865D1*
X692779Y1218911D2*
X706177Y1197865D1*
X722375Y1238012D2*
X743377D1*
X731925Y1222714D1*
X737673D1*
X741476Y1220813D1*
X743377Y1218911D1*
X745323Y1213163D1*
Y1209361D1*
X743377Y1203613D1*
X739575Y1199766D1*
X733827Y1197865D1*
X728079D1*
X722375Y1199766D1*
X720473Y1201711D1*
X718528Y1205514D1*
X722379Y1156409D2*
X739579Y1156410D1*
X745327Y1158355D1*
X747272Y1160257D1*
X749173Y1164059D1*
Y1167906D1*
X747272Y1171708D1*
X745326Y1173654D1*
X739578Y1175555D1*
X722378D1*
X722379Y1135363D1*
X735776Y1156410D2*
X749174Y1135363D1*
X780671Y1135364D2*
X780670Y1175512D1*
X761525Y1148761D1*
X790221D1*
X692079Y1112661D2*
X709279D1*
X715027Y1114606D1*
X716972Y1116507D1*
X718873Y1120310D1*
Y1124157D1*
X716972Y1127959D1*
X715027Y1129905D1*
X709279Y1131806D1*
X692079D1*
Y1091614D1*
X705476Y1112661D2*
X718873Y1091614D1*
X754173Y1131762D2*
X735072D1*
X733170Y1114562D1*
X735072Y1116463D1*
X740820Y1118409D1*
X746523D1*
X752271Y1116463D1*
X756118Y1112661D1*
X758019Y1106913D1*
Y1103110D1*
X756118Y1097362D1*
X752271Y1093515D1*
X746523Y1091614D1*
X740820D1*
X735072Y1093515D1*
X733170Y1095461D1*
X731225Y1099263D1*
X1093050Y1106410D2*
X1110250D1*
X1115998Y1108355D1*
X1117944Y1110257D1*
X1119845Y1114059D1*
Y1117906D1*
X1117944Y1121709D1*
X1115998Y1123654D1*
X1110250Y1125555D1*
X1093050D1*
Y1085363D1*
X1106447Y1106410D2*
X1119845Y1085363D1*
X1155144Y1119807D2*
X1153243Y1123610D1*
X1147495Y1125511D1*
X1143692D1*
X1137944Y1123610D1*
X1134097Y1117862D1*
X1132196Y1108311D1*
Y1098761D1*
X1134097Y1091111D1*
X1137944Y1087265D1*
X1143692Y1085363D1*
X1145594D1*
X1151297Y1087265D1*
X1155144Y1091111D1*
X1157045Y1096859D1*
Y1098761D1*
X1155144Y1104509D1*
X1151297Y1108311D1*
X1145594Y1110213D1*
X1143692D1*
X1137944Y1108311D1*
X1134097Y1104509D1*
X1132196Y1098761D1*
X848801Y561106D2*
Y601298D1*
X862199Y561106D2*
X835404D1*
X823053D2*
Y601298D1*
X805808D1*
X800060Y599352D1*
X798159Y597451D1*
X796258Y593648D1*
Y587900D1*
X798159Y584054D1*
X800060Y582152D1*
X805808Y580251D1*
X800060Y578306D1*
X798159Y576404D1*
X796258Y572602D1*
Y568755D1*
X798159Y564953D1*
X800060Y563007D1*
X805808Y561106D1*
X823053D1*
Y580251D2*
X805808D1*
X783906Y568799D2*
X780060Y566854D1*
X774312Y561150D1*
Y601298D1*
X444330Y1809446D2*
Y1780750D1*
X446231Y1775002D1*
X450078Y1771200D1*
X455826Y1769254D1*
X459628D1*
X465376Y1771200D1*
X469223Y1775002D1*
X471124Y1780750D1*
Y1809446D1*
X483476Y1801753D2*
X487322Y1803698D1*
X493070Y1809402D1*
Y1769254D1*
X1270751Y1316980D2*
X1299447D1*
X1305195Y1318882D1*
X1308998Y1322728D1*
X1310943Y1328476D1*
Y1332279D1*
X1308998Y1338027D1*
X1305195Y1341874D1*
X1299447Y1343775D1*
X1270751D1*
X1280346Y1358072D2*
X1278445D1*
X1274598Y1359973D1*
X1272697Y1361874D1*
X1270796Y1365721D1*
Y1373370D1*
X1272697Y1377173D1*
X1274598Y1379074D1*
X1278445Y1381020D1*
X1282248D1*
X1286094Y1379074D1*
X1291798Y1375272D1*
X1310943Y1356126D1*
Y1382921D1*
M02*
