G04 DipTrace 4.0.0.2*
G04 2 - Bottom.gbr*
%MOIN*%
G04 #@! TF.FileFunction,Copper,L2,Bot*
G04 #@! TF.Part,Single*
G04 #@! TA.AperFunction,Conductor*
%ADD16C,0.11*%
G04 #@! TA.AperFunction,CopperBalancing*
%ADD20C,0.019685*%
%ADD21C,0.013*%
G04 #@! TA.AperFunction,ComponentPad*
%ADD22R,0.12X0.12*%
%ADD23C,0.12*%
%ADD24R,0.059055X0.059055*%
%ADD25C,0.059055*%
%ADD26C,0.11811*%
%FSLAX26Y26*%
G04*
G70*
G90*
G75*
G01*
G04 Bottom*
%LPD*%
X744000Y594000D2*
D16*
Y856500D1*
X967524Y1080024D1*
X1037454D1*
X437325Y1986651D2*
D20*
X514845D1*
X1532977D2*
X1610533D1*
X437325Y1967097D2*
X512118D1*
X1535704D2*
X1610533D1*
X437325Y1947543D2*
X515993D1*
X1531829D2*
X1610533D1*
X437325Y1927990D2*
X528194D1*
X1519628D2*
X1610533D1*
X437325Y1908436D2*
X1610533D1*
X437325Y1888882D2*
X1610533D1*
X437325Y1869328D2*
X1610533D1*
X437325Y1849774D2*
X1610533D1*
X437325Y1830220D2*
X1610533D1*
X437325Y1810667D2*
X1610533D1*
X437325Y1791113D2*
X1610533D1*
X437325Y1771559D2*
X1610533D1*
X437325Y1752005D2*
X1610533D1*
X437325Y1732451D2*
X1610533D1*
X437325Y1712898D2*
X1610533D1*
X437325Y1693344D2*
X1610533D1*
X437325Y1673790D2*
X1610533D1*
X437325Y1654236D2*
X1610533D1*
X437325Y1634682D2*
X1610533D1*
X437325Y1615129D2*
X643669D1*
X706851D2*
X1610533D1*
X437325Y1595575D2*
X611697D1*
X738788D2*
X1610533D1*
X437325Y1576021D2*
X596195D1*
X754326D2*
X1610533D1*
X437325Y1556467D2*
X587690D1*
X762830D2*
X1610533D1*
X437325Y1536913D2*
X584137D1*
X766383D2*
X993576D1*
X1081339D2*
X1610533D1*
X437325Y1517360D2*
X584927D1*
X765558D2*
X968708D1*
X1106206D2*
X1610533D1*
X437325Y1497806D2*
X590238D1*
X760283D2*
X955467D1*
X1119412D2*
X1610533D1*
X437325Y1478252D2*
X601003D1*
X749517D2*
X948434D1*
X1126445D2*
X1610533D1*
X437325Y1458698D2*
X620488D1*
X729996D2*
X946101D1*
X1128777D2*
X1610533D1*
X437325Y1439144D2*
X948111D1*
X1126804D2*
X1610533D1*
X437325Y1419591D2*
X954785D1*
X1120129D2*
X1610533D1*
X437325Y1400037D2*
X918040D1*
X1382443D2*
X1610533D1*
X437325Y1380483D2*
X911724D1*
X1388794D2*
X1610533D1*
X437325Y1360929D2*
X911724D1*
X1388938D2*
X1610533D1*
X437325Y1341375D2*
X911724D1*
X1389081D2*
X1610533D1*
X437325Y1321822D2*
X911724D1*
X1389225D2*
X1610533D1*
X437325Y1302268D2*
X911724D1*
X1389404D2*
X1610533D1*
X437325Y1282714D2*
X911724D1*
X1389548D2*
X1610533D1*
X437325Y1263160D2*
X911724D1*
X1389691D2*
X1610533D1*
X437325Y1243606D2*
X911724D1*
X1389835D2*
X1610533D1*
X437325Y1224052D2*
X911724D1*
X1389978D2*
X1610533D1*
X437325Y1204499D2*
X911724D1*
X1390122D2*
X1610533D1*
X437325Y1184945D2*
X911724D1*
X1390301D2*
X1610533D1*
X437325Y1165391D2*
X911940D1*
X1390445D2*
X1610533D1*
X437325Y1145837D2*
X911258D1*
X1390588D2*
X1610533D1*
X437325Y1126283D2*
X891163D1*
X1390732D2*
X1610533D1*
X437325Y1106730D2*
X871606D1*
X1390876D2*
X1610533D1*
X437325Y1087176D2*
X633406D1*
X717078D2*
X852049D1*
X1391019D2*
X1610533D1*
X437325Y1067622D2*
X607426D1*
X743058D2*
X832492D1*
X1391198D2*
X1610533D1*
X437325Y1048068D2*
X593826D1*
X756694D2*
X812935D1*
X1391342D2*
X1610533D1*
X437325Y1028514D2*
X586506D1*
X764015D2*
X793378D1*
X1391486D2*
X1610533D1*
X437325Y1008961D2*
X583922D1*
X1391629D2*
X1610533D1*
X437325Y989407D2*
X585716D1*
X1391773D2*
X1610533D1*
X437325Y969853D2*
X592068D1*
X1391916D2*
X1610533D1*
X437325Y950299D2*
X604340D1*
X1392060D2*
X1478192D1*
X1553897D2*
X1610533D1*
X437325Y930745D2*
X626983D1*
X1392239D2*
X1438432D1*
X1593693D2*
X1610533D1*
X437325Y911192D2*
X676539D1*
X1392383D2*
X1417153D1*
X437325Y891638D2*
X664303D1*
X1392526D2*
X1403158D1*
X437325Y872084D2*
X658167D1*
X437325Y852530D2*
X656731D1*
X437325Y832976D2*
X656731D1*
X437325Y813423D2*
X656731D1*
X437325Y793869D2*
X656731D1*
X437325Y774315D2*
X656731D1*
X437325Y754761D2*
X656731D1*
X1393567D2*
X1408038D1*
X437325Y735207D2*
X656731D1*
X1393710D2*
X1424437D1*
X437325Y715654D2*
X656731D1*
X1393854D2*
X1450382D1*
X1581743D2*
X1610533D1*
X437325Y696100D2*
X656731D1*
X1394033D2*
X1610533D1*
X437325Y676546D2*
X651707D1*
X1394177D2*
X1610533D1*
X437325Y656992D2*
X651707D1*
X1394320D2*
X1610533D1*
X437325Y637438D2*
X651707D1*
X1394464D2*
X1610533D1*
X437325Y617885D2*
X651707D1*
X1394607D2*
X1610533D1*
X437325Y598331D2*
X651707D1*
X1394751D2*
X1610533D1*
X437325Y578777D2*
X651707D1*
X1394930D2*
X1610533D1*
X437325Y559223D2*
X651707D1*
X1394823D2*
X1610533D1*
X437325Y539669D2*
X651707D1*
X1384380D2*
X1610533D1*
X437325Y520115D2*
X651707D1*
X836285D2*
X1610533D1*
X437325Y500562D2*
X1610533D1*
X437325Y481008D2*
X1610533D1*
X437325Y461454D2*
X1610533D1*
X437325Y441900D2*
X1610533D1*
X834315Y542106D2*
Y503685D1*
X653685D1*
Y684315D1*
X658673D1*
X658685Y856500D1*
X658948Y863194D1*
X659735Y869846D1*
X661042Y876416D1*
X662861Y882864D1*
X665179Y889149D1*
X667984Y895232D1*
X671257Y901077D1*
X674979Y906647D1*
X679126Y911908D1*
X685240Y918393D1*
X675251Y917819D1*
X668239Y918094D1*
X661270Y918919D1*
X654388Y920288D1*
X647634Y922193D1*
X641050Y924622D1*
X634677Y927560D1*
X628555Y930988D1*
X622720Y934887D1*
X617209Y939231D1*
X612056Y943995D1*
X607293Y949148D1*
X602949Y954659D1*
X599050Y960493D1*
X595621Y966616D1*
X592683Y972989D1*
X590255Y979572D1*
X588350Y986326D1*
X586981Y993208D1*
X586156Y1000177D1*
X585881Y1007189D1*
X586156Y1014201D1*
X586981Y1021170D1*
X588350Y1028052D1*
X590255Y1034806D1*
X592683Y1041389D1*
X595621Y1047762D1*
X599050Y1053885D1*
X602949Y1059719D1*
X607293Y1065230D1*
X612056Y1070383D1*
X617209Y1075147D1*
X622720Y1079491D1*
X628555Y1083389D1*
X634677Y1086818D1*
X641050Y1089756D1*
X647634Y1092185D1*
X654388Y1094090D1*
X661270Y1095459D1*
X668239Y1096284D1*
X675251Y1096559D1*
X682263Y1096284D1*
X689231Y1095459D1*
X696114Y1094090D1*
X702868Y1092185D1*
X709451Y1089756D1*
X715824Y1086818D1*
X721946Y1083389D1*
X727781Y1079491D1*
X733292Y1075147D1*
X738445Y1070383D1*
X743208Y1065230D1*
X747553Y1059719D1*
X751451Y1053885D1*
X754880Y1047762D1*
X757818Y1041389D1*
X760247Y1034806D1*
X762151Y1028052D1*
X763520Y1021170D1*
X764345Y1014201D1*
X764621Y1007189D1*
X763988Y997156D1*
X907197Y1140350D1*
X912116Y1144898D1*
X917398Y1149060D1*
X919475Y1151181D1*
X916989Y1155237D1*
X915169Y1159632D1*
X914058Y1164258D1*
X913685Y1169009D1*
X913778Y1383878D1*
X914523Y1388577D1*
X915993Y1393101D1*
X918152Y1397340D1*
X920948Y1401188D1*
X924312Y1404552D1*
X928160Y1407348D1*
X932399Y1409507D1*
X936923Y1410977D1*
X941622Y1411722D1*
X960898Y1411815D1*
X957825Y1417403D1*
X954887Y1423776D1*
X952458Y1430360D1*
X950553Y1437113D1*
X949184Y1443996D1*
X948359Y1450964D1*
X948084Y1457976D1*
X948359Y1464988D1*
X949184Y1471957D1*
X950553Y1478839D1*
X952458Y1485593D1*
X954887Y1492177D1*
X957825Y1498550D1*
X961254Y1504672D1*
X965152Y1510507D1*
X969497Y1516018D1*
X974260Y1521171D1*
X979413Y1525934D1*
X984924Y1530278D1*
X990758Y1534177D1*
X996881Y1537606D1*
X1003254Y1540544D1*
X1009837Y1542972D1*
X1016591Y1544877D1*
X1023474Y1546246D1*
X1030442Y1547071D1*
X1037454Y1547346D1*
X1044466Y1547071D1*
X1051435Y1546246D1*
X1058317Y1544877D1*
X1065071Y1542972D1*
X1071655Y1540544D1*
X1078027Y1537606D1*
X1084150Y1534177D1*
X1089984Y1530278D1*
X1095495Y1525934D1*
X1100648Y1521171D1*
X1105412Y1516018D1*
X1109756Y1510507D1*
X1113655Y1504672D1*
X1117083Y1498550D1*
X1120021Y1492177D1*
X1122450Y1485593D1*
X1124355Y1478839D1*
X1125724Y1471957D1*
X1126549Y1464988D1*
X1126824Y1457976D1*
X1126549Y1450964D1*
X1125724Y1443996D1*
X1124355Y1437113D1*
X1122450Y1430360D1*
X1120021Y1423776D1*
X1117083Y1417403D1*
X1113963Y1411831D1*
X1358878Y1411722D1*
X1363577Y1410977D1*
X1368101Y1409507D1*
X1372340Y1407348D1*
X1376188Y1404552D1*
X1379552Y1401188D1*
X1382348Y1397340D1*
X1384507Y1393101D1*
X1385977Y1388577D1*
X1386722Y1383869D1*
X1389268Y1060307D1*
X1390862Y855382D1*
X1393207Y864262D1*
X1396182Y872952D1*
X1399770Y881406D1*
X1403953Y889583D1*
X1408711Y897439D1*
X1414018Y904935D1*
X1419847Y912032D1*
X1426169Y918694D1*
X1432952Y924887D1*
X1440160Y930579D1*
X1447756Y935741D1*
X1455702Y940346D1*
X1463958Y944372D1*
X1472480Y947796D1*
X1481225Y950603D1*
X1490148Y952777D1*
X1499204Y954307D1*
X1508346Y955186D1*
X1517528Y955409D1*
X1526702Y954974D1*
X1535822Y953885D1*
X1544840Y952146D1*
X1553711Y949767D1*
X1562389Y946759D1*
X1570829Y943139D1*
X1578990Y938924D1*
X1586827Y934136D1*
X1594303Y928800D1*
X1601378Y922943D1*
X1608015Y916596D1*
X1612520Y911624D1*
X1612504Y2006185D1*
X1520595Y2006205D1*
X1524931Y2000071D1*
X1529194Y1991704D1*
X1532096Y1982773D1*
X1533565Y1973498D1*
Y1964108D1*
X1532096Y1954833D1*
X1529194Y1945902D1*
X1524931Y1937536D1*
X1519411Y1929939D1*
X1512771Y1923299D1*
X1505174Y1917779D1*
X1496808Y1913516D1*
X1487877Y1910614D1*
X1478602Y1909145D1*
X1469212D1*
X1459937Y1910614D1*
X1451006Y1913516D1*
X1442639Y1917779D1*
X1435042Y1923299D1*
X1428402Y1929939D1*
X1423933Y1935964D1*
X1419411Y1929939D1*
X1412771Y1923299D1*
X1405174Y1917779D1*
X1396808Y1913516D1*
X1387877Y1910614D1*
X1378602Y1909145D1*
X1369212D1*
X1359937Y1910614D1*
X1351006Y1913516D1*
X1342639Y1917779D1*
X1335042Y1923299D1*
X1328402Y1929939D1*
X1323933Y1935964D1*
X1319411Y1929939D1*
X1312771Y1923299D1*
X1305174Y1917779D1*
X1296808Y1913516D1*
X1287877Y1910614D1*
X1278602Y1909145D1*
X1269212D1*
X1259937Y1910614D1*
X1251006Y1913516D1*
X1242639Y1917779D1*
X1235042Y1923299D1*
X1228402Y1929939D1*
X1223933Y1935964D1*
X1219421Y1929939D1*
X1212781Y1923299D1*
X1205184Y1917779D1*
X1196817Y1913516D1*
X1187886Y1910614D1*
X1178611Y1909145D1*
X1169221D1*
X1159946Y1910614D1*
X1151015Y1913516D1*
X1142648Y1917779D1*
X1135051Y1923299D1*
X1128411Y1929939D1*
X1123942Y1935964D1*
X1119421Y1929939D1*
X1112781Y1923299D1*
X1105184Y1917779D1*
X1096817Y1913516D1*
X1087886Y1910614D1*
X1078611Y1909145D1*
X1069221D1*
X1059946Y1910614D1*
X1051015Y1913516D1*
X1042648Y1917779D1*
X1035051Y1923299D1*
X1028411Y1929939D1*
X1023942Y1935964D1*
X1019421Y1929939D1*
X1012781Y1923299D1*
X1005184Y1917779D1*
X996817Y1913516D1*
X987886Y1910614D1*
X978611Y1909145D1*
X969221D1*
X959946Y1910614D1*
X951015Y1913516D1*
X942648Y1917779D1*
X935051Y1923299D1*
X928411Y1929939D1*
X923942Y1935964D1*
X919421Y1929939D1*
X912781Y1923299D1*
X905184Y1917779D1*
X896817Y1913516D1*
X887886Y1910614D1*
X878611Y1909145D1*
X869221D1*
X859946Y1910614D1*
X851015Y1913516D1*
X842648Y1917779D1*
X835051Y1923299D1*
X828411Y1929939D1*
X823942Y1935964D1*
X819421Y1929939D1*
X812781Y1923299D1*
X805184Y1917779D1*
X796817Y1913516D1*
X787886Y1910614D1*
X778611Y1909145D1*
X769221D1*
X759946Y1910614D1*
X751015Y1913516D1*
X742648Y1917779D1*
X735051Y1923299D1*
X728411Y1929939D1*
X723942Y1935964D1*
X719421Y1929939D1*
X712781Y1923299D1*
X705184Y1917779D1*
X696817Y1913516D1*
X687886Y1910614D1*
X678611Y1909145D1*
X669221D1*
X659946Y1910614D1*
X651015Y1913516D1*
X642648Y1917779D1*
X635051Y1923299D1*
X628411Y1929939D1*
X623942Y1935964D1*
X619421Y1929939D1*
X612781Y1923299D1*
X605184Y1917779D1*
X596817Y1913516D1*
X587886Y1910614D1*
X578611Y1909145D1*
X569221D1*
X559946Y1910614D1*
X551015Y1913516D1*
X542648Y1917779D1*
X535051Y1923299D1*
X528411Y1929939D1*
X522892Y1937536D1*
X518629Y1945902D1*
X515727Y1954833D1*
X514258Y1964108D1*
Y1973498D1*
X515727Y1982773D1*
X518629Y1991704D1*
X522892Y2000071D1*
X527264Y2006212D1*
X435313Y2006205D1*
X435339Y435358D1*
X1612529Y435339D1*
X1612504Y742416D1*
X1606627Y736142D1*
X1599893Y729897D1*
X1592729Y724150D1*
X1585172Y718929D1*
X1577262Y714263D1*
X1569038Y710174D1*
X1560542Y706684D1*
X1551819Y703810D1*
X1542913Y701568D1*
X1533869Y699968D1*
X1524733Y699019D1*
X1515554Y698725D1*
X1506376Y699089D1*
X1497249Y700109D1*
X1488217Y701778D1*
X1479329Y704089D1*
X1470628Y707030D1*
X1462159Y710585D1*
X1453967Y714737D1*
X1446093Y719464D1*
X1438576Y724743D1*
X1431457Y730545D1*
X1424771Y736841D1*
X1418552Y743600D1*
X1412832Y750786D1*
X1407641Y758362D1*
X1403005Y766291D1*
X1398948Y774531D1*
X1395490Y783039D1*
X1392650Y791773D1*
X1391278Y797310D1*
X1392989Y560603D1*
X1392281Y555899D1*
X1390846Y551364D1*
X1388719Y547109D1*
X1385952Y543239D1*
X1382614Y539850D1*
X1378787Y537025D1*
X1374565Y534833D1*
X1370052Y533328D1*
X1365360Y532548D1*
X1316965Y532436D1*
X853505Y532584D1*
X848823Y533424D1*
X844330Y534986D1*
X840136Y537231D1*
X836346Y540105D1*
X834625Y541764D1*
X764345Y1523799D2*
X763520Y1516830D1*
X762151Y1509948D1*
X760247Y1503194D1*
X757818Y1496611D1*
X754880Y1490238D1*
X751451Y1484115D1*
X747553Y1478281D1*
X743208Y1472770D1*
X738445Y1467617D1*
X733292Y1462853D1*
X727781Y1458509D1*
X721946Y1454611D1*
X715824Y1451182D1*
X709451Y1448244D1*
X702868Y1445815D1*
X696114Y1443910D1*
X689231Y1442541D1*
X682263Y1441716D1*
X675251Y1441441D1*
X668239Y1441716D1*
X661270Y1442541D1*
X654388Y1443910D1*
X647634Y1445815D1*
X641050Y1448244D1*
X634677Y1451182D1*
X628555Y1454611D1*
X622720Y1458509D1*
X617209Y1462853D1*
X612056Y1467617D1*
X607293Y1472770D1*
X602949Y1478281D1*
X599050Y1484115D1*
X595621Y1490238D1*
X592683Y1496611D1*
X590255Y1503194D1*
X588350Y1509948D1*
X586981Y1516830D1*
X586156Y1523799D1*
X585881Y1530811D1*
X586156Y1537823D1*
X586981Y1544792D1*
X588350Y1551674D1*
X590255Y1558428D1*
X592683Y1565011D1*
X595621Y1571384D1*
X599050Y1577507D1*
X602949Y1583341D1*
X607293Y1588852D1*
X612056Y1594005D1*
X617209Y1598769D1*
X622720Y1603113D1*
X628555Y1607012D1*
X634677Y1610440D1*
X641050Y1613378D1*
X647634Y1615807D1*
X654388Y1617712D1*
X661270Y1619081D1*
X668239Y1619906D1*
X675251Y1620181D1*
X682263Y1619906D1*
X689231Y1619081D1*
X696114Y1617712D1*
X702868Y1615807D1*
X709451Y1613378D1*
X715824Y1610440D1*
X721946Y1607012D1*
X727781Y1603113D1*
X733292Y1598769D1*
X738445Y1594005D1*
X743208Y1588852D1*
X747553Y1583341D1*
X751451Y1577507D1*
X754880Y1571384D1*
X757818Y1565011D1*
X760247Y1558428D1*
X762151Y1551674D1*
X763520Y1544792D1*
X764345Y1537823D1*
X764621Y1530811D1*
X764345Y1523799D1*
X951809Y1362131D2*
D21*
X1348857D1*
X951809Y1349262D2*
X1348933D1*
X951809Y1336394D2*
X1349035D1*
X951809Y1323525D2*
X1349137D1*
X951809Y1310656D2*
X1349238D1*
X951809Y1297787D2*
X1349340D1*
X951809Y1284919D2*
X1349441D1*
X951809Y1272050D2*
X1349543D1*
X951809Y1259181D2*
X1349644D1*
X951809Y1246312D2*
X1349721D1*
X951809Y1233444D2*
X1349822D1*
X951809Y1220575D2*
X1349924D1*
X951809Y1207706D2*
X1350025D1*
X951809Y1194837D2*
X1350127D1*
X951809Y1181969D2*
X1350228D1*
X1151811Y1169100D2*
X1350330D1*
X1151811Y1156231D2*
X1350431D1*
X1151811Y1143362D2*
X1350508D1*
X1151811Y1130493D2*
X1350609D1*
X1151811Y1117625D2*
X1350711D1*
X1151811Y1104756D2*
X1350812D1*
X1151811Y1091887D2*
X1350914D1*
X1151811Y1079018D2*
X1351015D1*
X1151811Y1066150D2*
X1351117D1*
X1151811Y1053281D2*
X1351193D1*
X1151811Y1040412D2*
X1351295D1*
X1151811Y1027543D2*
X1351396D1*
X1151811Y1014675D2*
X1351498D1*
X1151811Y1001806D2*
X1351599D1*
X1151811Y988937D2*
X1351701D1*
X1151811Y976068D2*
X1351803D1*
X1151811Y963199D2*
X1351904D1*
X1151811Y950331D2*
X1351980D1*
X1151811Y937462D2*
X1352082D1*
X1151811Y924593D2*
X1352183D1*
X1151811Y911724D2*
X1352285D1*
X1151811Y898856D2*
X1352387D1*
X1151811Y885987D2*
X1352488D1*
X1151811Y873118D2*
X1352590D1*
X870381Y860249D2*
X1352691D1*
X870102Y847381D2*
X1352767D1*
X869848Y834512D2*
X1352869D1*
X869594Y821643D2*
X1352971D1*
X869315Y808774D2*
X1353072D1*
X869061Y795906D2*
X1353174D1*
X868807Y783037D2*
X1353275D1*
X868528Y770168D2*
X1353377D1*
X868274Y757299D2*
X1353453D1*
X868020Y744430D2*
X1353554D1*
X867740Y731562D2*
X893146D1*
X994846D2*
X1018144D1*
X1119844D2*
X1143142D1*
X1244842D2*
X1268140D1*
X867487Y718693D2*
X893146D1*
X994846D2*
X1018144D1*
X1119844D2*
X1143142D1*
X1244842D2*
X1268140D1*
X867233Y705824D2*
X893146D1*
X994846D2*
X1018144D1*
X1119844D2*
X1143142D1*
X1244842D2*
X1268140D1*
X866953Y692955D2*
X893146D1*
X994846D2*
X1018144D1*
X1119844D2*
X1143142D1*
X1244842D2*
X1268140D1*
X866699Y680087D2*
X893146D1*
X994846D2*
X1018144D1*
X1119844D2*
X1143142D1*
X1244842D2*
X1268140D1*
X866446Y667218D2*
X893146D1*
X994846D2*
X1018144D1*
X1119844D2*
X1143142D1*
X1244842D2*
X1268140D1*
X866166Y654349D2*
X893146D1*
X994846D2*
X1018144D1*
X1119844D2*
X1143142D1*
X1244842D2*
X1268140D1*
X865912Y641480D2*
X1354342D1*
X865658Y628612D2*
X1354443D1*
X865379Y615743D2*
X1354545D1*
X865125Y602874D2*
X1354646D1*
X864846Y590005D2*
X1354748D1*
X864592Y577136D2*
X1354849D1*
X900952Y743548D2*
X993548D1*
Y644452D1*
X894452D1*
Y743548D1*
X900952D1*
X1025952D2*
X1118548D1*
Y644452D1*
X1019452D1*
Y743548D1*
X1025952D1*
X1150952D2*
X1243548D1*
Y644452D1*
X1144452D1*
Y743548D1*
X1150952D1*
X1275953Y743547D2*
X1354892D1*
X1350049Y1374998D1*
X950482Y1375000D1*
X950500Y1175502D1*
X1145017Y1175420D1*
X1146951Y1174792D1*
X1148596Y1173596D1*
X1149792Y1171951D1*
X1150420Y1170017D1*
X1150500Y1149478D1*
X1150420Y867983D1*
X1149792Y866049D1*
X1148596Y864404D1*
X1146951Y863208D1*
X1145017Y862580D1*
X1124608Y862500D1*
X869119Y862487D1*
X863134Y569261D1*
X1356203Y569251D1*
X1355548Y644452D1*
X1269453D1*
Y743547D1*
X1275953D1*
D22*
X744000Y594000D3*
D23*
X547150D3*
D24*
X473916Y1968803D3*
D25*
X573916D3*
X673916D3*
X773916D3*
X873916D3*
X973916D3*
X1073916D3*
X1173916D3*
X1273907D3*
X1373907D3*
X1473907D3*
X1573907D3*
D24*
X944000Y694000D3*
D25*
Y594000D3*
Y494000D3*
D24*
X1069000Y694000D3*
D25*
Y594000D3*
Y494000D3*
D24*
X1194000Y694000D3*
D25*
Y594000D3*
Y494000D3*
D24*
X1319000Y694000D3*
D25*
Y594000D3*
Y494000D3*
D26*
X1037454Y1269000D3*
Y1457976D3*
Y1080024D3*
X675251Y1007189D3*
Y1530811D3*
M02*
