M48
INCH
T01C0.0354
T02C0.063
T03C0.1378
%
T01
X+004739Y+019688
X+005739Y+019688
X+006739Y+019688
X+007739Y+019688
X+008739Y+019688
X+009739Y+019688
X+010739Y+019688
X+011739Y+019688
X+012739Y+019688
X+013739Y+019688
X+014739Y+019688
X+015739Y+019688
X+013190Y+006940
X+013190Y+005940
X+013190Y+004940
X+011940Y+004940
X+011940Y+005940
X+011940Y+006940
X+010690Y+006940
X+010690Y+005940
X+010690Y+004940
X+009440Y+004940
X+009440Y+005940
X+009440Y+006940
T02
X+007440Y+005940
X+005471Y+005940
X+006753Y+010072
X+010375Y+010800
X+010375Y+012690
X+010375Y+014580
X+006753Y+015308
T03
X+015160Y+008271
T00
M30
