G04 DipTrace 4.0.0.2*
G04 TopSilk.gbr*
%MOIN*%
G04 #@! TF.FileFunction,Legend,Top*
G04 #@! TF.Part,Single*
%ADD10C,0.009843*%
%ADD42C,0.006176*%
%ADD43C,0.009264*%
%ADD44C,0.00772*%
%ADD45C,0.012351*%
%FSLAX26Y26*%
G04*
G70*
G90*
G75*
G01*
G04 TopSilk*
%LPD*%
X842425Y397150D2*
D10*
Y751480D1*
X448724D1*
Y397150D1*
X842425D1*
X803055Y702264D2*
Y751480D1*
X684945D1*
Y702264D1*
X803055D1*
X606205D2*
Y751480D1*
X488094D1*
Y702264D1*
X606205D1*
X394000Y2047543D2*
Y394000D1*
X1653843D1*
Y2047543D1*
X394000D1*
X894000Y744000D2*
X994000D1*
Y444000D1*
X894000D2*
X994000D1*
X894000Y744000D2*
Y444000D1*
X1019000Y744000D2*
X1119000D1*
Y444000D1*
X1019000D2*
X1119000D1*
X1019000Y744000D2*
Y444000D1*
X1144000Y744000D2*
X1244000D1*
Y444000D1*
X1144000D2*
X1244000D1*
X1144000Y744000D2*
Y444000D1*
X1269000Y744000D2*
X1369000D1*
Y444000D1*
X1269000D2*
X1369000D1*
X1269000Y744000D2*
Y444000D1*
X612259Y1003252D2*
Y1534748D1*
X414719Y1190260D2*
X611570D1*
Y1347740D1*
X414719D1*
Y1190260D1*
X861077Y1013094D2*
Y1524906D1*
X862259Y1013094D2*
X744148D1*
X862259Y1524906D2*
X744148D1*
X862259Y1081992D2*
X970526D1*
X862259Y1269000D2*
X970526D1*
Y1456008D2*
X862259D1*
X1305373Y1062214D2*
D43*
Y1088014D1*
X1302455Y1096636D1*
X1299603Y1099555D1*
X1293899Y1102406D1*
X1288129D1*
X1282425Y1099555D1*
X1279507Y1096636D1*
X1276655Y1088014D1*
Y1062214D1*
X1336943D1*
X1305373Y1082310D2*
X1336943Y1102406D1*
X1290981Y1163977D2*
X1285277Y1161126D1*
X1279507Y1155355D1*
X1276655Y1149652D1*
Y1138178D1*
X1279507Y1132408D1*
X1285277Y1126704D1*
X1290981Y1123785D1*
X1299603Y1120934D1*
X1313995D1*
X1322551Y1123785D1*
X1328321Y1126704D1*
X1334025Y1132408D1*
X1336943Y1138178D1*
Y1149652D1*
X1334025Y1155355D1*
X1328321Y1161126D1*
X1322551Y1163977D1*
X1285277Y1281018D2*
X1279507Y1275314D1*
X1276655Y1266692D1*
Y1255218D1*
X1279507Y1246596D1*
X1285277Y1240826D1*
X1290981D1*
X1296751Y1243744D1*
X1299603Y1246596D1*
X1302455Y1252300D1*
X1308225Y1269544D1*
X1311077Y1275314D1*
X1313995Y1278166D1*
X1319699Y1281018D1*
X1328321D1*
X1334025Y1275314D1*
X1336943Y1266692D1*
Y1255218D1*
X1334025Y1246596D1*
X1328321Y1240826D1*
X1313995Y1299545D2*
Y1333967D1*
X1308225D1*
X1302455Y1331115D1*
X1299603Y1328263D1*
X1296751Y1322493D1*
Y1313871D1*
X1299603Y1308167D1*
X1305373Y1302397D1*
X1313995Y1299545D1*
X1319699D1*
X1328321Y1302397D1*
X1334025Y1308167D1*
X1336943Y1313871D1*
Y1322493D1*
X1334025Y1328263D1*
X1328321Y1333967D1*
X1296751Y1352494D2*
X1336943D1*
X1313995D2*
X1305373Y1355412D1*
X1299603Y1361116D1*
X1296751Y1366886D1*
Y1375508D1*
Y1394035D2*
X1336943Y1411279D1*
X1296751Y1428457D1*
Y1461310D2*
X1299603Y1455606D1*
X1305373Y1449836D1*
X1313995Y1446984D1*
X1319699D1*
X1328321Y1449836D1*
X1334025Y1455606D1*
X1336943Y1461310D1*
Y1469932D1*
X1334025Y1475702D1*
X1328321Y1481406D1*
X1319699Y1484324D1*
X1313995D1*
X1305373Y1481406D1*
X1299603Y1475702D1*
X1296751Y1469932D1*
Y1461310D1*
X1336943Y1502851D2*
X1276721Y1543043D1*
X1276655Y1561570D2*
X1336943D1*
Y1587437D1*
X1334025Y1596059D1*
X1331173Y1598910D1*
X1325469Y1601762D1*
X1316847D1*
X1311077Y1598910D1*
X1308225Y1596059D1*
X1305373Y1587437D1*
X1302455Y1596059D1*
X1299603Y1598910D1*
X1293899Y1601762D1*
X1288129D1*
X1282425Y1598910D1*
X1279507Y1596059D1*
X1276655Y1587437D1*
Y1561570D1*
X1305373D2*
Y1587437D1*
X1276655Y1657563D2*
Y1620289D1*
X1336943D1*
Y1657563D1*
X1305373Y1620289D2*
Y1643237D1*
X1285277Y1716282D2*
X1279507Y1710579D1*
X1276655Y1701956D1*
Y1690483D1*
X1279507Y1681860D1*
X1285277Y1676090D1*
X1290981D1*
X1296751Y1679009D1*
X1299603Y1681860D1*
X1302455Y1687564D1*
X1308225Y1704808D1*
X1311077Y1710579D1*
X1313995Y1713430D1*
X1319699Y1716282D1*
X1328321D1*
X1334025Y1710579D1*
X1336943Y1701956D1*
Y1690483D1*
X1334025Y1681860D1*
X1328321Y1676090D1*
X1290981Y1777853D2*
X1285277Y1775001D1*
X1279507Y1769231D1*
X1276655Y1763527D1*
Y1752054D1*
X1279507Y1746283D1*
X1285277Y1740580D1*
X1290981Y1737661D1*
X1299603Y1734809D1*
X1313995D1*
X1322551Y1737661D1*
X1328321Y1740580D1*
X1334025Y1746283D1*
X1336943Y1752054D1*
Y1763527D1*
X1334025Y1769231D1*
X1328321Y1775001D1*
X1322551Y1777853D1*
X1385892Y1339118D2*
X1446180Y1362066D1*
X1385892Y1385014D1*
X1397432Y1403541D2*
X1394514Y1409311D1*
X1385958Y1417933D1*
X1446180D1*
X1440410Y1439312D2*
X1443328Y1436460D1*
X1446180Y1439312D1*
X1443328Y1442231D1*
X1440410Y1439312D1*
X1385958Y1478002D2*
X1388810Y1469380D1*
X1397432Y1463610D1*
X1411758Y1460758D1*
X1420380D1*
X1434706Y1463610D1*
X1443328Y1469380D1*
X1446180Y1478002D1*
Y1483706D1*
X1443328Y1492328D1*
X1434706Y1498031D1*
X1420380Y1500950D1*
X1411758D1*
X1397432Y1498031D1*
X1388810Y1492328D1*
X1385958Y1483706D1*
Y1478002D1*
X1397432Y1498031D2*
X1434706Y1463610D1*
X1509521Y1265575D2*
Y1256953D1*
X1512373Y1251249D1*
X1515225Y1248331D1*
X1520995Y1245479D1*
X1532469D1*
X1535321Y1248331D1*
Y1254101D1*
X1532469Y1265575D1*
X1538173Y1268427D1*
Y1271278D1*
X1532469Y1277049D1*
X1518143Y1279901D1*
X1509521Y1277049D1*
X1503751Y1274197D1*
X1498047Y1268427D1*
X1495195Y1262723D1*
Y1251249D1*
X1498047Y1245479D1*
X1503751Y1239775D1*
X1509521Y1236857D1*
X1518143Y1234005D1*
X1532469D1*
X1541091Y1236857D1*
X1546795Y1239775D1*
X1552565Y1245479D1*
X1555417Y1251249D1*
Y1262723D1*
X1552565Y1268427D1*
X1546795Y1274197D1*
X1506669Y1265575D2*
X1532469D1*
X1495129Y1298428D2*
X1555417D1*
X1523847D2*
X1518077Y1304198D1*
X1515225Y1309902D1*
Y1318524D1*
X1518077Y1324227D1*
X1523847Y1329998D1*
X1532469Y1332849D1*
X1538173D1*
X1546795Y1329998D1*
X1552499Y1324227D1*
X1555417Y1318524D1*
Y1309902D1*
X1552499Y1304198D1*
X1546795Y1298428D1*
X1515225Y1351377D2*
X1543943D1*
X1552499Y1354228D1*
X1555417Y1359999D1*
Y1368621D1*
X1552499Y1374325D1*
X1543943Y1382947D1*
X1515225D2*
X1555417D1*
X1495129Y1401474D2*
X1497981Y1404326D1*
X1495129Y1407244D1*
X1492211Y1404326D1*
X1495129Y1401474D1*
X1515225Y1404326D2*
X1555417D1*
X1495129Y1425771D2*
X1555417D1*
X1495129Y1478720D2*
X1555417D1*
X1523847D2*
X1518077Y1473016D1*
X1515225Y1467246D1*
Y1458624D1*
X1518077Y1452920D1*
X1523847Y1447150D1*
X1532469Y1444298D1*
X1538173D1*
X1546795Y1447150D1*
X1552499Y1452920D1*
X1555417Y1458624D1*
Y1467246D1*
X1552499Y1473016D1*
X1546795Y1478720D1*
X1495129Y1497247D2*
X1555417D1*
X1515225Y1530100D2*
X1518077Y1524396D1*
X1523847Y1518626D1*
X1532469Y1515774D1*
X1538173D1*
X1546795Y1518626D1*
X1552499Y1524396D1*
X1555417Y1530100D1*
Y1538722D1*
X1552499Y1544492D1*
X1546795Y1550196D1*
X1538173Y1553114D1*
X1532469D1*
X1523847Y1550196D1*
X1518077Y1544492D1*
X1515225Y1538722D1*
Y1530100D1*
X1518077Y1606063D2*
X1564039D1*
X1572595Y1603211D1*
X1575513Y1600359D1*
X1578365Y1594589D1*
Y1585967D1*
X1575513Y1580263D1*
X1526699Y1606063D2*
X1520995Y1600359D1*
X1518077Y1594589D1*
Y1585967D1*
X1520995Y1580263D1*
X1526699Y1574493D1*
X1535321Y1571641D1*
X1541091D1*
X1549647Y1574493D1*
X1555417Y1580263D1*
X1558269Y1585967D1*
Y1594589D1*
X1555417Y1600359D1*
X1549647Y1606063D1*
X1562543Y1916057D2*
D42*
X1558740Y1914155D1*
X1554893Y1910309D1*
X1552992Y1906506D1*
Y1898857D1*
X1554893Y1895010D1*
X1558740Y1891208D1*
X1562543Y1889262D1*
X1568291Y1887361D1*
X1577886D1*
X1583589Y1889262D1*
X1587436Y1891208D1*
X1591239Y1895010D1*
X1593184Y1898857D1*
Y1906506D1*
X1591239Y1910309D1*
X1587436Y1914155D1*
X1583589Y1916057D1*
X1577886D1*
Y1906506D1*
X646836Y1883162D2*
Y1864061D1*
X664035Y1862159D1*
X662134Y1864061D1*
X660189Y1869809D1*
Y1875512D1*
X662134Y1881260D1*
X665937Y1885107D1*
X671685Y1887009D1*
X675487D1*
X681235Y1885107D1*
X685082Y1881260D1*
X686983Y1875512D1*
Y1869809D1*
X685082Y1864061D1*
X683137Y1862159D1*
X679334Y1860214D1*
X660189Y1899360D2*
X686983Y1910856D1*
X660189Y1922308D1*
X468842Y1922306D2*
X465039Y1920405D1*
X461193Y1916558D1*
X459291Y1912756D1*
Y1905106D1*
X461193Y1901259D1*
X465039Y1897457D1*
X468842Y1895511D1*
X474590Y1893610D1*
X484185D1*
X489889Y1895511D1*
X493735Y1897457D1*
X497538Y1901259D1*
X499483Y1905106D1*
Y1912756D1*
X497538Y1916558D1*
X493735Y1920405D1*
X489889Y1922306D1*
X484185D1*
Y1912756D1*
X766985Y1900211D2*
X765039Y1904058D1*
X759336Y1909806D1*
X799483D1*
X862637Y1897457D2*
X860736D1*
X856889Y1899358D1*
X854988Y1901260D1*
X853086Y1905107D1*
Y1912756D1*
X854988Y1916558D1*
X856889Y1918460D1*
X860736Y1920405D1*
X864538D1*
X868385Y1918460D1*
X874089Y1914657D1*
X893234Y1895512D1*
Y1922306D1*
X959336Y1899358D2*
Y1920361D1*
X974634Y1908909D1*
Y1914657D1*
X976535Y1918460D1*
X978437Y1920361D1*
X984185Y1922306D1*
X987987D1*
X993735Y1920361D1*
X997582Y1916558D1*
X999483Y1910810D1*
Y1905062D1*
X997582Y1899358D1*
X995637Y1897457D1*
X991834Y1895512D1*
X1099483Y1912756D2*
X1059336D1*
X1086086Y1893610D1*
Y1922306D1*
X553042Y1839711D2*
X593234Y1855010D1*
X553042Y1870308D1*
Y1882660D2*
X593234D1*
X566439Y1895011D2*
X593234D1*
X574089D2*
X568341Y1900759D1*
X566439Y1904606D1*
Y1910310D1*
X568341Y1914157D1*
X574089Y1916058D1*
X593234D1*
X631946Y977819D2*
D43*
X629028Y983590D1*
X620472Y992212D1*
X680694D1*
X1051354Y819694D2*
Y822546D1*
X1054206Y828316D1*
X1057058Y831168D1*
X1062828Y834020D1*
X1074302D1*
X1080006Y831168D1*
X1082858Y828316D1*
X1085776Y822546D1*
Y816842D1*
X1082858Y811072D1*
X1077154Y802517D1*
X1048436Y773799D1*
X1088628D1*
X1185457Y834020D2*
X1216961D1*
X1199783Y811072D1*
X1208405D1*
X1214109Y808220D1*
X1216961Y805369D1*
X1219879Y796746D1*
Y791043D1*
X1216961Y782421D1*
X1211257Y776650D1*
X1202635Y773799D1*
X1194013D1*
X1185457Y776650D1*
X1182605Y779569D1*
X1179687Y785273D1*
X1314656Y773799D2*
Y834020D1*
X1285938Y793895D1*
X1328981D1*
X1441481Y507261D2*
X1438630Y512965D1*
X1432859Y518735D1*
X1427156Y521587D1*
X1415682D1*
X1409912Y518735D1*
X1404208Y512965D1*
X1401289Y507261D1*
X1398438Y498639D1*
Y484246D1*
X1401289Y475691D1*
X1404208Y469921D1*
X1409912Y464217D1*
X1415682Y461299D1*
X1427156D1*
X1432859Y464217D1*
X1438630Y469921D1*
X1441481Y475691D1*
Y484246D1*
X1427156D1*
X929688Y822546D2*
X935458Y825465D1*
X944080Y834020D1*
Y773799D1*
X1424237Y617243D2*
Y565577D1*
X1398438Y591377D2*
X1450104D1*
X1444880Y725465D2*
X1439176Y731235D1*
X1430554Y734087D1*
X1419080D1*
X1410458Y731235D1*
X1404688Y725465D1*
Y719761D1*
X1407606Y713991D1*
X1410458Y711139D1*
X1416162Y708287D1*
X1433406Y702517D1*
X1439176Y699665D1*
X1442028Y696746D1*
X1444880Y691043D1*
Y682421D1*
X1439176Y676717D1*
X1430554Y673799D1*
X1419080D1*
X1410458Y676717D1*
X1404688Y682421D1*
X435763Y979258D2*
D44*
X486003D1*
X435763Y962512D2*
Y996005D1*
X466880Y1011444D2*
Y1040129D1*
X462071D1*
X457263Y1037753D1*
X454886Y1035376D1*
X452510Y1030567D1*
Y1023382D1*
X454886Y1018629D1*
X459695Y1013821D1*
X466880Y1011444D1*
X471633D1*
X478818Y1013821D1*
X483571Y1018629D1*
X486003Y1023382D1*
Y1030567D1*
X483571Y1035376D1*
X478818Y1040129D1*
X452510Y1055568D2*
X486003D1*
X466880D2*
X459695Y1058000D1*
X454886Y1062753D1*
X452510Y1067562D1*
Y1074747D1*
Y1090186D2*
X486003D1*
X462071D2*
X454886Y1097371D1*
X452510Y1102180D1*
Y1109309D1*
X454886Y1114118D1*
X462071Y1116494D1*
X486003D1*
X462071D2*
X454886Y1123679D1*
X452510Y1128488D1*
Y1135618D1*
X454886Y1140426D1*
X462071Y1142858D1*
X486003D1*
X518518Y961442D2*
X568758D1*
Y982998D1*
X566327Y990183D1*
X563950Y992559D1*
X559197Y994936D1*
X552012D1*
X547203Y992559D1*
X544827Y990183D1*
X542450Y982998D1*
X540018Y990183D1*
X537642Y992559D1*
X532889Y994936D1*
X528080D1*
X523327Y992559D1*
X520895Y990183D1*
X518518Y982998D1*
Y961442D1*
X542450D2*
Y982998D1*
X518518Y1010375D2*
X568758D1*
X535265Y1037753D2*
X537642Y1032999D1*
X542450Y1028191D1*
X549635Y1025814D1*
X554388D1*
X561573Y1028191D1*
X566327Y1032999D1*
X568758Y1037753D1*
Y1044938D1*
X566327Y1049746D1*
X561573Y1054499D1*
X554388Y1056931D1*
X549635D1*
X542450Y1054499D1*
X537642Y1049746D1*
X535265Y1044938D1*
Y1037753D1*
X542450Y1101110D2*
X537642Y1096302D1*
X535265Y1091494D1*
Y1084364D1*
X537642Y1079555D1*
X542450Y1074802D1*
X549635Y1072370D1*
X554388D1*
X561573Y1074802D1*
X566327Y1079555D1*
X568758Y1084364D1*
Y1091494D1*
X566327Y1096302D1*
X561573Y1101110D1*
X518518Y1116550D2*
X568758D1*
X535265Y1140481D2*
X559197Y1116550D1*
X549635Y1126111D2*
X568758Y1142858D1*
X429514Y1373942D2*
X479754D1*
X446260Y1389382D2*
X479754D1*
X455822D2*
X448637Y1396567D1*
X446260Y1401375D1*
Y1408505D1*
X448637Y1413313D1*
X455822Y1415690D1*
X479754D1*
X429514Y1438314D2*
X470192D1*
X477322Y1440691D1*
X479754Y1445499D1*
Y1450253D1*
X446260Y1431129D2*
Y1447876D1*
X460631Y1465692D2*
Y1494377D1*
X455822D1*
X451014Y1492000D1*
X448637Y1489623D1*
X446260Y1484815D1*
Y1477630D1*
X448637Y1472877D1*
X453446Y1468068D1*
X460631Y1465692D1*
X465384D1*
X472569Y1468068D1*
X477322Y1472877D1*
X479754Y1477630D1*
Y1484815D1*
X477322Y1489623D1*
X472569Y1494377D1*
X446260Y1509816D2*
X479754D1*
X460631D2*
X453446Y1512248D1*
X448637Y1517001D1*
X446260Y1521809D1*
Y1528994D1*
Y1544434D2*
X479754D1*
X455822D2*
X448637Y1551619D1*
X446260Y1556427D1*
Y1563557D1*
X448637Y1568365D1*
X455822Y1570742D1*
X479754D1*
X446260Y1614866D2*
X479754D1*
X453446D2*
X448637Y1610113D1*
X446260Y1605304D1*
Y1598175D1*
X448637Y1593366D1*
X453446Y1588613D1*
X460631Y1586181D1*
X465384D1*
X472569Y1588613D1*
X477322Y1593366D1*
X479754Y1598175D1*
Y1605304D1*
X477322Y1610113D1*
X472569Y1614866D1*
X429514Y1630305D2*
X479754D1*
X521886Y1373942D2*
X519454Y1378751D1*
X512324Y1385936D1*
X562509D1*
Y1488278D2*
X512269Y1469099D1*
X562509Y1449976D1*
X545762Y1457161D2*
Y1481093D1*
X529016Y1503717D2*
X562509D1*
X538577D2*
X531392Y1510902D1*
X529016Y1515711D1*
Y1522840D1*
X531392Y1527649D1*
X538577Y1530026D1*
X562509D1*
X538577D2*
X531392Y1537211D1*
X529016Y1542019D1*
Y1549149D1*
X531392Y1553957D1*
X538577Y1556389D1*
X562509D1*
X529016Y1571828D2*
X579256D1*
X536201D2*
X531448Y1576637D1*
X529016Y1581390D1*
Y1588575D1*
X531448Y1593383D1*
X536201Y1598137D1*
X543386Y1600568D1*
X548194D1*
X555324Y1598137D1*
X560133Y1593383D1*
X562509Y1588575D1*
Y1581390D1*
X560133Y1576637D1*
X555324Y1571828D1*
X562509Y1702855D2*
X512269D1*
X562509Y1683732D1*
X512269Y1664609D1*
X562509D1*
X529016Y1746979D2*
X562509D1*
X536201D2*
X531392Y1742226D1*
X529016Y1737418D1*
Y1730288D1*
X531392Y1725480D1*
X536201Y1720726D1*
X543386Y1718294D1*
X548139D1*
X555324Y1720726D1*
X560077Y1725480D1*
X562509Y1730288D1*
Y1737418D1*
X560077Y1742226D1*
X555324Y1746979D1*
X529016Y1762419D2*
X562509Y1788727D1*
X529016D2*
X562509Y1762419D1*
X746881Y871512D2*
D45*
Y802624D1*
X712481Y837024D2*
X781369D1*
X518731Y837068D2*
X562946D1*
M02*
