G04 DipTrace 4.0.0.2*
G04 1 - Top.gbr*
%MOIN*%
G04 #@! TF.FileFunction,Copper,L1,Top*
G04 #@! TF.Part,Single*
%AMOUTLINE0*
4,1,28,
-0.019803,0.025591,
0.019803,0.025591,
0.02232,0.025259,
0.024665,0.024288,
0.026679,0.022742,
0.028225,0.020728,
0.029196,0.018383,
0.029528,0.015866,
0.029528,-0.015866,
0.029196,-0.018383,
0.028225,-0.020728,
0.026679,-0.022742,
0.024665,-0.024288,
0.02232,-0.025259,
0.019803,-0.025591,
-0.019803,-0.025591,
-0.02232,-0.025259,
-0.024665,-0.024288,
-0.026679,-0.022742,
-0.028225,-0.020728,
-0.029196,-0.018383,
-0.029528,-0.015866,
-0.029528,0.015866,
-0.029196,0.018383,
-0.028225,0.020728,
-0.026679,0.022742,
-0.024665,0.024288,
-0.02232,0.025259,
-0.019803,0.025591,
0*%
%AMOUTLINE3*
4,1,28,
0.019803,-0.025591,
-0.019803,-0.025591,
-0.02232,-0.025259,
-0.024665,-0.024288,
-0.026679,-0.022742,
-0.028225,-0.020728,
-0.029196,-0.018383,
-0.029528,-0.015866,
-0.029528,0.015866,
-0.029196,0.018383,
-0.028225,0.020728,
-0.026679,0.022742,
-0.024665,0.024288,
-0.02232,0.025259,
-0.019803,0.025591,
0.019803,0.025591,
0.02232,0.025259,
0.024665,0.024288,
0.026679,0.022742,
0.028225,0.020728,
0.029196,0.018383,
0.029528,0.015866,
0.029528,-0.015866,
0.029196,-0.018383,
0.028225,-0.020728,
0.026679,-0.022742,
0.024665,-0.024288,
0.02232,-0.025259,
0.019803,-0.025591,
0*%
%AMOUTLINE6*
4,1,28,
-0.035433,-0.003937,
-0.035433,0.003937,
-0.035299,0.004956,
-0.034906,0.005906,
-0.03428,0.006721,
-0.033465,0.007347,
-0.032515,0.00774,
-0.031496,0.007874,
0.031496,0.007874,
0.032515,0.00774,
0.033465,0.007347,
0.03428,0.006721,
0.034906,0.005906,
0.035299,0.004956,
0.035433,0.003937,
0.035433,-0.003937,
0.035299,-0.004956,
0.034906,-0.005906,
0.03428,-0.006721,
0.033465,-0.007347,
0.032515,-0.00774,
0.031496,-0.007874,
-0.031496,-0.007874,
-0.032515,-0.00774,
-0.033465,-0.007347,
-0.03428,-0.006721,
-0.034906,-0.005906,
-0.035299,-0.004956,
-0.035433,-0.003937,
0*%
G04 #@! TA.AperFunction,Conductor*
%ADD14C,0.012*%
%ADD15C,0.03*%
%ADD16C,0.015*%
%ADD20C,0.045354*%
G04 #@! TA.AperFunction,ComponentPad*
%ADD21R,0.059055X0.059055*%
%ADD22C,0.059055*%
%ADD23R,0.051181X0.059055*%
G04 #@! TA.AperFunction,ViaPad*
%ADD24C,0.04*%
%ADD41OUTLINE0*%
%ADD44OUTLINE3*%
%ADD47OUTLINE6*%
%FSLAX26Y26*%
G04*
G70*
G90*
G75*
G01*
G04 Top*
%LPD*%
X1063110Y1770591D2*
D14*
Y1789241D1*
X1086437Y1812568D1*
X1161535D1*
X848937Y1406417D2*
Y1362570D1*
X948937Y1406417D2*
Y1362570D1*
X1048937Y1406417D2*
Y1362570D1*
X1148937Y1406417D2*
Y1362570D1*
X717688D2*
Y1475068D1*
X623937Y1568819D1*
X548937D1*
D15*
Y1762568D1*
X673932Y1887563D1*
Y1968819D1*
X1161535Y1812568D2*
D14*
Y1868720D1*
X1236339Y1812568D2*
X1292688D1*
Y1812570D1*
X1298839Y1012568D2*
Y1100070D1*
Y1187570D1*
Y1275068D1*
Y1331220D1*
X1298937Y1331319D1*
X834772Y1617047D2*
X906959D1*
X917687Y1606319D1*
X1063110Y1693819D2*
X1117687D1*
X1130187Y1706319D1*
Y1737569D1*
X1122756Y1745000D1*
X1063110D1*
X1122756D2*
X1220549D1*
X1221730Y1743819D1*
X1273937D1*
X1292688Y1762570D1*
Y1812570D1*
X834764Y1719409D2*
X762028D1*
X748937Y1706319D1*
Y1581319D1*
X786437Y1543819D1*
X886437D1*
X948937Y1481319D1*
Y1481220D1*
X873937Y956220D2*
Y1100070D1*
Y1218819D1*
X898937Y1243819D1*
Y1431220D1*
X948937Y1481220D1*
X1224035Y1100070D2*
X1161437D1*
X917688D2*
X873937D1*
X548937Y1368819D2*
D15*
X498937D1*
X473937Y1393819D1*
Y1793819D1*
X573932Y1893814D1*
Y1968819D1*
X698937Y693819D2*
Y643819D1*
X748937Y593819D1*
X898937D1*
X1098937D1*
X1261437D1*
X1298937Y556319D1*
Y493819D1*
X1098937Y693819D2*
Y593819D1*
X898937Y493819D2*
Y593819D1*
X698937Y693819D2*
Y843819D1*
X661437Y881319D1*
Y1431319D1*
X623937Y1468819D1*
X548937D1*
X1148937Y1481220D2*
D14*
Y1612568D1*
X1118867Y1642638D1*
X1063110D1*
X1073937Y956220D2*
Y1225068D1*
X1098937Y1250068D1*
Y1462568D1*
X1117589Y1481220D1*
X1148937D1*
X1224035Y1275068D2*
Y1462470D1*
X1205285Y1481220D1*
X1148937D1*
X1073937Y881417D2*
D16*
Y781319D1*
X1048937Y756319D1*
X898937Y693819D2*
Y781319D1*
X973937Y856319D1*
Y881417D1*
X848937Y1481220D2*
D14*
X799035D1*
X723937Y1556319D1*
Y1806319D1*
X836437D2*
Y1772264D1*
X834764Y1770591D1*
X773937Y956220D2*
Y1043819D1*
Y1456122D1*
X799035Y1481220D1*
X1224035Y1012568D2*
X1161437D1*
X817688Y1043819D2*
X773937D1*
X792687Y681319D2*
D16*
Y775069D1*
X873937Y856319D1*
Y881417D1*
X773937D2*
Y831319D1*
X834764Y1668228D2*
D14*
X798346D1*
X773937Y1643819D1*
Y1593819D1*
X798937Y1568819D1*
X1011437D1*
X1048937Y1531319D1*
Y1481220D1*
X973937Y956220D2*
Y1187570D1*
Y1225068D1*
X998937Y1250068D1*
Y1431220D1*
X1048937Y1481220D1*
X1224035Y1187570D2*
X1161437D1*
X1011437D2*
X973937D1*
X1073932Y1968819D2*
Y1918814D1*
X1011437Y1856319D1*
Y1631319D1*
X1025709Y1617047D1*
X1063110D1*
X773932Y1968819D2*
Y1768824D1*
X798937Y1743819D1*
X800118Y1745000D1*
X834764D1*
X873932Y1968819D2*
Y1893824D1*
X898937Y1868819D1*
Y1718819D1*
X873937Y1693819D1*
X834764D1*
X973932Y1968819D2*
Y1893814D1*
X948937Y1868819D1*
Y1693819D1*
X897756Y1642638D1*
X834764D1*
D24*
X717688Y1362570D3*
X1161535Y1868720D3*
X1161437Y1100070D3*
X917688D3*
X1048937Y756319D3*
X723937Y1806319D3*
X836437D3*
X1161437Y1012568D3*
X817688Y1043819D3*
X792687Y681319D3*
X773937Y831319D3*
X1161437Y1187570D3*
X1011437D3*
X1292688Y1812570D3*
X848937Y1362570D3*
X948937D3*
X1048937D3*
X1148937D3*
X1298937Y1331319D3*
X917687Y1606319D3*
D20*
X1555433Y492441D3*
D21*
X548937Y1368819D3*
D22*
Y1468819D3*
Y1568819D3*
D20*
X492441Y492441D3*
X1535748Y1850709D3*
D21*
X498937Y693819D3*
D22*
X598937D3*
X698937D3*
D21*
X473932Y1968819D3*
D22*
X573932D3*
X673932D3*
X773932D3*
X873932D3*
X973932D3*
X1073932D3*
X1173932D3*
X1273923D3*
X1373923D3*
X1473923D3*
X1573923D3*
D21*
X698937Y493819D3*
D22*
X798937D3*
X898937D3*
D21*
Y693819D3*
D22*
X998937D3*
X1098937D3*
D23*
X1224035Y1012568D3*
X1298839D3*
X1224035Y1100070D3*
X1298839D3*
X1224035Y1187570D3*
X1298839D3*
X1224035Y1275068D3*
X1298839D3*
D41*
X848937Y1481220D3*
Y1406417D3*
X948937Y1481220D3*
Y1406417D3*
X1048937Y1481220D3*
Y1406417D3*
X1148937Y1481220D3*
Y1406417D3*
D44*
X773937Y881417D3*
Y956220D3*
X873937Y881417D3*
Y956220D3*
X973937Y881417D3*
Y956220D3*
X1073937Y881417D3*
Y956220D3*
D21*
X1098937Y493819D3*
D22*
X1198937D3*
X1298937D3*
D47*
X834764Y1770591D3*
Y1745000D3*
Y1719409D3*
Y1693819D3*
Y1668228D3*
Y1642638D3*
X834772Y1617047D3*
X1063110D3*
Y1642638D3*
Y1668228D3*
Y1693819D3*
Y1719409D3*
Y1745000D3*
Y1770591D3*
D23*
X1161535Y1812568D3*
X1236339D3*
M02*
