G04 DipTrace 4.0.0.2*
G04 2 - Bottom.gbr*
%MOIN*%
G04 #@! TF.FileFunction,Copper,L2,Bot*
G04 #@! TF.Part,Single*
G04 #@! TA.AperFunction,Conductor*
%ADD14C,0.012*%
%ADD16C,0.015*%
G04 #@! TA.AperFunction,CopperBalancing*
%ADD17C,0.025*%
G04 #@! TA.AperFunction,ComponentPad*
%ADD19R,0.059055X0.059055*%
%ADD20C,0.059055*%
G04 #@! TA.AperFunction,ViaPad*
%ADD22C,0.04*%
%FSLAX26Y26*%
G04*
G70*
G90*
G75*
G01*
G04 Bottom*
%LPD*%
X848921Y1362554D2*
D14*
X948921D1*
X1048921D1*
X1148921D1*
X848921D2*
X717672D1*
X1161520Y1868705D2*
X1111421Y1918803D1*
X723916D1*
X673916Y1968803D1*
X1048921Y756303D2*
D16*
Y531303D1*
X1086421Y493803D1*
X1098921D1*
X698921D2*
X792671Y587553D1*
Y681303D1*
X773921Y831303D2*
X498921D1*
Y693803D1*
X723921Y1806303D2*
D14*
X836421D1*
X1161421Y1012552D2*
X1142672D1*
X1111421Y1043803D1*
X817672D1*
X1161421Y1100054D2*
X917672D1*
X1161421Y1187554D2*
X1011421D1*
D22*
X717672Y1362554D3*
X1161520Y1868705D3*
X1048921Y756303D3*
X792671Y681303D3*
X773921Y831303D3*
X723921Y1806303D3*
X836421D3*
X1161421Y1012552D3*
X817672Y1043803D3*
X1161421Y1100054D3*
X917672D3*
X1161421Y1187554D3*
X1011421D3*
X1292672Y1812554D3*
X848921Y1362554D3*
X948921D3*
X1048921D3*
X1148921D3*
X1298921Y1331303D3*
X917671Y1606303D3*
X438939Y1981434D2*
D17*
X504559D1*
X1543239D2*
X1608931D1*
X438939Y1956566D2*
X504488D1*
X1543311D2*
X1608931D1*
X438939Y1931697D2*
X514392D1*
X1533407D2*
X1608931D1*
X438939Y1906828D2*
X543350D1*
X604473D2*
X643359D1*
X1208404D2*
X1243343D1*
X1304466D2*
X1343352D1*
X1404475D2*
X1443361D1*
X1504448D2*
X1608931D1*
X438939Y1881959D2*
X696468D1*
X1220999D2*
X1608931D1*
X438939Y1857091D2*
X692377D1*
X755438D2*
X804874D1*
X867971D2*
X1101672D1*
X1221358D2*
X1608931D1*
X438939Y1832222D2*
X668981D1*
X891367D2*
X1113299D1*
X1209767D2*
X1608931D1*
X438939Y1807353D2*
X662916D1*
X897396D2*
X1608931D1*
X438939Y1782484D2*
X667976D1*
X892336D2*
X1608931D1*
X438939Y1757615D2*
X689004D1*
X758847D2*
X801501D1*
X871344D2*
X1608931D1*
X438939Y1732747D2*
X1608931D1*
X438939Y1707878D2*
X1608931D1*
X438939Y1683009D2*
X1608931D1*
X438939Y1658140D2*
X1608931D1*
X438939Y1633272D2*
X524690D1*
X573146D2*
X1608931D1*
X438939Y1608403D2*
X491103D1*
X606734D2*
X1608931D1*
X438939Y1583534D2*
X480014D1*
X617822D2*
X1608931D1*
X438939Y1558665D2*
X479153D1*
X618683D2*
X1608931D1*
X438939Y1533797D2*
X488088D1*
X609748D2*
X1608931D1*
X438939Y1508928D2*
X491497D1*
X606339D2*
X1608931D1*
X438939Y1484059D2*
X480122D1*
X617714D2*
X1608931D1*
X438939Y1459190D2*
X479082D1*
X618755D2*
X1608931D1*
X438939Y1434322D2*
X478400D1*
X619437D2*
X1608931D1*
X438939Y1409453D2*
X478400D1*
X619437D2*
X680212D1*
X755151D2*
X811441D1*
X886379D2*
X911450D1*
X986388D2*
X1011459D1*
X1086398D2*
X1111469D1*
X1186407D2*
X1608931D1*
X438939Y1384584D2*
X478400D1*
X619437D2*
X660978D1*
X1205605D2*
X1608931D1*
X438939Y1359715D2*
X478400D1*
X619437D2*
X656744D1*
X1209839D2*
X1608931D1*
X438939Y1334846D2*
X478400D1*
X619437D2*
X663634D1*
X1202949D2*
X1608931D1*
X438939Y1309978D2*
X478400D1*
X619437D2*
X689506D1*
X745821D2*
X820771D1*
X877085D2*
X920780D1*
X977058D2*
X1020753D1*
X1077068D2*
X1120763D1*
X1177077D2*
X1608931D1*
X438939Y1285109D2*
X1608931D1*
X438939Y1260240D2*
X1608931D1*
X438939Y1235371D2*
X975216D1*
X1047607D2*
X1125212D1*
X1197639D2*
X1608931D1*
X438939Y1210503D2*
X955121D1*
X1217734D2*
X1608931D1*
X438939Y1185634D2*
X950456D1*
X1222399D2*
X1608931D1*
X438939Y1160765D2*
X956915D1*
X1215939D2*
X1608931D1*
X438939Y1135896D2*
X868927D1*
X1210162D2*
X1608931D1*
X438939Y1111028D2*
X857696D1*
X1221394D2*
X1608931D1*
X438939Y1086159D2*
X774803D1*
X1220748D2*
X1608931D1*
X438939Y1061290D2*
X759337D1*
X1207722D2*
X1608931D1*
X438939Y1036421D2*
X757148D1*
X1217339D2*
X1608931D1*
X438939Y1011552D2*
X766370D1*
X1222399D2*
X1608931D1*
X438939Y986684D2*
X802542D1*
X832804D2*
X1103108D1*
X1216406D2*
X1608931D1*
X438939Y961815D2*
X1129805D1*
X1193045D2*
X1608931D1*
X438939Y936946D2*
X1442213D1*
X1589889D2*
X1608931D1*
X438939Y912077D2*
X1413865D1*
X438939Y887209D2*
X754206D1*
X793654D2*
X1397178D1*
X438939Y862340D2*
X462467D1*
X826022D2*
X1387382D1*
X834598Y837471D2*
X1382968D1*
X831835Y812602D2*
X1030514D1*
X1067307D2*
X1383327D1*
X815472Y787734D2*
X997070D1*
X1100751D2*
X1388602D1*
X547417Y762865D2*
X988278D1*
X1109543D2*
X1399367D1*
X569450Y737996D2*
X644687D1*
X753141D2*
X775736D1*
X809587D2*
X828378D1*
X969451D2*
X990862D1*
X1153142D2*
X1417489D1*
X569450Y713127D2*
X631195D1*
X969451D2*
X1000407D1*
X1166635D2*
X1448888D1*
X1583178D2*
X1608931D1*
X569450Y688259D2*
X628611D1*
X969451D2*
X1000407D1*
X1169218D2*
X1608931D1*
X569450Y663390D2*
X635572D1*
X969451D2*
X1000407D1*
X1162257D2*
X1608931D1*
X569450Y638521D2*
X656780D1*
X969451D2*
X1000407D1*
X1141049D2*
X1608931D1*
X438939Y613652D2*
X744158D1*
X841165D2*
X1000407D1*
X1097414D2*
X1608931D1*
X438939Y588783D2*
X726359D1*
X841165D2*
X1000407D1*
X1097414D2*
X1608931D1*
X438939Y563915D2*
X701492D1*
X834634D2*
X1000407D1*
X1097414D2*
X1608931D1*
X438939Y539046D2*
X628396D1*
X811704D2*
X845603D1*
X952227D2*
X1000407D1*
X1169434D2*
X1245604D1*
X1352228D2*
X1608931D1*
X438939Y514177D2*
X628396D1*
X786836D2*
X831500D1*
X966329D2*
X1003744D1*
X1169434D2*
X1231501D1*
X1366330D2*
X1608931D1*
X438939Y489308D2*
X628396D1*
X769433D2*
X828558D1*
X969307D2*
X1023373D1*
X1169434D2*
X1228559D1*
X1369309D2*
X1608931D1*
X438939Y464440D2*
X628396D1*
X769433D2*
X835053D1*
X962777D2*
X1028397D1*
X1169434D2*
X1235054D1*
X1362778D2*
X1608931D1*
X608964Y1436831D2*
X616949D1*
Y1300776D1*
X480894D1*
Y1436831D1*
X488896D1*
X486072Y1442770D1*
X482773Y1452922D1*
X481103Y1463466D1*
Y1474141D1*
X482773Y1484684D1*
X486072Y1494836D1*
X490918Y1504347D1*
X497193Y1512984D1*
X502826Y1518761D1*
X497193Y1524623D1*
X490918Y1533259D1*
X486072Y1542770D1*
X482773Y1552922D1*
X481103Y1563466D1*
Y1574141D1*
X482773Y1584684D1*
X486072Y1594836D1*
X490918Y1604347D1*
X497193Y1612984D1*
X504741Y1620532D1*
X513377Y1626806D1*
X522888Y1631652D1*
X533041Y1634951D1*
X543584Y1636621D1*
X554259D1*
X564802Y1634951D1*
X574954Y1631652D1*
X584466Y1626806D1*
X593102Y1620532D1*
X600650Y1612984D1*
X606924Y1604347D1*
X611771Y1594836D1*
X615069Y1584684D1*
X616739Y1574141D1*
Y1563466D1*
X615069Y1552922D1*
X611771Y1542770D1*
X606924Y1533259D1*
X600650Y1524623D1*
X595017Y1518845D1*
X600650Y1512984D1*
X606924Y1504347D1*
X611771Y1494836D1*
X615069Y1484684D1*
X616739Y1474141D1*
Y1463466D1*
X615069Y1452922D1*
X611771Y1442770D1*
X608933Y1436845D1*
X886900Y1318059D2*
X879487Y1312674D1*
X871308Y1308507D1*
X862578Y1305670D1*
X853511Y1304234D1*
X844331D1*
X835265Y1305670D1*
X826534Y1308507D1*
X818355Y1312674D1*
X810943Y1318059D1*
X755613Y1318054D1*
X748238Y1312674D1*
X740059Y1308507D1*
X731328Y1305670D1*
X722262Y1304234D1*
X713082D1*
X704015Y1305670D1*
X695285Y1308507D1*
X687106Y1312674D1*
X679679Y1318070D1*
X673188Y1324561D1*
X667792Y1331988D1*
X663625Y1340167D1*
X660788Y1348897D1*
X659352Y1357964D1*
Y1367144D1*
X660788Y1376210D1*
X663625Y1384941D1*
X667792Y1393120D1*
X673188Y1400547D1*
X679679Y1407038D1*
X687106Y1412433D1*
X695285Y1416601D1*
X704015Y1419437D1*
X713082Y1420873D1*
X722262D1*
X731328Y1419437D1*
X740059Y1416601D1*
X748238Y1412433D1*
X755651Y1407049D1*
X810980Y1407054D1*
X818355Y1412433D1*
X826534Y1416601D1*
X835265Y1419437D1*
X844331Y1420873D1*
X853511D1*
X862578Y1419437D1*
X871308Y1416601D1*
X879487Y1412433D1*
X886900Y1407049D1*
X910973Y1407054D1*
X918355Y1412433D1*
X926534Y1416601D1*
X935265Y1419437D1*
X944331Y1420873D1*
X953511D1*
X962578Y1419437D1*
X971308Y1416601D1*
X979487Y1412433D1*
X986900Y1407049D1*
X1010973Y1407054D1*
X1018355Y1412433D1*
X1026534Y1416601D1*
X1035265Y1419437D1*
X1044331Y1420873D1*
X1053511D1*
X1062578Y1419437D1*
X1071308Y1416601D1*
X1079487Y1412433D1*
X1086900Y1407049D1*
X1110973Y1407054D1*
X1118355Y1412433D1*
X1126534Y1416601D1*
X1135265Y1419437D1*
X1144331Y1420873D1*
X1153511D1*
X1162578Y1419437D1*
X1171308Y1416601D1*
X1179487Y1412433D1*
X1186914Y1407038D1*
X1193405Y1400547D1*
X1198801Y1393120D1*
X1202968Y1384941D1*
X1205805Y1376210D1*
X1207241Y1367144D1*
Y1357964D1*
X1205805Y1348897D1*
X1202968Y1340167D1*
X1198801Y1331988D1*
X1193405Y1324561D1*
X1186914Y1318070D1*
X1179487Y1312674D1*
X1171308Y1308507D1*
X1162578Y1305670D1*
X1153511Y1304234D1*
X1144331D1*
X1135265Y1305670D1*
X1126534Y1308507D1*
X1118355Y1312674D1*
X1110943Y1318059D1*
X1086869Y1318054D1*
X1079487Y1312674D1*
X1071308Y1308507D1*
X1062578Y1305670D1*
X1053511Y1304234D1*
X1044331D1*
X1035265Y1305670D1*
X1026534Y1308507D1*
X1018355Y1312674D1*
X1010943Y1318059D1*
X986869Y1318054D1*
X979487Y1312674D1*
X971308Y1308507D1*
X962578Y1305670D1*
X953511Y1304234D1*
X944331D1*
X935265Y1305670D1*
X926534Y1308507D1*
X918355Y1312674D1*
X910943Y1318059D1*
X886869Y1318054D1*
X436456Y761831D2*
X452891D1*
X453063Y834912D1*
X454192Y842042D1*
X456423Y848907D1*
X459700Y855338D1*
X463943Y861178D1*
X469047Y866282D1*
X474886Y870525D1*
X481318Y873802D1*
X488183Y876032D1*
X495312Y877161D1*
X526461Y877303D1*
X737783D1*
X743355Y881183D1*
X751534Y885350D1*
X760265Y888187D1*
X769331Y889623D1*
X778511D1*
X787578Y888187D1*
X796308Y885350D1*
X804487Y881183D1*
X811914Y875787D1*
X818405Y869296D1*
X823801Y861869D1*
X827968Y853690D1*
X830805Y844960D1*
X832241Y835893D1*
Y826713D1*
X830805Y817647D1*
X827968Y808916D1*
X823801Y800737D1*
X818405Y793310D1*
X811914Y786819D1*
X804487Y781424D1*
X796308Y777256D1*
X787578Y774420D1*
X778511Y772983D1*
X769331D1*
X760265Y774420D1*
X751534Y777256D1*
X743355Y781424D1*
X737859Y785298D1*
X544892Y785303D1*
X544921Y761814D1*
X566949Y761831D1*
Y625776D1*
X436449D1*
X436421Y443801D1*
X630913Y443803D1*
X630894Y561831D1*
X701909D1*
X746650Y606586D1*
X746671Y645192D1*
X738907Y638768D1*
X729805Y633190D1*
X719943Y629105D1*
X709563Y626613D1*
X698921Y625776D1*
X688279Y626613D1*
X677900Y629105D1*
X668037Y633190D1*
X658936Y638768D1*
X650819Y645700D1*
X643886Y653818D1*
X638308Y662919D1*
X634223Y672781D1*
X631731Y683161D1*
X630894Y693803D1*
X631731Y704445D1*
X634223Y714825D1*
X638308Y724687D1*
X643886Y733789D1*
X650819Y741906D1*
X658936Y748839D1*
X668037Y754416D1*
X677900Y758501D1*
X688279Y760993D1*
X698921Y761831D1*
X709563Y760993D1*
X719943Y758501D1*
X729805Y754416D1*
X738907Y748839D1*
X747024Y741906D1*
X753957Y733789D1*
X757607Y728128D1*
X762105Y731183D1*
X770284Y735350D1*
X779015Y738187D1*
X788081Y739623D1*
X797261D1*
X806328Y738187D1*
X815058Y735350D1*
X823237Y731183D1*
X830888Y725580D1*
X830894Y761831D1*
X966949D1*
Y625776D1*
X838663D1*
X838529Y583944D1*
X837400Y576815D1*
X835170Y569950D1*
X831893Y563518D1*
X827650Y557679D1*
X805510Y535338D1*
X766967Y496795D1*
X766949Y443808D1*
X852821Y443803D1*
X847193Y449623D1*
X840918Y458259D1*
X836072Y467770D1*
X832773Y477922D1*
X831103Y488466D1*
Y499141D1*
X832773Y509684D1*
X836072Y519836D1*
X840918Y529347D1*
X847193Y537984D1*
X854741Y545532D1*
X863377Y551806D1*
X872888Y556652D1*
X883041Y559951D1*
X893584Y561621D1*
X904259D1*
X914802Y559951D1*
X924954Y556652D1*
X934466Y551806D1*
X943102Y545532D1*
X950650Y537984D1*
X956924Y529347D1*
X961771Y519836D1*
X965069Y509684D1*
X966739Y499141D1*
Y488466D1*
X965069Y477922D1*
X961771Y467770D1*
X956924Y458259D1*
X950650Y449623D1*
X944986Y443817D1*
X1030879Y443803D1*
X1030894Y484303D1*
X1013942Y501428D1*
X1009700Y507268D1*
X1006423Y513700D1*
X1004192Y520565D1*
X1003063Y527694D1*
X1002921Y559051D1*
Y720135D1*
X999042Y725737D1*
X994874Y733916D1*
X992038Y742647D1*
X990602Y751713D1*
Y760893D1*
X992038Y769960D1*
X994874Y778690D1*
X999042Y786869D1*
X1004438Y794296D1*
X1010929Y800787D1*
X1018355Y806183D1*
X1026534Y810350D1*
X1035265Y813187D1*
X1044331Y814623D1*
X1053511D1*
X1062578Y813187D1*
X1071308Y810350D1*
X1079487Y806183D1*
X1086914Y800787D1*
X1093405Y794296D1*
X1098801Y786869D1*
X1102968Y778690D1*
X1105805Y769960D1*
X1107188Y761338D1*
X1114802Y759951D1*
X1124954Y756652D1*
X1134466Y751806D1*
X1143102Y745532D1*
X1150650Y737984D1*
X1156924Y729347D1*
X1161771Y719836D1*
X1165069Y709684D1*
X1166739Y699141D1*
Y688466D1*
X1165069Y677922D1*
X1161771Y667770D1*
X1156924Y658259D1*
X1150650Y649623D1*
X1143102Y642075D1*
X1134466Y635800D1*
X1124954Y630954D1*
X1114802Y627655D1*
X1104259Y625985D1*
X1094939Y625932D1*
X1094921Y561802D1*
X1166949Y561831D1*
Y443808D1*
X1252786Y443803D1*
X1247193Y449623D1*
X1240918Y458259D1*
X1236072Y467770D1*
X1232773Y477922D1*
X1231103Y488466D1*
Y499141D1*
X1232773Y509684D1*
X1236072Y519836D1*
X1240918Y529347D1*
X1247193Y537984D1*
X1254741Y545532D1*
X1263377Y551806D1*
X1272888Y556652D1*
X1283041Y559951D1*
X1293584Y561621D1*
X1304259D1*
X1314802Y559951D1*
X1324954Y556652D1*
X1334466Y551806D1*
X1343102Y545532D1*
X1350650Y537984D1*
X1356924Y529347D1*
X1361771Y519836D1*
X1365069Y509684D1*
X1366739Y499141D1*
Y488466D1*
X1365069Y477922D1*
X1361771Y467770D1*
X1356924Y458259D1*
X1350650Y449623D1*
X1344986Y443817D1*
X1611413Y443803D1*
X1611421Y737297D1*
X1603344Y729391D1*
X1596285Y723515D1*
X1588832Y718147D1*
X1581022Y713315D1*
X1572892Y709042D1*
X1564482Y705350D1*
X1555835Y702255D1*
X1546992Y699774D1*
X1537997Y697919D1*
X1528894Y696698D1*
X1519728Y696119D1*
X1510543Y696183D1*
X1501386Y696890D1*
X1492301Y698237D1*
X1483333Y700217D1*
X1474525Y702821D1*
X1465921Y706036D1*
X1457564Y709846D1*
X1449495Y714231D1*
X1441752Y719172D1*
X1434375Y724642D1*
X1427399Y730616D1*
X1420858Y737065D1*
X1414786Y743955D1*
X1409211Y751254D1*
X1404162Y758926D1*
X1399662Y766933D1*
X1395735Y775235D1*
X1392398Y783793D1*
X1389670Y792562D1*
X1387563Y801502D1*
X1386087Y810567D1*
X1385250Y819713D1*
X1385056Y828896D1*
X1385506Y838069D1*
X1386597Y847188D1*
X1388325Y856209D1*
X1390680Y865086D1*
X1393652Y873777D1*
X1397225Y882238D1*
X1401383Y890427D1*
X1406103Y898306D1*
X1411365Y905834D1*
X1417141Y912975D1*
X1423402Y919694D1*
X1430120Y925957D1*
X1437259Y931735D1*
X1444786Y936998D1*
X1452664Y941721D1*
X1460852Y945880D1*
X1469312Y949455D1*
X1478002Y952429D1*
X1486879Y954786D1*
X1495899Y956516D1*
X1505018Y957610D1*
X1514191Y958062D1*
X1523374Y957870D1*
X1532520Y957035D1*
X1541586Y955561D1*
X1550526Y953456D1*
X1559296Y950730D1*
X1567854Y947396D1*
X1576157Y943470D1*
X1584165Y938972D1*
X1591838Y933925D1*
X1599139Y928352D1*
X1606031Y922281D1*
X1611397Y916841D1*
X1611421Y2006305D1*
X1530682Y2006303D1*
X1534520Y1999687D1*
X1538605Y1989825D1*
X1541097Y1979445D1*
X1541934Y1968803D1*
X1541097Y1958161D1*
X1538605Y1947781D1*
X1534520Y1937919D1*
X1528942Y1928818D1*
X1522010Y1920700D1*
X1513892Y1913768D1*
X1504791Y1908190D1*
X1494928Y1904105D1*
X1484549Y1901613D1*
X1473907Y1900776D1*
X1463265Y1901613D1*
X1452885Y1904105D1*
X1443023Y1908190D1*
X1433921Y1913768D1*
X1425804Y1920700D1*
X1423949Y1922708D1*
X1418087Y1917075D1*
X1409451Y1910800D1*
X1399940Y1905954D1*
X1389788Y1902655D1*
X1379244Y1900985D1*
X1368569D1*
X1358026Y1902655D1*
X1347874Y1905954D1*
X1338363Y1910800D1*
X1329726Y1917075D1*
X1323949Y1922708D1*
X1318087Y1917075D1*
X1309451Y1910800D1*
X1299940Y1905954D1*
X1289788Y1902655D1*
X1279244Y1900985D1*
X1268569D1*
X1258026Y1902655D1*
X1247874Y1905954D1*
X1238363Y1910800D1*
X1229726Y1917075D1*
X1223949Y1922708D1*
X1218096Y1917075D1*
X1209460Y1910800D1*
X1204705Y1908146D1*
X1208847Y1903090D1*
X1213644Y1895263D1*
X1217156Y1886782D1*
X1219299Y1877856D1*
X1220020Y1868705D1*
X1219299Y1859553D1*
X1217156Y1850627D1*
X1213644Y1842146D1*
X1208847Y1834319D1*
X1202885Y1827339D1*
X1195905Y1821377D1*
X1188078Y1816581D1*
X1179597Y1813068D1*
X1170671Y1810925D1*
X1161520Y1810205D1*
X1152368Y1810925D1*
X1143442Y1813068D1*
X1134961Y1816581D1*
X1127134Y1821377D1*
X1120154Y1827339D1*
X1114192Y1834319D1*
X1109396Y1842146D1*
X1105883Y1850627D1*
X1103740Y1859553D1*
X1103202Y1864097D1*
X1093012Y1874279D1*
X720425Y1874440D1*
X713528Y1875533D1*
X706887Y1877690D1*
X700665Y1880861D1*
X695016Y1884965D1*
X678816Y1900971D1*
X668579Y1900985D1*
X658035Y1902655D1*
X647883Y1905954D1*
X638372Y1910800D1*
X629736Y1917075D1*
X623958Y1922708D1*
X618096Y1917075D1*
X609460Y1910800D1*
X599949Y1905954D1*
X589797Y1902655D1*
X579253Y1900985D1*
X568579D1*
X558035Y1902655D1*
X547883Y1905954D1*
X538372Y1910800D1*
X529736Y1917075D1*
X522187Y1924623D1*
X515913Y1933259D1*
X511067Y1942770D1*
X507768Y1952922D1*
X506098Y1963466D1*
Y1974141D1*
X507768Y1984684D1*
X511067Y1994836D1*
X515913Y2004347D1*
X517223Y2006308D1*
X436430Y2006303D1*
X436421Y761807D1*
X955623Y1144554D2*
X971771D1*
X966938Y1149561D1*
X961542Y1156988D1*
X957374Y1165167D1*
X954538Y1173897D1*
X953102Y1182964D1*
Y1192144D1*
X954538Y1201210D1*
X957374Y1209941D1*
X961542Y1218120D1*
X966938Y1225547D1*
X973429Y1232038D1*
X980855Y1237433D1*
X989034Y1241601D1*
X997765Y1244437D1*
X1006831Y1245873D1*
X1016011D1*
X1025078Y1244437D1*
X1033808Y1241601D1*
X1041987Y1237433D1*
X1049400Y1232049D1*
X1123461Y1232054D1*
X1130855Y1237433D1*
X1139034Y1241601D1*
X1147765Y1244437D1*
X1156831Y1245873D1*
X1166011D1*
X1175078Y1244437D1*
X1183808Y1241601D1*
X1191987Y1237433D1*
X1199414Y1232038D1*
X1205905Y1225547D1*
X1211301Y1218120D1*
X1215468Y1209941D1*
X1218305Y1201210D1*
X1219741Y1192144D1*
Y1182964D1*
X1218305Y1173897D1*
X1215468Y1165167D1*
X1211301Y1156988D1*
X1205905Y1149561D1*
X1200244Y1143837D1*
X1205905Y1138047D1*
X1211301Y1130620D1*
X1215468Y1122441D1*
X1218305Y1113710D1*
X1219741Y1104644D1*
Y1095464D1*
X1218305Y1086397D1*
X1215468Y1077667D1*
X1211301Y1069488D1*
X1205905Y1062061D1*
X1200244Y1056337D1*
X1205905Y1050545D1*
X1211301Y1043119D1*
X1215468Y1034939D1*
X1218305Y1026209D1*
X1219741Y1017142D1*
Y1007963D1*
X1218305Y998896D1*
X1215468Y990166D1*
X1211301Y981986D1*
X1205905Y974560D1*
X1199414Y968069D1*
X1191987Y962673D1*
X1183808Y958506D1*
X1175078Y955669D1*
X1166011Y954233D1*
X1156831D1*
X1147765Y955669D1*
X1139034Y958506D1*
X1130855Y962673D1*
X1123429Y968069D1*
X1116938Y974560D1*
X1113665Y978809D1*
X1092980Y999311D1*
X855610Y999303D1*
X848238Y993924D1*
X840059Y989756D1*
X831328Y986920D1*
X822262Y985483D1*
X813082D1*
X804015Y986920D1*
X795285Y989756D1*
X787106Y993924D1*
X779679Y999319D1*
X773188Y1005810D1*
X767792Y1013237D1*
X763625Y1021416D1*
X760788Y1030147D1*
X759352Y1039213D1*
Y1048393D1*
X760788Y1057460D1*
X763625Y1066190D1*
X767792Y1074369D1*
X773188Y1081796D1*
X779679Y1088287D1*
X787106Y1093683D1*
X795285Y1097850D1*
X804015Y1100687D1*
X813082Y1102123D1*
X822262D1*
X831328Y1100687D1*
X840059Y1097850D1*
X848238Y1093683D1*
X855651Y1088298D1*
X859892Y1090902D1*
X859172Y1100054D1*
X859892Y1109205D1*
X862035Y1118131D1*
X865548Y1126612D1*
X870344Y1134439D1*
X876306Y1141420D1*
X883286Y1147381D1*
X891113Y1152178D1*
X899594Y1155691D1*
X908520Y1157834D1*
X917672Y1158554D1*
X926823Y1157834D1*
X935749Y1155691D1*
X944230Y1152178D1*
X952057Y1147381D1*
X955651Y1144549D1*
X761896Y1850803D2*
X798426D1*
X805855Y1856183D1*
X814034Y1860350D1*
X822765Y1863187D1*
X831831Y1864623D1*
X841011D1*
X850078Y1863187D1*
X858808Y1860350D1*
X866987Y1856183D1*
X874414Y1850787D1*
X880905Y1844296D1*
X886301Y1836869D1*
X890468Y1828690D1*
X893305Y1819960D1*
X894741Y1810893D1*
Y1801713D1*
X893305Y1792647D1*
X890468Y1783916D1*
X886301Y1775737D1*
X880905Y1768310D1*
X874414Y1761819D1*
X866987Y1756424D1*
X858808Y1752256D1*
X850078Y1749420D1*
X841011Y1747983D1*
X831831D1*
X822765Y1749420D1*
X814034Y1752256D1*
X805855Y1756424D1*
X798443Y1761808D1*
X761916Y1761803D1*
X754487Y1756424D1*
X746308Y1752256D1*
X737578Y1749420D1*
X728511Y1747983D1*
X719331D1*
X710265Y1749420D1*
X701534Y1752256D1*
X693355Y1756424D1*
X685929Y1761819D1*
X679438Y1768310D1*
X674042Y1775737D1*
X669874Y1783916D1*
X667038Y1792647D1*
X665602Y1801713D1*
Y1810893D1*
X667038Y1819960D1*
X669874Y1828690D1*
X674042Y1836869D1*
X679438Y1844296D1*
X685929Y1850787D1*
X693355Y1856183D1*
X701534Y1860350D1*
X710265Y1863187D1*
X719331Y1864623D1*
X728511D1*
X737578Y1863187D1*
X746308Y1860350D1*
X754487Y1856183D1*
X761900Y1850798D1*
D19*
X548921Y1368803D3*
D20*
Y1468803D3*
Y1568803D3*
D19*
X498921Y693803D3*
D20*
X598921D3*
X698921D3*
D19*
X473916Y1968803D3*
D20*
X573916D3*
X673916D3*
X773916D3*
X873916D3*
X973916D3*
X1073916D3*
X1173916D3*
X1273907D3*
X1373907D3*
X1473907D3*
X1573907D3*
D19*
X698921Y493803D3*
D20*
X798921D3*
X898921D3*
D19*
Y693803D3*
D20*
X998921D3*
X1098921D3*
D19*
Y493803D3*
D20*
X1198921D3*
X1298921D3*
M02*
