M48
INCH
T01C0.0191
T02C0.0354
T03C0.1378
%
T01
X+012927Y+018126
X+011615Y+018687
X+008364Y+018063
X+007239Y+018063
X+009177Y+016063
X+009489Y+013626
X+010489Y+013626
X+011489Y+013626
X+012989Y+013313
X+011614Y+011876
X+011614Y+011001
X+011614Y+010126
X+010114Y+011876
X+009177Y+011001
X+008177Y+010438
X+007739Y+008313
X+007927Y+006813
X+010489Y+007563
X+008489Y+013626
X+007177Y+013626
T02
X+005489Y+013688
X+005489Y+014688
X+005489Y+015688
X+005739Y+019688
X+006739Y+019688
X+007739Y+019688
X+008739Y+019688
X+009739Y+019688
X+010739Y+019688
X+011739Y+019688
X+012739Y+019688
X+013739Y+019688
X+014739Y+019688
X+015739Y+019688
X+004739Y+019688
X+004989Y+006938
X+005989Y+006938
X+006989Y+006938
X+006989Y+004938
X+007989Y+004938
X+008989Y+004938
X+008989Y+006938
X+009989Y+006938
X+010989Y+006938
X+010989Y+004938
X+011989Y+004938
X+012989Y+004938
T03
X+015160Y+008271
T00
M30
