G04 DipTrace 4.0.0.2*
G04 TopMask.gbr*
%MOIN*%
G04 #@! TF.FileFunction,Soldermask,Top*
G04 #@! TF.Part,Single*
%AMOUTLINE1*
4,1,28,
-0.020061,0.029528,
0.020061,0.029528,
0.023348,0.029095,
0.026651,0.027727,
0.029487,0.02555,
0.031664,0.022714,
0.033032,0.019411,
0.033465,0.016124,
0.033465,-0.016124,
0.033032,-0.019411,
0.031664,-0.022714,
0.029487,-0.02555,
0.026651,-0.027727,
0.023348,-0.029095,
0.020061,-0.029528,
-0.020061,-0.029528,
-0.023348,-0.029095,
-0.026651,-0.027727,
-0.029487,-0.02555,
-0.031664,-0.022714,
-0.033032,-0.019411,
-0.033465,-0.016124,
-0.033465,0.016124,
-0.033032,0.019411,
-0.031664,0.022714,
-0.029487,0.02555,
-0.026651,0.027727,
-0.023348,0.029095,
-0.020061,0.029528,
0*%
%AMOUTLINE4*
4,1,28,
0.020061,-0.029528,
-0.020061,-0.029528,
-0.023348,-0.029095,
-0.026651,-0.027727,
-0.029487,-0.02555,
-0.031664,-0.022714,
-0.033032,-0.019411,
-0.033465,-0.016124,
-0.033465,0.016124,
-0.033032,0.019411,
-0.031664,0.022714,
-0.029487,0.02555,
-0.026651,0.027727,
-0.023348,0.029095,
-0.020061,0.029528,
0.020061,0.029528,
0.023348,0.029095,
0.026651,0.027727,
0.029487,0.02555,
0.031664,0.022714,
0.033032,0.019411,
0.033465,0.016124,
0.033465,-0.016124,
0.033032,-0.019411,
0.031664,-0.022714,
0.029487,-0.02555,
0.026651,-0.027727,
0.023348,-0.029095,
0.020061,-0.029528,
0*%
%AMOUTLINE7*
4,1,28,
-0.03937,-0.004195,
-0.03937,0.004195,
-0.039135,0.005984,
-0.038345,0.007891,
-0.037088,0.009529,
-0.03545,0.010786,
-0.033543,0.011576,
-0.031754,0.011811,
0.031754,0.011811,
0.033543,0.011576,
0.03545,0.010786,
0.037088,0.009529,
0.038345,0.007891,
0.039135,0.005984,
0.03937,0.004195,
0.03937,-0.004195,
0.039135,-0.005984,
0.038345,-0.007891,
0.037088,-0.009529,
0.03545,-0.010786,
0.033543,-0.011576,
0.031754,-0.011811,
-0.031754,-0.011811,
-0.033543,-0.011576,
-0.03545,-0.010786,
-0.037088,-0.009529,
-0.038345,-0.007891,
-0.039135,-0.005984,
-0.03937,-0.004195,
0*%
%ADD19C,0.057008*%
%ADD26C,0.137795*%
%ADD31R,0.059055X0.066929*%
%ADD33C,0.066929*%
%ADD35R,0.066929X0.066929*%
%ADD37C,0.053228*%
%ADD42OUTLINE1*%
%ADD45OUTLINE4*%
%ADD48OUTLINE7*%
%FSLAX26Y26*%
G04*
G70*
G90*
G75*
G01*
G04 TopMask*
%LPD*%
D37*
X1555433Y492441D3*
D35*
X548937Y1368819D3*
D33*
Y1468819D3*
Y1568819D3*
D37*
X492441Y492441D3*
X1535748Y1850709D3*
D35*
X498937Y693819D3*
D33*
X598937D3*
X698937D3*
D35*
X473932Y1968819D3*
D33*
X573932D3*
X673932D3*
X773932D3*
X873932D3*
X973932D3*
X1073932D3*
X1173932D3*
X1273923D3*
X1373923D3*
X1473923D3*
X1573923D3*
D26*
X1516063Y827087D3*
D35*
X698937Y493819D3*
D33*
X798937D3*
X898937D3*
D35*
Y693819D3*
D33*
X998937D3*
X1098937D3*
D31*
X1224035Y1012568D3*
X1298839D3*
X1224035Y1100070D3*
X1298839D3*
X1224035Y1187570D3*
X1298839D3*
X1224035Y1275068D3*
X1298839D3*
D42*
X848937Y1481220D3*
Y1406417D3*
X948937Y1481220D3*
Y1406417D3*
X1048937Y1481220D3*
Y1406417D3*
X1148937Y1481220D3*
Y1406417D3*
D45*
X773937Y881417D3*
Y956220D3*
X873937Y881417D3*
Y956220D3*
X973937Y881417D3*
Y956220D3*
X1073937Y881417D3*
Y956220D3*
D35*
X1098937Y493819D3*
D33*
X1198937D3*
X1298937D3*
D48*
X834764Y1770591D3*
Y1745000D3*
Y1719409D3*
Y1693819D3*
Y1668228D3*
Y1642638D3*
X834772Y1617047D3*
X1063110D3*
Y1642638D3*
Y1668228D3*
Y1693819D3*
Y1719409D3*
Y1745000D3*
Y1770591D3*
D31*
X1161535Y1812568D3*
X1236339D3*
D19*
X492441Y492441D3*
X1555433D3*
X1535748Y1850709D3*
M02*
