G04 DipTrace 4.0.0.2*
G04 TopPaste.gbr*
%MOIN*%
G04 #@! TF.FileFunction,Paste,Top*
G04 #@! TF.Part,Single*
%AMOUTLINE2*
4,1,28,
-0.019545,0.021651,
0.019545,0.021651,
0.021291,0.021421,
0.022678,0.020846,
0.023869,0.019932,
0.024783,0.018741,
0.025358,0.017354,
0.025588,0.015608,
0.025588,-0.015608,
0.025358,-0.017354,
0.024783,-0.018741,
0.023869,-0.019932,
0.022678,-0.020846,
0.021291,-0.021421,
0.019545,-0.021651,
-0.019545,-0.021651,
-0.021291,-0.021421,
-0.022678,-0.020846,
-0.023869,-0.019932,
-0.024783,-0.018741,
-0.025358,-0.017354,
-0.025588,-0.015608,
-0.025588,0.015608,
-0.025358,0.017354,
-0.024783,0.018741,
-0.023869,0.019932,
-0.022678,0.020846,
-0.021291,0.021421,
-0.019545,0.021651,
0*%
%AMOUTLINE5*
4,1,28,
0.019545,-0.021651,
-0.019545,-0.021651,
-0.021291,-0.021421,
-0.022678,-0.020846,
-0.023869,-0.019932,
-0.024783,-0.018741,
-0.025358,-0.017354,
-0.025588,-0.015608,
-0.025588,0.015608,
-0.025358,0.017354,
-0.024783,0.018741,
-0.023869,0.019932,
-0.022678,0.020846,
-0.021291,0.021421,
-0.019545,0.021651,
0.019545,0.021651,
0.021291,0.021421,
0.022678,0.020846,
0.023869,0.019932,
0.024783,0.018741,
0.025358,0.017354,
0.025588,0.015608,
0.025588,-0.015608,
0.025358,-0.017354,
0.024783,-0.018741,
0.023869,-0.019932,
0.022678,-0.020846,
0.021291,-0.021421,
0.019545,-0.021651,
0*%
%AMOUTLINE8*
4,1,12,
-0.031493,-0.003679,
-0.031493,0.003679,
-0.031463,0.003904,
-0.031238,0.003934,
0.031238,0.003934,
0.031463,0.003904,
0.031493,0.003679,
0.031493,-0.003679,
0.031463,-0.003904,
0.031238,-0.003934,
-0.031238,-0.003934,
-0.031463,-0.003904,
-0.031493,-0.003679,
0*%
%ADD30R,0.043301X0.051175*%
%ADD39OUTLINE2*%
%ADD42OUTLINE5*%
%ADD45OUTLINE8*%
%FSLAX26Y26*%
G04*
G70*
G90*
G75*
G01*
G04 TopPaste*
%LPD*%
D30*
X1224020Y1012552D3*
X1298823D3*
X1224020Y1100054D3*
X1298823D3*
X1224020Y1187554D3*
X1298823D3*
X1224020Y1275052D3*
X1298823D3*
D39*
X848921Y1481205D3*
Y1406402D3*
X948921Y1481205D3*
Y1406402D3*
X1048921Y1481205D3*
Y1406402D3*
X1148921Y1481205D3*
Y1406402D3*
D42*
X773921Y881402D3*
Y956205D3*
X873921Y881402D3*
Y956205D3*
X973921Y881402D3*
Y956205D3*
X1073921Y881402D3*
Y956205D3*
D45*
X834748Y1770575D3*
Y1744984D3*
Y1719394D3*
Y1693803D3*
Y1668213D3*
Y1642622D3*
X834756Y1617031D3*
X1063094D3*
Y1642622D3*
Y1668213D3*
Y1693803D3*
Y1719394D3*
Y1744984D3*
Y1770575D3*
D30*
X1161520Y1812552D3*
X1236323D3*
M02*
