G04 DipTrace 4.0.0.2*
G04 TopSilk.gbr*
%MOIN*%
G04 #@! TF.FileFunction,Legend,Top*
G04 #@! TF.Part,Single*
%ADD10C,0.009843*%
%ADD16C,0.015*%
%ADD35C,0.006176*%
%FSLAX26Y26*%
G04*
G70*
G90*
G75*
G01*
G04 TopSilk*
%LPD*%
X598921Y1318803D2*
D10*
X498921D1*
Y1618803D1*
X598921D2*
X498921D1*
X598921Y1318803D2*
Y1618803D1*
X448921Y643803D2*
Y743803D1*
X748921D1*
Y643803D2*
Y743803D1*
X448921Y643803D2*
X748921D1*
X394000Y2047543D2*
Y394000D1*
X1653843D1*
Y2047543D1*
X394000D1*
X648921Y443803D2*
Y543803D1*
X948921D1*
Y443803D2*
Y543803D1*
X648921Y443803D2*
X948921D1*
X848921Y643803D2*
Y743803D1*
X1148921D1*
Y643803D2*
Y743803D1*
X848921Y643803D2*
X1148921D1*
X1048921Y443803D2*
Y543803D1*
X1348921D1*
Y443803D2*
Y543803D1*
X1048921Y443803D2*
X1348921D1*
X885937Y1792230D2*
Y1595377D1*
X1011906Y1792230D2*
Y1595377D1*
X885937D2*
X1011906D1*
X885937Y1792230D2*
X929234D1*
X968609D2*
X1011906D1*
X929234D2*
G03X968609Y1792230I19688J1D01*
G01*
X623921Y1487554D2*
D16*
Y1581303D1*
Y1362554D2*
Y1456303D1*
G36*
X1469951Y1787550D2*
X1469735Y1786754D1*
X1469295Y1786238D1*
X1467982Y1783613D1*
X1467326Y1779676D1*
Y1777052D1*
X1467982Y1773115D1*
X1468638Y1771146D1*
X1469951Y1768521D1*
X1475200Y1763272D1*
X1479137Y1761304D1*
X1481762Y1760647D1*
X1485043Y1759991D1*
X1492261D1*
X1495541Y1760647D1*
X1497510Y1761304D1*
X1501447Y1763272D1*
X1506040Y1767865D1*
X1507352Y1770490D1*
X1508665Y1774427D1*
Y1784270D1*
X1508009Y1786894D1*
X1506696Y1790831D1*
X1506040Y1792144D1*
X1505384Y1792800D1*
X1499478D1*
Y1792144D1*
X1500791Y1790175D1*
X1501447Y1788863D1*
X1502759Y1784926D1*
X1503415Y1784270D1*
Y1775739D1*
X1502759Y1775083D1*
X1502103Y1773115D1*
Y1772458D1*
X1498166Y1768521D1*
X1496854Y1767865D1*
X1494885Y1767209D1*
X1492698Y1766553D1*
X1490511D1*
X1488324Y1767209D1*
Y1794112D1*
X1485699D1*
X1479137Y1793456D1*
X1477169Y1792800D1*
X1473232Y1790831D1*
X1469951Y1787550D1*
X1482418D1*
X1482908Y1787972D1*
X1483248Y1787933D1*
X1483730Y1787550D1*
Y1767209D1*
X1482418Y1766553D1*
X1481106D1*
X1475856Y1769178D1*
X1473888Y1771146D1*
Y1771802D1*
X1473232Y1773115D1*
X1472575Y1775083D1*
X1471919Y1775739D1*
Y1779676D1*
X1472575Y1780332D1*
X1473888Y1783613D1*
X1474015Y1784078D1*
X1474544Y1784926D1*
X1475856Y1785582D1*
X1476512Y1786238D1*
X1478481Y1786894D1*
X1482418Y1787550D1*
X1469951D1*
G37*
G36*
X1453547Y1752773D2*
Y1746868D1*
X1508009D1*
Y1752773D1*
X1453547D1*
G37*
G36*
X1469295Y1736369D2*
X1468638Y1735713D1*
Y1730464D1*
X1469295Y1729808D1*
X1499478Y1729151D1*
X1500791Y1727839D1*
Y1727183D1*
X1502759Y1723246D1*
X1503415Y1722590D1*
Y1716028D1*
X1502759Y1715372D1*
Y1714716D1*
X1501447Y1713403D1*
X1500135Y1712747D1*
X1497510Y1712091D1*
X1468638Y1711435D1*
Y1705529D1*
X1498822D1*
X1501447Y1706186D1*
X1505384Y1708154D1*
X1507352Y1710123D1*
X1508665Y1712091D1*
X1509321Y1714060D1*
Y1721277D1*
X1508665Y1723246D1*
X1508009Y1724558D1*
X1506696Y1726527D1*
X1504728Y1728495D1*
Y1729151D1*
X1508009Y1729808D1*
Y1736369D1*
X1469295D1*
G37*
G36*
X1469951Y1689125D2*
X1469735Y1688329D1*
X1469295Y1687813D1*
X1468638Y1686500D1*
X1467982Y1684532D1*
X1467326Y1680595D1*
Y1678626D1*
X1467982Y1675346D1*
X1468638Y1673377D1*
X1469295Y1672065D1*
X1470607Y1670096D1*
X1473232Y1667472D1*
X1475200Y1666159D1*
X1477825Y1664847D1*
X1481762Y1663535D1*
X1485043Y1662878D1*
X1492917D1*
X1496854Y1663535D1*
X1500791Y1664847D1*
X1503415Y1666159D1*
X1506040Y1668128D1*
X1508009Y1670752D1*
X1508665Y1672065D1*
X1509321Y1674033D1*
Y1681251D1*
X1508665Y1683220D1*
X1507352Y1685844D1*
X1504728Y1688469D1*
Y1689125D1*
X1508009Y1689781D1*
Y1695687D1*
X1452890D1*
Y1689781D1*
X1469951Y1689125D1*
X1475200D1*
X1483293Y1689781D1*
X1491386D1*
X1499478Y1689125D1*
X1500791Y1687813D1*
Y1687157D1*
X1502103Y1685188D1*
X1502759Y1683220D1*
X1503415Y1682563D1*
Y1676002D1*
X1502759Y1675346D1*
X1502103Y1674033D1*
X1501887Y1673237D1*
X1501447Y1672721D1*
X1500135Y1672065D1*
X1499478Y1671409D1*
X1495541Y1670096D1*
X1490948Y1669440D1*
X1486355D1*
X1481762Y1670096D1*
X1479793Y1670752D1*
X1477169Y1672065D1*
X1473888Y1675346D1*
Y1676002D1*
X1473232Y1677970D1*
X1472575Y1678626D1*
Y1682563D1*
X1473232Y1683220D1*
X1473888Y1686500D1*
X1475200Y1689125D1*
X1469951D1*
G37*
G36*
X1378087Y1656317D2*
X1377872Y1655521D1*
X1377431Y1655004D1*
X1376775Y1653692D1*
X1376119Y1651724D1*
X1375463Y1647787D1*
Y1645818D1*
X1376119Y1642537D1*
X1376775Y1640569D1*
X1377431Y1639256D1*
X1378743Y1637288D1*
X1381368Y1634663D1*
X1383337Y1633351D1*
X1385961Y1632039D1*
X1389898Y1630726D1*
X1393179Y1630070D1*
X1401053D1*
X1404990Y1630726D1*
X1408927Y1632039D1*
X1411552Y1633351D1*
X1414177Y1635319D1*
X1416145Y1637944D1*
X1416801Y1639256D1*
X1417457Y1641225D1*
Y1648443D1*
X1416801Y1650411D1*
X1415489Y1653036D1*
X1412864Y1655661D1*
Y1656317D1*
X1416145Y1656973D1*
Y1662878D1*
X1361027D1*
Y1656973D1*
X1378087Y1656317D1*
X1383337D1*
X1391429Y1656973D1*
X1399522D1*
X1407615Y1656317D1*
X1408927Y1655004D1*
Y1654348D1*
X1410240Y1652380D1*
X1410896Y1650411D1*
X1411552Y1649755D1*
Y1643193D1*
X1410896Y1642537D1*
X1410240Y1641225D1*
X1410024Y1640429D1*
X1409583Y1639913D1*
X1408271Y1639256D1*
X1407615Y1638600D1*
X1403678Y1637288D1*
X1399085Y1636632D1*
X1394491D1*
X1389898Y1637288D1*
X1387930Y1637944D1*
X1385305Y1639256D1*
X1382024Y1642537D1*
Y1643193D1*
X1381368Y1645162D1*
X1380712Y1645818D1*
Y1649755D1*
X1381368Y1650411D1*
X1382024Y1653692D1*
X1383337Y1656317D1*
X1378087D1*
G37*
G36*
X1471263Y1651724D2*
X1469951Y1650411D1*
X1468638Y1647787D1*
X1467982Y1645818D1*
X1467326Y1642537D1*
Y1639913D1*
X1467982Y1635976D1*
X1468638Y1634007D1*
X1469295Y1632695D1*
X1470607Y1630726D1*
X1473888Y1627445D1*
X1475856Y1626133D1*
X1477169Y1625477D1*
X1481106Y1624165D1*
X1485043Y1623508D1*
X1492261D1*
X1496198Y1624165D1*
X1498166Y1624821D1*
X1502103Y1626789D1*
X1504072Y1628102D1*
X1506040Y1630070D1*
X1507352Y1632039D1*
X1508665Y1634663D1*
X1509321Y1636632D1*
Y1645162D1*
X1508009Y1649099D1*
X1506696Y1651067D1*
X1502759Y1655004D1*
X1498822Y1656973D1*
X1496854Y1657629D1*
X1493573Y1658285D1*
X1483730D1*
X1480449Y1657629D1*
X1478481Y1656973D1*
X1474544Y1655004D1*
X1471263Y1651724D1*
X1485699D1*
X1487667Y1652380D1*
X1489636D1*
X1491604Y1651724D1*
X1496198Y1651067D1*
X1498166Y1650411D1*
X1499478Y1649755D1*
X1500135Y1649099D1*
X1501447Y1648443D1*
X1501975Y1647596D1*
X1502103Y1647130D1*
X1503415Y1645162D1*
X1504072Y1644506D1*
Y1637944D1*
X1503415Y1637288D1*
Y1635976D1*
X1500135Y1632695D1*
X1497510Y1631382D1*
X1494885Y1630726D1*
X1490511Y1630070D1*
X1486136D1*
X1481762Y1630726D1*
X1477825Y1632039D1*
X1477169Y1632695D1*
X1475856Y1633351D1*
X1474544Y1634663D1*
Y1635319D1*
X1473888Y1636632D1*
X1473232Y1638600D1*
X1472575Y1639256D1*
Y1642537D1*
X1473232Y1643193D1*
X1473888Y1645818D1*
Y1646474D1*
X1476512Y1649099D1*
X1479137Y1650411D1*
X1481106Y1651067D1*
X1485699Y1651724D1*
X1471263D1*
G37*
G36*
X1550003Y1644506D2*
X1548691Y1643193D1*
X1548035Y1641881D1*
X1547379Y1639913D1*
X1546722Y1636632D1*
Y1634007D1*
X1547379Y1630070D1*
X1549347Y1626133D1*
X1551972Y1623508D1*
X1553940Y1622196D1*
X1556565Y1620884D1*
X1558533Y1620228D1*
X1561158Y1619571D1*
X1564439Y1618915D1*
X1584124D1*
X1587405Y1619571D1*
X1590030Y1620228D1*
X1591998Y1620884D1*
X1595935Y1622852D1*
X1597904Y1624165D1*
X1598560Y1624821D1*
X1599872Y1626789D1*
X1601184Y1629414D1*
X1601841Y1631382D1*
Y1639256D1*
X1601184Y1641225D1*
X1599872Y1643850D1*
X1596591Y1647130D1*
X1594623Y1648443D1*
X1593310Y1649099D1*
X1589373Y1650411D1*
X1586749Y1651067D1*
X1582156Y1651724D1*
X1567064D1*
X1562470Y1651067D1*
X1559846Y1650411D1*
X1555909Y1649099D1*
X1553284Y1647787D1*
X1550003Y1644506D1*
X1564439D1*
X1571001Y1645162D1*
X1577562D1*
X1584124Y1644506D1*
X1588717Y1643850D1*
X1592654Y1642537D1*
X1593310Y1641881D1*
X1594623Y1641225D1*
X1595151Y1640378D1*
X1595279Y1639913D1*
X1595935Y1638600D1*
X1596591Y1637944D1*
Y1632039D1*
X1595935Y1631382D1*
Y1630726D1*
X1593967Y1628758D1*
X1590030Y1626789D1*
X1586749Y1626133D1*
X1578656Y1625477D1*
X1570563D1*
X1562470Y1626133D1*
X1559190Y1626789D1*
X1557221Y1627445D1*
X1555909Y1628102D1*
X1552628Y1631382D1*
Y1632695D1*
X1551972Y1633351D1*
Y1636632D1*
X1552628Y1637288D1*
X1553284Y1639256D1*
Y1639913D1*
X1555253Y1641881D1*
X1556565Y1642537D1*
X1560502Y1643850D1*
X1564439Y1644506D1*
X1550003D1*
G37*
G36*
X1390554Y1616291D2*
X1391211Y1615634D1*
Y1608416D1*
X1391867Y1604479D1*
X1392523Y1601855D1*
X1393179Y1599886D1*
X1394491Y1597262D1*
X1397772Y1593981D1*
X1400397Y1592668D1*
X1403022Y1592012D1*
X1407615D1*
X1411552Y1593325D1*
X1413520Y1594637D1*
X1415489Y1596605D1*
X1417457Y1600542D1*
Y1608416D1*
X1414833Y1613666D1*
X1412864Y1615634D1*
Y1616291D1*
X1416145Y1616947D1*
Y1622852D1*
X1384649D1*
X1382680Y1622196D1*
X1381368Y1621540D1*
X1378087Y1618259D1*
X1376775Y1615634D1*
X1376119Y1613666D1*
X1375463Y1609073D1*
Y1605792D1*
X1376119Y1600542D1*
X1376775Y1597262D1*
X1377431Y1595293D1*
X1383337D1*
Y1596605D1*
X1382024Y1600542D1*
X1381368Y1604479D1*
X1380712Y1605136D1*
Y1609729D1*
X1381368Y1610385D1*
X1382024Y1613010D1*
Y1613666D1*
X1383993Y1615634D1*
X1385305Y1616291D1*
X1387055Y1616947D1*
X1388805D1*
X1390554Y1616291D1*
X1395148D1*
X1399303Y1616947D1*
X1403459D1*
X1407615Y1616291D1*
X1410240Y1613666D1*
Y1613010D1*
X1411552Y1610385D1*
X1412208Y1609729D1*
Y1603167D1*
X1411552Y1602511D1*
X1411224Y1601855D1*
X1410837Y1601169D1*
X1410235Y1600540D1*
X1408927Y1599230D1*
X1406303Y1598574D1*
X1403678D1*
X1401053Y1599230D1*
X1397772Y1602511D1*
Y1603167D1*
X1397116Y1605136D1*
X1396460Y1608416D1*
X1395804Y1614978D1*
X1395148Y1616291D1*
X1390554D1*
G37*
G36*
X1455515Y1614978D2*
Y1606448D1*
X1456171Y1605792D1*
X1460108Y1603823D1*
X1483074Y1593981D1*
X1485043Y1593325D1*
Y1592668D1*
X1483074Y1592012D1*
X1459452Y1581514D1*
X1455515Y1579545D1*
Y1570359D1*
X1508009D1*
Y1576264D1*
X1462733Y1576920D1*
X1464045Y1577577D1*
X1466014Y1578233D1*
X1470607Y1580201D1*
X1476512Y1582826D1*
X1481106Y1584794D1*
X1487011Y1587419D1*
X1491604Y1589388D1*
X1492917Y1590044D1*
X1493573Y1590700D1*
Y1594637D1*
X1489636Y1596605D1*
X1477825Y1601855D1*
X1473232Y1603823D1*
X1467326Y1606448D1*
X1465358Y1607104D1*
X1462733Y1608416D1*
X1508009Y1609073D1*
Y1614978D1*
X1455515D1*
G37*
G36*
X1591342Y1607760D2*
Y1600542D1*
X1591998Y1599886D1*
X1600528D1*
Y1607760D1*
X1591342D1*
G37*
G36*
X1596591Y1586763D2*
X1595935Y1586107D1*
Y1577577D1*
X1548035Y1576920D1*
Y1572327D1*
X1551972Y1571015D1*
X1554596Y1568390D1*
Y1567078D1*
X1555253Y1561172D1*
X1559190D1*
Y1570359D1*
X1571438Y1571015D1*
X1583687D1*
X1595935Y1570359D1*
Y1561172D1*
X1600528D1*
Y1586763D1*
X1596591D1*
G37*
G36*
X1377431Y1584794D2*
X1376775Y1584138D1*
Y1578889D1*
X1377431Y1578233D1*
X1407615Y1577577D1*
X1408927Y1576264D1*
Y1575608D1*
X1410896Y1571671D1*
X1411552Y1571015D1*
Y1564453D1*
X1410896Y1563797D1*
Y1563141D1*
X1409583Y1561829D1*
X1408271Y1561172D1*
X1405646Y1560516D1*
X1376775Y1559860D1*
Y1553955D1*
X1406959D1*
X1409583Y1554611D1*
X1413520Y1556579D1*
X1415489Y1558548D1*
X1416801Y1560516D1*
X1417457Y1562485D1*
Y1569703D1*
X1416801Y1571671D1*
X1416145Y1572983D1*
X1414833Y1574952D1*
X1412864Y1576920D1*
Y1577577D1*
X1416145Y1578233D1*
Y1584794D1*
X1377431D1*
G37*
G36*
X1548035Y1552642D2*
Y1546737D1*
X1548691Y1546081D1*
X1591998Y1531645D1*
X1590686Y1530989D1*
X1561158Y1521146D1*
X1558533Y1520490D1*
X1548691Y1517209D1*
X1548035Y1516553D1*
Y1509991D1*
X1549347D1*
X1557221Y1512616D1*
X1580187Y1520490D1*
X1599216Y1527052D1*
X1600528Y1527708D1*
Y1534926D1*
X1597904Y1536238D1*
X1551972Y1551986D1*
X1550003Y1552642D1*
X1548035D1*
G37*
G36*
X1368901Y1538863D2*
X1366276Y1536238D1*
X1364964Y1534270D1*
X1364308Y1532957D1*
X1362995Y1529020D1*
X1362339Y1524427D1*
Y1521146D1*
X1362995Y1517209D1*
X1363652Y1514584D1*
X1365620Y1510647D1*
X1366932Y1508679D1*
X1370213Y1505398D1*
X1372182Y1504086D1*
X1376119Y1502117D1*
X1380056Y1500805D1*
X1383337Y1500149D1*
X1397116D1*
X1400397Y1500805D1*
X1404334Y1502117D1*
X1408271Y1504086D1*
X1411552Y1506710D1*
X1412208Y1507367D1*
X1414177Y1509991D1*
X1415489Y1511960D1*
X1416145Y1513928D1*
X1416801Y1515241D1*
X1417457Y1517865D1*
Y1524427D1*
X1420738Y1525083D1*
X1422707Y1525739D1*
X1425331Y1527052D1*
X1427956Y1529676D1*
X1429268Y1532301D1*
X1429925Y1534270D1*
Y1544112D1*
X1429268Y1546081D1*
X1423363D1*
X1424019Y1543456D1*
X1424675Y1542800D1*
Y1535582D1*
X1423363Y1534270D1*
Y1533613D1*
X1420738Y1532301D1*
X1418770Y1531645D1*
X1417895Y1530989D1*
X1417020D1*
X1416145Y1531645D1*
X1415489Y1532301D1*
Y1533613D1*
X1414177Y1535582D1*
X1413520Y1536894D1*
X1410240Y1540175D1*
X1407615Y1542144D1*
X1403678Y1544112D1*
X1401709Y1544768D1*
X1399085Y1545424D1*
X1395148Y1546081D1*
X1385305D1*
X1381368Y1545424D1*
X1378743Y1544768D1*
X1376775Y1544112D1*
X1371526Y1541487D1*
X1368901Y1538863D1*
X1385305D1*
X1388586Y1539519D1*
X1391867D1*
X1395148Y1538863D1*
X1399085Y1538207D1*
X1403022Y1536894D1*
X1405646Y1535582D1*
X1406303Y1534926D1*
X1407615Y1534270D1*
X1409583Y1532301D1*
Y1531645D1*
X1410896Y1529676D1*
X1411552Y1527708D1*
X1412208Y1527052D1*
Y1518521D1*
X1411552Y1517865D1*
X1410240Y1515241D1*
Y1514584D1*
X1406959Y1511304D1*
X1405646Y1510647D1*
X1404990Y1509991D1*
X1402366Y1508679D1*
X1400397Y1508023D1*
X1397116Y1507367D1*
X1392523Y1506710D1*
X1387930D1*
X1383337Y1507367D1*
X1380056Y1508023D1*
X1378087Y1508679D1*
X1374150Y1510647D1*
X1373494Y1511304D1*
X1372182Y1511960D1*
X1370869Y1513272D1*
Y1513928D1*
X1369557Y1515897D1*
X1368901Y1517209D1*
X1368245Y1519834D1*
X1367589Y1520490D1*
Y1525083D1*
X1368245Y1525739D1*
X1368901Y1528364D1*
X1369557Y1530332D1*
Y1530989D1*
X1373494Y1534926D1*
X1378743Y1537550D1*
X1381368Y1538207D1*
X1385305Y1538863D1*
X1368901D1*
G37*
G36*
X1468638Y1541487D2*
Y1529676D1*
X1457484Y1529020D1*
Y1523115D1*
X1468638Y1522458D1*
Y1518521D1*
X1473888D1*
Y1522458D1*
X1500135Y1523115D1*
X1504072Y1524427D1*
X1507352Y1527708D1*
X1508009Y1529020D1*
X1508665Y1530989D1*
Y1538863D1*
X1508009Y1541487D1*
X1502103D1*
X1502759Y1540175D1*
X1503415Y1539519D1*
Y1532957D1*
X1502759Y1532301D1*
X1502544Y1531505D1*
X1502103Y1530989D1*
X1500791Y1530332D1*
X1498822Y1529676D1*
X1490511Y1529020D1*
X1482199D1*
X1473888Y1529676D1*
Y1541487D1*
X1468638D1*
G37*
G36*
X1469295Y1512616D2*
X1468638Y1511960D1*
Y1506710D1*
X1469295Y1506054D1*
X1499478Y1505398D1*
X1500791Y1504086D1*
Y1503430D1*
X1502759Y1499493D1*
X1503415Y1498836D1*
Y1492275D1*
X1502759Y1491619D1*
Y1490962D1*
X1501447Y1489650D1*
X1500135Y1488994D1*
X1497510Y1488338D1*
X1468638Y1487682D1*
Y1481776D1*
X1498822D1*
X1501447Y1482432D1*
X1505384Y1484401D1*
X1507352Y1486369D1*
X1508665Y1488338D1*
X1509321Y1490306D1*
Y1497524D1*
X1508665Y1499493D1*
X1508009Y1500805D1*
X1506696Y1502773D1*
X1504728Y1504742D1*
Y1505398D1*
X1508009Y1506054D1*
Y1512616D1*
X1469295D1*
G37*
G36*
X1469951Y1467997D2*
X1469295Y1467340D1*
X1467982Y1464716D1*
X1467326Y1461435D1*
Y1459466D1*
X1467982Y1456186D1*
X1470607Y1450936D1*
X1472575Y1448968D1*
X1469295Y1448312D1*
X1468638Y1447655D1*
Y1442406D1*
X1469295Y1441750D1*
X1522444D1*
Y1448312D1*
X1506696Y1448968D1*
X1506824Y1449433D1*
X1507352Y1450280D1*
X1508665Y1454217D1*
Y1462091D1*
X1508009Y1464060D1*
X1507352Y1465372D1*
X1506040Y1467340D1*
X1502759Y1470621D1*
X1500791Y1471934D1*
X1499478Y1472590D1*
X1495541Y1473902D1*
X1492917Y1474558D1*
X1481762D1*
X1479137Y1473902D1*
X1475200Y1472590D1*
X1473888Y1471934D1*
X1471263Y1469965D1*
X1469951Y1468653D1*
Y1467997D1*
X1484386D1*
X1487011Y1468653D1*
X1489636D1*
X1492261Y1467997D1*
X1495541Y1467340D1*
X1497510Y1466684D1*
X1498822Y1466028D1*
X1499478Y1465372D1*
X1500791Y1464716D1*
X1501319Y1463869D1*
X1501447Y1463403D1*
X1502759Y1461435D1*
X1503415Y1460779D1*
Y1452905D1*
X1502759Y1452249D1*
X1502103Y1450280D1*
X1501887Y1449484D1*
X1501447Y1448968D1*
X1493354Y1448312D1*
X1485261D1*
X1477169Y1448968D1*
Y1449624D1*
X1475856Y1451592D1*
X1474544Y1454217D1*
X1473888Y1456842D1*
X1473232Y1457498D1*
Y1460779D1*
X1473888Y1461435D1*
X1475200Y1464060D1*
X1477169Y1466028D1*
X1478481Y1466684D1*
X1480449Y1467340D1*
X1484386Y1467997D1*
X1469951D1*
G37*
G36*
X1479137Y1431907D2*
X1475856Y1431251D1*
X1473888Y1430595D1*
X1471919Y1429283D1*
X1469295Y1426658D1*
X1467982Y1424033D1*
X1467326Y1420752D1*
Y1418784D1*
X1467982Y1415503D1*
X1469951Y1411566D1*
X1471263Y1409598D1*
X1472575Y1408285D1*
X1469295Y1407629D1*
X1468638Y1406973D1*
Y1401724D1*
X1469295Y1401067D1*
X1508009D1*
Y1407629D1*
X1477825Y1408285D1*
X1476512Y1409598D1*
Y1410254D1*
X1475200Y1412222D1*
X1474544Y1413535D1*
X1473888Y1416159D1*
X1473232Y1416815D1*
Y1420096D1*
X1473888Y1420752D1*
Y1422065D1*
X1475856Y1424033D1*
X1477169Y1424689D1*
X1481106Y1425346D1*
X1508009Y1426002D1*
Y1431907D1*
X1479137D1*
G37*
G36*
X1455515Y1392537D2*
Y1372852D1*
X1460108D1*
Y1378758D1*
X1474544Y1379414D1*
X1488980D1*
X1503415Y1378758D1*
Y1372852D1*
X1508009D1*
Y1392537D1*
X1503415D1*
Y1386632D1*
X1488980Y1385976D1*
X1474544D1*
X1460108Y1386632D1*
Y1392537D1*
X1455515D1*
G37*
G36*
X645148Y1571015D2*
Y1565109D1*
X645804Y1564453D1*
X689111Y1550018D1*
X687799Y1549361D1*
X658271Y1539519D1*
X655646Y1538863D1*
X645804Y1535582D1*
X645148Y1534926D1*
Y1528364D1*
X646460D1*
X654334Y1530989D1*
X677300Y1538863D1*
X696329Y1545424D1*
X697641Y1546081D1*
Y1553298D1*
X695016Y1554611D1*
X649085Y1570359D1*
X647116Y1571015D1*
X645148D1*
G37*
G36*
X678612Y1523771D2*
X675331Y1523115D1*
X671394Y1521146D1*
X668770Y1518521D1*
X666801Y1514584D1*
X666145Y1512616D1*
X665489Y1508023D1*
Y1504742D1*
X666145Y1504086D1*
Y1502117D1*
X660896Y1501461D1*
X655646D1*
X650397Y1502117D1*
Y1523115D1*
X645148D1*
Y1494899D1*
X672051D1*
Y1496868D1*
X671394Y1501461D1*
X670738Y1502117D1*
Y1507367D1*
X671394Y1508023D1*
X672051Y1511304D1*
X672707Y1512616D1*
Y1513272D1*
X674019Y1514584D1*
X675331Y1515241D1*
X678612Y1516553D1*
X680799Y1517209D1*
X682987D1*
X685174Y1516553D1*
X689111Y1515241D1*
X689767Y1514584D1*
X691079Y1513928D1*
X691608Y1513081D1*
X691736Y1512616D1*
X693048Y1510647D1*
X693704Y1509991D1*
Y1502117D1*
X693048Y1501461D1*
X691736Y1497524D1*
X690423Y1494899D1*
X689111Y1492931D1*
X696329D1*
X697641Y1495556D1*
X698953Y1500805D1*
Y1510647D1*
X697641Y1514584D1*
X696985Y1515897D1*
X695016Y1518521D1*
X694360Y1519178D1*
X691736Y1521146D1*
X689111Y1522458D1*
X687142Y1523115D1*
X683862Y1523771D1*
X678612D1*
G37*
G36*
X645148Y1450280D2*
Y1441750D1*
X645804Y1441094D1*
X649741Y1439125D1*
X672707Y1429283D1*
X674675Y1428626D1*
Y1427970D1*
X672707Y1427314D1*
X649085Y1416815D1*
X645148Y1414847D1*
Y1405661D1*
X697641D1*
Y1411566D1*
X652366Y1412222D1*
X653678Y1412878D1*
X655646Y1413535D1*
X660240Y1415503D1*
X666145Y1418128D1*
X670738Y1420096D1*
X676644Y1422721D1*
X681237Y1424689D1*
X682549Y1425346D1*
X683205Y1426002D1*
Y1429939D1*
X679268Y1431907D1*
X667457Y1437157D1*
X662864Y1439125D1*
X656959Y1441750D1*
X654990Y1442406D1*
X652366Y1443718D1*
X697641Y1444374D1*
Y1450280D1*
X645148D1*
G37*
G36*
Y1399755D2*
Y1393850D1*
X645804Y1393193D1*
X689111Y1378758D1*
X687799Y1378102D1*
X658271Y1368259D1*
X655646Y1367603D1*
X645804Y1364322D1*
X645148Y1363666D1*
Y1357104D1*
X646460D1*
X654334Y1359729D1*
X677300Y1367603D1*
X696329Y1374165D1*
X697641Y1374821D1*
Y1382039D1*
X695016Y1383351D1*
X649085Y1399099D1*
X647116Y1399755D1*
X645148D1*
G37*
X534093Y1235330D2*
D35*
X564691D1*
X570439Y1233428D1*
X572340Y1231483D1*
X574285Y1227680D1*
Y1223834D1*
X572340Y1220031D1*
X570439Y1218130D1*
X564691Y1216184D1*
X560888D1*
X555140Y1247681D2*
Y1264925D1*
X553239Y1270629D1*
X551293Y1272575D1*
X547491Y1274476D1*
X541743D1*
X537940Y1272575D1*
X535995Y1270629D1*
X534093Y1264925D1*
Y1247681D1*
X574285D1*
X541787Y1286827D2*
X539841Y1290674D1*
X534138Y1296422D1*
X574285D1*
X597521Y802382D2*
Y771784D1*
X595620Y766036D1*
X593674Y764135D1*
X589872Y762190D1*
X586025D1*
X582222Y764135D1*
X580321Y766036D1*
X578375Y771784D1*
Y775587D1*
X609872Y794688D2*
X613719Y796634D1*
X619467Y802337D1*
Y762190D1*
X987199Y2065930D2*
Y2106122D1*
X971901Y2065930D1*
X956602Y2106122D1*
Y2065930D1*
X1011047Y2106122D2*
X1007200Y2104220D1*
X1003398Y2100374D1*
X1001452Y2096571D1*
X999551Y2090823D1*
Y2081228D1*
X1001452Y2075525D1*
X1003398Y2071678D1*
X1007200Y2067875D1*
X1011047Y2065930D1*
X1018696D1*
X1022499Y2067875D1*
X1026346Y2071678D1*
X1028247Y2075525D1*
X1030148Y2081228D1*
Y2090823D1*
X1028247Y2096571D1*
X1026346Y2100374D1*
X1022499Y2104220D1*
X1018696Y2106122D1*
X1011047D1*
X1042499D2*
Y2065930D1*
X1055897D1*
X1061645Y2067875D1*
X1065492Y2071678D1*
X1067393Y2075525D1*
X1069294Y2081228D1*
Y2090823D1*
X1067393Y2096571D1*
X1065492Y2100374D1*
X1061645Y2104220D1*
X1055897Y2106122D1*
X1042499D1*
X1081646Y2098428D2*
X1085492Y2100374D1*
X1091240Y2106078D1*
Y2065930D1*
X788921Y602382D2*
Y571784D1*
X787020Y566036D1*
X785074Y564135D1*
X781272Y562190D1*
X777425D1*
X773622Y564135D1*
X771721Y566036D1*
X769776Y571784D1*
Y575587D1*
X803218Y592787D2*
Y594688D1*
X805119Y598535D1*
X807020Y600436D1*
X810867Y602337D1*
X818516D1*
X822319Y600436D1*
X824220Y598535D1*
X826166Y594688D1*
Y590886D1*
X824220Y587039D1*
X820418Y581335D1*
X801272Y562190D1*
X828067D1*
X988921Y802382D2*
Y771784D1*
X987020Y766036D1*
X985074Y764135D1*
X981272Y762190D1*
X977425D1*
X973622Y764135D1*
X971721Y766036D1*
X969776Y771784D1*
Y775587D1*
X1005119Y802337D2*
X1026121D1*
X1014670Y787039D1*
X1020418D1*
X1024220Y785138D1*
X1026121Y783236D1*
X1028067Y777488D1*
Y773686D1*
X1026121Y767938D1*
X1022319Y764091D1*
X1016571Y762190D1*
X1010823D1*
X1005119Y764091D1*
X1003218Y766036D1*
X1001272Y769839D1*
X1364796Y1028608D2*
X1362895Y1032410D1*
X1359048Y1036257D1*
X1355246Y1038159D1*
X1347596D1*
X1343749Y1036257D1*
X1339947Y1032410D1*
X1338001Y1028608D1*
X1336100Y1022860D1*
Y1013265D1*
X1338001Y1007561D1*
X1339947Y1003715D1*
X1343749Y999912D1*
X1347596Y997967D1*
X1355246D1*
X1359048Y999912D1*
X1362895Y1003715D1*
X1364796Y1007561D1*
X1377148Y1030465D2*
X1380994Y1032410D1*
X1386742Y1038114D1*
Y997967D1*
X1368696Y1116109D2*
X1366795Y1119912D1*
X1362948Y1123759D1*
X1359146Y1125660D1*
X1351496D1*
X1347650Y1123759D1*
X1343847Y1119912D1*
X1341902Y1116109D1*
X1340000Y1110361D1*
Y1100766D1*
X1341902Y1095063D1*
X1343847Y1091216D1*
X1347650Y1087413D1*
X1351496Y1085468D1*
X1359146D1*
X1362948Y1087413D1*
X1366795Y1091216D1*
X1368696Y1095063D1*
X1382993Y1116065D2*
Y1117966D1*
X1384894Y1121813D1*
X1386796Y1123714D1*
X1390642Y1125616D1*
X1398292D1*
X1402094Y1123714D1*
X1403996Y1121813D1*
X1405941Y1117966D1*
Y1114164D1*
X1403996Y1110317D1*
X1400193Y1104613D1*
X1381048Y1085468D1*
X1407842D1*
X1368696Y1203609D2*
X1366795Y1207412D1*
X1362948Y1211259D1*
X1359146Y1213160D1*
X1351496D1*
X1347650Y1211259D1*
X1343847Y1207412D1*
X1341902Y1203609D1*
X1340000Y1197861D1*
Y1188266D1*
X1341902Y1182563D1*
X1343847Y1178716D1*
X1347650Y1174913D1*
X1351496Y1172968D1*
X1359146D1*
X1362948Y1174913D1*
X1366795Y1178716D1*
X1368696Y1182563D1*
X1384894Y1213116D2*
X1405897D1*
X1394445Y1197817D1*
X1400193D1*
X1403996Y1195916D1*
X1405897Y1194014D1*
X1407842Y1188266D1*
Y1184464D1*
X1405897Y1178716D1*
X1402094Y1174869D1*
X1396346Y1172968D1*
X1390598D1*
X1384894Y1174869D1*
X1382993Y1176815D1*
X1381048Y1180617D1*
X1367746Y1291108D2*
X1365844Y1294910D1*
X1361998Y1298757D1*
X1358195Y1300659D1*
X1350546D1*
X1346699Y1298757D1*
X1342896Y1294910D1*
X1340951Y1291108D1*
X1339050Y1285360D1*
Y1275765D1*
X1340951Y1270061D1*
X1342896Y1266215D1*
X1346699Y1262412D1*
X1350546Y1260467D1*
X1358195D1*
X1361998Y1262412D1*
X1365844Y1266215D1*
X1367746Y1270061D1*
X1399242Y1260467D2*
Y1300614D1*
X1380097Y1273864D1*
X1408793D1*
X845266Y1269433D2*
Y1286633D1*
X843321Y1292381D1*
X841420Y1294326D1*
X837617Y1296227D1*
X833770D1*
X829968Y1294326D1*
X828022Y1292381D1*
X826121Y1286633D1*
Y1269433D1*
X866313D1*
X845266Y1282830D2*
X866313Y1296227D1*
X833815Y1308579D2*
X831869Y1312426D1*
X826165Y1318174D1*
X866313D1*
X951516Y1260833D2*
Y1278033D1*
X949570Y1283781D1*
X947669Y1285726D1*
X943866Y1287627D1*
X940020D1*
X936217Y1285726D1*
X934272Y1283781D1*
X932370Y1278033D1*
Y1260833D1*
X972562D1*
X951516Y1274230D2*
X972562Y1287627D1*
X941965Y1301924D2*
X940064D1*
X936217Y1303826D1*
X934316Y1305727D1*
X932415Y1309574D1*
Y1317223D1*
X934316Y1321025D1*
X936217Y1322927D1*
X940064Y1324872D1*
X943866D1*
X947713Y1322927D1*
X953417Y1319124D1*
X972562Y1299979D1*
Y1326774D1*
X1051516Y1254583D2*
Y1271783D1*
X1049570Y1277531D1*
X1047669Y1279477D1*
X1043866Y1281378D1*
X1040020D1*
X1036217Y1279477D1*
X1034272Y1277531D1*
X1032370Y1271783D1*
Y1254583D1*
X1072562D1*
X1051516Y1267981D2*
X1072562Y1281378D1*
X1032415Y1297576D2*
Y1318579D1*
X1047713Y1307127D1*
Y1312875D1*
X1049614Y1316677D1*
X1051516Y1318579D1*
X1057264Y1320524D1*
X1061066D1*
X1066814Y1318579D1*
X1070661Y1314776D1*
X1072562Y1309028D1*
Y1303280D1*
X1070661Y1297576D1*
X1068716Y1295675D1*
X1064913Y1293730D1*
X1145266Y1259882D2*
Y1277082D1*
X1143321Y1282830D1*
X1141420Y1284776D1*
X1137617Y1286677D1*
X1133770D1*
X1129968Y1284776D1*
X1128022Y1282830D1*
X1126121Y1277082D1*
Y1259882D1*
X1166313D1*
X1145266Y1273279D2*
X1166313Y1286677D1*
Y1318174D2*
X1126165D1*
X1152916Y1299028D1*
Y1327724D1*
X767461Y1010833D2*
Y1028033D1*
X765515Y1033781D1*
X763614Y1035726D1*
X759811Y1037627D1*
X755965D1*
X752162Y1035726D1*
X750217Y1033781D1*
X748315Y1028033D1*
Y1010833D1*
X788507D1*
X767461Y1024230D2*
X788507Y1037627D1*
X748359Y1072927D2*
Y1053826D1*
X765559Y1051924D1*
X763658Y1053826D1*
X761713Y1059574D1*
Y1065277D1*
X763658Y1071025D1*
X767461Y1074872D1*
X773209Y1076774D1*
X777011D1*
X782759Y1074872D1*
X786606Y1071025D1*
X788507Y1065277D1*
Y1059574D1*
X786606Y1053826D1*
X784660Y1051924D1*
X780858Y1049979D1*
X867461Y1011806D2*
Y1029005D1*
X865515Y1034753D1*
X863614Y1036699D1*
X859811Y1038600D1*
X855965D1*
X852162Y1036699D1*
X850217Y1034753D1*
X848315Y1029005D1*
Y1011806D1*
X888507D1*
X867461Y1025203D2*
X888507Y1038600D1*
X854063Y1073900D2*
X850261Y1071998D1*
X848359Y1066250D1*
Y1062448D1*
X850261Y1056700D1*
X856009Y1052853D1*
X865559Y1050952D1*
X875110D1*
X882759Y1052853D1*
X886606Y1056700D1*
X888507Y1062448D1*
Y1064349D1*
X886606Y1070053D1*
X882759Y1073900D1*
X877011Y1075801D1*
X875110D1*
X869362Y1073900D1*
X865559Y1070053D1*
X863658Y1064349D1*
Y1062448D1*
X865559Y1056700D1*
X869362Y1052853D1*
X875110Y1050952D1*
X967461Y1010833D2*
Y1028033D1*
X965515Y1033781D1*
X963614Y1035726D1*
X959811Y1037627D1*
X955965D1*
X952162Y1035726D1*
X950217Y1033781D1*
X948315Y1028033D1*
Y1010833D1*
X988507D1*
X967461Y1024230D2*
X988507Y1037627D1*
Y1057628D2*
X948359Y1076774D1*
Y1049979D1*
X1067461Y1010855D2*
Y1028055D1*
X1065515Y1033803D1*
X1063614Y1035748D1*
X1059811Y1037650D1*
X1055965D1*
X1052162Y1035748D1*
X1050217Y1033803D1*
X1048315Y1028055D1*
Y1010855D1*
X1088507D1*
X1067461Y1024252D2*
X1088507Y1037650D1*
X1048359Y1059552D2*
X1050261Y1053848D1*
X1054063Y1051902D1*
X1057910D1*
X1061713Y1053848D1*
X1063658Y1057650D1*
X1065559Y1065300D1*
X1067461Y1071048D1*
X1071307Y1074850D1*
X1075110Y1076751D1*
X1080858D1*
X1084660Y1074850D1*
X1086606Y1072949D1*
X1088507Y1067201D1*
Y1059552D1*
X1086606Y1053848D1*
X1084660Y1051902D1*
X1080858Y1050001D1*
X1075110D1*
X1071307Y1051902D1*
X1067461Y1055749D1*
X1065559Y1061453D1*
X1063658Y1069102D1*
X1061713Y1072949D1*
X1057910Y1074850D1*
X1054063D1*
X1050261Y1072949D1*
X1048359Y1067201D1*
Y1059552D1*
X1187970Y602382D2*
Y571784D1*
X1186069Y566036D1*
X1184124Y564135D1*
X1180321Y562190D1*
X1176474D1*
X1172672Y564135D1*
X1170770Y566036D1*
X1168825Y571784D1*
Y575587D1*
X1219467Y562190D2*
Y602337D1*
X1200322Y575587D1*
X1229018D1*
X924551Y1850808D2*
Y1822112D1*
X926452Y1816364D1*
X930299Y1812562D1*
X936047Y1810616D1*
X939849D1*
X945597Y1812562D1*
X949444Y1816364D1*
X951346Y1822112D1*
Y1850808D1*
X963697Y1843115D2*
X967544Y1845060D1*
X973292Y1850764D1*
Y1810616D1*
X1193696Y1891108D2*
X1191795Y1894910D1*
X1187948Y1898757D1*
X1184146Y1900659D1*
X1176496D1*
X1172650Y1898757D1*
X1168847Y1894910D1*
X1166902Y1891108D1*
X1165000Y1885360D1*
Y1875765D1*
X1166902Y1870061D1*
X1168847Y1866215D1*
X1172650Y1862412D1*
X1176496Y1860467D1*
X1184146D1*
X1187948Y1862412D1*
X1191795Y1866215D1*
X1193696Y1870061D1*
X1228996Y1900614D2*
X1209894D1*
X1207993Y1883414D1*
X1209894Y1885316D1*
X1215642Y1887261D1*
X1221346D1*
X1227094Y1885316D1*
X1230941Y1881513D1*
X1232842Y1875765D1*
Y1871963D1*
X1230941Y1866215D1*
X1227094Y1862368D1*
X1221346Y1860467D1*
X1215642D1*
X1209894Y1862368D1*
X1207993Y1864313D1*
X1206048Y1868116D1*
M02*
