G04 DipTrace 4.0.0.2*
G04 1 - Top.gbr*
%MOIN*%
G04 #@! TF.FileFunction,Copper,L1,Top*
G04 #@! TF.Part,Single*
G04 #@! TA.AperFunction,Conductor*
%ADD14C,0.02*%
G04 #@! TA.AperFunction,ComponentPad*
%ADD17R,0.059055X0.059055*%
%ADD18C,0.059055*%
%ADD19R,0.086614X0.086614*%
%ADD20C,0.086614*%
G04 #@! TA.AperFunction,ViaPad*
%ADD21C,0.06*%
%FSLAX26Y26*%
G04*
G70*
G90*
G75*
G01*
G04 Top*
%LPD*%
X-550005Y0D2*
D14*
Y-99995D1*
X-550000Y-100000D1*
Y-200000D1*
Y-300000D1*
Y-400000D1*
Y-500000D1*
Y-600000D1*
Y-700000D1*
Y-800000D1*
Y-900000D1*
Y-1000000D1*
Y-1100000D1*
X-450005Y0D2*
Y-99995D1*
X-450000Y-100000D1*
Y-200000D1*
Y-300000D1*
Y-400000D1*
Y-500000D1*
Y-600000D1*
X-350005Y0D2*
Y-5D1*
X-400000Y-50000D1*
Y-650000D1*
X-450000Y-700000D1*
Y-800000D1*
Y-900000D1*
Y-1000000D1*
Y-1100000D1*
X549986Y0D2*
Y-99986D1*
X550000Y-100000D1*
X-350005Y0D2*
Y-99995D1*
X-350000Y-100000D1*
X-481693Y-1450000D2*
Y-1318307D1*
X-550000Y-1250000D1*
Y-1200000D1*
X-343898Y-1450000D2*
Y-1356102D1*
X-450000Y-1250000D1*
Y-1200000D1*
X-250005Y0D2*
Y-99995D1*
X-250000Y-100000D1*
X-150005Y0D2*
Y-99995D1*
X-150000Y-100000D1*
X-50005Y0D2*
Y-99995D1*
X-50000Y-100000D1*
X49995Y0D2*
Y-99995D1*
X50000Y-100000D1*
X149995Y0D2*
Y-99995D1*
X150000Y-100000D1*
X249986Y0D2*
Y-99986D1*
X250000Y-100000D1*
X349986Y0D2*
Y-99986D1*
X350000Y-100000D1*
X449986Y0D2*
Y-99986D1*
X450000Y-100000D1*
X-206102Y-1450000D2*
Y-1393898D1*
X-350000Y-1250000D1*
Y-1200000D1*
X-68307Y-1450000D2*
Y-1381693D1*
X-250000Y-1200000D1*
X-150000D2*
X25000Y-1375000D1*
Y-1405512D1*
X69488Y-1450000D1*
X-50000Y-1200000D2*
X-42717D1*
X207283Y-1450000D1*
X50000Y-1200000D2*
X200000Y-1350000D1*
X245079D1*
X345079Y-1450000D1*
X150000Y-1200000D2*
X225000Y-1275000D1*
X307874D1*
X482874Y-1450000D1*
D21*
X-250000Y-100000D3*
X-150000D3*
X-50000D3*
X50000D3*
X150000D3*
X250000D3*
X350000D3*
X450000D3*
X550000D3*
Y-200000D3*
Y-300000D3*
Y-400000D3*
Y-500000D3*
Y-600000D3*
Y-700000D3*
X450000Y-200000D3*
X550000Y-800000D3*
Y-900000D3*
X450000Y-300000D3*
Y-400000D3*
Y-500000D3*
Y-600000D3*
Y-700000D3*
Y-800000D3*
Y-900000D3*
X350000Y-200000D3*
Y-300000D3*
Y-400000D3*
Y-500000D3*
Y-600000D3*
Y-700000D3*
Y-800000D3*
Y-900000D3*
X250000Y-200000D3*
Y-300000D3*
Y-400000D3*
Y-500000D3*
Y-600000D3*
Y-700000D3*
X150000Y-200000D3*
X250000Y-800000D3*
Y-900000D3*
X150000Y-300000D3*
Y-400000D3*
Y-500000D3*
Y-600000D3*
Y-700000D3*
Y-800000D3*
Y-900000D3*
X50000Y-200000D3*
Y-300000D3*
Y-400000D3*
Y-500000D3*
Y-600000D3*
Y-700000D3*
Y-800000D3*
Y-900000D3*
X-50000Y-200000D3*
Y-300000D3*
Y-400000D3*
Y-500000D3*
Y-600000D3*
Y-700000D3*
X-150000Y-200000D3*
X-50000Y-800000D3*
Y-900000D3*
X-150000Y-300000D3*
Y-400000D3*
Y-500000D3*
Y-600000D3*
Y-700000D3*
Y-800000D3*
Y-900000D3*
X-250000Y-200000D3*
Y-300000D3*
Y-400000D3*
Y-500000D3*
Y-600000D3*
Y-700000D3*
Y-800000D3*
Y-900000D3*
X-350000Y-200000D3*
Y-300000D3*
Y-400000D3*
Y-500000D3*
Y-600000D3*
Y-700000D3*
X-450000Y-200000D3*
X-350000Y-800000D3*
Y-900000D3*
X-450000Y-300000D3*
Y-400000D3*
Y-500000D3*
Y-600000D3*
Y-700000D3*
Y-800000D3*
Y-900000D3*
X-550000Y-200000D3*
Y-300000D3*
Y-400000D3*
Y-500000D3*
Y-600000D3*
Y-700000D3*
Y-800000D3*
Y-900000D3*
X-350000Y-100000D3*
X-450000D3*
X-550000D3*
X350000Y-1000000D3*
Y-1100000D3*
Y-1200000D3*
X250000Y-1000000D3*
Y-1100000D3*
Y-1200000D3*
X150000Y-1000000D3*
Y-1100000D3*
Y-1200000D3*
X50000Y-1000000D3*
Y-1100000D3*
Y-1200000D3*
X-50000Y-1000000D3*
Y-1100000D3*
Y-1200000D3*
X-150000Y-1000000D3*
Y-1100000D3*
Y-1200000D3*
X-250000Y-1000000D3*
Y-1100000D3*
Y-1200000D3*
X-350000Y-1000000D3*
Y-1100000D3*
Y-1200000D3*
X-450000Y-1000000D3*
Y-1100000D3*
Y-1200000D3*
X-550000Y-1000000D3*
Y-1100000D3*
Y-1200000D3*
D17*
X-550005Y0D3*
D18*
X-450005D3*
X-350005D3*
X-250005D3*
X-150005D3*
X-50005D3*
X49995D3*
X149995D3*
X249986D3*
X349986D3*
X449986D3*
X549986D3*
D19*
X-481693Y-1450000D3*
D20*
X-343898D3*
X-206102D3*
X-68307D3*
X69488D3*
X207283D3*
X345079D3*
X482874D3*
M02*
