M48
INCH
T01C0.035
T02C0.0354
T03C0.0472
T04C0.1378
%
T01
X-002500Y-001000
X-003500Y-001000
X-004500Y-001000
X-004500Y-002000
X-003500Y-002000
X-002500Y-002000
X-002500Y-003000
X-002500Y-004000
X-003500Y-004000
X-003500Y-003000
X-004500Y-003000
X-004500Y-004000
X-004500Y-005000
X-003500Y-005000
X-002500Y-005000
X-002500Y-006000
X-002500Y-007000
X-003500Y-007000
X-003500Y-006000
X-004500Y-006000
X-004500Y-007000
X-004500Y-008000
X-003500Y-008000
X-002500Y-008000
X-002500Y-009000
X-003500Y-009000
X-004500Y-009000
X-004500Y-010000
X-003500Y-010000
X-002500Y-010000
X-001500Y-010000
X-001500Y-009000
X-000500Y-009000
X+000500Y-009000
X+001500Y-009000
X+001500Y-008000
X+000500Y-008000
X-000500Y-008000
X-001500Y-008000
X-001500Y-007000
X-000500Y-007000
X+000500Y-007000
X+001500Y-007000
X+001500Y-006000
X+001500Y-005000
X+000500Y-005000
X+000500Y-006000
X-000500Y-006000
X-000500Y-005000
X-001500Y-005000
X-001500Y-006000
X-001500Y-004000
X-000500Y-004000
X-000500Y-003000
X-000500Y-002000
X-001500Y-002000
X-001500Y-003000
X+000500Y-003000
X+001500Y-003000
X+001500Y-004000
X+000500Y-004000
X+000500Y-002000
X+001500Y-002000
X+002500Y-002000
X+002500Y-003000
X+002500Y-004000
X+003500Y-004000
X+004500Y-004000
X+004500Y-003000
X+004500Y-002000
X+003500Y-002000
X+003500Y-003000
X+003500Y-001000
X+002500Y-001000
X+001500Y-001000
X+000500Y-001000
X-000500Y-001000
X-001500Y-001000
X-005500Y-001000
X-005500Y-002000
X-005500Y-003000
X-005500Y-004000
X-005500Y-005000
X-005500Y-006000
X-005500Y-007000
X-005500Y-008000
X-005500Y-009000
X-005500Y-010000
X-005500Y-011000
X-005500Y-012000
X-004500Y-012000
X-003500Y-012000
X-002500Y-012000
X-002500Y-011000
X-003500Y-011000
X-004500Y-011000
X-001500Y-011000
X-000500Y-011000
X+000500Y-011000
X+001500Y-011000
X+001500Y-012000
X+000500Y-012000
X-000500Y-012000
X-001500Y-012000
X-000500Y-010000
X+000500Y-010000
X+001500Y-010000
X+002500Y-010000
X+003500Y-010000
X+003500Y-009000
X+003500Y-008000
X+004500Y-008000
X+004500Y-009000
X+005500Y-009000
X+005500Y-008000
X+005500Y-007000
X+005500Y-006000
X+005500Y-005000
X+004500Y-005000
X+003500Y-005000
X+003500Y-006000
X+003500Y-007000
X+002500Y-007000
X+002500Y-006000
X+002500Y-005000
X+004500Y-006000
X+004500Y-007000
X+002500Y-008000
X+002500Y-009000
X+002500Y-011000
X+003500Y-011000
X+003500Y-012000
X+002500Y-012000
X+005500Y-004000
X+005500Y-003000
X+005500Y-002000
X+005500Y-001000
X+004500Y-001000
T02
X-005500Y+000000
X-004500Y-000000
X-003500Y-000000
X-002500Y+000000
X-001500Y+000000
X-000500Y+000000
X+000500Y+000000
X+001500Y+000000
X+002500Y+000000
X+003500Y+000000
X+004500Y+000000
X+005500Y+000000
T03
X-004817Y-014500
X-003439Y-014500
X-002061Y-014500
X-000683Y-014500
X+000695Y-014500
X+002073Y-014500
X+003451Y-014500
X+004829Y-014500
T04
X+004921Y-011417
T00
M30
