G04 DipTrace 4.0.0.2*
G04 TopMask.gbr*
%MOIN*%
G04 #@! TF.FileFunction,Soldermask,Top*
G04 #@! TF.Part,Single*
%ADD23C,0.137795*%
%ADD27C,0.06788*%
%ADD29C,0.094494*%
%ADD31R,0.094494X0.094494*%
%ADD33C,0.066935*%
%ADD35R,0.066935X0.066935*%
%FSLAX26Y26*%
G04*
G70*
G90*
G75*
G01*
G04 TopMask*
%LPD*%
D27*
X-250000Y-100000D3*
X-150000D3*
X-50000D3*
X50000D3*
X150000D3*
X250000D3*
X350000D3*
X450000D3*
X550000D3*
Y-200000D3*
Y-300000D3*
Y-400000D3*
Y-500000D3*
Y-600000D3*
Y-700000D3*
X450000Y-200000D3*
X550000Y-800000D3*
Y-900000D3*
X450000Y-300000D3*
Y-400000D3*
Y-500000D3*
Y-600000D3*
Y-700000D3*
Y-800000D3*
Y-900000D3*
X350000Y-200000D3*
Y-300000D3*
Y-400000D3*
Y-500000D3*
Y-600000D3*
Y-700000D3*
Y-800000D3*
Y-900000D3*
X250000Y-200000D3*
Y-300000D3*
Y-400000D3*
Y-500000D3*
Y-600000D3*
Y-700000D3*
X150000Y-200000D3*
X250000Y-800000D3*
Y-900000D3*
X150000Y-300000D3*
Y-400000D3*
Y-500000D3*
Y-600000D3*
Y-700000D3*
Y-800000D3*
Y-900000D3*
X50000Y-200000D3*
Y-300000D3*
Y-400000D3*
Y-500000D3*
Y-600000D3*
Y-700000D3*
Y-800000D3*
Y-900000D3*
X-50000Y-200000D3*
Y-300000D3*
Y-400000D3*
Y-500000D3*
Y-600000D3*
Y-700000D3*
X-150000Y-200000D3*
X-50000Y-800000D3*
Y-900000D3*
X-150000Y-300000D3*
Y-400000D3*
Y-500000D3*
Y-600000D3*
Y-700000D3*
Y-800000D3*
Y-900000D3*
X-250000Y-200000D3*
Y-300000D3*
Y-400000D3*
Y-500000D3*
Y-600000D3*
Y-700000D3*
Y-800000D3*
Y-900000D3*
X-350000Y-200000D3*
Y-300000D3*
Y-400000D3*
Y-500000D3*
Y-600000D3*
Y-700000D3*
X-450000Y-200000D3*
X-350000Y-800000D3*
Y-900000D3*
X-450000Y-300000D3*
Y-400000D3*
Y-500000D3*
Y-600000D3*
Y-700000D3*
Y-800000D3*
Y-900000D3*
X-550000Y-200000D3*
Y-300000D3*
Y-400000D3*
Y-500000D3*
Y-600000D3*
Y-700000D3*
Y-800000D3*
Y-900000D3*
X-350000Y-100000D3*
X-450000D3*
X-550000D3*
X350000Y-1000000D3*
Y-1100000D3*
Y-1200000D3*
X250000Y-1000000D3*
Y-1100000D3*
Y-1200000D3*
X150000Y-1000000D3*
Y-1100000D3*
Y-1200000D3*
X50000Y-1000000D3*
Y-1100000D3*
Y-1200000D3*
X-50000Y-1000000D3*
Y-1100000D3*
Y-1200000D3*
X-150000Y-1000000D3*
Y-1100000D3*
Y-1200000D3*
X-250000Y-1000000D3*
Y-1100000D3*
Y-1200000D3*
X-350000Y-1000000D3*
Y-1100000D3*
Y-1200000D3*
X-450000Y-1000000D3*
Y-1100000D3*
Y-1200000D3*
X-550000Y-1000000D3*
Y-1100000D3*
Y-1200000D3*
D35*
X-550005Y0D3*
D33*
X-450005D3*
X-350005D3*
X-250005D3*
X-150005D3*
X-50005D3*
X49995D3*
X149995D3*
X249986D3*
X349986D3*
X449986D3*
X549986D3*
D23*
X492126Y-1141732D3*
D31*
X-481693Y-1450000D3*
D29*
X-343898D3*
X-206102D3*
X-68307D3*
X69488D3*
X207283D3*
X345079D3*
X482874D3*
M02*
