G04 DipTrace 4.0.0.2*
G04 BottomSilk.gbr*
%MOIN*%
G04 #@! TF.FileFunction,Legend,Bot*
G04 #@! TF.Part,Single*
%ADD29C,0.01*%
%ADD31C,0.003*%
%ADD109C,0.006176*%
%FSLAX26Y26*%
G04*
G70*
G90*
G75*
G01*
G04 BotSilk*
%LPD*%
G36*
X4060055Y4929055D2*
D1*
D1*
D1*
D1*
D1*
D1*
D1*
D1*
D1*
D1*
D1*
D1*
D1*
D1*
D1*
D1*
D1*
D1*
D1*
D1*
D1*
D1*
D1*
D1*
D1*
D1*
D1*
D1*
D1*
D1*
D1*
D1*
D1*
D1*
D1*
G37*
X3766413Y4934379D2*
D31*
Y4977869D1*
X3757667D1*
Y4973224D1*
X3757507D1*
G03X3752636Y4977083I-10348J-8059D01*
G01*
G03X3746185Y4978371I-6179J-14141D01*
G01*
G03X3741524Y4977531I12J-13422D01*
G01*
G03X3737097Y4975012I5924J-15555D01*
G01*
X3743411Y4967472D1*
G02X3746289Y4969088I6924J-8964D01*
G01*
G02X3749201Y4969623I2934J-7771D01*
G01*
G02X3755045Y4967465I11J-8960D01*
G01*
G02X3757012Y4964646I-4242J-5056D01*
G01*
G02X3757667Y4960516I-11128J-3881D01*
G01*
Y4934379D1*
X3766413D1*
X3896495Y4969623D2*
G02X3899282Y4969361I152J-13316D01*
G01*
G02X3901449Y4968566I-1466J-7342D01*
G01*
G02X3903923Y4965394I-2524J-4519D01*
G01*
G02X3905160Y4956175I-31554J-8928D01*
G01*
G02X3903923Y4946815I-33232J-368D01*
G01*
G02X3901449Y4943642I-4996J1344D01*
G01*
G02X3899282Y4942846I-3632J6547D01*
G01*
G02X3896495Y4942584I-2635J13053D01*
G01*
G02X3893753Y4942858I-150J12343D01*
G01*
G02X3891615Y4943682I1539J7178D01*
G01*
G02X3889167Y4946987I2797J4632D01*
G01*
G02X3887929Y4956175I32653J9075D01*
G01*
G02X3889167Y4965220I33398J39D01*
G01*
G02X3891615Y4968525I5245J-1328D01*
G01*
G02X3893753Y4969349I3677J-6354D01*
G01*
G02X3896495Y4969623I2592J-12069D01*
G01*
D3*
X3833948Y4934379D2*
X3843056Y4964799D1*
X3843218D1*
X3852304Y4934379D1*
X3860025D1*
X3873917Y4977869D1*
X3864668D1*
X3856325Y4947409D1*
X3856164D1*
X3846314Y4977869D1*
X3839937D1*
X3830108Y4947409D1*
X3829927D1*
X3821604Y4977869D1*
X3812336D1*
X3826247Y4934379D1*
X3833948D1*
X3952929Y5022028D2*
X3980013D1*
G02X3979285Y5017332I-13769J-268D01*
G01*
G02X3977097Y5013978I-7820J2710D01*
G01*
G02X3973781Y5011965I-6550J7052D01*
G01*
G02X3969659Y5011293I-3972J11385D01*
G01*
G02X3964568Y5012343I-79J12485D01*
G01*
G02X3960108Y5015495I5937J13134D01*
G01*
X3953777Y5010087D1*
G03X3957213Y5006850I15853J13389D01*
G01*
G03X3961052Y5004698I10151J13609D01*
G01*
G03X3969499Y5003091I8379J21029D01*
G01*
G03X3976088Y5004172I-8J20663D01*
G01*
G03X3982476Y5007421I-8283J24190D01*
G01*
G03X3985224Y5010155I-6387J9169D01*
G01*
G03X3987189Y5014024I-12648J8856D01*
G01*
G03X3988365Y5019028I-24445J8384D01*
G01*
G03X3988759Y5025164I-43499J5872D01*
G01*
G03X3988395Y5031028I-43460J249D01*
G01*
G03X3987310Y5035908I-26634J-3362D01*
G01*
G03X3985496Y5039808I-16442J-5274D01*
G01*
G03X3982959Y5042727I-10664J-6707D01*
G01*
G03X3977025Y5046369I-14321J-16680D01*
G01*
G03X3970825Y5047583I-6223J-15343D01*
G01*
G03X3964115Y5046341I-134J-18032D01*
G01*
G03X3958297Y5042617I7044J-17413D01*
G01*
G03X3954273Y5036787I10821J-11772D01*
G01*
G03X3952929Y5029226I18893J-7258D01*
G01*
Y5022028D1*
X4073906Y5025386D2*
G03X4073629Y5031492I-59844J346D01*
G01*
G03X4072808Y5035811I-21900J-1922D01*
G01*
G03X4069199Y5042014I-16008J-5161D01*
G01*
G03X4067064Y5043941I-11634J-10747D01*
G01*
G03X4064241Y5045782I-15012J-19930D01*
G01*
G03X4060593Y5047133I-6224J-11211D01*
G01*
G03X4055970Y5047583I-4407J-21296D01*
G01*
G03X4051404Y5047133I-218J-21169D01*
G01*
G03X4047757Y5045782I2629J-12699D01*
G01*
G03X4044915Y5043941I12332J-22153D01*
G01*
G03X4042760Y5042014I9474J-12765D01*
G01*
G03X4039161Y5035811I12309J-11285D01*
G01*
G03X4038348Y5031492I21463J-6280D01*
G01*
G03X4038077Y5025386I59069J-5674D01*
G01*
G03X4038348Y5019177I61251J-443D01*
G01*
G03X4039161Y5014820I22633J1972D01*
G01*
G03X4042760Y5008619I15897J5081D01*
G01*
G03X4044915Y5006671I11274J10300D01*
G01*
G03X4047757Y5004848I14028J18748D01*
G01*
G03X4051404Y5003529I6274J11646D01*
G01*
G03X4055970Y5003091I4372J21545D01*
G01*
G03X4060593Y5003529I239J22080D01*
G01*
G03X4064241Y5004848I-2571J12818D01*
G01*
G03X4067064Y5006671I-11060J20224D01*
G01*
G03X4069199Y5008619I-9156J12176D01*
G01*
G03X4072808Y5014820I-12388J11361D01*
G01*
G03X4073629Y5019177I-21176J6242D01*
G01*
G03X4073906Y5025386I-60474J5808D01*
G01*
D3*
X3843774D2*
G03X3843503Y5031492I-59838J397D01*
G01*
G03X3842680Y5035811I-22159J-1984D01*
G01*
G03X3839072Y5042014I-15984J-5145D01*
G01*
G03X3836937Y5043941I-11927J-11072D01*
G01*
G03X3834113Y5045782I-14931J-19816D01*
G01*
G03X3830462Y5047133I-6214J-11191D01*
G01*
G03X3825841Y5047583I-4400J-21227D01*
G01*
G03X3821274Y5047133I-217J-21192D01*
G01*
G03X3817630Y5045782I2641J-12721D01*
G01*
G03X3814787Y5043941I12332J-22153D01*
G01*
G03X3812633Y5042014I9474J-12765D01*
G01*
G03X3809031Y5035811I12310J-11293D01*
G01*
G03X3808218Y5031492I20951J-6183D01*
G01*
G03X3807945Y5025386I59069J-5700D01*
G01*
G03X3808218Y5019177I61253J-417D01*
G01*
G03X3809031Y5014820I22113J1875D01*
G01*
G03X3812633Y5008619I15901J5088D01*
G01*
G03X3814787Y5006671I11145J10158D01*
G01*
G03X3817630Y5004848I14028J18748D01*
G01*
G03X3821274Y5003529I6284J11668D01*
G01*
G03X3825841Y5003091I4372J21546D01*
G01*
G03X3830462Y5003529I243J22011D01*
G01*
G03X3834113Y5004848I-2587J12873D01*
G01*
G03X3836937Y5006671I-11437J20819D01*
G01*
G03X3839072Y5008619I-9156J12176D01*
G01*
G03X3842680Y5014820I-12366J11344D01*
G01*
G03X3843503Y5019177I-21431J6303D01*
G01*
G03X3843774Y5025386I-61493J5801D01*
G01*
D3*
X3962394Y4934218D2*
Y4938060D1*
X3962576D1*
G03X3966217Y4934803I6209J3277D01*
G01*
G03X3969209Y4933988I4883J12027D01*
G01*
G03X3973009Y4933715I3667J24458D01*
G01*
G03X3979329Y4934756I-126J20477D01*
G01*
G03X3983886Y4937558I-3819J11317D01*
G01*
G03X3986904Y4941764I-8146J9032D01*
G01*
G03X3987909Y4946987I-12227J5062D01*
G01*
G03X3987039Y4951996I-14014J146D01*
G01*
G03X3984430Y4956134I-11621J-4436D01*
G01*
G03X3980138Y4958913I-7924J-7533D01*
G01*
G03X3974176Y4959894I-5850J-16959D01*
G01*
X3962394D1*
Y4964497D1*
G02X3962924Y4967021I5461J170D01*
G01*
G02X3964545Y4968799I4024J-2040D01*
G01*
G02X3967264Y4969836I4088J-6637D01*
G01*
G02X3971080Y4970126I3232J-17269D01*
G01*
G02X3973845Y4969957I163J-20004D01*
G01*
G02X3976108Y4969445I-1543J-12076D01*
G01*
G02X3979083Y4966728I-2461J-5683D01*
G01*
X3985778Y4971996D1*
G03X3979778Y4976828I-12105J-8890D01*
G01*
G03X3975924Y4977995I-6857J-15702D01*
G01*
G03X3971504Y4978331I-3909J-22183D01*
G01*
G03X3964356Y4977596I-609J-29206D01*
G01*
G03X3958756Y4975235I3933J-17151D01*
G01*
G03X3955186Y4970765I5904J-8375D01*
G01*
G03X3954269Y4967669I13488J-5681D01*
G01*
G03X3953930Y4963995I21571J-3841D01*
G01*
Y4934218D1*
X3962394D1*
X3980013Y5029226D2*
X3961657D1*
G02X3962448Y5033556I14274J-367D01*
G01*
G02X3964420Y5036736I8334J-2968D01*
G01*
G02X3967304Y5038689I6150J-5977D01*
G01*
G02X3970825Y5039340I3423J-8667D01*
G01*
G02X3974392Y5038689I101J-9546D01*
G01*
G02X3977299Y5036736I-3221J-7935D01*
G01*
G02X3979265Y5033556I-6189J-6024D01*
G01*
G02X3980013Y5029226I-13170J-4505D01*
G01*
D3*
X3962394Y4949500D2*
Y4952697D1*
X3972589D1*
G02X3975844Y4952282I-226J-14752D01*
G01*
G02X3978156Y4951264I-1545J-6641D01*
G01*
G02X3979526Y4949638I-2321J-3346D01*
G01*
G02X3979948Y4947409I-4580J-2020D01*
G01*
G02X3979470Y4945378I-4393J-39D01*
G01*
G02X3978035Y4943629I-4948J2595D01*
G01*
G02X3975589Y4942348I-3846J4368D01*
G01*
G02X3971946Y4941920I-3375J13017D01*
G01*
G02X3967387Y4942206I-730J24838D01*
G01*
G02X3964406Y4943227I1125J8151D01*
G01*
G02X3963525Y4944131I1903J2734D01*
G01*
G02X3962898Y4945479I4595J2959D01*
G01*
G02X3962394Y4949500I13056J3678D01*
G01*
D3*
X3697961Y5016379D2*
X3691507Y5010589D1*
G03X3698282Y5005201I18106J15813D01*
G01*
G03X3702459Y5003618I8096J15065D01*
G01*
G03X3707148Y5003091I4558J19411D01*
G01*
G03X3714325Y5004370I98J20218D01*
G01*
G03X3720781Y5008217I-7964J20705D01*
G01*
G03X3723445Y5011205I-9089J10784D01*
G01*
G03X3725349Y5015047I-14381J9520D01*
G01*
G03X3726491Y5019740I-23431J8186D01*
G01*
G03X3726873Y5025285I-37090J5340D01*
G01*
G03X3726491Y5030833I-37475J208D01*
G01*
G03X3725349Y5035538I-24722J-3509D01*
G01*
G03X3723445Y5039394I-16729J-5864D01*
G01*
G03X3720781Y5042406I-11881J-7825D01*
G01*
G03X3714325Y5046289I-14475J-16755D01*
G01*
G03X3707148Y5047583I-7085J-18746D01*
G01*
G03X3702459Y5047050I-87J-20130D01*
G01*
G03X3698282Y5045453I3955J-16607D01*
G01*
G03X3691507Y5040043I11530J-21390D01*
G01*
X3697961Y5034294D1*
G02X3702022Y5037701I10117J-7937D01*
G01*
G02X3706806Y5038837I4711J-9192D01*
G01*
G02X3711760Y5037990I276J-13285D01*
G01*
G02X3715297Y5035449I-3161J-8132D01*
G01*
G02X3717417Y5031215I-8687J-6999D01*
G01*
G02X3718127Y5025285I-21669J-5602D01*
G01*
G02X3717417Y5019383I-22148J-329D01*
G01*
G02X3715297Y5015168I-10754J2769D01*
G01*
G02X3711760Y5012639I-6739J5687D01*
G01*
G02X3706806Y5011795I-4673J12472D01*
G01*
G02X3702001Y5012941I-79J10314D01*
G01*
G02X3697961Y5016379I6012J11159D01*
G01*
D3*
X4046782Y5025285D2*
G02X4046903Y5029327I57666J300D01*
G01*
G02X4047265Y5031962I15890J-842D01*
G01*
G02X4048933Y5035639I11043J-2792D01*
G01*
G02X4051839Y5038038I5846J-4122D01*
G01*
G02X4055970Y5038837I3910J-9133D01*
G01*
G02X4060131Y5038038I244J-9965D01*
G01*
G02X4063007Y5035639I-2823J-6307D01*
G01*
G02X4064696Y5031962I-8354J-6064D01*
G01*
G02X4065026Y5029353I-17314J-3520D01*
G01*
G02X4065138Y5025386I-63657J-3775D01*
G01*
G02X4065026Y5021310I-67355J-196D01*
G01*
G02X4064696Y5018651I-17397J814D01*
G01*
G02X4063007Y5014992I-9618J2221D01*
G01*
G02X4060131Y5012594I-5721J3938D01*
G01*
G02X4055970Y5011795I-3928J9221D01*
G01*
G02X4051839Y5012594I-232J9877D01*
G01*
G02X4048933Y5014992I2947J6530D01*
G01*
G02X4047265Y5018631I9069J6359D01*
G01*
G02X4046903Y5021260I15425J3465D01*
G01*
G02X4046782Y5025285I57092J3727D01*
G01*
D3*
X3816650D2*
G02X3816774Y5029327I58756J211D01*
G01*
G02X3817134Y5031962I16264J-877D01*
G01*
G02X3818804Y5035639I11186J-2864D01*
G01*
G02X3821709Y5038038I5867J-4145D01*
G01*
G02X3825841Y5038837I3910J-9134D01*
G01*
G02X3830003Y5038038I244J-9965D01*
G01*
G02X3832878Y5035639I-2867J-6359D01*
G01*
G02X3834567Y5031962I-8298J-6038D01*
G01*
G02X3834899Y5029353I-17085J-3500D01*
G01*
G02X3835009Y5025386I-59839J-3648D01*
G01*
G02X3834899Y5021310I-63319J-327D01*
G01*
G02X3834567Y5018651I-18079J907D01*
G01*
G02X3832878Y5014992I-9618J2221D01*
G01*
G02X3830003Y5012594I-5765J3991D01*
G01*
G02X3825841Y5011795I-3928J9221D01*
G01*
G02X3821709Y5012594I-233J9878D01*
G01*
G02X3818804Y5014992I2969J6554D01*
G01*
G02X3817134Y5018631I9071J6367D01*
G01*
G02X3816774Y5021260I15799J3500D01*
G01*
G02X3816650Y5025285I58170J3816D01*
G01*
D3*
X3945283Y5003593D2*
Y5047080D1*
X3936538D1*
Y5042436D1*
X3936377D1*
G03X3931507Y5046297I-10315J-8010D01*
G01*
G03X3925058Y5047583I-6181J-14184D01*
G01*
G03X3920080Y5046619I8J-13382D01*
G01*
G03X3915277Y5043732I6806J-16762D01*
G01*
G03X3911741Y5039000I7546J-9325D01*
G01*
G03X3910857Y5035972I13310J-5532D01*
G01*
G03X3910563Y5032503I19251J-3378D01*
G01*
Y5003593D1*
X3919308D1*
Y5029487D1*
G02X3919921Y5033409I11635J191D01*
G01*
G02X3921761Y5036365I7450J-2588D01*
G01*
G02X3924516Y5038219I5882J-5765D01*
G01*
G02X3927873Y5038837I3263J-8298D01*
G01*
G02X3931306Y5038219I124J-9154D01*
G01*
G02X3934085Y5036365I-3047J-7577D01*
G01*
G02X3935925Y5033409I-5611J-5543D01*
G01*
G02X3936538Y5029487I-11022J-3731D01*
G01*
Y5003593D1*
X3945283D1*
X3785164Y4934218D2*
Y4938060D1*
X3785345D1*
G03X3788984Y4934803I6222J3289D01*
G01*
G03X3791979Y4933988I4874J12002D01*
G01*
G03X3795780Y4933715I3660J24364D01*
G01*
G03X3802098Y4934756I-127J20478D01*
G01*
G03X3806657Y4937558I-3821J11327D01*
G01*
G03X3809673Y4941764I-8144J9023D01*
G01*
G03X3810678Y4946987I-12227J5062D01*
G01*
G03X3809807Y4951996I-14132J122D01*
G01*
G03X3807198Y4956134I-11573J-4406D01*
G01*
G03X3802907Y4958913I-7929J-7539D01*
G01*
G03X3796945Y4959894I-5853J-16974D01*
G01*
X3785164D1*
Y4964497D1*
G02X3785692Y4967021I5459J176D01*
G01*
G02X3787315Y4968799I3988J-2011D01*
G01*
G02X3790034Y4969836I4078J-6613D01*
G01*
G02X3793849Y4970126I3230J-17249D01*
G01*
G02X3796614Y4969957I163J-20004D01*
G01*
G02X3798875Y4969445I-1549J-12093D01*
G01*
G02X3801853Y4966728I-2462J-5689D01*
G01*
X3808547Y4971996D1*
G03X3802545Y4976828I-12109J-8898D01*
G01*
G03X3798693Y4977995I-6836J-15628D01*
G01*
G03X3794272Y4978331I-3911J-22206D01*
G01*
G03X3787122Y4977596I-608J-29226D01*
G01*
G03X3781525Y4975235I3919J-17106D01*
G01*
G03X3777955Y4970765I5945J-8408D01*
G01*
G03X3777039Y4967669I13010J-5533D01*
G01*
G03X3776698Y4963995I21211J-3823D01*
G01*
Y4934218D1*
X3785164D1*
X3700714Y4952816D2*
X3727795D1*
G02X3727067Y4948121I-13942J-242D01*
G01*
G02X3724882Y4944764I-7909J2758D01*
G01*
G02X3721563Y4942752I-6611J7162D01*
G01*
G02X3717444Y4942081I-3947J11258D01*
G01*
G02X3712350Y4943131I-76J12509D01*
G01*
G02X3707892Y4946283I5959J13157D01*
G01*
X3701559Y4940873D1*
G03X3704996Y4937638I15953J13506D01*
G01*
G03X3708836Y4935487I10141J13601D01*
G01*
G03X3717280Y4933877I8383J21016D01*
G01*
G03X3723873Y4934961I-33J20795D01*
G01*
G03X3730260Y4938210I-8269J24157D01*
G01*
G03X3733008Y4940944I-6387J9169D01*
G01*
G03X3734971Y4944812I-13025J9042D01*
G01*
G03X3736148Y4949816I-24571J8421D01*
G01*
G03X3736539Y4955953I-43465J5851D01*
G01*
G03X3736180Y4961815I-43743J259D01*
G01*
G03X3735091Y4966696I-26850J-3431D01*
G01*
G03X3733281Y4970596I-16503J-5287D01*
G01*
G03X3730741Y4973516I-10760J-6793D01*
G01*
G03X3724807Y4977157I-14414J-16833D01*
G01*
G03X3718606Y4978371I-6220J-15329D01*
G01*
G03X3711898Y4977130I-132J-18032D01*
G01*
G03X3706083Y4973406I7007J-17342D01*
G01*
G03X3702055Y4967573I10790J-11758D01*
G01*
G03X3700714Y4960014I18937J-7259D01*
G01*
Y4952816D1*
X3943780Y4934379D2*
Y4977869D1*
X3935034D1*
Y4973224D1*
X3934873D1*
G03X3930003Y4977083I-10330J-8036D01*
G01*
G03X3923554Y4978371I-6177J-14129D01*
G01*
G03X3918890Y4977531I9J-13422D01*
G01*
G03X3914467Y4975012I5880J-15461D01*
G01*
X3920780Y4967472D1*
G02X3923655Y4969088I6979J-9054D01*
G01*
G02X3926570Y4969623I2931J-7757D01*
G01*
G02X3932409Y4967465I14J-8940D01*
G01*
G02X3934379Y4964646I-4243J-5063D01*
G01*
G02X3935034Y4960516I-11048J-3869D01*
G01*
Y4934379D1*
X3943780D1*
X3727795Y4960014D2*
X3709440D1*
G02X3710231Y4964344I14311J-379D01*
G01*
G02X3712205Y4967525I8225J-2900D01*
G01*
G02X3715085Y4969475I6096J-5902D01*
G01*
G02X3718606Y4970126I3413J-8612D01*
G01*
G02X3722176Y4969475I126J-9422D01*
G01*
G02X3725081Y4967525I-3222J-7940D01*
G01*
G02X3727046Y4964344I-6226J-6042D01*
G01*
G02X3727795Y4960014I-13120J-4500D01*
G01*
D3*
X3785164Y4949500D2*
Y4952697D1*
X3795357D1*
G02X3798613Y4952282I-228J-14777D01*
G01*
G02X3800927Y4951264I-1564J-6690D01*
G01*
G02X3802295Y4949638I-2377J-3390D01*
G01*
G02X3802714Y4947409I-4532J-2005D01*
G01*
G02X3802239Y4945378I-4391J-45D01*
G01*
G02X3800806Y4943629I-5003J2637D01*
G01*
G02X3798356Y4942348I-3866J4411D01*
G01*
G02X3794714Y4941920I-3375J13015D01*
G01*
G02X3790154Y4942206I-732J24823D01*
G01*
G02X3787175Y4943227I1125J8138D01*
G01*
G02X3786295Y4944131I1884J2711D01*
G01*
G02X3785667Y4945479I4428J2886D01*
G01*
G02X3785164Y4949500I12999J3667D01*
G01*
D3*
X3799982Y5018168D2*
Y5047080D1*
X3791236D1*
Y5021143D1*
G02X3790625Y5017199I-11799J-189D01*
G01*
G02X3788786Y5014248I-7379J2548D01*
G01*
G02X3786005Y5012409I-5779J5718D01*
G01*
G02X3782572Y5011795I-3320J8654D01*
G01*
G02X3779215Y5012409I-98J8947D01*
G01*
G02X3776459Y5014248I3030J7527D01*
G01*
G02X3774619Y5017199I5560J5515D01*
G01*
G02X3774007Y5021143I11143J3751D01*
G01*
Y5047080D1*
X3765261D1*
Y5003593D1*
X3774007D1*
Y5008197D1*
X3774188D1*
G03X3779022Y5004366I10275J8002D01*
G01*
G03X3785407Y5003091I6116J13997D01*
G01*
G03X3790457Y5004047I0J13806D01*
G01*
G03X3795277Y5006919I-6641J16629D01*
G01*
G03X3798807Y5011647I-7514J9292D01*
G01*
G03X3799688Y5014682I-13193J5473D01*
G01*
G03X3799982Y5018168I-19129J3368D01*
G01*
D3*
X3755331Y5003593D2*
Y5047080D1*
X3746585D1*
Y5042436D1*
X3746425D1*
G03X3741554Y5046297I-10326J-8025D01*
G01*
G03X3735106Y5047583I-6183J-14195D01*
G01*
G03X3730441Y5046743I-6J-13342D01*
G01*
G03X3726020Y5044226I5808J-15343D01*
G01*
X3732332Y5036686D1*
G02X3735207Y5038299I7021J-9148D01*
G01*
G02X3738122Y5038837I2954J-7836D01*
G01*
G02X3743962Y5036676I1J-8967D01*
G01*
G02X3745930Y5033857I-4212J-5038D01*
G01*
G02X3746585Y5029728I-10968J-3856D01*
G01*
Y5003593D1*
X3755331D1*
X3887929Y4934379D2*
Y4938904D1*
G03X3893031Y4935134I11523J10257D01*
G01*
G03X3899169Y4933877I5988J13625D01*
G01*
G03X3902908Y4934269I115J16911D01*
G01*
G03X3906085Y4935445I-2682J12128D01*
G01*
G03X3910810Y4939486I-6635J12541D01*
G01*
G03X3913285Y4944955I-9814J7736D01*
G01*
G03X3913749Y4949339I-32405J5651D01*
G01*
G03X3913906Y4956175I-125305J6282D01*
G01*
G03X3913749Y4962925I-122313J548D01*
G01*
G03X3913285Y4967252I-32069J-1255D01*
G01*
G03X3910810Y4972722I-12570J-2393D01*
G01*
G03X3906085Y4976762I-11828J-9047D01*
G01*
G03X3902908Y4977967I-5886J-10731D01*
G01*
G03X3899169Y4978371I-3644J-16210D01*
G01*
G03X3893089Y4976944I-174J-12918D01*
G01*
G03X3887929Y4973224I10978J-20670D01*
G01*
Y4995420D1*
X3879182D1*
Y4934379D1*
X3887929D1*
X4012715Y5011795D2*
G02X4009937Y5012060I-120J13435D01*
G01*
G02X4007776Y5012853I1489J7404D01*
G01*
G02X4005302Y5016026I2549J4538D01*
G01*
G02X4004068Y5025285I31892J8961D01*
G01*
G02X4005302Y5034573I33312J302D01*
G01*
G02X4007776Y5037772I5050J-1350D01*
G01*
G02X4009937Y5038570I3586J-6387D01*
G01*
G02X4012715Y5038837I2626J-12705D01*
G01*
G02X4015482Y5038560I119J-12773D01*
G01*
G02X4017633Y5037736I-1477J-7073D01*
G01*
G02X4020083Y5034433I-2765J-4611D01*
G01*
G02X4021299Y5025285I-33083J-9054D01*
G01*
G02X4020083Y5016178I-33993J-93D01*
G01*
G02X4017633Y5012890I-5181J1303D01*
G01*
G02X4015482Y5012070I-3666J6383D01*
G01*
G02X4012715Y5011795I-2614J12281D01*
G01*
D3*
X3653112Y5022028D2*
X3680190D1*
G02X3679463Y5017332I-13811J-266D01*
G01*
G02X3677278Y5013978I-7816J2703D01*
G01*
G02X3673961Y5011965I-6544J7043D01*
G01*
G02X3669836Y5011293I-3974J11400D01*
G01*
G02X3664749Y5012343I-80J12461D01*
G01*
G02X3660289Y5015495I5937J13134D01*
G01*
X3653955Y5010087D1*
G03X3657394Y5006850I15860J13406D01*
G01*
G03X3661234Y5004698I10077J13478D01*
G01*
G03X3669678Y5003091I8379J21029D01*
G01*
G03X3676269Y5004172I-6J20663D01*
G01*
G03X3682655Y5007421I-8254J24120D01*
G01*
G03X3685404Y5010155I-6324J9110D01*
G01*
G03X3687367Y5014024I-12700J8877D01*
G01*
G03X3688547Y5019028I-24573J8435D01*
G01*
G03X3688938Y5025164I-44038J5887D01*
G01*
G03X3688576Y5031028I-43175J276D01*
G01*
G03X3687488Y5035908I-27227J-3508D01*
G01*
G03X3685673Y5039808I-16375J-5248D01*
G01*
G03X3683138Y5042727I-10568J-6620D01*
G01*
G03X3677203Y5046369I-14321J-16680D01*
G01*
G03X3671005Y5047583I-6220J-15329D01*
G01*
G03X3664293Y5046341I-129J-18071D01*
G01*
G03X3658478Y5042617I7074J-17447D01*
G01*
G03X3654454Y5036787I10785J-11747D01*
G01*
G03X3653112Y5029226I18858J-7248D01*
G01*
Y5022028D1*
X3886345Y5010831D2*
X3880234Y5016882D1*
G02X3873951Y5012689I-13738J13780D01*
G01*
G02X3866525Y5011293I-7246J18092D01*
G01*
G02X3863125Y5011646I-130J15298D01*
G01*
G02X3860371Y5012701I2110J9626D01*
G01*
G02X3858545Y5014449I2317J4249D01*
G01*
G02X3857938Y5016882I4153J2327D01*
G01*
G02X3858272Y5018573I4073J76D01*
G01*
G02X3859272Y5019848I3100J-1404D01*
G01*
G02X3860934Y5020705I3125J-4022D01*
G01*
G02X3863266Y5021143I3069J-9907D01*
G01*
X3870966Y5021867D1*
G03X3875911Y5022957I-1097J16750D01*
G01*
G03X3879930Y5025417I-4914J12540D01*
G01*
G03X3882604Y5029180I-6560J7492D01*
G01*
G03X3883492Y5034173I-12368J4776D01*
G01*
G03X3882331Y5039983I-13732J276D01*
G01*
G03X3878846Y5044185I-9756J-4544D01*
G01*
G03X3873635Y5046734I-9847J-13534D01*
G01*
G03X3867289Y5047583I-6115J-21560D01*
G01*
G03X3862000Y5047181I-181J-32644D01*
G01*
G03X3857525Y5045975I3509J-21925D01*
G01*
G03X3850238Y5041672I9602J-24583D01*
G01*
X3855646Y5035299D1*
G02X3861003Y5038203I16549J-24133D01*
G01*
G02X3867289Y5039340I6012J-15300D01*
G01*
G02X3870833Y5038967I279J-14384D01*
G01*
G02X3873108Y5037853I-1118J-5161D01*
G01*
G02X3874745Y5034093I-3229J-3643D01*
G01*
G02X3874442Y5032718I-3181J-20D01*
G01*
G02X3873529Y5031449I-4014J1926D01*
G01*
G02X3871789Y5030475I-2886J3116D01*
G01*
G02X3868996Y5029990I-3477J11723D01*
G01*
X3861798Y5029487D1*
G03X3858659Y5029052I1283J-20834D01*
G01*
G03X3856000Y5028213I2934J-13916D01*
G01*
G03X3852115Y5025316I3728J-9054D01*
G01*
G03X3849924Y5021248I10447J-8252D01*
G01*
G03X3849190Y5016459I14547J-4679D01*
G01*
G03X3850503Y5010780I12038J-210D01*
G01*
G03X3854429Y5006568I10147J5524D01*
G01*
G03X3860243Y5003959I10931J16575D01*
G01*
G03X3867206Y5003091I6705J25398D01*
G01*
G03X3877419Y5005025I179J26982D01*
G01*
G03X3886345Y5010831I-11035J26732D01*
G01*
D3*
X3680190Y5029226D2*
X3661836D1*
G02X3662629Y5033556I14277J-375D01*
G01*
G02X3664601Y5036736I8292J-2942D01*
G01*
G02X3667484Y5038689I6158J-5987D01*
G01*
G02X3671005Y5039340I3423J-8667D01*
G01*
G02X3674573Y5038689I97J-9572D01*
G01*
G02X3677479Y5036736I-3250J-7973D01*
G01*
G02X3679445Y5033556I-6189J-6024D01*
G01*
G02X3680190Y5029226I-13273J-4514D01*
G01*
D3*
X4030045Y4934379D2*
Y5047080D1*
X4021299D1*
Y5042517D1*
G03X4016207Y5046316I-11519J-10127D01*
G01*
G03X4010059Y5047583I-6004J-13589D01*
G01*
G03X4006353Y5047181I-130J-16099D01*
G01*
G03X4003193Y5045975I2744J-11934D01*
G01*
G03X3998419Y5041933I7463J-13655D01*
G01*
G03X3995966Y5036463I10504J-7995D01*
G01*
G03X3995483Y5032112I30846J-5626D01*
G01*
G03X3995323Y5025285I123193J-6304D01*
G01*
G03X3995483Y5018501I121754J-520D01*
G01*
G03X3995966Y5014148I31259J1265D01*
G01*
G03X3998419Y5008699I12695J2438D01*
G01*
G03X4003193Y5004659I11741J9032D01*
G01*
G03X4006353Y5003482I5788J10708D01*
G01*
G03X4010059Y5003091I3593J16298D01*
G01*
G03X4016161Y5004466I223J13236D01*
G01*
G03X4021299Y5008197I-9902J19038D01*
G01*
Y4973224D1*
X4021135D1*
G03X4016268Y4977083I-10362J-8073D01*
G01*
G03X4009818Y4978371I-6179J-14141D01*
G01*
G03X4004840Y4977407I23J-13445D01*
G01*
G03X4000038Y4974520I6839J-16811D01*
G01*
G03X3996501Y4969787I7554J-9333D01*
G01*
G03X3995619Y4966760I12917J-5405D01*
G01*
G03X3995323Y4963291I18616J-3339D01*
G01*
Y4934379D1*
X4004068D1*
Y4960276D1*
G02X4004680Y4964196I11663J188D01*
G01*
G02X4006521Y4967151I7472J-2604D01*
G01*
G02X4009274Y4969005I5832J-5687D01*
G01*
G02X4012633Y4969623I3241J-8176D01*
G01*
G02X4016067Y4969005I118J-9192D01*
G01*
G02X4018845Y4967151I-2980J-7473D01*
G01*
G02X4020686Y4964196I-5631J-5559D01*
G01*
G02X4021299Y4960276I-11095J-3743D01*
G01*
Y4934379D1*
X4030045D1*
X3844610Y5170980D2*
D29*
G02X3883080Y5170980I19235J41791D01*
G01*
G03X3882013Y5168274I876J-1909D01*
G01*
X3909591Y5100727D1*
G03X3912343Y5099579I1948J797D01*
G01*
X3927322Y5105785D1*
G02X3929307Y5105584I806J-1946D01*
G01*
X3962255Y5083294D1*
G03X3964919Y5083547I1179J1736D01*
G01*
X3993068Y5111697D1*
G03X3993322Y5114362I-1484J1486D01*
G01*
X3971031Y5147307D1*
G02X3970831Y5149290I1762J1180D01*
G01*
X3984383Y5182007D1*
G02X3985927Y5183268I1943J-803D01*
G01*
X4024983Y5190802D1*
G03X4026688Y5192865I-394J2062D01*
G01*
Y5232675D1*
G03X4024983Y5234740I-2099J4D01*
G01*
X3985927Y5242274D1*
G02X3984383Y5243534I395J2059D01*
G01*
X3970831Y5276249D1*
G02X3971031Y5278232I1963J803D01*
G01*
X3993322Y5311180D1*
G03X3993068Y5313845I-1738J1180D01*
G01*
X3964919Y5341995D1*
G03X3962255Y5342248I-1485J-1483D01*
G01*
X3929307Y5319958D1*
G02X3927322Y5319757I-1179J1746D01*
G01*
X3894609Y5333310D1*
G02X3893349Y5334853I799J1938D01*
G01*
X3885814Y5373911D1*
G03X3883749Y5375615I-2067J-401D01*
G01*
X3843941D1*
G03X3841877Y5373911I1J-2103D01*
G01*
X3834341Y5334853D1*
G02X3833081Y5333310I-2059J395D01*
G01*
X3800364Y5319757D1*
G02X3798383Y5319958I-804J1937D01*
G01*
X3765436Y5342248D1*
G03X3762769Y5341995I-1180J-1741D01*
G01*
X3734622Y5313845D1*
G03X3734367Y5311180I1481J-1486D01*
G01*
X3756657Y5278232D1*
G02X3756858Y5276249I-1740J-1178D01*
G01*
X3743308Y5243534D1*
G02X3741761Y5242274I-1945J808D01*
G01*
X3702705Y5234740D1*
G03X3701000Y5232675I401J-2067D01*
G01*
Y5192865D1*
G03X3702705Y5190802I2106J4D01*
G01*
X3741761Y5183268D1*
G02X3743308Y5182007I-402J-2073D01*
G01*
X3756858Y5149290D1*
G02X3756657Y5147307I-1941J-805D01*
G01*
X3734367Y5114362D1*
G03X3734622Y5111697I1736J-1179D01*
G01*
X3762769Y5083547D1*
G03X3765436Y5083294I1487J1488D01*
G01*
X3798383Y5105584D1*
G02X3800364Y5105785I1176J-1736D01*
G01*
X3815346Y5099579D1*
G03X3818097Y5100727I803J1944D01*
G01*
X3845675Y5168274D1*
G03X3844610Y5170980I-1941J799D01*
G01*
G36*
X2193944Y5519260D2*
Y5421228D1*
X2204574D1*
Y5519260D1*
X2193944D1*
G37*
G36*
X2223472D2*
Y5421228D1*
X2234102D1*
Y5519260D1*
X2223472D1*
G37*
G36*
X2993551D2*
Y5462567D1*
X2992298Y5461284D1*
X2991687Y5461476D1*
X2991188Y5462567D1*
X2986464Y5468472D1*
X2968747Y5487370D1*
X2965204Y5490913D1*
X2951031D1*
X2979377Y5462567D1*
X2978989Y5461134D1*
X2978196Y5460204D1*
X2959299Y5436582D1*
X2953393Y5429496D1*
X2948669Y5423590D1*
X2947488Y5421228D1*
X2961661D1*
X2964023Y5423590D1*
X2967566Y5428315D1*
X2972291Y5434220D1*
X2979377Y5443669D1*
X2984102Y5449575D1*
X2987645Y5454299D1*
X2988527Y5455057D1*
X2989139Y5454988D1*
X2990007Y5454299D1*
X2993551Y5450756D1*
Y5421228D1*
X3004181D1*
Y5519260D1*
X2993551D1*
G37*
G36*
X2571897Y5516897D2*
X2562448Y5514535D1*
X2558905Y5513354D1*
X2551818Y5509811D1*
Y5494456D1*
X2558905Y5500362D1*
X2560086Y5501543D1*
X2564810Y5503905D1*
X2571897Y5506267D1*
X2576621Y5507449D1*
X2581346D1*
X2590795Y5505086D1*
X2593157Y5503905D1*
X2594338Y5502724D1*
X2596700Y5501543D1*
X2602606Y5495638D1*
Y5494456D1*
X2604968Y5490913D1*
X2607330Y5483827D1*
X2608511Y5479102D1*
X2609692Y5477921D1*
Y5457842D1*
X2608511Y5456661D1*
X2607330Y5451937D1*
X2604968Y5444850D1*
X2602606Y5441307D1*
Y5440126D1*
X2595519Y5433039D1*
X2590795Y5430677D1*
X2581346Y5428315D1*
X2576621D1*
X2571897Y5429496D1*
X2564810Y5431858D1*
X2560086Y5434220D1*
X2558905Y5435401D1*
X2551818Y5441307D1*
Y5427134D1*
X2552999Y5425953D1*
X2560086Y5422409D1*
X2567173Y5420047D1*
X2571897Y5418866D1*
X2587251D1*
X2591976Y5420047D1*
X2599062Y5422409D1*
X2606149Y5427134D1*
X2612055Y5433039D1*
X2614417Y5436582D1*
X2617960Y5443669D1*
X2619141Y5447212D1*
X2620322Y5451937D1*
X2621503Y5457842D1*
Y5477921D1*
X2620322Y5483827D1*
X2619141Y5488551D1*
X2617960Y5490913D1*
X2616779Y5494456D1*
X2614417Y5498000D1*
X2613236Y5500362D1*
X2602606Y5510992D1*
X2595519Y5514535D1*
X2591976Y5515716D1*
X2586070Y5516897D1*
X2571897D1*
G37*
G36*
X2690007D2*
X2680558Y5514535D1*
X2677015Y5513354D1*
X2669929Y5509811D1*
Y5494456D1*
X2677015Y5500362D1*
X2678196Y5501543D1*
X2682921Y5503905D1*
X2690007Y5506267D1*
X2694732Y5507449D1*
X2699456D1*
X2708905Y5505086D1*
X2711267Y5503905D1*
X2712448Y5502724D1*
X2714810Y5501543D1*
X2720716Y5495638D1*
Y5494456D1*
X2723078Y5490913D1*
X2725440Y5483827D1*
X2726621Y5479102D1*
X2727803Y5477921D1*
Y5457842D1*
X2726621Y5456661D1*
X2725440Y5451937D1*
X2723078Y5444850D1*
X2720716Y5441307D1*
Y5440126D1*
X2713629Y5433039D1*
X2708905Y5430677D1*
X2699456Y5428315D1*
X2694732D1*
X2690007Y5429496D1*
X2682921Y5431858D1*
X2678196Y5434220D1*
X2677015Y5435401D1*
X2669929Y5441307D1*
Y5427134D1*
X2671110Y5425953D1*
X2678196Y5422409D1*
X2685283Y5420047D1*
X2690007Y5418866D1*
X2705362D1*
X2710086Y5420047D1*
X2717173Y5422409D1*
X2724259Y5427134D1*
X2730165Y5433039D1*
X2732527Y5436582D1*
X2736070Y5443669D1*
X2737251Y5447212D1*
X2738432Y5451937D1*
X2739614Y5457842D1*
Y5477921D1*
X2738432Y5483827D1*
X2737251Y5488551D1*
X2736070Y5490913D1*
X2734889Y5494456D1*
X2732527Y5498000D1*
X2731346Y5500362D1*
X2720716Y5510992D1*
X2713629Y5514535D1*
X2710086Y5515716D1*
X2704181Y5516897D1*
X2690007D1*
G37*
G36*
X2854181D2*
X2844732Y5514535D1*
X2841188Y5513354D1*
X2834102Y5509811D1*
Y5494456D1*
X2841188Y5500362D1*
X2842370Y5501543D1*
X2847094Y5503905D1*
X2854181Y5506267D1*
X2858905Y5507449D1*
X2863629D1*
X2873078Y5505086D1*
X2875440Y5503905D1*
X2876621Y5502724D1*
X2878984Y5501543D1*
X2884889Y5495638D1*
Y5494456D1*
X2887251Y5490913D1*
X2889614Y5483827D1*
X2890795Y5479102D1*
X2891976Y5477921D1*
Y5457842D1*
X2890795Y5456661D1*
X2889614Y5451937D1*
X2887251Y5444850D1*
X2884889Y5441307D1*
Y5440126D1*
X2877803Y5433039D1*
X2873078Y5430677D1*
X2863629Y5428315D1*
X2858905D1*
X2854181Y5429496D1*
X2847094Y5431858D1*
X2842370Y5434220D1*
X2841188Y5435401D1*
X2834102Y5441307D1*
Y5427134D1*
X2835283Y5425953D1*
X2842370Y5422409D1*
X2849456Y5420047D1*
X2854181Y5418866D1*
X2869535D1*
X2874259Y5420047D1*
X2881346Y5422409D1*
X2888432Y5427134D1*
X2894338Y5433039D1*
X2896700Y5436582D1*
X2900244Y5443669D1*
X2901425Y5447212D1*
X2902606Y5451937D1*
X2903787Y5457842D1*
Y5477921D1*
X2902606Y5483827D1*
X2901425Y5488551D1*
X2900244Y5490913D1*
X2899062Y5494456D1*
X2896700Y5498000D1*
X2895519Y5500362D1*
X2884889Y5510992D1*
X2877803Y5514535D1*
X2874259Y5515716D1*
X2868354Y5516897D1*
X2854181D1*
G37*
G36*
X3272291Y5469653D2*
X3269929Y5467291D1*
X3268747Y5464929D1*
X3267566Y5461386D1*
X3266385Y5454299D1*
Y5448393D1*
X3267566Y5441307D1*
X3268747Y5437764D1*
X3272291Y5430677D1*
X3279377Y5423590D1*
X3286464Y5420047D1*
X3291188Y5418866D1*
X3301818D1*
X3308905Y5421228D1*
X3311267Y5422409D1*
X3319535Y5430677D1*
X3323078Y5437764D1*
X3325440Y5444850D1*
X3326621Y5451937D1*
Y5473197D1*
X3325440Y5480283D1*
X3324259Y5486189D1*
X3323078Y5489732D1*
X3321897Y5492094D1*
X3320716Y5495638D1*
X3318354Y5499181D1*
X3317173Y5501543D1*
X3307724Y5510992D1*
X3300637Y5514535D1*
X3297094Y5515716D1*
X3292370Y5516897D1*
X3278196D1*
X3274653Y5515716D1*
Y5505086D1*
X3275834D1*
X3279377Y5506267D1*
X3284102Y5507449D1*
X3288826D1*
X3293551Y5506267D1*
X3297094Y5505086D1*
X3301818Y5502724D1*
X3308905Y5495638D1*
Y5494456D1*
X3311267Y5489732D1*
X3312448Y5486189D1*
X3313629Y5480283D1*
X3314810Y5479102D1*
Y5475559D1*
X3313370Y5474326D1*
X3312448Y5474378D1*
X3310086Y5476740D1*
X3307724Y5477921D1*
X3304181Y5479102D1*
X3299456Y5480283D1*
X3287645D1*
X3280558Y5477921D1*
X3277015Y5475559D1*
X3272291Y5470834D1*
Y5469653D1*
X3290007D1*
X3294732Y5470834D1*
X3299456D1*
X3304181Y5469653D1*
X3311267Y5467291D1*
X3313629Y5466110D1*
X3314810Y5464929D1*
Y5448393D1*
X3313629Y5447212D1*
X3312448Y5442488D1*
X3311267Y5438945D1*
X3308905Y5435401D1*
X3308517Y5433968D1*
X3307724Y5433039D1*
X3305362Y5431858D1*
X3304181Y5430677D1*
X3301818Y5429496D1*
X3297881Y5428315D1*
X3293944D1*
X3290007Y5429496D1*
X3285283Y5431858D1*
X3281740Y5435401D1*
Y5436582D1*
X3280558Y5438945D1*
X3279377Y5443669D1*
X3278196Y5444850D1*
Y5455480D1*
X3279377Y5456661D1*
X3280558Y5461386D1*
Y5462567D1*
X3285283Y5467291D1*
X3290007Y5469653D1*
X3272291D1*
G37*
G36*
X1745125Y5514535D2*
Y5505086D1*
X1784102Y5503905D1*
Y5480283D1*
X1767566Y5479102D1*
X1761661Y5477921D1*
X1754574Y5474378D1*
X1748669Y5468472D1*
X1746307Y5463748D1*
X1745125Y5460204D1*
X1743944Y5451937D1*
Y5449575D1*
X1745125Y5441307D1*
X1746307Y5437764D1*
X1749850Y5430677D1*
X1756936Y5423590D1*
X1761661Y5421228D1*
X1765204Y5420047D1*
X1769929Y5418866D1*
X1782921D1*
X1788826Y5420047D1*
X1793551Y5421228D1*
X1799456Y5423590D1*
Y5436582D1*
X1790007Y5431858D1*
X1786464Y5430677D1*
X1781740Y5429496D1*
X1777803Y5428315D1*
X1773866D1*
X1769929Y5429496D1*
X1766385Y5430677D1*
X1764023Y5431858D1*
X1759299Y5436582D1*
Y5437764D1*
X1758118Y5440126D1*
X1756936Y5444850D1*
X1755755Y5446031D1*
Y5454299D1*
X1756936Y5455480D1*
X1758118Y5460204D1*
Y5461386D1*
X1762842Y5466110D1*
X1765204Y5467291D1*
X1769929Y5468472D1*
X1775834Y5469653D1*
X1781740D1*
X1787645Y5468472D1*
X1794732Y5467291D1*
X1795913D1*
Y5514535D1*
X1745125D1*
G37*
G36*
X1908118D2*
Y5430677D1*
X1891582Y5429496D1*
Y5421228D1*
X1935283D1*
Y5429496D1*
X1918747Y5430677D1*
Y5493275D1*
X1935283Y5494456D1*
Y5501543D1*
X1928196Y5502724D1*
X1923472Y5503905D1*
X1921110Y5505086D1*
X1917566Y5508630D1*
Y5510992D1*
X1916385Y5514535D1*
X1908118D1*
G37*
G36*
X1951818D2*
Y5512173D1*
X1961267Y5483827D1*
X1962448Y5481464D1*
X1971897Y5453118D1*
X1973078Y5450756D1*
X1982527Y5422409D1*
X1983708Y5421228D1*
X1996700D1*
X2006149Y5449575D1*
X2007330Y5451937D1*
X2016779Y5480283D1*
X2017960Y5482645D1*
X2027409Y5510992D1*
X2028590Y5513354D1*
Y5514535D1*
X2016779D1*
X2015598Y5513354D1*
X1990795Y5438945D1*
X1990495Y5437551D1*
X1989545Y5436474D1*
X1988936Y5436670D1*
X1988175Y5437971D1*
X1988432Y5438945D1*
X1963629Y5513354D1*
X1962448Y5514535D1*
X1951818D1*
G37*
G36*
X2754968D2*
Y5421228D1*
X2767960D1*
X2782133Y5449575D1*
X2784495Y5453118D1*
X2807532Y5499173D1*
X2808171Y5500264D1*
X2809010Y5501101D1*
X2809613Y5501046D1*
X2810480Y5500362D1*
Y5421228D1*
X2821110D1*
Y5514535D1*
X2803393D1*
X2767960Y5443669D1*
X2767660Y5442276D1*
X2766710Y5441198D1*
X2766098Y5441397D1*
X2765598Y5442488D1*
Y5514535D1*
X2754968D1*
G37*
G36*
X3151818Y5503905D2*
X3149456Y5501543D1*
X3147094Y5496819D1*
X3145913Y5493275D1*
Y5480283D1*
X3148275Y5473197D1*
X3150637Y5469653D1*
X3157724Y5462567D1*
X3161267Y5460204D1*
X3168354Y5457842D1*
X3173078Y5456661D1*
X3193157Y5455480D1*
Y5421228D1*
X3203787D1*
Y5514535D1*
X3171897D1*
X3165992Y5513354D1*
X3162448Y5512173D1*
X3157724Y5509811D1*
X3154181Y5507449D1*
X3151818Y5505086D1*
Y5503905D1*
X3171897D1*
X3178984Y5505086D1*
X3186070D1*
X3193157Y5503905D1*
Y5467291D1*
X3186464Y5466110D1*
X3179771D1*
X3173078Y5467291D1*
X3168354Y5468472D1*
X3165992Y5469653D1*
X3160086Y5475559D1*
Y5476740D1*
X3158905Y5479102D1*
X3157724Y5480283D1*
Y5492094D1*
X3158905Y5493275D1*
Y5495638D1*
X3164810Y5501543D1*
X3171897Y5503905D1*
X3151818D1*
G37*
G36*
X2385283Y5510992D2*
Y5492094D1*
X2362842Y5490913D1*
Y5482645D1*
X2385283Y5481464D1*
Y5441307D1*
X2384102Y5440126D1*
Y5435401D1*
X2380558Y5431858D1*
X2378196Y5430677D1*
X2374259Y5429496D1*
X2370322D1*
X2366385Y5430677D1*
X2364023Y5431858D1*
X2362842D1*
Y5422409D1*
X2364023Y5421228D1*
X2369929Y5420047D1*
X2380558D1*
X2384102Y5421228D1*
X2388826Y5423590D1*
X2391188Y5425953D1*
X2393551Y5429496D1*
X2394732Y5433039D1*
X2395913Y5440126D1*
Y5481464D1*
X2402999Y5482645D1*
Y5490913D1*
X2395913Y5492094D1*
Y5510992D1*
X2385283D1*
G37*
G36*
X1817173Y5481464D2*
X1816784Y5480031D1*
X1815992Y5479102D1*
X1814810Y5476740D1*
X1813629Y5473197D1*
X1812448Y5468472D1*
Y5448393D1*
X1813629Y5443669D1*
X1814810Y5440126D1*
X1818354Y5433039D1*
X1820716Y5429496D1*
X1824259Y5425953D1*
X1827803Y5423590D1*
X1832527Y5421228D1*
X1836070Y5420047D1*
X1847881D1*
X1854968Y5422409D1*
X1857330Y5423590D1*
X1858212Y5424349D1*
X1858824Y5424280D1*
X1859692Y5423590D1*
Y5395244D1*
X1870322D1*
Y5490913D1*
X1859692D1*
Y5486189D1*
X1858252Y5484956D1*
X1857330Y5485008D1*
X1853787Y5488551D1*
X1846700Y5492094D1*
X1841976Y5493275D1*
X1832527D1*
X1828984Y5492094D1*
X1824259Y5489732D1*
X1818354Y5483827D1*
X1817173Y5481464D1*
X1834889D1*
X1838826Y5482645D1*
X1842763D1*
X1846700Y5481464D1*
X1850244Y5480283D1*
X1854968Y5477921D1*
X1856149Y5476740D1*
X1858511Y5475559D1*
X1859692Y5474378D1*
Y5434220D1*
X1858511Y5433039D1*
X1851425Y5430677D1*
X1846700Y5429496D1*
X1841976D1*
X1837251Y5430677D1*
X1832527Y5433039D1*
X1826621Y5438945D1*
Y5440126D1*
X1825440Y5443669D1*
X1824259Y5448393D1*
X1823078Y5449575D1*
Y5463748D1*
X1824259Y5464929D1*
X1825440Y5470834D1*
X1826621Y5474378D1*
Y5475559D1*
X1830165Y5479102D1*
X1834889Y5481464D1*
X1817173D1*
G37*
G36*
X2126621Y5483827D2*
X2125440Y5482645D1*
X2123078Y5479102D1*
X2121897Y5475559D1*
X2120716Y5470834D1*
Y5455480D1*
X2169141Y5454299D1*
Y5446031D1*
X2167960Y5444850D1*
X2166779Y5441307D1*
Y5440126D1*
X2160873Y5434220D1*
X2156149Y5431858D1*
X2152606Y5430677D1*
X2147881Y5429496D1*
X2143157D1*
X2133708Y5431858D1*
X2130165Y5433039D1*
X2123078Y5436582D1*
X2121897Y5437764D1*
Y5425953D1*
X2123078Y5424771D1*
X2128984Y5422409D1*
X2138432Y5420047D1*
X2152606D1*
X2157330Y5421228D1*
X2160873Y5422409D1*
X2167960Y5425953D1*
X2173866Y5431858D1*
X2176228Y5435401D1*
X2177409Y5437764D1*
X2179771Y5444850D1*
X2180952Y5455480D1*
Y5456661D1*
X2179771Y5467291D1*
X2177409Y5474378D1*
X2175047Y5479102D1*
X2172684Y5482645D1*
X2169141Y5486189D1*
X2164417Y5489732D1*
X2162055Y5490913D1*
X2158511Y5492094D1*
X2153787Y5493275D1*
X2141976D1*
X2137251Y5492094D1*
X2132527Y5489732D1*
X2126621Y5483827D1*
X2141976D1*
X2146307Y5485008D1*
X2150637D1*
X2154968Y5483827D1*
X2158511Y5482645D1*
X2160873Y5481464D1*
X2166779Y5475559D1*
Y5474378D1*
X2167960Y5470834D1*
X2169141Y5469653D1*
Y5464929D1*
X2156149Y5463748D1*
X2143157D1*
X2130165Y5464929D1*
Y5467291D1*
X2131346Y5468472D1*
X2132527Y5474378D1*
X2133708Y5476740D1*
Y5477921D1*
X2137251Y5481464D1*
X2141976Y5483827D1*
X2126621D1*
G37*
G36*
X2255362Y5482645D2*
Y5481464D1*
X2252999Y5479102D1*
X2250637Y5474378D1*
X2249456Y5470834D1*
X2248275Y5466110D1*
Y5446031D1*
X2249456Y5441307D1*
X2250637Y5437764D1*
X2254181Y5430677D1*
X2261267Y5423590D1*
X2268354Y5420047D1*
X2273078Y5418866D1*
X2284889D1*
X2289614Y5420047D1*
X2293157Y5421228D1*
X2296700Y5423590D1*
X2303787Y5430677D1*
X2306149Y5434220D1*
X2307330Y5437764D1*
X2308511Y5440126D1*
X2309692Y5444850D1*
Y5467291D1*
X2308511Y5472016D1*
X2307330Y5475559D1*
X2306149Y5477921D1*
X2303787Y5481464D1*
X2296700Y5488551D1*
X2289614Y5492094D1*
X2284889Y5493275D1*
X2273078D1*
X2268354Y5492094D1*
X2261267Y5488551D1*
X2255362Y5482645D1*
X2273078D1*
X2277015Y5483827D1*
X2280952D1*
X2284889Y5482645D1*
X2288432Y5481464D1*
X2290795Y5480283D1*
X2294338Y5476740D1*
Y5475559D1*
X2296700Y5470834D1*
X2297881Y5467291D1*
X2299062Y5466110D1*
Y5447212D1*
X2297881Y5446031D1*
X2296700Y5441307D1*
X2294338Y5436582D1*
Y5435401D1*
X2290795Y5431858D1*
X2288432Y5430677D1*
X2284889Y5429496D1*
X2280952Y5428315D1*
X2277015D1*
X2273078Y5429496D1*
X2269535Y5430677D1*
X2268354Y5431858D1*
X2265992Y5433039D1*
X2264591Y5434367D1*
X2264810Y5435401D1*
X2262448Y5438945D1*
X2261267Y5442488D1*
X2260086Y5447212D1*
X2258905Y5448393D1*
Y5463748D1*
X2260086Y5464929D1*
X2261267Y5469653D1*
X2262448Y5473197D1*
X2264810Y5476740D1*
X2265040Y5477577D1*
X2265992Y5479102D1*
X2273078Y5482645D1*
X2255362D1*
G37*
G36*
X2431346Y5493275D2*
X2426621Y5492094D1*
X2424259Y5490913D1*
X2418354Y5485008D1*
X2415992Y5480283D1*
X2414810Y5476740D1*
Y5421228D1*
X2424259D1*
X2425440Y5462567D1*
X2426621Y5474378D1*
Y5476740D1*
X2430165Y5480283D1*
X2432527Y5481464D1*
X2436464Y5482645D1*
X2440401D1*
X2444338Y5481464D1*
X2447881Y5480283D1*
X2450244Y5479102D1*
X2451425Y5477921D1*
X2453787Y5476740D1*
X2457330Y5473197D1*
Y5421228D1*
X2467960D1*
Y5490913D1*
X2457330D1*
Y5485008D1*
X2456078Y5483725D1*
X2455466Y5483917D1*
X2454968Y5485008D1*
X2452606Y5487370D1*
X2449062Y5489732D1*
X2444338Y5492094D1*
X2439614Y5493275D1*
X2431346D1*
G37*
G36*
X2489220Y5482645D2*
Y5481464D1*
X2486858Y5479102D1*
X2484495Y5474378D1*
X2483314Y5470834D1*
X2482133Y5466110D1*
Y5446031D1*
X2483314Y5441307D1*
X2484495Y5437764D1*
X2488039Y5430677D1*
X2495125Y5423590D1*
X2502212Y5420047D1*
X2506936Y5418866D1*
X2518747D1*
X2523472Y5420047D1*
X2527015Y5421228D1*
X2530558Y5423590D1*
X2537645Y5430677D1*
X2540007Y5434220D1*
X2541188Y5437764D1*
X2542370Y5440126D1*
X2543551Y5444850D1*
Y5467291D1*
X2542370Y5472016D1*
X2541188Y5475559D1*
X2540007Y5477921D1*
X2537645Y5481464D1*
X2530558Y5488551D1*
X2523472Y5492094D1*
X2518747Y5493275D1*
X2506936D1*
X2502212Y5492094D1*
X2495125Y5488551D1*
X2489220Y5482645D1*
X2506936D1*
X2510873Y5483827D1*
X2514810D1*
X2518747Y5482645D1*
X2522291Y5481464D1*
X2524653Y5480283D1*
X2528196Y5476740D1*
Y5475559D1*
X2530558Y5470834D1*
X2531740Y5467291D1*
X2532921Y5466110D1*
Y5447212D1*
X2531740Y5446031D1*
X2530558Y5441307D1*
X2528196Y5436582D1*
Y5435401D1*
X2524653Y5431858D1*
X2522291Y5430677D1*
X2518747Y5429496D1*
X2514810Y5428315D1*
X2510873D1*
X2506936Y5429496D1*
X2503393Y5430677D1*
X2502212Y5431858D1*
X2499850Y5433039D1*
X2498449Y5434367D1*
X2498669Y5435401D1*
X2496307Y5438945D1*
X2495125Y5442488D1*
X2493944Y5447212D1*
X2492763Y5448393D1*
Y5463748D1*
X2493944Y5464929D1*
X2495125Y5469653D1*
X2496307Y5473197D1*
X2498669Y5476740D1*
X2498898Y5477577D1*
X2499850Y5479102D1*
X2506936Y5482645D1*
X2489220D1*
G37*
G36*
X3031346Y5493275D2*
X3026621Y5492094D1*
X3019535Y5489732D1*
X3017173Y5488551D1*
Y5475559D1*
X3020716Y5477921D1*
X3021897Y5479102D1*
X3024259Y5480283D1*
X3031346Y5482645D1*
X3035283Y5483827D1*
X3039220D1*
X3043157Y5482645D1*
X3046700Y5481464D1*
X3049062Y5480283D1*
X3054968Y5474378D1*
Y5473197D1*
X3056149Y5470834D1*
X3057330Y5466110D1*
X3058511Y5464929D1*
Y5448393D1*
X3057330Y5447212D1*
X3056149Y5442488D1*
X3054968Y5440126D1*
Y5438945D1*
X3049062Y5433039D1*
X3046700Y5431858D1*
X3043157Y5430677D1*
X3038826Y5429496D1*
X3034495D1*
X3030165Y5430677D1*
X3026621Y5431858D1*
X3019535Y5435401D1*
X3017173Y5437764D1*
Y5424771D1*
X3019535Y5423590D1*
X3026621Y5421228D1*
X3031346Y5420047D1*
X3043157D1*
X3047881Y5421228D1*
X3051425Y5422409D1*
X3056149Y5424771D1*
X3064417Y5433039D1*
X3066779Y5437764D1*
X3069141Y5444850D1*
Y5467291D1*
X3067960Y5472016D1*
X3064417Y5479102D1*
X3062055Y5482645D1*
X3057330Y5487370D1*
X3053787Y5489732D1*
X3051425Y5490913D1*
X3047881Y5492094D1*
X3043157Y5493275D1*
X3031346D1*
G37*
G36*
X3083314Y5457842D2*
Y5421228D1*
X3093944D1*
Y5427134D1*
X3094826Y5427892D1*
X3095438Y5427823D1*
X3096307Y5427134D1*
X3099850Y5423590D1*
X3106936Y5420047D1*
X3110480Y5418866D1*
X3121110D1*
X3124653Y5420047D1*
X3129377Y5422409D1*
X3134102Y5427134D1*
X3136464Y5430677D1*
X3137645Y5434220D1*
Y5449575D1*
X3135283Y5454299D1*
X3129377Y5460204D1*
X3122291Y5463748D1*
X3117566Y5464929D1*
X3111661Y5466110D1*
X3102212Y5467291D1*
X3093944Y5468472D1*
Y5475559D1*
X3095125Y5476740D1*
Y5477921D1*
X3097488Y5480283D1*
X3099850Y5481464D1*
X3103393Y5482645D1*
X3108511Y5483827D1*
X3113629D1*
X3118747Y5482645D1*
X3131740Y5479102D1*
X3132921D1*
Y5489732D1*
X3131740Y5490913D1*
X3125834Y5492094D1*
X3118747Y5493275D1*
X3103393D1*
X3097488Y5492094D1*
X3093944Y5490913D1*
X3090401Y5488551D1*
X3086858Y5485008D1*
X3084495Y5481464D1*
X3083314Y5477921D1*
Y5457842D1*
X3093944D1*
X3096307Y5459023D1*
X3098669D1*
X3101031Y5457842D1*
X3110480Y5456661D1*
X3116385Y5455480D1*
X3121110Y5453118D1*
X3123472Y5450756D1*
X3124626Y5449517D1*
X3125601Y5448042D1*
X3125834Y5447212D1*
X3127015Y5446031D1*
Y5436582D1*
X3125834Y5435401D1*
Y5434220D1*
X3122291Y5430677D1*
X3118747Y5429496D1*
X3114810Y5428315D1*
X3110873D1*
X3106936Y5429496D1*
X3103393Y5430677D1*
X3101031Y5431858D1*
X3099850Y5433039D1*
X3097488Y5434220D1*
X3093944Y5437764D1*
Y5457842D1*
X3083314D1*
G37*
G36*
X2069929Y5490913D2*
Y5480283D1*
X2082921Y5479102D1*
X2086464Y5477921D1*
X2091188Y5475559D1*
X2093551Y5473197D1*
X2095913Y5472016D1*
Y5421228D1*
X2106543D1*
Y5490913D1*
X2095913D1*
Y5482645D1*
X2094473Y5481413D1*
X2093551Y5481464D1*
X2090007Y5485008D1*
X2086464Y5487370D1*
X2081740Y5489732D1*
X2078196Y5490913D1*
X2069929D1*
G37*
G36*
X2315598D2*
Y5480283D1*
X2328590Y5479102D1*
X2332133Y5477921D1*
X2336858Y5475559D1*
X2339220Y5473197D1*
X2341582Y5472016D1*
Y5421228D1*
X2352212D1*
Y5490913D1*
X2341582D1*
Y5482645D1*
X2340142Y5481413D1*
X2339220Y5481464D1*
X2335677Y5485008D1*
X2332133Y5487370D1*
X2327409Y5489732D1*
X2323866Y5490913D1*
X2315598D1*
G37*
G36*
X3221503Y5467291D2*
Y5456661D1*
X3255755D1*
Y5467291D1*
X3221503D1*
G37*
G36*
X2815204Y5355086D2*
Y5257055D1*
X2825834D1*
Y5355086D1*
X2815204D1*
G37*
G36*
X2844732Y5317291D2*
X2844343Y5315858D1*
X2843551Y5314929D1*
X2842370Y5312567D1*
X2841188Y5309023D1*
X2840007Y5303118D1*
Y5283039D1*
X2841188Y5278315D1*
X2842370Y5274771D1*
X2845913Y5267685D1*
X2848275Y5264141D1*
X2851818Y5260598D1*
X2855362Y5258236D1*
X2860086Y5255874D1*
X2863629Y5254693D1*
X2874259D1*
X2878984Y5255874D1*
X2883708Y5258236D1*
X2885283Y5259417D1*
X2886858D1*
X2888432Y5258236D1*
Y5257055D1*
X2897881D1*
Y5355086D1*
X2887251D1*
Y5322016D1*
X2885811Y5320783D1*
X2884889Y5320834D1*
X2881346Y5324378D1*
X2874259Y5327921D1*
X2870716Y5329102D1*
X2860086D1*
X2856543Y5327921D1*
X2851818Y5325559D1*
X2847094Y5320834D1*
X2844732Y5317291D1*
X2862448D1*
X2866385Y5318472D1*
X2870322D1*
X2874259Y5317291D1*
X2877803Y5316110D1*
X2884889Y5312567D1*
X2887251Y5310204D1*
Y5268866D1*
X2882527Y5266504D1*
X2877803Y5265323D1*
X2873472Y5264141D1*
X2869141D1*
X2864810Y5265323D1*
X2857724Y5268866D1*
X2856323Y5270194D1*
X2856543Y5271228D1*
X2854181Y5274771D1*
X2852999Y5278315D1*
X2851818Y5283039D1*
X2850637Y5284220D1*
Y5299575D1*
X2851818Y5300756D1*
X2852999Y5306661D1*
X2854181Y5310204D1*
Y5311386D1*
X2857724Y5314929D1*
X2862448Y5317291D1*
X2844732D1*
G37*
G36*
X2407724Y5352724D2*
X2402999Y5351543D1*
X2399456Y5350362D1*
X2397094Y5349181D1*
X2390007Y5342094D1*
X2387645Y5337370D1*
X2386464Y5333827D1*
Y5319653D1*
X2387645Y5314929D1*
X2392370Y5305480D1*
X2394732Y5301937D1*
X2399456Y5296031D1*
X2427803Y5267685D1*
X2382921Y5266504D1*
Y5257055D1*
X2439614D1*
Y5268866D1*
X2415992Y5293669D1*
X2408905Y5301937D1*
X2405362Y5306661D1*
X2402999Y5310204D1*
X2400637Y5314929D1*
X2399456Y5318472D1*
X2398275Y5319653D1*
Y5332645D1*
X2399456Y5333827D1*
X2400637Y5336189D1*
X2400867Y5337026D1*
X2401818Y5338551D1*
X2404181Y5339732D1*
X2405362Y5340913D1*
X2408905Y5342094D1*
X2412842Y5343275D1*
X2416779D1*
X2420716Y5342094D1*
X2425440Y5340913D1*
X2428984Y5339732D1*
X2433708Y5337370D1*
X2434889Y5336189D1*
X2437251Y5335008D1*
Y5346819D1*
X2436070Y5348000D1*
X2433708Y5349181D1*
X2430165Y5350362D1*
X2420716Y5352724D1*
X2407724D1*
G37*
G36*
X2477409D2*
X2472684Y5351543D1*
X2469141Y5350362D1*
X2466779Y5349181D1*
X2463236Y5346819D1*
X2460873Y5344456D1*
X2458511Y5340913D1*
X2457330Y5337370D1*
Y5324378D1*
X2458511Y5320834D1*
X2460873Y5317291D1*
X2464417Y5313748D1*
X2467960Y5311386D1*
X2470322Y5310204D1*
X2473866Y5309023D1*
X2472684Y5307842D1*
X2469141Y5306661D1*
X2464417Y5304299D1*
X2460873Y5301937D1*
X2457330Y5297212D1*
X2456149Y5294850D1*
X2454968Y5290126D1*
Y5278315D1*
X2456149Y5273590D1*
X2458511Y5268866D1*
X2460873Y5265323D1*
X2465598Y5260598D1*
X2469141Y5258236D1*
X2471503Y5257055D1*
X2475047Y5255874D1*
X2479771Y5254693D1*
X2493944D1*
X2499850Y5255874D1*
X2510480Y5259417D1*
Y5272409D1*
X2509299Y5271228D1*
X2504574Y5268866D1*
X2493944Y5265323D1*
X2489614Y5264141D1*
X2485283D1*
X2480952Y5265323D1*
X2475047Y5267685D1*
X2472684Y5268866D1*
X2470322Y5271228D1*
Y5272409D1*
X2467960Y5277134D1*
X2466779Y5278315D1*
Y5291307D1*
X2467960Y5292488D1*
Y5294850D1*
X2472684Y5299575D1*
X2475047Y5300756D1*
X2478590Y5301937D1*
X2491582Y5303118D1*
Y5312567D1*
X2480952Y5313748D1*
X2477409Y5314929D1*
X2475047Y5316110D1*
X2470322Y5320834D1*
Y5322016D1*
X2469141Y5325559D1*
X2467960Y5326740D1*
Y5331464D1*
X2469141Y5332645D1*
X2470322Y5336189D1*
X2470552Y5337026D1*
X2471503Y5338551D1*
X2473866Y5339732D1*
X2475047Y5340913D1*
X2478590Y5342094D1*
X2482921Y5343275D1*
X2487251D1*
X2491582Y5342094D1*
X2496307Y5340913D1*
X2499850Y5339732D1*
X2504574Y5337370D1*
X2505755Y5336189D1*
X2508118Y5335008D1*
Y5346819D1*
X2506936Y5348000D1*
X2504574Y5349181D1*
X2497488Y5351543D1*
X2491582Y5352724D1*
X2477409D1*
G37*
G36*
X2616779D2*
X2609692Y5351543D1*
X2604968Y5350362D1*
X2601425Y5349181D1*
X2599062Y5348000D1*
X2597881Y5346819D1*
Y5332645D1*
X2602606Y5336189D1*
X2603787Y5337370D1*
X2608511Y5339732D1*
X2612055Y5340913D1*
X2621503Y5343275D1*
X2626228D1*
X2630952Y5342094D1*
X2634495Y5340913D1*
X2636858Y5339732D1*
X2642763Y5333827D1*
Y5332645D1*
X2643944Y5331464D1*
Y5323197D1*
X2642763Y5322016D1*
Y5319653D1*
X2638039Y5314929D1*
X2635677Y5313748D1*
X2628590Y5311386D1*
X2614417Y5307842D1*
X2607330Y5305480D1*
X2604968Y5304299D1*
X2601425Y5301937D1*
X2597881Y5298393D1*
X2594338Y5291307D1*
X2593157Y5284220D1*
Y5281858D1*
X2594338Y5275953D1*
X2595519Y5272409D1*
X2597881Y5267685D1*
X2601425Y5262960D1*
X2606149Y5259417D1*
X2610873Y5257055D1*
X2614417Y5255874D1*
X2619141Y5254693D1*
X2634495D1*
X2641582Y5255874D1*
X2648669Y5258236D1*
X2654574Y5260598D1*
X2655755Y5261779D1*
Y5277134D1*
X2651031Y5272409D1*
X2641582Y5267685D1*
X2634495Y5265323D1*
X2629377Y5264141D1*
X2624259D1*
X2619141Y5265323D1*
X2615598Y5266504D1*
X2610873Y5268866D1*
X2607330Y5272409D1*
Y5273590D1*
X2606149Y5277134D1*
X2604968Y5278315D1*
Y5283039D1*
X2606149Y5284220D1*
X2608511Y5290126D1*
X2608741Y5290963D1*
X2609692Y5292488D1*
X2614417Y5294850D1*
X2621503Y5297212D1*
X2635677Y5300756D1*
X2639220Y5301937D1*
X2646307Y5305480D1*
X2652212Y5311386D1*
X2654574Y5316110D1*
X2655755Y5320834D1*
Y5330283D1*
X2654574Y5335008D1*
X2652212Y5339732D1*
X2643944Y5348000D1*
X2639220Y5350362D1*
X2635677Y5351543D1*
X2630952Y5352724D1*
X2616779D1*
G37*
G36*
X2984102D2*
X2978196Y5351543D1*
X2971110Y5349181D1*
X2965204Y5346819D1*
X2962842Y5345638D1*
X2961661Y5344456D1*
Y5330283D1*
X2962842D1*
X2967566Y5335008D1*
X2977015Y5339732D1*
X2980558Y5340913D1*
X2985283Y5342094D1*
X2990401Y5343275D1*
X2995519D1*
X3000637Y5342094D1*
X3004181Y5340913D1*
X3011267Y5337370D1*
X3017173Y5331464D1*
Y5330283D1*
X3019535Y5326740D1*
X3021897Y5319653D1*
X3023078Y5314929D1*
X3024259Y5313748D1*
Y5293669D1*
X3023078Y5292488D1*
X3021897Y5287764D1*
X3019535Y5280677D1*
X3017173Y5277134D1*
Y5275953D1*
X3011267Y5270047D1*
X3004181Y5266504D1*
X2999456Y5265323D1*
X2993944Y5264141D1*
X2988432D1*
X2982921Y5265323D1*
X2977015Y5266504D1*
X2973472Y5267685D1*
X2972291Y5268866D1*
Y5292488D1*
X2994732Y5293669D1*
Y5303118D1*
X2961661D1*
Y5262960D1*
X2962842Y5261779D1*
X2965204Y5260598D1*
X2971110Y5258236D1*
X2974653Y5257055D1*
X2984102Y5254693D1*
X2999456D1*
X3005362Y5255874D1*
X3012448Y5258236D1*
X3017173Y5260598D1*
X3021897Y5264141D1*
X3025440Y5267685D1*
X3030165Y5274771D1*
X3032527Y5279496D1*
X3033708Y5283039D1*
X3034889Y5287764D1*
X3036070Y5293669D1*
Y5313748D1*
X3034889Y5319653D1*
X3032527Y5326740D1*
X3028984Y5333827D1*
X3026621Y5337370D1*
X3019535Y5344456D1*
X3015992Y5346819D1*
X3008905Y5350362D1*
X2999456Y5352724D1*
X2984102D1*
G37*
G36*
X2247094Y5350362D2*
Y5339732D1*
X2260086D1*
Y5350362D1*
X2247094D1*
G37*
G36*
X2270716D2*
Y5340913D1*
X2314417Y5339732D1*
Y5313748D1*
X2273078Y5312567D1*
Y5303118D1*
X2314417Y5301937D1*
Y5257055D1*
X2326228D1*
Y5350362D1*
X2270716D1*
G37*
G36*
X2527015Y5339732D2*
X2524653Y5337370D1*
X2522291Y5332645D1*
X2521110Y5329102D1*
Y5316110D1*
X2523472Y5309023D1*
X2525834Y5305480D1*
X2532921Y5298393D1*
X2536464Y5296031D1*
X2543551Y5293669D1*
X2548275Y5292488D1*
X2568354Y5291307D1*
Y5257055D1*
X2578984D1*
Y5350362D1*
X2547094D1*
X2541188Y5349181D1*
X2537645Y5348000D1*
X2532921Y5345638D1*
X2529377Y5343275D1*
X2527015Y5340913D1*
Y5339732D1*
X2547094D1*
X2554181Y5340913D1*
X2561267D1*
X2568354Y5339732D1*
Y5303118D1*
X2561661Y5301937D1*
X2554968D1*
X2548275Y5303118D1*
X2543551Y5304299D1*
X2541188Y5305480D1*
X2535283Y5311386D1*
Y5312567D1*
X2534102Y5314929D1*
X2532921Y5316110D1*
Y5327921D1*
X2534102Y5329102D1*
Y5331464D1*
X2540007Y5337370D1*
X2547094Y5339732D1*
X2527015D1*
G37*
G36*
X2666385Y5350362D2*
Y5340913D1*
X2713629Y5339732D1*
Y5314929D1*
X2669929Y5313748D1*
Y5304299D1*
X2713629Y5303118D1*
Y5267685D1*
X2666385Y5266504D1*
Y5257055D1*
X2724259D1*
Y5350362D1*
X2666385D1*
G37*
G36*
X3201425D2*
Y5340913D1*
X3245125Y5339732D1*
Y5313748D1*
X3203787Y5312567D1*
Y5303118D1*
X3245125Y5301937D1*
Y5257055D1*
X3256936D1*
Y5350362D1*
X3201425D1*
G37*
G36*
X1812448Y5319653D2*
X1811267Y5318472D1*
X1808905Y5314929D1*
X1807724Y5311386D1*
X1806543Y5306661D1*
Y5291307D1*
X1854968Y5290126D1*
Y5281858D1*
X1853787Y5280677D1*
X1852606Y5277134D1*
Y5275953D1*
X1846700Y5270047D1*
X1841976Y5267685D1*
X1838432Y5266504D1*
X1833708Y5265323D1*
X1828984D1*
X1819535Y5267685D1*
X1815992Y5268866D1*
X1808905Y5272409D1*
X1807724Y5273590D1*
Y5261779D1*
X1808905Y5260598D1*
X1814810Y5258236D1*
X1824259Y5255874D1*
X1838432D1*
X1843157Y5257055D1*
X1846700Y5258236D1*
X1853787Y5261779D1*
X1859692Y5267685D1*
X1862055Y5271228D1*
X1863236Y5273590D1*
X1865598Y5280677D1*
X1866779Y5291307D1*
Y5292488D1*
X1865598Y5303118D1*
X1863236Y5310204D1*
X1860873Y5314929D1*
X1858511Y5318472D1*
X1854968Y5322016D1*
X1850244Y5325559D1*
X1847881Y5326740D1*
X1844338Y5327921D1*
X1839614Y5329102D1*
X1827803D1*
X1823078Y5327921D1*
X1818354Y5325559D1*
X1812448Y5319653D1*
X1827803D1*
X1832133Y5320834D1*
X1836464D1*
X1840795Y5319653D1*
X1844338Y5318472D1*
X1846700Y5317291D1*
X1852606Y5311386D1*
Y5310204D1*
X1853787Y5306661D1*
X1854968Y5305480D1*
Y5300756D1*
X1841976Y5299575D1*
X1828984D1*
X1815992Y5300756D1*
Y5303118D1*
X1817173Y5304299D1*
X1818354Y5310204D1*
X1819535Y5312567D1*
Y5313748D1*
X1823078Y5317291D1*
X1827803Y5319653D1*
X1812448D1*
G37*
G36*
X1927015Y5293669D2*
Y5257055D1*
X1937645D1*
Y5262960D1*
X1938527Y5263719D1*
X1939139Y5263650D1*
X1940007Y5262960D1*
X1943551Y5259417D1*
X1950637Y5255874D1*
X1954181Y5254693D1*
X1964810D1*
X1968354Y5255874D1*
X1973078Y5258236D1*
X1977803Y5262960D1*
X1980165Y5266504D1*
X1981346Y5270047D1*
Y5285401D1*
X1978984Y5290126D1*
X1973078Y5296031D1*
X1965992Y5299575D1*
X1961267Y5300756D1*
X1955362Y5301937D1*
X1945913Y5303118D1*
X1937645Y5304299D1*
Y5311386D1*
X1938826Y5312567D1*
Y5313748D1*
X1941188Y5316110D1*
X1943551Y5317291D1*
X1947094Y5318472D1*
X1952212Y5319653D1*
X1957330D1*
X1962448Y5318472D1*
X1975440Y5314929D1*
X1976621D1*
Y5325559D1*
X1975440Y5326740D1*
X1969535Y5327921D1*
X1962448Y5329102D1*
X1947094D1*
X1941188Y5327921D1*
X1937645Y5326740D1*
X1934102Y5324378D1*
X1930558Y5320834D1*
X1928196Y5317291D1*
X1927015Y5313748D1*
Y5293669D1*
X1937645D1*
X1940007Y5294850D1*
X1942370D1*
X1944732Y5293669D1*
X1954181Y5292488D1*
X1960086Y5291307D1*
X1964810Y5288945D1*
X1967173Y5286582D1*
X1968327Y5285344D1*
X1969301Y5283868D1*
X1969535Y5283039D1*
X1970716Y5281858D1*
Y5272409D1*
X1969535Y5271228D1*
Y5270047D1*
X1965992Y5266504D1*
X1962448Y5265323D1*
X1958511Y5264141D1*
X1954574D1*
X1950637Y5265323D1*
X1947094Y5266504D1*
X1944732Y5267685D1*
X1943551Y5268866D1*
X1941188Y5270047D1*
X1937645Y5273590D1*
Y5293669D1*
X1927015D1*
G37*
G36*
X2107724Y5329102D2*
X2102999Y5327921D1*
X2099456Y5325559D1*
X2095913Y5322016D1*
X2093551Y5317291D1*
X2092370Y5313748D1*
Y5257055D1*
X2101818D1*
X2102999Y5299575D1*
X2104181Y5311386D1*
X2105362Y5313748D1*
X2105591Y5314585D1*
X2106543Y5316110D1*
X2108905Y5317291D1*
X2112448Y5318472D1*
X2115992D1*
X2123078Y5316110D1*
X2125440Y5314929D1*
X2126621Y5313748D1*
X2128984Y5312567D1*
X2132527Y5309023D1*
X2132139Y5307590D1*
X2131346Y5306661D1*
Y5257055D1*
X2141976D1*
X2143157Y5303118D1*
X2144338Y5312567D1*
Y5313748D1*
X2146700Y5316110D1*
X2149062Y5317291D1*
X2152606Y5318472D1*
X2156149D1*
X2163236Y5316110D1*
X2164417Y5314929D1*
X2167960Y5312567D1*
X2170322Y5311386D1*
X2171503Y5310204D1*
Y5257055D1*
X2182133D1*
Y5326740D1*
X2171503D1*
Y5320834D1*
X2170251Y5319552D1*
X2169639Y5319743D1*
X2169141Y5320834D1*
X2165598Y5324378D1*
X2162055Y5326740D1*
X2159692Y5327921D1*
X2156149Y5329102D1*
X2147881D1*
X2143157Y5327921D1*
X2140795Y5326740D1*
X2136070Y5322016D1*
X2134889Y5319653D1*
X2134459Y5318201D1*
X2133238Y5317200D1*
X2132527Y5317291D1*
X2124259Y5325559D1*
X2119535Y5327921D1*
X2115992Y5329102D1*
X2107724D1*
G37*
G36*
X3140007Y5318472D2*
Y5317291D1*
X3137645Y5314929D1*
X3135283Y5310204D1*
X3134102Y5306661D1*
X3132921Y5301937D1*
Y5281858D1*
X3134102Y5277134D1*
X3135283Y5273590D1*
X3138826Y5266504D1*
X3145913Y5259417D1*
X3152999Y5255874D1*
X3157724Y5254693D1*
X3169535D1*
X3174259Y5255874D1*
X3177803Y5257055D1*
X3181346Y5259417D1*
X3188432Y5266504D1*
X3190795Y5270047D1*
X3191976Y5273590D1*
X3193157Y5275953D1*
X3194338Y5280677D1*
Y5303118D1*
X3193157Y5307842D1*
X3191976Y5311386D1*
X3190795Y5313748D1*
X3188432Y5317291D1*
X3181346Y5324378D1*
X3174259Y5327921D1*
X3169535Y5329102D1*
X3157724D1*
X3152999Y5327921D1*
X3145913Y5324378D1*
X3140007Y5318472D1*
X3157724D1*
X3161661Y5319653D1*
X3165598D1*
X3169535Y5318472D1*
X3173078Y5317291D1*
X3175440Y5316110D1*
X3178984Y5312567D1*
Y5311386D1*
X3181346Y5306661D1*
X3182527Y5303118D1*
X3183708Y5301937D1*
Y5283039D1*
X3182527Y5281858D1*
X3181346Y5277134D1*
X3178984Y5272409D1*
Y5271228D1*
X3175440Y5267685D1*
X3173078Y5266504D1*
X3169535Y5265323D1*
X3165598Y5264141D1*
X3161661D1*
X3157724Y5265323D1*
X3154181Y5266504D1*
X3152999Y5267685D1*
X3150637Y5268866D1*
X3149237Y5270194D1*
X3149456Y5271228D1*
X3147094Y5274771D1*
X3145913Y5278315D1*
X3144732Y5283039D1*
X3143551Y5284220D1*
Y5299575D1*
X3144732Y5300756D1*
X3145913Y5305480D1*
X3147094Y5309023D1*
X3149456Y5312567D1*
X3149686Y5313404D1*
X3150637Y5314929D1*
X3157724Y5318472D1*
X3140007D1*
G37*
G36*
X1871503Y5326740D2*
Y5316110D1*
X1884495Y5314929D1*
X1888039Y5313748D1*
X1892763Y5311386D1*
X1895125Y5309023D1*
X1897488Y5307842D1*
Y5257055D1*
X1908118D1*
Y5326740D1*
X1897488D1*
Y5318472D1*
X1896047Y5317240D1*
X1895125Y5317291D1*
X1891582Y5320834D1*
X1888039Y5323197D1*
X1883314Y5325559D1*
X1879771Y5326740D1*
X1871503D1*
G37*
G36*
X1989614D2*
Y5323197D1*
X2003787Y5266504D1*
X2004968Y5262960D1*
X2006149Y5258236D1*
X2007330Y5257055D1*
X2016779D1*
X2017960Y5259417D1*
X2021503Y5270047D1*
X2022684Y5274771D1*
X2029771Y5296031D1*
X2030952Y5300756D1*
X2033314Y5307842D1*
Y5310204D1*
X2034196Y5310963D1*
X2034794Y5310864D1*
X2035466Y5309887D1*
X2035677Y5309023D1*
X2038039Y5301937D1*
X2039220Y5297212D1*
X2045125Y5279496D1*
X2046307Y5274771D1*
X2052212Y5257055D1*
X2062842D1*
X2066385Y5271228D1*
X2067566Y5274771D1*
X2077015Y5312567D1*
X2078196Y5316110D1*
X2080558Y5325559D1*
Y5326740D1*
X2069929D1*
X2068747Y5325559D1*
X2066385Y5316110D1*
X2065204Y5310204D1*
X2062842Y5300756D1*
X2061661Y5294850D1*
X2059299Y5285401D1*
X2058118Y5279496D1*
X2056936Y5274771D1*
X2056637Y5273378D1*
X2055686Y5272300D1*
X2055075Y5272499D1*
X2054574Y5273590D1*
Y5277134D1*
X2051031Y5287764D1*
X2049850Y5292488D1*
X2046307Y5303118D1*
X2045125Y5307842D1*
X2041582Y5318472D1*
X2040401Y5323197D1*
X2039220Y5326740D1*
X2029771D1*
X2022684Y5305480D1*
X2021503Y5300756D1*
X2015598Y5283039D1*
X2014417Y5278315D1*
X2013236Y5274771D1*
X2012936Y5273378D1*
X2011986Y5272300D1*
X2011374Y5272499D1*
X2010873Y5273590D1*
Y5277134D1*
X2009692Y5283039D1*
X2008511Y5287764D1*
X2007330Y5293669D1*
X2006149Y5298393D1*
X2003787Y5310204D1*
X2002606Y5314929D1*
X2000244Y5326740D1*
X1989614D1*
G37*
G36*
X2192763D2*
Y5316110D1*
X2205755Y5314929D1*
X2209299Y5313748D1*
X2214023Y5311386D1*
X2216385Y5309023D1*
X2218747Y5307842D1*
Y5257055D1*
X2229377D1*
Y5326740D1*
X2218747D1*
Y5318472D1*
X2217307Y5317240D1*
X2216385Y5317291D1*
X2212842Y5320834D1*
X2209299Y5323197D1*
X2204574Y5325559D1*
X2201031Y5326740D1*
X2192763D1*
G37*
G36*
X2248275D2*
Y5257055D1*
X2258905D1*
Y5326740D1*
X2248275D1*
G37*
G36*
X2908511D2*
Y5316110D1*
X2921503Y5314929D1*
X2925047Y5313748D1*
X2929771Y5311386D1*
X2932133Y5309023D1*
X2934495Y5307842D1*
Y5257055D1*
X2945125D1*
Y5326740D1*
X2934495D1*
Y5318472D1*
X2933055Y5317240D1*
X2932133Y5317291D1*
X2928590Y5320834D1*
X2925047Y5323197D1*
X2920322Y5325559D1*
X2916779Y5326740D1*
X2908511D1*
G37*
G36*
X3082133D2*
Y5316110D1*
X3095125Y5314929D1*
X3098669Y5313748D1*
X3103393Y5311386D1*
X3105755Y5309023D1*
X3108118Y5307842D1*
Y5257055D1*
X3118747D1*
Y5326740D1*
X3108118D1*
Y5318472D1*
X3106677Y5317240D1*
X3105755Y5317291D1*
X3102212Y5320834D1*
X3098669Y5323197D1*
X3093944Y5325559D1*
X3090401Y5326740D1*
X3082133D1*
G37*
G36*
X2734889Y5245244D2*
Y5238157D1*
X2805755D1*
Y5245244D1*
X2734889D1*
G37*
G36*
X2555362Y4988945D2*
Y4927527D1*
X2565992D1*
Y4932252D1*
X2567254Y4933040D1*
X2568354Y4933433D1*
X2571897Y4929890D1*
X2578984Y4926346D1*
X2582527Y4925165D1*
X2593157D1*
X2596700Y4926346D1*
X2601425Y4928708D1*
X2607330Y4934614D1*
X2610873Y4941701D1*
X2612055Y4945244D1*
X2613236Y4949968D1*
Y4973590D1*
X2610873Y4980677D1*
X2608511Y4985401D1*
X2606149Y4988945D1*
X2600244Y4994850D1*
X2593157Y4998393D1*
X2589614Y4999575D1*
X2577803D1*
X2570716Y4997212D1*
X2568354Y4996031D1*
X2567101Y4994748D1*
X2566490Y4994940D1*
X2565992Y4996031D1*
Y5026740D1*
X2555362D1*
Y4988945D1*
X2575440D1*
X2579771Y4990126D1*
X2584102D1*
X2588432Y4988945D1*
X2591976Y4987764D1*
X2593157Y4986582D1*
X2595519Y4985401D1*
X2596471Y4983876D1*
X2596700Y4983039D1*
X2599062Y4979496D1*
X2600244Y4977134D1*
X2601425Y4972409D1*
X2602606Y4971228D1*
Y4952330D1*
X2601425Y4951149D1*
X2600244Y4946425D1*
X2599062Y4944063D1*
Y4942882D1*
X2594338Y4938157D1*
X2590795Y4936976D1*
X2586858Y4935795D1*
X2582921D1*
X2578984Y4936976D1*
X2575440Y4938157D1*
X2568354Y4941701D1*
X2565992Y4944063D1*
Y4985401D1*
X2570716Y4987764D1*
X2575440Y4988945D1*
X2555362D1*
G37*
G36*
X2217566Y5025559D2*
Y5023197D1*
X2221110Y5012567D1*
X2222291Y5007842D1*
X2227015Y4993669D1*
X2228196Y4988945D1*
X2231740Y4978315D1*
X2232921Y4973590D1*
X2237645Y4959417D1*
X2238826Y4954693D1*
X2242370Y4944063D1*
X2243551Y4939338D1*
X2248275Y4925165D1*
X2249456Y4920441D1*
X2252999Y4909811D1*
X2254181Y4907449D1*
X2263629D1*
X2262448Y4912173D1*
X2257724Y4926346D1*
X2256543Y4931071D1*
X2252999Y4941701D1*
X2251818Y4946425D1*
X2248275Y4957055D1*
X2247094Y4961779D1*
X2243551Y4972409D1*
X2242370Y4977134D1*
X2238826Y4987764D1*
X2237645Y4992488D1*
X2232921Y5006661D1*
X2231740Y5011386D1*
X2227015Y5025559D1*
X2217566D1*
G37*
G36*
X2525834D2*
Y4927527D1*
X2536464D1*
Y5025559D1*
X2525834D1*
G37*
G36*
X2627409D2*
Y4927527D1*
X2638039D1*
Y5025559D1*
X2627409D1*
G37*
G36*
X2758511Y4987764D2*
X2758123Y4986331D1*
X2757330Y4985401D1*
X2756149Y4983039D1*
X2754968Y4979496D1*
X2753787Y4973590D1*
Y4953512D1*
X2754968Y4948787D1*
X2756149Y4945244D1*
X2759692Y4938157D1*
X2762055Y4934614D1*
X2765598Y4931071D1*
X2769141Y4928708D1*
X2773866Y4926346D1*
X2777409Y4925165D1*
X2788039D1*
X2792763Y4926346D1*
X2797488Y4928708D1*
X2799062Y4929890D1*
X2800637D1*
X2802212Y4928708D1*
Y4927527D1*
X2811661D1*
Y5025559D1*
X2801031D1*
Y4992488D1*
X2799591Y4991255D1*
X2798669Y4991307D1*
X2795125Y4994850D1*
X2788039Y4998393D1*
X2784495Y4999575D1*
X2773866D1*
X2770322Y4998393D1*
X2765598Y4996031D1*
X2760873Y4991307D1*
X2758511Y4987764D1*
X2776228D1*
X2780165Y4988945D1*
X2784102D1*
X2788039Y4987764D1*
X2791582Y4986582D1*
X2798669Y4983039D1*
X2801031Y4980677D1*
Y4939338D1*
X2796307Y4936976D1*
X2791582Y4935795D1*
X2787251Y4934614D1*
X2782921D1*
X2778590Y4935795D1*
X2771503Y4939338D1*
X2770103Y4940666D1*
X2770322Y4941701D1*
X2767960Y4945244D1*
X2766779Y4948787D1*
X2765598Y4953512D1*
X2764417Y4954693D1*
Y4970047D1*
X2765598Y4971228D1*
X2766779Y4977134D1*
X2767960Y4980677D1*
Y4981858D1*
X2771503Y4985401D1*
X2776228Y4987764D1*
X2758511D1*
G37*
G36*
X3010086Y5025559D2*
X3008905Y5024378D1*
X3001818Y5014929D1*
X3000637Y5012567D1*
X2998275Y5009023D1*
X2993551Y4999575D1*
X2992370Y4996031D1*
X2991188Y4993669D1*
X2990007Y4990126D1*
X2988826Y4985401D1*
X2987645Y4979496D1*
Y4947606D1*
X2988826Y4941701D1*
X2990007Y4936976D1*
X2991188Y4933433D1*
X2992370Y4931071D1*
X2993551Y4927527D1*
X2998275Y4918078D1*
X3000637Y4914535D1*
X3001818Y4912173D1*
X3004181Y4908630D1*
X3007724Y4903905D1*
X3010086Y4901543D1*
X3024259D1*
X3014810Y4912173D1*
X3011267Y4916897D1*
X3008905Y4920441D1*
X3004181Y4929890D1*
X3000637Y4940519D1*
X2999456Y4945244D1*
X2998275Y4952330D1*
X2997094Y4953512D1*
Y4973590D1*
X2998275Y4974771D1*
X2999456Y4981858D1*
X3000637Y4986582D1*
X3004181Y4997212D1*
X3008905Y5006661D1*
X3011267Y5010204D1*
X3014810Y5014929D1*
X3024259Y5025559D1*
X3010086D1*
G37*
G36*
X3095125D2*
X3099850Y5020834D1*
Y5019653D1*
X3105755Y5012567D1*
X3108118Y5009023D1*
X3109299Y5006661D1*
X3111661Y5003118D1*
X3112842Y5000756D1*
X3114023Y4997212D1*
X3115204Y4994850D1*
X3117566Y4987764D1*
X3118747Y4983039D1*
X3119929Y4977134D1*
X3121110Y4975953D1*
Y4949968D1*
X3119929Y4948787D1*
X3118747Y4942882D1*
X3115204Y4932252D1*
X3114023Y4929890D1*
X3112842Y4926346D1*
X3111661Y4923984D1*
X3109299Y4920441D1*
X3108118Y4918078D1*
X3105755Y4914535D1*
X3099850Y4907449D1*
X3095125Y4901543D1*
X3108118D1*
X3111661Y4905086D1*
X3118747Y4915716D1*
X3119929Y4918078D1*
X3122291Y4921622D1*
X3124653Y4926346D1*
X3125834Y4929890D1*
X3127015Y4932252D1*
X3128196Y4935795D1*
X3130558Y4945244D1*
X3131740Y4954693D1*
Y4972409D1*
X3130558Y4980677D1*
X3129377Y4986582D1*
X3128196Y4991307D1*
X3127015Y4994850D1*
X3125834Y4997212D1*
X3124653Y5000756D1*
X3122291Y5005480D1*
X3119929Y5009023D1*
X3117566Y5013748D1*
X3115204Y5017291D1*
X3111661Y5022016D1*
X3108118Y5025559D1*
X3095125D1*
G37*
G36*
X1943551Y5012567D2*
X1942370Y5011386D1*
X1940007Y5006661D1*
X1937645Y4999575D1*
X1936464Y4993669D1*
X1935283Y4983039D1*
Y4964141D1*
X1936464Y4954693D1*
X1937645Y4948787D1*
X1940007Y4941701D1*
X1942370Y4936976D1*
X1944732Y4933433D1*
X1948275Y4929890D1*
X1951818Y4927527D1*
X1958905Y4925165D1*
X1970716D1*
X1975440Y4926346D1*
X1980165Y4928708D1*
X1986070Y4934614D1*
X1988432Y4938157D1*
X1989614Y4940519D1*
X1991976Y4947606D1*
X1993157Y4952330D1*
X1994338Y4959417D1*
Y4988945D1*
X1993157Y4996031D1*
X1991976Y5000756D1*
X1989614Y5007842D1*
X1987251Y5012567D1*
X1980165Y5019653D1*
X1975440Y5022016D1*
X1970716Y5023197D1*
X1960086D1*
X1955362Y5022016D1*
X1948275Y5018472D1*
X1944732Y5014929D1*
X1943551Y5012567D1*
X1958905D1*
X1962842Y5013748D1*
X1966779D1*
X1970716Y5012567D1*
X1975440Y5010204D1*
X1976392Y5008680D1*
X1976621Y5007842D1*
X1978984Y5004299D1*
X1980165Y5000756D1*
X1981346Y4994850D1*
X1982527Y4993669D1*
Y4954693D1*
X1981346Y4953512D1*
X1980165Y4947606D1*
X1978984Y4944063D1*
X1976621Y4940519D1*
X1976233Y4939087D1*
X1975440Y4938157D1*
X1970716Y4935795D1*
X1967173Y4934614D1*
X1963629D1*
X1956543Y4936976D1*
X1951818Y4941701D1*
Y4942882D1*
X1950637Y4945244D1*
X1949456Y4949968D1*
X1948275Y4958236D1*
X1947094Y4959417D1*
Y4988945D1*
X1948275Y4990126D1*
X1949456Y4998393D1*
X1950637Y5003118D1*
X1951818Y5005480D1*
Y5006661D1*
X1956543Y5011386D1*
X1958905Y5012567D1*
X1943551D1*
G37*
G36*
X2032133Y5023197D2*
X2027409Y5022016D1*
X2023866Y5020834D1*
X2021503Y5019653D1*
X2014417Y5012567D1*
X2012055Y5007842D1*
X2010873Y5004299D1*
Y4990126D1*
X2012055Y4985401D1*
X2016779Y4975953D1*
X2019141Y4972409D1*
X2023866Y4966504D1*
X2052212Y4938157D1*
X2007330Y4936976D1*
Y4927527D1*
X2064023D1*
Y4939338D1*
X2040401Y4964141D1*
X2033314Y4972409D1*
X2029771Y4977134D1*
X2027409Y4980677D1*
X2025047Y4985401D1*
X2023866Y4988945D1*
X2022684Y4990126D1*
Y5003118D1*
X2023866Y5004299D1*
X2025047Y5006661D1*
X2025276Y5007498D1*
X2026228Y5009023D1*
X2028590Y5010204D1*
X2029771Y5011386D1*
X2033314Y5012567D1*
X2037251Y5013748D1*
X2041188D1*
X2045125Y5012567D1*
X2049850Y5011386D1*
X2053393Y5010204D1*
X2058118Y5007842D1*
X2059299Y5006661D1*
X2061661Y5005480D1*
Y5017291D1*
X2060480Y5018472D1*
X2058118Y5019653D1*
X2054574Y5020834D1*
X2045125Y5023197D1*
X2032133D1*
G37*
G36*
X2085283Y5012567D2*
X2084102Y5011386D1*
X2081740Y5006661D1*
X2079377Y4999575D1*
X2078196Y4993669D1*
X2077015Y4983039D1*
Y4964141D1*
X2078196Y4954693D1*
X2079377Y4948787D1*
X2081740Y4941701D1*
X2084102Y4936976D1*
X2086464Y4933433D1*
X2090007Y4929890D1*
X2093551Y4927527D1*
X2100637Y4925165D1*
X2112448D1*
X2117173Y4926346D1*
X2121897Y4928708D1*
X2127803Y4934614D1*
X2130165Y4938157D1*
X2131346Y4940519D1*
X2133708Y4947606D1*
X2134889Y4952330D1*
X2136070Y4959417D1*
Y4988945D1*
X2134889Y4996031D1*
X2133708Y5000756D1*
X2131346Y5007842D1*
X2128984Y5012567D1*
X2121897Y5019653D1*
X2117173Y5022016D1*
X2112448Y5023197D1*
X2101818D1*
X2097094Y5022016D1*
X2090007Y5018472D1*
X2086464Y5014929D1*
X2085283Y5012567D1*
X2100637D1*
X2104574Y5013748D1*
X2108511D1*
X2112448Y5012567D1*
X2117173Y5010204D1*
X2118124Y5008680D1*
X2118354Y5007842D1*
X2120716Y5004299D1*
X2121897Y5000756D1*
X2123078Y4994850D1*
X2124259Y4993669D1*
Y4954693D1*
X2123078Y4953512D1*
X2121897Y4947606D1*
X2120716Y4944063D1*
X2118354Y4940519D1*
X2117966Y4939087D1*
X2117173Y4938157D1*
X2112448Y4935795D1*
X2108905Y4934614D1*
X2105362D1*
X2098275Y4936976D1*
X2093551Y4941701D1*
Y4942882D1*
X2092370Y4945244D1*
X2091188Y4949968D1*
X2090007Y4958236D1*
X2088826Y4959417D1*
Y4988945D1*
X2090007Y4990126D1*
X2091188Y4998393D1*
X2092370Y5003118D1*
X2093551Y5005480D1*
Y5006661D1*
X2098275Y5011386D1*
X2100637Y5012567D1*
X2085283D1*
G37*
G36*
X2173866Y5023197D2*
X2169141Y5022016D1*
X2165598Y5020834D1*
X2163236Y5019653D1*
X2156149Y5012567D1*
X2153787Y5007842D1*
X2152606Y5004299D1*
Y4990126D1*
X2153787Y4985401D1*
X2158511Y4975953D1*
X2160873Y4972409D1*
X2165598Y4966504D1*
X2193944Y4938157D1*
X2149062Y4936976D1*
Y4927527D1*
X2205755D1*
Y4939338D1*
X2182133Y4964141D1*
X2175047Y4972409D1*
X2171503Y4977134D1*
X2169141Y4980677D1*
X2166779Y4985401D1*
X2165598Y4988945D1*
X2164417Y4990126D1*
Y5003118D1*
X2165598Y5004299D1*
X2166779Y5006661D1*
X2167009Y5007498D1*
X2167960Y5009023D1*
X2170322Y5010204D1*
X2171503Y5011386D1*
X2175047Y5012567D1*
X2178984Y5013748D1*
X2182921D1*
X2186858Y5012567D1*
X2191582Y5011386D1*
X2195125Y5010204D1*
X2199850Y5007842D1*
X2201031Y5006661D1*
X2203393Y5005480D1*
Y5017291D1*
X2202212Y5018472D1*
X2199850Y5019653D1*
X2196307Y5020834D1*
X2186858Y5023197D1*
X2173866D1*
G37*
G36*
X2273078Y4975953D2*
X2270716Y4973590D1*
X2269535Y4971228D1*
X2268354Y4967685D1*
X2267173Y4960598D1*
Y4954693D1*
X2268354Y4947606D1*
X2269535Y4944063D1*
X2273078Y4936976D1*
X2280165Y4929890D1*
X2287251Y4926346D1*
X2291976Y4925165D1*
X2302606D1*
X2309692Y4927527D1*
X2312055Y4928708D1*
X2320322Y4936976D1*
X2323866Y4944063D1*
X2326228Y4951149D1*
X2327409Y4958236D1*
Y4979496D1*
X2326228Y4986582D1*
X2325047Y4992488D1*
X2323866Y4996031D1*
X2322684Y4998393D1*
X2321503Y5001937D1*
X2319141Y5005480D1*
X2317960Y5007842D1*
X2308511Y5017291D1*
X2301425Y5020834D1*
X2297881Y5022016D1*
X2293157Y5023197D1*
X2278984D1*
X2275440Y5022016D1*
Y5011386D1*
X2276621D1*
X2280165Y5012567D1*
X2284889Y5013748D1*
X2289614D1*
X2294338Y5012567D1*
X2297881Y5011386D1*
X2302606Y5009023D1*
X2309692Y5001937D1*
Y5000756D1*
X2312055Y4996031D1*
X2313236Y4992488D1*
X2314417Y4986582D1*
X2315598Y4985401D1*
Y4981858D1*
X2314158Y4980625D1*
X2313236Y4980677D1*
X2310873Y4983039D1*
X2308511Y4984220D1*
X2304968Y4985401D1*
X2300244Y4986582D1*
X2288432D1*
X2281346Y4984220D1*
X2277803Y4981858D1*
X2273078Y4977134D1*
Y4975953D1*
X2290795D1*
X2295519Y4977134D1*
X2300244D1*
X2304968Y4975953D1*
X2312055Y4973590D1*
X2314417Y4972409D1*
X2315598Y4971228D1*
Y4954693D1*
X2314417Y4953512D1*
X2313236Y4948787D1*
X2312055Y4945244D1*
X2309692Y4941701D1*
X2309304Y4940268D1*
X2308511Y4939338D1*
X2306149Y4938157D1*
X2304968Y4936976D1*
X2302606Y4935795D1*
X2298669Y4934614D1*
X2294732D1*
X2290795Y4935795D1*
X2286070Y4938157D1*
X2282527Y4941701D1*
Y4942882D1*
X2281346Y4945244D1*
X2280165Y4949968D1*
X2278984Y4951149D1*
Y4961779D1*
X2280165Y4962960D1*
X2281346Y4967685D1*
Y4968866D1*
X2286070Y4973590D1*
X2290795Y4975953D1*
X2273078D1*
G37*
G36*
X2901425Y4946425D2*
X2901654Y4947262D1*
X2902606Y4948787D1*
X2903787Y4951149D1*
X2904968Y4955874D1*
X2906149Y4962960D1*
Y4971228D1*
X2904968Y4978315D1*
X2903787Y4981858D1*
X2901425Y4986582D1*
X2899062Y4990126D1*
X2896700Y4992488D1*
X2891976Y4996031D1*
X2889614Y4997212D1*
X2886070Y4998393D1*
X2876621D1*
X2869535Y4996031D1*
X2868095Y4994799D1*
X2866725Y4994950D1*
X2865606Y4996318D1*
X2865992Y4997212D1*
X2857724D1*
Y4944063D1*
X2852212Y4942882D1*
X2846700D1*
X2841188Y4944063D1*
Y4945244D1*
X2840007Y4948787D1*
X2838826Y4954693D1*
X2837645Y4955874D1*
Y4980677D1*
X2838826Y4981858D1*
X2840007Y4986582D1*
X2842370Y4993669D1*
X2843551Y4996031D1*
X2845913Y4999575D1*
Y5000756D1*
X2854181Y5009023D1*
X2861267Y5012567D1*
X2864810Y5013748D1*
X2869535Y5014929D1*
X2875440Y5016110D1*
X2881346D1*
X2887251Y5014929D1*
X2891976Y5013748D1*
X2895519Y5012567D1*
X2902606Y5009023D1*
X2906149Y5005480D1*
X2908511Y5004299D1*
X2909463Y5002774D1*
X2909692Y5001937D1*
X2914417Y4996031D1*
X2916779Y4992488D1*
X2917960Y4990126D1*
X2920322Y4983039D1*
X2921503Y4977134D1*
X2922684Y4975953D1*
Y4960598D1*
X2921503Y4959417D1*
X2920322Y4952330D1*
X2917960Y4945244D1*
X2916779Y4942882D1*
X2914417Y4939338D1*
Y4938157D1*
X2904968Y4928708D1*
X2902606Y4927527D1*
X2901425Y4926346D1*
X2896700Y4923984D1*
X2893157Y4922803D1*
X2887251Y4921622D1*
X2880558Y4920441D1*
X2873866D1*
X2867173Y4921622D1*
X2858905Y4922803D1*
X2857724D1*
Y4915716D1*
X2860086Y4914535D1*
X2868354Y4913354D1*
X2887251D1*
X2893157Y4914535D1*
X2896700Y4915716D1*
X2902606Y4918078D1*
X2908511Y4921622D1*
X2920322Y4933433D1*
X2922684Y4936976D1*
X2926228Y4944063D1*
X2928590Y4951149D1*
X2929771Y4955874D1*
Y4979496D1*
X2928590Y4985401D1*
X2927409Y4988945D1*
X2922684Y4998393D1*
X2920322Y5001937D1*
X2915598Y5007842D1*
X2913236Y5010204D1*
X2907330Y5014929D1*
X2903787Y5017291D1*
X2899062Y5019653D1*
X2891976Y5022016D1*
X2886070Y5023197D1*
X2870716D1*
X2864810Y5022016D1*
X2857724Y5019653D1*
X2852999Y5017291D1*
X2849456Y5014929D1*
X2840007Y5005480D1*
X2837645Y5001937D1*
X2834102Y4994850D1*
X2831740Y4987764D1*
X2830558Y4983039D1*
X2829377Y4973590D1*
Y4965323D1*
X2830558Y4957055D1*
X2831740Y4952330D1*
X2834102Y4945244D1*
X2837645Y4938157D1*
X2838826Y4936976D1*
X2864810D1*
X2865992Y4941701D1*
X2866184Y4942614D1*
X2866909Y4943582D1*
X2867491Y4943554D1*
X2868339Y4942844D1*
X2869535Y4941701D1*
X2873078Y4939338D1*
X2875440Y4938157D1*
X2878984Y4936976D1*
X2888432D1*
X2891976Y4938157D1*
X2894338Y4939338D1*
X2901425Y4946425D1*
X2887251D1*
X2883708Y4945244D1*
X2880165D1*
X2873078Y4947606D1*
X2871897Y4948787D1*
X2868354Y4951149D1*
X2865992Y4952330D1*
Y4985401D1*
X2867173Y4986582D1*
X2869535Y4987764D1*
X2873078Y4988945D1*
X2877015Y4990126D1*
X2880952D1*
X2884889Y4988945D1*
X2889614Y4986582D1*
X2893157Y4983039D1*
Y4981858D1*
X2894338Y4978315D1*
X2895519Y4971228D1*
X2896700Y4970047D1*
Y4964141D1*
X2895519Y4962960D1*
X2894338Y4955874D1*
X2893157Y4952330D1*
Y4951149D1*
X2889614Y4947606D1*
X2887251Y4946425D1*
X2901425D1*
G37*
G36*
X2655755Y5020834D2*
Y5010204D1*
X2668747D1*
Y5020834D1*
X2655755D1*
G37*
G36*
X2382921Y4988945D2*
Y4927527D1*
X2384102Y4920441D1*
X2385283Y4916897D1*
X2387645Y4912173D1*
X2390007Y4908630D1*
X2391188Y4907449D1*
X2395913Y4903905D1*
X2398275Y4902724D1*
X2401818Y4901543D1*
X2407724Y4900362D1*
X2423078D1*
X2428984Y4901543D1*
X2433708Y4902724D1*
X2434889Y4903905D1*
Y4914535D1*
X2433708D1*
X2420716Y4910992D1*
X2415992Y4909811D1*
X2411267D1*
X2406543Y4910992D1*
X2402999Y4912173D1*
X2398275Y4914535D1*
X2396874Y4915863D1*
X2397094Y4916897D1*
X2395913Y4919260D1*
X2394732Y4922803D1*
X2393551Y4923984D1*
Y4935795D1*
X2394433Y4936554D1*
X2395045Y4936485D1*
X2395913Y4935795D1*
X2398275Y4933433D1*
X2405362Y4929890D1*
X2408905Y4928708D1*
X2420716D1*
X2424259Y4929890D1*
X2428984Y4932252D1*
X2436070Y4939338D1*
X2439614Y4946425D1*
X2440795Y4951149D1*
Y4973590D1*
X2439614Y4978315D1*
X2434889Y4987764D1*
X2427803Y4994850D1*
X2420716Y4998393D1*
X2417173Y4999575D1*
X2406543D1*
X2401818Y4998393D1*
X2397094Y4996031D1*
X2395654Y4994799D1*
X2394284Y4994950D1*
X2393165Y4996318D1*
X2393551Y4997212D1*
X2382921D1*
Y4988945D1*
X2402999D1*
X2407330Y4990126D1*
X2411661D1*
X2415992Y4988945D1*
X2419535Y4987764D1*
X2420716Y4986582D1*
X2423078Y4985401D1*
X2425440Y4983039D1*
Y4981858D1*
X2427803Y4977134D1*
X2428984Y4973590D1*
X2430165Y4972409D1*
Y4953512D1*
X2428984Y4952330D1*
X2427803Y4948787D1*
Y4946425D1*
X2421897Y4940519D1*
X2418354Y4939338D1*
X2414417Y4938157D1*
X2410480D1*
X2406543Y4939338D1*
X2402999Y4940519D1*
X2395913Y4944063D1*
X2393551Y4946425D1*
Y4985401D1*
X2395913Y4986582D1*
X2402999Y4988945D1*
X2382921D1*
G37*
G36*
X2457330D2*
Y4987764D1*
X2454968Y4985401D1*
X2452606Y4980677D1*
X2451425Y4977134D1*
X2450244Y4972409D1*
Y4952330D1*
X2451425Y4947606D1*
X2452606Y4944063D1*
X2456149Y4936976D1*
X2463236Y4929890D1*
X2470322Y4926346D1*
X2475047Y4925165D1*
X2486858D1*
X2491582Y4926346D1*
X2495125Y4927527D1*
X2498669Y4929890D1*
X2505755Y4936976D1*
X2508118Y4940519D1*
X2509299Y4944063D1*
X2510480Y4946425D1*
X2511661Y4951149D1*
Y4973590D1*
X2510480Y4978315D1*
X2509299Y4981858D1*
X2508118Y4984220D1*
X2505755Y4987764D1*
X2498669Y4994850D1*
X2491582Y4998393D1*
X2486858Y4999575D1*
X2475047D1*
X2470322Y4998393D1*
X2463236Y4994850D1*
X2457330Y4988945D1*
X2475047D1*
X2478984Y4990126D1*
X2482921D1*
X2486858Y4988945D1*
X2490401Y4987764D1*
X2492763Y4986582D1*
X2496307Y4983039D1*
Y4981858D1*
X2498669Y4977134D1*
X2499850Y4973590D1*
X2501031Y4972409D1*
Y4953512D1*
X2499850Y4952330D1*
X2498669Y4947606D1*
X2496307Y4942882D1*
Y4941701D1*
X2492763Y4938157D1*
X2490401Y4936976D1*
X2486858Y4935795D1*
X2482921Y4934614D1*
X2478984D1*
X2475047Y4935795D1*
X2471503Y4936976D1*
X2470322Y4938157D1*
X2467960Y4939338D1*
X2466559Y4940666D1*
X2466779Y4941701D1*
X2464417Y4945244D1*
X2463236Y4948787D1*
X2462055Y4953512D1*
X2460873Y4954693D1*
Y4970047D1*
X2462055Y4971228D1*
X2463236Y4975953D1*
X2464417Y4979496D1*
X2466779Y4983039D1*
X2467009Y4983876D1*
X2467960Y4985401D1*
X2475047Y4988945D1*
X2457330D1*
G37*
G36*
X3046700Y4999575D2*
X3041976Y4998393D1*
X3034889Y4996031D1*
X3032527Y4994850D1*
Y4981858D1*
X3036070Y4984220D1*
X3037251Y4985401D1*
X3039614Y4986582D1*
X3046700Y4988945D1*
X3050637Y4990126D1*
X3054574D1*
X3058511Y4988945D1*
X3062055Y4987764D1*
X3064417Y4986582D1*
X3070322Y4980677D1*
Y4979496D1*
X3071503Y4977134D1*
X3072684Y4972409D1*
X3073866Y4971228D1*
Y4954693D1*
X3072684Y4953512D1*
X3071503Y4948787D1*
X3070322Y4946425D1*
Y4945244D1*
X3064417Y4939338D1*
X3062055Y4938157D1*
X3058511Y4936976D1*
X3054181Y4935795D1*
X3049850D1*
X3045519Y4936976D1*
X3041976Y4938157D1*
X3034889Y4941701D1*
X3032527Y4944063D1*
Y4931071D1*
X3034889Y4929890D1*
X3041976Y4927527D1*
X3046700Y4926346D1*
X3058511D1*
X3063236Y4927527D1*
X3066779Y4928708D1*
X3071503Y4931071D1*
X3079771Y4939338D1*
X3082133Y4944063D1*
X3084495Y4951149D1*
Y4973590D1*
X3083314Y4978315D1*
X3079771Y4985401D1*
X3077409Y4988945D1*
X3072684Y4993669D1*
X3069141Y4996031D1*
X3066779Y4997212D1*
X3063236Y4998393D1*
X3058511Y4999575D1*
X3046700D1*
G37*
G36*
X2656936Y4997212D2*
Y4927527D1*
X2667566D1*
Y4997212D1*
X2656936D1*
G37*
G36*
X2686464D2*
Y4927527D1*
X2697094D1*
Y4933433D1*
X2697976Y4934191D1*
X2698588Y4934122D1*
X2699443Y4933397D1*
X2700637Y4932252D1*
X2705362Y4928708D1*
X2710086Y4926346D1*
X2714810Y4925165D1*
X2724259D1*
X2727803Y4926346D1*
X2730165Y4927527D1*
X2737251Y4934614D1*
X2738432Y4936976D1*
X2739614Y4940519D1*
X2740795Y4946425D1*
Y4997212D1*
X2730165D1*
X2728984Y4947606D1*
X2727803Y4942882D1*
Y4941701D1*
X2724259Y4938157D1*
X2721897Y4936976D1*
X2717960Y4935795D1*
X2714023D1*
X2710086Y4936976D1*
X2700637Y4941701D1*
X2699456Y4942882D1*
X2697094Y4944063D1*
Y4997212D1*
X2686464D1*
G37*
G36*
X1810618Y4847626D2*
Y4806523D1*
X1817468D1*
Y4809949D1*
X1818107Y4810498D1*
X1818551Y4810448D1*
X1819171Y4809923D1*
X1820037Y4809092D1*
X1822606Y4807380D1*
X1826031Y4805667D1*
X1828600Y4804811D1*
X1835450D1*
X1838019Y4805667D1*
X1841444Y4807380D1*
X1845726Y4811661D1*
X1847438Y4815086D1*
X1849151Y4820224D1*
X1850007Y4826218D1*
Y4833069D1*
X1849151Y4838206D1*
X1847438Y4843344D1*
X1846582Y4845057D1*
X1844870Y4847626D1*
X1839732Y4852764D1*
X1836307Y4854476D1*
X1832881Y4855332D1*
X1826031D1*
X1822606Y4854476D1*
X1819181Y4852764D1*
X1818273Y4851833D1*
X1817829Y4851973D1*
X1817468Y4852764D1*
Y4873315D1*
X1810618D1*
Y4847626D1*
X1822606D1*
X1826031Y4848482D1*
X1829456D1*
X1832881Y4847626D1*
X1836307Y4845913D1*
X1839732Y4842488D1*
Y4841632D1*
X1840588Y4839919D1*
X1841444Y4836494D1*
X1842301Y4835638D1*
Y4823649D1*
X1841444Y4822793D1*
X1840588Y4819368D1*
X1838875Y4815943D1*
X1838594Y4814904D1*
X1838019Y4814230D1*
X1834594Y4812517D1*
X1831740Y4811661D1*
X1828885D1*
X1826031Y4812517D1*
X1823462Y4813374D1*
X1821749Y4814230D1*
X1820893Y4815086D1*
X1819181Y4815943D1*
X1817468Y4817655D1*
Y4845913D1*
X1822606Y4847626D1*
X1810618D1*
G37*
G36*
X2015273D2*
Y4806523D1*
X2022123D1*
Y4809949D1*
X2022763Y4810498D1*
X2023207Y4810448D1*
X2023826Y4809923D1*
X2024692Y4809092D1*
X2027261Y4807380D1*
X2030686Y4805667D1*
X2033255Y4804811D1*
X2040106D1*
X2042675Y4805667D1*
X2046100Y4807380D1*
X2050381Y4811661D1*
X2052094Y4815086D1*
X2053807Y4820224D1*
X2054663Y4826218D1*
Y4833069D1*
X2053807Y4838206D1*
X2052094Y4843344D1*
X2051238Y4845057D1*
X2049525Y4847626D1*
X2044387Y4852764D1*
X2040962Y4854476D1*
X2037537Y4855332D1*
X2030686D1*
X2027261Y4854476D1*
X2023836Y4852764D1*
X2022928Y4851833D1*
X2022485Y4851973D1*
X2022123Y4852764D1*
Y4873315D1*
X2015273D1*
Y4847626D1*
X2027261D1*
X2030686Y4848482D1*
X2034112D1*
X2037537Y4847626D1*
X2040962Y4845913D1*
X2044387Y4842488D1*
Y4841632D1*
X2045244Y4839919D1*
X2046100Y4836494D1*
X2046956Y4835638D1*
Y4823649D1*
X2046100Y4822793D1*
X2045244Y4819368D1*
X2043531Y4815943D1*
X2043249Y4814904D1*
X2042675Y4814230D1*
X2039249Y4812517D1*
X2036395Y4811661D1*
X2033541D1*
X2030686Y4812517D1*
X2028118Y4813374D1*
X2026405Y4814230D1*
X2025549Y4815086D1*
X2023836Y4815943D1*
X2022123Y4817655D1*
Y4845913D1*
X2027261Y4847626D1*
X2015273D1*
G37*
G36*
X2296995D2*
Y4806523D1*
X2303846D1*
Y4809949D1*
X2304485Y4810498D1*
X2304929Y4810448D1*
X2305549Y4809923D1*
X2306415Y4809092D1*
X2308984Y4807380D1*
X2312409Y4805667D1*
X2314978Y4804811D1*
X2321828D1*
X2324397Y4805667D1*
X2327822Y4807380D1*
X2332104Y4811661D1*
X2333816Y4815086D1*
X2335529Y4820224D1*
X2336385Y4826218D1*
Y4833069D1*
X2335529Y4838206D1*
X2333816Y4843344D1*
X2332960Y4845057D1*
X2331247Y4847626D1*
X2326110Y4852764D1*
X2322684Y4854476D1*
X2319259Y4855332D1*
X2312409D1*
X2308984Y4854476D1*
X2305558Y4852764D1*
X2304651Y4851833D1*
X2304207Y4851973D1*
X2303846Y4852764D1*
Y4873315D1*
X2296995D1*
Y4847626D1*
X2308984D1*
X2312409Y4848482D1*
X2315834D1*
X2319259Y4847626D1*
X2322684Y4845913D1*
X2326110Y4842488D1*
Y4841632D1*
X2326966Y4839919D1*
X2327822Y4836494D1*
X2328679Y4835638D1*
Y4823649D1*
X2327822Y4822793D1*
X2326966Y4819368D1*
X2325253Y4815943D1*
X2324972Y4814904D1*
X2324397Y4814230D1*
X2320972Y4812517D1*
X2318118Y4811661D1*
X2315263D1*
X2312409Y4812517D1*
X2309840Y4813374D1*
X2308127Y4814230D1*
X2307271Y4815086D1*
X2305558Y4815943D1*
X2303846Y4817655D1*
Y4845913D1*
X2308984Y4847626D1*
X2296995D1*
G37*
G36*
X1743826Y4872458D2*
Y4834781D1*
X1742918Y4833851D1*
X1742475Y4833990D1*
X1742114Y4834781D1*
X1739545Y4838206D1*
X1727557Y4851051D1*
X1724988Y4853620D1*
X1715568D1*
X1734407Y4834781D1*
Y4833069D1*
X1731838Y4830500D1*
X1714712Y4809092D1*
X1712999Y4806523D1*
X1722419D1*
X1724988Y4809092D1*
X1730125Y4815943D1*
X1733551Y4820224D1*
X1738688Y4827075D1*
X1739120Y4827925D1*
X1739584Y4828716D1*
X1740192Y4829323D1*
X1740629Y4829283D1*
X1741257Y4828787D1*
X1743826Y4826218D1*
Y4806523D1*
X1751533D1*
Y4872458D1*
X1743826D1*
G37*
G36*
X2276444D2*
Y4806523D1*
X2283295D1*
Y4872458D1*
X2276444D1*
G37*
G36*
X2505076D2*
Y4850195D1*
X2504032Y4849301D1*
X2503364Y4849338D1*
X2501651Y4851051D1*
X2499082Y4852764D1*
X2495657Y4854476D1*
X2493088Y4855332D1*
X2486238D1*
X2483669Y4854476D1*
X2481956Y4853620D1*
X2477675Y4849338D1*
X2475962Y4845913D1*
X2475106Y4841632D1*
Y4806523D1*
X2481956D1*
X2482812Y4837350D1*
X2483669Y4843344D1*
X2484525Y4845057D1*
Y4845913D1*
X2487950Y4847626D1*
X2490519Y4848482D1*
X2493088D1*
X2495657Y4847626D1*
X2502507Y4844201D1*
X2505076Y4841632D1*
Y4806523D1*
X2511927D1*
Y4872458D1*
X2505076D1*
G37*
G36*
X2958058D2*
Y4834781D1*
X2957151Y4833851D1*
X2956707Y4833990D1*
X2956346Y4834781D1*
X2953777Y4838206D1*
X2941789Y4851051D1*
X2939220Y4853620D1*
X2929801D1*
X2948639Y4834781D1*
Y4833069D1*
X2946070Y4830500D1*
X2928944Y4809092D1*
X2927232Y4806523D1*
X2936651D1*
X2939220Y4809092D1*
X2944358Y4815943D1*
X2947783Y4820224D1*
X2952921Y4827075D1*
X2953352Y4827925D1*
X2953816Y4828716D1*
X2954424Y4829323D1*
X2954861Y4829283D1*
X2955490Y4828787D1*
X2958058Y4826218D1*
Y4806523D1*
X2965765D1*
Y4872458D1*
X2958058D1*
G37*
G36*
X3102773D2*
Y4850195D1*
X3101729Y4849301D1*
X3101060Y4849338D1*
X3099348Y4851051D1*
X3096779Y4852764D1*
X3093354Y4854476D1*
X3090785Y4855332D1*
X3083934D1*
X3081366Y4854476D1*
X3079653Y4853620D1*
X3075371Y4849338D1*
X3073659Y4845913D1*
X3072803Y4841632D1*
Y4806523D1*
X3079653D1*
X3080509Y4837350D1*
X3081366Y4843344D1*
X3082222Y4845057D1*
Y4845913D1*
X3085647Y4847626D1*
X3088216Y4848482D1*
X3090785D1*
X3093354Y4847626D1*
X3100204Y4844201D1*
X3102773Y4841632D1*
Y4806523D1*
X3109623D1*
Y4872458D1*
X3102773D1*
G37*
G36*
X3178984D2*
Y4806523D1*
X3185834D1*
Y4872458D1*
X3178984D1*
G37*
G36*
X1955332Y4820224D2*
X1956188Y4821080D1*
X1957901Y4826218D1*
Y4840775D1*
X1957045Y4843344D1*
X1955332Y4846769D1*
X1950194Y4851907D1*
X1947625Y4853620D1*
X1944200Y4854476D1*
X1938206D1*
X1935637Y4853620D1*
X1933925Y4852764D1*
X1932881Y4851870D1*
X1931888Y4851980D1*
X1931076Y4852971D1*
X1931356Y4853620D1*
X1925362D1*
Y4818512D1*
X1921651Y4817655D1*
X1917940D1*
X1914230Y4818512D1*
Y4819368D1*
X1913373Y4821937D1*
X1912517Y4826218D1*
X1911661Y4827075D1*
Y4842488D1*
X1912517Y4843344D1*
X1913373Y4846769D1*
X1915086Y4851907D1*
X1916799Y4854476D1*
Y4855332D1*
X1922793Y4861327D1*
X1924505Y4862183D1*
X1925362Y4863039D1*
X1927074Y4863895D1*
X1929643Y4864752D1*
X1933925Y4865608D1*
X1937921Y4866464D1*
X1941917D1*
X1945913Y4865608D1*
X1949338Y4864752D1*
X1951907Y4863895D1*
X1955332Y4862183D1*
X1956188Y4861327D1*
X1957901Y4860470D1*
X1963039Y4855332D1*
Y4854476D1*
X1966464Y4849338D1*
X1968177Y4844201D1*
X1969033Y4839919D1*
X1969889Y4839063D1*
Y4829643D1*
X1969033Y4828787D1*
X1968177Y4823649D1*
X1966464Y4818512D1*
X1963039Y4813374D1*
Y4812517D1*
X1959614Y4809092D1*
X1957901Y4808236D1*
X1955332Y4806523D1*
X1950194Y4803954D1*
X1945913Y4803098D1*
X1941346Y4802242D1*
X1936779D1*
X1932212Y4803098D1*
X1926218Y4803954D1*
Y4798817D1*
X1927074Y4797960D1*
X1932212Y4797104D1*
X1945057D1*
X1949338Y4797960D1*
X1954476Y4799673D1*
X1957901Y4801386D1*
X1960470Y4803098D1*
X1968177Y4810805D1*
X1969889Y4813374D1*
X1972458Y4818512D1*
X1974171Y4823649D1*
X1975027Y4828787D1*
Y4839919D1*
X1974171Y4844201D1*
X1972458Y4849338D1*
X1969889Y4854476D1*
X1968177Y4857045D1*
X1965608Y4860470D1*
X1963039Y4863039D1*
X1958757Y4866464D1*
X1951907Y4869890D1*
X1949338Y4870746D1*
X1945057Y4871602D1*
X1933925D1*
X1927074Y4869890D1*
X1921936Y4867321D1*
X1919368Y4865608D1*
X1914230Y4860470D1*
X1911661Y4857045D1*
X1909092Y4851907D1*
X1908236Y4849338D1*
X1907379Y4845913D1*
X1906523Y4841632D1*
Y4828787D1*
X1908236Y4821937D1*
X1909092Y4819368D1*
X1911661Y4814230D1*
X1912517Y4813374D1*
X1930499D1*
Y4816799D1*
X1931641Y4817655D1*
X1932783D1*
X1933925Y4816799D1*
X1935637Y4815086D1*
X1937350Y4814230D1*
X1939919Y4813374D1*
X1946769D1*
X1949338Y4814230D1*
X1951051Y4815086D1*
X1954476Y4818512D1*
X1955332Y4820224D1*
X1945913D1*
X1943344Y4819368D1*
X1940775D1*
X1938206Y4820224D1*
X1933068Y4822793D1*
X1931356Y4824506D1*
Y4846769D1*
X1933925Y4847626D1*
X1935637Y4848482D1*
X1938492Y4849338D1*
X1941346D1*
X1944200Y4848482D1*
X1947625Y4846769D1*
X1949338Y4845057D1*
Y4844201D1*
X1950194Y4842488D1*
X1951051Y4839919D1*
X1951907Y4839063D1*
Y4828787D1*
X1951051Y4827931D1*
X1950194Y4825362D1*
X1949338Y4823649D1*
Y4822793D1*
X1947625Y4821080D1*
X1945913Y4820224D1*
X1955332D1*
G37*
G36*
X2731139D2*
X2731995Y4821080D1*
X2733708Y4826218D1*
Y4840775D1*
X2732852Y4843344D1*
X2731139Y4846769D1*
X2726001Y4851907D1*
X2723432Y4853620D1*
X2720007Y4854476D1*
X2714013D1*
X2711444Y4853620D1*
X2709732Y4852764D1*
X2708688Y4851870D1*
X2707695Y4851980D1*
X2706883Y4852971D1*
X2707163Y4853620D1*
X2701169D1*
Y4818512D1*
X2697458Y4817655D1*
X2693747D1*
X2690037Y4818512D1*
Y4819368D1*
X2689181Y4821937D1*
X2688324Y4826218D1*
X2687468Y4827075D1*
Y4842488D1*
X2688324Y4843344D1*
X2689181Y4846769D1*
X2690893Y4851907D1*
X2692606Y4854476D1*
Y4855332D1*
X2698600Y4861327D1*
X2700312Y4862183D1*
X2701169Y4863039D1*
X2702881Y4863895D1*
X2705450Y4864752D1*
X2709732Y4865608D1*
X2713728Y4866464D1*
X2717724D1*
X2721720Y4865608D1*
X2725145Y4864752D1*
X2727714Y4863895D1*
X2731139Y4862183D1*
X2731995Y4861327D1*
X2733708Y4860470D1*
X2738846Y4855332D1*
Y4854476D1*
X2742271Y4849338D1*
X2743984Y4844201D1*
X2744840Y4839919D1*
X2745696Y4839063D1*
Y4829643D1*
X2744840Y4828787D1*
X2743984Y4823649D1*
X2742271Y4818512D1*
X2738846Y4813374D1*
Y4812517D1*
X2735421Y4809092D1*
X2733708Y4808236D1*
X2731139Y4806523D1*
X2726001Y4803954D1*
X2721720Y4803098D1*
X2717153Y4802242D1*
X2712586D1*
X2708019Y4803098D1*
X2702025Y4803954D1*
Y4798817D1*
X2702881Y4797960D1*
X2708019Y4797104D1*
X2720864D1*
X2725145Y4797960D1*
X2730283Y4799673D1*
X2733708Y4801386D1*
X2736277Y4803098D1*
X2743984Y4810805D1*
X2745696Y4813374D1*
X2748265Y4818512D1*
X2749978Y4823649D1*
X2750834Y4828787D1*
Y4839919D1*
X2749978Y4844201D1*
X2748265Y4849338D1*
X2745696Y4854476D1*
X2743984Y4857045D1*
X2741415Y4860470D1*
X2738846Y4863039D1*
X2734564Y4866464D1*
X2727714Y4869890D1*
X2725145Y4870746D1*
X2720864Y4871602D1*
X2709732D1*
X2702881Y4869890D1*
X2697744Y4867321D1*
X2695175Y4865608D1*
X2690037Y4860470D1*
X2687468Y4857045D1*
X2684899Y4851907D1*
X2684043Y4849338D1*
X2683186Y4845913D1*
X2682330Y4841632D1*
Y4828787D1*
X2684043Y4821937D1*
X2684899Y4819368D1*
X2687468Y4814230D1*
X2688324Y4813374D1*
X2706307D1*
Y4816799D1*
X2707448Y4817655D1*
X2708590D1*
X2709732Y4816799D1*
X2711444Y4815086D1*
X2713157Y4814230D1*
X2715726Y4813374D1*
X2722576D1*
X2725145Y4814230D1*
X2726858Y4815086D1*
X2730283Y4818512D1*
X2731139Y4820224D1*
X2721720D1*
X2719151Y4819368D1*
X2716582D1*
X2714013Y4820224D1*
X2708875Y4822793D1*
X2707163Y4824506D1*
Y4846769D1*
X2709732Y4847626D1*
X2711444Y4848482D1*
X2714299Y4849338D1*
X2717153D1*
X2720007Y4848482D1*
X2723432Y4846769D1*
X2725145Y4845057D1*
Y4844201D1*
X2726001Y4842488D1*
X2726858Y4839919D1*
X2727714Y4839063D1*
Y4828787D1*
X2726858Y4827931D1*
X2726001Y4825362D1*
X2725145Y4823649D1*
Y4822793D1*
X2723432Y4821080D1*
X2721720Y4820224D1*
X2731139D1*
G37*
G36*
X1699299Y4869890D2*
Y4862183D1*
X1707862D1*
Y4869890D1*
X1699299D1*
G37*
G36*
X2422871Y4836494D2*
X2422015Y4835638D1*
X2420303Y4832212D1*
X2419446Y4829643D1*
Y4822793D1*
X2420303Y4819368D1*
X2422015Y4815943D1*
X2423728Y4813374D1*
X2425440Y4811661D1*
X2428009Y4809949D1*
X2431434Y4808236D1*
X2434003Y4807380D1*
X2438285Y4806523D1*
X2462261D1*
Y4869890D1*
X2435716D1*
X2432291Y4869033D1*
X2429722Y4868177D1*
X2428009Y4867321D1*
X2424584Y4863895D1*
X2423728Y4862183D1*
X2436572D1*
X2442566Y4863039D1*
X2448560D1*
X2454555Y4862183D1*
Y4845057D1*
X2448846Y4844201D1*
X2443137D1*
X2437429Y4845057D1*
X2434003Y4846769D1*
X2431434Y4849338D1*
Y4850195D1*
X2430578Y4851051D1*
Y4857901D1*
X2434003Y4861327D1*
X2436572Y4862183D1*
X2423728D1*
X2422871Y4860470D1*
Y4851907D1*
X2424584Y4848482D1*
X2426297Y4845913D1*
X2429722Y4843344D1*
X2431434Y4842488D1*
X2430578Y4841632D1*
X2428009Y4840775D1*
X2426297Y4839919D1*
X2422871Y4836494D1*
X2435716D1*
X2441995Y4837350D1*
X2448275D1*
X2454555Y4836494D1*
Y4814230D1*
X2449131Y4813374D1*
X2443708D1*
X2438285Y4814230D1*
X2434860Y4815086D1*
X2431434Y4816799D1*
X2428866Y4819368D1*
Y4820224D1*
X2428009Y4822793D1*
X2427153Y4823649D1*
Y4827931D1*
X2428009Y4828787D1*
Y4831356D1*
X2431434Y4834781D1*
X2433147Y4835638D1*
X2435716Y4836494D1*
X2422871D1*
G37*
G36*
X2594131Y4869890D2*
Y4862183D1*
X2602694D1*
Y4869890D1*
X2594131D1*
G37*
G36*
X2615539D2*
Y4806523D1*
X2623245D1*
Y4860470D1*
X2623885Y4861020D1*
X2624318Y4860948D1*
X2624805Y4860240D1*
X2624958Y4859614D1*
X2625814Y4857901D1*
X2626671Y4855332D1*
X2629240Y4850195D1*
X2630096Y4847626D1*
X2632665Y4842488D1*
X2633521Y4839919D1*
X2636090Y4834781D1*
X2636946Y4832212D1*
X2639515Y4827075D1*
X2640371Y4824506D1*
X2645509D1*
X2646366Y4826218D1*
X2647222Y4828787D1*
X2649791Y4833925D1*
X2650647Y4836494D1*
X2653216Y4841632D1*
X2654072Y4844201D1*
X2655785Y4847626D1*
X2656641Y4850195D1*
X2659210Y4855332D1*
X2660066Y4857901D1*
X2660923Y4859614D1*
X2661063Y4860276D1*
X2661588Y4860978D1*
X2662010Y4860958D1*
X2662635Y4860470D1*
Y4806523D1*
X2669486D1*
Y4869890D1*
X2658354D1*
X2657497Y4867321D1*
X2654072Y4860470D1*
X2653216Y4857901D1*
X2650647Y4852764D1*
X2649791Y4850195D1*
X2647222Y4845057D1*
X2646366Y4842488D1*
X2643365Y4836492D1*
X2642868Y4835597D1*
X2642031Y4834705D1*
X2641590Y4834846D1*
X2641228Y4835638D1*
Y4837350D1*
X2639515Y4840775D1*
X2638659Y4843344D1*
X2636946Y4846769D1*
X2636090Y4849338D1*
X2634377Y4852764D1*
X2633521Y4855332D1*
X2630952Y4860470D1*
X2630096Y4863039D1*
X2628383Y4866464D1*
X2627527Y4869033D1*
X2626671Y4869890D1*
X2615539D1*
G37*
G36*
X3244919D2*
Y4862183D1*
X3253482D1*
Y4869890D1*
X3244919D1*
G37*
G36*
X2574436Y4867321D2*
Y4854476D1*
X2559879Y4853620D1*
Y4847626D1*
X2574436Y4846769D1*
Y4816799D1*
X2573580Y4815943D1*
Y4815086D1*
X2571868Y4813374D1*
X2570155Y4812517D1*
X2567586Y4811661D1*
X2565017D1*
X2559879Y4813374D1*
Y4806523D1*
X2564161Y4805667D1*
X2571868D1*
X2574436Y4806523D1*
X2576149Y4807380D1*
X2579574Y4810805D1*
X2580431Y4812517D1*
X2581287Y4815086D1*
Y4846769D1*
X2587281Y4847626D1*
Y4853620D1*
X2581287Y4854476D1*
Y4867321D1*
X2574436D1*
G37*
G36*
X2847596D2*
Y4854476D1*
X2833039Y4853620D1*
Y4847626D1*
X2847596Y4846769D1*
Y4816799D1*
X2846740Y4815943D1*
Y4815086D1*
X2845027Y4813374D1*
X2843314Y4812517D1*
X2840745Y4811661D1*
X2838177D1*
X2833039Y4813374D1*
Y4806523D1*
X2837320Y4805667D1*
X2845027D1*
X2847596Y4806523D1*
X2849308Y4807380D1*
X2852734Y4810805D1*
X2853590Y4812517D1*
X2854446Y4815086D1*
Y4846769D1*
X2860440Y4847626D1*
Y4853620D1*
X2854446Y4854476D1*
Y4867321D1*
X2847596D1*
G37*
G36*
X3131031D2*
Y4854476D1*
X3116474Y4853620D1*
Y4847626D1*
X3131031Y4846769D1*
Y4816799D1*
X3130175Y4815943D1*
Y4815086D1*
X3128462Y4813374D1*
X3126749Y4812517D1*
X3124181Y4811661D1*
X3121612D1*
X3116474Y4813374D1*
Y4806523D1*
X3120755Y4805667D1*
X3128462D1*
X3131031Y4806523D1*
X3132744Y4807380D1*
X3136169Y4810805D1*
X3137025Y4812517D1*
X3137881Y4815086D1*
Y4846769D1*
X3143875Y4847626D1*
Y4853620D1*
X3137881Y4854476D1*
Y4867321D1*
X3131031D1*
G37*
G36*
X1763521Y4830500D2*
Y4806523D1*
X1770371D1*
Y4809949D1*
X1771286Y4810520D1*
X1772084Y4810805D1*
X1773797Y4809092D1*
X1776366Y4807380D1*
X1779791Y4805667D1*
X1782360Y4804811D1*
X1790066D1*
X1792635Y4805667D1*
X1794348Y4806523D1*
X1798629Y4810805D1*
X1800342Y4814230D1*
X1801198Y4817655D1*
Y4821937D1*
X1800342Y4826218D1*
X1799486Y4827931D1*
X1797773Y4830500D1*
X1794348Y4833069D1*
X1790923Y4834781D1*
X1784072Y4836494D1*
X1776366Y4837350D1*
X1770371Y4838206D1*
Y4840775D1*
X1771228Y4841632D1*
Y4844201D1*
X1774653Y4847626D1*
X1777222Y4848482D1*
X1780932Y4849338D1*
X1784643D1*
X1788354Y4848482D1*
X1791779Y4847626D1*
X1796917Y4845913D1*
Y4853620D1*
X1793492Y4854476D1*
X1788354Y4855332D1*
X1777222D1*
X1772940Y4854476D1*
X1769515Y4852764D1*
X1766090Y4849338D1*
X1764377Y4845913D1*
X1763521Y4842488D1*
Y4830500D1*
X1770371D1*
X1772370Y4831356D1*
X1774368D1*
X1776366Y4830500D1*
X1783216Y4829643D1*
X1786641Y4828787D1*
X1790066Y4827075D1*
X1792635Y4824506D1*
Y4823649D1*
X1793492Y4822793D1*
Y4817655D1*
X1792635Y4816799D1*
X1791779Y4815086D1*
Y4814230D1*
X1788354Y4812517D1*
X1785499Y4811661D1*
X1782645D1*
X1779791Y4812517D1*
X1777222Y4813374D1*
X1773797Y4815086D1*
X1772084Y4816799D1*
X1770371Y4817655D1*
Y4830500D1*
X1763521D1*
G37*
G36*
X1861139Y4848482D2*
X1859427Y4846769D1*
X1857714Y4843344D1*
X1856858Y4840775D1*
X1856001Y4837350D1*
Y4822793D1*
X1856858Y4819368D1*
X1857714Y4816799D1*
X1859427Y4813374D1*
X1865421Y4807380D1*
X1867133Y4806523D1*
X1872271Y4804811D1*
X1880834D1*
X1884259Y4805667D1*
X1887684Y4807380D1*
X1891110Y4809949D1*
X1893679Y4813374D1*
X1896247Y4818512D1*
X1897104Y4821080D1*
X1897960Y4826218D1*
Y4833925D1*
X1897104Y4839063D1*
X1896247Y4841632D1*
X1893679Y4846769D1*
X1887684Y4852764D1*
X1885972Y4853620D1*
X1880834Y4855332D1*
X1872271D1*
X1867133Y4853620D1*
X1864564Y4851907D1*
X1861139Y4848482D1*
X1872271D1*
X1875125Y4849338D1*
X1877980D1*
X1880834Y4848482D1*
X1883403Y4847626D1*
X1887684Y4843344D1*
Y4842488D1*
X1888541Y4840775D1*
X1889397Y4837350D1*
X1890253Y4836494D1*
Y4823649D1*
X1889397Y4822793D1*
X1888541Y4819368D1*
X1887684Y4817655D1*
Y4816799D1*
X1884259Y4813374D1*
X1880834Y4811661D1*
X1877980Y4810805D1*
X1875125D1*
X1872271Y4811661D1*
X1868846Y4813374D1*
X1866277Y4815943D1*
Y4816799D1*
X1864564Y4820224D1*
X1863708Y4824506D1*
X1862852Y4825362D1*
Y4834781D1*
X1863708Y4835638D1*
X1864564Y4839919D1*
X1865421Y4842488D1*
Y4843344D1*
X1868846Y4846769D1*
X1872271Y4848482D1*
X1861139D1*
G37*
G36*
X2074358Y4855332D2*
X2071789Y4854476D1*
X2070076Y4853620D1*
X2065795Y4849338D1*
X2064082Y4845913D1*
X2063226Y4841632D1*
Y4806523D1*
X2070076D1*
X2070932Y4837350D1*
X2071789Y4843344D1*
X2072645Y4845057D1*
Y4845913D1*
X2076070Y4847626D1*
X2078639Y4848482D1*
X2081208D1*
X2083777Y4847626D1*
X2090627Y4844201D1*
X2093196Y4841632D1*
Y4806523D1*
X2100047D1*
Y4853620D1*
X2093196D1*
Y4850195D1*
X2092152Y4849301D1*
X2091484Y4849338D1*
X2089771Y4851051D1*
X2087202Y4852764D1*
X2083777Y4854476D1*
X2081208Y4855332D1*
X2074358D1*
G37*
G36*
X2112035Y4830500D2*
Y4806523D1*
X2118885D1*
Y4809949D1*
X2119800Y4810520D1*
X2120598Y4810805D1*
X2122310Y4809092D1*
X2124879Y4807380D1*
X2128305Y4805667D1*
X2130873Y4804811D1*
X2138580D1*
X2141149Y4805667D1*
X2142862Y4806523D1*
X2147143Y4810805D1*
X2148856Y4814230D1*
X2149712Y4817655D1*
Y4821937D1*
X2148856Y4826218D1*
X2147999Y4827931D1*
X2146287Y4830500D1*
X2142862Y4833069D1*
X2139436Y4834781D1*
X2132586Y4836494D1*
X2124879Y4837350D1*
X2118885Y4838206D1*
Y4840775D1*
X2119742Y4841632D1*
Y4844201D1*
X2123167Y4847626D1*
X2125736Y4848482D1*
X2129446Y4849338D1*
X2133157D1*
X2136868Y4848482D1*
X2140293Y4847626D1*
X2145431Y4845913D1*
Y4853620D1*
X2142005Y4854476D1*
X2136868Y4855332D1*
X2125736D1*
X2121454Y4854476D1*
X2118029Y4852764D1*
X2114604Y4849338D1*
X2112891Y4845913D1*
X2112035Y4842488D1*
Y4830500D1*
X2118885D1*
X2120883Y4831356D1*
X2122881D1*
X2124879Y4830500D1*
X2131730Y4829643D1*
X2135155Y4828787D1*
X2138580Y4827075D1*
X2141149Y4824506D1*
Y4823649D1*
X2142005Y4822793D1*
Y4817655D1*
X2141149Y4816799D1*
X2140293Y4815086D1*
Y4814230D1*
X2136868Y4812517D1*
X2134013Y4811661D1*
X2131159D1*
X2128305Y4812517D1*
X2125736Y4813374D1*
X2122310Y4815086D1*
X2120598Y4816799D1*
X2118885Y4817655D1*
Y4830500D1*
X2112035D1*
G37*
G36*
X2230204Y4848482D2*
X2229348Y4847626D1*
X2227635Y4844201D1*
X2226779Y4841632D1*
X2225923Y4835638D1*
Y4829643D1*
X2259318Y4828787D1*
Y4823649D1*
X2258462Y4822793D1*
X2257606Y4820224D1*
X2256749Y4818512D1*
Y4817655D1*
X2254181Y4815086D1*
X2250755Y4813374D1*
X2248186Y4812517D1*
X2244761Y4811661D1*
X2241336D1*
X2237911Y4812517D1*
X2232773Y4814230D1*
X2229348Y4815943D1*
X2228492Y4816799D1*
X2226779Y4817655D1*
Y4809949D1*
X2227635Y4809092D1*
X2231917Y4807380D1*
X2234486Y4806523D1*
X2238767Y4805667D1*
X2248186D1*
X2251612Y4806523D1*
X2254181Y4807380D1*
X2257606Y4809092D1*
X2262744Y4814230D1*
X2264456Y4816799D1*
X2266169Y4821937D1*
X2267025Y4826218D1*
Y4833925D1*
X2266169Y4838206D1*
X2265312Y4841632D1*
X2263600Y4845057D1*
X2261887Y4847626D1*
X2257606Y4851907D1*
X2252468Y4854476D1*
X2249043Y4855332D1*
X2241336D1*
X2237911Y4854476D1*
X2234486Y4852764D1*
X2231917Y4851051D1*
X2230204Y4848482D1*
X2241336D1*
X2244190Y4849338D1*
X2247045D1*
X2249899Y4848482D1*
X2252468Y4847626D1*
X2253324Y4846769D1*
X2255037Y4845913D1*
X2255727Y4844808D1*
X2255893Y4844201D1*
X2257606Y4841632D1*
X2258462Y4839919D1*
X2259318Y4839063D1*
Y4835638D1*
X2250470Y4834781D1*
X2241621D1*
X2232773Y4835638D1*
X2233629Y4836494D1*
X2234486Y4841632D1*
X2236198Y4845057D1*
X2238767Y4847626D1*
X2241336Y4848482D1*
X2230204D1*
G37*
G36*
X2344948Y4830500D2*
Y4806523D1*
X2351799D1*
Y4809949D1*
X2352714Y4810520D1*
X2353511Y4810805D1*
X2355224Y4809092D1*
X2357793Y4807380D1*
X2361218Y4805667D1*
X2363787Y4804811D1*
X2371494D1*
X2374062Y4805667D1*
X2375775Y4806523D1*
X2380057Y4810805D1*
X2381769Y4814230D1*
X2382625Y4817655D1*
Y4821937D1*
X2381769Y4826218D1*
X2380913Y4827931D1*
X2379200Y4830500D1*
X2375775Y4833069D1*
X2372350Y4834781D1*
X2365499Y4836494D1*
X2357793Y4837350D1*
X2351799Y4838206D1*
Y4840775D1*
X2352655Y4841632D1*
Y4844201D1*
X2356080Y4847626D1*
X2358649Y4848482D1*
X2362360Y4849338D1*
X2366070D1*
X2369781Y4848482D1*
X2373206Y4847626D1*
X2378344Y4845913D1*
Y4853620D1*
X2374919Y4854476D1*
X2369781Y4855332D1*
X2358649D1*
X2354368Y4854476D1*
X2350942Y4852764D1*
X2347517Y4849338D1*
X2345805Y4845913D1*
X2344948Y4842488D1*
Y4830500D1*
X2351799D1*
X2353797Y4831356D1*
X2355795D1*
X2357793Y4830500D1*
X2364643Y4829643D1*
X2368068Y4828787D1*
X2371494Y4827075D1*
X2374062Y4824506D1*
Y4823649D1*
X2374919Y4822793D1*
Y4817655D1*
X2374062Y4816799D1*
X2373206Y4815086D1*
Y4814230D1*
X2369781Y4812517D1*
X2366927Y4811661D1*
X2364072D1*
X2361218Y4812517D1*
X2358649Y4813374D1*
X2355224Y4815086D1*
X2353511Y4816799D1*
X2351799Y4817655D1*
Y4830500D1*
X2344948D1*
G37*
G36*
X2529909Y4855332D2*
X2526484Y4854476D1*
X2521346Y4852764D1*
X2519633Y4851051D1*
Y4843344D1*
X2521346Y4844201D1*
X2522202Y4845057D1*
X2527340Y4847626D1*
X2529909Y4848482D1*
X2532763Y4849338D1*
X2535618D1*
X2538472Y4848482D1*
X2541897Y4846769D1*
X2546179Y4842488D1*
Y4841632D1*
X2547035Y4839919D1*
X2547891Y4836494D1*
X2548747Y4835638D1*
Y4825362D1*
X2547891Y4824506D1*
X2547035Y4821080D1*
X2545322Y4817655D1*
Y4816799D1*
X2543610Y4815086D1*
X2541897Y4814230D1*
X2541041Y4813374D1*
X2538472Y4812517D1*
X2535618Y4811661D1*
X2532763D1*
X2529909Y4812517D1*
X2526484Y4813374D1*
X2523058Y4815086D1*
X2521346Y4816799D1*
X2519633Y4817655D1*
Y4809949D1*
X2520490Y4809092D1*
X2523915Y4807380D1*
X2526484Y4806523D1*
X2529909Y4805667D1*
X2538472D1*
X2541897Y4806523D1*
X2544466Y4807380D1*
X2549604Y4810805D1*
X2550460Y4811661D1*
X2553885Y4816799D1*
X2555598Y4821937D1*
X2556454Y4827931D1*
Y4833069D1*
X2555598Y4838206D1*
X2554742Y4841632D1*
X2553029Y4845057D1*
X2551316Y4847626D1*
X2547035Y4851907D1*
X2543610Y4853620D1*
X2538472Y4855332D1*
X2529909D1*
G37*
G36*
X2792793Y4848482D2*
X2791080Y4846769D1*
X2789368Y4843344D1*
X2788511Y4840775D1*
X2787655Y4837350D1*
Y4822793D1*
X2788511Y4819368D1*
X2789368Y4816799D1*
X2791080Y4813374D1*
X2797074Y4807380D1*
X2798787Y4806523D1*
X2803925Y4804811D1*
X2812488D1*
X2815913Y4805667D1*
X2819338Y4807380D1*
X2822763Y4809949D1*
X2825332Y4813374D1*
X2827901Y4818512D1*
X2828757Y4821080D1*
X2829614Y4826218D1*
Y4833925D1*
X2828757Y4839063D1*
X2827901Y4841632D1*
X2825332Y4846769D1*
X2819338Y4852764D1*
X2817625Y4853620D1*
X2812488Y4855332D1*
X2803925D1*
X2798787Y4853620D1*
X2796218Y4851907D1*
X2792793Y4848482D1*
X2803925D1*
X2806779Y4849338D1*
X2809633D1*
X2812488Y4848482D1*
X2815057Y4847626D1*
X2819338Y4843344D1*
Y4842488D1*
X2820194Y4840775D1*
X2821051Y4837350D1*
X2821907Y4836494D1*
Y4823649D1*
X2821051Y4822793D1*
X2820194Y4819368D1*
X2819338Y4817655D1*
Y4816799D1*
X2815913Y4813374D1*
X2812488Y4811661D1*
X2809633Y4810805D1*
X2806779D1*
X2803925Y4811661D1*
X2800499Y4813374D1*
X2797931Y4815943D1*
Y4816799D1*
X2796218Y4820224D1*
X2795362Y4824506D1*
X2794505Y4825362D1*
Y4834781D1*
X2795362Y4835638D1*
X2796218Y4839919D1*
X2797074Y4842488D1*
Y4843344D1*
X2800499Y4846769D1*
X2803925Y4848482D1*
X2792793D1*
G37*
G36*
X2902399Y4855332D2*
X2898118Y4854476D1*
X2895549Y4853620D1*
X2893836Y4852764D1*
X2892980Y4851907D1*
Y4844201D1*
X2893836Y4845057D1*
X2898974Y4847626D1*
X2902399Y4848482D1*
X2905539Y4849338D1*
X2908679D1*
X2911818Y4848482D1*
X2915244Y4846769D1*
X2916956Y4845057D1*
Y4839063D1*
X2914387Y4836494D1*
X2909249Y4834781D1*
X2904968Y4833925D1*
X2901543Y4833069D1*
X2898974Y4832212D1*
X2895549Y4830500D1*
X2892123Y4827075D1*
X2891267Y4824506D1*
Y4815943D1*
X2892980Y4812517D1*
X2896405Y4809092D1*
X2898974Y4807380D1*
X2904112Y4805667D1*
X2914387D1*
X2917812Y4806523D1*
X2922950Y4808236D1*
X2924663Y4809092D1*
Y4817655D1*
X2923807Y4816799D1*
X2916956Y4813374D1*
X2913531Y4812517D1*
X2910391Y4811661D1*
X2907251D1*
X2904112Y4812517D1*
X2901543Y4813374D1*
X2898974Y4815943D1*
Y4816799D1*
X2898118Y4817655D1*
Y4821080D1*
X2898974Y4821937D1*
X2899140Y4822544D1*
X2899830Y4823649D1*
X2903255Y4825362D1*
X2905824Y4826218D1*
X2910106Y4827075D1*
X2913531Y4827931D1*
X2916100Y4828787D1*
X2919525Y4830500D1*
X2922950Y4833925D1*
X2923807Y4835638D1*
X2924663Y4838206D1*
Y4844201D1*
X2923807Y4846769D1*
X2922950Y4848482D1*
X2919525Y4851907D1*
X2916956Y4853620D1*
X2911818Y4855332D1*
X2902399D1*
G37*
G36*
X2988885D2*
X2986316Y4854476D1*
X2984604Y4853620D1*
X2980322Y4849338D1*
X2978610Y4845913D1*
X2977753Y4841632D1*
Y4806523D1*
X2984604D1*
X2985460Y4837350D1*
X2986316Y4843344D1*
X2987173Y4845057D1*
Y4845913D1*
X2990598Y4847626D1*
X2993167Y4848482D1*
X2995736D1*
X2998305Y4847626D1*
X3005155Y4844201D1*
X3007724Y4841632D1*
Y4806523D1*
X3014574D1*
Y4853620D1*
X3007724D1*
Y4850195D1*
X3006680Y4849301D1*
X3006011Y4849338D1*
X3004299Y4851051D1*
X3001730Y4852764D1*
X2998305Y4854476D1*
X2995736Y4855332D1*
X2988885D1*
G37*
G36*
X3026562Y4830500D2*
Y4806523D1*
X3033413D1*
Y4809949D1*
X3034328Y4810520D1*
X3035125Y4810805D1*
X3036838Y4809092D1*
X3039407Y4807380D1*
X3042832Y4805667D1*
X3045401Y4804811D1*
X3053108D1*
X3055677Y4805667D1*
X3057389Y4806523D1*
X3061671Y4810805D1*
X3063383Y4814230D1*
X3064240Y4817655D1*
Y4821937D1*
X3063383Y4826218D1*
X3062527Y4827931D1*
X3060814Y4830500D1*
X3057389Y4833069D1*
X3053964Y4834781D1*
X3047114Y4836494D1*
X3039407Y4837350D1*
X3033413Y4838206D1*
Y4840775D1*
X3034269Y4841632D1*
Y4844201D1*
X3037694Y4847626D1*
X3040263Y4848482D1*
X3043974Y4849338D1*
X3047684D1*
X3051395Y4848482D1*
X3054820Y4847626D1*
X3059958Y4845913D1*
Y4853620D1*
X3056533Y4854476D1*
X3051395Y4855332D1*
X3040263D1*
X3035982Y4854476D1*
X3032557Y4852764D1*
X3029131Y4849338D1*
X3027419Y4845913D1*
X3026562Y4842488D1*
Y4830500D1*
X3033413D1*
X3035411Y4831356D1*
X3037409D1*
X3039407Y4830500D1*
X3046257Y4829643D1*
X3049682Y4828787D1*
X3053108Y4827075D1*
X3055677Y4824506D1*
Y4823649D1*
X3056533Y4822793D1*
Y4817655D1*
X3055677Y4816799D1*
X3054820Y4815086D1*
Y4814230D1*
X3051395Y4812517D1*
X3048541Y4811661D1*
X3045686D1*
X3042832Y4812517D1*
X3040263Y4813374D1*
X3036838Y4815086D1*
X3035125Y4816799D1*
X3033413Y4817655D1*
Y4830500D1*
X3026562D1*
G37*
G36*
X3198679D2*
Y4806523D1*
X3205529D1*
Y4809949D1*
X3206444Y4810520D1*
X3207242Y4810805D1*
X3208954Y4809092D1*
X3211523Y4807380D1*
X3214948Y4805667D1*
X3217517Y4804811D1*
X3225224D1*
X3227793Y4805667D1*
X3229505Y4806523D1*
X3233787Y4810805D1*
X3235499Y4814230D1*
X3236356Y4817655D1*
Y4821937D1*
X3235499Y4826218D1*
X3234643Y4827931D1*
X3232931Y4830500D1*
X3229505Y4833069D1*
X3226080Y4834781D1*
X3219230Y4836494D1*
X3211523Y4837350D1*
X3205529Y4838206D1*
Y4840775D1*
X3206385Y4841632D1*
Y4844201D1*
X3209810Y4847626D1*
X3212379Y4848482D1*
X3216090Y4849338D1*
X3219801D1*
X3223511Y4848482D1*
X3226936Y4847626D1*
X3232074Y4845913D1*
Y4853620D1*
X3228649Y4854476D1*
X3223511Y4855332D1*
X3212379D1*
X3208098Y4854476D1*
X3204673Y4852764D1*
X3201247Y4849338D1*
X3199535Y4845913D1*
X3198679Y4842488D1*
Y4830500D1*
X3205529D1*
X3207527Y4831356D1*
X3209525D1*
X3211523Y4830500D1*
X3218373Y4829643D1*
X3221799Y4828787D1*
X3225224Y4827075D1*
X3227793Y4824506D1*
Y4823649D1*
X3228649Y4822793D1*
Y4817655D1*
X3227793Y4816799D1*
X3226936Y4815086D1*
Y4814230D1*
X3223511Y4812517D1*
X3220657Y4811661D1*
X3217803D1*
X3214948Y4812517D1*
X3212379Y4813374D1*
X3208954Y4815086D1*
X3207242Y4816799D1*
X3205529Y4817655D1*
Y4830500D1*
X3198679D1*
G37*
G36*
X3271464Y4855332D2*
X3268039Y4854476D1*
X3262901Y4852764D1*
X3261188Y4851051D1*
Y4843344D1*
X3262901Y4844201D1*
X3263757Y4845057D1*
X3268895Y4847626D1*
X3271464Y4848482D1*
X3274318Y4849338D1*
X3277173D1*
X3280027Y4848482D1*
X3283452Y4846769D1*
X3287734Y4842488D1*
Y4841632D1*
X3288590Y4839919D1*
X3289446Y4836494D1*
X3290303Y4835638D1*
Y4825362D1*
X3289446Y4824506D1*
X3288590Y4821080D1*
X3286877Y4817655D1*
Y4816799D1*
X3285165Y4815086D1*
X3283452Y4814230D1*
X3282596Y4813374D1*
X3280027Y4812517D1*
X3277173Y4811661D1*
X3274318D1*
X3271464Y4812517D1*
X3268039Y4813374D1*
X3264614Y4815086D1*
X3262901Y4816799D1*
X3261188Y4817655D1*
Y4809949D1*
X3262045Y4809092D1*
X3265470Y4807380D1*
X3268039Y4806523D1*
X3271464Y4805667D1*
X3280027D1*
X3283452Y4806523D1*
X3286021Y4807380D1*
X3291159Y4810805D1*
X3292015Y4811661D1*
X3295440Y4816799D1*
X3297153Y4821937D1*
X3298009Y4827931D1*
Y4833069D1*
X3297153Y4838206D1*
X3296297Y4841632D1*
X3294584Y4845057D1*
X3292871Y4847626D1*
X3288590Y4851907D1*
X3285165Y4853620D1*
X3280027Y4855332D1*
X3271464D1*
G37*
G36*
X3307429Y4848482D2*
X3306572Y4847626D1*
X3304860Y4844201D1*
X3304003Y4841632D1*
X3303147Y4835638D1*
Y4829643D1*
X3336543Y4828787D1*
Y4823649D1*
X3335686Y4822793D1*
X3334830Y4820224D1*
X3333974Y4818512D1*
Y4817655D1*
X3331405Y4815086D1*
X3327980Y4813374D1*
X3325411Y4812517D1*
X3321986Y4811661D1*
X3318560D1*
X3315135Y4812517D1*
X3309997Y4814230D1*
X3306572Y4815943D1*
X3305716Y4816799D1*
X3304003Y4817655D1*
Y4809949D1*
X3304860Y4809092D1*
X3309141Y4807380D1*
X3311710Y4806523D1*
X3315992Y4805667D1*
X3325411D1*
X3328836Y4806523D1*
X3331405Y4807380D1*
X3334830Y4809092D1*
X3339968Y4814230D1*
X3341681Y4816799D1*
X3343393Y4821937D1*
X3344249Y4826218D1*
Y4833925D1*
X3343393Y4838206D1*
X3342537Y4841632D1*
X3340824Y4845057D1*
X3339112Y4847626D1*
X3334830Y4851907D1*
X3329692Y4854476D1*
X3326267Y4855332D1*
X3318560D1*
X3315135Y4854476D1*
X3311710Y4852764D1*
X3309141Y4851051D1*
X3307429Y4848482D1*
X3318560D1*
X3321415Y4849338D1*
X3324269D1*
X3327123Y4848482D1*
X3329692Y4847626D1*
X3330549Y4846769D1*
X3332261Y4845913D1*
X3332951Y4844808D1*
X3333118Y4844201D1*
X3334830Y4841632D1*
X3335686Y4839919D1*
X3336543Y4839063D1*
Y4835638D1*
X3327694Y4834781D1*
X3318846D1*
X3309997Y4835638D1*
X3310854Y4836494D1*
X3311710Y4841632D1*
X3313423Y4845057D1*
X3315992Y4847626D1*
X3318560Y4848482D1*
X3307429D1*
G37*
G36*
X3353669Y4847626D2*
X3352812Y4846769D1*
X3351956Y4845057D1*
X3351100Y4842488D1*
X3350244Y4839063D1*
Y4823649D1*
X3351956Y4818512D1*
X3354525Y4813374D1*
X3358807Y4809092D1*
X3361375Y4807380D1*
X3363088Y4806523D1*
X3366513Y4805667D1*
X3374220D1*
X3379358Y4807380D1*
X3380274Y4807891D1*
X3381018Y4807836D1*
X3381927Y4807380D1*
Y4788541D1*
X3389633D1*
Y4853620D1*
X3381927D1*
Y4850195D1*
X3381019Y4849265D1*
X3380575Y4849404D1*
X3380214Y4850195D1*
X3379358Y4851051D1*
X3376789Y4852764D1*
X3373364Y4854476D1*
X3370795Y4855332D1*
X3363944D1*
X3360519Y4854476D1*
X3358807Y4853620D1*
X3353669Y4848482D1*
Y4847626D1*
X3364801D1*
X3367655Y4848482D1*
X3370509D1*
X3373364Y4847626D1*
X3375932Y4846769D1*
X3377645Y4845913D1*
X3378501Y4845057D1*
X3380214Y4844201D1*
X3381927Y4842488D1*
Y4815943D1*
X3381070Y4815086D1*
X3379358Y4814230D1*
X3376789Y4813374D1*
X3373364Y4812517D1*
X3369938D1*
X3366513Y4813374D1*
X3363088Y4815086D1*
X3360519Y4817655D1*
Y4818512D1*
X3358807Y4821937D1*
X3357950Y4826218D1*
X3357094Y4827075D1*
Y4834781D1*
X3357950Y4835638D1*
X3358807Y4839919D1*
X3359663Y4842488D1*
Y4843344D1*
X3363088Y4846769D1*
X3364801Y4847626D1*
X3353669D1*
G37*
G36*
X3409328Y4855332D2*
X3405047Y4854476D1*
X3402478Y4853620D1*
X3400765Y4852764D1*
X3399909Y4851907D1*
Y4844201D1*
X3400765Y4845057D1*
X3405903Y4847626D1*
X3409328Y4848482D1*
X3412468Y4849338D1*
X3415608D1*
X3418747Y4848482D1*
X3422173Y4846769D1*
X3423885Y4845057D1*
Y4839063D1*
X3421316Y4836494D1*
X3416179Y4834781D1*
X3411897Y4833925D1*
X3408472Y4833069D1*
X3405903Y4832212D1*
X3402478Y4830500D1*
X3399053Y4827075D1*
X3398196Y4824506D1*
Y4815943D1*
X3399909Y4812517D1*
X3403334Y4809092D1*
X3405903Y4807380D1*
X3411041Y4805667D1*
X3421316D1*
X3424742Y4806523D1*
X3429879Y4808236D1*
X3431592Y4809092D1*
Y4817655D1*
X3430736Y4816799D1*
X3423885Y4813374D1*
X3420460Y4812517D1*
X3417320Y4811661D1*
X3414181D1*
X3411041Y4812517D1*
X3408472Y4813374D1*
X3405903Y4815943D1*
Y4816799D1*
X3405047Y4817655D1*
Y4821080D1*
X3405903Y4821937D1*
X3406069Y4822544D1*
X3406759Y4823649D1*
X3410184Y4825362D1*
X3412753Y4826218D1*
X3417035Y4827075D1*
X3420460Y4827931D1*
X3423029Y4828787D1*
X3426454Y4830500D1*
X3429879Y4833925D1*
X3430736Y4835638D1*
X3431592Y4838206D1*
Y4844201D1*
X3430736Y4846769D1*
X3429879Y4848482D1*
X3426454Y4851907D1*
X3423885Y4853620D1*
X3418747Y4855332D1*
X3409328D1*
G37*
G36*
X1700155Y4853620D2*
Y4806523D1*
X1707005D1*
Y4853620D1*
X1700155D1*
G37*
G36*
X2180539D2*
X2181395Y4852764D1*
Y4851051D1*
X2182251Y4849338D1*
X2183108Y4846769D1*
X2183964Y4845057D1*
X2185677Y4839919D1*
X2186533Y4838206D1*
X2187389Y4835638D1*
X2188245Y4833925D1*
X2189102Y4831356D1*
X2189958Y4829643D1*
X2190814Y4827075D1*
X2191671Y4825362D1*
X2193383Y4820224D1*
X2194240Y4818512D1*
X2195096Y4815943D1*
X2195952Y4814230D1*
X2196808Y4811661D1*
X2197665Y4809949D1*
X2199377Y4804811D1*
X2200234Y4803098D1*
X2201090Y4800529D1*
X2201946Y4798817D1*
X2202803Y4796248D1*
X2203659Y4794535D1*
X2205371Y4789397D1*
X2206228Y4788541D1*
X2213934D1*
X2213078Y4791110D1*
X2211366Y4794535D1*
X2210509Y4797104D1*
X2208797Y4800529D1*
X2207940Y4803098D1*
X2206228Y4806523D1*
X2205371Y4807380D1*
Y4809092D1*
X2206228Y4809949D1*
X2207084Y4812517D1*
X2207940Y4814230D1*
X2208797Y4816799D1*
X2209653Y4818512D1*
X2211366Y4823649D1*
X2212222Y4825362D1*
X2213934Y4830500D1*
X2214791Y4832212D1*
X2216503Y4837350D1*
X2217360Y4839063D1*
X2218216Y4841632D1*
X2219072Y4843344D1*
X2220785Y4848482D1*
X2221641Y4850195D1*
X2222497Y4852764D1*
Y4853620D1*
X2214791D1*
X2213934Y4851907D1*
X2212222Y4846769D1*
X2211366Y4845057D1*
X2208797Y4837350D1*
X2207940Y4835638D1*
X2205371Y4827931D1*
X2204515Y4826218D1*
X2202803Y4821080D1*
X2202371Y4820222D1*
X2201874Y4819328D1*
X2201037Y4818436D1*
X2200596Y4818577D1*
X2200234Y4819368D1*
Y4821080D1*
X2198521Y4826218D1*
X2197665Y4827931D1*
X2195096Y4835638D1*
X2194240Y4837350D1*
X2191671Y4845057D1*
X2190814Y4846769D1*
X2189102Y4851907D1*
X2188245Y4853620D1*
X2180539D1*
G37*
G36*
X2386051D2*
Y4845913D1*
X2394614Y4845057D1*
X2397182Y4844201D1*
X2400608Y4842488D1*
X2403177Y4839919D1*
Y4806523D1*
X2410883D1*
Y4853620D1*
X2403177D1*
Y4847626D1*
X2402269Y4846696D1*
X2401825Y4846835D1*
X2401464Y4847626D1*
X2398895Y4850195D1*
X2393757Y4852764D1*
X2391188Y4853620D1*
X2386051D1*
G37*
G36*
X2594988D2*
Y4806523D1*
X2601838D1*
Y4853620D1*
X2594988D1*
G37*
G36*
X3245775D2*
Y4806523D1*
X3252625D1*
Y4853620D1*
X3245775D1*
G37*
X5426829Y2075620D2*
D109*
X5422982Y2077566D1*
X5417234Y2083269D1*
Y2043122D1*
X5402937Y2073719D2*
Y2075620D1*
X5401036Y2079467D1*
X5399135Y2081368D1*
X5395288Y2083269D1*
X5387639D1*
X5383836Y2081368D1*
X5381935Y2079467D1*
X5379989Y2075620D1*
Y2071818D1*
X5381935Y2067971D1*
X5385737Y2062267D1*
X5404883Y2043122D1*
X5378088D1*
X5365737Y2063196D2*
X5343629D1*
X5329332Y2073719D2*
Y2075620D1*
X5327431Y2079467D1*
X5325529Y2081368D1*
X5321683Y2083269D1*
X5314033D1*
X5310231Y2081368D1*
X5308330Y2079467D1*
X5306384Y2075620D1*
Y2071818D1*
X5308330Y2067971D1*
X5312132Y2062267D1*
X5331277Y2043122D1*
X5304483D1*
X5272986D2*
Y2083269D1*
X5292131Y2056519D1*
X5263435D1*
X5251084Y2083314D2*
X5235785Y2043122D1*
X5220487Y2083314D1*
X5343565Y2553095D2*
X5345466Y2556898D1*
X5349313Y2560744D1*
X5353115Y2562646D1*
X5360765D1*
X5364611Y2560744D1*
X5368414Y2556898D1*
X5370359Y2553095D1*
X5372261Y2547347D1*
Y2537752D1*
X5370359Y2532048D1*
X5368414Y2528202D1*
X5364611Y2524399D1*
X5360765Y2522454D1*
X5353115D1*
X5349313Y2524399D1*
X5345466Y2528202D1*
X5343565Y2532048D1*
Y2537752D1*
X5353115D1*
X5331213Y2549248D2*
Y2522454D1*
Y2541599D2*
X5325465Y2547347D1*
X5321619Y2549248D1*
X5315915D1*
X5312068Y2547347D1*
X5310167Y2541599D1*
Y2522454D1*
X5274867Y2562646D2*
Y2522454D1*
Y2543500D2*
X5278670Y2547347D1*
X5282517Y2549248D1*
X5288265D1*
X5292067Y2547347D1*
X5295914Y2543500D1*
X5297815Y2537752D1*
Y2533950D1*
X5295914Y2528202D1*
X5292067Y2524399D1*
X5288265Y2522454D1*
X5282517D1*
X5278670Y2524399D1*
X5274867Y2528202D1*
X5409437Y2146243D2*
X5394138Y2106051D1*
X5378839Y2146243D1*
X5335891Y2106051D2*
Y2146243D1*
X5351189Y2106051D1*
X5366488Y2146243D1*
Y2106051D1*
X5313989Y2132845D2*
X5317791Y2130944D1*
X5321638Y2127097D1*
X5323539Y2121349D1*
Y2117547D1*
X5321638Y2111799D1*
X5317791Y2107996D1*
X5313989Y2106051D1*
X5308241D1*
X5304394Y2107996D1*
X5300591Y2111799D1*
X5298646Y2117547D1*
Y2121349D1*
X5300591Y2127097D1*
X5304394Y2130944D1*
X5308241Y2132845D1*
X5313989D1*
X5280547Y2146243D2*
Y2113700D1*
X5278645Y2107996D1*
X5274799Y2106051D1*
X5270996D1*
X5286295Y2132845D2*
X5272897D1*
M02*
