G04 DipTrace 4.0.0.2*
G04 BottomMask.gbr*
%MOIN*%
G04 #@! TF.FileFunction,Soldermask,Bot*
G04 #@! TF.Part,Single*
%ADD56C,0.137795*%
%ADD57C,0.03937*%
%ADD71C,0.128*%
%ADD73R,0.128X0.128*%
%ADD75C,0.094614*%
%ADD77R,0.094614X0.094614*%
%ADD89C,0.208*%
%ADD95C,0.067055*%
%ADD97R,0.067055X0.067055*%
%FSLAX26Y26*%
G04*
G70*
G90*
G75*
G01*
G04 BotMask*
%LPD*%
D97*
X944000Y1744000D3*
D95*
X844000D3*
D97*
X744000D3*
D95*
Y1644000D3*
Y1544000D3*
Y1444000D3*
Y1344000D3*
Y1244000D3*
Y1144000D3*
Y1044000D3*
D97*
X1244000Y1744000D3*
D95*
Y1644000D3*
Y1544000D3*
Y1444000D3*
Y1344000D3*
Y1244000D3*
Y1144000D3*
Y1044000D3*
D97*
X444000Y3794000D3*
D95*
X544000D3*
X644000D3*
X744000D3*
X844000D3*
X944000D3*
X1044000D3*
X1144000D3*
X1244000D3*
X1344000D3*
X1444000D3*
X1544000D3*
X1644000D3*
X1744000D3*
X1844000D3*
X1944000D3*
X2044000D3*
X2144000D3*
X2244000D3*
D97*
X444000Y3694000D3*
D95*
X544000D3*
X644000D3*
X744000D3*
X844000D3*
X944000D3*
X1044000D3*
X1144000D3*
X1244000D3*
X1344000D3*
X1444000D3*
X1544000D3*
X1644000D3*
X1744000D3*
X1844000D3*
X1944000D3*
X2044000D3*
X2144000D3*
X2244000D3*
D97*
X444000Y2694000D3*
D95*
X544000D3*
X644000D3*
X744000D3*
X844000D3*
X944000D3*
X1044000D3*
X1144000D3*
X1244000D3*
X1344000D3*
X1444000D3*
X1544000D3*
X1644000D3*
X1744000D3*
X1844000D3*
X1944000D3*
X2044000D3*
X2144000D3*
X2244000D3*
D97*
X444000Y2794000D3*
D95*
X544000D3*
X644000D3*
X744000D3*
X844000D3*
X944000D3*
X1044000D3*
X1144000D3*
X1244000D3*
X1344000D3*
X1444000D3*
X1544000D3*
X1644000D3*
X1744000D3*
X1844000D3*
X1944000D3*
X2044000D3*
X2144000D3*
X2244000D3*
D97*
X1744000Y1744000D3*
D95*
X1644000D3*
D97*
X1544000D3*
D95*
Y1644000D3*
Y1544000D3*
Y1444000D3*
Y1344000D3*
Y1244000D3*
Y1144000D3*
Y1044000D3*
D97*
X2044000Y1744000D3*
D95*
Y1644000D3*
Y1544000D3*
Y1444000D3*
Y1344000D3*
Y1244000D3*
Y1144000D3*
Y1044000D3*
D97*
X1394000Y4944000D3*
D95*
Y4844000D3*
X1294000Y4944000D3*
Y4844000D3*
X1194000Y4944000D3*
Y4844000D3*
X1094000Y4944000D3*
Y4844000D3*
X994000Y4944000D3*
Y4844000D3*
D97*
X2544000Y1744000D3*
D95*
X2444000D3*
D97*
X2344000D3*
D95*
Y1644000D3*
Y1544000D3*
Y1444000D3*
Y1344000D3*
Y1244000D3*
Y1144000D3*
Y1044000D3*
D97*
X2844000Y1744000D3*
D95*
Y1644000D3*
Y1544000D3*
Y1444000D3*
Y1344000D3*
Y1244000D3*
Y1144000D3*
Y1044000D3*
D97*
X3344000Y1744000D3*
D95*
X3244000D3*
D97*
X3144000D3*
D95*
Y1644000D3*
Y1544000D3*
Y1444000D3*
Y1344000D3*
Y1244000D3*
Y1144000D3*
Y1044000D3*
D97*
X3644000Y1744000D3*
D95*
Y1644000D3*
Y1544000D3*
Y1444000D3*
Y1344000D3*
Y1244000D3*
Y1144000D3*
Y1044000D3*
D97*
X1551480Y3306598D3*
D95*
Y3406598D3*
X1651480Y3306598D3*
Y3406598D3*
X1751480Y3306598D3*
Y3406598D3*
X1851480Y3306598D3*
Y3406598D3*
X1951480Y3306598D3*
Y3406598D3*
X2051480Y3306598D3*
Y3406598D3*
D97*
X4144000Y1744000D3*
D95*
X4044000D3*
D97*
X3944000D3*
D95*
Y1644000D3*
Y1544000D3*
Y1444000D3*
Y1344000D3*
Y1244000D3*
Y1144000D3*
Y1044000D3*
D97*
X4444000Y1744000D3*
D95*
Y1644000D3*
Y1544000D3*
Y1444000D3*
Y1344000D3*
Y1244000D3*
Y1144000D3*
Y1044000D3*
D97*
X2812749Y2756500D3*
D95*
X2912749D3*
X3012749D3*
D97*
X5469000Y1469000D3*
D95*
Y1369000D3*
Y1269000D3*
D97*
X506500Y1912749D3*
D95*
Y1812749D3*
Y1712749D3*
D97*
X4944000Y1744000D3*
D95*
X4844000D3*
D97*
X4744000D3*
D95*
Y1644000D3*
Y1544000D3*
Y1444000D3*
Y1344000D3*
Y1244000D3*
Y1144000D3*
Y1044000D3*
D97*
X5244000Y1744000D3*
D95*
Y1644000D3*
Y1544000D3*
Y1444000D3*
Y1344000D3*
Y1244000D3*
Y1144000D3*
Y1044000D3*
D97*
X744000Y2119000D3*
D95*
Y2219000D3*
Y2319000D3*
D97*
X544000Y2119000D3*
D95*
Y2219000D3*
Y2319000D3*
D97*
X506500Y925249D3*
D95*
Y1025249D3*
Y1125249D3*
D97*
X644000Y2119000D3*
D95*
Y2219000D3*
Y2319000D3*
D89*
X5531795Y531795D3*
Y5453055D3*
X531795D3*
Y531795D3*
D97*
X1644005Y3994000D3*
D95*
X1544005D3*
X1444005D3*
X1344005D3*
X1244005D3*
X1144005D3*
X1044005D3*
X944005D3*
X844014D3*
X744014D3*
X644014D3*
X544014D3*
D56*
X601874Y5135732D3*
D97*
X2944005Y3994000D3*
D95*
X2844005D3*
X2744005D3*
X2644005D3*
X2544005D3*
X2444005D3*
X2344005D3*
X2244005D3*
X2144014D3*
X2044014D3*
X1944014D3*
X1844014D3*
D56*
X1901874Y5135732D3*
D97*
X4244005Y3994000D3*
D95*
X4144005D3*
X4044005D3*
X3944005D3*
X3844005D3*
X3744005D3*
X3644005D3*
X3544005D3*
X3444014D3*
X3344014D3*
X3244014D3*
X3144014D3*
D56*
X3201874Y5135732D3*
D97*
X5540406Y3994000D3*
D95*
X5440406D3*
X5340406D3*
X5240406D3*
X5140406D3*
X5040406D3*
X4940406D3*
X4840406D3*
X4740415D3*
X4640415D3*
X4540415D3*
X4440415D3*
D56*
X4498274Y5135732D3*
D97*
X4044000Y2694008D3*
D95*
Y2794008D3*
Y2894008D3*
Y2994008D3*
Y3094008D3*
Y3194008D3*
Y3294008D3*
Y3394008D3*
Y3493999D3*
Y3593999D3*
Y3693999D3*
Y3793999D3*
D56*
X5185732Y3736139D3*
D57*
X487898Y3435634D3*
Y3120673D3*
D77*
X794000Y694000D3*
D75*
X931795D3*
X1069591D3*
X1207386D3*
D77*
X1594000D3*
D75*
X1731795D3*
X1869591D3*
X2007386D3*
D77*
X2394000D3*
D75*
X2531795D3*
X2669591D3*
X2807386D3*
D73*
X5443999Y2200249D3*
D71*
Y2397100D3*
D77*
X3194000Y694000D3*
D75*
X3331795D3*
X3469591D3*
X3607386D3*
D77*
X3994000D3*
D75*
X4131795D3*
X4269591D3*
X4407386D3*
D77*
X4794000D3*
D75*
X4931795D3*
X5069591D3*
X5207386D3*
M02*
